<svg id="Layer_1" data-name="Layer 1" xmlns="http://www.w3.org/2000/svg" viewBox="0 0 676.6 446.18"><g style="opacity:0.30000001192092896"><path d="M520,219.3l-.3-12,.9-5.9s10.2.3,12.4-3.8a67.82,67.82,0,0,0,4-10.6l-12.7-3.3-9.2,16.2-2.8,8,4.4,10.4Z" transform="translate(0 0)"/></g><g style="opacity:0.30000001192092896"><path d="M515.4,240.3l2.3.7s.9-17.5-1.6-22.8Z" transform="translate(0 0)"/></g><path d="M516.5,208.9s3.5,2.2,4.3,4.6S541.5,230,541.5,230l2.7-.7,34-7.8-12.1,2.8-15.8,26.2c-1.1.3-34.9-10.6-34.9-10.6Z" transform="translate(0 0)" style="fill:#455a64"/><path d="M529.4,298.9c-7.6-2.5-13.5-6.1-17.6-10.6a29,29,0,0,1-7.3-16.2,48.08,48.08,0,0,1,2.5-20.4l1.5-4.7,18.3,6.1-.5,1.5-.5,1.6a51.44,51.44,0,0,0-2.2,11.7,16.54,16.54,0,0,0,2,9.5c1.6,2.7,4.5,4.7,8.8,6.2,4.5,1.5,8.2,1.6,11.3.2a17.45,17.45,0,0,0,7.7-7.5,76.34,76.34,0,0,0,5.7-13.1c2.4-7.4,3.1-13.9,1.9-19.4s-5-9.7-11.7-12.5a3.38,3.38,0,0,0-1.2-.6l-1.3-.4,6.1-18.5,1.2.4,1.2.4c6.7,1.9,12,1.8,15.9-.5s7.1-7.2,9.6-14.6c2.1-6.3,2.7-11.8,1.8-16.3s-4.5-7.8-10.8-9.9-11.2-1.4-14.7,2.1-6.4,8.5-8.8,15l-.5,1.5-.5,1.5-18.4-6.1,1.5-4.7c2.5-7.5,5.9-13.5,10.2-17.9a28.69,28.69,0,0,1,15.6-8.5c6.1-1.2,12.9-.5,20.5,2s13.6,6.1,17.8,10.7a28.73,28.73,0,0,1,7.3,16.1c.8,6.2-.1,13-2.6,20.5-2.8,8.4-6.8,14.6-12.2,18.4a28.26,28.26,0,0,1-18,5.5,25.76,25.76,0,0,1,8.6,10.2,32.72,32.72,0,0,1,2.9,14.1,54.62,54.62,0,0,1-3.1,17.5,65.06,65.06,0,0,1-10.6,20.6A30.34,30.34,0,0,1,551,300.5C544.9,302.2,537.7,301.7,529.4,298.9Z" transform="translate(0 0)"/><path d="M529.4,299c-7.6-2.5-13.5-6.1-17.6-10.7a29,29,0,0,1-7.3-16.2,48.26,48.26,0,0,1,2.5-20.4l1.5-4.7,18.3,6.1-.5,1.5-.5,1.6a51.44,51.44,0,0,0-2.2,11.7,16.54,16.54,0,0,0,2,9.5c1.6,2.7,4.5,4.8,8.8,6.2,4.5,1.5,8.2,1.6,11.3.2a17.45,17.45,0,0,0,7.7-7.5,76.34,76.34,0,0,0,5.7-13.1c2.4-7.4,3.1-13.9,1.9-19.4s-5.1-9.7-11.7-12.4a3.38,3.38,0,0,0-1.2-.6l-1.3-.4,6.1-18.5,1.2.4,1.2.4c6.7,1.9,12,1.8,15.9-.5s7.1-7.2,9.7-14.6c2.1-6.3,2.7-11.8,1.8-16.3s-4.5-7.8-10.8-9.9-11.2-1.4-14.7,2.1-6.4,8.5-8.8,15l-.5,1.5-.5,1.5-18.3-6.1,1.5-4.7c2.5-7.5,5.9-13.5,10.2-17.9a28.69,28.69,0,0,1,15.6-8.5c6.1-1.2,12.9-.5,20.5,2s13.6,6.1,17.8,10.7a28.72,28.72,0,0,1,7.3,16.2c.8,6.2-.1,13-2.6,20.5-2.8,8.4-6.8,14.6-12.1,18.4a28.26,28.26,0,0,1-18,5.5,26.17,26.17,0,0,1,8.6,10.1,32.72,32.72,0,0,1,2.9,14.1,54.62,54.62,0,0,1-3.1,17.5,65.57,65.57,0,0,1-10.6,20.5,30.34,30.34,0,0,1-15.8,10.7C544.9,302.3,537.7,301.8,529.4,299Z" transform="translate(0 0)" style="fill:#608441"/><path d="M516.6,295.5c-7.6-2.5-13.5-6.1-17.6-10.6a29,29,0,0,1-7.3-16.2,48.08,48.08,0,0,1,2.5-20.4l1.5-4.7,18.3,6.1-.5,1.5-.5,1.6a51.44,51.44,0,0,0-2.2,11.7,16.54,16.54,0,0,0,2,9.5c1.6,2.7,4.5,4.8,8.8,6.2,4.5,1.5,8.3,1.6,11.3.2a17.45,17.45,0,0,0,7.7-7.5,79.89,79.89,0,0,0,5.7-13.1c2.5-7.4,3.1-13.9,1.9-19.4s-5.1-9.7-11.7-12.4a3.38,3.38,0,0,0-1.2-.6L534,227l6.1-18.5,1.2.4,1.2.4c6.7,1.9,12,1.8,15.9-.5s7.1-7.2,9.6-14.6c2.1-6.3,2.7-11.8,1.8-16.3s-4.5-7.8-10.8-9.9-11.2-1.4-14.7,2.1-6.4,8.5-8.8,15l-.5,1.5-.5,1.5L516.2,182l1.5-4.7c2.5-7.5,5.9-13.5,10.2-17.9a28.69,28.69,0,0,1,15.6-8.5c6.1-1.2,12.9-.5,20.5,2s13.7,6.1,17.8,10.7a28.73,28.73,0,0,1,7.3,16.1c.8,6.2-.1,13-2.6,20.5-2.8,8.4-6.8,14.6-12.1,18.4a28.26,28.26,0,0,1-18,5.5,26.85,26.85,0,0,1,8.7,10.2,32.42,32.42,0,0,1,2.9,14.1,54.62,54.62,0,0,1-3.1,17.5,65.32,65.32,0,0,1-10.7,20.6,30.34,30.34,0,0,1-15.8,10.7C532.1,298.8,524.9,298.3,516.6,295.5Z" transform="translate(0 0)" style="fill:#a3cc84"/><polygon points="138 203.5 169.7 205.5 202.1 190.4 212.1 202.7 172.4 223.8 150.4 226.5 138 203.5" style="fill:#455a64"/><g id="freepik--background-complete--inject-2"><path d="M658.9,287.4V284c0-2.2,0-5.4-.1-9.4l.2.1-48.7.1.2-.2h0v12.9l-.2-.2,34.7.1,10.2.1h.1l-10.2.1-34.8.1h-.2V274.8h0l.2-.2,48.7.1h.2v.1c0,4.1-.1,7.3-.1,9.5v3.1C659,287.3,658.9,287.3,658.9,287.4Z" transform="translate(0 0)" style="fill:#e0e0e0"/><path d="M665.5,274.5V271c0-2.3,0-5.5-.1-9.4l.2.2-29.2.1.2-.2h0v12.9l-.2-.2,20.9.1,6.1.1h.1l-6,.1-21,.1h-.2v-13h0l.2-.2,29.2.1h.2v.2c0,4-.1,7.2-.1,9.5v2.5A1.63,1.63,0,0,0,665.5,274.5Z" transform="translate(0 0)" style="fill:#e0e0e0"/><path d="M658.9,287.4V284c0-2.2,0-5.4-.1-9.4l.2.1-48.7.1.2-.2h0v12.9l-.2-.2,34.7.1,10.2.1h.1l-10.2.1-34.8.1h-.2V274.8h0l.2-.2,48.7.1h.2v.1c0,4.1-.1,7.3-.1,9.5v3.1C659,287.3,658.9,287.3,658.9,287.4Z" transform="translate(0 0)" style="fill:#e0e0e0"/><path d="M665.5,274.5V271c0-2.3,0-5.5-.1-9.4l.2.2-29.2.1.2-.2h0v12.9l-.2-.2,20.9.1,6.1.1h.1l-6,.1-21,.1h-.2v-13h0l.2-.2,29.2.1h.2v.2c0,4-.1,7.2-.1,9.5v2.5A1.63,1.63,0,0,0,665.5,274.5Z" transform="translate(0 0)" style="fill:#e0e0e0"/><rect x="54" y="64.6" width="48.6" height="12.9" style="fill:#ebebeb"/><path d="M82.1,91.1V87.7c0-2.2,0-5.4-.1-9.4l.2.2-48.7.1.2-.2h0V91.2l-.2-.2,34.7.1L78.4,91h.1l-10.1.1-34.8.1h-.2v-13h0l.2-.2,48.6.1h.2v.2c0,4.1-.1,7.3-.1,9.5v3.1C82.2,90.9,82.2,91,82.1,91.1Z" transform="translate(0 0)" style="fill:#e0e0e0"/><rect x="409.5" y="309.3" width="48.6" height="12.9" style="fill:#ebebeb"/><path d="M437.6,335.7v-3.4c0-2.2,0-5.4-.1-9.4l.1.1H388.9l.2-.2h0v12.8l-.2-.2,34.7.1,10.2.1h.1l-10.2.1-34.9.1h-.2V322.9h0l.2-.2,48.6.1h.1v.1c0,4.1-.1,7.3-.1,9.5v3.1Z" transform="translate(0 0)" style="fill:#e0e0e0"/><rect x="404.8" y="84.9" width="48.6" height="12.9" style="fill:#ebebeb"/><rect x="627.9" y="148.7" width="48.7" height="12.9" style="fill:#ebebeb"/><path d="M192.6,26V22.6c0-2.2-.1-5.4-.1-9.4l.1.1-48.6.1.2-.2h0V26l-.2-.2,34.7.1,10.2.1H178.8l-34.8.1h-.2v-13h0l.2-.2,48.7.1h.1v.1c0,4.1-.1,7.3-.1,9.5v3.1Z" transform="translate(0 0)" style="fill:#e0e0e0"/><path d="M199.2,13.2V9.7c0-2.3,0-5.4-.1-9.4l.2.2H170l.2-.2h0V13.2L170,13l20.9.1h6.2l-6,.1H169.8V.2h0L170,0h29.4V.2c0,4-.1,7.2-.1,9.5v2.5C199.3,12.6,199.2,12.9,199.2,13.2Z" transform="translate(0 0)" style="fill:#e0e0e0"/><path d="M589.3,32.7V29.3c0-2.2,0-5.4-.1-9.4l.2.1H540.7l.2-.2h0V32.7l-.2-.2,34.7.1,10.2.1h.1l-10.2.1-34.8.1h-.3v-13h0l.2-.2,48.7.1h.1v.1c0,4.1-.1,7.3-.1,9.5v3.3Z" transform="translate(0 0)" style="fill:#e0e0e0"/><path d="M595.9,19.8V16.3c0-2.3,0-5.4-.1-9.4l.2.2-29.2.1L567,7h0V19.8l-.2-.2,20.9.1,6.1.1h.1l-6,.1-21.1.1h-.4V7h0l.2-.2,29.2.1h.2V7c0,4-.1,7.2-.1,9.5v3.3Z" transform="translate(0 0)" style="fill:#e0e0e0"/><path d="M299,100.3V96.9c0-2.2,0-5.4-.1-9.4l.1.2-48.6.1.2-.2h0v12.8l-.2-.2,34.7.1,10.2.1h.1l-10.2.1-34.8.1h-.2V87.3h0l.2-.2,48.7.1h.1v.2c0,4.1-.1,7.3-.1,9.5V100Z" transform="translate(0 0)" style="fill:#e0e0e0"/><path d="M305.6,87.5V84c0-2.2-.1-5.4-.1-9.4l.2.2-29.2.1.2-.2h0V87.5l-.2-.2,20.9.1,6.1.1h2.1a.6.6,0,0,0-.4-.1h-1.6l-6,.1-21.2.2h-.2v-13h0c-.1,0,.5-.5.2-.2l29.2.1h.2v.2c0,4-.1,7.2-.1,9.5v2.5A1.73,1.73,0,0,1,305.6,87.5Z" transform="translate(0 0)" style="fill:#e0e0e0"/><path d="M48.9,260.3v-3.4c0-2.2,0-5.4-.1-9.4l.2.1-48.7.1.2-.2h0v12.9L.2,260l34.7.1,10.2.1h.1l-10.2.1-34.8.1H0v-13H0l.2-.2,48.7.1h.2v.2c0,4.1-.1,7.3-.1,9.5v3.1Z" transform="translate(0 0)" style="fill:#e0e0e0"/><path d="M55.5,247.4v-3.5c0-2.3-.1-5.4-.1-9.4l.2.2-29.2.1.2-.2h0v12.8l-.2-.2,20.9.1,6.1.1h.1l-6,.1-21.2.2h-.2V234.6h0l.2-.2,29.2.1h.2v.2c0,4-.1,7.2-.1,9.5v2.5A2,2,0,0,1,55.5,247.4Z" transform="translate(0 0)" style="fill:#e0e0e0"/><path d="M215.7,324.3a31,31,0,0,0-13.1-4.5c-2.1-.2-4.5-.2-6.2,1.1a1.25,1.25,0,0,0-.6,1.1,1.56,1.56,0,0,0,.6.8,18.43,18.43,0,0,0,19.3,1.5" transform="translate(0 0)" style="fill:#e0e0e0"/><path d="M215.4,324a60.08,60.08,0,0,1-8.5-7.5,22.21,22.21,0,0,1-5.3-9.9,4.24,4.24,0,0,1,.4-3.3c6.8,5.3,12.1,12.2,13.4,20.7" transform="translate(0 0)" style="fill:#e0e0e0"/><path d="M215.6,324.3a31.82,31.82,0,0,1,.1-11.1,15.46,15.46,0,0,1,5.9-9.2c1.2,2.7.7,5.9-.1,8.7a44.17,44.17,0,0,1-5.9,12.4" transform="translate(0 0)" style="fill:#e0e0e0"/><path d="M222.2,336.2a18.88,18.88,0,0,0-10.5,5.3,20.44,20.44,0,0,0-6,10.3c4-.2,7.3-3,9.7-6.1s4.1-6.6,6.8-9.5" transform="translate(0 0)" style="fill:#e0e0e0"/><path d="M223.7,338a26.06,26.06,0,0,1,3-24.6c2.3,8.2,1.4,17.4-3,24.6" transform="translate(0 0)" style="fill:#e0e0e0"/><path d="M232.4,348.5a18.86,18.86,0,0,0-18,10.3,1.41,1.41,0,0,0-.1,1.4,1.75,1.75,0,0,0,1.2.4c3.5-.2,6.7-2.4,9.3-4.8s4.8-5.2,7.6-7.3" transform="translate(0 0)" style="fill:#e0e0e0"/><path d="M232.2,347.9a33.05,33.05,0,0,1-.3-18.7c.7-2.4,1.8-4.9,4-6.1a.66.66,0,0,1,.6-.1.78.78,0,0,1,.4.4,11,11,0,0,1,.9,5.4,33.53,33.53,0,0,1-.8,5.4c-.7,3.3-1.1,6.9-2.9,9.7A21.16,21.16,0,0,0,233,346c-.4.7-.4,1-.7,1.6" transform="translate(0 0)" style="fill:#e0e0e0"/><path d="M255.3,351.4a24.17,24.17,0,0,1,4.2-19.8,1.64,1.64,0,0,1,1.2-.8c.8.1,1,1.1.9,1.9a34.37,34.37,0,0,1-6.3,18.7" transform="translate(0 0)" style="fill:#e0e0e0"/><path d="M257.4,352.8A28.78,28.78,0,0,0,281,348a19.58,19.58,0,0,0-12.8-1.6c-4.3,1-8.2,2.9-10.8,6.4" transform="translate(0 0)" style="fill:#e0e0e0"/><path d="M259.2,348.4A27.51,27.51,0,0,1,280.7,336c-1,3.5-3.8,6.1-7,7.8a36.94,36.94,0,0,1-10.3,3c-1.4.3-3.3.6-4.2,1.6" transform="translate(0 0)" style="fill:#e0e0e0"/><path d="M255.8,327.3a67.52,67.52,0,0,0,2.8-12.6,20.64,20.64,0,0,0-2.5-12.4,27.19,27.19,0,0,0-.4,25.4" transform="translate(0 0)" style="fill:#e0e0e0"/><path d="M269.8,320.3c4.9-8.8,14.8-15.9,24.8-16.9-3.9,9.6-14.5,17.1-24.8,16.9" transform="translate(0 0)" style="fill:#e0e0e0"/><path d="M266.7,322c7.2,1.1,13.4,5.7,20.2,8.5a9,9,0,0,0,4.6.9,3.5,3.5,0,0,0,3.5-3.6,3.68,3.68,0,0,0-1.3-2.7,9.44,9.44,0,0,0-3.3-2c-7.4-3.1-15.3-3.1-23-1.3" transform="translate(0 0)" style="fill:#e0e0e0"/><path d="M262.5,327c1.6.5,2.2,1.3,3.5,2.4a37.34,37.34,0,0,0,15.3,7.9c.6.1,1.4.2,1.6-.3a1.49,1.49,0,0,0-.4-1.4,21.43,21.43,0,0,0-9.2-6.3c-3.5-1.3-6.6-2.9-10.8-2.6" transform="translate(0 0)" style="fill:#e0e0e0"/><path d="M257.8,296.4A29.27,29.27,0,0,0,280,304a1.28,1.28,0,0,0,1-.4c.6-.6-.1-1.5-.8-2-6.5-5.1-14.4-7.2-22.4-5.2" transform="translate(0 0)" style="fill:#e0e0e0"/><path d="M263.4,294.4a30.86,30.86,0,0,1,27.7-4.6,21.81,21.81,0,0,1-13.2,5.8,44.1,44.1,0,0,1-14.5-1.2" transform="translate(0 0)" style="fill:#e0e0e0"/><path d="M261.2,280.3c-.6-6.5-.2-11.7-.7-18.2,0-.5-.1-1.1-.6-1.3-.7-.3-1.2.6-1.5,1.3a20.83,20.83,0,0,0,2.8,18.1" transform="translate(0 0)" style="fill:#e0e0e0"/><path d="M260.7,281a38.57,38.57,0,0,0,10.8-10.5c2.1-2.9,3.9-6.4,3.4-10a10.42,10.42,0,0,0-7.8,3.9,22.31,22.31,0,0,0-4,8c-.8,2.9-1.4,5.8-2.4,8.6" transform="translate(0 0)" style="fill:#e0e0e0"/><path d="M271.3,278a87.39,87.39,0,0,0,26.5-15.6c-3.2-1.3-6.8-.5-10,.8A31.44,31.44,0,0,0,271.1,278" transform="translate(0 0)" style="fill:#e0e0e0"/><path d="M263.7,284.6a55.66,55.66,0,0,0,14.7.1c4.8-.8,9.3-2.7,13.8-4.6a1.6,1.6,0,0,0,.9-.7,1.31,1.31,0,0,0-.3-1.2,1.85,1.85,0,0,0-1.2-.5c-4.9-1.4-10.1-.7-14.9.9a63.73,63.73,0,0,0-13,6" transform="translate(0 0)" style="fill:#e0e0e0"/><path d="M235.7,296.7c-3.4-6.8-3.1-14.6-.2-21.6,2,3.1,2.3,7,1.9,10.7s-1.5,7.5-1.6,11.2" transform="translate(0 0)" style="fill:#e0e0e0"/><path d="M222.3,289.9a30.39,30.39,0,0,0-22.3,9.5,20.63,20.63,0,0,0,12.2-2.3,66.15,66.15,0,0,0,10.5-7" transform="translate(0 0)" style="fill:#e0e0e0"/><path d="M213.4,286.9c-4.1-.3-8-.8-11.9.4a14.26,14.26,0,0,0-9.1,7.7,21.61,21.61,0,0,0,11.2-2.1,66,66,0,0,0,9.8-6" transform="translate(0 0)" style="fill:#e0e0e0"/><path d="M226.6,287c-3.7-2.4-7.4-4.9-11.7-5.9s-9.2-.3-12.2,3c3.5,2,7.7,2.3,11.7,2.3s8.9,0,12.7,1.3" transform="translate(0 0)" style="fill:#e0e0e0"/><path d="M226.7,287.2c-6.3-6.2-8.7-17.2-6.1-25.7a40.1,40.1,0,0,1,6.1,25.7" transform="translate(0 0)" style="fill:#e0e0e0"/><path d="M243.9,269.8c1.2-2.8,2-5.6,3.1-8.5a26.16,26.16,0,0,1,4.4-7.8,11.87,11.87,0,0,1,7.8-4,31.22,31.22,0,0,1-15.1,20.3" transform="translate(0 0)" style="fill:#e0e0e0"/><path d="M240.8,273.4c-2-2.7-4.2-6.4-6.9-8.4a11.93,11.93,0,0,0-9.4-2.5,22.24,22.24,0,0,0,16.3,10.9" transform="translate(0 0)" style="fill:#e0e0e0"/><path d="M241.4,270a50.34,50.34,0,0,1-3.1-10,15.66,15.66,0,0,1,1.6-10.2c3.4,6.5,4.6,13.5,1.7,20.3" transform="translate(0 0)" style="fill:#e0e0e0"/><path d="M244,249.7c2-6.5,7.9-11.2,14.3-13.4a5.28,5.28,0,0,1,2.5-.4,2,2,0,0,1,1.8,1.5c.2,1.1-.7,2.1-1.5,2.8a45.81,45.81,0,0,1-17.1,9.5" transform="translate(0 0)" style="fill:#e0e0e0"/><path d="M244,244.4c.2-4.2.5-8.4,1.9-12.3s4-7.6,7.8-9.4c.6,4.2-1.2,8.4-3.4,12s-4.9,7-6.3,11.1" transform="translate(0 0)" style="fill:#e0e0e0"/><path d="M243.9,247.3c-1.6-4.7-1.8-10.7-4.6-14.8-2-2.9-5.1-4.8-6.8-7.9a11.92,11.92,0,0,0,.4,8.9,25.87,25.87,0,0,0,5.2,7.5c2.1,2.3,3.9,4,5.8,6.3" transform="translate(0 0)" style="fill:#e0e0e0"/><path d="M244,386c-.1,0-.2-31.4-.2-70.2s.1-70.2.2-70.2.2,31.4.2,70.2S244.1,386,244,386Z" transform="translate(0 0)" style="fill:#e0e0e0"/><path d="M271.4,291.9c-.4.2-.8.3-1.2.5l-3.2,1.1c-2.8.9-6.5,2.3-10.6,4s-7.9,3.1-10,5a6.83,6.83,0,0,0-2,2.7,6.74,6.74,0,0,0-.4,1.2v-.3a2.92,2.92,0,0,1,.2-.9,7.22,7.22,0,0,1,2-2.9,17.94,17.94,0,0,1,4.4-2.7c1.7-.8,3.7-1.7,5.7-2.5a103.07,103.07,0,0,1,10.7-3.8c1.4-.4,2.5-.8,3.3-1A2.1,2.1,0,0,1,271.4,291.9Z" transform="translate(0 0)" style="fill:#e0e0e0"/><path d="M280.4,269.8a1.38,1.38,0,0,0-.3.4l-1,1-3.8,3.4-12.5,11.1c-4.9,4.4-9.1,8.5-12,11.6-1.5,1.6-2.6,2.9-3.4,3.8l-.9,1-.3.3c.1-.1.2-.3.3-.4s.5-.6.9-1.1c.8-.9,1.9-2.3,3.3-3.9a167,167,0,0,1,12-11.8c4.9-4.3,9.4-8.2,12.6-11l3.9-3.3,1.1-.9C280.2,269.9,280.3,269.9,280.4,269.8Z" transform="translate(0 0)" style="fill:#e0e0e0"/><path d="M257.5,290.1c-.1-.1.9-2.4,1.9-5.4s1.5-5.5,1.6-5.5a18.11,18.11,0,0,1-1.2,5.6,29.93,29.93,0,0,1-1.5,3.8A10.93,10.93,0,0,1,257.5,290.1Z" transform="translate(0 0)" style="fill:#e0e0e0"/><path d="M244,309.1c-.3-.3-.5-.6-.8-.9l-1.9-2.5c-1.6-2.1-3.9-5-6.4-8.1s-4.8-6-6.5-8.1c-.8-1-1.4-1.8-2-2.4a5.5,5.5,0,0,1-.7-.9,3,3,0,0,1,.8.8c.5.5,1.2,1.4,2.1,2.4,1.7,2,4.1,4.8,6.6,8s4.7,6.1,6.3,8.2c.8,1.1,1.4,2,1.8,2.6A3.11,3.11,0,0,1,244,309.1Z" transform="translate(0 0)" style="fill:#e0e0e0"/><path d="M238,301.4a10.73,10.73,0,0,1-2.5-4.7,13,13,0,0,1-.6-4.8h.2c-.1.4-.2.6-.2.5v-.6h.2a23.3,23.3,0,0,0,.8,4.6A37.48,37.48,0,0,0,238,301.4Z" transform="translate(0 0)" style="fill:#e0e0e0"/><path d="M230.2,291.7a7.68,7.68,0,0,0-1.8-1,11.68,11.68,0,0,0-4.9-.4,26.38,26.38,0,0,0-4.9.8,14.62,14.62,0,0,1-2,.5,7.71,7.71,0,0,1,1.9-.8,21,21,0,0,1,5-.9,12,12,0,0,1,5,.5A3.15,3.15,0,0,1,230.2,291.7Z" transform="translate(0 0)" style="fill:#e0e0e0"/><path d="M228.4,289.2c0,.1-1-.4-2.7-1a27.28,27.28,0,0,0-13.6-1c-1.7.3-2.8.6-2.8.6.2-.1.5-.2.7-.3l2-.6a24.08,24.08,0,0,1,13.8,1,6.63,6.63,0,0,1,1.9.9A4.35,4.35,0,0,1,228.4,289.2Z" transform="translate(0 0)" style="fill:#e0e0e0"/><path d="M243.9,279.2a53.05,53.05,0,0,1-2-6.8,41.53,41.53,0,0,1-1.5-7,53.05,53.05,0,0,1,2,6.8A43.75,43.75,0,0,1,243.9,279.2Z" transform="translate(0 0)" style="fill:#e0e0e0"/><path d="M244.1,279.2a32.33,32.33,0,0,0-2.2-4.1,16.68,16.68,0,0,0-3.2-3.3,2.28,2.28,0,0,1,1.2.6,10.44,10.44,0,0,1,2.3,2.4A10.2,10.2,0,0,1,244.1,279.2Z" transform="translate(0 0)" style="fill:#e0e0e0"/><path d="M244,369.3c-.1,0-.1-.8-.5-2.1a25.21,25.21,0,0,0-2.1-5.4,72.38,72.38,0,0,0-11.2-15.7c-2.5-2.8-4.9-5.5-6.9-8.1a61.42,61.42,0,0,1-5-7.2,36.51,36.51,0,0,1-2.5-5.3l-.5-1.5a1.09,1.09,0,0,1-.1-.5s.3.7.8,2a25.67,25.67,0,0,0,2.7,5.2,69.81,69.81,0,0,0,5,7.1c2,2.5,4.5,5.2,7,8a73.18,73.18,0,0,1,11.1,15.9,27.92,27.92,0,0,1,2,5.5c.1.5.2,1,.3,1.6A.75.75,0,0,0,244,369.3Z" transform="translate(0 0)" style="fill:#e0e0e0"/><path d="M268.8,341.2a8.26,8.26,0,0,1-1.3.7,39.56,39.56,0,0,0-3.4,2.2,33.76,33.76,0,0,0-4.4,4,72.59,72.59,0,0,0-4.8,5.6,126.74,126.74,0,0,0-8.1,10.6,39.72,39.72,0,0,0-2,3.5c-.2.5-.5.9-.7,1.3,0-.1.1-.3.1-.4s.2-.6.4-1c.6-1.2,1.2-2.4,1.9-3.6a120.16,120.16,0,0,1,8.1-10.7,64.35,64.35,0,0,1,4.8-5.6,33.9,33.9,0,0,1,4.5-4,25,25,0,0,1,3.5-2.1c.4-.2.8-.3,1-.4A.6.6,0,0,0,268.8,341.2Z" transform="translate(0 0)" style="fill:#e0e0e0"/><path d="M269.3,350.3a23.58,23.58,0,0,1-2.8.4A35.64,35.64,0,0,0,260,352a18,18,0,0,0-5.8,3.1,11.9,11.9,0,0,0-2,1.9,2.09,2.09,0,0,1,.4-.6,19.2,19.2,0,0,1,1.4-1.5,16.12,16.12,0,0,1,5.9-3.2,38.19,38.19,0,0,1,6.6-1.2A13.2,13.2,0,0,1,269.3,350.3Z" transform="translate(0 0)" style="fill:#e0e0e0"/><path d="M252.9,355.9c-.1-.1,1.1-2,2.1-4.5s1.1-4.8,1.3-4.8a7.52,7.52,0,0,1,0,1.5,13.71,13.71,0,0,1-.8,3.5,19.12,19.12,0,0,1-1.6,3.2A5.24,5.24,0,0,1,252.9,355.9Z" transform="translate(0 0)" style="fill:#e0e0e0"/><path d="M276.8,316.8a.76.76,0,0,1-.4.2l-1.3.6a12.44,12.44,0,0,0-2,1c-.7.5-1.7.8-2.6,1.4l-1.5.9c-.5.3-1,.6-1.6,1-1.1.7-2.2,1.5-3.4,2.3a57.88,57.88,0,0,0-13.1,13.5c-.8,1.2-1.6,2.4-2.2,3.5-.3.6-.7,1.1-.9,1.6a10.93,10.93,0,0,1-.8,1.5c-.5,1-.9,1.9-1.3,2.7s-.7,1.5-.9,2-.4,1-.5,1.3-.1.3-.2.5c0-.2.1-.3.1-.5a11.22,11.22,0,0,1,.5-1.3c.2-.5.5-1.3.8-2.1a28.55,28.55,0,0,1,1.2-2.7l.7-1.6c.3-.5.6-1.1.9-1.6.6-1.1,1.4-2.3,2.2-3.5a53.35,53.35,0,0,1,13.2-13.6c1.2-.8,2.3-1.7,3.4-2.3.6-.3,1.1-.7,1.6-1l1.5-.8c1-.5,1.9-.9,2.7-1.3l2.1-.9,1.3-.5A1.33,1.33,0,0,1,276.8,316.8Z" transform="translate(0 0)" style="fill:#e0e0e0"/><path d="M257.2,330a3.55,3.55,0,0,1,1.1-1.6,7.72,7.72,0,0,1,4.4-1.7,12.16,12.16,0,0,1,4.6.9,8.86,8.86,0,0,1,1.7.8,12.09,12.09,0,0,1-1.8-.5,13.27,13.27,0,0,0-4.5-.7,6.55,6.55,0,0,0-4.2,1.5A8,8,0,0,0,257.2,330Z" transform="translate(0 0)" style="fill:#e0e0e0"/><path d="M254.2,333a11.63,11.63,0,0,0,1-8.2,2.2,2.2,0,0,1,.5,1.2,6.13,6.13,0,0,1,.2,3,7.61,7.61,0,0,1-1,3A1.45,1.45,0,0,1,254.2,333Z" transform="translate(0 0)" style="fill:#e0e0e0"/><path d="M222.3,373.8c.7,12,4.3,24.2,9.9,36.6h24.2c5.3-12.2,8.7-24.4,9.3-36.6Z" transform="translate(0 0)" style="fill:#e0e0e0"/><path d="M261.7,393.2c0,.1-8,.2-17.8.2s-17.8-.1-17.8-.2,8-.2,17.8-.2S261.7,393,261.7,393.2Z" transform="translate(0 0)" style="fill:#fafafa"/><path d="M261.1,397.5c0,.1-7.5.2-16.7.2s-16.7-.1-16.7-.2,7.5-.2,16.7-.2S261.1,397.4,261.1,397.5Z" transform="translate(0 0)" style="fill:#fafafa"/><path d="M232.5,381.7a68.56,68.56,0,0,1,0,11.1A68.56,68.56,0,0,1,232.5,381.7Z" transform="translate(0 0)" style="fill:#fafafa"/><path d="M245.5,381.7a73.58,73.58,0,0,1,0,11.5A73.58,73.58,0,0,1,245.5,381.7Z" transform="translate(0 0)" style="fill:#fafafa"/><path d="M257.6,381.5a77.47,77.47,0,0,1,0,11.8A116.1,116.1,0,0,1,257.6,381.5Z" transform="translate(0 0)" style="fill:#fafafa"/><path d="M264.8,381.7c0,.1-9.4.2-20.9.2s-20.9-.1-20.9-.2,9.3-.2,20.9-.2S264.8,381.5,264.8,381.7Z" transform="translate(0 0)" style="fill:#fafafa"/></g><g id="freepik--Floor--inject-2"><path d="M667.9,410c0,.1-147.6.3-329.5.3S8.8,410.2,8.8,410s147.6-.3,329.5-.3S667.9,409.9,667.9,410Z" transform="translate(0 0)" style="fill:#263238"/></g><g id="freepik--plant-2--inject-2"><path d="M657.2,249.7c-8.4,4.3-14.8,11.8-19.4,20s-7.6,17.2-10.5,26.2l-2.6,46.2c9.7-16.6,17.5-36,19.7-55.1l-6.5-.6c4.3-.7,8-3.8,10.3-7.5s3.5-8,4.7-12.3l-7.9,1.2A30,30,0,0,0,657.2,249.7Z" transform="translate(0 0)" style="fill:#455a64"/><g style="opacity:0.30000001192092896"><path d="M657.2,249.7c-8.4,4.3-14.8,11.8-19.4,20s-7.6,17.2-10.5,26.2l-2.6,46.2c9.7-16.6,17.5-36,19.7-55.1l-6.5-.6c4.3-.7,8-3.8,10.3-7.5s3.5-8,4.7-12.3l-7.9,1.2A30,30,0,0,0,657.2,249.7Z" transform="translate(0 0)"/></g><path d="M623.2,352.8s-21.1-25.3-20.8-49.4h8.5s-9.3-6.1-8.5-9.5,1-16.3,1-16.3l7.8,2s-5.8-2.9-6.6-7.6,1.7-26.1,1.7-26.1,9.5,10,12.4,20.2,10.6,22.2,8.4,53.4S623.2,352.8,623.2,352.8Z" transform="translate(0 0)" style="fill:#455a64"/><path d="M633.9,355.2s22.9-15.2,28-34.7l-6.9-1.8s8.8-2.9,8.9-5.8,2.8-13.4,2.8-13.4l-6.7-.1s5.3-1.1,7-4.6,4.3-21.4,4.3-21.4-9.8,6-14.4,13.5-13.4,15.5-18.4,41.1S633.9,355.2,633.9,355.2Z" transform="translate(0 0)" style="fill:#455a64"/><path d="M612,267.9c0,.1.1.2.1.3l.2.8c.2.7.4,1.7.7,3,.6,2.6,1.4,6.4,2.3,11.1s1.9,10.3,2.8,16.5,1.9,13.1,2.8,20.4,1.5,14.2,2,20.5.8,12,1,16.7.3,8.6.3,11.3v3.1c0-.8-.1-1.8-.1-3.1-.1-2.7-.2-6.5-.5-11.3s-.6-10.4-1.1-16.7-1.2-13.2-2-20.4-1.8-14.1-2.7-20.3-1.9-11.8-2.7-16.6-1.6-8.5-2.1-11.1a26,26,0,0,0-.6-3,2.49,2.49,0,0,1-.1-.8C612.1,268.1,612,268,612,267.9Z" transform="translate(0 0)" style="fill:#263238"/><path d="M620.3,368.3S601,346.4,595,333.1l4.5-1.9a12,12,0,0,1-9.2-3,36.09,36.09,0,0,1-6.2-7.8l6-1a22.29,22.29,0,0,1-13-10.1c7,1.2,13.4,5,18.7,9.9A93.35,93.35,0,0,1,607,332.3a44.8,44.8,0,0,1,4.4,7.2C614.6,346.2,620.3,360.2,620.3,368.3Z" transform="translate(0 0)" style="fill:#455a64"/><path d="M662.2,286.1c0,.1,0,.2-.1.2a3.33,3.33,0,0,0-.3.6l-1.2,2.4c-1,2.1-2.5,5.2-4.3,9-3.5,7.6-8.2,18.2-12.8,30.2s-8.3,23-10.8,31c-1.2,4-2.2,7.3-2.9,9.5l-.8,2.6-.2.7c0,.1,0,.2-.1.2v-.2a1.85,1.85,0,0,1,.2-.7c.2-.6.4-1.5.7-2.6q.9-3.45,2.7-9.6c2.4-8,6-19.1,10.7-31s9.4-22.6,13-30.1c1.8-3.8,3.3-6.8,4.4-8.9a26.34,26.34,0,0,0,1.2-2.4l.3-.6C662.1,286.3,662.1,286.2,662.2,286.1Z" transform="translate(0 0)" style="fill:#263238"/><path d="M621.9,377.7a7.58,7.58,0,0,1-.3-1.6c-.2-1-.4-2.5-.8-4.3a84.85,84.85,0,0,0-10-26.6c-.9-1.6-1.7-2.9-2.2-3.7a6.38,6.38,0,0,1-.8-1.4,6.42,6.42,0,0,1,1,1.3c.6.8,1.4,2.1,2.4,3.6a80.45,80.45,0,0,1,10,26.8c.3,1.8.5,3.3.6,4.3A4.19,4.19,0,0,1,621.9,377.7Z" transform="translate(0 0)" style="fill:#263238"/><rect x="605.1" y="372.5" width="42.3" height="8.6" style="fill:#a3cc84"/><polygon points="609.2 381.2 613.8 410.2 639.3 410.2 643.6 381.2 609.2 381.2" style="fill:#a3cc84"/><path d="M644.9,381.2c0,.1-8,.3-17.9.3s-17.9-.1-17.9-.3,8-.3,17.9-.3S644.9,381,644.9,381.2Z" transform="translate(0 0)" style="fill:#263238"/></g><g id="freepik--plant-1--inject-2"><path d="M52.5,384.3s-3.8-26-3.5-41.1,0-32.1,0-32.1h1.7s-1.2,30,.1,48.1,4.7,25.1,4.7,25.1h-3" transform="translate(0 0)" style="fill:#263238"/><path d="M63.7,282a4.61,4.61,0,0,0-1.6-2.3,4.24,4.24,0,0,0-3.8,0c-5.3,1.9-9.9,11.7-12,16.8l7,23.5C65.9,308.3,68.1,293,63.7,282Z" transform="translate(0 0)" style="fill:#455a64"/><path d="M61.7,280.6c0,.1-.1.2-.1.3l-.3.9c-.3.7-.7,1.8-1.2,3.1-1,2.7-2.3,6.4-3.5,10.6-1,3.6-1.8,7.2-2.5,10.9-.2,1.4-.4,2.5-.5,3.4a6.37,6.37,0,0,1-.2.9.37.37,0,0,1-.1.3v-.3c0-.2.1-.5.1-.9.1-.8.2-2,.5-3.4a99.44,99.44,0,0,1,6-21.5c.5-1.3,1-2.4,1.3-3.1l.4-.8C61.6,280.8,61.7,280.7,61.7,280.6Z" transform="translate(0 0)" style="fill:#263238"/><path d="M50.2,325.7a21.53,21.53,0,0,1-10.8-17.9c-.3-5.2,1.3-10.3,3.2-15.2a2.59,2.59,0,0,1,.7-1.1,1.94,1.94,0,0,1,1.8.3c4.8,2.7,7.6,7.9,9.2,13.1a26.43,26.43,0,0,1,1.1,10.8,18.33,18.33,0,0,1-5.2,10" transform="translate(0 0)" style="fill:#455a64"/><path d="M50.2,325.7v-1.2c0-.8,0-1.9-.1-3.3a100.89,100.89,0,0,0-1.2-10.9c-.7-4.2-1.6-8-2.3-10.7l-.8-3.2-.2-.9v-.3c0,.1.1.2.1.3a4.65,4.65,0,0,1,.3.9c.2.8.5,1.9.9,3.2.7,2.7,1.6,6.5,2.3,10.7a98.19,98.19,0,0,1,1.2,10.9v4.2C50.3,325.5,50.3,325.6,50.2,325.7Z" transform="translate(0 0)" style="fill:#263238"/><g style="opacity:0.30000001192092896"><path d="M50.2,325.7a21.53,21.53,0,0,1-10.8-17.9c-.3-5.2,1.3-10.3,3.2-15.2a2.59,2.59,0,0,1,.7-1.1,1.94,1.94,0,0,1,1.8.3c4.8,2.7,7.6,7.9,9.2,13.1a26.43,26.43,0,0,1,1.1,10.8,18.33,18.33,0,0,1-5.2,10" transform="translate(0 0)"/></g><path d="M57.6,365.4c6.4,1.4,11.7,6,18,8.2,4.1,1.5,8.8,2,12,4.9-.8-2-2.7-3.3-4.5-4.5a81.39,81.39,0,0,0-16.3-7.8c-2.9-1-6.1-1.9-9.1-1" transform="translate(0 0)" style="fill:#455a64"/><path d="M48.3,371.1c-8.1-.1-16.5-7-24.6-7.4,8.4-2.7,20.4-.5,24.6,7.4" transform="translate(0 0)" style="fill:#455a64"/><path d="M51.4,351.8a25.73,25.73,0,0,1,12.9-.9,78.13,78.13,0,0,1,12.6,3.4c-.4-2.8-2.7-4.9-4.8-6.8a26.91,26.91,0,0,0-5-3.9,11.67,11.67,0,0,0-6.1-1.7,9.73,9.73,0,0,0-6.7,3.4,11.09,11.09,0,0,0-2.9,6.5" transform="translate(0 0)" style="fill:#455a64"/><path d="M34.9,342.8c-5.1-4.3-12.8-3.9-19.4-3.8a156.43,156.43,0,0,1,30.1,18.8C45.8,353.2,41.3,348.3,34.9,342.8Z" transform="translate(0 0)" style="fill:#455a64"/><g style="opacity:0.30000001192092896"><path d="M34.9,342.8c-5.1-4.3-12.8-3.9-19.4-3.8a156.43,156.43,0,0,1,30.1,18.8C45.8,353.2,41.3,348.3,34.9,342.8Z" transform="translate(0 0)"/></g><path d="M53.7,336.9a60.63,60.63,0,0,1,7.8-4.5c2.7-1.2,5.2-3.1,7.7-4.5,3.3-1.8,6.2-4.3,9.3-6.6s6.4-4.3,10.2-4.9a20.87,20.87,0,0,0-9.3.5,54.11,54.11,0,0,0-8.7,3.4c-4,1.8-8,3.6-11.2,6.5s-6.1,5.7-5.8,10.1" transform="translate(0 0)" style="fill:#455a64"/><path d="M75.4,371.1c-.1,0-.2-.1-.3-.1l-.7-.3c-.6-.3-1.5-.8-2.6-1.4a15,15,0,0,0-1.8-.9c-.7-.3-1.3-.6-2.1-1a29.46,29.46,0,0,0-5-1.7,10.19,10.19,0,0,0-5.2-.1l-2.2.6a11.16,11.16,0,0,0-4,2.8,6,6,0,0,0-.7.8l.2-.2c.2-.2.3-.4.5-.6a10,10,0,0,1,2.2-1.9,16.18,16.18,0,0,1,1.8-1,18.66,18.66,0,0,1,2.2-.7,10.58,10.58,0,0,1,5.3.1,23,23,0,0,1,5,1.8c.7.3,1.4.7,2.1,1s1.2.6,1.8.9c1.1.6,1.9,1.1,2.5,1.4l.7.4A.37.37,0,0,1,75.4,371.1Z" transform="translate(0 0)" style="fill:#263238"/><path d="M42.3,367.1c.2,0,.3.1.5.1a7.54,7.54,0,0,1,1.3.6,15.57,15.57,0,0,1,6.7,6.5c.2.4.4.8.6,1.3.1.2.1.3.2.5a10.61,10.61,0,0,0-1-1.7,17,17,0,0,0-2.9-3.6,15.94,15.94,0,0,0-3.7-2.7C42.9,367.4,42.2,367.1,42.3,367.1Z" transform="translate(0 0)" style="fill:#263238"/><path d="M24.4,342.4c.1,0,.2.1.3.1l1,.3,1.5.6a15.87,15.87,0,0,1,2,.9A48,48,0,0,1,39.7,351a55.5,55.5,0,0,1,4.9,4.8c1.2,1.4,2.4,2.9,3.5,4.4.9,1.3,1.6,2.4,2.1,3.1l.5.9c.1.1.1.2.2.3l-.2-.3a3.28,3.28,0,0,0-.6-.8c-.5-.7-1.2-1.8-2.2-3.1s-2.1-2.8-3.5-4.4a55.5,55.5,0,0,0-4.9-4.8,49.85,49.85,0,0,0-10.4-6.7c-.7-.3-1.4-.7-2-.9l-1.5-.6-1-.4Z" transform="translate(0 0)" style="fill:#263238"/><path d="M63.5,347.2a1.27,1.27,0,0,1-.6-.1l-.7-.1a3.4,3.4,0,0,1-1-.1,9.86,9.86,0,0,0-8.1,3,10,10,0,0,0-1.6,2,21.16,21.16,0,0,0-1.1,2.1,1.42,1.42,0,0,1,.2-.6,8,8,0,0,1,.8-1.6,10.19,10.19,0,0,1,4.2-4,10.19,10.19,0,0,1,5.7-1c.4,0,.7.1,1,.1l.7.2A1.09,1.09,0,0,1,63.5,347.2Z" transform="translate(0 0)" style="fill:#263238"/><path d="M71.6,322l-.3.2-.9.5a35.29,35.29,0,0,0-3.3,1.9c-1.4.9-3,1.8-4.7,3a36.66,36.66,0,0,0-5.2,4.4,12.07,12.07,0,0,0-2.1,2.8c-.5,1-1,2-1.5,2.9-.8,1.7-1.6,3.4-2.2,5.1-.4,1.2-.8,2.4-1.1,3.6-.2.9-.3,1.3-.3,1.3v-.4a3.55,3.55,0,0,1,.2-1,24.18,24.18,0,0,1,1-3.6,46.1,46.1,0,0,1,2.2-5.1c.5-1,1-1.9,1.5-3a11.83,11.83,0,0,1,2.2-2.8,37.52,37.52,0,0,1,5.3-4.4c1.7-1.2,3.4-2.2,4.7-3s2.5-1.4,3.3-1.8l.9-.4C71.4,322.1,71.5,322.1,71.6,322Z" transform="translate(0 0)" style="fill:#263238"/><path d="M49,346.5a6.37,6.37,0,0,1-.2-.7l-.3-1.9A50,50,0,0,0,44.7,332l-.8-1.7-.3-.6a2.09,2.09,0,0,1,.4.6c.2.4.5,1,.9,1.7a38.5,38.5,0,0,1,3.8,11.9c.1.8.2,1.4.3,1.9Z" transform="translate(0 0)" style="fill:#263238"/><path d="M48.4,328.1a20.46,20.46,0,0,0-2.6-8.7,28.62,28.62,0,0,0-19.5-14.5l18,26.9,2.3,4.8A14,14,0,0,0,48.4,328.1Z" transform="translate(0 0)" style="fill:#455a64"/><rect x="32.4" y="381.1" width="41.9" height="7.4" style="fill:#a3cc84"/><polygon points="35.5 387.1 39.1 410.1 66.9 410.1 71.2 387.1 35.5 387.1" style="fill:#a3cc84"/><path d="M74.3,388.6c0,.1-9.5.1-21.1.1s-21.2-.1-21.2-.1,9.5-.1,21.1-.1S74.3,388.5,74.3,388.6Z" transform="translate(0 0)" style="fill:#263238"/></g><g id="freepik--character-3--inject-2"><path d="M504.8,177.7a64.39,64.39,0,0,1,1.3-11.6,24,24,0,0,1,5-10.4c.4-.4,3.4-3.3,3.9-3s-1.9,3-1.8,3.4a19.82,19.82,0,0,1-2.1,11.7,57.15,57.15,0,0,1-6.3,9.9" transform="translate(0 0)" style="fill:#263238"/><path d="M517.4,205.7l1.8-4.5s9.2,2.5,13.1-6c1.9-4.1,5.1-12.9,7.9-20.8a17.55,17.55,0,0,0-9.3-21.8l-.8-.4c-9.1-3.5-17.2,2.4-20.4,11.6l-12.2,31.9,3.4,9.8a8.83,8.83,0,0,0,11.2,5.5,9.23,9.23,0,0,0,5.3-5.3Z" transform="translate(0 0)" style="fill:#ffbf9d"/><path d="M519.2,201.1a23.63,23.63,0,0,1-9.7-8.3s-.1,7.4,8.8,10.5Z" transform="translate(0 0)" style="fill:#ff9a6c"/><path d="M532,180.4a1.33,1.33,0,0,1-2.5-.9h0a1.33,1.33,0,0,1,2.5.9Z" transform="translate(0 0)" style="fill:#263238"/><path d="M536.8,177c-.2.1-.8-1-2.2-1.6s-2.6-.4-2.6-.6.2-.3.8-.4a4.22,4.22,0,0,1,2.2.3,2.94,2.94,0,0,1,1.6,1.5C536.9,176.6,537,176.9,536.8,177Z" transform="translate(0 0)" style="fill:#263238"/><path d="M520.8,175.9a1.33,1.33,0,0,1-2.5-.9h0a1.28,1.28,0,0,1,1.7-.7,1.19,1.19,0,0,1,.8,1.6Z" transform="translate(0 0)" style="fill:#263238"/><path d="M524.4,172c-.2.1-.8-1-2.2-1.6s-2.6-.4-2.6-.6.2-.3.8-.4a4.22,4.22,0,0,1,2.2.3,2.94,2.94,0,0,1,1.6,1.5C524.5,171.6,524.5,171.9,524.4,172Z" transform="translate(0 0)" style="fill:#263238"/><path d="M523.9,183.9a8.65,8.65,0,0,1,2.3.6c.3.1.7.2.9,0a1.39,1.39,0,0,0,.2-1.1c0-1,.1-2,.2-3,.2-4.2.6-7.7.8-7.7s.1,3.5-.1,7.7c-.1,1.1-.1,2-.2,3a2.3,2.3,0,0,1-.4,1.4.78.78,0,0,1-.8.2,1.42,1.42,0,0,1-.6-.2A4.65,4.65,0,0,1,523.9,183.9Z" transform="translate(0 0)" style="fill:#263238"/><path d="M526.2,167.5c-.3.2-1.4-.7-3-1.5s-2.9-1.1-2.9-1.6c0-.2.4-.4,1.1-.4a5.42,5.42,0,0,1,2.5.6,5.51,5.51,0,0,1,2,1.7C526.4,166.9,526.4,167.4,526.2,167.5Z" transform="translate(0 0)" style="fill:#263238"/><path d="M538.5,172.2c-.4.2-1.1-.5-2.2-1s-2.1-.7-2.2-1.1c0-.2.2-.4.8-.5a3.44,3.44,0,0,1,3.5,1.7C538.7,171.7,538.7,172.1,538.5,172.2Z" transform="translate(0 0)" style="fill:#263238"/><path d="M507.6,170.4c-.1-.1-5.1-4.4-7.5,1.6s4,7.1,4.1,7S507.6,170.4,507.6,170.4Z" transform="translate(0 0)" style="fill:#ffbf9d"/><path d="M503.3,175.9H503a1.14,1.14,0,0,1-.8-.3,2.59,2.59,0,0,1-.2-2.8,4.19,4.19,0,0,1,.9-1.4,1.61,1.61,0,0,1,1.1-.5.54.54,0,0,1,.5.5c0,.2-.1.3,0,.3s.2,0,.2-.3a.9.9,0,0,0-.1-.5,1,1,0,0,0-.5-.4,1.74,1.74,0,0,0-1.5.5,3.07,3.07,0,0,0-1,1.5,2.91,2.91,0,0,0,.5,3.2,1.16,1.16,0,0,0,1,.2C503.2,176.1,503.3,175.9,503.3,175.9Z" transform="translate(0 0)" style="fill:#ff9a6c"/><path d="M540.4,162.9c1.2-.1-.5-4.4-2.4-6.4-2.9-3-8-6.2-11.7-6.6-4.4-.5-8.5.2-11.9,3a25.56,25.56,0,0,0-7.4,10.9,6.92,6.92,0,0,0-.6,4c.3,1.6,1.6,3.1.8,4.9a3,3,0,0,0-.1,2.1c.6,1.6,2.4,1,3.4.2,2.2-1.8,3.5-4.5,4.7-7.2a19.75,19.75,0,0,0,1.9-5.8c.1-1.1,0-2.2.2-3.3a3.85,3.85,0,0,1,1.6-2.8,4.88,4.88,0,0,1,.7-.3,6.61,6.61,0,0,1,6.6,1.3c2.9,2.5,7.9,6.6,9.8,6a10.16,10.16,0,0,0,3.7-1.6Z" transform="translate(0 0)" style="fill:#263238"/><path d="M524.1,188.7c0,.1-.3.2-.9.1a3.75,3.75,0,0,1-3-2.8c-.1-.5,0-.9.1-.9a11.6,11.6,0,0,0,1.6,2.1C523,188.1,524.1,188.4,524.1,188.7Z" transform="translate(0 0)" style="fill:#263238"/><path d="M526.9,137.2a48.32,48.32,0,0,1-3.7,6.2,41.28,41.28,0,0,1-4.1,5.9,48.32,48.32,0,0,1,3.7-6.2A56.76,56.76,0,0,1,526.9,137.2Z" transform="translate(0 0)" style="fill:#ff9a6c"/><path d="M501,321.6l18.6,17.7s-9,60.3-7.4,60.4l22.2,1.6s13.4-69.8,12.4-73.9S513.3,291,513.3,291l-.4-5.5-9.2-1.2Z" transform="translate(0 0)" style="fill:#263238"/><path d="M466,297.4c1.8,4.1,4.8,8.9,5.4,13l11.3,41.2-40.4,49,18,15.1s48.6-52.5,50.3-58.9c1.3-5.1-4.1-57-4.1-57l1.8-14.8-42-10v.1A26.72,26.72,0,0,0,466,297.4Z" transform="translate(0 0)" style="fill:#263238"/><path d="M469.8,401.9l-13,15s10,17.7,7.9,20.7l-28.4-23,19.4-24.2Z" transform="translate(0 0)" style="fill:#263238"/><path d="M449,408.5a1.47,1.47,0,0,0-1.9.7,1.37,1.37,0,0,0,.6,1.9,1.76,1.76,0,0,0,2-.8,1.45,1.45,0,0,0-.9-1.9h0" transform="translate(0 0)" style="fill:#e0e0e0"/><path d="M436.2,414.6l2-2.4,26.5,23s.8,1.6-.1,2.4Z" transform="translate(0 0)" style="fill:#455a64"/><path d="M457.4,417.1a12.63,12.63,0,0,0-1.9-.4c-1,0-1.9.2-2,.1s.8-.8,2.1-.7S457.5,417,457.4,417.1Z" transform="translate(0 0)" style="fill:#fff"/><path d="M459.2,420.9c-.1.2-.9-.1-1.9.2s-1.6.8-1.8.7.5-1,1.7-1.3S459.4,420.7,459.2,420.9Z" transform="translate(0 0)" style="fill:#fff"/><path d="M457.9,426c-.1-.1.2-1,1.2-1.5s1.9-.3,1.9-.1-.8.3-1.6.7S458.1,426.1,457.9,426Z" transform="translate(0 0)" style="fill:#fff"/><path d="M460,413.4c-.2.1-.6-.6-1.5-1.2s-1.7-.8-1.6-1,1-.2,2,.5S460.1,413.4,460,413.4Z" transform="translate(0 0)" style="fill:#fff"/><path d="M533.5,389l-.2,20.2s19.4,7.1,19.7,10.9l-37.2.8-.8-31.6Z" transform="translate(0 0)" style="fill:#263238"/><path d="M521.7,407.8a1.58,1.58,0,0,0-1,1.9,1.52,1.52,0,0,0,1.7,1.1,1.76,1.76,0,0,0,1.1-2,1.45,1.45,0,0,0-1.9-.9h0" transform="translate(0 0)" style="fill:#e0e0e0"/><path d="M515.7,420.9v-3.2l35.7.5s1.7.7,1.5,2Z" transform="translate(0 0)" style="fill:#455a64"/><path d="M533.8,409c0,.2-.9.3-1.8.9s-1.3,1.5-1.5,1.4.1-1.2,1.2-1.9S533.9,408.9,533.8,409Z" transform="translate(0 0)" style="fill:#fff"/><path d="M537.8,410.7c0,.2-.7.5-1.3,1.4s-.8,1.7-1,1.7-.3-1.1.5-2.1S537.8,410.5,537.8,410.7Z" transform="translate(0 0)" style="fill:#fff"/><path d="M540.1,415.6c-.2,0-.4-.9,0-2s1.3-1.5,1.4-1.3-.4.7-.8,1.6C540.5,414.4,540.3,415,540.1,415.6Z" transform="translate(0 0)" style="fill:#fff"/><path d="M533.4,404.4c-.1.2-.9-.1-1.9,0s-1.8.5-1.9.3.7-.9,1.9-1S533.5,404.3,533.4,404.4Z" transform="translate(0 0)" style="fill:#fff"/><path d="M506.9,296.3a4.33,4.33,0,0,0,.1.5,10.4,10.4,0,0,0,.2,1.5c.2,1.3.4,3.3.6,5.7.5,4.8,1,11.5,1.5,18.9s.9,14,1.2,18.9q.15,3.6.3,5.7l.1,1.6v.5a1.09,1.09,0,0,1-.1-.5,10.4,10.4,0,0,0-.2-1.5c-.1-1.4-.3-3.4-.5-5.7-.4-4.8-.8-11.5-1.3-18.9s-1-14-1.3-18.9c-.2-2.4-.3-4.3-.4-5.7,0-.6-.1-1.1-.1-1.6A.75.75,0,0,1,506.9,296.3Z" transform="translate(0 0)" style="fill:#455a64"/><path d="M515.2,250.4a7.57,7.57,0,0,1,.1-1.5c.1-1,.2-2.4.4-4,.3-3.4.7-8.1.9-13.4s.2-10,.2-13.4c0-1.6,0-3-.1-4.1v-1.5a7.72,7.72,0,0,1,.2,1.5,39.62,39.62,0,0,1,.2,4.1c.2,3.4.2,8.2,0,13.4s-.6,10-1,13.4c-.2,1.7-.4,3.1-.5,4A8.33,8.33,0,0,0,515.2,250.4Z" transform="translate(0 0)" style="fill:#263238"/><path d="M499.7,189.4c-.9.5-17.9,8.8-21.5,12.9s-9.1,30.1-9.1,30.1L465,255.5l-3.2,34.3,53.1.6c2.1-4.7.7-9.6-1.8-14.5l4.1-54.2-.7-12.6Z" transform="translate(0 0)" style="fill:#455a64"/><path d="M476.8,217.1s-8.9-3.8-9.8-9.5.2-7.2,1.7-9.6,28.7-31.4,28.7-31.4l13.3,10.9L491.5,200s2.8.4,1.9,4" transform="translate(0 0)" style="fill:#455a64"/><path d="M493.3,204.2a5.7,5.7,0,0,0,.1-1.3,2.82,2.82,0,0,0-.4-1.5,2.45,2.45,0,0,0-1.7-1.1h-.2l.1-.1,19-22.7v.3l-13.3-10.9h.4l-5,5.4-15.7,16.8c-2.4,2.6-4.7,5.1-6.7,7.5a15.07,15.07,0,0,0-2.5,3.7,9.15,9.15,0,0,0-.7,4,16.52,16.52,0,0,0,.5,3.8,7.3,7.3,0,0,0,1.5,2.9,17.19,17.19,0,0,0,4,3.6c1,.7,2,1.2,3,1.8l.8.4c.1,0,.2.1.3.1-.1,0-.2-.1-.3-.1l-.8-.4c-1-.5-2-1.1-3-1.7a17.68,17.68,0,0,1-4.1-3.6,8.7,8.7,0,0,1-1.6-3,16.52,16.52,0,0,1-.5-3.8,10,10,0,0,1,.7-4.2,13.91,13.91,0,0,1,2.5-3.8c2.1-2.4,4.3-4.9,6.7-7.5,4.8-5.2,10.1-11,15.6-16.9l5-5.4.2-.2.2.2,13.3,10.9.2.2-.2.2-19.3,22.5-.1-.2a2.42,2.42,0,0,1,1.8,1.3,2.22,2.22,0,0,1,.3,1.6c0,.3-.1.7-.1,1C493.4,204,493.4,204.1,493.3,204.2Z" transform="translate(0 0)" style="fill:#263238"/><path d="M499.1,143.4s-1.6-1.2-1.9,1.4,2.2,13,2.5,13,1.8,6,1.6,6.8a20.44,20.44,0,0,1-2.5,3.3l10.6,8.7,3.3-5.9a14.69,14.69,0,0,0,6.2-4.8c2.4-3.5,11.5-16.9,11.7-18.7s-1.6-2.1-3-.3-4.5,6-5.1,6.3-.9-.5-.6-1,6.3-10,6.8-11.8c.8-2.4-1.8-2.8-1.8-2.8s.9-2.5-.4-3-2.6.8-4,2.9-6.2,9-6.7,9.3-.9,0-.5-.9,6.2-9.4,6.2-10.6-.9-3.1-3.4-.6-8,13-8.9,13.9-3.3,3.8-4.3,3.5-3.3-3.3-3.8-5.5A4.81,4.81,0,0,0,499.1,143.4Z" transform="translate(0 0)" style="fill:#ffbf9d"/><path d="M499.1,143.4a4.3,4.3,0,0,1,1,.9,4.35,4.35,0,0,1,.8,1.5c.1.3.2.7.3,1a3.7,3.7,0,0,0,.5,1.1,10,10,0,0,0,1.6,2.4c.6.7,1.6,2.1,2.6,1a25.43,25.43,0,0,0,2.9-2.8,5.67,5.67,0,0,0,1.2-1.8l1.2-2c1.6-2.8,3.3-5.8,5.5-9a10.48,10.48,0,0,1,2-2.2,2.69,2.69,0,0,1,1.5-.5,1.38,1.38,0,0,1,1.2,1.1c.1.3.1.5.2.8s0,.3-.1.4l-.2.4c-.2.5-.5.9-.7,1.4-.5.9-1.1,1.8-1.7,2.7l-3.5,5.6a1.45,1.45,0,0,0-.2.7c0,.1,0,.1.1.1h.2l.1-.1.1-.2.3-.3.5-.7c.7-.9,1.4-1.9,2.1-2.9l4.2-6a17.41,17.41,0,0,1,1.2-1.4,2.5,2.5,0,0,1,1.8-.8,1.37,1.37,0,0,1,1.4,1.4,6.45,6.45,0,0,1-.3,2l-.2-.3a2.58,2.58,0,0,1,2,1.5,2.89,2.89,0,0,1-.3,2.4c-.7,1.4-1.5,2.8-2.3,4.2l-2.5,4.1-1.3,2.1-.3.5-.2.2c0,.1-.1.1-.1.2a.6.6,0,0,0,.1.4.19.19,0,0,0,.3,0c.2-.1.3-.3.5-.4l.5-.5.9-1.1c.6-.8,1.2-1.5,1.8-2.3s1.1-1.5,1.8-2.3a3.53,3.53,0,0,1,1.3-.8,1.34,1.34,0,0,1,1.5.4,1.8,1.8,0,0,1,.2,1.6c-.1.2-.2.5-.3.7l-.3.6c-.4.8-.9,1.6-1.4,2.4-.9,1.6-1.9,3.1-2.9,4.6-2,3-3.9,5.9-5.8,8.7-.5.7-.9,1.4-1.4,2.1a9.76,9.76,0,0,1-1.7,1.8,16.42,16.42,0,0,1-4.2,2.6l.1-.1-3.3,5.9-.1.2-.2-.2-10.5-8.7-.2-.1.1-.1a23.13,23.13,0,0,0,2-2.4c.1-.2.3-.4.4-.6a1.27,1.27,0,0,0,.1-.6,5.9,5.9,0,0,0-.2-1.4l-.6-2.7a6.47,6.47,0,0,0-.4-1.3c-.1-.2-.1-.4-.2-.6a.35.35,0,0,0-.1-.2h0c-.1,0-.1,0-.1-.1h0l-.1-.2a34.47,34.47,0,0,1-1.2-4.6c-.3-1.4-.5-2.7-.7-3.9-.4-2.3-.6-4.2-.1-5.4a.9.9,0,0,1,.6-.6.64.64,0,0,1,.6,0,7.37,7.37,0,0,0,.6.5c-.2-.1-.3-.2-.5-.2a.64.64,0,0,0-.6,0c-.3.1-.5.3-.5.5-.5,1.1-.2,3,.2,5.4a85.21,85.21,0,0,0,2,8.4l.1.1h0a.1.1,0,0,0-.1.1v-.1h.1v.1c.1.1.1.2.2.3s.1.4.2.6c.1.4.3.8.4,1.3a26.14,26.14,0,0,1,.6,2.7,7.72,7.72,0,0,1,.2,1.5v.4c0,.1-.1.3-.1.4a4.35,4.35,0,0,0-.4.7c-.6.8-1.3,1.6-2,2.4v-.3l10.6,8.7-.3.1c1-1.9,2.1-3.9,3.3-5.9v-.1h.1a12.83,12.83,0,0,0,4-2.5,9.76,9.76,0,0,0,1.7-1.8,15.34,15.34,0,0,0,1.4-2.1c1.9-2.8,3.8-5.7,5.8-8.7,1-1.5,1.9-3,2.9-4.6.5-.8.9-1.6,1.4-2.4l.3-.6a1.42,1.42,0,0,0,.2-.6,1.29,1.29,0,0,0-.1-1.2.78.78,0,0,0-1-.2,2.59,2.59,0,0,0-1.1.7,18.39,18.39,0,0,0-1.7,2.2c-.5.7-1.2,1.5-1.8,2.3a10.63,10.63,0,0,1-.9,1.1l-.5.6a2.65,2.65,0,0,1-.6.5,1,1,0,0,1-.9-.1,1.14,1.14,0,0,1-.3-.8c0-.1.1-.3.1-.4l.2-.3.3-.5,1.4-1.9c.8-1.4,1.7-2.8,2.5-4.1s1.6-2.7,2.3-4.1a2.36,2.36,0,0,0,.3-2,2.2,2.2,0,0,0-1.6-1.2l-.3-.1.1-.3a5.66,5.66,0,0,0,.3-1.8.91.91,0,0,0-.3-.7.84.84,0,0,0-.7-.2,2.13,2.13,0,0,0-1.5.7,17.41,17.41,0,0,0-1.2,1.4l-4.2,6c-.7,1-1.4,1.9-2.1,2.9l-.5.7-.3.4-.1.2-.2.2a1.27,1.27,0,0,1-.6.1.6.6,0,0,1-.3-.6,1.61,1.61,0,0,1,.3-.9c1.2-2,2.5-3.8,3.6-5.6.6-.9,1.1-1.8,1.6-2.7.2-.4.5-.9.7-1.4l.1-.3v-.3c0-.2-.1-.5-.1-.7a1.22,1.22,0,0,0-.8-.9,1.66,1.66,0,0,0-1.2.5,18,18,0,0,0-1.9,2,103.34,103.34,0,0,0-5.5,8.9l-1.2,2a8.32,8.32,0,0,1-1.3,1.8,19.91,19.91,0,0,1-3,2.8,2.47,2.47,0,0,1-.9.4.45.45,0,0,1-.5,0,.76.76,0,0,0-.4-.2l-1.2-1.2a21.28,21.28,0,0,1-1.6-2.5c-.2-.4-.3-.8-.5-1.2s-.2-.7-.3-1a5.48,5.48,0,0,0-.8-1.5,5,5,0,0,0-.7-.8C499.3,143.7,499.2,143.6,499.1,143.4Z" transform="translate(0 0)" style="fill:#ff9a6c"/><path d="M491.5,200.2a38,38,0,0,1-5.2,7.4,12.11,12.11,0,0,1-8,3.8" transform="translate(0 0)" style="fill:#455a64"/><path d="M478.4,211.4c0-.1,1-.1,2.5-.6a13.08,13.08,0,0,0,5.2-3.4,26.91,26.91,0,0,0,3.9-5,10.71,10.71,0,0,1,1.5-2.2,13.44,13.44,0,0,1-1.2,2.4,23.92,23.92,0,0,1-3.8,5.2,13.09,13.09,0,0,1-5.5,3.4,6.28,6.28,0,0,1-1.9.3A1.7,1.7,0,0,1,478.4,211.4Z" transform="translate(0 0)" style="fill:#263238"/><path d="M492.5,207.9a9.51,9.51,0,0,1-1.5,2,21,21,0,0,1-10,6.2,6.72,6.72,0,0,1-2.4.4,25.75,25.75,0,0,0,13.9-8.6Z" transform="translate(0 0)" style="fill:#263238"/><g style="opacity:0.30000001192092896"><path d="M478.7,210.9c2.5.9,4.9,1.2,7.3.1a10.58,10.58,0,0,0,5.3-5.7c.7-1.8.8-3.8,1.6-5.6,1.8-3.9,6.5-6.2,7.5-10.4-3.7,4.1-7.2,7.7-10.1,12.6a24.68,24.68,0,0,1-5.3,6.3,10.42,10.42,0,0,1-6.5,2.6" transform="translate(0 0)"/></g></g><g id="freepik--character-2--inject-2"><path d="M283.6,193.3,276.9,156c-2-9.2,1.8-18.1,11-19.8l.9-.1a16.87,16.87,0,0,1,18.6,13.3c1.7,8,3.4,16.9,3.9,21.2,1,9-7.8,11.5-7.8,11.5s.9,5.4,1.3,8l3.1,5.8-7.6-.6Z" transform="translate(0 0)" style="fill:#ae7461"/><path d="M303.4,182.1a21.91,21.91,0,0,1-12.1-2s3.6,6.4,12.5,4.5Z" transform="translate(0 0)" style="fill:#6f4439"/><path d="M304.9,158.2a1.24,1.24,0,0,1-1.1,1.4,1.33,1.33,0,0,1-1.5-1h0a1.17,1.17,0,0,1,1-1.4,1.27,1.27,0,0,1,1.6,1Z" transform="translate(0 0)" style="fill:#263238"/><path d="M306,153.7c-.1.2-1.2-.4-2.6-.2s-2.3,1-2.5.8,0-.4.4-.8a4,4,0,0,1,2-.9,3.19,3.19,0,0,1,2.1.4A1,1,0,0,1,306,153.7Z" transform="translate(0 0)" style="fill:#263238"/><path d="M292.7,159.7a1.24,1.24,0,0,1-1.1,1.4,1.33,1.33,0,0,1-1.5-1h0a1.24,1.24,0,0,1,1.1-1.4h0a1.18,1.18,0,0,1,1.5,1Z" transform="translate(0 0)" style="fill:#263238"/><path d="M292.5,155.7c-.1.2-1.2-.4-2.6-.2s-2.3,1-2.5.8,0-.4.4-.8a3.62,3.62,0,0,1,4.1-.5C292.4,155.2,292.5,155.5,292.5,155.7Z" transform="translate(0 0)" style="fill:#263238"/><path d="M298.7,165.7a8.08,8.08,0,0,1,2.2-.7c.4-.1.7-.2.7-.4a1.28,1.28,0,0,0-.4-1l-1.4-2.6c-1.9-3.6-3.4-6.6-3.2-6.7a50.69,50.69,0,0,1,3.7,6.4l1.3,2.6a2.3,2.3,0,0,1,.4,1.4,1,1,0,0,1-.5.6c-.2.1-.4.1-.6.2A18,18,0,0,0,298.7,165.7Z" transform="translate(0 0)" style="fill:#263238"/><path d="M292.4,151.2c-.1.4-1.5.2-3.2.3s-3,.6-3.2.2c-.1-.2.1-.5.7-.9a5.43,5.43,0,0,1,4.8-.4C292.1,150.8,292.4,151.1,292.4,151.2Z" transform="translate(0 0)" style="fill:#263238"/><path d="M305.5,149.6c-.2.4-1.4.2-2.8.4s-2.5.6-2.8.3c-.1-.1,0-.5.5-.9a3.49,3.49,0,0,1,2.2-.8,4.45,4.45,0,0,1,2.3.3C305.4,149.1,305.6,149.4,305.5,149.6Z" transform="translate(0 0)" style="fill:#263238"/><path d="M278.4,162.5c-.2,0-6.4-1-5.4,5.1s6.9,3.9,6.9,3.7S278.4,162.5,278.4,162.5Z" transform="translate(0 0)" style="fill:#ae7461"/><path d="M277.6,169.3l-.3.2a.75.75,0,0,1-.8.1,2.65,2.65,0,0,1-1.6-2.2,2.92,2.92,0,0,1,.1-1.6,1.2,1.2,0,0,1,.7-1,.66.66,0,0,1,.7.2.77.77,0,0,1,.1.3s.1-.1,0-.4c-.1-.1-.2-.3-.3-.3a1.27,1.27,0,0,0-.6-.1,1.57,1.57,0,0,0-1,1.1,3.67,3.67,0,0,0-.1,1.8,2.78,2.78,0,0,0,2,2.4,1.21,1.21,0,0,0,1-.3C277.7,169.4,277.7,169.3,277.6,169.3Z" transform="translate(0 0)" style="fill:#6f4439"/><path d="M294.6,167.2c.2,0,.5,1.4,1.8,2.1s2.8.4,2.9.6-.3.3-.9.4a3.36,3.36,0,0,1-2.4-.4,2.83,2.83,0,0,1-1.4-1.8C294.4,167.6,294.5,167.2,294.6,167.2Z" transform="translate(0 0)" style="fill:#263238"/><path d="M318.4,139.3a1.78,1.78,0,0,0-.8-.7,4.87,4.87,0,0,0-2.4,0,12.65,12.65,0,0,1-5.8-.5,6.73,6.73,0,0,0,1.5-1.4,3.86,3.86,0,0,0,.5-4c-.1-.3-.3-.4-.6-.5s-.7.4-.9.7a3.34,3.34,0,0,1-2.9,1.8,4.84,4.84,0,0,1-2.4-.3l-.1-.1-1.1-.8h0a20.49,20.49,0,0,0-7-3.7,21.32,21.32,0,0,0-11.2.9c-3,1.3-5.4,4.3-5.3,7.5a6.53,6.53,0,0,0-6.6.4h-.1c-2.2,1.2-3.2,3.9-3.5,6.4v.4A9.51,9.51,0,0,1,267,149c-.2.2-.4.4-.4.6s.3.4.5.6a4.55,4.55,0,0,0,2,.5,12.09,12.09,0,0,1-.5,1.8c-.2.5-.4,1.1-.1,1.5a1.13,1.13,0,0,0,1.1.3,3.59,3.59,0,0,0,1-.7c-.2.7-.3,1.4-.5,2a5.14,5.14,0,0,0,2.5-.6c.9,2.2,1.9,6.3,2.7,7.7,1.6-.2,2-.5,2.9-.3,1.1.2,1,2.1,2.3,1.4.7-.4,1.3-3.2,1.5-4a34.57,34.57,0,0,0-.8-15,11.07,11.07,0,0,1,3.1-3l-.1.1c2.4-1.2,5.1-2.6,7.6-1.7,2,.6,3.4,2.4,5,3.7a12.82,12.82,0,0,0,10.1,3.1c.8,2.6,1.6,7,2.1,9.5l1.4-5.4h0c.1-.3.2-.7.3-1V150h0a8.8,8.8,0,0,1,.5-1.5h0a1.6,1.6,0,0,0,2.2-.4,1.68,1.68,0,0,0-.2-2.1,2.36,2.36,0,0,0-.9-.6,2.49,2.49,0,0,0,2.5.2,2.09,2.09,0,0,0,1.1-2.1,1.8,1.8,0,0,0-1.2-1.2,6,6,0,0,0,3.1-1.2A1.6,1.6,0,0,0,318.4,139.3Z" transform="translate(0 0)" style="fill:#263238"/><path d="M282.7,138.7a8.74,8.74,0,0,0-.8,1,6.2,6.2,0,0,0-.9,3.2,17.7,17.7,0,0,0,.1,2.3c.1.8.3,1.7.5,2.6a29.31,29.31,0,0,1,.5,2.9v1.6a2.93,2.93,0,0,1-.4,1.6,1.43,1.43,0,0,1-1.2.6,1.66,1.66,0,0,1-1.2-.5,4.45,4.45,0,0,1-1.2-2.1h.2a7,7,0,0,1-.8,2,2.55,2.55,0,0,1-1.5,1.2,1.5,1.5,0,0,1-2-1.3.84.84,0,0,1,.2-.7l.1.1a4.62,4.62,0,0,1-1.7,1.7l-.6.3-.2.1c.1,0,.1-.1.2-.1s.3-.2.5-.4a6.9,6.9,0,0,0,1.6-1.8l.1.1a1.21,1.21,0,0,0,.1,1.3,2.65,2.65,0,0,0,.6.5,1.39,1.39,0,0,0,.9,0,2.83,2.83,0,0,0,1.5-1.1,11.92,11.92,0,0,0,.8-2l.1-.3.1.3a3.74,3.74,0,0,0,1.2,2,2.1,2.1,0,0,0,1.1.4,1.23,1.23,0,0,0,1-.5,2.82,2.82,0,0,0,.4-1.5v-1.6a29.31,29.31,0,0,0-.5-2.9c-.2-.9-.4-1.8-.5-2.6a9.06,9.06,0,0,1-.1-2.3,6,6,0,0,1,1-3.2C282.2,139.3,282.4,139,282.7,138.7Z" transform="translate(0 0)" style="fill:#455a64"/><path d="M311.8,143.1h0l-.3.3-.3.3-.5.4a8.23,8.23,0,0,1-3.7,1.3,10.09,10.09,0,0,1-5.7-1.1,18.76,18.76,0,0,1-5.5-4.6c-.8-1-1.5-2-2.3-3a13.63,13.63,0,0,0-2.4-2.4,7,7,0,0,0-2.8-1.2,3.33,3.33,0,0,0-1.4.1,5.64,5.64,0,0,0-1.2.4,4.8,4.8,0,0,0-2.5,2.9,6.75,6.75,0,0,0-.2,1.4v-.4a4.25,4.25,0,0,1,.2-1.1,5,5,0,0,1,2.5-3,6.12,6.12,0,0,1,1.2-.5,7.08,7.08,0,0,1,1.4-.1,5,5,0,0,1,2.9,1.2,14.21,14.21,0,0,1,2.5,2.4c.8.9,1.5,2,2.3,2.9a18.37,18.37,0,0,0,5.4,4.6,10.91,10.91,0,0,0,5.6,1.2,8.09,8.09,0,0,0,3.7-1.2C311.4,143.5,311.7,143.1,311.8,143.1Z" transform="translate(0 0)" style="fill:#455a64"/><path d="M312,139.1l-.3.3-.9.6a6.89,6.89,0,0,1-1.5.7c-.6.2-1.2.4-1.9.6a13.55,13.55,0,0,1-2,.2,8.75,8.75,0,0,1-1.6-.2,2.93,2.93,0,0,1-1-.3,1,1,0,0,0-.4-.1l1.4.3a8.08,8.08,0,0,0,1.6.1,12.25,12.25,0,0,0,1.9-.2,18,18,0,0,0,1.9-.5,6.11,6.11,0,0,0,1.4-.7C311.5,139.4,311.9,139.1,312,139.1Z" transform="translate(0 0)" style="fill:#455a64"/><path d="M295.6,283.7,300,335l-1.5,8.9s-17.8,51.2-17.5,72.4l20.9-1s20.4-58,22-64.4,9.8-49.2,9.8-49.2l13.5,33.9.4,7.9-7.8,49.1,24.2,1.3s9.9-55.8,8.9-63-17-63.8-17-63.8l-8.3-7.2-47.1,8Z" transform="translate(0 0)" style="fill:#263238"/><path d="M361.8,379l-.8,20.6s19.6,7.7,19.8,11.6l-37.9-.1-.1-32.2Z" transform="translate(0 0)" style="fill:#263238"/><path d="M349.3,397.8a1.75,1.75,0,0,0-1.1,1.9,1.39,1.39,0,0,0,1.7,1.1,1.71,1.71,0,0,0,1.1-2,1.58,1.58,0,0,0-1.9-1" transform="translate(0 0)" style="fill:#e0e0e0"/><path d="M342.9,411l.1-3.2,36.4,1.2s1.7.8,1.5,2Z" transform="translate(0 0)" style="fill:#455a64"/><path d="M361.6,399.4c0,.2-.9.3-1.8.9s-1.4,1.4-1.6,1.4.1-1.2,1.2-1.9S361.7,399.2,361.6,399.4Z" transform="translate(0 0)" style="fill:#fff"/><path d="M365.6,401.1c0,.2-.8.5-1.4,1.3s-.8,1.7-1,1.7-.3-1.1.5-2.1S365.6,400.9,365.6,401.1Z" transform="translate(0 0)" style="fill:#fff"/><path d="M367.9,406.1c-.2,0-.4-.9,0-2s1.4-1.5,1.4-1.3-.5.7-.8,1.6A8.38,8.38,0,0,1,367.9,406.1Z" transform="translate(0 0)" style="fill:#fff"/><path d="M361.3,394.7c-.1.2-.9-.1-2,0s-1.9.4-2,.2.7-.9,1.9-.9S361.4,394.5,361.3,394.7Z" transform="translate(0 0)" style="fill:#fff"/><path d="M299.9,400.7l.1,23.7,5.5,18.7a2.44,2.44,0,0,1-1.6,3h-.2a2,2,0,0,1-2.1-.6c-3.7-3.4-17.3-15.8-17.2-17.5.1-2-1.8-25-1.8-25Z" transform="translate(0 0)" style="fill:#263238"/><path d="M303.8,446l-19.4-19.7v1a3.64,3.64,0,0,0,.9,2.3c1.5,1.7,5.9,6.4,16.2,15.8A2.5,2.5,0,0,0,303.8,446Z" transform="translate(0 0)" style="fill:#455a64"/><g style="opacity:0.6000000238418579"><path d="M289,418.7a1.57,1.57,0,0,1,.5,1.9,1.54,1.54,0,0,1-1.9.5,1.38,1.38,0,1,1,1.5-2.3" transform="translate(0 0)" style="fill:#fff"/></g><path d="M298.1,435.9c.1.1.6-1.2,2-1.9a6.6,6.6,0,0,1,2.7-.6c0-.1-.3-.2-.8-.3a3.78,3.78,0,0,0-2.1.4,3.12,3.12,0,0,0-1.5,1.5C298,435.5,298,435.9,298.1,435.9Z" transform="translate(0 0)" style="fill:#fff"/><path d="M299.8,439a21.16,21.16,0,0,1,2.1-1.1,18.46,18.46,0,0,1,2.3-.4,2.76,2.76,0,0,0-2.5-.1C300.4,437.9,299.7,438.9,299.8,439Z" transform="translate(0 0)" style="fill:#fff"/><path d="M294.8,431.9a32.07,32.07,0,0,1,3.1-1.9,20,20,0,0,1,3.5-.9,6.79,6.79,0,0,0-6.6,2.8Z" transform="translate(0 0)" style="fill:#fff"/><path d="M294.2,424.7a26.38,26.38,0,0,1,3.1-.6c1.7-.1,3.1.3,3.1.1a4.28,4.28,0,0,0-3.1-.6A4.69,4.69,0,0,0,294.2,424.7Z" transform="translate(0 0)" style="fill:#fff"/><path d="M293.9,417.8a11.43,11.43,0,0,1,3.2-.7,12.26,12.26,0,0,1,3.2.7c0-.1-.2-.3-.8-.6a5.1,5.1,0,0,0-4.8,0C294.2,417.4,293.9,417.7,293.9,417.8Z" transform="translate(0 0)" style="fill:#fff"/><path d="M272.2,195s-16,8.3-4.4,28.2c14.1,24.4,27.6,58.7,32.2,60.9,1.9.9,10.8-2.9,10.8-2.9l7-11.3-18.7-42.1L287,203.4Z" transform="translate(0 0)" style="fill:#455a64"/><path d="M281.7,188.5l-9.2,5.9L297,237.7l-3.5,38.7,5.5,3.1,57.3-7.9,1.9-2.6-6.3-18.2-8.4-20.4s-8.3-18.5-13.2-26.4-10.1-15.9-10.1-15.9l-14-1-1.7-1.9s-2.1,3.8-7.9,4.2c-4.7.3-14.6-2.2-14.6-2.2Z" transform="translate(0 0)" style="fill:#455a64"/><path d="M396.1,252.5s-33.6-26.9-36.4-30.1-26.1-27.8-26.1-27.8-8.5-8.2-13.5-6.6c-6,2,6,30.9,6,30.9s24.7,20.5,28.7,24.4,28.1,19.4,28.1,19.4l5.7-.8Z" transform="translate(0 0)" style="fill:#455a64"/><path d="M287.1,211.7c.1.2.2.3.2.5a11.64,11.64,0,0,1,.6,1.5c.5,1.3,1.3,3.2,2.3,5.5,2,4.7,4.8,11,8,18.1s5.9,13.5,7.7,18.2c.9,2.4,1.6,4.3,2.1,5.6.2.6.4,1.1.5,1.5a1.09,1.09,0,0,1,.1.5c-.1-.2-.2-.3-.2-.5l-.6-1.5c-.5-1.3-1.3-3.2-2.2-5.6-1.9-4.7-4.7-11.1-7.8-18.1s-6-13.4-7.9-18.1c-1-2.4-1.7-4.3-2.2-5.6-.2-.6-.4-1.1-.5-1.5A4.33,4.33,0,0,1,287.1,211.7Z" transform="translate(0 0)" style="fill:#263238"/><path d="M328.2,200.8l.3.3a3.59,3.59,0,0,1,.7,1c.6.9,1.4,2.2,2.3,3.8,1.8,3.3,4.1,7.9,6.6,13s4.6,9.8,6.1,13.2c.8,1.7,1.4,3.1,1.8,4.1l.6,1.5a6.38,6.38,0,0,1-.8-1.4l-1.9-4-6.3-13.2c-2.5-5.1-4.8-9.8-6.5-13q-1.35-2.55-2.1-3.9C328.5,201.3,328.2,200.8,328.2,200.8Z" transform="translate(0 0)" style="fill:#263238"/><g style="opacity:0.30000001192092896"><path d="M294.8,230.1s-2.4-13.3-1-21.1,5.4-19.1,5.4-19.1l7-3,36.5,17.7,2.7,3.3-4.9,15.4,3.6,28Z" transform="translate(0 0)"/></g></g><path d="M358.2,287.3c-8.4,1.4-15.6.4-21.5-3A36.63,36.63,0,0,1,322.3,269a77.84,77.84,0,0,1-7.7-23.6l-8.1-49.1a97.31,97.31,0,0,1-1-26.4c.9-8.1,3.5-15,8-20.5s11.2-9,20.3-10.6c7.5-1.2,14.2-.9,19.8,1a28.23,28.23,0,0,1,14,10c3.7,4.8,6.2,11,7.6,18.5.1.3.1.7.2,1l.3,1.2-19.4,3.2c-1.2-7.1-3.2-12.3-6.1-15.6s-7.5-4.5-13.9-3.4a13.35,13.35,0,0,0-8.4,4.8c-2.1,2.6-3.5,6.3-4,11.1a71.55,71.55,0,0,0,1,17.9l3.6,22.1a20.88,20.88,0,0,1,7-8.6,28.23,28.23,0,0,1,12.6-4.9c8-1.3,14.6-.6,19.7,2.1a28.76,28.76,0,0,1,12.1,13,78.73,78.73,0,0,1,6.5,21.7,80.53,80.53,0,0,1,.4,24.5,36.82,36.82,0,0,1-8.7,19.1C373.7,282.5,367,285.8,358.2,287.3Zm-2.6-16c4.3-.7,7.5-2.5,9.5-5.3a21.22,21.22,0,0,0,3.5-10.6,56.48,56.48,0,0,0-.7-13.6c-.9-5.3-2-10.6-3.4-15.9a23,23,0,0,0-6.2-11.1c-2.8-2.6-6.9-3.4-12.4-2.5a18.49,18.49,0,0,0-12,7.2,19.11,19.11,0,0,0-3,5.4l3.6,21.7a56.93,56.93,0,0,0,3.8,13.4,20.5,20.5,0,0,0,6.8,9.1c2.8,2.1,6.3,2.8,10.5,2.2Z" transform="translate(0 0)" style="fill:#608441"/><path d="M371.1,284.8c-8.4,1.4-15.6.4-21.5-3a36.3,36.3,0,0,1-14.4-15.4,77.84,77.84,0,0,1-7.7-23.6l-8.1-49.1a97.31,97.31,0,0,1-1-26.4c.9-8.1,3.5-15,8-20.5s11.2-9.1,20.3-10.6c7.5-1.2,14.2-.9,19.8,1a28.42,28.42,0,0,1,14,10.1c3.7,4.8,6.2,11,7.6,18.5.1.3.1.7.2,1s.2.8.3,1.1l-19.4,3.2c-1.2-7.1-3.2-12.3-6.1-15.6s-7.5-4.5-13.9-3.4a13.35,13.35,0,0,0-8.4,4.8c-2.2,2.6-3.5,6.3-4,11.1a71.55,71.55,0,0,0,1,17.9l3.6,22.1a20.88,20.88,0,0,1,7-8.6,28.23,28.23,0,0,1,12.6-4.9c8-1.3,14.6-.6,19.7,2.1a28.23,28.23,0,0,1,12.1,13,78.73,78.73,0,0,1,6.5,21.7,74.63,74.63,0,0,1,.3,24.5,36.87,36.87,0,0,1-8.7,19C386.5,280.1,379.9,283.4,371.1,284.8Zm-2.6-16c4.3-.7,7.5-2.5,9.5-5.4a21.22,21.22,0,0,0,3.5-10.6,56.48,56.48,0,0,0-.7-13.6,150.3,150.3,0,0,0-3.4-15.9,23,23,0,0,0-6.2-11.1c-2.8-2.6-6.9-3.4-12.4-2.5a18.49,18.49,0,0,0-12,7.2,19.11,19.11,0,0,0-3,5.4l3.6,21.8a59.11,59.11,0,0,0,3.8,13.5,20.5,20.5,0,0,0,6.8,9.1q4.2,3.15,10.5,2.1Z" transform="translate(0 0)" style="fill:#a3cc84"/><path d="M371.1,284.8c-8.4,1.4-15.6.4-21.5-3a36.63,36.63,0,0,1-14.4-15.3,77.84,77.84,0,0,1-7.7-23.6l-8.1-49.1a97.31,97.31,0,0,1-1-26.4c.9-8.1,3.5-15,8-20.5s11.2-9,20.3-10.6c7.5-1.2,14.2-.9,19.8,1a28.23,28.23,0,0,1,14,10c3.7,4.8,6.2,11,7.6,18.5.1.3.1.7.2,1l.3,1.2-19.4,3.2c-1.2-7.1-3.2-12.3-6.1-15.6s-7.5-4.5-13.9-3.4a13.35,13.35,0,0,0-8.4,4.8c-2.1,2.6-3.5,6.3-4,11.1a71.55,71.55,0,0,0,1,17.9l3.6,22.1a20.88,20.88,0,0,1,7-8.6,28.23,28.23,0,0,1,12.6-4.9c8-1.3,14.6-.6,19.7,2.1a28.76,28.76,0,0,1,12.1,13,78.73,78.73,0,0,1,6.5,21.7,80.53,80.53,0,0,1,.4,24.5A36.82,36.82,0,0,1,391,275C386.5,280,379.9,283.3,371.1,284.8Zm-2.6-16c4.3-.7,7.5-2.5,9.5-5.3a21.22,21.22,0,0,0,3.5-10.6,56.48,56.48,0,0,0-.7-13.6c-.9-5.3-2-10.6-3.4-15.9a23,23,0,0,0-6.2-11.1c-2.8-2.6-6.9-3.4-12.4-2.5a18.49,18.49,0,0,0-12,7.2,19.11,19.11,0,0,0-3,5.4l3.6,21.7a56.93,56.93,0,0,0,3.8,13.4,20.5,20.5,0,0,0,6.8,9.1c2.8,2.2,6.3,2.8,10.5,2.2Z" transform="translate(0 0)" style="fill:#a3cc84"/><g id="freepik--character-1--inject-2"><path d="M182.2,390.2l-3.2,19s19.1,7.8,19.2,11.5l-37.1-.6,4.6-31.3Z" transform="translate(0 0)" style="fill:#263238"/><path d="M167.6,407.4a1.57,1.57,0,0,0-1.1,1.8,1.39,1.39,0,0,0,1.7,1.1,1.65,1.65,0,0,0,1.1-1.9,1.54,1.54,0,0,0-1.9-1h0" transform="translate(0 0)" style="fill:#e0e0e0"/><path d="M161.2,420.2l.5-3.1,35.2,1.7s1.6.8,1.4,2Z" transform="translate(0 0)" style="fill:#455a64"/><path d="M179.6,409c0,.2-.9.3-1.8.9s-1.4,1.4-1.6,1.3.1-1.2,1.2-1.9A2.3,2.3,0,0,1,179.6,409Z" transform="translate(0 0)" style="fill:#fff"/><path d="M183.5,410.8c0,.2-.8.5-1.4,1.3s-.8,1.6-1,1.6-.3-1.1.5-2.1A1.84,1.84,0,0,1,183.5,410.8Z" transform="translate(0 0)" style="fill:#fff"/><path d="M185.6,415.8c-.2,0-.4-.9.1-2s1.3-1.4,1.4-1.3-.5.7-.8,1.6S185.8,415.7,185.6,415.8Z" transform="translate(0 0)" style="fill:#fff"/><path d="M179.4,404.4c-.1.2-.9-.1-1.9,0s-1.8.4-1.9.2.7-.8,1.9-.9A2.64,2.64,0,0,1,179.4,404.4Z" transform="translate(0 0)" style="fill:#fff"/><path d="M128.6,393.2l-9.8,17.6s13.6,15.5,12.1,18.9L98,412.7l14.3-28Z" transform="translate(0 0)" style="fill:#263238"/><path d="M109.4,404a1.75,1.75,0,0,0-1.8,1.1,1.47,1.47,0,0,0,1,1.8,1.83,1.83,0,0,0,1.9-1.2c.1-.8-.5-1.7-1.2-1.7" transform="translate(0 0)" style="fill:#e0e0e0"/><path d="M97.9,412.7l1.5-2.8,31,17.4s1.1,1.4.4,2.4Z" transform="translate(0 0)" style="fill:#455a64"/><path d="M119.4,410.9c-.1.2-.9-.2-2,0s-1.9.6-2,.5.6-1,1.9-1.1S119.5,410.8,119.4,410.9Z" transform="translate(0 0)" style="fill:#fff"/><path d="M122.1,414.2c0,.2-.9.1-1.8.5s-1.5,1.1-1.6,1,.2-1.1,1.4-1.6S122.2,414,122.1,414.2Z" transform="translate(0 0)" style="fill:#fff"/><path d="M121.8,419.6c-.2,0,0-1,.9-1.7s1.8-.7,1.8-.5-.7.4-1.4,1S122,419.7,121.8,419.6Z" transform="translate(0 0)" style="fill:#fff"/><path d="M121.2,406.7c-.2.1-.8-.5-1.7-.9s-1.8-.5-1.8-.6a2.22,2.22,0,0,1,2.1,0C120.9,405.7,121.4,406.6,121.2,406.7Z" transform="translate(0 0)" style="fill:#fff"/><path d="M151.6,276.8s6.6,64.1,4.7,71.5-33.7,64.1-33.7,64.1l-21.9-12.2s26.6-51.3,26.3-53.5.7-8.3.7-8.3L113,289.2l2.9-21.1,26-2.6Z" transform="translate(0 0)" style="fill:#263238"/><path d="M134.2,301c.7,2,35.9,42.2,35.9,42.2a4.29,4.29,0,0,0,.4,2.5,6.34,6.34,0,0,0,3,2.1l-14,58,24.5,2.3s14.6-58,14-65.4-35.5-64.1-35.5-64.1l-25-1.4Z" transform="translate(0 0)" style="fill:#263238"/><path d="M152.2,290.8a8.75,8.75,0,0,1-.2,1.6,21.58,21.58,0,0,0-.1,4.4,119,119,0,0,0,2.1,14.4,143.2,143.2,0,0,1,2.2,14.4,21.42,21.42,0,0,1-.1,4.4c-.1.5-.2,1.1-.3,1.6,0-.5.1-1.1.1-1.6a32.33,32.33,0,0,0-.1-4.4c-.3-3.7-1.3-8.8-2.3-14.3a101.74,101.74,0,0,1-2-14.4,16,16,0,0,1,.3-4.4A7.09,7.09,0,0,1,152.2,290.8Z" transform="translate(0 0)" style="fill:#455a64"/><path d="M142.5,155.3a13.34,13.34,0,0,1,4.7,11.2c-.2,2-.8,4.4.5,5.9s3.9,1.6,5.1,3.2c1.4,1.9.1,4.7.6,7a4.69,4.69,0,0,0,5,3.6,18.68,18.68,0,0,1-9.2,3.8l-2.5-3.3a3.46,3.46,0,0,1-.3,4.2,7.65,7.65,0,0,1-3.9,2.2,23.54,23.54,0,0,1-20.4-3.7" transform="translate(0 0)" style="fill:#263238"/><path d="M103.7,172.6a36.56,36.56,0,0,0,1.8-4.6c.8-3.4-.8-7.4.9-10.5,1.2-2.2,3.8-3.2,6.2-3.9s5-1.3,6.9-3c1.3-1.3,2.1-3,3.5-4.3,1.9-1.8,4.7-2.4,7.3-2.5a16.56,16.56,0,0,1,7.9,1.4,8.92,8.92,0,0,1,4.8,6.2,17.22,17.22,0,0,0,.4,3.9c.4,1.4,1.5,2.5,2.1,3.8a7.06,7.06,0,0,1-1.9,8.3l-19,23.6c-3.9,1.4-13.3-.6-16.3-3.5S102.4,176.5,103.7,172.6Z" transform="translate(0 0)" style="fill:#263238"/><path d="M143.2,164.4c-.7-5.4-4.7-12-10.1-11.1l-16.8,5.3a3.25,3.25,0,0,0-2.7,3.4l4.1,39.4s-1.2,1-2,.7a.37.37,0,0,0-.3.1v.2c1.9,3,11.1,15.8,21,12.1,2.2-.8-.1-7.7.2-10.3l-.2-6.5c-.1-3.3-.2-4.7-.2-4.6s6.9-1.6,7.9-10.8C144.5,177.8,143.9,170.4,143.2,164.4Z" transform="translate(0 0)" style="fill:#ffbf9d"/><path d="M141.8,172.7a1.13,1.13,0,0,1-1.1,1.2,1,1,0,0,1-1.2-.9h0v-.1a1.13,1.13,0,0,1,1.1-1.2,1,1,0,0,1,1.2,1Z" transform="translate(0 0)" style="fill:#263238"/><path d="M130.5,173.2a1.13,1.13,0,0,1-1.1,1.2,1.2,1.2,0,0,1-1.3-1h0a1.21,1.21,0,0,1,2.4-.2Z" transform="translate(0 0)" style="fill:#263238"/><path d="M142.3,168.9c-.1.2-1.2-.5-2.6-.3s-2.3,1.1-2.4.9,0-.4.4-.9a3.52,3.52,0,0,1,1.9-1,3.14,3.14,0,0,1,2.1.5C142.2,168.4,142.4,168.8,142.3,168.9Z" transform="translate(0 0)" style="fill:#263238"/><path d="M130.1,169.7c-.2.2-1.2-.6-2.7-.6s-2.5.8-2.7.6.1-.4.5-.8a4.19,4.19,0,0,1,2.1-.8,3.14,3.14,0,0,1,2.1.7C130,169.2,130.2,169.5,130.1,169.7Z" transform="translate(0 0)" style="fill:#263238"/><path d="M134.5,178.3a11.7,11.7,0,0,1,2-.5.67.67,0,0,0,.7-.4,1.4,1.4,0,0,0-.3-.9l-1.1-2.4a43.49,43.49,0,0,1-2.5-6.3,34.53,34.53,0,0,1,3,6.1l1.1,2.4a1.72,1.72,0,0,1,.2,1.2,1.21,1.21,0,0,1-.5.5,1.09,1.09,0,0,1-.5.1A5,5,0,0,1,134.5,178.3Z" transform="translate(0 0)" style="fill:#263238"/><path d="M136.2,193.2a23.17,23.17,0,0,1-12.4-2.6s3.4,6.2,12.5,4.9Z" transform="translate(0 0)" style="fill:#ff9a6c"/><path d="M130.6,181.9a2.7,2.7,0,0,1,.7-.8,1.38,1.38,0,0,1,1.1-.1,2.85,2.85,0,0,1,1.4.8,1.4,1.4,0,0,1,.3,1.5h0c-.1.5-.9.8-1.5.9a2.4,2.4,0,0,1-1.6-.4,1.59,1.59,0,0,1-.8-1A3.55,3.55,0,0,1,130.6,181.9Z" transform="translate(0 0)" style="fill:#ff9a6c"/><path d="M130.9,180.2c.2,0,.3,1.3,1.5,2.2s2.7.7,2.7.9-.3.3-.9.3a3.34,3.34,0,0,1-2.2-.6,3.47,3.47,0,0,1-1.2-1.9C130.7,180.5,130.8,180.2,130.9,180.2Z" transform="translate(0 0)" style="fill:#263238"/><path d="M130.1,165.7c-.1.3-1.4.2-2.8.5s-2.6.7-2.8.4c-.1-.1.1-.5.6-.8a5,5,0,0,1,2.1-.9,5.37,5.37,0,0,1,2.2.1C129.8,165.2,130.1,165.5,130.1,165.7Z" transform="translate(0 0)" style="fill:#263238"/><path d="M141.4,163.5c-.2.3-1.2.1-2.4.1s-2.2.3-2.4,0,0-.4.5-.7a3.61,3.61,0,0,1,2-.6,3.51,3.51,0,0,1,2,.5C141.3,163.1,141.5,163.4,141.4,163.5Z" transform="translate(0 0)" style="fill:#263238"/><path d="M112.6,159.8a6.74,6.74,0,0,1,3.8-2.4,81.59,81.59,0,0,1,19.4-4.5c.8,1.4,0,3.2-1.3,4.2a13.18,13.18,0,0,1-4.4,1.8,5.85,5.85,0,0,0-3.7,2.8c-.7,1.5-.2,3.4-.8,5-1,2.7-4.9,3.5-5.9,6.2-.8,2.1.4,4.3.6,6.5a7.79,7.79,0,0,1-6.8,8.7c-.3,0-.7.1-1,.1-.3-7.8-.6-15.7-.9-23.5C111.7,162.9,111.7,161.2,112.6,159.8Z" transform="translate(0 0)" style="fill:#263238"/><path d="M96.4,179.3c1.3-1.1,2.8-2,3.4-3.6.8-2.3-1-5,.2-7.1,1.1-1.9,4.3-1.7,5.4-3.7.8-1.5-.1-2.9.3-4.2a3.66,3.66,0,0,1,3.6-2.3l10.4,15.7c.9,5.2,1.8,8,.7,11a29.84,29.84,0,0,0-1.8,5,4.85,4.85,0,0,0,1.6,4.8c-6.4.4-12.3-3.1-17.8-6.4L96.6,185a4.28,4.28,0,0,1-1.6-1.4C94.1,182.2,95.2,180.4,96.4,179.3Z" transform="translate(0 0)" style="fill:#263238"/><path d="M102.2,186.9a1.48,1.48,0,0,0,.7.1,6.73,6.73,0,0,0,2-.1,6.19,6.19,0,0,0,2.8-1.4,6.62,6.62,0,0,0,1.9-3.7,5.33,5.33,0,0,0-.2-2.5,17.55,17.55,0,0,0-1.1-2.4,11.51,11.51,0,0,1-1.2-2.5,3.23,3.23,0,0,1,.4-2.7c.6-.8,1.7-.9,2.7-1.3a3.32,3.32,0,0,0,1.4-1,3.37,3.37,0,0,0,.5-1.7,13.72,13.72,0,0,0-.7-3.4,4.3,4.3,0,0,1,0-1.6,2.38,2.38,0,0,1,.9-1.3,7.22,7.22,0,0,1,3.2-.8,6.29,6.29,0,0,0,3.3-.9,5.89,5.89,0,0,0,2.3-2.4,8,8,0,0,0,.9-3,15.29,15.29,0,0,1,.7-2.9,6.62,6.62,0,0,1,1.5-2.2,7.26,7.26,0,0,1,8.4-1,8.76,8.76,0,0,1,2.4,1.9,10.71,10.71,0,0,1,1.5,2.2v-.2c0-.2-.1-.3-.2-.5a9.91,9.91,0,0,0-1.1-1.7,9.14,9.14,0,0,0-2.4-2,7.16,7.16,0,0,0-4.1-1,7.66,7.66,0,0,0-4.7,2,6.85,6.85,0,0,0-1.6,2.3,13.65,13.65,0,0,0-.7,2.9,7.54,7.54,0,0,1-.9,2.9,5.81,5.81,0,0,1-2.2,2.2,8.47,8.47,0,0,1-3.2.9,6.65,6.65,0,0,0-3.4.9,2.83,2.83,0,0,0-1.1,1.5,5.44,5.44,0,0,0,0,1.8c.3,1.1.5,2.2.7,3.3a2.82,2.82,0,0,1-.4,1.5,2.73,2.73,0,0,1-1.2.9c-.5.2-1,.3-1.5.5a3,3,0,0,0-1.3.9,3.23,3.23,0,0,0-.4,3A12.27,12.27,0,0,0,108,177a9.73,9.73,0,0,1,1.1,2.3,5.89,5.89,0,0,1-1.6,5.9,7.2,7.2,0,0,1-2.7,1.5A3.85,3.85,0,0,1,102.2,186.9Z" transform="translate(0 0)" style="fill:#455a64"/><path d="M93.9,175.8c-.1.2-.2.3-.2.5a3,3,0,0,0,.2,1.6,2.36,2.36,0,0,0,.8.9,3.26,3.26,0,0,0,1.4.4,3.16,3.16,0,0,0,2.8-1.7,4.49,4.49,0,0,0,.5-1.9,5.22,5.22,0,0,0-.4-2.1c-.5-1.4-1.4-2.8-1.4-4.4a3,3,0,0,1,.8-2.2,3.31,3.31,0,0,1,2.3-.7,8.83,8.83,0,0,0,2.8-.2,2.73,2.73,0,0,0,1.2-.9,3.36,3.36,0,0,0,.5-1.4,8.63,8.63,0,0,0-.2-2.8,5.65,5.65,0,0,1,.2-2.6,6.85,6.85,0,0,1,3-3.9,8.68,8.68,0,0,1,4.5-.9,13.36,13.36,0,0,0,4-.6,7.89,7.89,0,0,0,2.9-1.8,10,10,0,0,0,1.6-2,7,7,0,0,0,.8-2,6.63,6.63,0,0,1-.9,1.9,8.49,8.49,0,0,1-4.5,3.6,13.31,13.31,0,0,1-4,.5,9,9,0,0,0-4.6.9,7.07,7.07,0,0,0-3.2,4,6.54,6.54,0,0,0-.2,2.8,12.74,12.74,0,0,1,.2,2.8,2.43,2.43,0,0,1-1.4,2.1,7.82,7.82,0,0,1-2.6.2,3.53,3.53,0,0,0-2.6.8,3.58,3.58,0,0,0-.9,2.4,6.87,6.87,0,0,0,.5,2.4l.9,2.1a4.48,4.48,0,0,1,.4,2,5.26,5.26,0,0,1-.4,1.8,2.88,2.88,0,0,1-2.6,1.6,2.26,2.26,0,0,1-2.3-2.3h0v-.4A.44.44,0,0,1,93.9,175.8Z" transform="translate(0 0)" style="fill:#263238"/><path d="M161.1,180.9a2.48,2.48,0,0,1,0,1.7,2,2,0,0,1-1.4,1.3,2.27,2.27,0,0,1-2.3-.7,2.39,2.39,0,0,1-.5-1.4,4.53,4.53,0,0,1,.3-1.6,9.25,9.25,0,0,0,1-3.7,5.17,5.17,0,0,0-1.9-3.7,5.64,5.64,0,0,0-2-1.1,15.72,15.72,0,0,0-2.3-.4,8.33,8.33,0,0,1-2.2-.3,3.37,3.37,0,0,1-1.7-1.1,3.29,3.29,0,0,1-.6-1.9,6.8,6.8,0,0,1,.2-2,11.93,11.93,0,0,0,.6-3.7,5.1,5.1,0,0,0-1.1-3.1,8.6,8.6,0,0,0-2-1.8,9.55,9.55,0,0,1-1.6-1.2,3.59,3.59,0,0,1-1-1.4v.1c0,.1.1.2.1.3a7.63,7.63,0,0,0,.8,1.1,6.1,6.1,0,0,0,1.6,1.2,7,7,0,0,1,2,1.8,5.39,5.39,0,0,1,1,3,14.36,14.36,0,0,1-.7,3.6,7.49,7.49,0,0,0-.2,2.1,3.94,3.94,0,0,0,.6,2.1,3,3,0,0,0,1.9,1.2,8.52,8.52,0,0,0,2.3.3,5.7,5.7,0,0,1,2.2.4,6.92,6.92,0,0,1,1.9,1,5.21,5.21,0,0,1,1.8,3.5,8.78,8.78,0,0,1-1,3.5,5.08,5.08,0,0,0-.3,1.7,2,2,0,0,0,.6,1.5,2.56,2.56,0,0,0,2.6.7,2.12,2.12,0,0,0,1.4-1.5,2,2,0,0,0,.1-1.3C161.3,181.2,161.3,181,161.1,180.9Z" transform="translate(0 0)" style="fill:#263238"/><path d="M116.4,196.9c-5.8,5.3-9.7,7.3-10.4,12.7a34.19,34.19,0,0,0,1.5,14.2c3.1,9.3,7.1,20.2,9.6,25.4a8.53,8.53,0,0,1,.4,6.1c-1.4,4.5-5,13.2-4.4,30.8l54.1-3.8s-9.4-21.7-11.5-32.5c-.2-1.3,1.2-16.9.5-20-2.6-11.5-15.1-22.9-19.2-29l-.5-2-19.8-3.3Z" transform="translate(0 0)" style="fill:#455a64"/><g style="opacity:0.30000001192092896"><path d="M116.2,243.5s6.7,14,10,15.3,31.1-2.5,31.1-2.5l-1.7-6.6Z" transform="translate(0 0)"/></g><path d="M140.5,205.3a6.47,6.47,0,0,1,.9.8c.6.6,1.3,1.4,2.2,2.5,1.8,2.1,4,5.4,6.5,8.8a35.77,35.77,0,0,1,5.2,9.6c.4,1.1.6,2.1.9,3.2a4.87,4.87,0,0,1,.1,1.2c-.1,0-.3-1.7-1.3-4.3a38.51,38.51,0,0,0-5.3-9.5c-2.5-3.5-4.6-6.7-6.4-8.9-.9-1.1-1.6-2-2.1-2.6A2.85,2.85,0,0,1,140.5,205.3Z" transform="translate(0 0)" style="fill:#263238"/><path d="M172.4,232.1s.4-1.8,3.7-4a13.27,13.27,0,0,0,4.7-5c.6-1,1.6-2.8,2.5-2.3s.8,1.9.1,4.1-2.5,4-1.8,4.8,10.7-.2,13.6-.8,4.3-.3,3.9,1.1-9.5,1.8-10.1,3.1.4,1.1,1.4,1.4,10.8-.7,11,1.1-1,1.9-1,1.9.3,2.1-1.3,2.7-11.5-.6-11.2.6,8,1.9,8.2,3.8-1.7,1.2-3.7.8a49.77,49.77,0,0,0-9.4-1.5c-3.3,0-9.7-.6-9.7-.6Z" transform="translate(0 0)" style="fill:#ffbf9d"/><path d="M200.5,237.9a36.37,36.37,0,0,1-6.6,0,36.83,36.83,0,0,1-6.6-.6,36.37,36.37,0,0,1,6.6,0A36.83,36.83,0,0,1,200.5,237.9Z" transform="translate(0 0)" style="fill:#c5d21e"/><path d="M131.4,243.5a4.83,4.83,0,0,1,.8-3.1,5.09,5.09,0,0,1,2.2-2.4c.1.1-.9,1.1-1.7,2.6S131.6,243.6,131.4,243.5Z" transform="translate(0 0)" style="fill:#263238"/><path d="M121,213.4c.1.1.2.3.3.4s.4.7.8,1.2q1.05,1.65,2.7,4.8c2.3,4.2,5.6,10.3,9.6,17.8l-.2-.1,38-8.1.3-.1v.3c.4,5.5.9,11.2,1.4,17v.3l-.2.1c-11.3,2.4-22.1,4.5-32,6.1-2.5.4-4.9.7-7.2,1a53.22,53.22,0,0,1-6.9.4,9.85,9.85,0,0,1-1.7-.2,6.89,6.89,0,0,1-.8-.3l-.6-.4a12,12,0,0,1-1.2-1.1,11.41,11.41,0,0,1-1.1-1.1c-.7-.8-1.4-1.5-2-2.3s-1.2-1.6-1.7-2.3a168,168,0,0,1-9.5-15.2c-1-1.8-1.8-3.3-2.3-4.3a3.58,3.58,0,0,0-.6-1.1c-.1-.1-.1-.3-.2-.4a.52.52,0,0,1,.2.4l.6,1.1,2.4,4.2c2.2,3.6,5.2,8.9,9.6,15.1.6.8,1.1,1.5,1.7,2.3s1.3,1.6,1.9,2.3a5.73,5.73,0,0,0,1.1,1.1,10.59,10.59,0,0,0,1.2,1l.6.5c.1.1.2.1.3.2s.2.1.4.1a8.75,8.75,0,0,0,1.6.2,50.61,50.61,0,0,0,6.8-.5c2.4-.3,4.8-.6,7.2-1,9.9-1.6,20.6-3.7,31.9-6.1l-.2.3v-.1c-.5-5.8-.9-11.5-1.4-17l.3.2-38,7.9H134l-.1-.1c-3.9-7.6-7.2-13.7-9.4-17.9-1.1-2.1-2-3.7-2.6-4.9l-.7-1.3Z" transform="translate(0 0)" style="fill:#263238"/><path d="M109.4,203.1s-11.7,7.8-4.7,21.5c6.3,12.2,16.4,27.1,20.5,29.5s48.3-7.2,48.3-7.2l-1.4-17.1-38,8-10.9-20.4C123.3,217.3,119,200.1,109.4,203.1Z" transform="translate(0 0)" style="fill:#455a64"/></g><g style="opacity:0.6600000262260437"><path d="M152,281.1c-6.9-2.7-12.2-6.2-16.1-10.7a27.87,27.87,0,0,1-6.7-15.5c-.6-5.9.4-12.3,3-19.4l.3-.7.3-.7,17.5,6.8c-2.4,6.3-3.3,11.6-2.6,15.8s4.1,7.5,10.1,9.9a12.25,12.25,0,0,0,9.4.1c3-1.2,5.8-3.6,8.5-7.4a73.53,73.53,0,0,0,7.8-15.3l7.8-20.1a18.89,18.89,0,0,1-9.9,3.8,27.65,27.65,0,0,1-13-2.1c-7.3-2.8-12.4-6.7-15.3-11.5a26.78,26.78,0,0,1-3.5-16.8,76.06,76.06,0,0,1,5.2-21,71.61,71.61,0,0,1,11.8-20.6,35,35,0,0,1,16.6-11.4c6.3-1.9,13.4-1.4,21.3,1.7,7.6,3,13.1,7.3,16.4,13a35.09,35.09,0,0,1,4.5,19.8,71.12,71.12,0,0,1-5.2,23.2l-17.3,44.5a95.09,95.09,0,0,1-12.1,22.4c-4.8,6.4-10.3,10.9-16.7,13.4S160.4,284.4,152,281.1Zm26-67a15.56,15.56,0,0,0,10.4.8,24.3,24.3,0,0,0,8-4.1l7.7-19.6a58.3,58.3,0,0,0,3.6-13,19.92,19.92,0,0,0-1.1-10.8c-1.3-3.1-3.9-5.4-7.7-6.9a13,13,0,0,0-10.4-.1,20.13,20.13,0,0,0-8.2,7.1,55.07,55.07,0,0,0-6.1,11.5,150.82,150.82,0,0,0-4.9,14.8c-1.2,4.7-1.3,8.7-.2,12.2s4,6.1,8.9,8.1Z" transform="translate(0 0)"/></g><path d="M145,276c-6.9-2.7-12.2-6.2-16.1-10.7a27.19,27.19,0,0,1-6.7-15.5c-.6-5.9.4-12.3,3-19.4l.3-.7.3-.7,17.5,6.8c-2.4,6.3-3.3,11.6-2.6,15.9s4.1,7.5,10.1,9.9a12.25,12.25,0,0,0,9.4.1c3-1.2,5.8-3.6,8.5-7.4a69,69,0,0,0,7.8-15.3l7.9-20.1a18.89,18.89,0,0,1-9.9,3.8,27.65,27.65,0,0,1-13-2.1c-7.3-2.8-12.4-6.7-15.3-11.5a26.78,26.78,0,0,1-3.5-16.8,76.06,76.06,0,0,1,5.2-21,73,73,0,0,1,11.8-20.6,35,35,0,0,1,16.6-11.4c6.3-1.9,13.4-1.4,21.3,1.7,7.6,3,13.1,7.3,16.4,13.1a36.46,36.46,0,0,1,4.5,19.7,71.12,71.12,0,0,1-5.2,23.2L196,241.5a95.09,95.09,0,0,1-12.1,22.4c-4.8,6.4-10.3,10.9-16.7,13.4S153.4,279.3,145,276Zm26.1-67a15.56,15.56,0,0,0,10.4.8,26.37,26.37,0,0,0,8-4.1l7.6-19.6a58.3,58.3,0,0,0,3.6-13,19.92,19.92,0,0,0-1.1-10.8c-1.3-3.1-3.9-5.4-7.7-6.9a13,13,0,0,0-10.4-.1,20.79,20.79,0,0,0-8.2,7.1,55.07,55.07,0,0,0-6.1,11.5,152.68,152.68,0,0,0-4.9,14.9c-1.2,4.7-1.3,8.7-.2,12.2s4,6.1,9,8Z" transform="translate(0 0)" style="fill:#608441"/><path d="M152.2,280.5c-6.9-2.7-12.2-6.2-16.1-10.7a26.9,26.9,0,0,1-6.7-15.5c-.6-5.9.4-12.3,3-19.4l.3-.7.3-.7,17.5,6.8c-2.5,6.3-3.3,11.6-2.6,15.8s4.1,7.5,10.1,9.9a12.25,12.25,0,0,0,9.4.1c3-1.2,5.8-3.6,8.5-7.4a69,69,0,0,0,7.8-15.3l7.8-20.1a18.89,18.89,0,0,1-9.9,3.8,27.65,27.65,0,0,1-13-2.1c-7.3-2.8-12.4-6.7-15.3-11.5a27.31,27.31,0,0,1-3.5-16.8,76.06,76.06,0,0,1,5.2-21,71.61,71.61,0,0,1,11.8-20.6,34.55,34.55,0,0,1,16.5-11.4c6.3-1.9,13.4-1.4,21.3,1.7,7.6,3,13.1,7.3,16.4,13.1a35.78,35.78,0,0,1,4.5,19.7,73.65,73.65,0,0,1-5.1,23.2l-17.3,44.5A97.75,97.75,0,0,1,191,268.4c-4.7,6.4-10.3,10.9-16.6,13.4S160.7,283.8,152.2,280.5Zm26.1-67.1a15.56,15.56,0,0,0,10.4.8,26.37,26.37,0,0,0,8-4.1l7.6-19.6a58.3,58.3,0,0,0,3.6-13,19.92,19.92,0,0,0-1.1-10.8c-1.3-3.1-3.9-5.4-7.7-6.9a13,13,0,0,0-10.4-.1,20.13,20.13,0,0,0-8.2,7.1,55.07,55.07,0,0,0-6.1,11.5c-1.9,4.9-3.5,9.8-4.9,14.8-1.2,4.7-1.3,8.7-.2,12.2s4,6.2,9,8.1Z" transform="translate(0 0)" style="fill:#a3cc84"/><path d="M109,203.5s-11.7,7.8-4.7,21.5c6.3,12.2,16.4,27.1,20.5,29.5s48.3-7.2,48.3-7.2l-1.4-17.1-38,8-10.9-20.4C122.9,217.7,118.6,200.5,109,203.5Z" transform="translate(0 0)" style="fill:#455a64"/><path d="M172.8,232.1s.4-1.8,3.7-4a13.27,13.27,0,0,0,4.7-5c.6-1,1.6-2.8,2.5-2.3s.8,1.9.1,4.1-2.5,4-1.8,4.8,10.7-.2,13.6-.8,4.3-.3,3.9,1.1-9.5,1.8-10.1,3.1.4,1.1,1.4,1.4,10.8-.7,11,1.1-1,1.9-1,1.9.3,2.1-1.3,2.7-11.5-.6-11.2.6,8,1.9,8.2,3.8-1.7,1.2-3.7.8a49.77,49.77,0,0,0-9.4-1.5c-3.3,0-9.7-.6-9.7-.6Z" transform="translate(0 0)" style="fill:#ffbf9d"/><path d="M225.8,190.9c.9,1.3-1.9,2.9-1.9,2.9.7.5.3,3-.9,3.2.5.3.9.3,1.2.9a1.91,1.91,0,0,1,0,1.8,1.55,1.55,0,0,1-1.6.8,2.48,2.48,0,0,1,.1,3.4,5.55,5.55,0,0,1-.8.6,2.92,2.92,0,0,1-.9.2h-.3l-.1-.1c-.2-.1-.3-.3-.5-.5l-.2-.2a5.36,5.36,0,0,0-1.1-.5c-.2,0-.4-.1-.6-.1l-.3-.2a4.76,4.76,0,0,0-2.3-.7,4.29,4.29,0,0,1-2.4-1,1.73,1.73,0,0,1-.2-2.4,1.16,1.16,0,0,1-1-1.1,1.6,1.6,0,0,1,.8-1.4,2.93,2.93,0,0,1,1.6-.4,1.22,1.22,0,0,1-.9-1.5,2,2,0,0,1,1.3-1.4,4.44,4.44,0,0,1,2-.1c.7.1,3.4.3,4.1.3l.5-1.8.1-.2c1.2-.3,1.5-.4,2.6-.6C224.7,190.3,225.5,190.3,225.8,190.9Z" transform="translate(0 0)" style="fill:#ffbf9d"/><path d="M221.1,207.1a2.19,2.19,0,0,1-.8,1.4,3.94,3.94,0,0,1-2.4-.1l.2-1.9.1-.5c-.2-.4-1-.5-1.3-.7a1.55,1.55,0,0,1-.4-2,2.17,2.17,0,0,1,2-.8,3.22,3.22,0,0,1,1.8,1.2A4.58,4.58,0,0,1,221.1,207.1Z" transform="translate(0 0)" style="fill:#ffbf9d"/><path d="M222.9,200.6a48.46,48.46,0,0,0-10.1-1.7A71,71,0,0,0,222.9,200.6Z" transform="translate(0 0)" style="fill:#ff9a6c"/><path d="M223.2,197.1a13.51,13.51,0,0,0-4.5-1.1,14.21,14.21,0,0,0-4.6-.1,34,34,0,0,0,4.6.6Z" transform="translate(0 0)" style="fill:#ff9a6c"/><path d="M223.5,193.6a12.29,12.29,0,0,0-3.7-.8,16.12,16.12,0,0,0-3.8-.1,12.09,12.09,0,0,0,3.8.6A22.18,22.18,0,0,0,223.5,193.6Z" transform="translate(0 0)" style="fill:#ff9a6c"/><path d="M221,205.8c.1,0,.2-.3.1-.9a3.15,3.15,0,0,0-1.3-1.7,5,5,0,0,0-2-.8c-.6-.1-.9.3-.8.4a1.1,1.1,0,0,1,.8,0,7.57,7.57,0,0,1,1.8.9,2.36,2.36,0,0,1,1.2,1.4C220.9,205.5,220.9,205.8,221,205.8Z" transform="translate(0 0)" style="fill:#ff9a6c"/><path d="M338.4,284.5l-6.2-3.8s-6.4-4.2-6.7-4.8a8.9,8.9,0,0,1-.8-3.3c0-.9,2.9-3,3.2-4.8s-1.6-3.5-2.2-3.8-1.4.8-1.5,1.5-1.3,1.9-3.1,2.3-4.2,2.7-4.2,2.7l-5.4,10.1c.9,1.7,11.9,5.9,12.3,6s12.1.4,13.3,0a1.81,1.81,0,0,0,1.5-2.1C338.4,284.6,338.4,284.5,338.4,284.5Z" transform="translate(0 0)" style="fill:#ae7461"/><path d="M405.1,248.2c.8,1.5-2.3,2.8-2.3,2.8.7.6,0,3.1-1.3,3.2.5.4.9.4,1.1,1.1a1.85,1.85,0,0,1-.2,1.9,1.57,1.57,0,0,1-1.8.6,2.44,2.44,0,0,1-.4,3.5,2.38,2.38,0,0,1-1.8.5H398a.1.1,0,0,1-.1-.1c-.2-.2-.3-.4-.5-.6l-.2-.2a4.13,4.13,0,0,0-1.1-.7c-.2-.1-.4-.1-.6-.2l-.3-.3a5.23,5.23,0,0,0-2.3-1,5.11,5.11,0,0,1-2.4-1.3,1.75,1.75,0,0,1,.1-2.5,1.3,1.3,0,0,1-1-1.3,2.07,2.07,0,0,1,1-1.4,4.67,4.67,0,0,1,1.7-.3,1.38,1.38,0,0,1-.8-1.7,2.17,2.17,0,0,1,1.5-1.3,5,5,0,0,1,2.1.1c.7.1,3.5.8,4.2.8l.7-1.8.1-.2c1.3-.1,1.6-.2,2.8-.3C403.9,247.5,404.7,247.6,405.1,248.2Z" transform="translate(0 0)" style="fill:#ae7461"/><path d="M399.6,262.6a1.94,1.94,0,0,1-.3,1.8,4.16,4.16,0,0,1-2.7.3l-.6-2.3-.1-.6c-.4-.5-1.3-.5-1.8-.6a2.29,2.29,0,0,1-1.4-2.3,1.69,1.69,0,0,1,1.9-1.2,4.71,4.71,0,0,1,2.6,1.1A7.55,7.55,0,0,1,399.6,262.6Z" transform="translate(0 0)" style="fill:#ae7461"/><path d="M400.9,257.9a42.43,42.43,0,0,0-5-1.8,23.11,23.11,0,0,0-5.2-1.2A45.89,45.89,0,0,0,400.9,257.9Z" transform="translate(0 0)" style="fill:#6f4439"/><path d="M401.6,254.3a21.76,21.76,0,0,0-9.3-2.4,35.93,35.93,0,0,0,4.7,1.2A34.47,34.47,0,0,0,401.6,254.3Z" transform="translate(0 0)" style="fill:#6f4439"/><path d="M402.3,250.8a10.54,10.54,0,0,0-3.8-1.2,13.36,13.36,0,0,0-4-.6,16.57,16.57,0,0,0,3.8,1.1C399.6,250.4,401,250.6,402.3,250.8Z" transform="translate(0 0)" style="fill:#6f4439"/><path d="M397.5,262.8a1,1,0,0,0,.2-.9,3.09,3.09,0,0,0-1.1-2,7.81,7.81,0,0,0-2-1.1c-.6-.2-1,.2-.9.3a2.2,2.2,0,0,1,.8.1,9.91,9.91,0,0,1,1.7,1.1,3.55,3.55,0,0,1,1.1,1.6A3.23,3.23,0,0,1,397.5,262.8Z" transform="translate(0 0)" style="fill:#6f4439"/><path d="M589.1,224.9c-.8,1.5-3.7-.2-3.7-.2-.1.9-2.6,1.8-3.4.9,0,.7.2,1-.2,1.6a2.33,2.33,0,0,1-1.7,1,1.5,1.5,0,0,1-1.5-1.1,2.52,2.52,0,0,1-3,1.8,3.13,3.13,0,0,1-1-.5,4.35,4.35,0,0,1-.6-.7c-.1-.1-.1-.2-.2-.3v-.2a1.85,1.85,0,0,1,.2-.7v-.3a5.7,5.7,0,0,0-.1-1.3c-.1-.2-.1-.4-.2-.6a.6.6,0,0,1,.1-.4,7,7,0,0,0-.5-2.5,4.47,4.47,0,0,1-.3-2.8,1.82,1.82,0,0,1,2.1-1.4,1.19,1.19,0,0,1,.5-1.6,1.72,1.72,0,0,1,1.7,0,2.54,2.54,0,0,1,1.2,1.3,1.28,1.28,0,0,1,.9-1.6,1.9,1.9,0,0,1,1.9.5,4.52,4.52,0,0,1,1.1,1.7c.3.6,1.4,3.3,1.8,3.9l1.9-.5h.2a18,18,0,0,1,1.9,2.1C588.9,223.6,589.4,224.2,589.1,224.9Z" transform="translate(0 0)" style="fill:#ffbf9d"/><path d="M572.6,229.6a2.48,2.48,0,0,1-1.7,0,4.77,4.77,0,0,1-1.2-2.2l1.8-.7.5-.2c.3-.4,0-1.1,0-1.6a1.62,1.62,0,0,1,1.6-1.4,1.93,1.93,0,0,1,1.7,1.4,3,3,0,0,1-.2,2.3A3.76,3.76,0,0,1,572.6,229.6Z" transform="translate(0 0)" style="fill:#ffbf9d"/><path d="M578.5,227.1A29.87,29.87,0,0,0,577,222a26.49,26.49,0,0,0-2-4.9,27.42,27.42,0,0,0,1.5,5.1A25.27,25.27,0,0,0,578.5,227.1Z" transform="translate(0 0)" style="fill:#ff9a6c"/><path d="M581.8,225.5a15.68,15.68,0,0,0-1.3-4.7,14.91,14.91,0,0,0-2.3-4.3c.5,1.5,1.1,3.1,1.7,4.5C580.5,222.6,581.1,224,581.8,225.5Z" transform="translate(0 0)" style="fill:#ff9a6c"/><path d="M585.9,224.7a12.94,12.94,0,0,0-1.2-3.8,15.47,15.47,0,0,0-1.9-3.6,17.06,17.06,0,0,0,1.3,3.8C584.7,222.3,585.2,223.5,585.9,224.7Z" transform="translate(0 0)" style="fill:#ff9a6c"/></svg>