<svg id="Layer_1" data-name="Layer 1" xmlns="http://www.w3.org/2000/svg" viewBox="0 0 676.57 446.13"><g style="opacity:0.30000001192092896"><path d="M520,219.26l-.35-12,.9-5.94s10.19.32,12.36-3.82a68.41,68.41,0,0,0,4-10.63l-12.68-3.28L515,199.79l-2.81,8,4.41,10.39Z" transform="translate(0 0.05)"/></g><g style="opacity:0.30000001192092896"><path d="M515.39,240.26l2.34.7s.9-17.46-1.59-22.75Z" transform="translate(0 0.05)"/></g><path d="M516.51,208.85s3.46,2.2,4.33,4.57,20.69,16.48,20.69,16.48l2.67-.72,34-7.75-12.08,2.75-15.85,26.17c-1.11.26-34.88-10.62-34.88-10.62Z" transform="translate(0 0.05)" style="fill:#455a64"/><path d="M529.39,298.86Q518,295.08,511.8,288.24A28.61,28.61,0,0,1,504.51,272q-1.12-9.4,2.54-20.4l1.55-4.67L526.93,253l-.49,1.47-.54,1.64a53.22,53.22,0,0,0-2.25,11.73,16,16,0,0,0,2,9.5q2.4,4,8.8,6.17,6.74,2.24,11.26.18a17.39,17.39,0,0,0,7.67-7.53,71,71,0,0,0,5.68-13.09Q562.72,252,561,243.66t-11.69-12.47a4.74,4.74,0,0,0-1.24-.6l-1.3-.43,6.13-18.5,1.21.4,1.21.4q10,2.92,15.9-.49t9.64-14.65q3.15-9.51,1.84-16.28t-10.82-9.91q-9.51-3.15-14.71,2.13t-8.81,15l-.49,1.47-.49,1.47L529,185.13l1.55-4.67q3.72-11.24,10.16-17.93a28.7,28.7,0,0,1,15.56-8.47q9.12-1.77,20.54,2,11.58,3.84,17.77,10.68a28.91,28.91,0,0,1,7.32,16.14q1.14,9.3-2.58,20.54-4.19,12.63-12.15,18.43a28.57,28.57,0,0,1-18,5.54,25.15,25.15,0,0,1,8.59,10.22,33.61,33.61,0,0,1,2.91,14.11,54.8,54.8,0,0,1-3.11,17.48A65,65,0,0,1,567,289.76a30.41,30.41,0,0,1-15.82,10.69Q541.83,303,529.39,298.86Z" transform="translate(0 0.05)"/><path d="M529.39,299Q518,295.18,511.8,288.34a28.61,28.61,0,0,1-7.29-16.23q-1.12-9.37,2.55-20.45L508.6,247l18.33,6.07-.48,1.47-.55,1.64a53.22,53.22,0,0,0-2.25,11.73,16.14,16.14,0,0,0,2,9.5q2.4,4.05,8.8,6.17,6.74,2.24,11.26.18a17.39,17.39,0,0,0,7.67-7.53,71,71,0,0,0,5.68-13.09q3.66-11.07,1.92-19.42t-11.72-12.42a4.74,4.74,0,0,0-1.24-.6l-1.3-.43,6.13-18.5,1.21.4,1.21.4q10,2.92,15.89-.49t9.65-14.65q3.15-9.51,1.84-16.28t-10.82-9.91q-9.51-3.15-14.71,2.13t-8.82,15l-.48,1.47-.49,1.47L529,185.23l1.55-4.67q3.72-11.24,10.15-17.93a28.7,28.7,0,0,1,15.57-8.47q9.12-1.77,20.54,2,11.58,3.84,17.76,10.68A28.72,28.72,0,0,1,601.89,183q1.14,9.3-2.58,20.54-4.17,12.63-12.14,18.43a28.57,28.57,0,0,1-18,5.54,25.34,25.34,0,0,1,8.63,10.15,33.46,33.46,0,0,1,2.91,14.11,55.07,55.07,0,0,1-3.1,17.48A65.57,65.57,0,0,1,567,289.79a30.41,30.41,0,0,1-15.82,10.69Q541.8,303.07,529.39,299Z" transform="translate(0 0.05)" style="fill:#c5d21e;opacity:0.4699999988079071;isolation:isolate"/><path d="M516.56,295.46q-11.41-3.78-17.59-10.62a28.69,28.69,0,0,1-7.3-16.23q-1.11-9.39,2.55-20.45l1.55-4.67,18.33,6.06-.49,1.47-.54,1.65a53.14,53.14,0,0,0-2.25,11.72,16.22,16.22,0,0,0,2,9.5q2.4,4.07,8.8,6.18,6.75,2.24,11.26.18a17.44,17.44,0,0,0,7.68-7.54,71.54,71.54,0,0,0,5.7-13.1q3.68-11.07,1.92-19.42t-11.72-12.42a4.19,4.19,0,0,0-1.24-.6l-1.29-.43,6.12-18.5,1.21.4,1.21.4q10,2.91,15.9-.5T568,193.89q3.15-9.49,1.84-16.27T559,167.7q-9.51-3.15-14.71,2.14t-8.81,15l-.49,1.47-.48,1.47-18.33-6.07,1.54-4.67q3.72-11.23,10.16-17.93a28.63,28.63,0,0,1,15.57-8.47q9.12-1.78,20.53,2,11.6,3.83,17.77,10.68a28.72,28.72,0,0,1,7.32,16.14q1.14,9.3-2.58,20.54-4.18,12.63-12.14,18.43a28.57,28.57,0,0,1-18,5.54A25.34,25.34,0,0,1,565,234.12a33.38,33.38,0,0,1,2.91,14.1,55.13,55.13,0,0,1-3.1,17.49,65.28,65.28,0,0,1-10.65,20.56A30.5,30.5,0,0,1,538.36,297Q529,299.62,516.56,295.46Z" transform="translate(0 0.05)" style="fill:#c5d21e"/><polygon points="138.03 203.54 169.67 205.47 202.11 190.37 212.15 202.66 172.4 223.78 150.42 226.54 138.03 203.54" style="fill:#455a64"/><g id="freepik--background-complete--inject-2"><path d="M658.9,287.34a1,1,0,0,1,0-.24v-3.19c0-2.22,0-5.42-.08-9.44l.15.15-48.65.09.24-.24h0v12.85l-.25-.25,34.68.11,10.23.07h.11l-10.18.07-34.84.11h-.24V274.49h0l.25-.25,48.65.1h.15v.15c0,4.06-.07,7.29-.09,9.53v3.13A1.27,1.27,0,0,1,658.9,287.34Z" transform="translate(0 0.05)" style="fill:#e0e0e0"/><path d="M665.49,274.47v-.93c0-.63,0-1.5,0-2.58,0-2.26,0-5.45-.1-9.36l.18.17-29.23.07c-.22.22.3-.3.25-.24h0v12.85l-.24-.24,20.91.11,6.09.07h.09l-6,.07-21,.15h-.23v-13h0l.25-.25,29.23.07h.18v.18c0,4-.07,7.18-.09,9.47v2.54A4.31,4.31,0,0,1,665.49,274.47Z" transform="translate(0 0.05)" style="fill:#e0e0e0"/><path d="M658.9,287.34a1,1,0,0,1,0-.24v-3.19c0-2.22,0-5.42-.08-9.44l.15.15-48.65.09.24-.24h0v12.85l-.25-.25,34.68.11,10.23.07h.11l-10.18.07-34.84.11h-.24V274.49h0l.25-.25,48.65.1h.15v.15c0,4.06-.07,7.29-.09,9.53v3.13A1.27,1.27,0,0,1,658.9,287.34Z" transform="translate(0 0.05)" style="fill:#e0e0e0"/><path d="M665.49,274.47v-.93c0-.63,0-1.5,0-2.58,0-2.26,0-5.45-.1-9.36l.18.17-29.23.07c-.22.22.3-.3.25-.24h0v12.85l-.24-.24,20.91.11,6.09.07h.09l-6,.07-21,.15h-.23v-13h0l.25-.25,29.23.07h.18v.18c0,4-.07,7.18-.09,9.47v2.54A4.31,4.31,0,0,1,665.49,274.47Z" transform="translate(0 0.05)" style="fill:#e0e0e0"/><rect x="54.02" y="64.63" width="48.65" height="12.87" style="fill:#ebebeb"/><path d="M82.1,91a1,1,0,0,1,0-.24V87.61c0-2.22,0-5.42-.08-9.44l.15.15-48.65.09.24-.24h0V91l-.24-.24,34.67.11,10.23.06h.11L68.39,91l-34.84.11H33.3v-13h0l.25-.25L82.2,78h.15v.15c0,4.06-.07,7.29-.08,9.53v3.13A2,2,0,0,1,82.1,91Z" transform="translate(0 0.05)" style="fill:#e0e0e0"/><rect x="409.51" y="309.29" width="48.65" height="12.87" style="fill:#ebebeb"/><path d="M437.59,335.67a1,1,0,0,1,0-.24v-3.19c0-2.22,0-5.42-.08-9.44l.15.15L389,323l.24-.24h0v12.81l-.25-.25,34.68.11,10.23.07H434l-10.17.07-34.85.11h-.24v-12.9h0l.25-.25,48.65.09h.15v.15c0,4.06-.07,7.29-.09,9.53v3.13Z" transform="translate(0 0.05)" style="fill:#e0e0e0"/><rect x="404.77" y="84.87" width="48.65" height="12.87" style="fill:#ebebeb"/><rect x="627.92" y="148.73" width="48.65" height="12.87" style="fill:#ebebeb"/><path d="M192.58,26a.89.89,0,0,1,0-.23v-3.2c0-2.22-.05-5.41-.08-9.44l.15.15-48.65.1c.11-.11-.25.24.24-.25h0V26l-.25-.24,34.68.11,10.23.07H189L178.83,26,144,26.09h-.24v-13h0l.25-.25,48.65.1h.15v.15c0,4.06-.07,7.29-.09,9.53v3.14Z" transform="translate(0 0.05)" style="fill:#e0e0e0"/><path d="M199.17,13.1v-.93c0-.63,0-1.49,0-2.58,0-2.26,0-5.44-.09-9.36l.17.18L170,.48l.25-.25h0V13.08l-.24-.24,20.91.12L197,13h.11l-6,.06L170,13.2h-.23V.2h0L170,0,199.27,0h.12V.2c0,4-.07,7.19-.09,9.47v2.54A5.31,5.31,0,0,1,199.17,13.1Z" transform="translate(0 0.05)" style="fill:#e0e0e0"/><path d="M589.28,32.66a.89.89,0,0,1,0-.23v-3.2c0-2.22,0-5.41-.08-9.44l.15.15L540.7,20c.11-.11-.25.24.24-.25h0V32.66l-.24-.24,34.67.11,10.23.07h.12l-10.18.07-34.84.11h-.31v-13h0l.25-.25,48.65.1h.1v.15c0,4.06-.06,7.29-.08,9.53v3.13Z" transform="translate(0 0.05)" style="fill:#e0e0e0"/><path d="M595.88,19.79a1,1,0,0,1,0-.25V16.28c0-2.26,0-5.44-.09-9.36l.18.18-29.23.06.24-.24h0V19.77l-.24-.24,20.92.11,6.09.07h.1l-6,.06-21.07.11h-.39V6.94h0l.25-.25,29.23.07h.18v.18c0,4-.07,7.19-.09,9.47,0,1.07,0,1.92-.05,2.54S595.89,19.8,595.88,19.79Z" transform="translate(0 0.05)" style="fill:#e0e0e0"/><path d="M299,100.28V96.85c0-2.22,0-5.41-.08-9.44l.15.15-48.65.1.25-.25h0v12.85l-.24-.24,34.67.11,10.23.07h.12l-10.18.06-34.84.11h-.24V87.27h0c.5-.49.14-.14.25-.25l48.65.1h.15v.15c0,4.07-.06,7.29-.08,9.53v3.14C299,100.22,299,100.29,299,100.28Z" transform="translate(0 0.05)" style="fill:#e0e0e0"/><path d="M305.61,87.41a1,1,0,0,1,0-.24V83.9c0-2.25-.06-5.44-.1-9.36l.18.18-29.23.07c-.23.22.3-.3.24-.25h0V87.39l-.23-.23,20.91.11,6.09.06h2.23a4.69,4.69,0,0,1-.53,0h-1.6l-6,.07-21.18.21h-.24v-13h0c-.06,0,.47-.47.25-.25l29.23.07h.18v.18c0,4-.08,7.19-.1,9.47v2.53C305.71,87.24,305.62,87.42,305.61,87.41Z" transform="translate(0 0.05)" style="fill:#e0e0e0"/><path d="M48.9,260.24a1,1,0,0,1,0-.24v-3.19c0-2.22,0-5.42-.08-9.44l.15.15-48.72.09.24-.24h0v12.87L.24,260l34.68.11,10.23.07h.11l-10.18.07-34.84.11H0v-13H0l.25-.25,48.65.09h.15v.16c0,4.06-.07,7.29-.09,9.53V260Z" transform="translate(0 0.05)" style="fill:#e0e0e0"/><path d="M55.49,247.37v-3.51c0-2.26-.06-5.45-.1-9.37l.18.18-29.18.07c-.22.22.3-.3.25-.24h0v12.84l-.25-.23,20.91.11,6.09.07h.11l-6,.07-21.2.25h-.23V234.53h0l.25-.25,29.23.07h.18v.17c0,4-.07,7.19-.09,9.48v2.54A3.91,3.91,0,0,1,55.49,247.37Z" transform="translate(0 0.05)" style="fill:#e0e0e0"/><path d="M215.69,324.29a30.64,30.64,0,0,0-13.13-4.52c-2.15-.22-4.49-.16-6.21,1.14a1.27,1.27,0,0,0-.64,1.13,1.36,1.36,0,0,0,.61.78,18.75,18.75,0,0,0,19.37,1.47" transform="translate(0 0.05)" style="fill:#e0e0e0"/><path d="M215.39,323.92a64,64,0,0,1-8.48-7.46,21.54,21.54,0,0,1-5.32-9.85,4,4,0,0,1,.42-3.29c6.76,5.28,12.07,12.11,13.38,20.59" transform="translate(0 0.05)" style="fill:#e0e0e0"/><path d="M215.62,324.24a30.67,30.67,0,0,1,.15-11.14,15.07,15.07,0,0,1,5.93-9.18c1.17,2.73.67,5.87-.15,8.72A42.62,42.62,0,0,1,215.67,325" transform="translate(0 0.05)" style="fill:#e0e0e0"/><path d="M222.24,336.11a19.44,19.44,0,0,0-10.53,5.33,20,20,0,0,0-6,10.34c4-.25,7.29-3,9.72-6.15s4.11-6.54,6.78-9.46" transform="translate(0 0.05)" style="fill:#e0e0e0"/><path d="M223.68,338a26,26,0,0,1,3-24.57c2.29,8.16,1.45,17.36-3,24.57" transform="translate(0 0.05)" style="fill:#e0e0e0"/><path d="M232.44,348.43a18.79,18.79,0,0,0-18,10.34,1.4,1.4,0,0,0-.12,1.41,1.37,1.37,0,0,0,1.19.35c3.54-.23,6.68-2.36,9.26-4.79s4.85-5.22,7.71-7.32" transform="translate(0 0.05)" style="fill:#e0e0e0"/><path d="M232.16,347.87a33.44,33.44,0,0,1-.34-18.68c.66-2.41,1.77-4.94,4-6.07a.77.77,0,0,1,.61-.1.8.8,0,0,1,.39.44,11.2,11.2,0,0,1,.94,5.36,35.64,35.64,0,0,1-.84,5.43c-.7,3.31-1.08,6.88-2.9,9.74a19,19,0,0,0-1.15,2.13c-.35.73-.35,1-.66,1.56" transform="translate(0 0.05)" style="fill:#e0e0e0"/><path d="M255.33,351.32a24.11,24.11,0,0,1,4.22-19.8c.31-.4.71-.82,1.2-.78.76.07,1,1.08.92,1.85a35.66,35.66,0,0,1-6.34,18.73" transform="translate(0 0.05)" style="fill:#e0e0e0"/><path d="M257.39,352.75A28.84,28.84,0,0,0,281,347.94a19.15,19.15,0,0,0-12.8-1.57c-4.27,1-8.18,2.89-10.84,6.38" transform="translate(0 0.05)" style="fill:#e0e0e0"/><path d="M259.18,348.4A27.33,27.33,0,0,1,280.64,336c-1,3.46-3.82,6.14-7,7.76a38.92,38.92,0,0,1-10.3,3c-1.37.27-3.25.56-4.14,1.64" transform="translate(0 0.05)" style="fill:#e0e0e0"/><path d="M255.77,327.3a62.14,62.14,0,0,0,2.75-12.57,20.9,20.9,0,0,0-2.5-12.42c-4.16,8-4.58,17.41-.37,25.42" transform="translate(0 0.05)" style="fill:#e0e0e0"/><path d="M269.75,320.23c4.85-8.82,14.76-15.87,24.78-16.85-3.87,9.62-14.41,17.06-24.78,16.85" transform="translate(0 0.05)" style="fill:#e0e0e0"/><path d="M266.7,322c7.24,1.1,13.4,5.73,20.17,8.53a9.09,9.09,0,0,0,4.56.88,3.57,3.57,0,0,0,2.23-6.32,9.75,9.75,0,0,0-3.31-2c-7.37-3.07-15.27-3.14-23-1.28" transform="translate(0 0.05)" style="fill:#e0e0e0"/><path d="M262.51,327c1.64.47,2.2,1.32,3.49,2.42a37.81,37.81,0,0,0,15.3,7.86c.59.15,1.35.2,1.64-.32s-.07-1-.39-1.43a21,21,0,0,0-9.24-6.27c-3.53-1.32-6.59-2.9-10.8-2.56" transform="translate(0 0.05)" style="fill:#e0e0e0"/><path d="M257.78,296.37A28.9,28.9,0,0,0,280,303.92a1.47,1.47,0,0,0,1-.36c.56-.61-.11-1.55-.76-2.05-6.52-5.09-14.43-7.2-22.44-5.14" transform="translate(0 0.05)" style="fill:#e0e0e0"/><path d="M263.39,294.32a31,31,0,0,1,27.7-4.57,21.94,21.94,0,0,1-13.2,5.79,41.68,41.68,0,0,1-14.5-1.22" transform="translate(0 0.05)" style="fill:#e0e0e0"/><path d="M261.16,280.23c-.65-6.52-.23-11.66-.68-18.2,0-.52-.15-1.15-.64-1.34-.68-.26-1.25.57-1.47,1.27a20.83,20.83,0,0,0,2.78,18.12" transform="translate(0 0.05)" style="fill:#e0e0e0"/><path d="M260.69,281a38.49,38.49,0,0,0,10.79-10.49c2.13-2.91,3.92-6.41,3.44-10a10.32,10.32,0,0,0-7.78,3.87,21.53,21.53,0,0,0-4,8c-.86,2.87-1.47,5.81-2.48,8.63" transform="translate(0 0.05)" style="fill:#e0e0e0"/><path d="M271.29,278a86.83,86.83,0,0,0,26.55-15.65c-3.17-1.28-6.8-.52-10,.76a31.45,31.45,0,0,0-16.72,14.82" transform="translate(0 0.05)" style="fill:#e0e0e0"/><path d="M263.67,284.51a53.75,53.75,0,0,0,14.72.1c4.78-.8,9.3-2.69,13.77-4.57a1.58,1.58,0,0,0,.93-.71,1.07,1.07,0,0,0-.33-1.18,2.91,2.91,0,0,0-1.18-.55c-4.85-1.36-10.09-.72-14.87.89a68.89,68.89,0,0,0-13.06,6" transform="translate(0 0.05)" style="fill:#e0e0e0"/><path d="M235.68,296.61c-3.35-6.75-3.13-14.62-.24-21.58,2,3.1,2.28,7,1.91,10.73s-1.49,7.48-1.57,11.19" transform="translate(0 0.05)" style="fill:#e0e0e0"/><path d="M222.32,289.86A30.09,30.09,0,0,0,200,299.39a21,21,0,0,0,12.25-2.27,63.12,63.12,0,0,0,10.5-7" transform="translate(0 0.05)" style="fill:#e0e0e0"/><path d="M213.39,286.85c-4.09-.33-8-.83-11.94.37a14.3,14.3,0,0,0-9.11,7.72,21.56,21.56,0,0,0,11.2-2.12,64.28,64.28,0,0,0,9.85-6" transform="translate(0 0.05)" style="fill:#e0e0e0"/><path d="M226.64,287c-3.68-2.41-7.45-4.86-11.73-5.86s-9.24-.26-12.22,3c3.46,2,7.66,2.27,11.68,2.27s8.94,0,12.73,1.29" transform="translate(0 0.05)" style="fill:#e0e0e0"/><path d="M226.66,287.18c-6.28-6.16-8.67-17.25-6.14-25.68a39.14,39.14,0,0,1,6.14,25.68" transform="translate(0 0.05)" style="fill:#e0e0e0"/><path d="M243.93,269.71c1.19-2.76,2-5.65,3.08-8.45a24.14,24.14,0,0,1,4.4-7.79,11.45,11.45,0,0,1,7.78-4,31.39,31.39,0,0,1-15.1,20.31" transform="translate(0 0.05)" style="fill:#e0e0e0"/><path d="M240.81,273.35c-2-2.7-4.23-6.36-6.89-8.38s-6.12-3.23-9.36-2.46a21.83,21.83,0,0,0,16.25,10.84" transform="translate(0 0.05)" style="fill:#e0e0e0"/><path d="M241.39,269.93a47.29,47.29,0,0,1-3.1-10,15.7,15.7,0,0,1,1.57-10.2c3.45,6.52,4.56,13.51,1.71,20.31" transform="translate(0 0.05)" style="fill:#e0e0e0"/><path d="M244,249.69c2-6.46,7.87-11.22,14.26-13.4a5.22,5.22,0,0,1,2.5-.38,2.17,2.17,0,0,1,1.84,1.54c.24,1.1-.67,2.08-1.52,2.81A48.47,48.47,0,0,1,244,249.69" transform="translate(0 0.05)" style="fill:#e0e0e0"/><path d="M244,244.4c.25-4.16.51-8.39,1.87-12.34s4-7.65,7.76-9.37c.65,4.2-1.21,8.39-3.45,12s-4.93,7-6.28,11.08" transform="translate(0 0.05)" style="fill:#e0e0e0"/><path d="M243.93,247.27c-1.61-4.71-1.78-10.69-4.6-14.79-2-2.87-5.13-4.82-6.83-7.86a12,12,0,0,0,.4,8.92,25.73,25.73,0,0,0,5.22,7.47c2.09,2.23,3.87,3.91,5.81,6.26" transform="translate(0 0.05)" style="fill:#e0e0e0"/><path d="M244,386c-.12,0-.23-31.42-.24-70.16s.09-70.17.21-70.17.24,31.41.24,70.17S244.09,386,244,386Z" transform="translate(0 0.05)" style="fill:#e0e0e0"/><path d="M271.39,291.85a6.24,6.24,0,0,1-1.18.45L267,293.39c-2.75.94-6.51,2.29-10.6,4s-7.86,3.15-10,5a7.4,7.4,0,0,0-2,2.67c-.31.74-.37,1.19-.41,1.18a.92.92,0,0,1,0-.33,4,4,0,0,1,.23-.91,7.14,7.14,0,0,1,2-2.85,18.35,18.35,0,0,1,4.36-2.7c1.74-.82,3.67-1.66,5.72-2.51,4.1-1.68,7.89-3,10.67-3.84,1.38-.43,2.51-.75,3.3-1A6.67,6.67,0,0,1,271.39,291.85Z" transform="translate(0 0.05)" style="fill:#e0e0e0"/><path d="M280.39,269.75a2.73,2.73,0,0,1-.33.35l-1,.95-3.77,3.42-12.5,11.14c-4.89,4.35-9.12,8.51-12,11.64-1.46,1.57-2.62,2.86-3.4,3.77l-.91,1a2.73,2.73,0,0,1-.34.34c.08-.14.17-.27.26-.4s.47-.63.85-1.1c.75-.94,1.87-2.27,3.31-3.86a156.79,156.79,0,0,1,12-11.77c4.9-4.34,9.37-8.24,12.61-11.05l3.86-3.31,1.06-.89A2.37,2.37,0,0,1,280.39,269.75Z" transform="translate(0 0.05)" style="fill:#e0e0e0"/><path d="M257.51,290.05c-.13-.06.89-2.42,1.91-5.4s1.51-5.5,1.64-5.48a18.35,18.35,0,0,1-1.21,5.62,36.36,36.36,0,0,1-1.52,3.78A6.49,6.49,0,0,1,257.51,290.05Z" transform="translate(0 0.05)" style="fill:#e0e0e0"/><path d="M244,309.06a5.65,5.65,0,0,1-.75-.87l-1.93-2.48c-1.62-2.09-3.86-5-6.38-8.15s-4.82-6-6.49-8.06c-.79-1-1.45-1.8-2-2.44a6.24,6.24,0,0,1-.68-.94,5.3,5.3,0,0,1,.82.82c.5.55,1.21,1.35,2.08,2.35,1.74,2,4.09,4.82,6.61,8s4.72,6.09,6.28,8.24c.77,1.07,1.39,2,1.81,2.56A4.75,4.75,0,0,1,244,309.06Z" transform="translate(0 0.05)" style="fill:#e0e0e0"/><path d="M238,301.33a10.94,10.94,0,0,1-2.52-4.72,13.45,13.45,0,0,1-.57-4.76h.2c-.09.36-.16.56-.19.55a2.81,2.81,0,0,1,0-.58h.2a21.39,21.39,0,0,0,.81,4.63A34.35,34.35,0,0,0,238,301.33Z" transform="translate(0 0.05)" style="fill:#e0e0e0"/><path d="M230.2,291.61a7.47,7.47,0,0,0-1.76-1,11.55,11.55,0,0,0-4.89-.39,30.38,30.38,0,0,0-4.92.79,15,15,0,0,1-2,.49,6.47,6.47,0,0,1,1.94-.8,23,23,0,0,1,5-.94,10.89,10.89,0,0,1,5,.55A3.08,3.08,0,0,1,230.2,291.61Z" transform="translate(0 0.05)" style="fill:#e0e0e0"/><path d="M228.39,289.19c0,.07-1-.41-2.7-1a27,27,0,0,0-13.59-1c-1.74.31-2.79.64-2.82.56a3.23,3.23,0,0,1,.72-.3,13.83,13.83,0,0,1,2-.57,24,24,0,0,1,13.8,1,16.73,16.73,0,0,1,1.93.87A2.62,2.62,0,0,1,228.39,289.19Z" transform="translate(0 0.05)" style="fill:#e0e0e0"/><path d="M243.93,279.17a55.67,55.67,0,0,1-2-6.83,57.81,57.81,0,0,1-1.52-7,56.34,56.34,0,0,1,2,6.84A55.43,55.43,0,0,1,243.93,279.17Z" transform="translate(0 0.05)" style="fill:#e0e0e0"/><path d="M244.06,279.17a33.39,33.39,0,0,0-2.18-4.09,17.66,17.66,0,0,0-3.21-3.31,2.94,2.94,0,0,1,1.24.64,10.1,10.1,0,0,1,2.34,2.41A9.17,9.17,0,0,1,244.06,279.17Z" transform="translate(0 0.05)" style="fill:#e0e0e0"/><path d="M244,369.21c-.05,0-.14-.75-.49-2.09a30.14,30.14,0,0,0-2.1-5.44A75.45,75.45,0,0,0,230.23,346c-2.49-2.84-4.9-5.52-6.95-8.09a56.3,56.3,0,0,1-5-7.16,34,34,0,0,1-2.51-5.32c-.23-.65-.4-1.16-.5-1.52a2.48,2.48,0,0,1-.12-.54s.26.72.78,2a38,38,0,0,0,2.66,5.25,61.22,61.22,0,0,0,5,7.06c2,2.54,4.47,5.21,7,8.05a72.39,72.39,0,0,1,11.09,15.89,28,28,0,0,1,2,5.54c.12.52.21,1.05.28,1.58A1.93,1.93,0,0,1,244,369.21Z" transform="translate(0 0.05)" style="fill:#e0e0e0"/><path d="M268.77,341.19a11.07,11.07,0,0,1-1.3.73,28.89,28.89,0,0,0-3.37,2.23,38.19,38.19,0,0,0-4.43,4c-1.55,1.64-3.16,3.55-4.79,5.59-3.27,4.1-6.32,7.73-8.15,10.63a29.41,29.41,0,0,0-2,3.49,11.12,11.12,0,0,1-.72,1.31,2.29,2.29,0,0,1,.12-.37c.1-.23.23-.58.44-1a31.8,31.8,0,0,1,1.94-3.59,114,114,0,0,1,8.07-10.74,69.62,69.62,0,0,1,4.84-5.6,35.9,35.9,0,0,1,4.54-4,23.84,23.84,0,0,1,3.48-2.13c.43-.21.78-.34,1-.44A1.42,1.42,0,0,1,268.77,341.19Z" transform="translate(0 0.05)" style="fill:#e0e0e0"/><path d="M269.26,350.28a16.88,16.88,0,0,1-2.75.4A37,37,0,0,0,260,352a19.87,19.87,0,0,0-5.83,3.07,13.5,13.5,0,0,0-2,1.85,2.41,2.41,0,0,1,.41-.64,11,11,0,0,1,1.43-1.46,17.76,17.76,0,0,1,5.9-3.25,29.83,29.83,0,0,1,6.63-1.17A15.58,15.58,0,0,1,269.26,350.28Z" transform="translate(0 0.05)" style="fill:#e0e0e0"/><path d="M252.92,355.88c-.15-.08,1.09-2,2.05-4.52s1.11-4.82,1.28-4.79a4.83,4.83,0,0,1-.05,1.47,15.42,15.42,0,0,1-.8,3.48,16.62,16.62,0,0,1-1.6,3.18A4.23,4.23,0,0,1,252.92,355.88Z" transform="translate(0 0.05)" style="fill:#e0e0e0"/><path d="M276.81,316.79a3.68,3.68,0,0,1-.44.23l-1.29.59a14.93,14.93,0,0,0-2,1c-.74.45-1.68.81-2.63,1.38l-1.5.85c-.52.3-1,.65-1.58,1-1.1.67-2.21,1.5-3.39,2.34a57.9,57.9,0,0,0-13.07,13.53c-.81,1.21-1.59,2.35-2.23,3.47-.32.56-.66,1.09-.94,1.62s-.54,1-.8,1.52c-.53,1-.91,1.89-1.29,2.68s-.66,1.48-.89,2.05-.39,1-.54,1.31a1.88,1.88,0,0,1-.22.45,2.9,2.9,0,0,1,.14-.48c.12-.35.27-.8.46-1.34s.46-1.29.82-2.1.72-1.73,1.24-2.71l.73-1.57c.28-.54.61-1.07.93-1.64.62-1.14,1.4-2.29,2.2-3.52a56.24,56.24,0,0,1,13.17-13.62c1.2-.84,2.32-1.66,3.44-2.32.56-.34,1.08-.69,1.61-1l1.52-.84c1-.55,1.88-.94,2.67-1.32a21.14,21.14,0,0,1,2.07-.89l1.32-.51A1.41,1.41,0,0,1,276.81,316.79Z" transform="translate(0 0.05)" style="fill:#e0e0e0"/><path d="M257.17,329.94a3.13,3.13,0,0,1,1.08-1.61,6.82,6.82,0,0,1,4.35-1.66,12,12,0,0,1,4.58.89,6.16,6.16,0,0,1,1.73.84,11.76,11.76,0,0,1-1.84-.54,13.76,13.76,0,0,0-4.45-.74,7,7,0,0,0-4.16,1.46A13.82,13.82,0,0,0,257.17,329.94Z" transform="translate(0 0.05)" style="fill:#e0e0e0"/><path d="M254.24,333a11.69,11.69,0,0,0,1-8.21,2.62,2.62,0,0,1,.51,1.17A8.35,8.35,0,0,1,256,329,8.06,8.06,0,0,1,255,332,3.45,3.45,0,0,1,254.24,333Z" transform="translate(0 0.05)" style="fill:#e0e0e0"/><path d="M222.27,373.71c.67,12,4.29,24.22,9.86,36.57h24.19c5.31-12.23,8.68-24.42,9.28-36.57Z" transform="translate(0 0.05)" style="fill:#e0e0e0"/><path d="M261.68,393.14c0,.13-8,.23-17.8.23s-17.79-.1-17.79-.23,8-.23,17.79-.23S261.68,393,261.68,393.14Z" transform="translate(0 0.05)" style="fill:#fafafa"/><path d="M261.14,397.49c0,.13-7.47.23-16.69.23s-16.68-.1-16.68-.23,7.47-.23,16.68-.23S261.14,397.37,261.14,397.49Z" transform="translate(0 0.05)" style="fill:#fafafa"/><path d="M232.52,381.61a71.43,71.43,0,0,1,0,11.14A66.84,66.84,0,0,1,232.52,381.61Z" transform="translate(0 0.05)" style="fill:#fafafa"/><path d="M245.48,381.61a71.71,71.71,0,0,1,0,11.54A71.71,71.71,0,0,1,245.48,381.61Z" transform="translate(0 0.05)" style="fill:#fafafa"/><path d="M257.65,381.5a74.6,74.6,0,0,1,0,11.77A79.73,79.73,0,0,1,257.65,381.5Z" transform="translate(0 0.05)" style="fill:#fafafa"/><path d="M264.83,381.61c0,.12-9.35.22-20.87.22s-20.87-.1-20.87-.22,9.34-.23,20.87-.23S264.83,381.47,264.83,381.61Z" transform="translate(0 0.05)" style="fill:#fafafa"/></g><g id="freepik--Floor--inject-2"><path d="M667.94,410c0,.14-147.56.26-329.53.26S8.84,410.16,8.84,410s147.55-.26,329.55-.26S667.94,409.88,667.94,410Z" transform="translate(0 0.05)" style="fill:#263238"/></g><g id="freepik--plant-2--inject-2"><path d="M657.17,249.61c-8.36,4.33-14.78,11.79-19.39,20s-7.59,17.23-10.53,26.18L624.67,342c9.74-16.57,17.55-36,19.66-55.13l-6.48-.57c4.34-.67,8-3.81,10.31-7.54s3.51-8,4.68-12.27l-7.9,1.17A29.27,29.27,0,0,0,657.17,249.61Z" transform="translate(0 0.05)" style="fill:#455a64"/><g style="opacity:0.30000001192092896"><path d="M657.17,249.61c-8.36,4.33-14.78,11.79-19.39,20s-7.59,17.23-10.53,26.18L624.67,342c9.74-16.57,17.55-36,19.66-55.13l-6.48-.57c4.34-.67,8-3.81,10.31-7.54s3.51-8,4.68-12.27l-7.9,1.17A29.27,29.27,0,0,0,657.17,249.61Z" transform="translate(0 0.05)"/></g><path d="M623.23,352.76s-21.13-25.29-20.84-49.43h8.53s-9.27-6.1-8.54-9.51,1-16.34,1-16.34l7.8,1.95s-5.85-2.93-6.58-7.56,1.71-26.09,1.71-26.09,9.51,10,12.43,20.24,10.61,22.19,8.36,53.4S623.23,352.76,623.23,352.76Z" transform="translate(0 0.05)" style="fill:#455a64"/><path d="M633.94,355.15s22.89-15.25,28-34.71l-6.88-1.83s8.78-2.87,8.94-5.78,2.79-13.35,2.79-13.35l-6.7-.14s5.34-1.07,6.95-4.64,4.35-21.39,4.35-21.39-9.83,6-14.42,13.55-13.39,15.52-18.4,41.11S633.94,355.15,633.94,355.15Z" transform="translate(0 0.05)" style="fill:#455a64"/><path d="M612,267.83a.79.79,0,0,1,.08.26l.19.78c.17.72.39,1.72.68,3,.59,2.61,1.37,6.39,2.27,11.09s1.87,10.29,2.85,16.53,1.91,13.12,2.76,20.35,1.47,14.16,2,20.46.81,12,1,16.74.31,8.64.33,11.31v3.87a1.31,1.31,0,0,1,0,.28,1.31,1.31,0,0,1,0-.28v-.79c0-.75-.07-1.77-.12-3.08-.08-2.66-.24-6.52-.48-11.29s-.62-10.43-1.11-16.73-1.17-13.19-2-20.43-1.78-14.1-2.71-20.34S615.88,287.72,615,283s-1.58-8.49-2.11-11.1c-.24-1.28-.44-2.29-.58-3-.06-.32-.1-.58-.14-.79A1.11,1.11,0,0,1,612,267.83Z" transform="translate(0 0.05)" style="fill:#263238"/><path d="M620.3,368.25S601,346.31,595,333.05l4.53-1.94c-3.28.54-6.65-.87-9.2-3a35.38,35.38,0,0,1-6.25-7.75l6-1a22.17,22.17,0,0,1-13-10.1c7,1.16,13.42,5,18.67,9.86A92.89,92.89,0,0,1,607,332.23a44.44,44.44,0,0,1,4.4,7.23C614.6,346.16,620.31,360.19,620.3,368.25Z" transform="translate(0 0.05)" style="fill:#455a64"/><path d="M662.22,286.08a.63.63,0,0,1-.08.23c-.08.15-.18.38-.29.64l-1.17,2.44c-1,2.11-2.49,5.17-4.26,9-3.55,7.6-8.23,18.22-12.85,30.16s-8.3,22.95-10.79,31c-1.25,4-2.23,7.26-2.88,9.51l-.78,2.59-.22.67a.92.92,0,0,1-.09.23,1,1,0,0,1,0-.24,3.22,3.22,0,0,1,.17-.68c.17-.64.39-1.52.68-2.62.6-2.27,1.53-5.54,2.73-9.57,2.4-8,6-19.08,10.65-31s9.37-22.56,13-30.13c1.82-3.79,3.33-6.83,4.42-8.91.53-1,.95-1.81,1.25-2.4l.34-.62A1.11,1.11,0,0,1,662.22,286.08Z" transform="translate(0 0.05)" style="fill:#263238"/><path d="M621.94,377.61a9.28,9.28,0,0,1-.31-1.57c-.15-1-.41-2.47-.77-4.26a86.29,86.29,0,0,0-10-26.59c-.91-1.58-1.68-2.85-2.24-3.71a10.54,10.54,0,0,1-.8-1.38,9.47,9.47,0,0,1,1,1.27c.61.83,1.43,2.07,2.39,3.63a80.92,80.92,0,0,1,10,26.75c.32,1.81.52,3.28.61,4.31A8,8,0,0,1,621.94,377.61Z" transform="translate(0 0.05)" style="fill:#263238"/><rect x="605.13" y="372.54" width="42.32" height="8.63" style="fill:#c5d21e"/><polygon points="609.17 381.17 613.75 410.21 639.32 410.21 643.58 381.17 609.17 381.17" style="fill:#c5d21e"/><path d="M644.86,381.12c0,.14-8,.26-17.88.26s-17.88-.12-17.88-.26,8-.26,17.88-.26S644.86,381,644.86,381.12Z" transform="translate(0 0.05)" style="fill:#263238"/></g><g id="freepik--plant-1--inject-2"><path d="M52.49,384.28s-3.78-26-3.46-41.06,0-32.1,0-32.1h1.74s-1.18,30,.1,48.06,4.66,25.1,4.66,25.1h-3" transform="translate(0 0.05)" style="fill:#263238"/><path d="M63.74,281.91a4.58,4.58,0,0,0-1.59-2.3,4.42,4.42,0,0,0-3.76,0c-5.26,1.86-9.92,11.66-12,16.82l7,23.51C65.9,308.27,68.08,292.93,63.74,281.91Z" transform="translate(0 0.05)" style="fill:#455a64"/><path d="M61.74,280.54a1.12,1.12,0,0,1-.1.31l-.34.86c-.31.74-.73,1.81-1.25,3.15-1,2.67-2.34,6.4-3.51,10.61a107.26,107.26,0,0,0-2.46,10.9c-.25,1.41-.44,2.55-.55,3.35-.07.37-.11.67-.15.91a1.55,1.55,0,0,1-.07.31.86.86,0,0,1,0-.32c0-.24.06-.55.09-.92.09-.8.25-1.95.47-3.36a100.25,100.25,0,0,1,6-21.55c.54-1.33,1-2.4,1.34-3.13l.39-.83A1.55,1.55,0,0,1,61.74,280.54Z" transform="translate(0 0.05)" style="fill:#263238"/><path d="M50.2,325.61a21.27,21.27,0,0,1-10.75-17.9c-.26-5.22,1.35-10.34,3.16-15.24a2,2,0,0,1,.74-1.1,1.89,1.89,0,0,1,1.79.27c4.75,2.71,7.63,7.87,9.16,13.12a26.63,26.63,0,0,1,1.09,10.79,17.93,17.93,0,0,1-5.18,10" transform="translate(0 0.05)" style="fill:#455a64"/><path d="M50.2,325.61a1.61,1.61,0,0,1,0-.31v-.91c0-.78,0-1.91-.1-3.31a90,90,0,0,0-1.21-10.86c-.73-4.22-1.61-8-2.26-10.72l-.77-3.22-.2-.88a.86.86,0,0,1,0-.32,1.76,1.76,0,0,1,.1.3c.07.23.15.52.26.87.21.75.51,1.85.86,3.21.7,2.71,1.61,6.48,2.34,10.71a79.65,79.65,0,0,1,1.17,10.9v4.23A2,2,0,0,1,50.2,325.61Z" transform="translate(0 0.05)" style="fill:#263238"/><g style="opacity:0.30000001192092896"><path d="M50.2,325.61a21.27,21.27,0,0,1-10.75-17.9c-.26-5.22,1.35-10.34,3.16-15.24a2,2,0,0,1,.74-1.1,1.89,1.89,0,0,1,1.79.27c4.75,2.71,7.63,7.87,9.16,13.12a26.63,26.63,0,0,1,1.09,10.79,17.93,17.93,0,0,1-5.18,10" transform="translate(0 0.05)"/></g><path d="M57.58,365.31c6.44,1.42,11.74,6,18,8.17,4.11,1.46,8.75,2,12,4.85-.79-2-2.66-3.31-4.47-4.45a79.65,79.65,0,0,0-16.27-7.76c-2.93-1-6.1-1.86-9.07-1" transform="translate(0 0.05)" style="fill:#455a64"/><path d="M48.27,371.05c-8.06-.13-16.55-7-24.58-7.41,8.4-2.71,20.43-.49,24.58,7.41" transform="translate(0 0.05)" style="fill:#455a64"/><path d="M51.39,351.71a26.11,26.11,0,0,1,12.89-.88,78.24,78.24,0,0,1,12.58,3.42c-.41-2.8-2.68-4.9-4.81-6.76a32.39,32.39,0,0,0-5-3.89A11.3,11.3,0,0,0,61,341.89a9.55,9.55,0,0,0-6.69,3.37,11.07,11.07,0,0,0-2.91,6.45" transform="translate(0 0.05)" style="fill:#455a64"/><path d="M34.88,342.8c-5.08-4.33-12.77-3.91-19.44-3.76a158.36,158.36,0,0,1,30.14,18.79C45.85,353.11,41.29,348.28,34.88,342.8Z" transform="translate(0 0.05)" style="fill:#455a64"/><g style="opacity:0.30000001192092896"><path d="M34.88,342.8c-5.08-4.33-12.77-3.91-19.44-3.76a158.36,158.36,0,0,1,30.14,18.79C45.85,353.11,41.29,348.28,34.88,342.8Z" transform="translate(0 0.05)"/></g><path d="M53.71,336.82a57.24,57.24,0,0,1,7.8-4.54c2.68-1.21,5.17-3.14,7.75-4.54,3.35-1.81,6.24-4.33,9.32-6.58s6.44-4.27,10.2-4.87a20.14,20.14,0,0,0-9.29.54,59.44,59.44,0,0,0-8.74,3.4c-4,1.78-8,3.61-11.22,6.51s-6.16,5.75-5.82,10.08" transform="translate(0 0.05)" style="fill:#455a64"/><path d="M75.39,371.05a.85.85,0,0,1-.26-.11l-.74-.33c-.61-.32-1.48-.8-2.58-1.35-.54-.29-1.14-.59-1.8-.89s-1.35-.64-2.09-1a30.48,30.48,0,0,0-5-1.73,10.65,10.65,0,0,0-5.17-.13,14.91,14.91,0,0,0-2.19.65,11.15,11.15,0,0,0-4,2.75c-.47.5-.7.8-.72.79l.15-.24a7.57,7.57,0,0,1,.49-.63,9.83,9.83,0,0,1,2.19-1.93,10.79,10.79,0,0,1,1.79-1,14.27,14.27,0,0,1,2.22-.69,10.69,10.69,0,0,1,5.3.11,28.53,28.53,0,0,1,5,1.76c.74.33,1.44.66,2.09,1s1.25.63,1.79.93c1.09.58,1.94,1.08,2.54,1.44l.67.41A1.29,1.29,0,0,1,75.39,371.05Z" transform="translate(0 0.05)" style="fill:#263238"/><path d="M42.26,367.05a2.15,2.15,0,0,1,.51.15,10.17,10.17,0,0,1,1.31.57,16,16,0,0,1,6.74,6.47,12.72,12.72,0,0,1,.62,1.29,1.85,1.85,0,0,1,.17.5s-.35-.66-1-1.68a18.25,18.25,0,0,0-2.91-3.64A18.79,18.79,0,0,0,44,368C42.94,367.37,42.24,367.1,42.26,367.05Z" transform="translate(0 0.05)" style="fill:#263238"/><path d="M24.39,342.4a1.33,1.33,0,0,1,.34.1l1,.34,1.53.57c.59.22,1.24.54,2,.87A47.08,47.08,0,0,1,39.76,351a53,53,0,0,1,4.89,4.82,54.8,54.8,0,0,1,3.48,4.41c.92,1.3,1.61,2.39,2.09,3.14l.55.86a1.92,1.92,0,0,1,.18.31l-.22-.27c-.14-.19-.35-.47-.6-.84-.51-.73-1.23-1.8-2.17-3.08s-2.12-2.77-3.51-4.35a52.43,52.43,0,0,0-4.88-4.78,48.94,48.94,0,0,0-10.4-6.72c-.72-.33-1.36-.67-2-.91l-1.5-.6-1-.4Z" transform="translate(0 0.05)" style="fill:#263238"/><path d="M63.52,347.17a2.74,2.74,0,0,1-.64-.08l-.74-.14a4.19,4.19,0,0,1-1-.09,10,10,0,0,0-8.06,3,10.75,10.75,0,0,0-1.62,2,17.74,17.74,0,0,0-1.07,2.08,2.24,2.24,0,0,1,.16-.63,10.59,10.59,0,0,1,.77-1.59,11.17,11.17,0,0,1,1.58-2.11,9.94,9.94,0,0,1,2.57-1.94,9.78,9.78,0,0,1,5.7-1c.37.05.71.06,1,.13l.74.19A3.28,3.28,0,0,1,63.52,347.17Z" transform="translate(0 0.05)" style="fill:#263238"/><path d="M71.63,322l-.31.19-.9.49c-.78.42-1.9,1-3.27,1.85s-3,1.82-4.67,3a38.87,38.87,0,0,0-5.22,4.37,13,13,0,0,0-2.13,2.76c-.53,1-1,2-1.5,2.93a55.1,55.1,0,0,0-2.24,5.1,30.42,30.42,0,0,0-1.09,3.6c-.21.86-.28,1.34-.31,1.34a2.16,2.16,0,0,1,0-.36,6.74,6.74,0,0,1,.17-1,26.71,26.71,0,0,1,1-3.63,49.51,49.51,0,0,1,2.23-5.12c.46-.95,1-1.93,1.49-2.95a13,13,0,0,1,2.17-2.83,37.53,37.53,0,0,1,5.27-4.39c1.73-1.21,3.35-2.2,4.73-3s2.52-1.38,3.32-1.77l.93-.44A1.22,1.22,0,0,1,71.63,322Z" transform="translate(0 0.05)" style="fill:#263238"/><path d="M49,346.45a3.2,3.2,0,0,1-.16-.68l-.35-1.87a48.42,48.42,0,0,0-3.83-11.85l-.79-1.72a5.18,5.18,0,0,1-.26-.65,2.28,2.28,0,0,1,.36.6c.22.39.52,1,.87,1.68a39.94,39.94,0,0,1,3.85,11.91c.12.79.21,1.43.26,1.88A3.3,3.3,0,0,1,49,346.45Z" transform="translate(0 0.05)" style="fill:#263238"/><path d="M48.39,328.1a21.66,21.66,0,0,0-2.62-8.7,28.71,28.71,0,0,0-19.48-14.53l18,26.88,2.33,4.79A13.75,13.75,0,0,0,48.39,328.1Z" transform="translate(0 0.05)" style="fill:#455a64"/><rect x="32.37" y="381.12" width="41.93" height="7.43" style="fill:#c5d21e"/><polygon points="35.5 387.08 39.07 410.14 66.91 410.14 71.17 387.08 35.5 387.08" style="fill:#c5d21e"/><path d="M74.28,388.51c0,.08-9.46.15-21.12.15S32,388.59,32,388.51s9.46-.15,21.13-.15S74.28,388.43,74.28,388.51Z" transform="translate(0 0.05)" style="fill:#263238"/></g><g id="freepik--character-3--inject-2"><path d="M504.77,177.61a68.1,68.1,0,0,1,1.31-11.56,23.72,23.72,0,0,1,5-10.42c.39-.44,3.36-3.28,3.89-3s-1.87,3-1.81,3.45a20,20,0,0,1-2.08,11.7,52.73,52.73,0,0,1-6.3,9.86" transform="translate(0 0.05)" style="fill:#263238"/><path d="M517.39,205.61c1-2.53,1.85-4.53,1.85-4.53s9.15,2.49,13.08-6c1.89-4.1,5.11-12.87,7.94-20.84a17.47,17.47,0,0,0-9.32-21.76l-.83-.37c-9.12-3.46-17.16,2.36-20.37,11.58l-12.23,31.92,3.35,9.75a8.81,8.81,0,0,0,16.55.33Z" transform="translate(0 0.05)" style="fill:#ffbf9d"/><path d="M519.25,201.09a22.74,22.74,0,0,1-9.66-8.27s-.06,7.43,8.81,10.47Z" transform="translate(0 0.05)" style="fill:#ff9a6c"/><path d="M532,180.36a1.33,1.33,0,0,1-1.72.7,1.28,1.28,0,0,1-.79-1.62h0a1.34,1.34,0,0,1,1.73-.71,1.28,1.28,0,0,1,.77,1.64h0Z" transform="translate(0 0.05)" style="fill:#263238"/><path d="M536.85,176.93c-.23.09-.85-1-2.16-1.59s-2.57-.36-2.64-.59.24-.32.8-.43a3.7,3.7,0,0,1,2.2.26,3.63,3.63,0,0,1,1.63,1.47C536.94,176.54,537,176.89,536.85,176.93Z" transform="translate(0 0.05)" style="fill:#263238"/><path d="M520.85,175.87a1.33,1.33,0,0,1-1.72.7,1.28,1.28,0,0,1-.79-1.62h0a1.34,1.34,0,0,1,1.73-.71,1.28,1.28,0,0,1,.77,1.64h0Z" transform="translate(0 0.05)" style="fill:#263238"/><path d="M524.39,171.92c-.22.09-.84-1-2.16-1.59s-2.57-.36-2.64-.58.24-.33.8-.44a3.63,3.63,0,0,1,2.2.27,3.48,3.48,0,0,1,1.64,1.51C524.51,171.53,524.51,171.88,524.39,171.92Z" transform="translate(0 0.05)" style="fill:#263238"/><path d="M523.94,183.9a10.06,10.06,0,0,1,2.3.57c.35.12.7.19.86,0a1.87,1.87,0,0,0,.22-1.09c0-1,.1-2,.15-3,.25-4.25.59-7.69.76-7.68s.11,3.47-.14,7.72c-.07,1.05-.13,2-.2,3a2.15,2.15,0,0,1-.41,1.39,1,1,0,0,1-.77.24,2.64,2.64,0,0,1-.61-.17A9,9,0,0,1,523.94,183.9Z" transform="translate(0 0.05)" style="fill:#263238"/><path d="M526.25,167.44c-.34.25-1.43-.7-3-1.47s-2.9-1.15-2.9-1.56c0-.2.42-.37,1.09-.38a5.42,5.42,0,0,1,2.49.64,5.57,5.57,0,0,1,2,1.67C526.39,166.89,526.39,167.32,526.25,167.44Z" transform="translate(0 0.05)" style="fill:#263238"/><path d="M538.51,172.16c-.36.19-1.13-.52-2.21-1s-2.1-.7-2.17-1.11c0-.19.25-.43.78-.53a3.46,3.46,0,0,1,2,.32,3.39,3.39,0,0,1,1.5,1.4C538.69,171.69,538.68,172.09,538.51,172.16Z" transform="translate(0 0.05)" style="fill:#263238"/><path d="M507.61,170.3c-.12-.13-5.1-4.37-7.53,1.56s4,7.14,4.11,7S507.61,170.3,507.61,170.3Z" transform="translate(0 0.05)" style="fill:#ffbf9d"/><path d="M503.3,175.85H503a1.12,1.12,0,0,1-.78-.3,2.8,2.8,0,0,1-.25-2.78,3.64,3.64,0,0,1,.9-1.36,1.26,1.26,0,0,1,1.1-.47.56.56,0,0,1,.49.53c0,.2-.07.3,0,.32s.17,0,.22-.31a.73.73,0,0,0-.08-.46.87.87,0,0,0-.51-.39,1.59,1.59,0,0,0-1.46.48,3.64,3.64,0,0,0-1,1.5,2.92,2.92,0,0,0,.45,3.18,1.2,1.2,0,0,0,1,.23C503.25,176,503.31,175.87,503.3,175.85Z" transform="translate(0 0.05)" style="fill:#ff9a6c"/><path d="M540.39,162.81c1.17-.15-.47-4.42-2.41-6.44-2.93-3-8-6.23-11.66-6.61-4.42-.46-8.5.19-11.94,3a25.18,25.18,0,0,0-7.4,10.9,7.63,7.63,0,0,0-.61,4c.31,1.64,1.57,3.11.77,4.9a2.68,2.68,0,0,0-.1,2.06c.62,1.59,2.39,1,3.44.19,2.23-1.81,3.49-4.53,4.67-7.16a18.89,18.89,0,0,0,1.89-5.8c.1-1.11,0-2.23.17-3.33a3.88,3.88,0,0,1,1.61-2.81,4.48,4.48,0,0,1,.68-.29,6.64,6.64,0,0,1,6.62,1.29c2.88,2.52,7.89,6.57,9.84,6a9.86,9.86,0,0,0,3.74-1.63Z" transform="translate(0 0.05)" style="fill:#263238"/><path d="M524.12,188.61c0,.11-.34.22-.89.14a3.76,3.76,0,0,1-3-2.77c-.12-.54,0-.89.07-.9a10.25,10.25,0,0,0,1.63,2.08C523,188.09,524.13,188.35,524.12,188.61Z" transform="translate(0 0.05)" style="fill:#263238"/><path d="M526.92,137.16a50.61,50.61,0,0,1-3.67,6.23,51.46,51.46,0,0,1-4.11,5.94,49.76,49.76,0,0,1,3.67-6.22A50.73,50.73,0,0,1,526.92,137.16Z" transform="translate(0 0.05)" style="fill:#ff9a6c"/><path d="M501,321.52l18.6,17.66s-9,60.29-7.42,60.4l22.25,1.58s13.4-69.78,12.39-73.87S513.28,291,513.28,291l-.4-5.53-9.24-1.23Z" transform="translate(0 0.05)" style="fill:#263238"/><path d="M466,297.38c1.8,4.07,4.8,8.9,5.42,13l11.33,41.23-40.37,49,18,15.09s48.61-52.46,50.3-58.92c1.35-5.15-4.08-57-4.08-57l1.78-14.8-42-10v.07A26.57,26.57,0,0,0,466,297.38Z" transform="translate(0 0.05)" style="fill:#263238"/><path d="M469.79,401.86l-13,15s10,17.67,7.9,20.67l-28.41-23,19.38-24.2Z" transform="translate(0 0.05)" style="fill:#263238"/><path d="M449,408.47a1.57,1.57,0,0,0-1.93.74,1.43,1.43,0,0,0,.61,1.91,1.69,1.69,0,0,0,2-.8,1.48,1.48,0,0,0-.86-1.9h0" transform="translate(0 0.05)" style="fill:#e0e0e0"/><path d="M436.25,414.52l2-2.36,26.47,23s.8,1.61-.1,2.43Z" transform="translate(0 0.05)" style="fill:#455a64"/><path d="M457.39,417.09c-.13.14-.87-.35-1.94-.44s-1.92.24-2,.08.81-.84,2.09-.72S457.49,417,457.39,417.09Z" transform="translate(0 0.05)" style="fill:#fff"/><path d="M459.25,420.83c-.08.17-.88-.07-1.85.17s-1.64.78-1.78.66.45-1,1.67-1.29S459.39,420.69,459.25,420.83Z" transform="translate(0 0.05)" style="fill:#fff"/><path d="M457.93,426c-.15-.07.25-1,1.25-1.48s1.91-.3,1.87-.13-.78.27-1.6.7S458.08,426.09,457.93,426Z" transform="translate(0 0.05)" style="fill:#fff"/><path d="M460,413.37c-.16.09-.63-.63-1.46-1.21s-1.66-.81-1.63-1,1-.23,2,.47S460.13,413.31,460,413.37Z" transform="translate(0 0.05)" style="fill:#fff"/><path d="M533.49,389l-.24,20.25s19.43,7.14,19.73,10.89l-37.24.76-.84-31.57Z" transform="translate(0 0.05)" style="fill:#263238"/><path d="M521.69,407.76a1.59,1.59,0,0,0-1,1.85,1.47,1.47,0,0,0,1.74,1.08,1.7,1.7,0,0,0,1.06-2,1.51,1.51,0,0,0-1.91-.93h0" transform="translate(0 0.05)" style="fill:#e0e0e0"/><path d="M515.73,420.88v-3.19l35.69.46s1.68.73,1.52,2Z" transform="translate(0 0.05)" style="fill:#455a64"/><path d="M533.84,409c0,.19-.91.29-1.79.93s-1.34,1.45-1.51,1.38.08-1.19,1.16-1.94S533.87,408.84,533.84,409Z" transform="translate(0 0.05)" style="fill:#fff"/><path d="M537.78,410.61c.05.19-.73.53-1.33,1.35s-.76,1.69-1,1.68-.32-1.08.45-2.09S537.77,410.46,537.78,410.61Z" transform="translate(0 0.05)" style="fill:#fff"/><path d="M540.11,415.53c-.17,0-.44-.91,0-2s1.29-1.5,1.37-1.34-.44.73-.79,1.61A13,13,0,0,1,540.11,415.53Z" transform="translate(0 0.05)" style="fill:#fff"/><path d="M533.39,404.39c-.07.18-.91-.07-1.94,0s-1.82.45-1.92.29.66-.87,1.87-1S533.49,404.24,533.39,404.39Z" transform="translate(0 0.05)" style="fill:#fff"/><path d="M506.93,296.3a3.41,3.41,0,0,1,.1.54c.05.41.11.92.19,1.55.16,1.34.36,3.29.59,5.7.46,4.82,1,11.49,1.49,18.87s.87,14,1.18,18.88c.13,2.36.24,4.3.32,5.73l.06,1.56a2.44,2.44,0,0,1,0,.54,1.65,1.65,0,0,1-.09-.54c0-.41-.1-.92-.17-1.55-.12-1.42-.28-3.36-.48-5.71-.38-4.83-.83-11.51-1.33-18.88s-1-14-1.33-18.87c-.18-2.35-.32-4.29-.43-5.71,0-.63-.07-1.15-.1-1.56A2.53,2.53,0,0,1,506.93,296.3Z" transform="translate(0 0.05)" style="fill:#455a64"/><path d="M515.19,250.35a7.41,7.41,0,0,1,.09-1.49c.1-1,.23-2.41.38-4,.32-3.41.69-8.13.9-13.35s.2-10,.16-13.38c0-1.64-.05-3-.07-4.06a9.27,9.27,0,0,1,0-1.49,7.38,7.38,0,0,1,.17,1.48c.08,1,.16,2.34.23,4.06.15,3.43.2,8.17,0,13.41s-.64,10-1,13.36c-.21,1.71-.4,3.08-.55,4A8.07,8.07,0,0,1,515.19,250.35Z" transform="translate(0 0.05)" style="fill:#263238"/><path d="M499.67,189.39c-.91.51-17.92,8.82-21.53,12.88S469,232.39,469,232.39l-4.06,23.07-3.17,34.26,53.15.6c2.1-4.69.73-9.56-1.75-14.48l4.13-54.2L516.59,209Z" transform="translate(0 0.05)" style="fill:#455a64"/><path d="M476.83,217s-8.93-3.81-9.84-9.47.2-7.16,1.69-9.55,28.71-31.37,28.71-31.37l13.27,10.91-19.17,22.54s2.83.43,1.89,4" transform="translate(0 0.05)" style="fill:#455a64"/><path d="M493.33,204.14a10.88,10.88,0,0,0,.13-1.28,2.93,2.93,0,0,0-.37-1.48,2.52,2.52,0,0,0-1.67-1.15h-.18l.12-.14,19-22.67v.34l-13.28-10.9h.35l-5,5.4-15.7,16.83c-2.39,2.62-4.67,5.1-6.73,7.48a14.86,14.86,0,0,0-2.5,3.73,8.86,8.86,0,0,0-.72,4,18.22,18.22,0,0,0,.45,3.75,7.83,7.83,0,0,0,1.52,2.95,17.67,17.67,0,0,0,4,3.62,30.38,30.38,0,0,0,3,1.78l.79.42a1.17,1.17,0,0,1,.27.15,1,1,0,0,1-.29-.1l-.82-.37a28.64,28.64,0,0,1-3-1.71,17.74,17.74,0,0,1-4.12-3.61,8.24,8.24,0,0,1-1.61-3,18.36,18.36,0,0,1-.5-3.83,9.41,9.41,0,0,1,.73-4.19,15.58,15.58,0,0,1,2.53-3.84c2.06-2.4,4.32-4.89,6.71-7.52,4.77-5.24,10.07-11,15.65-16.94l5-5.39.17-.18.18.16,13.26,10.92.19.16-.16.18-19.27,22.5-.07-.17a2.62,2.62,0,0,1,1.78,1.27,3,3,0,0,1,.34,1.56,4.82,4.82,0,0,1-.14,1A1.23,1.23,0,0,1,493.33,204.14Z" transform="translate(0 0.05)" style="fill:#263238"/><path d="M499.13,143.39s-1.56-1.23-1.88,1.38,2.17,13,2.47,13,1.84,6,1.6,6.82a18.31,18.31,0,0,1-2.51,3.3l10.58,8.72,3.27-5.9a13.81,13.81,0,0,0,6.2-4.84c2.39-3.51,11.45-16.86,11.71-18.73s-1.63-2.12-3-.33-4.55,6-5.12,6.27-.91-.54-.6-1,6.26-10,6.82-11.78c.75-2.35-1.8-2.84-1.8-2.84s.89-2.48-.42-3-2.59.8-4,2.91-6.2,9-6.7,9.32-.89,0-.45-.94,6.25-9.38,6.23-10.57-.89-3.07-3.37-.56-8,13-8.85,13.9S506,152.34,505,152s-3.28-3.34-3.79-5.48A5.15,5.15,0,0,0,499.13,143.39Z" transform="translate(0 0.05)" style="fill:#ffbf9d"/><path d="M499.13,143.39a3.73,3.73,0,0,1,1,.94,5.35,5.35,0,0,1,.84,1.49c.13.32.2.68.32,1a7.52,7.52,0,0,0,.48,1.13,13,13,0,0,0,1.59,2.43c.64.72,1.57,2.09,2.64,1a22.26,22.26,0,0,0,2.88-2.78,9.48,9.48,0,0,0,1.23-1.79l1.18-2c1.61-2.76,3.31-5.84,5.5-9a9.82,9.82,0,0,1,2-2.17,2.39,2.39,0,0,1,1.51-.54,1.51,1.51,0,0,1,1.2,1.13,3.73,3.73,0,0,1,.15.81,2.36,2.36,0,0,1-.08.45l-.15.38c-.22.48-.47.94-.72,1.41-.52.92-1.08,1.82-1.65,2.74l-3.55,5.6a1.39,1.39,0,0,0-.24.68c0,.11,0,.14.06.15a.26.26,0,0,0,.21,0l.1-.1.14-.16c.09-.1.17-.22.26-.33l.52-.68c.69-.94,1.38-1.89,2.06-2.86l4.16-6A10.07,10.07,0,0,1,524,134.9a2.76,2.76,0,0,1,1.83-.83,1.47,1.47,0,0,1,1,.38,1.57,1.57,0,0,1,.43,1,5,5,0,0,1-.29,2l-.19-.34a2.74,2.74,0,0,1,2,1.47,3,3,0,0,1-.3,2.44c-.7,1.43-1.5,2.78-2.3,4.16l-2.48,4.13-1.28,2.08-.33.51-.15.25a.33.33,0,0,0-.06.19.41.41,0,0,0,.11.35.23.23,0,0,0,.27,0,3.64,3.64,0,0,0,.45-.43l.47-.53.91-1.11c.58-.76,1.17-1.51,1.75-2.26s1.1-1.51,1.78-2.26a3.18,3.18,0,0,1,1.29-.81,1.37,1.37,0,0,1,1.55.42,1.84,1.84,0,0,1,.2,1.55,4.12,4.12,0,0,1-.27.69c-.1.22-.2.44-.31.64-.43.83-.9,1.63-1.38,2.41-.94,1.57-1.92,3.11-2.89,4.61q-2.93,4.51-5.8,8.72c-.48.7-.92,1.4-1.44,2.08a14.41,14.41,0,0,1-1.74,1.84,14.81,14.81,0,0,1-4.2,2.55l.13-.11-3.28,5.92-.13.23-.2-.16L498.64,168l-.16-.12.14-.15a30,30,0,0,0,2-2.36c.14-.2.27-.41.39-.62a1,1,0,0,0,.12-.62,13.47,13.47,0,0,0-.2-1.42c-.18-.94-.39-1.84-.62-2.71-.11-.43-.23-.86-.36-1.27q-.1-.31-.21-.6a.58.58,0,0,0-.12-.25h0a.29.29,0,0,1-.15-.09h0l-.07-.17a45.19,45.19,0,0,1-1.17-4.58c-.3-1.41-.55-2.71-.74-3.89-.35-2.32-.65-4.25-.06-5.44a1.1,1.1,0,0,1,.61-.57.91.91,0,0,1,.61,0,1.12,1.12,0,0,1,.42.25,1.93,1.93,0,0,0-.44-.2,1.06,1.06,0,0,0-.56,0,.94.94,0,0,0-.55.54c-.53,1.14-.21,3,.17,5.36a71.06,71.06,0,0,0,2,8.39l.06.12h0s-.09,0-.09.06v-.09h.1v.05a2,2,0,0,1,.17.32c.08.21.15.42.22.63.13.42.26.84.38,1.28.23.87.45,1.78.64,2.73a11.94,11.94,0,0,1,.21,1.46,2.67,2.67,0,0,1,0,.4,1.49,1.49,0,0,1-.15.4,5.59,5.59,0,0,1-.41.66,27.19,27.19,0,0,1-2,2.41v-.26l10.6,8.67-.33.06c1-1.9,2.13-3.87,3.26-5.9v-.07h.08a14.4,14.4,0,0,0,4-2.48,13.23,13.23,0,0,0,1.66-1.77c.49-.64,1-1.37,1.43-2.07,1.9-2.8,3.84-5.71,5.78-8.71,1-1.51,1.92-3,2.87-4.6.47-.78.94-1.58,1.36-2.39.11-.2.21-.4.3-.61a3.13,3.13,0,0,0,.24-.6A1.32,1.32,0,0,0,530,146a.86.86,0,0,0-1-.23,2.51,2.51,0,0,0-1.06.69c-.59.65-1.16,1.47-1.74,2.2s-1.17,1.51-1.76,2.27c-.3.38-.6.75-.91,1.12l-.49.56a2.85,2.85,0,0,1-.61.54.73.73,0,0,1-.86-.14,1,1,0,0,1-.26-.77.93.93,0,0,1,.12-.4l.17-.27.33-.51,1.42-1.94c.84-1.38,1.66-2.76,2.48-4.12s1.6-2.74,2.28-4.12a2.4,2.4,0,0,0,.3-2,2.26,2.26,0,0,0-1.61-1.17l-.28-.06.09-.27a4.47,4.47,0,0,0,.27-1.77,1.12,1.12,0,0,0-.28-.7,1.09,1.09,0,0,0-.69-.24,2.32,2.32,0,0,0-1.5.7,9.72,9.72,0,0,0-1.21,1.35l-4.16,6c-.68,1-1.37,1.93-2.07,2.87l-.53.69-.28.35-.14.17-.22.19a.68.68,0,0,1-.62.06.6.6,0,0,1-.34-.56,1.76,1.76,0,0,1,.29-.92c1.21-2,2.45-3.78,3.59-5.61.57-.92,1.13-1.82,1.64-2.73.25-.45.5-.9.71-1.36l.14-.34a1.5,1.5,0,0,0,0-.3,2.78,2.78,0,0,0-.12-.7,1.09,1.09,0,0,0-.84-.85,2,2,0,0,0-1.23.46,10.14,10.14,0,0,0-1.87,2c-2.19,3.08-3.91,6.15-5.54,8.9l-1.19,2a10.54,10.54,0,0,1-1.28,1.83,22.64,22.64,0,0,1-3,2.79,2.8,2.8,0,0,1-.86.44.92.92,0,0,1-.52,0,3.26,3.26,0,0,1-.4-.24,8.07,8.07,0,0,1-1.18-1.23,14.35,14.35,0,0,1-1.58-2.49,9.71,9.71,0,0,1-.47-1.16,8.83,8.83,0,0,0-.3-1,5.28,5.28,0,0,0-.79-1.48,4.64,4.64,0,0,0-.7-.77A2.21,2.21,0,0,1,499.13,143.39Z" transform="translate(0 0.05)" style="fill:#ff9a6c"/><path d="M491.49,200.19a35.07,35.07,0,0,1-5.19,7.36,12,12,0,0,1-7.95,3.82" transform="translate(0 0.05)" style="fill:#455a64"/><path d="M478.39,211.37c0-.1,1-.1,2.54-.63a13.69,13.69,0,0,0,5.22-3.38,30.23,30.23,0,0,0,3.87-5,15.67,15.67,0,0,1,1.51-2.18,12.23,12.23,0,0,1-1.19,2.37,24.79,24.79,0,0,1-3.82,5.17,13.11,13.11,0,0,1-5.48,3.37,9,9,0,0,1-1.93.32A2,2,0,0,1,478.39,211.37Z" transform="translate(0 0.05)" style="fill:#263238"/><path d="M492.53,207.9a8,8,0,0,1-1.46,2,21.29,21.29,0,0,1-10,6.22,8,8,0,0,1-2.43.42,27.59,27.59,0,0,0,13.93-8.63Z" transform="translate(0 0.05)" style="fill:#263238"/><g style="opacity:0.30000001192092896"><path d="M478.72,210.89c2.5.91,4.88,1.25,7.29.14a10.37,10.37,0,0,0,5.3-5.69c.68-1.81.84-3.81,1.64-5.58,1.79-3.93,6.47-6.19,7.53-10.37-3.73,4.08-7.23,7.73-10.12,12.62a23.09,23.09,0,0,1-5.31,6.29,10.85,10.85,0,0,1-6.46,2.6" transform="translate(0 0.05)"/></g></g><g id="freepik--character-2--inject-2"><path d="M283.56,193.23l-6.69-37.29c-2-9.23,1.76-18.06,11-19.77l.87-.11a16.87,16.87,0,0,1,18.59,13.3c1.66,8,3.39,16.87,3.88,21.21,1,9-7.8,11.51-7.8,11.51s.85,5.44,1.29,8l3.12,5.77-7.64-.56Z" transform="translate(0 0.05)" style="fill:#ae7461"/><path d="M303.44,182.08a21.92,21.92,0,0,1-12.12-2s3.65,6.4,12.51,4.48Z" transform="translate(0 0.05)" style="fill:#6f4439"/><path d="M304.9,158.1a1.3,1.3,0,0,1-1.08,1.45,1.25,1.25,0,0,1-1.46-1h0a1.27,1.27,0,0,1,1-1.44,1.22,1.22,0,0,1,1.46.92v0Z" transform="translate(0 0.05)" style="fill:#263238"/><path d="M306,153.61c-.14.18-1.2-.41-2.58-.24s-2.31,1-2.48.84,0-.38.44-.76a3.5,3.5,0,0,1,2-.88,3.28,3.28,0,0,1,2.08.4C305.83,153.2,306,153.48,306,153.61Z" transform="translate(0 0.05)" style="fill:#263238"/><path d="M292.68,159.61a1.3,1.3,0,0,1-1.07,1.45,1.26,1.26,0,0,1-1.47-1h0a1.27,1.27,0,0,1,1.06-1.45h0a1.22,1.22,0,0,1,1.45,1v0Z" transform="translate(0 0.05)" style="fill:#263238"/><path d="M292.46,155.61c-.14.19-1.2-.41-2.58-.23s-2.3,1-2.47.84,0-.39.44-.76a3.64,3.64,0,0,1,4.08-.49C292.39,155.2,292.53,155.49,292.46,155.61Z" transform="translate(0 0.05)" style="fill:#263238"/><path d="M298.73,165.61a9.3,9.3,0,0,1,2.19-.69c.35-.08.68-.19.7-.44a1.74,1.74,0,0,0-.36-1l-1.38-2.55c-1.92-3.64-3.36-6.65-3.21-6.73a48.15,48.15,0,0,1,3.72,6.41l1.33,2.58a2.12,2.12,0,0,1,.36,1.36.93.93,0,0,1-.52.58,2.46,2.46,0,0,1-.59.16A8.91,8.91,0,0,1,298.73,165.61Z" transform="translate(0 0.05)" style="fill:#263238"/><path d="M292.39,151.2c-.14.38-1.53.17-3.16.34s-3,.59-3.18.25c-.09-.16.15-.52.68-.87a5.56,5.56,0,0,1,4.83-.45C292.13,150.72,292.39,151,292.39,151.2Z" transform="translate(0 0.05)" style="fill:#263238"/><path d="M305.5,149.5c-.24.36-1.41.19-2.76.36s-2.46.56-2.77.27c-.13-.14,0-.48.46-.85a4.25,4.25,0,0,1,2.17-.82,4.15,4.15,0,0,1,2.28.32C305.39,149,305.61,149.33,305.5,149.5Z" transform="translate(0 0.05)" style="fill:#263238"/><path d="M278.39,162.49c-.16,0-6.4-1-5.44,5.06s6.9,3.89,6.89,3.71S278.39,162.49,278.39,162.49Z" transform="translate(0 0.05)" style="fill:#ae7461"/><path d="M277.64,169.24l-.26.2a1,1,0,0,1-.79.14,2.67,2.67,0,0,1-1.58-2.17,3.47,3.47,0,0,1,.06-1.57,1.22,1.22,0,0,1,.67-1,.54.54,0,0,1,.67.2c.11.16.09.28.13.29s.11-.12,0-.37a.59.59,0,0,0-.3-.34.77.77,0,0,0-.61-.07,1.51,1.51,0,0,0-1,1.13,3.62,3.62,0,0,0-.11,1.76,2.8,2.8,0,0,0,2,2.39,1.16,1.16,0,0,0,1-.31C277.66,169.39,277.67,169.25,277.64,169.24Z" transform="translate(0 0.05)" style="fill:#6f4439"/><path d="M294.57,167.12c.21,0,.45,1.36,1.82,2.15s2.83.37,2.88.57-.29.33-.92.45a3.52,3.52,0,0,1-2.38-.4,3.06,3.06,0,0,1-1.44-1.81C294.39,167.51,294.47,167.13,294.57,167.12Z" transform="translate(0 0.05)" style="fill:#263238"/><path d="M318.39,139.28a1.41,1.41,0,0,0-.81-.74,4.46,4.46,0,0,0-2.35,0,13.15,13.15,0,0,1-5.81-.54,6.78,6.78,0,0,0,1.47-1.41,3.91,3.91,0,0,0,.51-4,.85.85,0,0,0-.57-.51c-.42-.07-.71.38-.94.73a3.32,3.32,0,0,1-2.9,1.8,5.3,5.3,0,0,1-2.43-.33l-.09-.07-1.08-.8h0a20.33,20.33,0,0,0-7-3.7,21.05,21.05,0,0,0-11.23.85c-3,1.3-5.39,4.26-5.32,7.51-2-1.2-4.6-.78-6.59.4h-.06c-2.24,1.21-3.19,3.92-3.52,6.44v.42a9.83,9.83,0,0,1-2.71,3.61c-.21.16-.44.37-.43.64s.27.44.5.56a4.77,4.77,0,0,0,2,.5,10.18,10.18,0,0,1-.52,1.79c-.2.49-.43,1.08-.13,1.52a1,1,0,0,0,1.12.29,3.38,3.38,0,0,0,1-.67c-.17.67-.34,1.35-.5,2a5.79,5.79,0,0,0,2.55-.57c.85,2.18,1.88,6.3,2.7,7.74,1.62-.22,2-.46,2.85-.31,1.12.18,1,2.12,2.3,1.38.66-.38,1.32-3.21,1.45-4a35.17,35.17,0,0,0-.79-15,11.13,11.13,0,0,1,3.08-3l-.09.11c2.37-1.25,5.06-2.55,7.62-1.74,2,.63,3.36,2.37,5,3.68A13,13,0,0,0,306.78,147c.77,2.64,1.56,7,2.08,9.54l1.37-5.37h0c.12-.33.23-.66.32-1v-.1h0c.15-.51.29-1,.49-1.54h0a1.59,1.59,0,0,0,2-2.46,3.71,3.71,0,0,0-.88-.65,2.57,2.57,0,0,0,2.47.25,2,2,0,0,0,1.08-2.15,1.68,1.68,0,0,0-1.2-1.18,5.82,5.82,0,0,0,3.09-1.2A1.59,1.59,0,0,0,318.39,139.28Z" transform="translate(0 0.05)" style="fill:#263238"/><path d="M282.71,138.66a8.31,8.31,0,0,0-.77,1,6.41,6.41,0,0,0-.91,3.19,11.16,11.16,0,0,0,.12,2.31c.13.82.33,1.7.54,2.62a26.25,26.25,0,0,1,.52,2.92,10.42,10.42,0,0,1,0,1.58,3.2,3.2,0,0,1-.4,1.6,1.37,1.37,0,0,1-1.2.62,2,2,0,0,1-1.23-.46,4.77,4.77,0,0,1-1.22-2.15h.23a7.68,7.68,0,0,1-.8,2,2.72,2.72,0,0,1-1.54,1.22,1.71,1.71,0,0,1-.95,0,1.5,1.5,0,0,1-1-1.26,1.08,1.08,0,0,1,.18-.74l.1.07a6,6,0,0,1-1.69,1.74l-.56.32-.21.09a.76.76,0,0,1,.19-.12c.12-.08.31-.19.54-.35a6.15,6.15,0,0,0,1.62-1.75l.11.07a1.16,1.16,0,0,0,.15,1.34,1.44,1.44,0,0,0,.65.46,1.57,1.57,0,0,0,.86,0,2.54,2.54,0,0,0,1.48-1.15,7.57,7.57,0,0,0,.76-2l.08-.3.11.3a4.35,4.35,0,0,0,1.16,2,2,2,0,0,0,1.11.42,1.16,1.16,0,0,0,1-.53,3,3,0,0,0,.37-1.49,10,10,0,0,0,0-1.55,23.75,23.75,0,0,0-.5-2.9c-.21-.92-.4-1.8-.52-2.64a10.77,10.77,0,0,1-.1-2.34,6.48,6.48,0,0,1,1-3.22A3.3,3.3,0,0,1,282.71,138.66Z" transform="translate(0 0.05)" style="fill:#455a64"/><path d="M311.75,143.08l-.06.07-.2.2c-.09.08-.2.19-.34.3l-.5.37a8.28,8.28,0,0,1-3.72,1.28,10.22,10.22,0,0,1-5.72-1.15,17.8,17.8,0,0,1-5.47-4.63c-.82-1-1.52-2-2.26-3a11.57,11.57,0,0,0-2.43-2.41,5.93,5.93,0,0,0-2.82-1.17,4.56,4.56,0,0,0-1.38.06,4.37,4.37,0,0,0-1.21.43,5.21,5.21,0,0,0-2.5,2.88,5.64,5.64,0,0,0-.25,1.41v-.37a4.89,4.89,0,0,1,.18-1.07,5.25,5.25,0,0,1,2.51-3,4.64,4.64,0,0,1,1.24-.46,4.1,4.1,0,0,1,1.44-.07,6.24,6.24,0,0,1,2.92,1.18,12.15,12.15,0,0,1,2.47,2.44c.75.94,1.45,2,2.27,2.94a17.62,17.62,0,0,0,5.39,4.59,10.23,10.23,0,0,0,5.61,1.18,8.21,8.21,0,0,0,3.69-1.2C311.39,143.45,311.73,143,311.75,143.08Z" transform="translate(0 0.05)" style="fill:#455a64"/><path d="M312,139l-.29.27a7.82,7.82,0,0,1-.88.63,9.68,9.68,0,0,1-1.45.7,11.35,11.35,0,0,1-1.89.55,11.18,11.18,0,0,1-2,.17,9.42,9.42,0,0,1-1.59-.16,6.22,6.22,0,0,1-1.05-.27c-.24-.08-.37-.13-.36-.15s.54.14,1.43.27a11.72,11.72,0,0,0,1.57.11,10.32,10.32,0,0,0,1.92-.18,13,13,0,0,0,1.85-.52,11,11,0,0,0,1.43-.68C311.5,139.34,311.93,139,312,139Z" transform="translate(0 0.05)" style="fill:#455a64"/><path d="M295.65,283.61,300,335l-1.47,8.93s-17.82,51.2-17.45,72.39l20.85-1s20.35-58,21.95-64.37,9.8-49.23,9.8-49.23l13.52,33.88.38,7.89-7.79,49.11L364,393.88s9.91-55.76,8.93-63-17-63.78-17-63.78l-8.26-7.21-47.11,8Z" transform="translate(0 0.05)" style="fill:#263238"/><path d="M361.77,378.91,361,399.52s19.61,7.74,19.82,11.57L342.92,411l-.09-32.17Z" transform="translate(0 0.05)" style="fill:#263238"/><path d="M349.3,397.75a1.63,1.63,0,0,0-1.07,1.86,1.48,1.48,0,0,0,1.74,1.14,1.75,1.75,0,0,0,1.13-2,1.58,1.58,0,0,0-1.94-1" transform="translate(0 0.05)" style="fill:#e0e0e0"/><path d="M342.92,411l.11-3.25L379.39,409s1.69.78,1.49,2Z" transform="translate(0 0.05)" style="fill:#455a64"/><path d="M361.64,399.32c0,.2-.93.28-1.84.91s-1.4,1.44-1.57,1.36.11-1.2,1.22-1.94S361.68,399.14,361.64,399.32Z" transform="translate(0 0.05)" style="fill:#fff"/><path d="M365.62,401.07c0,.19-.76.52-1.39,1.34s-.82,1.7-1,1.69-.3-1.11.5-2.12S365.61,400.88,365.62,401.07Z" transform="translate(0 0.05)" style="fill:#fff"/><path d="M367.87,406.1c-.17,0-.43-.94,0-2s1.35-1.5,1.42-1.33-.45.73-.83,1.61S368,406.08,367.87,406.1Z" transform="translate(0 0.05)" style="fill:#fff"/><path d="M361.32,394.61c-.08.18-.93-.09-2,0s-1.86.42-2,.25.69-.86,1.93-.93S361.39,394.45,361.32,394.61Z" transform="translate(0 0.05)" style="fill:#fff"/><path d="M299.91,400.61l.15,23.67L305.57,443a2.45,2.45,0,0,1-1.64,3h-.16a2.44,2.44,0,0,1-2.15-.57c-3.71-3.36-17.3-15.77-17.21-17.51.1-2-1.81-24.95-1.81-24.95Z" transform="translate(0 0.05)" style="fill:#263238"/><path d="M303.77,446l-19.38-19.67v1a3.69,3.69,0,0,0,.94,2.34c1.55,1.72,5.94,6.38,16.22,15.76a2.46,2.46,0,0,0,2.22.57Z" transform="translate(0 0.05)" style="fill:#455a64"/><g style="opacity:0.6000000238418579"><path d="M289,418.61a1.49,1.49,0,0,1,.45,1.91,1.42,1.42,0,0,1-1.88.47,1.53,1.53,0,0,1-.47-2,1.44,1.44,0,0,1,2-.27" transform="translate(0 0.05)" style="fill:#fff"/></g><path d="M298.06,435.83c.14.06.64-1.2,2-1.9a7,7,0,0,1,2.71-.6c0-.06-.28-.24-.84-.3a3.79,3.79,0,0,0-2.11.44,3.71,3.71,0,0,0-1.55,1.49C298,435.46,298,435.81,298.06,435.83Z" transform="translate(0 0.05)" style="fill:#fff"/><path d="M299.84,439a15.63,15.63,0,0,1,2.07-1.08,18.05,18.05,0,0,1,2.3-.37,2.69,2.69,0,0,0-2.47-.13C300.39,437.82,299.71,438.88,299.84,439Z" transform="translate(0 0.05)" style="fill:#fff"/><path d="M294.81,431.86a21.94,21.94,0,0,1,3.07-1.88,23.28,23.28,0,0,1,3.49-.92,6.59,6.59,0,0,0-6.56,2.8Z" transform="translate(0 0.05)" style="fill:#fff"/><path d="M294.16,424.67c.07.14,1.36-.45,3.06-.56s3.06.26,3.11.11a4.64,4.64,0,0,0-3.15-.63A4.75,4.75,0,0,0,294.16,424.67Z" transform="translate(0 0.05)" style="fill:#fff"/><path d="M293.94,417.72a11.86,11.86,0,0,1,3.17-.66,11.39,11.39,0,0,1,3.16.7c0-.06-.23-.34-.78-.64a5.23,5.23,0,0,0-4.75,0C294.18,417.38,293.91,417.67,293.94,417.72Z" transform="translate(0 0.05)" style="fill:#fff"/><path d="M272.24,194.91s-16,8.31-4.37,28.22c14.14,24.37,27.6,58.66,32.22,60.93,1.89.92,10.76-2.92,10.76-2.92l7-11.27-18.67-42.15L287,203.35Z" transform="translate(0 0.05)" style="fill:#455a64"/><path d="M281.73,188.43l-9.25,5.94L297,237.67l-3.55,38.68,5.55,3.14,57.29-7.94,1.86-2.59-6.29-18.17-8.38-20.4S335.2,211.85,330.31,204s-10.15-15.88-10.15-15.88l-14-1-1.72-1.91s-2.12,3.84-7.88,4.19c-4.69.29-14.64-2.25-14.64-2.25Z" transform="translate(0 0.05)" style="fill:#455a64"/><path d="M396.1,252.48s-33.61-26.87-36.35-30.06-26.11-27.75-26.11-27.75-8.55-8.2-13.46-6.6c-6,2,6,30.9,6,30.9s24.72,20.52,28.73,24.42,28.1,19.4,28.1,19.4l5.71-.79Z" transform="translate(0 0.05)" style="fill:#455a64"/><path d="M287.09,211.68a3,3,0,0,1,.25.51c.17.4.38.89.63,1.5.54,1.31,1.33,3.2,2.32,5.53,2,4.66,4.84,11,8,18.08s5.89,13.5,7.7,18.23c.91,2.36,1.61,4.29,2.06,5.63.2.63.37,1.14.51,1.55a2.12,2.12,0,0,1,.14.55,1.7,1.7,0,0,1-.24-.51l-.6-1.52c-.51-1.32-1.26-3.22-2.21-5.57-1.9-4.69-4.68-11.1-7.84-18.15s-6-13.45-7.85-18.15c-.95-2.35-1.69-4.26-2.17-5.6-.22-.62-.39-1.13-.54-1.53A1.74,1.74,0,0,1,287.09,211.68Z" transform="translate(0 0.05)" style="fill:#263238"/><path d="M328.23,200.73c.11.09.21.19.31.29a7.11,7.11,0,0,1,.73,1c.59.86,1.37,2.17,2.27,3.8,1.81,3.27,4.14,7.87,6.62,13s4.63,9.82,6.15,13.22c.76,1.71,1.37,3.09,1.77,4.06a11.47,11.47,0,0,1,.58,1.51,7.89,7.89,0,0,1-.77-1.43l-1.91-4L337.69,219c-2.47-5.13-4.76-9.75-6.47-13-.86-1.66-1.58-3-2.12-3.87S328.19,200.77,328.23,200.73Z" transform="translate(0 0.05)" style="fill:#263238"/><g style="opacity:0.30000001192092896"><path d="M294.76,230s-2.39-13.33-1-21.12,5.35-19.13,5.35-19.13l7-3,36.45,17.71,2.7,3.27-4.87,15.35,3.6,28Z" transform="translate(0 0.05)"/></g></g><path d="M358.25,287.21q-12.58,2.07-21.54-3a37.07,37.07,0,0,1-14.44-15.34,76,76,0,0,1-7.67-23.57l-8.09-49.06a98.28,98.28,0,0,1-1-26.42q1.32-12.21,8-20.51t20.32-10.55q11.32-1.87,19.82,1a29,29,0,0,1,14,10q5.52,7.22,7.57,18.51a7,7,0,0,0,.25,1,9.37,9.37,0,0,1,.29,1.16l-19.44,3.18Q354.58,163,350.24,158t-13.85-3.38a13.33,13.33,0,0,0-8.43,4.8q-3.22,3.94-4,11.09a69,69,0,0,0,1,17.92l3.65,22.11a21.42,21.42,0,0,1,7-8.63A28.14,28.14,0,0,1,348.18,197q12-2,19.73,2.1A28.59,28.59,0,0,1,380,212.12a77.51,77.51,0,0,1,6.53,21.72,76.58,76.58,0,0,1,.35,24.5,36.73,36.73,0,0,1-8.67,19.06Q371.39,285,358.25,287.21Zm-2.64-16q6.47-1.06,9.46-5.34a21.28,21.28,0,0,0,3.51-10.64,55.9,55.9,0,0,0-.67-13.55,150.46,150.46,0,0,0-3.44-15.87q-2-7.23-6.17-11.07t-12.41-2.48a17.75,17.75,0,0,0-6.95,2.62,19.73,19.73,0,0,0-5,4.6,21.73,21.73,0,0,0-3,5.39l3.63,21.74A59.12,59.12,0,0,0,338.39,260a21.37,21.37,0,0,0,6.77,9.13q4.15,3.09,10.45,2Z" transform="translate(0 0.05)"/><path d="M371.12,284.74q-12.57,2.07-21.54-3a37.13,37.13,0,0,1-14.43-15.35,75.67,75.67,0,0,1-7.67-23.56l-8.09-49.07a98.2,98.2,0,0,1-1-26.41q1.31-12.22,8-20.52t20.32-10.55q11.32-1.86,19.83,1a28.88,28.88,0,0,1,14,10.06q5.54,7.22,7.58,18.5a7,7,0,0,0,.25,1,9.18,9.18,0,0,1,.28,1.15l-19.41,3.2q-1.74-10.6-6.08-15.61t-13.86-3.44a13.3,13.3,0,0,0-8.44,4.81q-3.23,3.95-4,11.08a69.11,69.11,0,0,0,1,17.93l3.64,22.11a21.42,21.42,0,0,1,7-8.63,28.14,28.14,0,0,1,12.57-4.93q12-2,19.73,2.1a28.45,28.45,0,0,1,12.13,13,77.87,77.87,0,0,1,6.46,21.73,76,76,0,0,1,.34,24.5,36.54,36.54,0,0,1-8.67,19Q384.25,282.61,371.12,284.74Zm-2.63-16q6.47-1.08,9.45-5.35a21.18,21.18,0,0,0,3.51-10.64,54.91,54.91,0,0,0-.66-13.55,150.49,150.49,0,0,0-3.4-15.85q-2-7.24-6.16-11.08t-12.41-2.48a17.71,17.71,0,0,0-6.95,2.63,19.57,19.57,0,0,0-5,4.6,21.67,21.67,0,0,0-3,5.38l3.59,21.75a58.31,58.31,0,0,0,3.77,13.46,21.31,21.31,0,0,0,6.77,9.13q4.2,3,10.49,2Z" transform="translate(0 0.05)" style="fill:#c5d21e"/><path d="M358.25,287.21q-12.58,2.07-21.54-3a37.07,37.07,0,0,1-14.44-15.34,76,76,0,0,1-7.67-23.57l-8.09-49.06a98.28,98.28,0,0,1-1-26.42q1.32-12.21,8-20.51t20.32-10.55q11.32-1.87,19.82,1a29,29,0,0,1,14,10q5.52,7.22,7.57,18.51a7,7,0,0,0,.25,1,9.37,9.37,0,0,1,.29,1.16l-19.44,3.18Q354.58,163,350.24,158t-13.85-3.38a13.33,13.33,0,0,0-8.43,4.8q-3.22,3.94-4,11.09a69,69,0,0,0,1,17.92l3.65,22.11a21.42,21.42,0,0,1,7-8.63A28.14,28.14,0,0,1,348.18,197q12-2,19.73,2.1A28.59,28.59,0,0,1,380,212.12a77.51,77.51,0,0,1,6.53,21.72,76.58,76.58,0,0,1,.35,24.5,36.73,36.73,0,0,1-8.67,19.06Q371.39,285,358.25,287.21Zm-2.64-16q6.47-1.06,9.46-5.34a21.28,21.28,0,0,0,3.51-10.64,55.9,55.9,0,0,0-.67-13.55,150.46,150.46,0,0,0-3.44-15.87q-2-7.23-6.17-11.07t-12.41-2.48a17.75,17.75,0,0,0-6.95,2.62,19.73,19.73,0,0,0-5,4.6,21.73,21.73,0,0,0-3,5.39l3.63,21.74A59.12,59.12,0,0,0,338.39,260a21.37,21.37,0,0,0,6.77,9.13q4.15,3.09,10.45,2Z" transform="translate(0 0.05)" style="fill:#c5d21e;opacity:0.4699999988079071;isolation:isolate"/><g id="freepik--character-1--inject-2"><path d="M182.22,390.17l-3.22,19s19.08,7.79,19.24,11.53l-37.08-.56,4.65-31.27Z" transform="translate(0 0.05)" style="fill:#263238"/><path d="M167.56,407.33a1.59,1.59,0,0,0-1.07,1.81,1.45,1.45,0,0,0,1.68,1.14,1.71,1.71,0,0,0,1.13-1.92,1.49,1.49,0,0,0-1.85-1h0" transform="translate(0 0.05)" style="fill:#e0e0e0"/><path d="M161.16,420.17l.47-3.15,35.18,1.71s1.64.78,1.43,2Z" transform="translate(0 0.05)" style="fill:#455a64"/><path d="M179.6,409c0,.19-.91.26-1.81.87s-1.39,1.39-1.55,1.31.12-1.17,1.22-1.88S179.65,408.84,179.6,409Z" transform="translate(0 0.05)" style="fill:#fff"/><path d="M183.47,410.77c0,.18-.75.5-1.38,1.29s-.81,1.65-1,1.64-.28-1.09.51-2.07S183.47,410.61,183.47,410.77Z" transform="translate(0 0.05)" style="fill:#fff"/><path d="M185.61,415.71c-.17,0-.4-.92.08-2s1.33-1.44,1.4-1.28-.46.71-.84,1.57S185.79,415.69,185.61,415.71Z" transform="translate(0 0.05)" style="fill:#fff"/><path d="M179.39,404.4c-.08.17-.9-.11-1.93,0s-1.83.39-1.92.22.69-.83,1.89-.88A2.22,2.22,0,0,1,179.39,404.4Z" transform="translate(0 0.05)" style="fill:#fff"/><path d="M128.61,393.16l-9.84,17.59s13.62,15.48,12.09,18.86l-32.94-17,14.27-28Z" transform="translate(0 0.05)" style="fill:#263238"/><path d="M109.39,404a1.6,1.6,0,0,0-1.77,1.14,1.46,1.46,0,0,0,1,1.77,1.7,1.7,0,0,0,1.86-1.22c.12-.77-.5-1.74-1.25-1.71" transform="translate(0 0.05)" style="fill:#e0e0e0"/><path d="M97.92,412.61l1.54-2.77,31,17.37s1.12,1.43.39,2.43Z" transform="translate(0 0.05)" style="fill:#455a64"/><path d="M119.39,410.85c-.09.17-.94-.17-2,0s-1.86.63-2,.49.64-1,1.94-1.15S119.52,410.71,119.39,410.85Z" transform="translate(0 0.05)" style="fill:#fff"/><path d="M122.08,414.15c0,.18-.9.11-1.81.54s-1.47,1.12-1.62,1,.23-1.11,1.38-1.63S122.16,414,122.08,414.15Z" transform="translate(0 0.05)" style="fill:#fff"/><path d="M121.79,419.53c-.16,0,0-1,.94-1.72s1.84-.7,1.83-.52-.72.43-1.45,1S122,419.61,121.79,419.53Z" transform="translate(0 0.05)" style="fill:#fff"/><path d="M121.22,406.61c-.15.12-.76-.49-1.71-.9s-1.8-.47-1.81-.65,1-.45,2.09.05S121.39,406.51,121.22,406.61Z" transform="translate(0 0.05)" style="fill:#fff"/><path d="M151.57,276.73s6.63,64.11,4.66,71.53-33.68,64.1-33.68,64.1l-21.91-12.17s26.64-51.33,26.3-53.5.71-8.34.71-8.34L113,289.17l2.93-21.12,26-2.62Z" transform="translate(0 0.05)" style="fill:#263238"/><path d="M134.19,300.91c.66,2,35.93,42.23,35.93,42.23a4.26,4.26,0,0,0,.4,2.53,6.23,6.23,0,0,0,3,2.12l-14,58L184,408.05s14.61-58,14-65.35-35.5-64.09-35.5-64.09l-25-1.35Z" transform="translate(0 0.05)" style="fill:#263238"/><path d="M152.22,290.74a7.75,7.75,0,0,1-.25,1.59,26.69,26.69,0,0,0-.12,4.38A115.74,115.74,0,0,0,154,311.06a123.12,123.12,0,0,1,2.18,14.41,25.2,25.2,0,0,1-.08,4.43,7.91,7.91,0,0,1-.34,1.59,10.82,10.82,0,0,1,.14-1.61,32,32,0,0,0-.09-4.38c-.29-3.7-1.27-8.75-2.32-14.34a96.28,96.28,0,0,1-2-14.44,21.8,21.8,0,0,1,.28-4.42A9.64,9.64,0,0,1,152.22,290.74Z" transform="translate(0 0.05)" style="fill:#455a64"/><path d="M142.47,155.24a13.11,13.11,0,0,1,4.66,11.23c-.19,2-.8,4.36.49,5.94s3.87,1.58,5.1,3.19c1.45,1.9.15,4.66.64,7a4.73,4.73,0,0,0,5,3.61,18.4,18.4,0,0,1-9.23,3.79l-2.49-3.34a3.4,3.4,0,0,1-.31,4.16,7.66,7.66,0,0,1-3.94,2.19,23.45,23.45,0,0,1-20.45-3.73" transform="translate(0 0.05)" style="fill:#263238"/><path d="M103.71,172.54a47.63,47.63,0,0,0,1.8-4.6c.81-3.45-.8-7.38.94-10.47,1.24-2.19,3.81-3.23,6.23-3.92s5-1.27,6.86-3c1.34-1.27,2.13-3,3.46-4.32,1.91-1.81,4.69-2.39,7.32-2.5a15.82,15.82,0,0,1,7.9,1.44,8.71,8.71,0,0,1,4.76,6.2,24.67,24.67,0,0,0,.38,3.93c.42,1.39,1.49,2.48,2.13,3.78a7,7,0,0,1-1.9,8.29l-19,23.58c-3.92,1.39-13.33-.57-16.28-3.51S102.39,176.47,103.71,172.54Z" transform="translate(0 0.05)" style="fill:#263238"/><path d="M143.16,164.3c-.66-5.45-4.67-12-10.09-11.07l-16.77,5.28a3.21,3.21,0,0,0-2.69,3.42l4.14,39.45s-1.25,1-2,.66a.22.22,0,0,0-.29.11.22.22,0,0,0,0,.22c1.94,3,11.14,15.84,21,12.15,2.19-.82-.08-7.72.23-10.26l-.17-6.49c-.15-3.32-.22-4.68-.22-4.64s6.92-1.56,7.85-10.77C144.54,177.78,143.89,170.36,143.16,164.3Z" transform="translate(0 0.05)" style="fill:#ffbf9d"/><path d="M141.83,172.61a1.16,1.16,0,0,1-1.06,1.24,1.1,1.1,0,0,1-1.25-.93h0v-.06a1.17,1.17,0,0,1,1.06-1.25,1.11,1.11,0,0,1,1.25,1h0Z" transform="translate(0 0.05)" style="fill:#263238"/><path d="M130.47,173.14a1.17,1.17,0,0,1-1.06,1.24,1.14,1.14,0,0,1-1.27-1h0a1.18,1.18,0,0,1,1.06-1.25,1.11,1.11,0,0,1,1.26.94h0A.13.13,0,0,1,130.47,173.14Z" transform="translate(0 0.05)" style="fill:#263238"/><path d="M142.33,168.81c-.13.21-1.21-.5-2.57-.33s-2.26,1.09-2.43.91,0-.44.41-.86a3.16,3.16,0,0,1,1.92-1,3.09,3.09,0,0,1,2.07.5C142.2,168.38,142.39,168.71,142.33,168.81Z" transform="translate(0 0.05)" style="fill:#263238"/><path d="M130.09,169.61c-.16.2-1.22-.6-2.68-.56s-2.52.84-2.68.65.08-.43.54-.81a3.6,3.6,0,0,1,2.14-.76,3.52,3.52,0,0,1,2.14.7C130,169.15,130.17,169.49,130.09,169.61Z" transform="translate(0 0.05)" style="fill:#263238"/><path d="M134.51,178.28a8.6,8.6,0,0,1,2-.49c.32,0,.62-.13.66-.35a1.65,1.65,0,0,0-.26-.94l-1.09-2.39a43.05,43.05,0,0,1-2.51-6.28,40.17,40.17,0,0,1,3,6.06l1.06,2.41a1.89,1.89,0,0,1,.23,1.25.78.78,0,0,1-.5.5,2,2,0,0,1-.54.11A8.8,8.8,0,0,1,134.51,178.28Z" transform="translate(0 0.05)" style="fill:#263238"/><path d="M136.23,193.13a23.21,23.21,0,0,1-12.4-2.57s3.43,6.23,12.51,4.86Z" transform="translate(0 0.05)" style="fill:#ff9a6c"/><path d="M130.6,181.87a2,2,0,0,1,.66-.75,1.58,1.58,0,0,1,1.09-.09,2.56,2.56,0,0,1,1.41.75,1.49,1.49,0,0,1,.33,1.51h0c-.15.53-.94.8-1.48.88a2.32,2.32,0,0,1-1.56-.36,1.37,1.37,0,0,1-.78-1A1.78,1.78,0,0,1,130.6,181.87Z" transform="translate(0 0.05)" style="fill:#ff9a6c"/><path d="M130.9,180.11c.2,0,.28,1.34,1.51,2.24s2.67.67,2.69.86-.31.29-.93.34a3.44,3.44,0,0,1-2.24-.64,3,3,0,0,1-1.18-1.89C130.67,180.45,130.8,180.11,130.9,180.11Z" transform="translate(0 0.05)" style="fill:#263238"/><path d="M130.08,165.61c-.11.34-1.37.25-2.84.52s-2.64.73-2.85.43c-.1-.14.09-.47.56-.83a4.79,4.79,0,0,1,2.08-.87,4.9,4.9,0,0,1,2.25.14C129.83,165.17,130.12,165.42,130.08,165.61Z" transform="translate(0 0.05)" style="fill:#263238"/><path d="M141.39,163.45c-.24.3-1.24.06-2.44.12s-2.19.32-2.44,0,0-.43.46-.73a3.73,3.73,0,0,1,2-.58,3.67,3.67,0,0,1,2,.46C141.31,163,141.46,163.31,141.39,163.45Z" transform="translate(0 0.05)" style="fill:#263238"/><path d="M112.58,159.75a7.49,7.49,0,0,1,3.85-2.45,83.44,83.44,0,0,1,19.4-4.53c.79,1.37,0,3.2-1.26,4.16a15.09,15.09,0,0,1-4.36,1.84,5.94,5.94,0,0,0-3.67,2.81c-.68,1.54-.17,3.39-.77,5-1,2.71-4.86,3.52-5.89,6.23-.77,2.06.39,4.28.64,6.46a7.83,7.83,0,0,1-6.83,8.71,8.39,8.39,0,0,1-1,.06q-.45-11.76-.89-23.51C111.7,162.86,111.67,161.1,112.58,159.75Z" transform="translate(0 0.05)" style="fill:#263238"/><path d="M96.39,179.21c1.26-1.08,2.83-2,3.36-3.59.76-2.29-1-5,.19-7.12,1.13-1.9,4.34-1.74,5.39-3.68.82-1.51-.06-2.88.26-4.22a3.66,3.66,0,0,1,3.63-2.29L119.6,174c.89,5.22,1.84,8,.66,11a25.35,25.35,0,0,0-1.75,5,5,5,0,0,0,1.56,4.82c-6.4.38-12.33-3.08-17.8-6.43l-5.79-3.54a4.3,4.3,0,0,1-1.59-1.37C94.09,182.1,95.17,180.3,96.39,179.21Z" transform="translate(0 0.05)" style="fill:#263238"/><path d="M102.17,186.88a3.93,3.93,0,0,0,.68.15,5.85,5.85,0,0,0,2-.1,6.29,6.29,0,0,0,2.81-1.44,6.07,6.07,0,0,0,1.9-3.7,6.19,6.19,0,0,0-.16-2.46,10.16,10.16,0,0,0-1.14-2.4,9.64,9.64,0,0,1-1.18-2.49,3.19,3.19,0,0,1,.4-2.7c.6-.77,1.68-.94,2.69-1.32a2.94,2.94,0,0,0,1.38-1,2.8,2.8,0,0,0,.48-1.66,18.07,18.07,0,0,0-.67-3.35,3.74,3.74,0,0,1,0-1.63,2.25,2.25,0,0,1,.94-1.28,6.47,6.47,0,0,1,3.25-.8,7,7,0,0,0,3.32-.9,6.31,6.31,0,0,0,2.3-2.4,9.61,9.61,0,0,0,.89-3,14.2,14.2,0,0,1,.69-2.86,6.42,6.42,0,0,1,1.54-2.24,7.19,7.19,0,0,1,8.41-1,8.52,8.52,0,0,1,2.42,1.92,11.69,11.69,0,0,1,1.48,2.21v-.16a1.74,1.74,0,0,0-.22-.48,8.39,8.39,0,0,0-1.1-1.66,8.53,8.53,0,0,0-2.43-2,7.5,7.5,0,0,0-4.06-1,7.63,7.63,0,0,0-4.66,2,6.84,6.84,0,0,0-1.64,2.34,14,14,0,0,0-.71,2.92,10.06,10.06,0,0,1-.87,2.94,5.82,5.82,0,0,1-2.18,2.25,6.44,6.44,0,0,1-3.15.85,6.79,6.79,0,0,0-3.44.86,2.64,2.64,0,0,0-1.09,1.49,4.2,4.2,0,0,0,0,1.8,18.33,18.33,0,0,1,.66,3.28,2.5,2.5,0,0,1-.4,1.46,2.7,2.7,0,0,1-1.22.86c-.48.19-1,.32-1.5.52a3,3,0,0,0-1.33.92,3.47,3.47,0,0,0-.44,3,9.5,9.5,0,0,0,1.23,2.57,9.94,9.94,0,0,1,1.12,2.32,6,6,0,0,1-1.6,5.92,6.1,6.1,0,0,1-2.7,1.46A6.64,6.64,0,0,1,102.17,186.88Z" transform="translate(0 0.05)" style="fill:#455a64"/><path d="M93.86,175.7a1.21,1.21,0,0,0-.22.52,2.31,2.31,0,0,0,.24,1.59,2.59,2.59,0,0,0,.8.88,2.72,2.72,0,0,0,1.36.39,3.2,3.2,0,0,0,2.84-1.73,4.23,4.23,0,0,0,.49-1.94,6.14,6.14,0,0,0-.41-2.12c-.48-1.39-1.37-2.76-1.36-4.37a3,3,0,0,1,.78-2.19,3.28,3.28,0,0,1,2.34-.68,7.91,7.91,0,0,0,2.78-.23,2.36,2.36,0,0,0,1.15-.94,3.32,3.32,0,0,0,.5-1.4,11.29,11.29,0,0,0-.18-2.84,6.32,6.32,0,0,1,.2-2.63,6.66,6.66,0,0,1,3-3.85,9.3,9.3,0,0,1,4.46-.92,13.53,13.53,0,0,0,4-.56,8.29,8.29,0,0,0,2.9-1.75,8.18,8.18,0,0,0,1.61-2,6.31,6.31,0,0,0,.8-2,10.45,10.45,0,0,1-.92,1.94,8.51,8.51,0,0,1-4.47,3.56,13.19,13.19,0,0,1-4,.5,9.52,9.52,0,0,0-4.61.93,7,7,0,0,0-3.24,4,6.87,6.87,0,0,0-.22,2.78,10.56,10.56,0,0,1,.18,2.75,2.38,2.38,0,0,1-1.42,2.05,7.81,7.81,0,0,1-2.64.21,3.54,3.54,0,0,0-2.58.79,3.25,3.25,0,0,0-.88,2.44,6.35,6.35,0,0,0,.53,2.39c.3.73.63,1.41.88,2.09a5.5,5.5,0,0,1,.41,2,4,4,0,0,1-.44,1.82,3,3,0,0,1-2.6,1.64,2.31,2.31,0,0,1-2.35-2.27h0a2.29,2.29,0,0,1,0-.37C93.74,176,93.8,175.86,93.86,175.7Z" transform="translate(0 0.05)" style="fill:#263238"/><path d="M161.15,180.84a2.52,2.52,0,0,1,0,1.67,2.21,2.21,0,0,1-1.36,1.33,2.32,2.32,0,0,1-2.33-.69,2.08,2.08,0,0,1-.52-1.35,4.43,4.43,0,0,1,.27-1.61,9.34,9.34,0,0,0,1-3.66,5.17,5.17,0,0,0-1.87-3.73,5.91,5.91,0,0,0-2-1.09,8.76,8.76,0,0,0-2.27-.37,11.81,11.81,0,0,1-2.21-.27,3,3,0,0,1-1.7-1.11,3.54,3.54,0,0,1-.58-1.9,7.08,7.08,0,0,1,.2-2,14.31,14.31,0,0,0,.65-3.73,5.68,5.68,0,0,0-1.08-3.13,7.51,7.51,0,0,0-2-1.8,13.63,13.63,0,0,1-1.64-1.18,4,4,0,0,1-1-1.37V155a1.66,1.66,0,0,0,.12.31,3.64,3.64,0,0,0,.78,1.05,12.26,12.26,0,0,0,1.62,1.25,6.82,6.82,0,0,1,2,1.78,5.31,5.31,0,0,1,1,3,15.66,15.66,0,0,1-.67,3.65,7.53,7.53,0,0,0-.23,2.06,4.1,4.1,0,0,0,.64,2.09,3.27,3.27,0,0,0,1.91,1.25,11.66,11.66,0,0,0,2.27.29,8.94,8.94,0,0,1,2.18.35,5.87,5.87,0,0,1,1.86,1,4.81,4.81,0,0,1,1.76,3.47,8.44,8.44,0,0,1-1,3.54,4.56,4.56,0,0,0-.27,1.72,2.4,2.4,0,0,0,.62,1.52,2.53,2.53,0,0,0,2.59.7,2.31,2.31,0,0,0,1.42-1.47,2.22,2.22,0,0,0,.09-1.3A1.2,1.2,0,0,0,161.15,180.84Z" transform="translate(0 0.05)" style="fill:#263238"/><path d="M116.39,196.81c-5.78,5.27-9.68,7.26-10.43,12.69a34.14,34.14,0,0,0,1.51,14.23c3.13,9.27,7.13,20.17,9.56,25.41a8.66,8.66,0,0,1,.44,6.05c-1.36,4.55-5,13.22-4.44,30.83l54.1-3.78s-9.41-21.67-11.48-32.48c-.25-1.31,1.19-16.92.5-20-2.63-11.49-15.07-22.87-19.16-29l-.47-2-19.76-3.3Z" transform="translate(0 0.05)" style="fill:#455a64"/><g style="opacity:0.30000001192092896"><path d="M116.2,243.49s6.71,14,10,15.31,31.14-2.48,31.14-2.48l-1.69-6.56Z" transform="translate(0 0.05)"/></g><path d="M140.48,205.25a5,5,0,0,1,.92.8c.56.55,1.34,1.38,2.24,2.46,1.83,2.14,4,5.36,6.5,8.81a37,37,0,0,1,5.21,9.64,24,24,0,0,1,.85,3.23,4.93,4.93,0,0,1,.13,1.21c-.09,0-.34-1.71-1.33-4.31a40.89,40.89,0,0,0-5.28-9.47c-2.51-3.46-4.63-6.69-6.37-8.88-.85-1.1-1.58-2-2.1-2.55A5.75,5.75,0,0,1,140.48,205.25Z" transform="translate(0 0.05)" style="fill:#263238"/><path d="M172.39,232.09s.44-1.83,3.7-4a13.58,13.58,0,0,0,4.7-5c.65-1,1.56-2.76,2.47-2.26s.75,1.89.13,4.08-2.47,4-1.75,4.84,10.74-.24,13.65-.83,4.28-.33,3.86,1.11-9.5,1.78-10.15,3.14.39,1.06,1.39,1.44,10.8-.68,11,1.1-1,1.9-1,1.9.3,2.11-1.29,2.71-11.53-.6-11.2.65,8,1.88,8.24,3.84-1.67,1.21-3.67.79a53.53,53.53,0,0,0-9.42-1.47c-3.32,0-9.68-.59-9.68-.59Z" transform="translate(0 0.05)" style="fill:#ffbf9d"/><path d="M200.52,237.82a43.16,43.16,0,0,1-6.63,0,44.44,44.44,0,0,1-6.61-.56,43.16,43.16,0,0,1,6.63,0A44.44,44.44,0,0,1,200.52,237.82Z" transform="translate(0 0.05)" style="fill:#c5d21e"/><path d="M131.39,243.49a5.09,5.09,0,0,1,.82-3.1,5,5,0,0,1,2.17-2.36c.1.11-.9,1.11-1.71,2.61S131.58,243.51,131.39,243.49Z" transform="translate(0 0.05)" style="fill:#263238"/><path d="M121,213.31c.1.13.2.26.29.4s.43.69.75,1.23c.65,1.09,1.57,2.72,2.74,4.82,2.32,4.2,5.65,10.27,9.61,17.84l-.22-.1,38-8.07.29-.06v.29c.45,5.49.91,11.18,1.38,17V247l-.22.05c-11.3,2.42-22.09,4.54-32,6.1-2.47.39-4.89.73-7.24,1a57,57,0,0,1-6.91.45,11.82,11.82,0,0,1-1.68-.18,2.39,2.39,0,0,1-.81-.33l-.58-.45a8.84,8.84,0,0,1-1.22-1.06,13,13,0,0,1-1.09-1.14c-.69-.77-1.36-1.54-2-2.34s-1.19-1.56-1.74-2.33c-4.37-6.19-7.39-11.53-9.5-15.19-1-1.84-1.83-3.28-2.35-4.27-.25-.47-.44-.85-.58-1.12a3.39,3.39,0,0,1-.18-.39c.08.12.15.24.22.36l.63,1.1,2.44,4.22c2.15,3.63,5.22,8.94,9.62,15.08.55.76,1.12,1.54,1.74,2.3s1.26,1.55,1.94,2.31a14.15,14.15,0,0,0,1.08,1.11,7.6,7.6,0,0,0,1.19,1l.63.47a1,1,0,0,0,.33.16,1.5,1.5,0,0,0,.36.11,9.55,9.55,0,0,0,1.6.17,55.72,55.72,0,0,0,6.83-.48c2.35-.28,4.76-.63,7.23-1,9.86-1.58,20.65-3.72,31.93-6.14l-.2.28v-.09c-.47-5.84-.93-11.53-1.37-17l.31.23-38,7.95h-.14l-.07-.14c-3.9-7.57-7.19-13.68-9.45-17.91-1.14-2.09-2-3.73-2.64-4.86l-.71-1.26Z" transform="translate(0 0.05)" style="fill:#263238"/><path d="M109.39,203s-11.7,7.84-4.66,21.53C111,236.7,121.15,251.64,125.25,254s48.34-7.2,48.34-7.2l-1.38-17.11-38,8-10.92-20.41S119,200.05,109.39,203Z" transform="translate(0 0.05)" style="fill:#455a64"/></g><g style="opacity:0.6600000262260437"><path d="M152,281.07q-10.31-4-16.1-10.68a27.43,27.43,0,0,1-6.68-15.5q-.92-8.82,3-19.36l.28-.73.29-.74,17.5,6.8q-3.67,9.49-2.58,15.85t10.11,9.9a12.4,12.4,0,0,0,9.35.15q4.45-1.75,8.53-7.42A69.39,69.39,0,0,0,183.5,244l7.82-20.12a19.35,19.35,0,0,1-9.86,3.79,27.34,27.34,0,0,1-13-2.13q-11-4.26-15.3-11.5a27.39,27.39,0,0,1-3.54-16.82,76.15,76.15,0,0,1,5.25-21,73.36,73.36,0,0,1,11.75-20.64,34.43,34.43,0,0,1,16.56-11.36q9.49-2.9,21.28,1.68,11.44,4.44,16.39,13a35.86,35.86,0,0,1,4.54,19.78,72.47,72.47,0,0,1-5.17,23.23l-17.29,44.5a95.91,95.91,0,0,1-12.1,22.41q-7.14,9.64-16.68,13.38T152,281.07ZM178,214a15.54,15.54,0,0,0,10.43.76,23.54,23.54,0,0,0,8-4.13L204.08,191a59.76,59.76,0,0,0,3.56-13,20,20,0,0,0-1.09-10.78q-2-4.62-7.69-6.85a12.94,12.94,0,0,0-10.42-.09,20.57,20.57,0,0,0-8.21,7.07,53.26,53.26,0,0,0-6.06,11.49,145.55,145.55,0,0,0-4.91,14.79q-1.87,7-.24,12.24t9,8.14Z" transform="translate(0 0.05)"/></g><path d="M145,276q-10.31-4-16.09-10.68a27.32,27.32,0,0,1-6.69-15.49q-.91-8.84,3-19.36l.28-.74.29-.73,17.5,6.8q-3.67,9.5-2.58,15.85t10.11,9.86a12.4,12.4,0,0,0,9.35.15q4.46-1.75,8.53-7.42a69.47,69.47,0,0,0,7.84-15.32l7.85-20.12a19.33,19.33,0,0,1-9.86,3.8,27.47,27.47,0,0,1-13-2.14q-11-4.26-15.3-11.5a27.29,27.29,0,0,1-3.54-16.81,76.15,76.15,0,0,1,5.25-21,73.26,73.26,0,0,1,11.76-20.57,34.54,34.54,0,0,1,16.56-11.36q9.5-2.89,21.28,1.68,11.44,4.45,16.39,13.06a35.79,35.79,0,0,1,4.46,19.67,72.42,72.42,0,0,1-5.17,23.22l-17.29,44.5a96,96,0,0,1-12.1,22.42q-7.14,9.64-16.68,13.38T145,276Zm26.06-67.07a15.57,15.57,0,0,0,10.44.76,24,24,0,0,0,8-4.14l7.62-19.63a59.76,59.76,0,0,0,3.56-13,19.93,19.93,0,0,0-1.09-10.78q-2-4.62-7.69-6.85c-3.82-1.48-7.29-1.52-10.42-.09a20.73,20.73,0,0,0-8.21,7.07,53,53,0,0,0-6.06,11.48,147.15,147.15,0,0,0-4.91,14.88q-1.87,7-.24,12.24t9,8.06Z" transform="translate(0 0.05)" style="fill:#c5d21e"/><g style="opacity:0.4699999988079071"><path d="M152.2,280.42q-10.3-4-16.1-10.68a27.41,27.41,0,0,1-6.71-15.49q-.9-8.83,3-19.36l.28-.74.29-.73,17.5,6.8q-3.69,9.5-2.58,15.85T158,265.93a12.4,12.4,0,0,0,9.35.15q4.46-1.75,8.53-7.42a69.83,69.83,0,0,0,7.84-15.31l7.82-20.13a19.33,19.33,0,0,1-9.86,3.8,27.47,27.47,0,0,1-13-2.14q-11-4.26-15.3-11.5a27.37,27.37,0,0,1-3.52-16.77,76.15,76.15,0,0,1,5.25-21A73.26,73.26,0,0,1,166.86,155a34.5,34.5,0,0,1,16.53-11.43q9.5-2.9,21.28,1.68,11.45,4.46,16.39,13.06a35.7,35.7,0,0,1,4.48,19.72,72.12,72.12,0,0,1-5.15,23.22l-17.29,44.5A96,96,0,0,1,191,268.21q-7.12,9.65-16.61,13.4T152.2,280.42Zm26.06-67.07a15.54,15.54,0,0,0,10.43.76,23.74,23.74,0,0,0,8-4.14l7.63-19.63a59.76,59.76,0,0,0,3.56-13,19.93,19.93,0,0,0-1.09-10.78q-2-4.62-7.7-6.85c-3.81-1.48-7.29-1.51-10.41-.09a20.57,20.57,0,0,0-8.21,7.07,52.23,52.23,0,0,0-6.08,11.46A146.67,146.67,0,0,0,169.47,193q-1.87,7-.24,12.24t9,8.11Z" transform="translate(0 0.05)" style="fill:#c5d21e"/></g><path d="M109,203.41s-11.7,7.84-4.66,21.53c6.26,12.17,16.42,27.11,20.52,29.46s48.34-7.2,48.34-7.2l-1.38-17.11-38,8-10.92-20.41S118.58,200.46,109,203.41Z" transform="translate(0 0.05)" style="fill:#455a64"/><path d="M172.77,232.09s.44-1.83,3.7-4a13.67,13.67,0,0,0,4.7-5c.65-1,1.56-2.76,2.47-2.26s.75,1.89.13,4.08-2.47,4-1.75,4.84,10.74-.24,13.65-.83,4.28-.33,3.86,1.11-9.5,1.78-10.15,3.14.39,1.06,1.39,1.44,10.8-.68,11,1.1-1,1.9-1,1.9.3,2.11-1.29,2.71-11.53-.6-11.2.65,8,1.88,8.24,3.84-1.67,1.21-3.67.79a53.53,53.53,0,0,0-9.42-1.47c-3.32,0-9.68-.59-9.68-.59Z" transform="translate(0 0.05)" style="fill:#ffbf9d"/><path d="M225.83,190.8c.9,1.34-1.9,2.94-1.9,2.94.74.48.32,3-.86,3.22.54.33.91.33,1.2.9a2,2,0,0,1,0,1.84,1.49,1.49,0,0,1-1.61.76,2.37,2.37,0,0,1-.79,3.91,2.59,2.59,0,0,1-.86.18h-.34a.38.38,0,0,1-.13-.09c-.18-.15-.33-.34-.53-.48l-.22-.16a4.33,4.33,0,0,0-1.14-.51q-.28-.06-.57-.15l-.3-.24a5.75,5.75,0,0,0-2.32-.74,4.67,4.67,0,0,1-2.44-1,1.72,1.72,0,0,1-.19-2.39,1.16,1.16,0,0,1-1-1.13,1.65,1.65,0,0,1,.81-1.41,3.08,3.08,0,0,1,1.62-.44,1.29,1.29,0,0,1-.93-1.53,2,2,0,0,1,1.33-1.37,4.51,4.51,0,0,1,2-.13c.67.07,3.43.33,4.1.3l.49-1.83.06-.23c1.19-.28,1.53-.43,2.6-.61C224.69,190.27,225.46,190.24,225.83,190.8Z" transform="translate(0 0.05)" style="fill:#ffbf9d"/><path d="M221.06,207a2,2,0,0,1-.83,1.38,4.09,4.09,0,0,1-2.4-.06l.25-1.89.07-.46c-.17-.4-1-.5-1.32-.73a1.46,1.46,0,0,1-.37-2,2,2,0,0,1,2-.78,3,3,0,0,1,1.84,1.21A4.25,4.25,0,0,1,221.06,207Z" transform="translate(0 0.05)" style="fill:#ffbf9d"/><path d="M222.93,200.5a48.93,48.93,0,0,0-10.05-1.72A50.32,50.32,0,0,0,222.93,200.5Z" transform="translate(0 0.05)" style="fill:#ff9a6c"/><path d="M223.22,197a14,14,0,0,0-4.5-1.11,13.85,13.85,0,0,0-4.63-.12,41.33,41.33,0,0,0,4.56.64A41.38,41.38,0,0,0,223.22,197Z" transform="translate(0 0.05)" style="fill:#ff9a6c"/><path d="M223.51,193.52a10.68,10.68,0,0,0-3.74-.77,14,14,0,0,0-3.82-.11,14.09,14.09,0,0,0,3.76.62A21.06,21.06,0,0,0,223.51,193.52Z" transform="translate(0 0.05)" style="fill:#ff9a6c"/><path d="M221,205.77c.06,0,.22-.32.1-.89a2.85,2.85,0,0,0-1.3-1.73,5.79,5.79,0,0,0-2-.8c-.63-.07-.91.33-.83.36a1.63,1.63,0,0,1,.76,0,9.93,9.93,0,0,1,1.76.87,3.06,3.06,0,0,1,1.25,1.39C220.88,205.44,220.87,205.76,221,205.77Z" transform="translate(0 0.05)" style="fill:#ff9a6c"/><path d="M338.39,284.44l-6.21-3.78s-6.35-4.19-6.74-4.83a8.82,8.82,0,0,1-.79-3.27c0-.92,2.86-3,3.18-4.76s-1.57-3.5-2.25-3.8-1.38.75-1.53,1.53-1.29,1.92-3.08,2.32-4.25,2.73-4.25,2.73l-5.38,10.12c.92,1.73,11.94,5.85,12.28,6.05s12.09.42,13.26,0a1.89,1.89,0,0,0,1.51-2.14A.49.49,0,0,0,338.39,284.44Z" transform="translate(0 0.05)" style="fill:#ae7461"/><path d="M405.07,248.14c.77,1.51-2.34,2.84-2.34,2.84.72.58,0,3.14-1.28,3.24.53.41.9.45,1.13,1.08a2.09,2.09,0,0,1-.19,1.94,1.55,1.55,0,0,1-1.77.6,2.49,2.49,0,0,1-2.2,4.05,1,1,0,0,1-.35,0,.25.25,0,0,1-.12-.11c-.18-.18-.31-.39-.49-.56l-.22-.2a4.85,4.85,0,0,0-1.12-.66,4,4,0,0,1-.57-.23,3.83,3.83,0,0,1-.29-.28,6.07,6.07,0,0,0-2.33-1.05,4.82,4.82,0,0,1-2.41-1.34,1.79,1.79,0,0,1,.08-2.5,1.25,1.25,0,0,1-1-1.31,1.78,1.78,0,0,1,1-1.37,3.36,3.36,0,0,1,1.74-.26,1.34,1.34,0,0,1-.79-1.7,2.06,2.06,0,0,1,1.54-1.27,4.76,4.76,0,0,1,2.09.13c.68.14,3.53.75,4.23.81l.73-1.84.09-.25c1.27-.14,1.65-.25,2.77-.31C403.94,247.46,404.74,247.52,405.07,248.14Z" transform="translate(0 0.05)" style="fill:#ae7461"/><path d="M399.56,262.55a1.92,1.92,0,0,1-.3,1.76,4.09,4.09,0,0,1-2.73.32l-.63-2.28-.14-.56c-.38-.45-1.33-.47-1.82-.65a2.25,2.25,0,0,1-1.36-2.32,1.74,1.74,0,0,1,1.88-1.24,4.6,4.6,0,0,1,2.64,1.11A6.84,6.84,0,0,1,399.56,262.55Z" transform="translate(0 0.05)" style="fill:#ae7461"/><path d="M400.88,257.88a27.71,27.71,0,0,0-5-1.75,26.6,26.6,0,0,0-5.2-1.24A51.2,51.2,0,0,0,400.88,257.88Z" transform="translate(0 0.05)" style="fill:#6f4439"/><path d="M401.6,254.25a22.65,22.65,0,0,0-9.34-2.37,43.84,43.84,0,0,0,4.67,1.21A39.33,39.33,0,0,0,401.6,254.25Z" transform="translate(0 0.05)" style="fill:#6f4439"/><path d="M402.32,250.7a10.9,10.9,0,0,0-3.8-1.25,15.47,15.47,0,0,0-4-.58,14.26,14.26,0,0,0,3.83,1.11A22.35,22.35,0,0,0,402.32,250.7Z" transform="translate(0 0.05)" style="fill:#6f4439"/><path d="M397.55,262.78a1.13,1.13,0,0,0,.21-.91,3,3,0,0,0-1.13-2,5.84,5.84,0,0,0-2-1.06c-.65-.16-1,.23-.91.27a1.52,1.52,0,0,1,.79.09,10.88,10.88,0,0,1,1.73,1.12,3.33,3.33,0,0,1,1.11,1.6C397.5,262.44,397.46,262.74,397.55,262.78Z" transform="translate(0 0.05)" style="fill:#6f4439"/><path d="M589.06,224.84c-.76,1.52-3.66-.23-3.66-.23-.06.93-2.56,1.82-3.38.86,0,.67.16,1-.21,1.56a2.17,2.17,0,0,1-1.67,1,1.55,1.55,0,0,1-1.51-1.09,2.48,2.48,0,0,1-4,1.28,2.68,2.68,0,0,1-.61-.69,1,1,0,0,1-.16-.32v-.16a4.58,4.58,0,0,1,.18-.73V226a4.38,4.38,0,0,0-.11-1.3,3.1,3.1,0,0,1-.15-.6,2.63,2.63,0,0,1,.06-.39,6.25,6.25,0,0,0-.54-2.48,5.07,5.07,0,0,1-.32-2.75,1.81,1.81,0,0,1,2.08-1.39,1.22,1.22,0,0,1,.48-1.57,1.77,1.77,0,0,1,1.7,0,3.29,3.29,0,0,1,1.24,1.27,1.34,1.34,0,0,1,.91-1.64,2.09,2.09,0,0,1,1.94.52,4.92,4.92,0,0,1,1.14,1.74c.27.64,1.44,3.31,1.81,3.91l1.92-.5.25,0c.86.94,1.17,1.18,1.88,2.06C588.94,223.5,589.39,224.19,589.06,224.84Z" transform="translate(0 0.05)" style="fill:#ffbf9d"/><path d="M572.63,229.54a2,2,0,0,1-1.67,0,4.17,4.17,0,0,1-1.17-2.23l1.85-.73.46-.18c.28-.35,0-1.12,0-1.57a1.52,1.52,0,0,1,1.62-1.35,2.05,2.05,0,0,1,1.72,1.4,3.18,3.18,0,0,1-.17,2.29A4.39,4.39,0,0,1,572.63,229.54Z" transform="translate(0 0.05)" style="fill:#ffbf9d"/><path d="M578.46,227a26.83,26.83,0,0,0-1.53-5.11,26.48,26.48,0,0,0-2-4.94,26.92,26.92,0,0,0,1.53,5.12A25.1,25.1,0,0,0,578.46,227Z" transform="translate(0 0.05)" style="fill:#ff9a6c"/><path d="M581.84,225.43a15.53,15.53,0,0,0-1.29-4.67,14.46,14.46,0,0,0-2.26-4.29A42.15,42.15,0,0,0,580,221,36,36,0,0,0,581.84,225.43Z" transform="translate(0 0.05)" style="fill:#ff9a6c"/><path d="M585.91,224.61a10.74,10.74,0,0,0-1.21-3.82,15.62,15.62,0,0,0-1.86-3.58,13.59,13.59,0,0,0,1.35,3.77A22.3,22.3,0,0,0,585.91,224.61Z" transform="translate(0 0.05)" style="fill:#ff9a6c"/></svg>