<svg id="Layer_1" data-name="Layer 1" xmlns="http://www.w3.org/2000/svg" viewBox="0 0 280.38 258.7"><rect id="Rectangle_7901" data-name="Rectangle 7901" x="233.78" y="212.7" width="21.2" height="6.8" style="fill:#e7e6e6"/><rect id="Rectangle_7902" data-name="Rectangle 7902" x="104.78" y="103.7" width="21.2" height="6.8" style="fill:#e7e6e6"/><path id="Path_2057" data-name="Path 2057" d="M247.8,307.1l10.7-.2,5.3-.1h5.3l-.3.3v-6.8l.3.3H258.5l-5.3-.1-5.3-.1.1-.1Zm0,0-.1-6.8v-.2h.1l5.3-.1,5.3-.1h10.9v7.3h-5.6l-5.3-.1Z" transform="translate(-2.12 -79.1)" style="fill:#e7e6e6"/><path id="Path_2058" data-name="Path 2058" d="M146.8,256.7l10.7-.2,5.3-.1h5.3l-.3.3v-6.8l.3.3H152.2l-5.3-.1.1-.1Zm0,0-.1-6.8v-.1h.1l5.3-.1h16.2v7.4h-5.7l-5.3-.1Z" transform="translate(-2.12 -79.1)" style="fill:#e7e6e6"/><path id="Path_2059" data-name="Path 2059" d="M158.6,265.2l10.7-.2,5.3-.1h5.3l-.3.3v-6.8l.3.3H164l-5.3-.1.1-.1Zm0,0-.1-6.7v-.1h.1l5.3-.1h16.2v7.3h-5.7l-5.3-.1Z" transform="translate(-2.12 -79.1)" style="fill:#e7e6e6"/><rect id="Rectangle_7903" data-name="Rectangle 7903" x="168.28" y="170.8" width="21.2" height="6.8" style="fill:#e7e6e6"/><rect id="Rectangle_7904" data-name="Rectangle 7904" x="17.08" y="221.2" width="21.2" height="6.8" style="fill:#e7e6e6"/><rect id="Rectangle_7905" data-name="Rectangle 7905" x="28.88" y="4.2" width="21.2" height="6.8" style="fill:#e7e6e6"/><path id="Path_2060" data-name="Path 2060" d="M19.2,98.6l10.7-.2,5.3-.1h5.3l-.3.3V91.8l.3.3H29.9L24.5,92l-5.3-.1.1-.2Zm0,0L19,91.8v-.1h5.4l5.3-.1H40.6v7.3H35l-5.3-.1Z" transform="translate(-2.12 -79.1)" style="fill:#e7e6e6"/><path id="Path_2061" data-name="Path 2061" d="M235.9,90l10.7-.2,5.3-.1h5.3l-.3.3V83.2l.3.3H241.3l-5.3-.1.1-.1Zm0,0-.1-6.8v-.1h.1l5.3-.1,5.3-.1h10.9v7.4h-5.6l-5.3-.1Z" transform="translate(-2.12 -79.1)" style="fill:#e7e6e6"/><path id="Path_2062" data-name="Path 2062" d="M193.6,322.8h70.5l2.3-44.7H191.3Z" transform="translate(-2.12 -79.1)" style="fill:#e7e6e6"/><path id="Path_2063" data-name="Path 2063" d="M259,298.5H196.8l-.8-15.6h64Zm-61.6-.6h61l.9-14.4H196.6Z" transform="translate(-2.12 -79.1)" style="fill:#d3d3d3"/><path id="Path_2064" data-name="Path 2064" d="M258.2,316.4H198.7l-.7-14.1h61Zm-59-.6h58.4l.8-12.9H198.5Z" transform="translate(-2.12 -79.1)" style="fill:#d3d3d3"/><path id="Path_2065" data-name="Path 2065" d="M235.1,292.4H221.9l-.5-3.8h14.2Zm-12.7-.6h12.2l.3-2.6H222.1Z" transform="translate(-2.12 -79.1)" style="fill:#d3d3d3"/><path id="Path_2066" data-name="Path 2066" d="M235.1,311.3H221.9l-.5-3.8h14.2Zm-12.7-.6h12.2l.3-2.6H222.1Z" transform="translate(-2.12 -79.1)" style="fill:#d3d3d3"/><path id="Path_2067" data-name="Path 2067" d="M203.4,322.8l-.7,4.9-1.4,9.8h-2.7V322.8Z" transform="translate(-2.12 -79.1)" style="fill:#e7e6e6"/><path id="Path_2068" data-name="Path 2068" d="M203.4,322.8l-.7,4.9h-4.1v-4.9Z" transform="translate(-2.12 -79.1)" style="fill:#d3d3d3"/><path id="Path_2069" data-name="Path 2069" d="M254.4,322.8l.7,4.9,1.4,9.8h2.7V322.8Z" transform="translate(-2.12 -79.1)" style="fill:#e7e6e6"/><path id="Path_2070" data-name="Path 2070" d="M254.4,322.8l.7,4.9h4.1v-4.9Z" transform="translate(-2.12 -79.1)" style="fill:#d3d3d3"/><path id="Path_2071" data-name="Path 2071" d="M270.4,166.5H168.9V79.1H270.4Zm-100.9-.6H269.8V79.8H169.5Z" transform="translate(-2.12 -79.1)" style="fill:#e7e6e6"/><path id="Path_2072" data-name="Path 2072" d="M174,82.5a1.2,1.2,0,1,1-1.2-1.2,1.41,1.41,0,0,1,1.2,1.2Z" transform="translate(-2.12 -79.1)" style="fill:#959494"/><path id="Path_2073" data-name="Path 2073" d="M179,82.5a1.2,1.2,0,1,1-1.2-1.2.91.91,0,0,1,.8.4A.74.74,0,0,1,179,82.5Z" transform="translate(-2.12 -79.1)" style="fill:#e7e6e6"/><path id="Path_2074" data-name="Path 2074" d="M184.1,82.5a1.22,1.22,0,0,1-1.2,1.2,1.2,1.2,0,0,1,0-2.4.91.91,0,0,1,.8.4C184,81.8,184.1,82.2,184.1,82.5Z" transform="translate(-2.12 -79.1)" style="fill:#a3cc84"/><rect id="Rectangle_7906" data-name="Rectangle 7906" x="167.08" y="6.1" width="100.9" height="0.6" style="fill:#e7e6e6"/><path id="Path_2075" data-name="Path 2075" d="M235.8,270.4a25.74,25.74,0,0,1-2.1,14.7,11.29,11.29,0,0,0-1.5,5.7c.2.1-.5.1-.5-.1-5.4-3.1-12.4-3.7-16.6-8.7a17.74,17.74,0,0,1-3.5-8.5,25.54,25.54,0,0,1,.2-10.3,10.36,10.36,0,0,1,4.9-6.8,12.18,12.18,0,0,1,9-.4C231.9,257.9,234.9,264.5,235.8,270.4Z" transform="translate(-2.12 -79.1)" style="fill:#a3cc84"/><path id="Path_2076" data-name="Path 2076" d="M238.6,310.7c-.7-2.5-1.5-5-2.3-7.4-1.5-4.8-3.1-9.7-4.8-14.4-1-2.9-2.1-5.7-3.3-8.5a47.76,47.76,0,0,1,.6-5.3c.5-2.1,1.1-4.2,1.7-6.2,0-.1-.2-.2-.2-.1-1.2,2.8-2.8,6.5-2.9,9.9-1.3-3.2-2.8-6.3-4.3-9.4a40.69,40.69,0,0,1,.2-7.8c0-.1-.2-.2-.2,0a26.77,26.77,0,0,0-.5,6.9c-1.2-2.3-2.4-4.6-3.7-6.8-.1-.2-.4,0-.3.2,2,3.9,4,8,5.7,12a25.85,25.85,0,0,0-8.5-4.9c-.1-.1-.2.1-.1.2a31.4,31.4,0,0,1,9.2,6.1c1.3,3,2.5,6,3.7,9.1a28.07,28.07,0,0,0-12.6-6.7c-.1,0-.2.2,0,.2,5.2,1.6,9.3,4.5,13.3,8.1.5,1.2.9,2.5,1.4,3.7q2.55,7,4.8,14.1c.7,2.3,1.4,4.5,2.2,6.8s1.4,5,2.4,7.4c.1.2.5.2.4-.1a52.78,52.78,0,0,0-1.9-7.1Z" transform="translate(-2.12 -79.1)" style="fill:#1c262b"/><path id="Path_2077" data-name="Path 2077" d="M229.5,265.6a14.08,14.08,0,0,0-2,4.9s.1.1.1,0a50,50,0,0,1,2.1-4.8C229.8,265.6,229.6,265.5,229.5,265.6Z" transform="translate(-2.12 -79.1)" style="fill:#1c262b"/><path id="Path_2078" data-name="Path 2078" d="M219.8,277a14.12,14.12,0,0,0-4.9-1.6s-.1.1,0,.1l2.4.9c.8.3,1.6.7,2.4,1,.1,0,.2,0,.2-.1h0c0-.2,0-.3-.1-.3Z" transform="translate(-2.12 -79.1)" style="fill:#1c262b"/><path id="Path_2079" data-name="Path 2079" d="M217.1,263.3a8.64,8.64,0,0,0-1.6-1h-.1v.1a13,13,0,0,0,1.5,1C217.1,263.6,217.2,263.4,217.1,263.3Z" transform="translate(-2.12 -79.1)" style="fill:#1c262b"/><path id="Path_2080" data-name="Path 2080" d="M254.1,288.9c-3.9,1.2-7.9,2.2-11.8,3.4-.3.1-7-12.6-4.6-19.2A21.47,21.47,0,0,1,251,260.4c2.8-.9,6.2-1.8,9.2-1.1a7.52,7.52,0,0,1,5.3,5.2c1.2,3.4.8,7.4.1,10.8a18,18,0,0,1-3.9,8.8A13,13,0,0,1,254.1,288.9Z" transform="translate(-2.12 -79.1)" style="fill:#a3cc84"/><path id="Path_2081" data-name="Path 2081" d="M259.8,276.8a51.2,51.2,0,0,1-7.7,3,28.2,28.2,0,0,0-5.1,1.9c1.7-3.7,3.5-7.3,5.4-10.9a17.29,17.29,0,0,0,7.1-3.7v-.2h-.2a35.18,35.18,0,0,1-6.7,3.4c.5-1,1.1-1.9,1.6-2.9.1-.3-.2-.5-.4-.3a80.36,80.36,0,0,0-5.6,9.4,41,41,0,0,1-.4-8.6h-.1a27,27,0,0,0,.1,9.4c-1.4,2.7-2.6,5.6-3.8,8.4-.4-1.7-1-3.4-1.4-5.1a24.21,24.21,0,0,1-.6-7.6h-.1a27.44,27.44,0,0,0,1.6,13.9c-.7,1.7-1.3,3.4-1.9,5.2a101.49,101.49,0,0,0-5.2,27.2.2.2,0,0,0,.4,0h0a130.57,130.57,0,0,1,5.9-26.9,94,94,0,0,1,3.9-10c2.3-.7,4.6-1.6,6.9-2.4a22.3,22.3,0,0,0,6.4-3.1s.1-.1,0-.1Z" transform="translate(-2.12 -79.1)" style="fill:#1c262b"/><path id="Path_2082" data-name="Path 2082" d="M263.5,273.1c-2.4.9-4.7,2-7.1,2.9-.1,0,0,.2.1.2a15.48,15.48,0,0,0,7.1-3l-.1-.1Z" transform="translate(-2.12 -79.1)" style="fill:#1c262b"/><path id="Path_2083" data-name="Path 2083" d="M243.9,268c0-.1-.2-.2-.2-.1a12.13,12.13,0,0,0-.5,6.8c0,.1.2.1.2,0A37.1,37.1,0,0,1,243.9,268Z" transform="translate(-2.12 -79.1)" style="fill:#1c262b"/><path id="Path_2084" data-name="Path 2084" d="M253.8,262.8a5.61,5.61,0,0,0-1,3.8c0,.1.1.1.2,0,.3-1.3.8-2.4,1.2-3.6,0-.1,0-.2-.1-.2h0c-.1-.1-.2,0-.3,0Z" transform="translate(-2.12 -79.1)" style="fill:#1c262b"/><path id="Path_2085" data-name="Path 2085" d="M207.5,294.5c1.2,3.7,3.9,8.7,8.2,8.7,2.8,0,5.6-.3,8.5-.3s6,0,9.1.1c.2,0-.4-9-7.6-13.4a20,20,0,0,0-6.8-2.1,30.63,30.63,0,0,0-8-.8c-1.7.1-3,.4-3.6,2.1A8.57,8.57,0,0,0,207.5,294.5Z" transform="translate(-2.12 -79.1)" style="fill:#a3cc84"/><path id="Path_2086" data-name="Path 2086" d="M210.6,289.9l5.3,1.5a10,10,0,0,0-1.5-1.4c-.8-.6-1.6-1.1-2.4-1.7-.1,0,0-.2.1-.1a10.21,10.21,0,0,1,4.3,3.4c2.2.7,4.4,1.5,6.5,2.4a23.21,23.21,0,0,1,4.1,2.2,10.1,10.1,0,0,0-5-5.4v-.2h.1a10.2,10.2,0,0,1,5.6,6.1,24.07,24.07,0,0,1,4.1,3.7c4.8,5.4,8.6,12.7,8.6,20.1a.15.15,0,0,1-.3,0,41.17,41.17,0,0,0-9.1-19.6,5.73,5.73,0,0,0-1.1-1.1,26,26,0,0,0-4-.3,35.7,35.7,0,0,0-4.6.4c-2.5.2-5.3.2-7.6-1-.1-.1,0-.2.1-.2,5.1,1.8,10.4-.5,15.5.6a22.89,22.89,0,0,0-7.5-4.8l-.5-.2c-3.3.4-6.7,1.2-9.9.2,0,0-.1-.1,0-.1h.1c3.1.8,6-.2,9.1-.4-3.3-1.3-6.6-2.3-10-3.6C210.3,290.1,210.3,289.9,210.6,289.9Z" transform="translate(-2.12 -79.1)" style="fill:#1c262b"/><path id="Path_2087" data-name="Path 2087" d="M209.1,293.1c1.6.2,3.2.3,4.7.4h0a9.81,9.81,0,0,1-4.8-.3c.1.1.1,0,.1-.1Z" transform="translate(-2.12 -79.1)" style="fill:#1c262b"/><path id="Path_2088" data-name="Path 2088" d="M219.9,290a10,10,0,0,1,2.4,1.6c.1.1,0,.2-.1.1a8.34,8.34,0,0,0-1.2-.8,10.54,10.54,0,0,1-1.1-.7c-.1-.1-.1-.1,0-.2Z" transform="translate(-2.12 -79.1)" style="fill:#1c262b"/><path id="Path_2089" data-name="Path 2089" d="M245.4,301.8c-.1.1.1.2.2.1h0l.1.1a66.13,66.13,0,0,0,8.9,1.5c2.4.2,5.2.3,7.2-1,2.8-1.9,4.7-6.9,3.2-10.1-1.8-3.8-7.3-1.7-10-.4A20.32,20.32,0,0,0,245.4,301.8Z" transform="translate(-2.12 -79.1)" style="fill:#a3cc84"/><path id="Path_2090" data-name="Path 2090" d="M243.3,303.5a29.49,29.49,0,0,1,5.3-4,17.39,17.39,0,0,1,5.4-5.4c.1-.1.2.1.1.2a25.06,25.06,0,0,0-4.5,4.7,43.28,43.28,0,0,1,6.6-3,9.57,9.57,0,0,1,3.6-3.6h0a14.84,14.84,0,0,0-3.2,3.4c1.3-.5,2.7-1,4.1-1.4.1,0,.2.1,0,.2a76,76,0,0,0-7.3,3.1,28.85,28.85,0,0,0,8.8,0c.1,0,.1.1,0,.1a17.65,17.65,0,0,1-9.4.1,38.27,38.27,0,0,0-4.4,2.5,11,11,0,0,1,3.6.3,27,27,0,0,0,6.3.7.1.1,0,0,1,.1.1h0a.1.1,0,0,1-.1.1h0c-3.7.6-7.1-1-10.7-.6a27.16,27.16,0,0,0-3.8,3.1,28.28,28.28,0,0,0-5.5,7.8c-1.5,3.1-2.4,6.4-3.6,9.6a.1.1,0,0,1-.2,0h0C235.5,315,238.7,308,243.3,303.5Z" transform="translate(-2.12 -79.1)" style="fill:#1c262b"/><path id="Path_2091" data-name="Path 2091" d="M254.3,294.8a4.81,4.81,0,0,1,.9-1.1,4.44,4.44,0,0,1,1.1-.8h0c-.3.3-.7.6-1,.9s-.5.8-1,1C254.4,295,254.3,294.9,254.3,294.8Z" transform="translate(-2.12 -79.1)" style="fill:#1c262b"/><path id="Path_2092" data-name="Path 2092" d="M260.4,296.8c.5-.1,1.1-.1,1.7-.2a9.83,9.83,0,0,0,1.6-.5.1.1,0,0,1,.1.1v.1a5.59,5.59,0,0,1-3.3.8c-.2-.1-.2-.2-.1-.3h0c-.1.1-.1,0,0,0Z" transform="translate(-2.12 -79.1)" style="fill:#1c262b"/><path id="Path_2093" data-name="Path 2093" d="M228.2,313.5l.5,5.5,1.6,18.4h14.4l2-18.4.6-5.5Z" transform="translate(-2.12 -79.1)" style="fill:#055485"/><path id="Path_2094" data-name="Path 2094" d="M228.2,313.5l.5,5.5h18.1l.6-5.5Z" transform="translate(-2.12 -79.1)" style="fill:#0e4668"/><rect id="Rectangle_7907" data-name="Rectangle 7907" x="224.68" y="233" width="22" height="4.4" style="fill:#29373e"/><path id="Path_2095" data-name="Path 2095" d="M21.7,337.4l30.6-.1,30.6-.1,61.2-.1,61.2.1,30.6.1,30.6.1-30.6.1-30.6.1-61.2.1-61.2-.1-30.6-.1Z" transform="translate(-2.12 -79.1)" style="fill:#1c262b"/><rect id="Rectangle_7908" data-name="Rectangle 7908" x="30.78" y="11.2" width="222.4" height="140.7" style="fill:#fff"/><path id="Path_2096" data-name="Path 2096" d="M255.3,231.1l-222.4.1h-.1v-.1L32.7,90.3v-.1h.1l222.4.1h.1V231.1Zm0,0-.1-140.7.1.1H32.9l.1-.1V231.1l-.1-.1Z" transform="translate(-2.12 -79.1)" style="fill:#1c262b"/><rect id="Rectangle_7909" data-name="Rectangle 7909" x="30.78" y="11.2" width="222.4" height="5.4" style="fill:#055485"/><path id="Path_2097" data-name="Path 2097" d="M38.1,93.1A1.1,1.1,0,1,1,37,92a1,1,0,0,1,1.1,1.1Z" transform="translate(-2.12 -79.1)" style="fill:#c5c800"/><path id="Path_2098" data-name="Path 2098" d="M42.5,93.1A1.1,1.1,0,1,1,41.4,92a1,1,0,0,1,1.1,1.1Z" transform="translate(-2.12 -79.1)" style="fill:#fff"/><path id="Path_2099" data-name="Path 2099" d="M47,93.1A1.1,1.1,0,1,1,45.9,92,1,1,0,0,1,47,93.1Z" transform="translate(-2.12 -79.1)" style="fill:#354952"/><rect id="Rectangle_7910" data-name="Rectangle 7910" x="75.08" y="84.8" width="23" height="30.1" style="fill:#e7e6e6"/><rect id="Rectangle_7911" data-name="Rectangle 7911" x="102.78" y="84.8" width="23" height="30.1" style="fill:#e7e6e6"/><rect id="Rectangle_7912" data-name="Rectangle 7912" x="130.48" y="84.8" width="23" height="30.1" style="fill:#e7e6e6"/><rect id="Rectangle_7913" data-name="Rectangle 7913" x="158.18" y="84.8" width="23" height="30.1" style="fill:#e7e6e6"/><rect id="Rectangle_7914" data-name="Rectangle 7914" x="185.88" y="84.8" width="23" height="30.1" style="fill:#e7e6e6"/><path id="Path_2100" data-name="Path 2100" d="M92,177.4a5,5,0,0,1,1.6,4,5.52,5.52,0,0,1-1.6,3.9,5.28,5.28,0,0,1-3.9,1.6h0a5.52,5.52,0,0,1-3.9-1.6,1.24,1.24,0,0,1-.1-1.7l.1-.1a1.27,1.27,0,0,1,1.8,0h0a2.94,2.94,0,0,0,2.2.9,2.72,2.72,0,0,0,2.1-.9,3,3,0,0,0,0-4.3,2.94,2.94,0,0,0-2.2-.9,3.1,3.1,0,0,0-2.2.9,1.27,1.27,0,0,1-1.8,0h0c-.1-.1-.2-.2-.2-.3v-.8l.7-5.8a1.46,1.46,0,0,1,.6-.9h.2a1.27,1.27,0,0,1,.6-.1h6.6a1.3,1.3,0,0,1,.2,2.6H87l-.3,2.2a7.72,7.72,0,0,1,1.5-.2,4.64,4.64,0,0,1,3.8,1.5Z" transform="translate(-2.12 -79.1)" style="fill:#bcbbbb"/><path id="Path_2101" data-name="Path 2101" d="M119.7,177.4a5.28,5.28,0,0,1,1.6,3.9,5.59,5.59,0,0,1-5.6,5.6,6,6,0,0,1-4-1.6,1.27,1.27,0,1,1,1.8-1.8,2.88,2.88,0,0,0,2.1.9,3.07,3.07,0,0,0,3.1-3.1,2.72,2.72,0,0,0-.9-2.1,2.88,2.88,0,0,0-2.1-.9,1,1,0,0,1-.9-.4h0a1.27,1.27,0,0,1,0-1.8h0l2.3-2.3h-3.6a1.4,1.4,0,0,1-1.2-1.4,1.29,1.29,0,0,1,1.2-1.2h6.6a1.24,1.24,0,0,1,1.3,1.2h0a1.42,1.42,0,0,1-.2.6c-.1.1-.1.2-.2.3l-2.9,2.9a4.81,4.81,0,0,1,1.6,1.2Z" transform="translate(-2.12 -79.1)" style="fill:#bcbbbb"/><path id="Path_2102" data-name="Path 2102" d="M147.4,177.4a5.28,5.28,0,0,1,1.6,3.9,5.59,5.59,0,0,1-5.6,5.6,6,6,0,0,1-4-1.6,1.27,1.27,0,0,1,0-1.8,1.37,1.37,0,0,1,1.8-.1h0a2.88,2.88,0,0,0,2.1.9,3.07,3.07,0,0,0,3.1-3.1,2.72,2.72,0,0,0-.9-2.1,2.88,2.88,0,0,0-2.1-.9,1,1,0,0,1-.9-.4h0a1.37,1.37,0,0,1-.1-1.8h0l2.3-2.3h-3.6a1.4,1.4,0,0,1-1.2-1.4,1.29,1.29,0,0,1,1.2-1.2h6.6a1.24,1.24,0,0,1,1.3,1.2h0a1.42,1.42,0,0,1-.2.6c-.1.1-.1.2-.2.3l-2.8,2.9A7,7,0,0,1,147.4,177.4Z" transform="translate(-2.12 -79.1)" style="fill:#bcbbbb"/><path id="Path_2103" data-name="Path 2103" d="M177.1,181.6a5.4,5.4,0,1,1-8.4-4.5,2.93,2.93,0,0,1-.7-2.2,3.75,3.75,0,1,1,7.5-.1v.1a4.1,4.1,0,0,1-.7,2.2A5.59,5.59,0,0,1,177.1,181.6Zm-2.4,0a3,3,0,1,0-3.1,2.9h.2a3,3,0,0,0,2.9-2.9Zm-4.2-6.7a1.3,1.3,0,1,0,1.3-1.3h0a1.32,1.32,0,0,0-1.3,1.3Z" transform="translate(-2.12 -79.1)" style="fill:#bcbbbb"/><rect id="Rectangle_7915" data-name="Rectangle 7915" x="125.58" y="125.5" width="32.7" height="10.2" style="fill:#a3cc84"/><path id="Path_2104" data-name="Path 2104" d="M134.7,210.5a.3.3,0,0,1,.4,0h0a1.78,1.78,0,0,0,1,.4,1.42,1.42,0,0,0,.6-.2.52.52,0,0,0,.2-.4v-.2a.1.1,0,0,0-.1-.1,1.85,1.85,0,0,0-.7-.2h0a2.54,2.54,0,0,1-.7-.2,1,1,0,0,1-.5-.4.6.6,0,0,1-.1-.4.84.84,0,0,1,.4-.7,1.61,1.61,0,0,1,.9-.3,2.1,2.1,0,0,1,1.1.4c.1.1.1.2.1.4h0c-.1.1-.2.2-.3.1h0a1.14,1.14,0,0,0-.8-.3,1.42,1.42,0,0,0-.6.2c-.1.1-.2.2-.2.3v.1a.1.1,0,0,0,.1.1,1.42,1.42,0,0,0,.6.2h0a1.85,1.85,0,0,1,.7.2,1,1,0,0,1,.5.4.6.6,0,0,1,.1.4,1.23,1.23,0,0,1-.4.8,1.61,1.61,0,0,1-.9.3,2.11,2.11,0,0,1-1.3-.5C134.6,210.7,134.6,210.6,134.7,210.5Z" transform="translate(-2.12 -79.1)" style="fill:#fff"/><path id="Path_2105" data-name="Path 2105" d="M139.6,211.4a1.54,1.54,0,0,1-1.5-1.5v-1.8a.27.27,0,0,1,.3-.3h0a.27.27,0,0,1,.3.3v1.8a.9.9,0,0,0,1.8,0v-1.8c0-.2.2-.3.3-.2a.22.22,0,0,1,.2.2v1.8a1.34,1.34,0,0,1-1.4,1.5Z" transform="translate(-2.12 -79.1)" style="fill:#fff"/><path id="Path_2106" data-name="Path 2106" d="M142.3,211.1v-3a.27.27,0,0,1,.3-.3h.7a1,1,0,0,1,1,1h0a1.42,1.42,0,0,1-.2.6,1,1,0,0,1,.3,1.5,1.19,1.19,0,0,1-.9.5h-.9a.32.32,0,0,1-.3-.3Zm.6-1.9h.4a.43.43,0,0,0,.4-.4h0a.43.43,0,0,0-.4-.4h-.4Zm0,1.6h.6a.5.5,0,0,0,0-1h-.6Z" transform="translate(-2.12 -79.1)" style="fill:#fff"/><path id="Path_2107" data-name="Path 2107" d="M148.4,208.1v3a.3.3,0,1,1-.6,0h0V209l-.7,1c0,.1-.1.1-.2.1h0c-.1,0-.2,0-.2-.1l-.7-1v2.1c0,.2-.2.3-.3.2a.22.22,0,0,1-.2-.2v-3a.27.27,0,0,1,.3-.3h0c.1,0,.2,0,.2.1l1,1.4,1-1.4c.1-.1.1-.1.2-.1h0a1.24,1.24,0,0,1,.2.3Z" transform="translate(-2.12 -79.1)" style="fill:#fff"/><path id="Path_2108" data-name="Path 2108" d="M149.6,208.1a.27.27,0,0,1,.3-.3h0a.27.27,0,0,1,.3.3v3a.27.27,0,0,1-.3.3.32.32,0,0,1-.3-.3h0v-3Z" transform="translate(-2.12 -79.1)" style="fill:#fff"/><path id="Path_2109" data-name="Path 2109" d="M153.3,208.3h-.8V211a.32.32,0,0,1-.3.3h0a.27.27,0,0,1-.3-.3h0v-2.7h-.8a.27.27,0,0,1-.3-.3.32.32,0,0,1,.3-.3h2.2a.32.32,0,0,1,.3.3h0a.32.32,0,0,1-.3.3Z" transform="translate(-2.12 -79.1)" style="fill:#fff"/><path id="Path_2110" data-name="Path 2110" d="M148.3,115v4.6H147V115a3,3,0,0,0-5.9-.3v5h-1.3V115a4.26,4.26,0,0,1,8.5-.5h0v.5Z" transform="translate(-2.12 -79.1)" style="fill:#e7e6e6"/><path id="Path_2111" data-name="Path 2111" d="M139.8,116.2l1.3.1v3.4h-1.3Z" transform="translate(-2.12 -79.1)" style="fill:#bcbbbb"/><path id="Path_2112" data-name="Path 2112" d="M148.3,116.6v3.1H147v-3.1Z" transform="translate(-2.12 -79.1)" style="fill:#bcbbbb"/><rect id="Rectangle_7916" data-name="Rectangle 7916" x="136.08" y="38.8" width="11.9" height="9.8" style="fill:#a3cc84"/><path id="Path_2113" data-name="Path 2113" d="M144.6,122.8l.5,2.4H143l.5-2.4a1.08,1.08,0,1,1,1.5-.3h0a1.38,1.38,0,0,0-.4.3Z" transform="translate(-2.12 -79.1)" style="fill:#1c262b"/><path id="Path_2114" data-name="Path 2114" d="M79.8,152.5a.1.1,0,0,1,.1-.1H81a1.11,1.11,0,0,1,1,1.2,1.28,1.28,0,0,1-1,1H80v1.5c0,.1-.1.1-.2.1a.1.1,0,0,1-.1-.1Zm1.2,1.8a.8.8,0,1,0,0-1.6H80v1.7Z" transform="translate(-2.12 -79.1)" style="fill:#1c262b"/><path id="Path_2115" data-name="Path 2115" d="M83,152.5a.1.1,0,0,1,.2,0h0v3.6a.1.1,0,0,1-.2,0Z" transform="translate(-2.12 -79.1)" style="fill:#1c262b"/><path id="Path_2116" data-name="Path 2116" d="M84.4,154.9a1.31,1.31,0,0,1,2.6-.3v.2h0a.1.1,0,0,1-.1.1H84.7a1,1,0,0,0,1,1,1.05,1.05,0,0,0,.9-.5c0-.1.1-.1.2-.1h0c.1,0,.1.1,0,.2a1.15,1.15,0,0,1-1.1.6,1.18,1.18,0,0,1-1.3-1.2Zm.3-.2h2.1a1.06,1.06,0,0,0-1-.9,1.09,1.09,0,0,0-1.1.9Z" transform="translate(-2.12 -79.1)" style="fill:#1c262b"/><path id="Path_2117" data-name="Path 2117" d="M90.2,153.7v2.4a.1.1,0,0,1-.2,0v-.4a1.23,1.23,0,0,1-1,.5,1.4,1.4,0,1,1,0-2.8,1.23,1.23,0,0,1,1,.5v-.4a.1.1,0,0,1,.1-.1.37.37,0,0,1,.1.3Zm-.2,1.2a.9.9,0,0,0-1.1-.9.94.94,0,0,0-.9,1.1,1,1,0,0,0,1,.9,1.27,1.27,0,0,0,1-1.1Z" transform="translate(-2.12 -79.1)" style="fill:#1c262b"/><path id="Path_2118" data-name="Path 2118" d="M91.2,155.7c.1-.1.1-.1.2,0h0a1.14,1.14,0,0,0,.8.3.76.76,0,0,0,.5-.2.37.37,0,0,0,.2-.5c0-.1-.1-.1-.1-.2a1.42,1.42,0,0,0-.6-.2h0a1.42,1.42,0,0,1-.6-.2.57.57,0,0,1,0-1,1.45,1.45,0,0,1,.7-.2,1.14,1.14,0,0,1,.8.3c.1,0,.1.1,0,.2h0c0,.1-.1.1-.2,0h0c-.2-.2-.4-.2-.7-.3s-.4,0-.5.2-.2.2-.2.3.1.2.2.3a1.69,1.69,0,0,0,.5.2h0a1.85,1.85,0,0,1,.7.2.57.57,0,0,1,0,1,1.45,1.45,0,0,1-.7.2,1.28,1.28,0,0,1-1-.4Z" transform="translate(-2.12 -79.1)" style="fill:#1c262b"/><path id="Path_2119" data-name="Path 2119" d="M93.9,154.9a1.31,1.31,0,0,1,2.6-.3v.2h0a.1.1,0,0,1-.1.1H94.2a1,1,0,0,0,1.1,1,1.05,1.05,0,0,0,.9-.5c0-.1.1-.1.2-.1h0c.1,0,.1.1,0,.2a1.15,1.15,0,0,1-1.1.6,1.22,1.22,0,0,1-1.4-1.2Zm.3-.2h2.1a1,1,0,0,0-1.2-.9c-.5,0-.8.4-.9.9Z" transform="translate(-2.12 -79.1)" style="fill:#1c262b"/><path id="Path_2120" data-name="Path 2120" d="M98.9,154.9a1.31,1.31,0,0,1,2.6-.3v.2h0a.1.1,0,0,1-.1.1H99.2a1,1,0,0,0,1,1,1.05,1.05,0,0,0,.9-.5c0-.1.1-.1.2-.1h0c.1,0,.1.1,0,.2a1.15,1.15,0,0,1-1.1.6,1.18,1.18,0,0,1-1.3-1.2Zm.3-.2h2.1a1.06,1.06,0,0,0-1-.9,1.09,1.09,0,0,0-1.1.9Z" transform="translate(-2.12 -79.1)" style="fill:#1c262b"/><path id="Path_2121" data-name="Path 2121" d="M104.4,154.6a.79.79,0,0,0-.8-.8h0a.79.79,0,0,0-.8.8v1.6s-.1.1-.1,0h0a.1.1,0,0,1-.1-.1h0v-2.5a.1.1,0,0,1,.2,0h0v.3a1.23,1.23,0,0,1,.8-.4,1.11,1.11,0,0,1,1.1,1.1h0v1.5c0,.1,0,.1-.1.1s-.1,0-.1-.1h0Z" transform="translate(-2.12 -79.1)" style="fill:#1c262b"/><path id="Path_2122" data-name="Path 2122" d="M106.8,153.7a.1.1,0,0,1-.1.1h-.3v2a.22.22,0,0,0,.2.2.1.1,0,1,1,0,.2.46.46,0,0,1-.5-.4h0v-2h-.3a.1.1,0,0,1,0-.2h.3v-1c0-.1.1-.1.2-.1a.1.1,0,0,1,.1.1v1h.3c0-.1.1,0,.1.1Z" transform="translate(-2.12 -79.1)" style="fill:#1c262b"/><path id="Path_2123" data-name="Path 2123" d="M107.7,154.9a1.31,1.31,0,0,1,2.6-.3v.2h0a.1.1,0,0,1-.1.1H108a1,1,0,0,0,1,1,1.05,1.05,0,0,0,.9-.5c0-.1.1-.1.2-.1h0c.1,0,.1.1,0,.2a1.15,1.15,0,0,1-1.1.6A1.18,1.18,0,0,1,107.7,154.9Zm.2-.2H110a1.06,1.06,0,0,0-1-.9,1.17,1.17,0,0,0-1.1.9Z" transform="translate(-2.12 -79.1)" style="fill:#1c262b"/><path id="Path_2124" data-name="Path 2124" d="M111.1,153.7a.1.1,0,0,1,.1-.1h0a.1.1,0,0,1,.1.1h0v.5a1.44,1.44,0,0,1,1.1-.7.1.1,0,0,1,.1.1h0a.1.1,0,0,1-.1.1,1.23,1.23,0,0,0-.8.4l-.3.6h0v1.2c0,.1,0,.1-.1.1h0a.1.1,0,0,1-.1-.1h0Z" transform="translate(-2.12 -79.1)" style="fill:#1c262b"/><path id="Path_2125" data-name="Path 2125" d="M116.1,153.7a.1.1,0,0,1-.1.1h-.4v2a.22.22,0,0,0,.2.2.1.1,0,1,1,0,.2.46.46,0,0,1-.5-.4h0v-2H115a.1.1,0,0,1-.1-.1c0-.1,0-.1.1-.1h.3v-1c0-.1.1-.1.2-.1a.1.1,0,0,1,.1.1v1h.4c.1-.1.1,0,.1.1Z" transform="translate(-2.12 -79.1)" style="fill:#1c262b"/><path id="Path_2126" data-name="Path 2126" d="M119.3,154.6a.9.9,0,1,0-1.8,0v1.5h0a.1.1,0,0,1-.1.1h-.1v-3.6c0-.1,0-.1.1-.1s.1,0,.1.1h0V154a1,1,0,0,1,.9-.4,1,1,0,0,1,1.1,1v1.5c0,.1-.1.1-.2.1a.1.1,0,0,1-.1-.1Z" transform="translate(-2.12 -79.1)" style="fill:#1c262b"/><path id="Path_2127" data-name="Path 2127" d="M120.5,154.9a1.41,1.41,0,0,1,1.3-1.4c.8-.1,1.3.5,1.4,1.3h0a.1.1,0,0,1-.1.1h-2.2a1,1,0,0,0,1.1,1,1.05,1.05,0,0,0,.9-.5c0-.1.1-.1.2,0s.1.1,0,.2a1.15,1.15,0,0,1-1.1.6A1.38,1.38,0,0,1,120.5,154.9Zm.3-.2h2a1.06,1.06,0,0,0-1-.9,1,1,0,0,0-1,.9Z" transform="translate(-2.12 -79.1)" style="fill:#1c262b"/><path id="Path_2128" data-name="Path 2128" d="M127.4,152.3a2,2,0,1,1-1.9,2.1h0v-.1a2,2,0,0,1,1.9-2Zm0,3.6a1.7,1.7,0,1,0-1.6-1.8v.1a1.67,1.67,0,0,0,1.6,1.7Z" transform="translate(-2.12 -79.1)" style="fill:#1c262b"/><path id="Path_2129" data-name="Path 2129" d="M131.1,152.6H130c-.1,0-.1-.1-.1-.2h0a.1.1,0,0,1,.1-.1h2.6c.1,0,.1.1.1.2a.1.1,0,0,1-.1.1h-1.2v3.5a.1.1,0,0,1-.2,0Z" transform="translate(-2.12 -79.1)" style="fill:#1c262b"/><path id="Path_2130" data-name="Path 2130" d="M133.7,152.5a.1.1,0,0,1,.1-.1h1.1a1.11,1.11,0,0,1,1,1.2,1.28,1.28,0,0,1-1,1h-1v1.5c0,.1,0,.1-.1.1s-.1,0-.1-.1h0Zm1.2,1.8a.8.8,0,1,0,0-1.6h-1v1.7Z" transform="translate(-2.12 -79.1)" style="fill:#1c262b"/><path id="Path_2131" data-name="Path 2131" d="M138.3,154.9a1.35,1.35,0,0,1,1.4-1.3h0a1.61,1.61,0,0,1,.9.3v.2h-.2a.84.84,0,0,0-.7-.2,1.06,1.06,0,0,0-.3,2.1h.3a1.45,1.45,0,0,0,.7-.2h.2v.2h0a1.22,1.22,0,0,1-.9.3,1.59,1.59,0,0,1-1.4-1.4Z" transform="translate(-2.12 -79.1)" style="fill:#1c262b"/><path id="Path_2132" data-name="Path 2132" d="M142.7,153.5a1.35,1.35,0,1,1-1.3,1.4v-.1A1.32,1.32,0,0,1,142.7,153.5Zm0,2.4a1.1,1.1,0,1,0-1-1.2v.1a1,1,0,0,0,1,1.1Z" transform="translate(-2.12 -79.1)" style="fill:#1c262b"/><path id="Path_2133" data-name="Path 2133" d="M147.2,155.7a1.23,1.23,0,0,1-1,.5,1.4,1.4,0,1,1,0-2.8,1.23,1.23,0,0,1,1,.5v-1.6c0-.1,0-.1.1-.1s.1,0,.1.1h0v3.6c0,.1,0,.1-.1.1s-.1,0-.1-.1h0Zm0-.8h0a.93.93,0,0,0-1.1-1,1,1,0,0,0-1,1.1,1.08,1.08,0,0,0,1,1,1.18,1.18,0,0,0,1.1-1.1Z" transform="translate(-2.12 -79.1)" style="fill:#1c262b"/><path id="Path_2134" data-name="Path 2134" d="M148.4,154.9a1.31,1.31,0,0,1,2.6-.3v.2h0a.1.1,0,0,1-.1.1h-2.2a1,1,0,0,0,1.1,1,1.05,1.05,0,0,0,.9-.5c0-.1.1-.1.2,0h0c.1,0,.1.1,0,.2a1.15,1.15,0,0,1-1.1.6A1.35,1.35,0,0,1,148.4,154.9Zm.3-.2h2a1,1,0,0,0-2,0Z" transform="translate(-2.12 -79.1)" style="fill:#1c262b"/><path id="Path_2135" data-name="Path 2135" d="M153.4,155.7c.1-.1.1-.1.2,0h0a1.14,1.14,0,0,0,.8.3.76.76,0,0,0,.5-.2.37.37,0,0,0,.2-.5c0-.1-.1-.1-.2-.2a1.42,1.42,0,0,0-.6-.2h0a1.42,1.42,0,0,1-.6-.2.57.57,0,0,1,0-1,1.45,1.45,0,0,1,.7-.2,1.14,1.14,0,0,1,.8.3c.1,0,.1.1,0,.2s-.1.1-.2,0h0a.91.91,0,0,0-.7-.3c-.2,0-.4,0-.5.2s-.2.2-.2.3.1.2.1.3a1.42,1.42,0,0,0,.6.2h0a1.85,1.85,0,0,1,.7.2.57.57,0,0,1,0,1,1.45,1.45,0,0,1-.7.2,1.28,1.28,0,0,1-1-.4c.1.1.1,0,.1,0Z" transform="translate(-2.12 -79.1)" style="fill:#1c262b"/><path id="Path_2136" data-name="Path 2136" d="M156.2,154.9a1.31,1.31,0,0,1,2.6-.3v.2h0a.1.1,0,0,1-.1.1h-2.2a1,1,0,0,0,1,1,1.05,1.05,0,0,0,.9-.5c0-.1.1-.1.2-.1h0c.1,0,.1.1,0,.2a1.15,1.15,0,0,1-1.1.6A1.13,1.13,0,0,1,156.2,154.9Zm.2-.2h2a1.06,1.06,0,0,0-1-.9,1.16,1.16,0,0,0-1,.9Z" transform="translate(-2.12 -79.1)" style="fill:#1c262b"/><path id="Path_2137" data-name="Path 2137" d="M161.6,154.6a.79.79,0,0,0-.8-.8h0a.79.79,0,0,0-.8.8v1.6s-.1.1-.1,0h-.1a.1.1,0,0,1-.1-.1h0v-2.5c0-.1,0-.1.1-.2s.1,0,.2.1h0v.4a1,1,0,0,1,1.5-.1,1.23,1.23,0,0,1,.4.8v1.5c0,.1,0,.1-.1.1s-.1,0-.1-.1h0Z" transform="translate(-2.12 -79.1)" style="fill:#1c262b"/><path id="Path_2138" data-name="Path 2138" d="M164,153.7a.1.1,0,0,1-.1.1h-.4v2a.22.22,0,0,0,.2.2.1.1,0,1,1,0,.2c-.2,0-.5-.2-.5-.4v-2h-.3a.1.1,0,0,1,0-.2h.3v-1c0-.1,0-.1.1-.1s.1,0,.1.1h0v1h.4c.1-.1.2,0,.2.1Z" transform="translate(-2.12 -79.1)" style="fill:#1c262b"/><path id="Path_2139" data-name="Path 2139" d="M167.9,153.7a.1.1,0,0,1-.1.1h-.4v2a.22.22,0,0,0,.2.2.1.1,0,0,1,0,.2.46.46,0,0,1-.5-.4v-2h-.3a.1.1,0,0,1,0-.2h.3v-1a.1.1,0,0,1,.2,0h0v1h.4c.1-.1.2,0,.2.1Z" transform="translate(-2.12 -79.1)" style="fill:#1c262b"/><path id="Path_2140" data-name="Path 2140" d="M170.2,153.5a1.35,1.35,0,1,1-1.3,1.4v-.1A1.32,1.32,0,0,1,170.2,153.5Zm0,2.4a1.1,1.1,0,1,0-1-1.2v.1a1.1,1.1,0,0,0,1,1.1Z" transform="translate(-2.12 -79.1)" style="fill:#1c262b"/><path id="Path_2141" data-name="Path 2141" d="M173.9,153.6a.1.1,0,0,1,.1-.1h0a.1.1,0,0,1,.1.1h0v1.5a.79.79,0,0,0,.8.8h0a.79.79,0,0,0,.8-.8v-1.6h.2V156a1.32,1.32,0,0,1-1.3,1.3h0a1.27,1.27,0,0,1-.6-.1V157c0-.1.1-.1.2-.1a.6.6,0,0,0,.4.1.94.94,0,0,0,1-1v-.2a1,1,0,0,1-1.5.1,1.23,1.23,0,0,1-.4-.8Z" transform="translate(-2.12 -79.1)" style="fill:#1c262b"/><path id="Path_2142" data-name="Path 2142" d="M178.4,153.5a1.35,1.35,0,1,1-1.3,1.4h0v-.1A1.32,1.32,0,0,1,178.4,153.5Zm0,2.4a1.1,1.1,0,1,0-1-1.2v.1a1,1,0,0,0,1,1.1Z" transform="translate(-2.12 -79.1)" style="fill:#1c262b"/><path id="Path_2143" data-name="Path 2143" d="M180.6,153.6a.1.1,0,0,1,.2,0v1.5a.85.85,0,1,0,1.7.1h0v-1.5a.1.1,0,1,1,.2,0h0v1.5a1.1,1.1,0,1,1-2.2.2v-.1h0v-1.7Z" transform="translate(-2.12 -79.1)" style="fill:#1c262b"/><path id="Path_2144" data-name="Path 2144" d="M184,153.7a.1.1,0,0,1,.1-.1h0a.1.1,0,0,1,.1.1h0v.5a1.44,1.44,0,0,1,1.1-.7.1.1,0,1,1,0,.2h0a1.23,1.23,0,0,0-.8.4l-.3.6h0v1.2c0,.1,0,.1-.1.1h0a.1.1,0,0,1-.1-.1h0Z" transform="translate(-2.12 -79.1)" style="fill:#1c262b"/><path id="Path_2145" data-name="Path 2145" d="M190,154.6a.79.79,0,0,0-.8-.8h0a.79.79,0,0,0-.8.8v1.6s-.1.1-.1,0h-.1a.1.1,0,0,1-.1-.1h0v-2.5c0-.1,0-.1.1-.2s.1,0,.2.1h0v.4a1,1,0,0,1,1.5-.1,1.23,1.23,0,0,1,.4.8v1.5c0,.1,0,.1-.1.1s-.1,0-.1-.1h0Z" transform="translate(-2.12 -79.1)" style="fill:#1c262b"/><path id="Path_2146" data-name="Path 2146" d="M191.4,153.6c0-.1,0-.1.1-.1s.1,0,.1.1h0v1.5a.8.8,0,0,0,1.6,0h0v-1.5a.1.1,0,0,1,.2,0h0v1.5a1.1,1.1,0,0,1-2.2.2v-.2Z" transform="translate(-2.12 -79.1)" style="fill:#1c262b"/><path id="Path_2147" data-name="Path 2147" d="M198.7,154.6a.8.8,0,0,0-1.6,0v1.5a.1.1,0,0,1-.1.1h-.1v-1.5a.8.8,0,1,0-1.6,0v1.5a.1.1,0,0,1-.1.1H195c-.1,0-.1,0-.1-.1v-2.5a.1.1,0,0,1,.2,0v.3a1.23,1.23,0,0,1,.8-.4,1.13,1.13,0,0,0,2,0,1.11,1.11,0,0,1,1.1,1.1v1.5c0,.1,0,.1-.1.1h0c-.1,0-.1,0-.1-.1h0Z" transform="translate(-2.12 -79.1)" style="fill:#1c262b"/><path id="Path_2148" data-name="Path 2148" d="M200.1,154.9v-2.4c0-.1,0-.1.1-.2s.1,0,.2.1h0V154a1.23,1.23,0,0,1,1-.5,1.4,1.4,0,0,1,0,2.8h0a1.23,1.23,0,0,1-1-.5v.4c0,.1-.1.1-.2.1a.1.1,0,0,1-.1-.1Zm.3,0a1.05,1.05,0,1,0,1-1.1,1,1,0,0,0-1,1.1Z" transform="translate(-2.12 -79.1)" style="fill:#1c262b"/><path id="Path_2149" data-name="Path 2149" d="M203.6,154.9a1.41,1.41,0,0,1,1.3-1.4c.8-.1,1.3.5,1.4,1.3h0a.1.1,0,0,1-.1.1H204a1,1,0,0,0,1.1,1,1.05,1.05,0,0,0,.9-.5c0-.1.1-.1.2,0h0c.1,0,.1.1,0,.2a1.15,1.15,0,0,1-1.1.6,1.32,1.32,0,0,1-1.5-1.3Zm.2-.2h2.1a1,1,0,0,0-1.2-.9,1.06,1.06,0,0,0-.9.9Z" transform="translate(-2.12 -79.1)" style="fill:#1c262b"/><path id="Path_2150" data-name="Path 2150" d="M207,153.7c0-.1,0-.1.1-.1s.1,0,.1.1h0v.5a1.44,1.44,0,0,1,1.1-.7.1.1,0,1,1,0,.2h0a1.23,1.23,0,0,0-.8.4l-.3.6h0v1.2a.1.1,0,0,1-.2,0h0Z" transform="translate(-2.12 -79.1)" style="fill:#1c262b"/><path id="Path_2151" data-name="Path 2151" d="M117,141.6h0l-.1-.1h0a.1.1,0,0,0-.1-.1l-2.6-6.2a.75.75,0,0,1,.5-.7,1.42,1.42,0,0,1,.6.2l2.1,4.9,2.1-4.9a.6.6,0,0,1,1.1.5h0l-2.7,6.2v.1h0l-.1.1h0l-.1.1h0a.1.1,0,0,0-.1.1h-.4l-.1-.1Z" transform="translate(-2.12 -79.1)" style="fill:#1c262b"/><path id="Path_2152" data-name="Path 2152" d="M121.3,139a2.67,2.67,0,0,1,2.6-2.7,2.63,2.63,0,0,1,2.6,2.5v.2c0,.3-.3.5-.5.4h-3.4a1.61,1.61,0,0,0,.4.7,1.91,1.91,0,0,0,1,.5,2,2,0,0,0,1.1-.3.61.61,0,0,1,.8,0,.48.48,0,0,1,0,.7h0a2.64,2.64,0,0,1-1.9.7A2.69,2.69,0,0,1,121.3,139Zm1.2-.5h3a1.62,1.62,0,0,0-1.6-1.1,1.47,1.47,0,0,0-1.4,1.1Z" transform="translate(-2.12 -79.1)" style="fill:#1c262b"/><path id="Path_2153" data-name="Path 2153" d="M131.3,136.9a.65.65,0,0,1-.6.6,1.07,1.07,0,0,0-.6.2,1.21,1.21,0,0,0-.5.5,3.55,3.55,0,0,0-.4.9v2a.6.6,0,0,1-1.2,0v-4.2a.65.65,0,0,1,.6-.6h0a.58.58,0,0,1,.6.6v.1l.2-.2a2.2,2.2,0,0,1,1.3-.4.5.5,0,0,1,.6.5Z" transform="translate(-2.12 -79.1)" style="fill:#1c262b"/><path id="Path_2154" data-name="Path 2154" d="M133.8,135a.6.6,0,0,1-1.2,0v-.2a.65.65,0,0,1,.6-.6h0a.58.58,0,0,1,.6.6h0Zm0,1.9v4.2a.6.6,0,0,1-1.2,0v-4.2a.65.65,0,0,1,.6-.6h0a.65.65,0,0,1,.6.6Z" transform="translate(-2.12 -79.1)" style="fill:#1c262b"/><path id="Path_2155" data-name="Path 2155" d="M137.4,136v.1h.3a.6.6,0,0,1,0,1.2h-.3v3.8a.75.75,0,0,1-.7.5.82.82,0,0,1-.5-.5v-3.8H136a.6.6,0,0,1,0-1.2h.2V136a3,3,0,0,1,.2-1,1.39,1.39,0,0,1,.8-.7,1.27,1.27,0,0,1,.6-.1.6.6,0,1,1,0,1.2h-.4Z" transform="translate(-2.12 -79.1)" style="fill:#1c262b"/><path id="Path_2156" data-name="Path 2156" d="M140.7,135a.6.6,0,1,1-1.2,0v-.3a.65.65,0,0,1,.6-.6h0a.58.58,0,0,1,.6.6h0Zm0,1.9v4.2a.56.56,0,0,1-.5.6h0a.65.65,0,0,1-.6-.6v-4.2a.56.56,0,0,1,.5-.6h.1a.65.65,0,0,1,.5.6Z" transform="translate(-2.12 -79.1)" style="fill:#1c262b"/><path id="Path_2157" data-name="Path 2157" d="M142.1,139a2.7,2.7,0,0,1,4.4-2.1.57.57,0,1,1-.7.9h0a1.69,1.69,0,0,0-1-.3,1.5,1.5,0,0,0-.2,3h.2a1.69,1.69,0,0,0,1-.3.57.57,0,0,1,.8.8h0a2.72,2.72,0,0,1-1.7.6A2.69,2.69,0,0,1,142.1,139Z" transform="translate(-2.12 -79.1)" style="fill:#1c262b"/><path id="Path_2158" data-name="Path 2158" d="M153.1,139v2.1a.65.65,0,0,1-.6.6.63.63,0,0,1-.6-.5,2.39,2.39,0,0,1-1.4.5,2.5,2.5,0,0,1-1.8-.8,2.93,2.93,0,0,1,0-3.8,2.33,2.33,0,0,1,3.2-.3.63.63,0,0,1,.6-.5.56.56,0,0,1,.5.6Zm-1.1,0a1.5,1.5,0,0,0-.4-1.1,1.28,1.28,0,0,0-1-.4,1.78,1.78,0,0,0-1,.4,1.71,1.71,0,0,0,0,2.2,1.28,1.28,0,0,0,1,.4,1.78,1.78,0,0,0,1-.4,1.5,1.5,0,0,0,.4-1.1Z" transform="translate(-2.12 -79.1)" style="fill:#1c262b"/><path id="Path_2159" data-name="Path 2159" d="M157.6,136.9a.65.65,0,0,1-.6.6h-.2v3a.6.6,0,1,1,0,1.2,1.16,1.16,0,0,1-1.2-1.2h0v-3h-.3a.75.75,0,0,1-.5-.7.82.82,0,0,1,.5-.5h.3v-1.5a.6.6,0,0,1,1.2,0v1.5h.3C157.3,136.4,157.6,136.6,157.6,136.9Z" transform="translate(-2.12 -79.1)" style="fill:#1c262b"/><path id="Path_2160" data-name="Path 2160" d="M160.6,135a.6.6,0,0,1-1.2,0v-.2a.65.65,0,0,1,.6-.6h0a.58.58,0,0,1,.6.6h0Zm0,1.9v4.2a.56.56,0,0,1-.5.6h0a.65.65,0,0,1-.6-.6h0v-4.2a.56.56,0,0,1,.5-.6h.1a.56.56,0,0,1,.5.6Z" transform="translate(-2.12 -79.1)" style="fill:#1c262b"/><path id="Path_2161" data-name="Path 2161" d="M163,140.9a2.64,2.64,0,0,1-.7-1.9,3.16,3.16,0,0,1,.7-1.9,2.43,2.43,0,0,1,3.6,0,2.64,2.64,0,0,1,.7,1.9,3.16,3.16,0,0,1-.7,1.9,2.42,2.42,0,0,1-3.6,0Zm.4-1.9a1.5,1.5,0,0,0,.4,1.1,1.45,1.45,0,0,0,2,0,1.71,1.71,0,0,0,0-2.2,1.45,1.45,0,0,0-2,0,1.5,1.5,0,0,0-.4,1.1Z" transform="translate(-2.12 -79.1)" style="fill:#1c262b"/><path id="Path_2162" data-name="Path 2162" d="M173.6,138.6v2.5a.58.58,0,0,1-.6.6h0c-.3,0-.5-.3-.6-.6v-2.5a1.11,1.11,0,0,0-1.1-1.1h0a1.1,1.1,0,0,0-1.1,1h0v2.7c-.1.3-.3.4-.6.5a.65.65,0,0,1-.6-.6h0v-4.2a.56.56,0,0,1,.5-.6c.2,0,.5.1.5.4a2,2,0,0,1,1.1-.3,2.19,2.19,0,0,1,2.5,2.2Z" transform="translate(-2.12 -79.1)" style="fill:#1c262b"/><path id="Path_2163" data-name="Path 2163" d="M282.5,102.8s-4,31.8-10.5,38.9c-7.9,8.6-13.5,7.3-16.7,11.7-3.2-4.4-8.8-3.2-16.7-11.8-6.5-7.1-10.5-38.9-10.5-38.9C245.3,94.4,255.3,85,255.3,85h0C255.7,85.4,265.6,94.6,282.5,102.8Z" transform="translate(-2.12 -79.1)" style="fill:#a3cc84"/><path id="Path_2164" data-name="Path 2164" d="M255.4,85.1v68.3c-3.2-4.4-8.8-3.2-16.7-11.8-6.5-7.1-10.5-38.9-10.5-38.9,17.2-8.3,27.2-17.6,27.2-17.6Z" transform="translate(-2.12 -79.1)" style="fill:#040405;opacity:0.10000000149011612;isolation:isolate"/><path id="Path_2165" data-name="Path 2165" d="M232.4,105.4s3.3,26.8,8.9,32.9c6.6,7.2,11.4,6.2,14.1,9.9,2.7-3.7,7.5-2.7,14.1-9.9,5.5-6,8.9-32.9,8.9-32.9a101.84,101.84,0,0,1-23-14.9A109.21,109.21,0,0,1,232.4,105.4Z" transform="translate(-2.12 -79.1)" style="fill:#a3cc84"/><path id="Path_2166" data-name="Path 2166" d="M278.3,105.4s-3.4,26.8-8.9,32.9c-6.6,7.2-11.4,6.2-14.1,9.9V90.4A105.81,105.81,0,0,0,278.3,105.4Z" transform="translate(-2.12 -79.1)" style="fill:#fff;opacity:0.20000000298023224;isolation:isolate"/><circle id="Ellipse_28" data-name="Ellipse 28" cx="253.28" cy="40.2" r="10.6" style="fill:#214f6e"/><path id="Path_2167" data-name="Path 2167" d="M254.2,126.2l-4.7-4.9,1.8-1.7,2.6,2.7,5.6-8.6,2,1.3Z" transform="translate(-2.12 -79.1)" style="fill:#fff"/><path id="Path_2168" data-name="Path 2168" d="M278.3,148.8l-1.5.3-.3,1.6-.3-1.6-1.5-.3,1.5-.4.3-1.5.3,1.5Z" transform="translate(-2.12 -79.1)" style="fill:#c5c800"/><path id="Path_2169" data-name="Path 2169" d="M233.7,136.7l-1.5.3-.3,1.6-.3-1.6-1.5-.3,1.5-.4.3-1.5.3,1.5Z" transform="translate(-2.12 -79.1)" style="fill:#c5c800"/><path id="Path_2170" data-name="Path 2170" d="M240.6,94.9l-1.5.3-.3,1.6-.3-1.6-1.5-.3,1.5-.4.3-1.5.3,1.5Z" transform="translate(-2.12 -79.1)" style="fill:#c5c800"/><path id="Path_2171" data-name="Path 2171" d="M275.6,141.7l-.8.2-.2.9-.2-.9-.8-.2.8-.2.2-.8.2.8Z" transform="translate(-2.12 -79.1)" style="fill:#c5c800"/><path id="Path_2172" data-name="Path 2172" d="M281.4,124l-.8.2-.2.9-.2-.9-.8-.2.8-.2.2-.8.2.8Z" transform="translate(-2.12 -79.1)" style="fill:#c5c800"/><path id="Path_2173" data-name="Path 2173" d="M274.3,93.1l-.8.2-.2.9-.2-.9-.8-.2.8-.2.2-.8.2.8Z" transform="translate(-2.12 -79.1)" style="fill:#c5c800"/><path id="Path_2174" data-name="Path 2174" d="M252.8,157.3l-.8.2-.2.9-.2-.9-.8-.2.8-.2.2-.8.2.8Z" transform="translate(-2.12 -79.1)" style="fill:#c5c800"/><path id="Path_2175" data-name="Path 2175" d="M229.1,138.8l-.8.2-.2.9-.2-.9-.8-.2.8-.2.2-.8.2.8Z" transform="translate(-2.12 -79.1)" style="fill:#c5c800"/><path id="Path_2176" data-name="Path 2176" d="M230.4,114.2l-.8.2-.2.9-.2-.9-.8-.2.8-.2.2-.8.2.8Z" transform="translate(-2.12 -79.1)" style="fill:#c5c800"/><path id="Path_2177" data-name="Path 2177" d="M265.6,145.6c-.1,0-.3.1-.3.2s.1.3.2.3.3-.1.3-.2h0C265.9,145.8,265.8,145.7,265.6,145.6Z" transform="translate(-2.12 -79.1)" style="fill:#c5c800"/><path id="Path_2178" data-name="Path 2178" d="M226.9,101.4c-.1,0-.3.1-.3.2s.1.3.2.3.3-.1.3-.2h0C227.1,101.6,227,101.5,226.9,101.4Z" transform="translate(-2.12 -79.1)" style="fill:#c5c800"/><path id="Path_2179" data-name="Path 2179" d="M273.3,147c-.1,0-.3.1-.3.2s.1.3.2.3.3-.1.3-.2h0C273.5,147.1,273.4,147,273.3,147Z" transform="translate(-2.12 -79.1)" style="fill:#c5c800"/><path id="Path_2180" data-name="Path 2180" d="M248.6,108.9a.2.2,0,1,0,.2.2h0A.22.22,0,0,0,248.6,108.9Z" transform="translate(-2.12 -79.1)" style="fill:#c5c800"/><path id="Path_2181" data-name="Path 2181" d="M226,118.8c-.1,0-.3.1-.3.2s.1.3.2.3.3-.1.3-.2h0C226.2,118.9,226.1,118.8,226,118.8Z" transform="translate(-2.12 -79.1)" style="fill:#c5c800"/><path id="Path_2182" data-name="Path 2182" d="M220.3,116.1c-.1,0-.2,0-.2.1s0,.2.1.2.2,0,.2-.1h0C220.4,116.2,220.4,116.1,220.3,116.1Z" transform="translate(-2.12 -79.1)" style="fill:#c5c800"/><path id="Path_2183" data-name="Path 2183" d="M266.8,89.9c-.1,0-.2,0-.2.1s0,.2.1.2.2,0,.2-.1h0C267,90,266.9,89.9,266.8,89.9Z" transform="translate(-2.12 -79.1)" style="fill:#c5c800"/><path id="Path_2184" data-name="Path 2184" d="M242.8,148.9c-.1,0-.2,0-.2.1s0,.2.1.2.2,0,.2-.1h0A.35.35,0,0,0,242.8,148.9Z" transform="translate(-2.12 -79.1)" style="fill:#c5c800"/><path id="Path_2185" data-name="Path 2185" d="M237.4,145.7a.45.45,0,1,0,.4.5v-.1C237.8,146,237.6,145.8,237.4,145.7Z" transform="translate(-2.12 -79.1)" style="fill:#c5c800"/><path id="Path_9549" data-name="Path 9549" d="M39.8,164.3c.2.4.4.7.6,1.1a25.19,25.19,0,0,0,6.5,8c2.7,2,5.1,2,7,.2,3.3-3,.2-10.6.1-10.6s-3.8.8-3.8.8l-.3-.8c-.4-1.2-1.3-3.6-2.4-6.1-2.2-4.9-5.3-10.6-8.2-10.9C39.3,146,35.2,155.4,39.8,164.3Z" transform="translate(-2.12 -79.1)" style="fill:#1c262b"/><path id="Path_9550" data-name="Path 9550" d="M39.8,164.3c.2.4.4.7.6,1.1a25.19,25.19,0,0,0,6.5,8c2.7,2,5.1,2,7,.2,3.3-3,.2-10.6.1-10.6s-3.8.8-3.8.8l-.3-.8c-.4-1.2-1.3-3.6-2.4-6.1-2.2-4.9-5.3-10.6-8.2-10.9C39.3,146,35.2,155.4,39.8,164.3Z" transform="translate(-2.12 -79.1)" style="fill:#fff;opacity:0.20000000298023224;isolation:isolate"/><path id="Path_9551" data-name="Path 9551" d="M48,169.9a31.4,31.4,0,0,1,.5-6.1l1.3-.8c-.4-1.2-1.3-3.6-2.4-6.1C43.6,162.1,47.9,169.6,48,169.9Z" transform="translate(-2.12 -79.1)" style="fill:#040405;opacity:0.20000000298023224;isolation:isolate"/><path id="Path_9552" data-name="Path 9552" d="M39.8,164.3c.2.4.4.7.6,1.1a25.19,25.19,0,0,0,6.5,8c.6-7.3-5.4-13.3-5.9-12.6A5.71,5.71,0,0,0,39.8,164.3Z" transform="translate(-2.12 -79.1)" style="fill:#040405;opacity:0.20000000298023224;isolation:isolate"/><path id="Path_9553" data-name="Path 9553" d="M38.8,326.7l-6-2.8,5-14.6,6,2.8Z" transform="translate(-2.12 -79.1)" style="fill:#f9a25f"/><path id="Path_9554" data-name="Path 9554" d="M37.8,309.3l-2.6,7.5,6,2.8,2.6-7.5Z" transform="translate(-2.12 -79.1)" style="fill:#040405;opacity:0.20000000298023224;isolation:isolate"/><path id="Path_9555" data-name="Path 9555" d="M40,326.4l-6.8-3.1a.66.66,0,0,0-.7.2l-3.2,5a1.13,1.13,0,0,0,.4,1.5h.1c2.4,1,3.6,1.4,6.6,2.8,1.8.8,7,3.5,9.6,4.6s3.8-1.3,2.9-2c-4.3-3.2-7-6.1-7.9-8.2A3.14,3.14,0,0,0,40,326.4Z" transform="translate(-2.12 -79.1)" style="fill:#1c262b"/><path id="Path_9556" data-name="Path 9556" d="M40,326.4l-6.8-3.1a.66.66,0,0,0-.7.2l-3.2,5a1.13,1.13,0,0,0,.4,1.5h.1c2.4,1,3.6,1.4,6.6,2.8,1.8.8,7,3.5,9.6,4.6s3.8-1.3,2.9-2c-4.3-3.2-7-6.1-7.9-8.2A3.14,3.14,0,0,0,40,326.4Z" transform="translate(-2.12 -79.1)" style="fill:#040405;opacity:0.20000000298023224;isolation:isolate"/><path id="Path_9557" data-name="Path 9557" d="M40.2,327.5c-.1,0-.1-.1-.1-.2a.1.1,0,0,1,.1-.1c.3,0,3.3-.1,3.9.6a.75.75,0,0,1,.1.5.9.9,0,0,1-.6.6,2.22,2.22,0,0,1-1.6-.3A17.39,17.39,0,0,1,40.2,327.5Zm.6,0a5,5,0,0,0,2.8,1.1.78.78,0,0,0,.4-.4V328l-.2-.2a7.69,7.69,0,0,0-3-.3Z" transform="translate(-2.12 -79.1)" style="fill:#a3cc84"/><path id="Path_9558" data-name="Path 9558" d="M40.6,327.4v-.2a5,5,0,0,1,2.2-2.1,1.73,1.73,0,0,1,1,.1.67.67,0,0,1,.4.7c-.2.8-2.4,1.5-3.4,1.5Zm2.3-2a4.21,4.21,0,0,0-1.8,1.7c1-.1,2.6-.8,2.7-1.2a.36.36,0,0,0-.2-.3l-.1-.1a1.27,1.27,0,0,0-.6-.1Z" transform="translate(-2.12 -79.1)" style="fill:#a3cc84"/><path id="Path_9559" data-name="Path 9559" d="M39.8,192.9s22.1,49.2,23.3,66.7c1.3,19.2-19.4,57.2-19.4,57.2l-10.9-2.9s13.7-38.4,12.5-53.2c-3.6-21.1-28.9-64.3-28.9-64.3Z" transform="translate(-2.12 -79.1)" style="fill:#c5c800"/><path id="Path_9560" data-name="Path 9560" d="M39.8,192.9s22.1,49.2,23.3,66.7c1.3,19.2-19.4,57.2-19.4,57.2l-10.9-2.9s13.7-38.4,12.5-53.2c-3.6-21.1-28.9-64.3-28.9-64.3Z" transform="translate(-2.12 -79.1)" style="fill:#214f6e"/><path id="Path_9561" data-name="Path 9561" d="M25.5,207.5c5.7,2.6,9.6,16.3,9.3,23.5-4-8.6-8.4-17-11.9-23.5A2.44,2.44,0,0,1,25.5,207.5Z" transform="translate(-2.12 -79.1)" style="fill:#040405;opacity:0.20000000298023224;isolation:isolate"/><path id="Path_9562" data-name="Path 9562" d="M43.3,319.2l-9.6-4.4.7-3.4L45.3,316Z" transform="translate(-2.12 -79.1)" style="fill:#1c262b"/><path id="Path_9563" data-name="Path 9563" d="M34,330.9H27.3l-1.5-15.4h6.6Z" transform="translate(-2.12 -79.1)" style="fill:#f9a25f"/><path id="Path_9564" data-name="Path 9564" d="M25.8,315.5l.8,7.9h6.7l-.8-7.9Z" transform="translate(-2.12 -79.1)" style="fill:#040405;opacity:0.20000000298023224;isolation:isolate"/><path id="Path_9565" data-name="Path 9565" d="M34.9,330.2H27.4a.47.47,0,0,0-.5.5l-.8,5.9a1,1,0,0,0,.9,1.2h.1c2.6,0,3.9-.2,7.1-.2,2,0,7.8.2,10.6.2s2.9-2.8,1.8-3c-5.2-1.1-8.9-2.7-10.6-4.1A1.27,1.27,0,0,0,34.9,330.2Z" transform="translate(-2.12 -79.1)" style="fill:#1c262b"/><path id="Path_9566" data-name="Path 9566" d="M35.6,331.3a.1.1,0,0,1-.1-.1c0-.1,0-.1.1-.2.3-.2,3.2-1.7,4.1-1.2a.55.55,0,0,1,.3.5,1.14,1.14,0,0,1-.3.8,2.69,2.69,0,0,1-1.8.4A5.83,5.83,0,0,1,35.6,331.3Zm.5-.2a4.41,4.41,0,0,0,3.2-.2c.2-.1.2-.3.2-.6,0-.1,0-.1-.1-.2s-.2-.1-.3-.1a12.13,12.13,0,0,0-3,1.1Z" transform="translate(-2.12 -79.1)" style="fill:#a3cc84"/><path id="Path_9567" data-name="Path 9567" d="M35.5,331.3c-.1,0-.1-.1-.1-.2a4.89,4.89,0,0,1,1.1-2.8,1.69,1.69,0,0,1,1-.3c.5.1.6.3.6.5.1.8-1.6,2.4-2.4,2.8Zm1.2-2.7a3.6,3.6,0,0,0-.9,2.2,4.6,4.6,0,0,0,2-2.3s0-.2-.3-.2h-.1a4.88,4.88,0,0,0-.7.3Z" transform="translate(-2.12 -79.1)" style="fill:#a3cc84"/><path id="Path_9568" data-name="Path 9568" d="M40.1,189.7,7.8,190.8s-.2,10.6,2.2,18.5l32-11.2Z" transform="translate(-2.12 -79.1)" style="fill:#c5c800"/><path id="Path_9569" data-name="Path 9569" d="M40.1,189.7,7.8,190.8s-.2,10.6,2.2,18.5l32-11.2Z" transform="translate(-2.12 -79.1)" style="fill:#214f6e"/><path id="Path_9570" data-name="Path 9570" d="M28.3,192.2s5.6,51.6,5.8,69.3c.3,19.4.6,58.6.6,58.6l-10.4,1.6s-5-36.5-6.9-55.3C15.1,244.9,9,201.2,9,201.2Z" transform="translate(-2.12 -79.1)" style="fill:#c5c800"/><path id="Path_9571" data-name="Path 9571" d="M28.3,192.2s5.6,51.6,5.8,69.3c.3,19.4.6,58.6.6,58.6l-10.4,1.6s-5-36.5-6.9-55.3C15.1,244.9,9,201.2,9,201.2Z" transform="translate(-2.12 -79.1)" style="fill:#214f6e"/><path id="Path_9572" data-name="Path 9572" d="M34.9,194.3l-15.2,1-.2-3.7,15.2-.8Z" transform="translate(-2.12 -79.1)" style="fill:#1c262b"/><path id="Path_9573" data-name="Path 9573" d="M18.4,191.6l.2,3.7L8.2,196,8,192.2Z" transform="translate(-2.12 -79.1)" style="fill:#1c262b"/><path id="Path_9574" data-name="Path 9574" d="M35.9,190.7l4.4-.2.6,3.4-4.8.3Z" transform="translate(-2.12 -79.1)" style="fill:#1c262b"/><rect id="Rectangle_9595" data-name="Rectangle 9595" x="25.6" y="190.9" width="6" height="4.3" transform="translate(-11.95 -77.39) rotate(-2.93)" style="fill:#fff"/><path id="Path_9575" data-name="Path 9575" d="M34.9,322.3H24.3l-.8-3.4,11.8-.4Z" transform="translate(-2.12 -79.1)" style="fill:#1c262b"/><path id="Path_9576" data-name="Path 9576" d="M8.8,174.9c-.3,8.3-1.2,14.7-1.1,16.7,4.6,0,23-2,32.5-2,5.9-38.2-.9-43.7-.9-43.7a56.06,56.06,0,0,0-9-1.4c-4.4-.2-8.9-.2-13.3,0a93.75,93.75,0,0,0-10.5,1.2,96.51,96.51,0,0,1,2.3,18.5C8.9,168,8.9,171.6,8.8,174.9Z" transform="translate(-2.12 -79.1)" style="fill:#1c262b"/><path id="Path_9577" data-name="Path 9577" d="M42.7,161.1a.57.57,0,0,0,.4.7h.1l6.4,1.3a.79.79,0,0,0,.8-.5l3.9-12.3a.68.68,0,0,0-.4-.8l-6.4-1.3a.87.87,0,0,0-.9.6Z" transform="translate(-2.12 -79.1)" style="fill:#1c262b"/><path id="Path_9578" data-name="Path 9578" d="M47.4,148.8l-3.9,12.5a.62.62,0,0,0,.2.7h.1l5.4,1.1c.4.1,1.1,0,1.2-.4l4-12.5c.1-.3-.5-.8-.8-.8l-5.4-1.1A.62.62,0,0,0,47.4,148.8Z" transform="translate(-2.12 -79.1)" style="fill:#fff;opacity:0.5;isolation:isolate"/><path id="Path_9579" data-name="Path 9579" d="M22.9,152.4s-9.3-4.5-11.1-8,2.2-7,9-7,13.7,2.7,12.8,7.9-3.9,7.1-3.9,7.1S27.8,149.9,22.9,152.4Z" transform="translate(-2.12 -79.1)" style="fill:#1c262b"/><path id="Path_9580" data-name="Path 9580" d="M22.9,152.4s-9.3-4.5-11.1-8,2.2-7,9-7,13.7,2.7,12.8,7.9-3.9,7.1-3.9,7.1S27.8,149.9,22.9,152.4Z" transform="translate(-2.12 -79.1)" style="fill:#fff;opacity:0.20000000298023224;isolation:isolate"/><path id="Path_9581" data-name="Path 9581" d="M17.8,146.1c2.7,2.1,7.4,4.5,9.1,4.5a4.22,4.22,0,0,0,3.5-2.2c-1.9-2.8-1.6-4.7,0-7.2l-6.8-9.8C23.2,135.9,21.8,144,17.8,146.1Z" transform="translate(-2.12 -79.1)" style="fill:#e9a260"/><path id="Path_9582" data-name="Path 9582" d="M26.3,135.4l4,5.8a16.65,16.65,0,0,0-1.2,2.3,7.32,7.32,0,0,1-4.1-5.4C25,136.5,25.8,135.4,26.3,135.4Z" transform="translate(-2.12 -79.1)" style="fill:#040405;opacity:0.20000000298023224;isolation:isolate"/><path id="Path_9583" data-name="Path 9583" d="M35.8,122.6c-2.7,1.3-2.1,4.3,2.8,9.6,2.7-2.6,4-8.2,2.4-9.9S38.2,121.5,35.8,122.6Z" transform="translate(-2.12 -79.1)" style="fill:#1c262b"/><path id="Path_9584" data-name="Path 9584" d="M24,124.4c-1.3,6-2.3,9.4-.1,13.3,3.2,5.8,11.2,5.1,14.2-.4,2.7-4.9,4.3-13.9-.8-17.8A8.31,8.31,0,0,0,25.6,121a6.73,6.73,0,0,0-1.6,3.4Z" transform="translate(-2.12 -79.1)" style="fill:#e9a260"/><path id="Path_9585" data-name="Path 9585" d="M32.4,128.5c-.1.5,0,.9.3,1s.7-.2.8-.7,0-.9-.3-1S32.6,128,32.4,128.5Z" transform="translate(-2.12 -79.1)" style="fill:#1c262b"/><path id="Path_9586" data-name="Path 9586" d="M37.8,129.9c-.1.5,0,.9.3,1s.7-.2.8-.7,0-.9-.3-1S38,129.5,37.8,129.9Z" transform="translate(-2.12 -79.1)" style="fill:#1c262b"/><path id="Path_9587" data-name="Path 9587" d="M36.1,129.7a19.1,19.1,0,0,0,1.2,4.7,2.87,2.87,0,0,1-2.4-.2Z" transform="translate(-2.12 -79.1)" style="fill:#cd7132"/><path id="Path_9588" data-name="Path 9588" d="M31.2,126.2l-.1-.1a.3.3,0,0,1,0-.4h0a2.71,2.71,0,0,1,2.6-.5.32.32,0,1,1-.2.6h0a2.62,2.62,0,0,0-2.1.4C31.4,126.3,31.3,126.3,31.2,126.2Z" transform="translate(-2.12 -79.1)" style="fill:#1c262b"/><path id="Path_9589" data-name="Path 9589" d="M40.7,128.7a.22.22,0,0,1-.2-.2,2.38,2.38,0,0,0-1.2-1.7.32.32,0,1,1,.2-.6,2.65,2.65,0,0,1,1.6,2.1c0,.2-.1.3-.2.3h0C40.8,128.7,40.8,128.7,40.7,128.7Z" transform="translate(-2.12 -79.1)" style="fill:#1c262b"/><path id="Path_9590" data-name="Path 9590" d="M34.2,135.8,32.4,137l-.3-.3c-1.3-1.2-1.5-2.2-1.3-2.9a1.93,1.93,0,0,1,.5-.9,1,1,0,0,1,.5-.4,8.37,8.37,0,0,0,2,2.9Z" transform="translate(-2.12 -79.1)" style="fill:#1c262b"/><path id="Path_9591" data-name="Path 9591" d="M33.8,135.4l-.5.3a5.43,5.43,0,0,1-1.9-2.8,1,1,0,0,1,.5-.4A6.14,6.14,0,0,0,33.8,135.4Z" transform="translate(-2.12 -79.1)" style="fill:#fff"/><path id="Path_9592" data-name="Path 9592" d="M32.1,136.7c-1.3-1.2-1.5-2.2-1.3-2.9a6.1,6.1,0,0,1,1.2,1.6A3,3,0,0,1,32.1,136.7Z" transform="translate(-2.12 -79.1)" style="fill:#903b30"/><path id="Path_9593" data-name="Path 9593" d="M27.9,120.6c2.6,1.5,1.8,4.4-3.4,9.4-2.6-2.8-3.5-8.5-1.8-10.1S25.5,119.4,27.9,120.6Z" transform="translate(-2.12 -79.1)" style="fill:#1c262b"/><path id="Path_9594" data-name="Path 9594" d="M23,119.6s-.7-2.3,3.5-4.8,11.1-.9,15.7,2.1-.6,7.3-2.8,7.5l.6-.8a16.19,16.19,0,0,1-6.9-.8l1.4-.5C34.5,122.4,25.8,121.2,23,119.6Z" transform="translate(-2.12 -79.1)" style="fill:#1c262b"/><path id="Path_9595" data-name="Path 9595" d="M20.1,128.6a5.53,5.53,0,0,0,1.8,4c1.5,1.4,3.2.3,3.6-1.6.3-1.7,0-4.5-1.9-5.2a2.53,2.53,0,0,0-3.3,1.6,1.72,1.72,0,0,0-.2,1.2Z" transform="translate(-2.12 -79.1)" style="fill:#e9a260"/><path id="Path_9596" data-name="Path 9596" d="M36.2,167.5h0a.22.22,0,0,0,.2-.2h0a32.91,32.91,0,0,0-6.3-15.6.21.21,0,0,0-.3.3A33.07,33.07,0,0,1,36,167.4a.35.35,0,0,0,.2.1Z" transform="translate(-2.12 -79.1)" style="fill:#fff"/><path id="Path_9597" data-name="Path 9597" d="M23.5,166.8a.35.35,0,0,0,.2-.1c2.2-6.9-.7-15-.7-15.1s-.2-.1-.3-.1-.1.1-.1.2,2.9,8,.7,14.8c0,.1,0,.2.2.3Z" transform="translate(-2.12 -79.1)" style="fill:#fff"/><path id="Path_9598" data-name="Path 9598" d="M36,167.2s.6-.1.8.9l-.9.1C35.8,168.3,35.5,167.4,36,167.2Z" transform="translate(-2.12 -79.1)" style="fill:#fff"/><path id="Path_9599" data-name="Path 9599" d="M23.5,166.2s.6.2.2,1.2l-.9-.4C22.7,167,22.9,166.1,23.5,166.2Z" transform="translate(-2.12 -79.1)" style="fill:#fff"/><path id="Path_9600" data-name="Path 9600" d="M50.1,156.6a17,17,0,0,1,3.7,1,20.29,20.29,0,0,1,.9,4.8c-.1.4-1.8,3.8-1.8,3.8-.7.4-3.5-1.3-3.5-1.3Z" transform="translate(-2.12 -79.1)" style="fill:#e9a260"/><path id="Path_9601" data-name="Path 9601" d="M8.8,174.9c3.3.5,6.7-1.9,6.7-1.9-1.6-4.8-4.3-7.7-6.7-8.8C8.9,168,8.9,171.6,8.8,174.9Z" transform="translate(-2.12 -79.1)" style="fill:#040405;opacity:0.20000000298023224;isolation:isolate"/><path id="Path_9602" data-name="Path 9602" d="M37.7,158.7l6.1-2.6-1.6,8.1s-5.8,1.3-6.2-1.8Z" transform="translate(-2.12 -79.1)" style="fill:#e9a260"/><path id="Path_9603" data-name="Path 9603" d="M49.4,158.7l-1.6,6.6-5.5-1.1,1.6-8.1Z" transform="translate(-2.12 -79.1)" style="fill:#e9a260"/><path id="Path_9604" data-name="Path 9604" d="M38,158.5c-1.8.5-9.9,4.6-9.9,4.6l2.8,4.9,7.1-4.9Z" transform="translate(-2.12 -79.1)" style="fill:#e9a260"/><path id="Path_9605" data-name="Path 9605" d="M34.7,159s-14.5,7.3-16.1,7.7-6.1-9.8-7.2-12.7-2.4-8.1-4.8-8.4c0,0-7-1.3-3.5,9.9s8.1,20.1,14.3,20.2c6.2.3,19.6-10.5,19.6-10.5Z" transform="translate(-2.12 -79.1)" style="fill:#1c262b"/><path id="Path_9606" data-name="Path 9606" d="M34.7,159s-14.5,7.3-16.1,7.7-6.1-9.8-7.2-12.7-2.4-8.1-4.8-8.4c0,0-7-1.3-3.5,9.9s8.1,20.1,14.3,20.2c6.2.3,19.6-10.5,19.6-10.5Z" transform="translate(-2.12 -79.1)" style="fill:#fff;opacity:0.20000000298023224;isolation:isolate"/></svg>