<svg id="Layer_1" data-name="Layer 1" xmlns="http://www.w3.org/2000/svg" viewBox="0 0 292.01 294.14"><g id="freepik--Floor--inject-2"><path id="freepik--floor--inject-2-2" d="M73.37,195.36c-52.1,30.1-52.1,78.8,0,108.9s136.5,30.1,188.6,0,52.1-78.8,0-108.9S125.37,165.36,73.37,195.36Z" transform="translate(-19.11 -32.7)" style="fill:#f2f1f2"/></g><g id="freepik--Shadows--inject-2"><path id="freepik--Shadow--inject-2" d="M258.62,267.35l-6.6-3.8a5.1,5.1,0,0,0-4.8.1l-33.8,18.1c-6.6-3.8-15.7-6.2-25.8-6.2-20.2,0-36.5,9.5-36.5,21.3s16.3,21.3,36.5,21.3,36.5-9.6,36.5-21.3c0-3.8-1.7-7.3-4.6-10.4l39-16.5C259.92,269.25,259.92,268.05,258.62,267.35Z" transform="translate(-19.11 -32.7)" style="fill:#d8d8d8"/><path id="freepik--shadow--inject-2-2" d="M129.92,298.55a7.56,7.56,0,0,1-3.9-1l-62.9-36.3-10,1.9a2.49,2.49,0,0,1-.8.1,4.65,4.65,0,0,1-2.3-.6l-26.3-15.1a4.61,4.61,0,0,1-1.7-6.3l.1-.2V241l1.7-2.3-2.6-1.5a3.47,3.47,0,0,1-1.8-4.6,3.51,3.51,0,0,1,1.8-1.8l86.2-50.1,114.4,66.1-88,50.9A8.6,8.6,0,0,1,129.92,298.55Z" transform="translate(-19.11 -32.7)" style="fill:#d8d8d8"/><path id="freepik--shadow--inject-2-3" d="M243.12,228.25l61.5-35.4c1.6-.9,1.6-2.4,0-3.3L222.32,142a6.35,6.35,0,0,0-5.7,0l-61.4,35.5c-1.6.9-1.6,2.4,0,3.3l82.3,47.5A6.14,6.14,0,0,0,243.12,228.25Z" transform="translate(-19.11 -32.7)" style="fill:#d8d8d8"/><path id="freepik--shadow--inject-2-4" d="M274.22,265.15l-38.9-22.5,36.9-21.3,38.9,22.5Z" transform="translate(-19.11 -32.7)" style="fill:#d8d8d8"/><path id="freepik--shadow--inject-2-5" d="M126,310.55l-5.9-6.7h0L75.42,278h0l-1.3-.7-2-1.2L72,276h0l-2-1.1h0l-8.1-4.6c-1.6-1.1-3.9,1.1-4.8,3.3h0c-.1.3-.2.7-.3,1a2.26,2.26,0,0,0,.6,2.2l6.6,3.8,1.8,1.1h0l1.5.8.1.1,1.7,1h.1l1.4.8,45.4,26.3h0l8.7,1.7,2.3.5a.37.37,0,0,0,.3-.1.45.45,0,0,0,0-.5h0Z" transform="translate(-19.11 -32.7)" style="fill:#d8d8d8"/></g><path id="Path_7749" data-name="Path 7749" d="M298,192l-2.2-1.2,2.1-.5a1.73,1.73,0,0,1,.1,1.7Z" transform="translate(-19.11 -32.7)" style="fill:#c5c800"/><path id="Path_7750" data-name="Path 7750" d="M298,192l-2.2-1.2,2.1-.5a1.73,1.73,0,0,1,.1,1.7Z" transform="translate(-19.11 -32.7)" style="fill:#040405;opacity:0.5;isolation:isolate"/><path id="Path_7751" data-name="Path 7751" d="M238.2,222.1a5.3,5.3,0,0,0,4.6,0l51.5-29.7-77.1-43.8-1.8-1-51.5,29a1.46,1.46,0,0,0-.9,1.8,1.59,1.59,0,0,0,.9.9Z" transform="translate(-19.11 -32.7)" style="fill:#055485"/><path id="Path_7752" data-name="Path 7752" d="M257.5,166.7l18,10.3,11.6-6.7,13.5,7.8v9c0,1.2-1.3,2.9-1.8,2.6a11.42,11.42,0,0,0-2.6.9,17.15,17.15,0,0,0-3.7,2.8l-41.3-23.1Z" transform="translate(-19.11 -32.7)" style="fill:#055485"/><path id="Path_7754" data-name="Path 7754" d="M293.2,179.2V189l.2-.1a4.39,4.39,0,0,1,2.2-.7,2.23,2.23,0,0,1,1.4.3V177Z" transform="translate(-19.11 -32.7)" style="fill:#040405;opacity:0.4000000059604645;isolation:isolate"/><path id="Path_7755" data-name="Path 7755" d="M290.7,192.4a3.49,3.49,0,0,1,.6-1.7,4.35,4.35,0,0,1,.6-.7l.2-.2.3-.2.2-.2c.2-.1.3-.2.5-.3v-9.8l-2.5,1.5.1,11.6Z" transform="translate(-19.11 -32.7)" style="fill:#d8d8d8"/><path id="Path_7756" data-name="Path 7756" d="M300.7,187.1c0,1.2-1.3,2.9-1.8,2.6h0l-1.8-1.2v-7.4l1.8-3.1,1-.4.8.5Z" transform="translate(-19.11 -32.7)" style="fill:#040405;opacity:0.4000000059604645;isolation:isolate"/><path id="Path_7757" data-name="Path 7757" d="M240.5,209.7v11.2a2.6,2.6,0,0,0,1.5-.4l5.7-3.3,43.1-24.8V180.7Z" transform="translate(-19.11 -32.7)" style="fill:#e7e6e6"/><path id="Path_7758" data-name="Path 7758" d="M165.2,167.7v8.4a3.55,3.55,0,0,0,1.5,2.7l66.6,38.5,5.7,3.3a2.82,2.82,0,0,0,1.5.4v-9.9Z" transform="translate(-19.11 -32.7)" style="fill:#f2f1f2"/><path id="Path_7759" data-name="Path 7759" d="M217.2,134.1l77.1,44.5v1c0,.6.8.8,1.8.2s1.8-1.3,1.8-2.3l.1-1-78.6-45.3-.3-.2a.75.75,0,0,0-.1.5v.5C219,132.6,218.2,133.5,217.2,134.1Z" transform="translate(-19.11 -32.7)" style="fill:#5291b9;opacity:0.6700000166893005;isolation:isolate"/><path id="Path_7761" data-name="Path 7761" d="M242.8,208.3l50.4-29.1c.6-.3,1.3-.6,1.5-.5l-.3-.2L217.3,134l-.9-.5a2.92,2.92,0,0,0-2.4.4l-50,28.9a1.46,1.46,0,0,0-.9,1.8,1.59,1.59,0,0,0,.9.9l74.3,42.9a4.79,4.79,0,0,0,4.5-.1Z" transform="translate(-19.11 -32.7)" style="fill:#214f6e"/><path id="Path_7762" data-name="Path 7762" d="M219.1,131l.3.2L298,176.5a.22.22,0,0,1,.2-.2l.3-.2.6-.3.7-.4a.63.63,0,0,1,.9.1.1.1,0,0,1,.1.1c.1.1.2.2.2.3a.76.76,0,0,1,.2.4c.1.2.1.3.2.5s.1.4.1.6v-.8a4.56,4.56,0,0,0-2.3-3.5l-74.3-42.9a4.9,4.9,0,0,0-4.1-.3l-.9.5h0c-.1,0-.2.1-.4.2Z" transform="translate(-19.11 -32.7)" style="fill:#055485"/><path id="Path_7763" data-name="Path 7763" d="M242.7,222.2l3.1-1.8,46.6-26.9a3.49,3.49,0,0,1,.6-1.7,8.6,8.6,0,0,1,2-1.8,5.68,5.68,0,0,1,2.2-.7,3,3,0,0,1,1.5.5,8.6,8.6,0,0,0,.9-3.9h1.8c0,2.4-.8,4.9-1.8,5.4l-.9.5c-.5.3-.9.3-.9,0v-.5c0-.5-.8-.5-1.8.1s-1.8,1.5-1.8,2v.5c0,.3-.7.9-1.5,1.4l-45.1,26.1-4.9,2.8h0a3.72,3.72,0,0,1-2.3.5v-2a3.57,3.57,0,0,0,2.3-.5Z" transform="translate(-19.11 -32.7)" style="fill:#5291b9"/><path id="Path_7765" data-name="Path 7765" d="M242.8,208.3h0l3.1-1.8,35.8-20.7,11.4-6.6c.8-.5,1.5-.6,1.5-.4v.5c0,.6.8.6,1.8,0s1.4-1.3,1.4-1.8V177a.91.91,0,0,1,.3-.7c.1-.1.2-.1.3-.2l.6-.3.7-.4a.63.63,0,0,1,.9.1.1.1,0,0,1,.1.1l.2.2.1.1a.76.76,0,0,1,.2.4c.1.2.1.3.2.5s.1.4.1.6v8.4h-1.8v-7.9h0a5,5,0,0,1-2.7,3.3,5.19,5.19,0,0,1-2.2.7,2.45,2.45,0,0,1-1.6-.6l-.2.1-.3.2-45,26.1-4.9,2.8h0a4.56,4.56,0,0,1-2.3.5v-2a6.15,6.15,0,0,0,2.3-.7Z" transform="translate(-19.11 -32.7)" style="fill:#c5c800;fill-opacity:0"/><path id="Path_7766" data-name="Path 7766" d="M242.8,208.4h0l3.1-1.8,35.8-20.7,11.4-6.6c.8-.5,1.5-.6,1.5-.4v.5c0,.6.8.6,1.8,0s1.4-1.3,1.4-1.8V177a.91.91,0,0,1,.3-.7c.1-.1.2-.1.3-.2l.6-.3.7-.4a.63.63,0,0,1,.9.1.1.1,0,0,1,.1.1l.2.2.1.1a.76.76,0,0,1,.2.4c.1.2.1.3.2.5s.1.4.1.6v8.4h-1.8v-7.9h0a5,5,0,0,1-2.7,3.3,5.19,5.19,0,0,1-2.2.7,2.45,2.45,0,0,1-1.6-.6l-.2.1-.3.2-45,26.1-4.9,2.8h0a4.56,4.56,0,0,1-2.3.5v-2a4.65,4.65,0,0,0,2.3-.6Z" transform="translate(-19.11 -32.7)" style="fill:#5291b9"/><path id="Path_7767" data-name="Path 7767" d="M162.9,164v2.1a1.42,1.42,0,0,0,.9,1.3h0l69.5,40.1,4.9,2.8h0a3.72,3.72,0,0,0,2.3.5v-2a5.93,5.93,0,0,1-2.3-.5l-3.1-1.8h0l-71.2-41.1a1.66,1.66,0,0,1-1-1.4Z" transform="translate(-19.11 -32.7)" style="fill:#5291b9"/><path id="Path_7768" data-name="Path 7768" d="M161.4,167.6v2.1a1.42,1.42,0,0,0,.9,1.3h0l69.5,40.1,4.9,2.8h0a3.72,3.72,0,0,0,2.3.5v-2a5.93,5.93,0,0,1-2.3-.5l-3.1-1.8h0L162.4,169a1.61,1.61,0,0,1-1-1.4Z" transform="translate(-19.11 -32.7)" style="fill:#040405;fill-opacity:0"/><path id="Path_7769" data-name="Path 7769" d="M162.9,177.9V180a1.42,1.42,0,0,0,.9,1.3h0l69.4,40.1,4.9,2.8h0a3.72,3.72,0,0,0,2.3.5v-2a5.93,5.93,0,0,1-2.3-.5l-3.1-1.8h0l-71.2-41.1A1.94,1.94,0,0,1,162.9,177.9Z" transform="translate(-19.11 -32.7)" style="fill:#5291b9"/><path id="Path_7771" data-name="Path 7771" d="M298,169.4l-60.2,34.3-80.1-46,60.2-34.3Z" transform="translate(-19.11 -32.7)" style="fill:#c5c800"/><path id="Path_7772" data-name="Path 7772" d="M298,169.4l-60.2,34.3-80.1-46,60.2-34.3Z" transform="translate(-19.11 -32.7)" style="fill:#055485"/><path id="Path_7773" data-name="Path 7773" d="M237.2,201.6l58.5-33.5c-1.3-3.5-1.1-7.5.3-12.1l-58.2,33.2S236.9,192.1,237.2,201.6Z" transform="translate(-19.11 -32.7)" style="fill:#f2f1f2"/><path id="Path_7774" data-name="Path 7774" d="M240.1,185.4a10.06,10.06,0,0,0-4.5,7.7v9c0,2.9,2,4,4.5,2.6l57.8-33.1v-2.2L240.8,202c-1.5.9-2.7.2-2.7-1.6V192a5.75,5.75,0,0,1,2.7-4.6l57.1-32.6v-2.5Z" transform="translate(-19.11 -32.7)" style="fill:#fff"/><path id="Path_7775" data-name="Path 7775" d="M239.9,185.4a9.79,9.79,0,0,0-4.5,7.7v9c0,2.9,2,4,4.5,2.6l57.8-33.1v-2.2L240.5,202c-1.5.9-2.7.2-2.7-1.6V192a5.75,5.75,0,0,1,2.7-4.6l57.2-32.6v-2.5Z" transform="translate(-19.11 -32.7)" style="fill:#5291b9;opacity:0.6700000166893005;isolation:isolate"/><path id="Path_7776" data-name="Path 7776" d="M298,152.3l-80.1-45.9-57.8,33.1a10.06,10.06,0,0,0-4.5,7.7v9a3.33,3.33,0,0,0,1.3,2.9l80.1,46a3.33,3.33,0,0,1-1.3-2.9v-9a10.06,10.06,0,0,1,4.5-7.7Z" transform="translate(-19.11 -32.7)" style="fill:#c5c800"/><path id="Path_7777" data-name="Path 7777" d="M298,152.3l-80.1-45.9-57.8,33.1a10.06,10.06,0,0,0-4.5,7.7v9a3.33,3.33,0,0,0,1.3,2.9l80.1,46a3.33,3.33,0,0,1-1.3-2.9v-9a10.06,10.06,0,0,1,4.5-7.7Z" transform="translate(-19.11 -32.7)" style="fill:#214f6e"/><path id="Path_7778" data-name="Path 7778" d="M237,188.8a8.39,8.39,0,0,0-1.3,4.4v9a3.33,3.33,0,0,0,1.3,2.9l-80.1-46a3.33,3.33,0,0,1-1.3-2.9v-9a9.42,9.42,0,0,1,1.3-4.4Z" transform="translate(-19.11 -32.7)" style="fill:#f2f1f2"/><path id="Path_7779" data-name="Path 7779" d="M236.8,189a8.39,8.39,0,0,0-1.3,4.4v9a3.33,3.33,0,0,0,1.3,2.9l-80.1-46a3.33,3.33,0,0,1-1.3-2.9v-9a9.42,9.42,0,0,1,1.3-4.4Z" transform="translate(-19.11 -32.7)" style="fill:#0e4668"/><path id="Path_7780" data-name="Path 7780" d="M167.4,148.8c-1.5,6.3-1.4,11.8,0,16.4l3.7,2.1c-1.4-4.6-1.5-10.1,0-16.4Z" transform="translate(-19.11 -32.7)" style="fill:#fff"/><path id="Path_7781" data-name="Path 7781" d="M220.6,179.5c-1.5,6.3-1.4,11.8,0,16.4l3.7,2.1c-1.4-4.6-1.5-10.1,0-16.4Z" transform="translate(-19.11 -32.7)" style="fill:#fff"/><g id="freepik--folder--inject-2-2"><path id="Path_7782" data-name="Path 7782" d="M22.24,234.35c-1.7-1-1.7-2.5,0-3.5l85.3-49.6,111,64.1-85.6,49.5a6.38,6.38,0,0,1-6,0l-63.41-36.6-10.6,2a3.41,3.41,0,0,1-2-.3l-26.3-15.2a2.92,2.92,0,0,1-1.1-3.9.35.35,0,0,0,.1-.2l2.8-3.8Z" transform="translate(-19.11 -32.7)" style="fill:#c5c800"/><path id="Path_7783" data-name="Path 7783" d="M22.24,234.35c-1.7-1-1.7-2.5,0-3.5l85.3-49.6,111,64.1-85.6,49.5a6.38,6.38,0,0,1-6,0l-63.41-36.6-10.6,2a3.41,3.41,0,0,1-2-.3l-26.3-15.2a2.92,2.92,0,0,1-1.1-3.9.35.35,0,0,0,.1-.2l2.8-3.8Z" transform="translate(-19.11 -32.7)" style="fill:#5291b9"/><path id="Path_7784" data-name="Path 7784" d="M111,183.35l103.71,59.9-84.8,48.6-103.2-59.6Z" transform="translate(-19.11 -32.7)" style="fill:#ececec"/><path id="Path_7785" data-name="Path 7785" d="M218.64,245.45l-77.31,44.4a6.47,6.47,0,0,1-5.9-.1L30.74,229.35c-1.7-1-1.7-2.5-.2-3.4l77-44.6Z" transform="translate(-19.11 -32.7)" style="fill:#214f6e"/></g><path id="Path_7786" data-name="Path 7786" d="M246.5,256.6h0l-25.7,14.8h0a2.66,2.66,0,0,0-1.1,2.2,7.54,7.54,0,0,0,3.2,6.2,2.49,2.49,0,0,0,2.5.4l27-12h0a6.46,6.46,0,0,0,3.4-8.5,6.38,6.38,0,0,0-8.4-3.4c-.1,0-.2.1-.3.1-.3.1-.5.1-.6.2Z" transform="translate(-19.11 -32.7)" style="fill:#354952"/><path id="Path_7787" data-name="Path 7787" d="M225.3,280.2l27-12a6.43,6.43,0,0,0,3.1-8.6,5.88,5.88,0,0,0-2-2.4c1.5,1.6,1.1,5.5-3.3,7.8s-21.1,9.8-28.6,13.7a7.41,7.41,0,0,0,1.3,1.2,2.5,2.5,0,0,0,2.5.3Z" transform="translate(-19.11 -32.7)" style="fill:#29373e"/><path id="Path_7788" data-name="Path 7788" d="M219.6,273.6a7.54,7.54,0,0,0,3.2,6.2,2.6,2.6,0,0,0,2.4.4c.5-.2,2.3-1,2.8-1.3a2.77,2.77,0,0,0,1.3-2.3,7.87,7.87,0,0,0-3.3-6.4,2.44,2.44,0,0,0-2.6-.3c-.5.3-2.6,1.5-2.6,1.5A2.63,2.63,0,0,0,219.6,273.6Z" transform="translate(-19.11 -32.7)" style="fill:#c5c800"/><path id="Path_7789" data-name="Path 7789" d="M219.6,273.6c.1-2.2,1.7-3.1,3.6-1.8a7.68,7.68,0,0,1,3.2,6.2c-.1,2.2-1.7,3.1-3.6,1.8a7.81,7.81,0,0,1-3.2-6.2Z" transform="translate(-19.11 -32.7)" style="fill:#c5c800"/><path id="Path_7790" data-name="Path 7790" d="M219.6,273.6c.1-2.2,1.7-3.1,3.6-1.8a7.68,7.68,0,0,1,3.2,6.2c-.1,2.2-1.7,3.1-3.6,1.8a7.81,7.81,0,0,1-3.2-6.2Z" transform="translate(-19.11 -32.7)" style="fill:#fff;opacity:0.30000001192092896;isolation:isolate"/><path id="Path_7791" data-name="Path 7791" d="M212.9,283.6a5.07,5.07,0,0,1-2.1-4.1,1.8,1.8,0,0,1,.7-1.5h0l9.5-4.9h0a1.8,1.8,0,0,1,1.6.2,5.07,5.07,0,0,1,2.1,4.1,1.68,1.68,0,0,1-.7,1.5h0l-9.5,4.9h0A1.38,1.38,0,0,1,212.9,283.6Z" transform="translate(-19.11 -32.7)" style="fill:#29373e"/><path id="Path_7792" data-name="Path 7792" d="M214.6,283.9a1.8,1.8,0,0,1-1.6-.2,5.35,5.35,0,0,1-1.3-1.3l12.8-6.7a5.08,5.08,0,0,1,.3,1.7,1.68,1.68,0,0,1-.7,1.5l-9.5,5Z" transform="translate(-19.11 -32.7)" style="fill:#1c262c"/><path id="Path_7793" data-name="Path 7793" d="M153.9,285.7v9.2c0,5,3.3,10,9.9,13.8,13.2,7.6,34.6,7.6,47.9,0,6.6-3.8,9.9-8.8,9.9-13.8v-9.2h0c0-5-3.3-10-9.9-13.8-13.2-7.6-34.6-7.6-47.9,0C157.2,275.7,153.9,280.7,153.9,285.7Zm64.5,0c0,4-2.9,7.9-8.3,11-5.9,3.4-13.8,5.3-22.3,5.3s-16.4-1.9-22.3-5.3c-5.3-3.1-8.3-7-8.3-11s2.9-7.9,8.3-11c5.9-3.4,13.8-5.3,22.3-5.3s16.4,1.9,22.3,5.3c5.3,3.1,8.3,7,8.3,11Z" transform="translate(-19.11 -32.7)" style="fill:#c5c800"/><path id="Path_7794" data-name="Path 7794" d="M153.9,285.7v9.2c0,5,3.3,10,9.9,13.8,13.2,7.6,34.6,7.6,47.9,0,6.6-3.8,9.9-8.8,9.9-13.8v-9.2h0c0-5-3.3-10-9.9-13.8-13.2-7.6-34.6-7.6-47.9,0C157.2,275.7,153.9,280.7,153.9,285.7Zm64.5,0c0,4-2.9,7.9-8.3,11-5.9,3.4-13.8,5.3-22.3,5.3s-16.4-1.9-22.3-5.3c-5.3-3.1-8.3-7-8.3-11s2.9-7.9,8.3-11c5.9-3.4,13.8-5.3,22.3-5.3s16.4,1.9,22.3,5.3c5.3,3.1,8.3,7,8.3,11Z" transform="translate(-19.11 -32.7)" style="fill:#95ba74"/><path id="Path_7795" data-name="Path 7795" d="M216.8,280.7a9.86,9.86,0,0,1,1.6,5c0,4-2.9,7.9-8.3,11a36.39,36.39,0,0,1-8.4,3.5v12.6a39.47,39.47,0,0,0,10-4c6.6-3.8,9.9-8.8,9.9-13.8v-9.2a12.67,12.67,0,0,0-2.1-6.8Z" transform="translate(-19.11 -32.7)" style="fill:#bae099"/><path id="Path_7796" data-name="Path 7796" d="M153.9,285.8h0V295c0,5,3.3,10,9.9,13.8a33.77,33.77,0,0,0,5.8,2.7V298.8a40.93,40.93,0,0,1-4.2-2c-5.3-3.1-8.3-7-8.3-11a7.56,7.56,0,0,1,1-3.9l-2.6-2.1a13,13,0,0,0-1.6,6Z" transform="translate(-19.11 -32.7)" style="fill:#bae099"/><path id="Path_7797" data-name="Path 7797" d="M211.7,271.9c-13.2-7.6-34.6-7.6-47.9,0s-13.2,20,0,27.6,34.6,7.6,47.9,0S224.9,279.6,211.7,271.9Zm-1.6,24.8c-5.9,3.4-13.8,5.3-22.3,5.3s-16.4-1.9-22.3-5.3c-5.3-3.1-8.3-7-8.3-11s2.9-7.9,8.3-11c5.9-3.4,13.8-5.3,22.3-5.3s16.4,1.9,22.3,5.3c5.3,3.1,8.3,7,8.3,11s-3,8-8.3,11Z" transform="translate(-19.11 -32.7)" style="fill:#c5c800"/><g id="Group_30923" data-name="Group 30923"><path id="Path_7798" data-name="Path 7798" d="M211.76,272c-13.2-7.6-34.6-7.6-47.9,0s-13.2,20,0,27.6,34.6,7.6,47.9,0S225,279.57,211.76,272Zm-1.7,24.8c-5.9,3.4-13.8,5.3-22.3,5.3s-16.4-1.9-22.3-5.3c-5.3-3.1-8.3-7-8.3-11s2.9-7.9,8.3-11c5.9-3.4,13.8-5.3,22.3-5.3s16.4,1.9,22.3,5.3c5.3,3.1,8.3,7,8.3,11s-2.9,7.9-8.3,11Z" transform="translate(-19.11 -32.7)" style="fill:#bae099"/></g><path id="Path_7799" data-name="Path 7799" d="M157.9,276.5a14.17,14.17,0,0,0-3.7,6.5,11.43,11.43,0,0,0,.7,7.5,18.22,18.22,0,0,0,4.6,6.1c1,.8,2,1.6,3,2.3.5.3,1.1.7,1.6,1l1.7.9a13,13,0,0,0,1.7.8c.6.3,1.2.5,1.7.7l1.8.6.9.3.9.3a56.57,56.57,0,0,0,30,0l.9-.3.9-.3,1.8-.6c.6-.2,1.2-.5,1.8-.7a8.86,8.86,0,0,0,1.7-.8l1.7-.9a8.64,8.64,0,0,0,1.6-1,23.72,23.72,0,0,0,3-2.3,17,17,0,0,0,4.5-6.1,12.1,12.1,0,0,0,.7-7.5,14.56,14.56,0,0,0-3.7-6.5,26.61,26.61,0,0,0-6-4.6,24.44,24.44,0,0,1,5.9,4.7,14.92,14.92,0,0,1,3.6,6.5,11.49,11.49,0,0,1-.7,7.3,16.31,16.31,0,0,1-4.5,5.9,29.67,29.67,0,0,1-6.3,4.1,8.86,8.86,0,0,1-1.7.8c-.6.2-1.2.5-1.7.7l-1.8.6-.9.3-.9.3a55.83,55.83,0,0,1-29.8,0l-.9-.3-.9-.3-1.8-.6c-.6-.2-1.1-.5-1.7-.7a13,13,0,0,1-1.7-.8,26.25,26.25,0,0,1-6.3-4.1,16.31,16.31,0,0,1-4.5-5.9,11.49,11.49,0,0,1-.7-7.3,14.92,14.92,0,0,1,3.6-6.5,24,24,0,0,1,5.9-4.6,24.18,24.18,0,0,0-6,4.5Z" transform="translate(-19.11 -32.7)" style="fill:#040405;opacity:0.15000000596046448;isolation:isolate"/><path id="Path_7800" data-name="Path 7800" d="M218.4,285.8a9.4,9.4,0,0,1-1.3,4.6,18,18,0,0,0-7-6.4c-5.9-3.4-13.8-5.3-22.3-5.3s-16.4,1.9-22.3,5.3a19.51,19.51,0,0,0-7,6.4,9.4,9.4,0,0,1-1.3-4.6c0-4,2.9-7.9,8.3-11,5.9-3.4,13.8-5.3,22.3-5.3s16.4,1.9,22.3,5.3C215.4,277.8,218.4,281.8,218.4,285.8Z" transform="translate(-19.11 -32.7)" style="fill:#c5c800"/><path id="Path_7801" data-name="Path 7801" d="M218.4,285.8a9.4,9.4,0,0,1-1.3,4.6,18,18,0,0,0-7-6.4c-5.9-3.4-13.8-5.3-22.3-5.3s-16.4,1.9-22.3,5.3a19.51,19.51,0,0,0-7,6.4,9.4,9.4,0,0,1-1.3-4.6c0-4,2.9-7.9,8.3-11,5.9-3.4,13.8-5.3,22.3-5.3s16.4,1.9,22.3,5.3C215.4,277.8,218.4,281.8,218.4,285.8Z" transform="translate(-19.11 -32.7)" style="fill:#95ba74"/><path id="Path_7802" data-name="Path 7802" d="M165.5,274.8c-5.3,3.1-8.3,7-8.3,11a9.4,9.4,0,0,0,1.3,4.6,18,18,0,0,1,7-6.4,34.18,34.18,0,0,1,4.3-2.1c-1.3.5-5.2,1.8-3.8-2,1.7-4.5,10.1-9.3,16.3-10.1h0A43,43,0,0,0,165.5,274.8Z" transform="translate(-19.11 -32.7)" style="fill:#7d9964"/><path id="Path_7803" data-name="Path 7803" d="M210.1,278.9c-5.9-3.4-13.8-5.3-22.3-5.3s-16.4,1.9-22.3,5.3c-4.4,2.5-7.2,5.7-8,8.9.8,3.2,3.6,6.4,8,8.9,5.9,3.4,13.8,5.3,22.3,5.3s16.4-1.9,22.3-5.3c4.4-2.5,7.2-5.7,8-8.9C217.2,284.6,214.5,281.5,210.1,278.9Z" transform="translate(-19.11 -32.7)" style="fill:#fff;opacity:0.699999988079071;isolation:isolate"/><g id="freepik--pencil--inject-2-3"><path id="Path_7804" data-name="Path 7804" d="M64.7,277.6l.8.5,1,.6,50.7,29.4a4.71,4.71,0,0,1,.6-3.3c.8-1.5,2-2.7,2.9-2.8L70.2,272.8l-1.9-1.1C69.7,272.4,65.9,278.3,64.7,277.6Z" transform="translate(-19.11 -32.7)" style="fill:#354952"/><path id="Path_7805" data-name="Path 7805" d="M70.3,272.6l-1.8-1c-.5-.3-1.5.6-2.3,1.8-1.1,1.6-2.1,3.8-1.4,4.2l1.3.8.5.3c-.7-.4.2-2.6,1.4-4.2.7-1.2,1.7-2.1,2.3-1.9Z" transform="translate(-19.11 -32.7)" style="fill:#e7e6e6"/><path id="Path_7806" data-name="Path 7806" d="M69.8,272.4c-1.2-.7-4.9,5.3-3.7,6l1.8,1c-1.2-.7,2.5-6.7,3.7-6Z" transform="translate(-19.11 -32.7)" style="fill:#bae099"/><path id="Path_7807" data-name="Path 7807" d="M73.3,274.4l-1.8-1c-1.2-.7-4.8,5-3.8,5.9h.1l1.8,1C68.4,279.6,72.2,273.7,73.3,274.4Z" transform="translate(-19.11 -32.7)" style="fill:#e7e6e6"/><path id="Path_7808" data-name="Path 7808" d="M68.5,271.6h0c-.5-.3-1.5.6-2.3,1.8-1.1,1.6-2,3.7-1.4,4.2l-7.5-4.3a1.92,1.92,0,0,1-.6-2c.4-2.2,3-5,4.6-3.9Z" transform="translate(-19.11 -32.7)" style="fill:#ec797c"/><path id="Path_7809" data-name="Path 7809" d="M125.6,308.3a2.47,2.47,0,0,0-.6,1.3l-7.8-1.5c-.8-1.2-.3-3.1.8-4.5l.3.2Z" transform="translate(-19.11 -32.7)" style="fill:#ec797c"/><path id="Path_7810" data-name="Path 7810" d="M127.2,309.9l-2.1-.4s-.1-.4.6-1.3l1.9,1.2h0a.3.3,0,0,1,0,.4h0C127.4,309.9,127.3,310,127.2,309.9Z" transform="translate(-19.11 -32.7)" style="fill:#29373e"/><path id="Path_7811" data-name="Path 7811" d="M120.8,301.9h0l5.4,6.1a.86.86,0,0,0-.6.3l-7.2-4.6-.3-.2A3.49,3.49,0,0,1,120.8,301.9Z" transform="translate(-19.11 -32.7)" style="fill:#ef9296"/><path id="Path_7812" data-name="Path 7812" d="M125.6,308.3a.6.6,0,0,1,.6-.3l1.3,1.5Z" transform="translate(-19.11 -32.7)" style="fill:#354952"/><path id="Path_7813" data-name="Path 7813" d="M118,303.5l-60.7-34a7.1,7.1,0,0,0-.8,1.8,1.92,1.92,0,0,0,.6,2l7.5,4.3.8.5,1,.6,50.7,29.4C116.3,306.5,117.3,304.3,118,303.5Z" transform="translate(-19.11 -32.7)" style="fill:#040405;opacity:0.20000000298023224;isolation:isolate"/></g><path id="Path_7814" data-name="Path 7814" d="M244.7,238.5l30.7-17.7,29.5,17.1-30.7,17.7Z" transform="translate(-19.11 -32.7)" style="fill:#c5c800"/><path id="Path_7815" data-name="Path 7815" d="M244.7,238.5l30.7-17.7,29.5,17.1-30.7,17.7Z" transform="translate(-19.11 -32.7)" style="fill:#a3cc84"/><path id="Path_7816" data-name="Path 7816" d="M244.7,238.5l-3.5-2,30.7-17.7,3.5,2Z" transform="translate(-19.11 -32.7)" style="fill:#c5c800"/><path id="Path_7817" data-name="Path 7817" d="M244.7,238.5l-3.5-2,30.7-17.7,3.5,2Z" transform="translate(-19.11 -32.7)" style="fill:#c5c800;opacity:0.15000000596046448;isolation:isolate"/><path id="Path_7818" data-name="Path 7818" d="M244.7,238.5l-3.5-2,30.7-17.7,3.5,2Z" transform="translate(-19.11 -32.7)" style="fill:#95ba74"/><path id="Path_7819" data-name="Path 7819" d="M241.1,236.5v6.1l33.1,19.1v-6.1Z" transform="translate(-19.11 -32.7)" style="fill:#c5c800"/><path id="Path_7820" data-name="Path 7820" d="M241.1,236.5v6.1l33.1,19.1v-6.1Z" transform="translate(-19.11 -32.7)" style="fill:#7d9964"/><path id="Path_7821" data-name="Path 7821" d="M274.2,255.6l30.7-17.7V244l-30.7,17.7Z" transform="translate(-19.11 -32.7)" style="fill:#95ba74"/><path id="Path_7822" data-name="Path 7822" d="M299.2,231.8h0l-23.8-11-30.7,17.7,29.5,13.6,26.6-15.3c1.6-.9,3.2-2.5,3.1-4.6C303,232.7,301.5,232.8,299.2,231.8Z" transform="translate(-19.11 -32.7)" style="fill:#c5c800"/><path id="Path_7823" data-name="Path 7823" d="M299.2,231.8h0l-23.8-11-30.7,17.7,29.5,13.6,26.6-15.3c1.6-.9,3.2-2.5,3.1-4.6C303,232.7,301.5,232.8,299.2,231.8Z" transform="translate(-19.11 -32.7)" style="fill:#bae099"/><path id="Path_7824" data-name="Path 7824" d="M288.9,232.1l-.1-.1c-.2-.2-.5.1-.3.2l-.6.3a2.23,2.23,0,0,1-1.4.3v-.1a1.68,1.68,0,0,0-.9-1.7,1.36,1.36,0,0,0-1.6-.2c-.6.4-.2,1.1.2,1.5a2.85,2.85,0,0,0,1.4.8,4.05,4.05,0,0,1-.9.5c-.5.2-.8.2-.8.7,0,.2.1.5.1.7.1.5,0,1-1,1a3.26,3.26,0,0,1-1.3-.4c-.2-.1-.4,0-.4.1-.1.4.1.8.1,1.2,0,1.1-1.6,0-2.1-.3-.3-.2-.5,0-.4.2a3.4,3.4,0,0,1,0,2c-.1.3-.2.9-.7,1.1a1.26,1.26,0,0,1-1.3-.2,4.22,4.22,0,0,0,.5-2.9,1,1,0,0,0-1.1-.8h0a.37.37,0,0,0-.3.1,1.15,1.15,0,0,0-.9,1.5c0,.1.1.2.1.4a5.67,5.67,0,0,0,1.2,1.8,10.18,10.18,0,0,1-3.3,2.9c-.2.1,0,.4.2.2a8.43,8.43,0,0,0,3.4-2.8,1.65,1.65,0,0,0,2,.1,2.78,2.78,0,0,0,.9-2.7,2.38,2.38,0,0,0,1.8.5c.9-.3.5-1.2.4-1.7a3.3,3.3,0,0,0,2.2.2c1-.4.4-1.2.4-1.7s.9-.6,1.5-1a.78.78,0,0,0,.4-.4,3.39,3.39,0,0,0,2.7-1,.37.37,0,0,0-.1-.3Zm-12.3,7.2a2.09,2.09,0,0,1-.4-.6c-.3-.4-1-1.5-.6-2,0-.1.1-.1.2-.1a.85.85,0,0,1,.7,0,1,1,0,0,1,.6.8,2,2,0,0,1-.1.8,7.6,7.6,0,0,0-.4,1.1Zm9.3-6.5a2.67,2.67,0,0,1-1.4-.7h0a.52.52,0,0,1-.2-.4c0-.2.2-.4.5-.5a1.15,1.15,0,0,1,.9.6c0,.1.4,1,.2,1Zm-11.6,3.1a2.6,2.6,0,0,0,.4-1.5v-1a1.42,1.42,0,0,0-.2-.6,2.08,2.08,0,0,0,2,.5c1.3-.4,1-1.4.7-2.1.7.4,1.4.8,2-.1a2.94,2.94,0,0,1,1-1.2c.3-.2.7-.4,1-.6.7-.6.3-1.3.8-2,.1-.2-.2-.4-.4-.2a.86.86,0,0,0-.3.6,2.83,2.83,0,0,1-1.6,2c-.5.3-.6.6-.9.9-.8.8-1.1.2-1.8-.1-.2-.1-.4,0-.4.2.2.5,1.1,2-.5,2.1-.8,0-1-.4-1.7-.6s-.3,1.3-.3,1.6a3.08,3.08,0,0,1,.1,1,1,1,0,0,1-.7,1.2h-.3a4.33,4.33,0,0,1-1.6-.1c.1-.2.3-.3.4-.6a2.2,2.2,0,0,0,.1-.8,2.75,2.75,0,0,0-.8-1.5,2.34,2.34,0,0,0-2.1-.5c-.7.3-.3,1.4-.2,1.8a3.75,3.75,0,0,0,1.7,1.6,6.47,6.47,0,0,1-1.3.4c-.8.1-1.4.1-1.6.6-.1.3.1.7-.2.9-.5.4-1,0-1.4,0-.6.1-.8.2-.8.5,0,.1.2.3.1.4l.1.1a2.2,2.2,0,0,1-.8-.1c-.2-.1-.5-.1-.7-.2a.6.6,0,0,0-.4.1,2.9,2.9,0,0,0,0,1.6,10.49,10.49,0,0,0-3-3.3c-.9-.5-2.4-1.2-3.4-.5-1.6,1.1-1.1,4,1.1,4.7a.37.37,0,0,0,.3-.1l.2-.2c.1-.1-.1-.3-.3-.2-.4.3-1.4-1.5-1.5-1.6a2.23,2.23,0,0,1,.2-2.1c1-1.3,3.1.1,3.9.8,1.2,1,1.6,2.2,2.5,3.2.2.2.5.2.6,0,.2-.7-.4-1.4-.2-2.1.6.3,1.6.8,2,.3.2-.3-.2-.5-.1-.8s.1-.2.7-.1h.6a.55.55,0,0,0,.5-.3c.5-.5-.1-1.1,1.2-1.4a12.86,12.86,0,0,0,1.9-.4l.2-.1.4.2a2.26,2.26,0,0,0,2.8-.3Zm-3.4-.3-.9-.6a1.82,1.82,0,0,1-.8-1.6.66.66,0,0,1,.8-.5h0c.1,0,.2.1.3.1a2.75,2.75,0,0,1,1,1.6,1,1,0,0,1-.4,1Z" transform="translate(-19.11 -32.7)" style="fill:#354952"/><path id="Path_7825" data-name="Path 7825" d="M167.8,111.8l-1-3.7c.5-2.1-8.3,2.9-8.7,5l2.8,7.5a1.21,1.21,0,0,0,.5.5c.6.4,4.8,2.7,5,2.9a1.19,1.19,0,0,0,1.7-.4h0a.37.37,0,0,0,.1-.3l3.6-12.5C172,109.9,170,110.6,167.8,111.8Z" transform="translate(-19.11 -32.7)" style="fill:#bae099"/><path id="Path_7827" data-name="Path 7827" d="M177.8,60,144.7,79.1a2.26,2.26,0,0,0-1.1,1.9v39.3a2.37,2.37,0,0,0,1.1,1.9l3.9,2.2a2.17,2.17,0,0,0,2.2,0l33.1-19.1a2.26,2.26,0,0,0,1.1-1.9V64.1a2.37,2.37,0,0,0-1.1-1.9L180,60A2.17,2.17,0,0,0,177.8,60Z" transform="translate(-19.11 -32.7)" style="fill:#c5c800"/><path id="Path_7828" data-name="Path 7828" d="M177.8,60,144.7,79.1a2.26,2.26,0,0,0-1.1,1.9v39.3a2.37,2.37,0,0,0,1.1,1.9l3.9,2.2a2.17,2.17,0,0,0,2.2,0l33.1-19.1a2.26,2.26,0,0,0,1.1-1.9V64.1a2.37,2.37,0,0,0-1.1-1.9L180,60A2.17,2.17,0,0,0,177.8,60Z" transform="translate(-19.11 -32.7)" style="fill:#95ba74"/><path id="Path_7829" data-name="Path 7829" d="M184,63.5,150.9,82.6a2.26,2.26,0,0,0-1.1,1.9v39.2c0,.7.5,1,1.1.6l12.7-7.3,2.3,6.5a1.26,1.26,0,0,0,2.3-.1l3.1-10.8,12.7-7.4a2.26,2.26,0,0,0,1.1-1.9V64.1C185.1,63.4,184.6,63.1,184,63.5Z" transform="translate(-19.11 -32.7)" style="fill:#c5c800"/><path id="Path_7830" data-name="Path 7830" d="M184,63.5,150.9,82.6a2.26,2.26,0,0,0-1.1,1.9v39.2c0,.7.5,1,1.1.6l12.7-7.3,2.3,6.5a1.26,1.26,0,0,0,2.3-.1l3.1-10.8,12.7-7.4a2.26,2.26,0,0,0,1.1-1.9V64.1C185.1,63.4,184.6,63.1,184,63.5Z" transform="translate(-19.11 -32.7)" style="fill:#a3cc84"/><g id="freepik--speech-bubble--inject-2-5"><path id="Path_7825-2" data-name="Path 7825-2" d="M214.9,84.8l-1-3.7c.5-2.1-8.3,2.9-8.7,5l2.8,7.5a1.21,1.21,0,0,0,.5.5c.6.4,4.8,2.7,5,2.9a1.19,1.19,0,0,0,1.7-.4h0a.37.37,0,0,0,.1-.3l3.6-12.5C219.1,82.9,217.1,83.6,214.9,84.8Z" transform="translate(-19.11 -32.7)" style="fill:#bae099"/><path id="Path_7827-2" data-name="Path 7827-2" d="M224.9,33,191.8,52.1a2.26,2.26,0,0,0-1.1,1.9V93.3a2.37,2.37,0,0,0,1.1,1.9l3.9,2.2a2.17,2.17,0,0,0,2.2,0L231,78.3a2.26,2.26,0,0,0,1.1-1.9V37.1a2.37,2.37,0,0,0-1.1-1.9L227.1,33A2.17,2.17,0,0,0,224.9,33Z" transform="translate(-19.11 -32.7)" style="fill:#c5c800"/><path id="Path_7828-2" data-name="Path 7828-2" d="M224.9,33,191.8,52.1a2.26,2.26,0,0,0-1.1,1.9V93.3a2.37,2.37,0,0,0,1.1,1.9l3.9,2.2a2.17,2.17,0,0,0,2.2,0L231,78.3a2.26,2.26,0,0,0,1.1-1.9V37.1a2.37,2.37,0,0,0-1.1-1.9L227.1,33A2.17,2.17,0,0,0,224.9,33Z" transform="translate(-19.11 -32.7)" style="fill:#95ba74"/><path id="Path_7829-2" data-name="Path 7829-2" d="M231.1,36.5,198,55.6a2.26,2.26,0,0,0-1.1,1.9V96.7c0,.7.5,1,1.1.6L210.7,90l2.3,6.5a1.26,1.26,0,0,0,2.3-.1l3.1-10.8,12.7-7.4a2.26,2.26,0,0,0,1.1-1.9V37.1C232.2,36.4,231.7,36.1,231.1,36.5Z" transform="translate(-19.11 -32.7)" style="fill:#c5c800"/><path id="Path_7830-2" data-name="Path 7830-2" d="M231.1,36.5,198,55.6a2.26,2.26,0,0,0-1.1,1.9V96.7c0,.7.5,1,1.1.6L210.7,90l2.3,6.5a1.26,1.26,0,0,0,2.3-.1l3.1-10.8,12.7-7.4a2.26,2.26,0,0,0,1.1-1.9V37.1C232.2,36.4,231.7,36.1,231.1,36.5Z" transform="translate(-19.11 -32.7)" style="fill:#a3cc84"/><path id="Path_7831-2" data-name="Path 7831-2" d="M232.2,36.9a.63.63,0,0,0-1.1-.4L198,55.6a3,3,0,0,0-.8.8L191,52.9a3,3,0,0,1,.8-.8L224.9,33a2.17,2.17,0,0,1,2.2,0l3.9,2.2A2.3,2.3,0,0,1,232.2,36.9Z" transform="translate(-19.11 -32.7)" style="fill:#95ba74"/><path id="freepik--Check--inject-2" d="M222.6,50.8a2.51,2.51,0,0,0-3.2,1.3l-9.3,22.1L207.9,72a2.51,2.51,0,0,0-3.5.1,2.48,2.48,0,0,0,0,3.4h0l4.8,4.7a2.84,2.84,0,0,0,1.7.7h.5a2.49,2.49,0,0,0,1.8-1.5L224,54a2.43,2.43,0,0,0-1.4-3.2Z" transform="translate(-19.11 -32.7)" style="fill:#fff"/></g><g id="freepik--sheets--inject-2-2"><path id="freepik--shadow--inject-2-6" d="M26.6,214.4l86.2-49.7,115,66.5-86.2,49.7Z" transform="translate(-19.11 -32.7)" style="fill:#040405;opacity:0.15000000596046448;isolation:isolate"/><g id="freepik--sheets--inject-2-3"><g id="freepik--Character--inject-2"><path id="Path_7832" data-name="Path 7832" d="M34,214l107.6,62.3V237.4L34,175.1Z" transform="translate(-19.11 -32.7)" style="fill:#d8d8d8"/><path id="Path_7833" data-name="Path 7833" d="M220.37,230.8l-78.8,45.5V237.4l78.8-45.5Z" transform="translate(-19.11 -32.7)" style="fill:#e7e6e6"/><path id="Path_7834" data-name="Path 7834" d="M34,175.1l78.8-45.5,107.6,62.2-78.8,45.5Z" transform="translate(-19.11 -32.7)" style="fill:#f2f1f2"/></g><path id="Path_7835" data-name="Path 7835" d="M86.17,217.9l55.4,30.5,32.7-18.8-32.7,20.8Z" transform="translate(-19.11 -32.7)" style="fill:#040405;opacity:0.10000000149011612;isolation:isolate"/><path id="Path_7836" data-name="Path 7836" d="M54.47,216.4l87.1,49,54.9-33-54.9,34.9Z" transform="translate(-19.11 -32.7)" style="fill:#040405;opacity:0.10000000149011612;isolation:isolate"/><path id="Path_7837" data-name="Path 7837" d="M42.47,185.7s-1.8,10.2-.9,15.3c0,0,14.2-.4,38.3,6.3Z" transform="translate(-19.11 -32.7)" style="fill:#040405;opacity:0.10000000149011612;isolation:isolate"/><path id="Path_7838" data-name="Path 7838" d="M42.57,185.7,80,207.3l-41.4-11.9Z" transform="translate(-19.11 -32.7)" style="fill:#fff"/><path id="Path_7839" data-name="Path 7839" d="M70.17,215.2l41,37.7s1.1-5.2,9-8.8Z" transform="translate(-19.11 -32.7)" style="fill:#040405;opacity:0.10000000149011612;isolation:isolate"/><path id="Path_7840" data-name="Path 7840" d="M70.17,215.2l38.5,32.4,11.5-3.5Z" transform="translate(-19.11 -32.7)" style="fill:#fbfbfb"/><path id="Path_7841" data-name="Path 7841" d="M206.27,206.5a5.2,5.2,0,0,1-.3-.5l-25.9,15,29.2-2.4C210.17,213.2,207.27,208.1,206.27,206.5Z" transform="translate(-19.11 -32.7)" style="fill:#040405;opacity:0.10000000149011612;isolation:isolate"/><path id="Path_7842" data-name="Path 7842" d="M180,221l25.9-15,8.6,4.6Z" transform="translate(-19.11 -32.7)" style="fill:#fbfbfb"/></g><path id="Path_7843" data-name="Path 7843" d="M34,175.1l107.6,59.8,78.8-43-78.8,41.4Z" transform="translate(-19.11 -32.7)" style="fill:#d8d8d8"/><path id="Path_7844" data-name="Path 7844" d="M34,175.1l107.6,58.2,78.8-41.4L112.8,129.7Z" transform="translate(-19.11 -32.7)" style="fill:#fff"/><path id="Path_7845" data-name="Path 7845" d="M112.7,130.2l106.4,61.5-77.6,40.8L35.1,175.1l77.6-44.9m0-.6L33.9,175.1l107.6,58.2,78.8-41.4Z" transform="translate(-19.11 -32.7)" style="fill:#e1e0e0"/></g><path id="Path_7854" data-name="Path 7854" d="M109.3,149.3l-39.8,23,1.1.6,39.9-23Z" transform="translate(-19.11 -32.7)" style="fill:#a3cc84"/><path id="Path_7856" data-name="Path 7856" d="M126,145.2,62.3,182l-1.2-.7,63.7-36.8Z" transform="translate(-19.11 -32.7)" style="fill:#d8d8d8"/><path id="Path_7857" data-name="Path 7857" d="M128.8,146.8,65.1,183.6l-1.2-.7,63.7-36.8Z" transform="translate(-19.11 -32.7)" style="fill:#d8d8d8"/><path id="Path_7858" data-name="Path 7858" d="M131.7,148.5,68,185.2l-1.2-.7,63.7-36.8Z" transform="translate(-19.11 -32.7)" style="fill:#d8d8d8"/><path id="Path_7859" data-name="Path 7859" d="M152.9,160.7,89.2,197.4l-1.2-.7,63.7-36.8Z" transform="translate(-19.11 -32.7)" style="fill:#d8d8d8"/><path id="Path_7860" data-name="Path 7860" d="M155.7,162.3,92,199.1l-1.2-.7,63.7-36.8Z" transform="translate(-19.11 -32.7)" style="fill:#d8d8d8"/><path id="Path_7861" data-name="Path 7861" d="M158.6,164,94.9,200.8l-1.2-.7,63.7-36.8Z" transform="translate(-19.11 -32.7)" style="fill:#d8d8d8"/><path id="Path_7862" data-name="Path 7862" d="M199.5,187.6l-62.3,36-1.2-.7,62.3-36Z" transform="translate(-19.11 -32.7)" style="fill:#d8d8d8"/><path id="Path_7863" data-name="Path 7863" d="M202.4,189.3l-62.3,36-1.2-.7,62.3-36Z" transform="translate(-19.11 -32.7)" style="fill:#d8d8d8"/><path id="Path_7864" data-name="Path 7864" d="M80.9,183.8l-7.6,4.4-3-1.7,7.6-4.4Z" transform="translate(-19.11 -32.7)" style="fill:#c5c800"/><path id="Path_7865" data-name="Path 7865" d="M90.3,178.5l-7.6,4.4-3-1.7,7.6-4.4Z" transform="translate(-19.11 -32.7)" style="fill:#c5c800"/><path id="Path_7866" data-name="Path 7866" d="M99.6,173.1,92,177.5l-3-1.7,7.6-4.4Z" transform="translate(-19.11 -32.7)" style="fill:#c5c800"/><path id="Path_7867" data-name="Path 7867" d="M108.9,167.7l-7.6,4.4-3-1.7,7.6-4.4Z" transform="translate(-19.11 -32.7)" style="fill:#c5c800"/><path id="Path_7868" data-name="Path 7868" d="M118.3,162.3l-7.6,4.4-3-1.7,7.6-4.4Z" transform="translate(-19.11 -32.7)" style="fill:#c5c800"/><path id="Path_7869" data-name="Path 7869" d="M127.6,156.9l-7.6,4.4-3-1.7,7.6-4.4Z" transform="translate(-19.11 -32.7)" style="fill:#c5c800"/><path id="Path_7870" data-name="Path 7870" d="M84.9,186.1l-7.6,4.4-3-1.7,7.6-4.4Z" transform="translate(-19.11 -32.7)" style="fill:#ececec"/><path id="Path_7871" data-name="Path 7871" d="M94.2,180.7l-7.6,4.4-3-1.7,7.6-4.4Z" transform="translate(-19.11 -32.7)" style="fill:#d8d8d8"/><path id="Path_7872" data-name="Path 7872" d="M103.6,175.3,96,179.7,93,178l7.6-4.4Z" transform="translate(-19.11 -32.7)" style="fill:#ececec"/><path id="Path_7873" data-name="Path 7873" d="M112.9,170l-7.6,4.4-3-1.7,7.6-4.4Z" transform="translate(-19.11 -32.7)" style="fill:#ececec"/><path id="Path_7874" data-name="Path 7874" d="M122.2,164.6l-7.6,4.4-3-1.7,7.6-4.4Z" transform="translate(-19.11 -32.7)" style="fill:#ececec"/><path id="Path_7875" data-name="Path 7875" d="M131.6,159.2l-7.6,4.4-3-1.7,7.6-4.4Z" transform="translate(-19.11 -32.7)" style="fill:#d8d8d8"/><path id="Path_7876" data-name="Path 7876" d="M140.9,153.8l-7.6,4.4-3-1.7,7.6-4.4Z" transform="translate(-19.11 -32.7)" style="fill:#ececec"/><path id="Path_7877" data-name="Path 7877" d="M88.8,188.4l-7.6,4.4-3-1.7,7.6-4.4Z" transform="translate(-19.11 -32.7)" style="fill:#ececec"/><path id="Path_7878" data-name="Path 7878" d="M98.1,183l-7.6,4.4-3-1.7,7.6-4.4Z" transform="translate(-19.11 -32.7)" style="fill:#ececec"/><path id="Path_7879" data-name="Path 7879" d="M107.5,177.6,99.9,182l-3-1.7,7.6-4.4Z" transform="translate(-19.11 -32.7)" style="fill:#ececec"/><path id="Path_7880" data-name="Path 7880" d="M116.8,172.2l-7.6,4.4-3-1.7,7.6-4.4Z" transform="translate(-19.11 -32.7)" style="fill:#d8d8d8"/><path id="Path_7881" data-name="Path 7881" d="M126.2,166.8l-7.6,4.4-3-1.7,7.6-4.4Z" transform="translate(-19.11 -32.7)" style="fill:#ececec"/><path id="Path_7882" data-name="Path 7882" d="M135.5,161.4l-7.6,4.4-3-1.7,7.6-4.4Z" transform="translate(-19.11 -32.7)" style="fill:#ececec"/><path id="Path_7883" data-name="Path 7883" d="M144.8,156.1l-7.6,4.4-3-1.7,7.6-4.4Z" transform="translate(-19.11 -32.7)" style="fill:#ececec"/><path id="Path_7884" data-name="Path 7884" d="M92.8,190.7l-7.6,4.4-3-1.7,7.6-4.4Z" transform="translate(-19.11 -32.7)" style="fill:#ececec"/><path id="Path_7885" data-name="Path 7885" d="M102.1,185.3l-7.6,4.4-3-1.7,7.6-4.4Z" transform="translate(-19.11 -32.7)" style="fill:#d8d8d8"/><path id="Path_7886" data-name="Path 7886" d="M111.4,179.9l-7.6,4.4-3-1.7,7.6-4.4Z" transform="translate(-19.11 -32.7)" style="fill:#ececec"/><path id="Path_7887" data-name="Path 7887" d="M120.8,174.5l-7.6,4.4-3-1.7,7.6-4.4Z" transform="translate(-19.11 -32.7)" style="fill:#ececec"/><path id="Path_7888" data-name="Path 7888" d="M130.1,169.1l-7.6,4.4-3-1.7,7.6-4.4Z" transform="translate(-19.11 -32.7)" style="fill:#d8d8d8"/><path id="Path_7889" data-name="Path 7889" d="M139.4,163.7l-7.6,4.4-3-1.7,7.6-4.4Z" transform="translate(-19.11 -32.7)" style="fill:#ececec"/><path id="Path_7890" data-name="Path 7890" d="M148.8,158.3l-7.6,4.4-3-1.7,7.6-4.4Z" transform="translate(-19.11 -32.7)" style="fill:#ececec"/><path id="Path_7891" data-name="Path 7891" d="M80.9,183.8l-7.6,4.4-3-1.7,7.6-4.4Z" transform="translate(-19.11 -32.7)" style="fill:#c5c800"/><path id="Path_7892" data-name="Path 7892" d="M90.3,178.5l-7.6,4.4-3-1.7,7.6-4.4Z" transform="translate(-19.11 -32.7)" style="fill:#c5c800"/><path id="Path_7893" data-name="Path 7893" d="M99.6,173.1,92,177.5l-3-1.7,7.6-4.4Z" transform="translate(-19.11 -32.7)" style="fill:#c5c800"/><path id="Path_7894" data-name="Path 7894" d="M108.9,167.7l-7.6,4.4-3-1.7,7.6-4.4Z" transform="translate(-19.11 -32.7)" style="fill:#c5c800"/><path id="Path_7895" data-name="Path 7895" d="M118.3,162.3l-7.6,4.4-3-1.7,7.6-4.4Z" transform="translate(-19.11 -32.7)" style="fill:#c5c800"/><path id="Path_7896" data-name="Path 7896" d="M127.6,156.9l-7.6,4.4-3-1.7,7.6-4.4Z" transform="translate(-19.11 -32.7)" style="fill:#c5c800"/><path id="Path_7897" data-name="Path 7897" d="M137,151.5l-7.6,4.4-3-1.7,7.6-4.4Z" transform="translate(-19.11 -32.7)" style="fill:#c5c800"/><g id="Group_30924" data-name="Group 30924"><path id="Path_7898" data-name="Path 7898" d="M80.91,183.84l-7.6,4.4-3-1.7,7.6-4.4Z" transform="translate(-19.11 -32.7)" style="fill:#95ba74"/><path id="Path_7899" data-name="Path 7899" d="M90.31,178.44l-7.6,4.4-3-1.7,7.6-4.4Z" transform="translate(-19.11 -32.7)" style="fill:#95ba74"/><path id="Path_7900" data-name="Path 7900" d="M99.61,173l-7.6,4.4-3-1.7,7.6-4.4Z" transform="translate(-19.11 -32.7)" style="fill:#95ba74"/><path id="Path_7901" data-name="Path 7901" d="M108.91,167.64l-7.6,4.4-3-1.7,7.6-4.4Z" transform="translate(-19.11 -32.7)" style="fill:#95ba74"/><path id="Path_7902" data-name="Path 7902" d="M118.31,162.24l-7.6,4.4-3-1.7,7.6-4.4Z" transform="translate(-19.11 -32.7)" style="fill:#95ba74"/><path id="Path_7903" data-name="Path 7903" d="M127.61,156.94l-7.6,4.4-3-1.7,7.6-4.4Z" transform="translate(-19.11 -32.7)" style="fill:#95ba74"/><path id="Path_7904" data-name="Path 7904" d="M136.91,151.54l-7.6,4.4-3-1.7,7.6-4.4Z" transform="translate(-19.11 -32.7)" style="fill:#95ba74"/></g><path id="Path_7905" data-name="Path 7905" d="M143.7,191.6l-13.8-8c5.7-3.2,14.8-3.9,22.2-1.7,9.1,2.7,13.4,9.5,9,14.8Z" transform="translate(-19.11 -32.7)" style="fill:#c5c800"/><g id="Group_30925" data-name="Group 30925"><path id="Path_7906" data-name="Path 7906" d="M143.71,191.59l-13.8-8c5.7-3.2,14.8-3.9,22.2-1.7,9.1,2.7,13.4,9.5,9,14.8Z" transform="translate(-19.11 -32.7)" style="fill:#95ba74"/></g><path id="Path_7907" data-name="Path 7907" d="M156.4,199.7a19.21,19.21,0,0,1-3.9,1.7l-7.1-8.1,14,4.1a13.31,13.31,0,0,1-3,2.3Z" transform="translate(-19.11 -32.7)" style="fill:#c5c800"/><g id="Group_30926" data-name="Group 30926"><path id="Path_7908" data-name="Path 7908" d="M156.47,199.69a19.3,19.3,0,0,1-3.91,1.7l-7.1-8.1,14,4.1a19.47,19.47,0,0,1-3,2.3Z" transform="translate(-19.11 -32.7)" style="fill:#214f6e"/></g><path id="Path_7909" data-name="Path 7909" d="M151.2,202.4a31.77,31.77,0,0,1-16.2,0l8.1-9.2Z" transform="translate(-19.11 -32.7)" style="fill:#5291b9;opacity:0.6700000166893005;isolation:isolate"/><path id="Path_7910" data-name="Path 7910" d="M133.8,201.4a17.06,17.06,0,0,1-3.9-1.7c-7.1-4.1-7.3-10.7-.7-14.9l12.7,7.4Z" transform="translate(-19.11 -32.7)" style="fill:#c5c800"/><g id="Group_30927" data-name="Group 30927"><path id="Path_7911" data-name="Path 7911" d="M133.8,201.45a17.06,17.06,0,0,1-3.9-1.7c-7.1-4.1-7.3-10.7-.7-14.9l12.7,7.4Z" transform="translate(-19.11 -32.7)" style="fill:#bae099"/></g><path id="Path_7912" data-name="Path 7912" d="M148.2,183.8a.1.1,0,0,1-.1-.1c0-.1,0-.1.1-.1l.9-.5h.2v.2h0l-1.1.5Zm1.9-1a.1.1,0,0,1,0-.2l.9-.5c.1-.1.1,0,.2,0v.2h-.1l-1,.5c.1-.1,0-.1,0,0Zm1.9-1.1a.1.1,0,0,1-.1-.1h0a.1.1,0,0,1,.1-.1l.9-.5h.2v.2h0l-1.1.5Zm1.9-1.1a.1.1,0,0,1-.1-.1h0a.1.1,0,0,1,.1-.1l.9-.5h.2v.2h0l-1.1.5Zm1.9-1.1c-.1,0-.1,0-.1-.1s0-.1.1-.1l.9-.5c.1,0,.2,0,.2.1v.1l-1.1.5Z" transform="translate(-19.11 -32.7)" style="fill:#354952"/><path id="Path_7913" data-name="Path 7913" d="M119.5,199.3a.1.1,0,0,1-.1-.1h0a.1.1,0,0,1,.1-.1l.9-.5h.2v.2h0l-1.1.5Zm1.9-1a.1.1,0,1,1,0-.2l.9-.5c.1,0,.2,0,.2.1v.1l-1.1.5Zm1.9-1.1a.1.1,0,0,1-.1-.1v-.2h0l.9-.5h.2v.2h0l-1,.6Zm1.9-1.1c-.1,0-.1,0-.1-.1s0-.1.1-.1l.9-.5h.2v.2l-1.1.5Zm1.9-1.1a.1.1,0,0,1-.1-.1h0a.1.1,0,0,1,.1-.1l.9-.5h.2v.2h0l-1.1.5Z" transform="translate(-19.11 -32.7)" style="fill:#354952"/><path id="Path_7914" data-name="Path 7914" d="M146.8,184.5q-.45-.3,0-.6a.91.91,0,0,1,1,0c.2.1.3.2.2.4h0a.22.22,0,0,1-.2.2A.91.91,0,0,1,146.8,184.5Z" transform="translate(-19.11 -32.7)" style="fill:#354952"/><path id="Path_7915" data-name="Path 7915" d="M128,194.3c-.2-.1-.2-.2-.2-.4a.22.22,0,0,1,.2-.2.91.91,0,0,1,1,0c.2.1.3.2.2.4h0a.22.22,0,0,1-.2.2A.9.9,0,0,1,128,194.3Z" transform="translate(-19.11 -32.7)" style="fill:#354952"/><path id="Path_7916" data-name="Path 7916" d="M154.6,199.2c-.2-.1-.2-.2-.2-.4a.22.22,0,0,1,.2-.2.91.91,0,0,1,1,0c.2.1.2.2.2.4h0a.22.22,0,0,1-.2.2A.9.9,0,0,1,154.6,199.2Z" transform="translate(-19.11 -32.7)" style="fill:#354952"/><path id="Path_7917" data-name="Path 7917" d="M161.3,177.4h-.2l-.4-.2-1.1.6h-.2l-.2-.1-.1-.1v-.1l-.3-1.4V176l.3-.2h.2l1.4.8.3-.2h.2l.2.1v.1h0l-.3.1.4.2v.1h0Zm-1.1-.5-.7-.4.2.8Z" transform="translate(-19.11 -32.7)" style="fill:#c5c800"/><path id="Path_7918" data-name="Path 7918" d="M160.2,175.3h0v-.1l1.3-.7h.2l.2.1v.1h0l-1,.6.4.3a.1.1,0,0,1,.1-.1l.1-.1c.1-.1.3-.1.4-.2s.3-.1.4-.1h.4a.76.76,0,0,1,.4.2c.1.1.2.1.3.3a.37.37,0,0,1,.1.3c0,.1-.1.2-.1.3s-.2.2-.3.2a1.61,1.61,0,0,1-.9.3h-.4c-.1,0-.2-.1-.3-.1v-.1h0l.3-.2h.8l.2-.1.2-.2a.22.22,0,0,0-.2-.2c-.1-.1-.2-.1-.4-.1a.6.6,0,0,0-.4.1.1.1,0,0,0-.1.1.1.1,0,0,1-.1.1v.1h-.1l-.3.2h-.2Z" transform="translate(-19.11 -32.7)" style="fill:#c5c800"/><path id="Path_7919" data-name="Path 7919" d="M162.5,173.8a.37.37,0,0,1,.3-.1h.5c.1,0,.1,0,.2.1l.2.1.2.1.1.1v.1c0,.1,0,.1-.1.1s-.1.1-.2.1-.2.1-.3.1h-.5c-.1,0-.1,0-.2-.1l-.2-.1-.2-.1-.1-.1V174c0-.1,0-.1.1-.1A.31.31,0,0,0,162.5,173.8Zm.9.4h0l-.2-.1-.1-.1h-.5a.1.1,0,0,0,0,.2h.1l.1.1h.6c.1.1.1,0,0-.1Zm.5-1.1h0c0-.1,0-.1.1-.1l.2-.1h.2l.5,2.3v.1h0l-.2.1h-.1Zm1.2.6c.1,0,.2-.1.3-.1h.5c.1,0,.1,0,.2.1l.2.1.2.1.1.1v.1c0,.1,0,.1-.1.1l-.2.2c-.1,0-.2.1-.3.1h-.5c-.1,0-.1,0-.2-.1l-.2-.1-.2-.1-.1-.1V174c0-.1,0-.1.1-.1l.2-.2Zm1,.3h0l-.2-.1-.1-.1h-.5a.1.1,0,1,0,0,.2h.6c.1,0,.1,0,.2-.1,0,.3.1.3,0,.1Z" transform="translate(-19.11 -32.7)" style="fill:#c5c800"/><g id="Group_30928" data-name="Group 30928" style="opacity:0.6000000238418579"><path id="Path_7920" data-name="Path 7920" d="M161.26,177.36h-.2l-.4-.2-1.1.6h-.2l-.2-.1-.1-.1v-.1l-.3-1.4V176l.3-.2h.2l1.4.8.3-.2h.2l.2.1v.1h0l-.3.1.4.2v.1h0Zm-1-.5-.7-.4.2.8Z" transform="translate(-19.11 -32.7)" style="fill:#fff"/><path id="Path_7921" data-name="Path 7921" d="M160.16,175.26h0v-.1l1.3-.7h.2l.2.1v.1h0l-1,.6.4.3a.1.1,0,0,1,.1-.1l.1-.1c.1-.1.3-.1.4-.2s.3-.1.4-.1h.4a.76.76,0,0,1,.4.2c.1.1.2.1.3.3a.37.37,0,0,1,.1.3c0,.1-.1.2-.1.3s-.2.2-.3.2a1.61,1.61,0,0,1-.9.3h-.4c-.1,0-.2-.1-.3-.1v-.1h0l.3-.2h.8l.2-.1.2-.2a.22.22,0,0,0-.2-.2c-.1-.1-.2-.1-.4-.1a.6.6,0,0,0-.4.1.1.1,0,0,0-.1.1.1.1,0,0,1-.1.1v.1h-.1l-.3.2h-.1Z" transform="translate(-19.11 -32.7)" style="fill:#fff"/><path id="Path_7922" data-name="Path 7922" d="M162.46,173.86a.37.37,0,0,1,.3-.1h.5c.1,0,.1,0,.2.1l.2.1.2.1.1.1v.1c0,.1,0,.1-.1.1s-.1.1-.2.1-.2.1-.3.1h-.5c-.1,0-.1,0-.2-.1l-.2-.1-.2-.1-.1-.1v-.1c0-.1,0-.1.1-.1S162.36,173.86,162.46,173.86Zm.9.3h0l-.2-.1-.1-.1h-.5a.1.1,0,0,0,0,.2h.1l.1.1h.6c.1.1.1.1,0-.1Zm.5-1.1h0c0-.1,0-.1.1-.1l.2-.1h.2l.5,2.3v.1h0l-.2.1h-.1Zm1.3.6c.1,0,.2-.1.3-.1h.5c.1,0,.1,0,.2.1l.2.1.2.1.1.1v.1c0,.1,0,.1-.1.1l-.2.2c-.1,0-.2.1-.3.1h-.5c-.1,0-.1,0-.2-.1l-.2-.1-.2-.1-.1-.1V174c0-.1,0-.1.1-.1l.2-.2Zm.9.4h0l-.2-.1-.1-.1h-.5a.1.1,0,1,0,0,.2h.6c.1,0,.1,0,.2-.1.1.2.1.2,0,.1Z" transform="translate(-19.11 -32.7)" style="fill:#fff"/></g><path id="Path_7923" data-name="Path 7923" d="M161.5,180.2h0l.2.1h0l-.7.4h-.1l-1.1-.6h0l.1-.1h.1l.9.5Z" transform="translate(-19.11 -32.7)" style="fill:#d8d8d8"/><path id="Path_7924" data-name="Path 7924" d="M161.1,179.9l-.1-.1v-.2c0-.1.1-.1.2-.1a.35.35,0,0,0,.2-.1h.4c.1,0,.1,0,.2.1h.4a.1.1,0,0,1,.1.1s.1.1,0,.1v.1c0,.1-.1.1-.2.1a.35.35,0,0,0-.2.1h-.4c-.1,0-.1,0-.2-.1h-.4Zm.8-.5c-.1,0-.2-.1-.3-.1a.37.37,0,0,0-.3.1.1.1,0,0,0-.1.1c0,.1,0,.1.1.2l.1.1.1.1c.1,0,.2.1.3.1a.37.37,0,0,0,.3-.1.1.1,0,0,0,.1-.1c0-.1,0-.1-.1-.1l-.1-.1Z" transform="translate(-19.11 -32.7)" style="fill:#d8d8d8"/><path id="Path_7925" data-name="Path 7925" d="M162.4,178.7a.85.85,0,0,1,.8,0c.1,0,.1.1.1.2v.2l.6.1h0l-.1.1h-.1l-.6-.1-.2.1.4.2h0l-.1.1h-.1L162,179h0Zm.2.4.2-.1.1-.1a.1.1,0,0,0-.1-.1h-.2c-.1,0-.1,0-.2.1l-.2.1Z" transform="translate(-19.11 -32.7)" style="fill:#d8d8d8"/><path id="Path_7926" data-name="Path 7926" d="M164.7,178.4h0l.2.1h0l-.7.4h0l-1.1-.6h0l.7-.4h.1l.1.1h0l-.5.3.3.2.5-.3h.1l.1.1h0l-.5.3.3.2Z" transform="translate(-19.11 -32.7)" style="fill:#d8d8d8"/><path id="Path_7927" data-name="Path 7927" d="M165.1,177.8l-.2-.5h0l.1-.1h.1l1,.6h0l-.1.1h-.1l-.6-.4.2.3h-.2l-.6-.1.6.4h0l-.1.1h-.1l-1.1-.6h0l.1-.1h.1Z" transform="translate(-19.11 -32.7)" style="fill:#d8d8d8"/><path id="Path_7928" data-name="Path 7928" d="M166.9,177.4h0l-1.1-.6.1-.1h.1l1,.6h0Z" transform="translate(-19.11 -32.7)" style="fill:#d8d8d8"/><path id="Path_7929" data-name="Path 7929" d="M166.6,176.2a.85.85,0,0,1,.8,0c.1.1.2.1.2.2a.22.22,0,0,1-.2.2l-.3.2.4.2h0l-.1.1h-.1l-1-.6h0Zm.3.4.3-.1.1-.1a.1.1,0,0,0-.1-.1c-.1,0-.1-.1-.2,0s-.1,0-.2.1l-.3.1Z" transform="translate(-19.11 -32.7)" style="fill:#d8d8d8"/><path id="Path_7930" data-name="Path 7930" d="M167.6,175.6c.1,0,.1-.1.2-.1h.5l-.1.1H168c-.1,0-.1,0-.2.1h-.1v.1h.3l.2-.1c.1,0,.1-.1.2-.1h.4c.1,0,.1,0,.1.1a.1.1,0,0,1,.1.1v.1a.1.1,0,0,1-.1.1c-.1,0-.1.1-.2.1s-.1.1-.2.1h-.6l.1-.1h.5l.1-.1.1-.1v-.1h-.3l-.2.1-.2.1h-.3c-.1,0-.1,0-.2-.1l-.1-.1v-.1a.1.1,0,0,1,.1-.1c0,.1.1.1.1,0Z" transform="translate(-19.11 -32.7)" style="fill:#d8d8d8"/><path id="Path_7931" data-name="Path 7931" d="M169.2,174.7h0l.8.4c.1,0,.1.1.2.1v.1c0,.1,0,.1-.1.1s-.1.1-.2.1a.35.35,0,0,0-.2.1h-.4l-.2-.1-.7-.4h0l.1-.1h.1l.7.4h.4a.1.1,0,0,0,.1-.1v-.2l-.1-.1-.7-.4h0Z" transform="translate(-19.11 -32.7)" style="fill:#d8d8d8"/><path id="Path_7932" data-name="Path 7932" d="M170.6,174.6l-.2-.5h0l.1-.1h.1l1,.6h0l-.1.1h-.1l-.6-.4.2.3h-.2l-.6-.1.6.4h0l-.1.1h-.1l-1.1-.6h0l.1-.1h.1Z" transform="translate(-19.11 -32.7)" style="fill:#d8d8d8"/><path id="Path_7933" data-name="Path 7933" d="M110.1,202.5h.2l.2.1.1.1v.6c.1-.1.2-.1.4-.1h.7c.1,0,.2.1.3.1s.2.1.2.2.1.2,0,.2-.1.2-.2.3-.2.2-.3.2-.3.2-.5.2-.3.1-.4.1h-.4a.37.37,0,0,1-.3-.1H110l.1-.1.3-.2h.7a.35.35,0,0,0,.2-.1c.1-.1.2-.1.3-.2s0-.2-.1-.2a.37.37,0,0,0-.3-.1.76.76,0,0,0-.4.2l-.3.2h-.2l-.2-.1V203l-.9.5H109l-.2-.1h0v-.1Z" transform="translate(-19.11 -32.7)" style="fill:#c5c800"/><path id="Path_7934" data-name="Path 7934" d="M113.4,201.6l.1.1.2.1.2.1a.1.1,0,0,1,.1.1l.3.3a.5.5,0,0,1,0,.6,1.38,1.38,0,0,1-.4.3c-.2.1-.3.2-.5.2s-.3.1-.5,0a.9.9,0,0,1-.5-.1.76.76,0,0,1-.4-.2l-.3-.2-.3-.2-.3-.3a.5.5,0,0,1,0-.6,1.38,1.38,0,0,1,.4-.3c.2-.1.3-.2.5-.2s.3-.1.5,0a.9.9,0,0,1,.5.1c.1.1.2.1.4.2Zm-.8,1.1c.2.1.3.1.5.2a.9.9,0,0,0,.5-.1c.2-.1.2-.2.2-.3s-.1-.2-.3-.3l-.3-.2-.3-.2c-.2-.1-.3-.1-.5-.2a.9.9,0,0,0-.5.1c-.2.1-.2.2-.2.3s.1.2.3.3l.3.2Z" transform="translate(-19.11 -32.7)" style="fill:#c5c800"/><path id="Path_7935" data-name="Path 7935" d="M113.3,200.6c.1,0,.2-.1.3-.1h.5c.1,0,.1,0,.2.1s.1.1.2.1l.2.1.1.1v.1c0,.1,0,.1-.1.1s-.1.1-.2.2-.2.1-.3.1h-.5c-.1,0-.1,0-.2-.1l-.2-.1-.2-.1-.1-.1a.19.19,0,0,1,0-.3c.1,0,.2-.1.3-.1Zm1,.3h0l-.2-.1-.1-.1h-.5a.1.1,0,0,0,0,.2h.2l.1.1h.5v-.1Zm.5-1.1h0c0-.1,0-.1.1-.1l.2-.1h.2l.5,2.3v.1h-.1l-.2.1h-.2Zm1.2.6c.1,0,.2-.1.3-.1h.5l.2.1.2.1c.1,0,.1.1.2.1a.1.1,0,0,1,.1.1v.1c0,.1,0,.1-.1.1l-.2.2c-.1,0-.2.1-.3.1h-.4c-.1,0-.1,0-.2-.1l-.2-.1-.2-.1-.1-.1v-.1c0-.1,0-.1.1-.1s0-.1.1-.2Zm1,.4h0l-.2-.1-.1-.1h-.1c-.1-.1-.2-.1-.4,0a.1.1,0,1,0,0,.2h.2l.1.1h.5a.1.1,0,0,0,.1-.1s-.1-.1-.1,0Z" transform="translate(-19.11 -32.7)" style="fill:#c5c800"/><g id="Group_30929" data-name="Group 30929" style="opacity:0.30000001192092896"><path id="Path_7936" data-name="Path 7936" d="M110.07,202.49h.2l.2.1.1.1v.6c.1-.1.2-.1.4-.1h.7c.1,0,.2.1.3.1s.2.1.2.2.1.2,0,.2-.1.2-.2.3-.2.2-.3.2-.3.2-.5.2-.3.1-.4.1h-.4a.37.37,0,0,1-.3-.1H110l.1-.1.3-.2h.7a.35.35,0,0,0,.2-.1c.1-.1.2-.1.3-.2s0-.2-.1-.2a.37.37,0,0,0-.3-.1.76.76,0,0,0-.4.2l-.3.2h-.2l-.2-.1v-.7l-.9.5H109l-.2-.1h0v-.1Z" transform="translate(-19.11 -32.7)" style="fill:#fff"/><path id="Path_7937" data-name="Path 7937" d="M113.37,201.59l.1.1.2.1.2.1a.1.1,0,0,1,.1.1l.3.3a.5.5,0,0,1,0,.6,1.38,1.38,0,0,1-.4.3c-.2.1-.3.2-.5.2s-.3.1-.5,0a.9.9,0,0,1-.5-.1.76.76,0,0,1-.4-.2l-.3-.2-.3-.2-.3-.3a.5.5,0,0,1,0-.6,1.38,1.38,0,0,1,.4-.3c.2-.1.3-.2.5-.2s.3-.1.5,0a.9.9,0,0,1,.5.1c.1.1.3.1.4.2Zm-.8,1.2c.2.1.3.1.5.2a.9.9,0,0,0,.5-.1c.2-.1.2-.2.2-.3s-.1-.2-.3-.3l-.3-.2-.3-.2c-.2-.1-.3-.1-.5-.2a.9.9,0,0,0-.5.1c-.2.1-.2.2-.2.3s.1.2.3.3l.3.2Z" transform="translate(-19.11 -32.7)" style="fill:#fff"/><path id="Path_7938" data-name="Path 7938" d="M113.27,200.59c.1,0,.2-.1.3-.1h.5c.1,0,.1,0,.2.1s.1.1.2.1l.2.1.1.1v.1c0,.1,0,.1-.1.1s-.1.1-.2.2-.2.1-.3.1h-.5c-.1,0-.1,0-.2-.1l-.2-.1-.2-.1-.1-.1a.19.19,0,0,1,0-.3c.2,0,.2-.1.3-.1Zm1,.4h0l-.2-.1-.1-.1h-.5a.1.1,0,0,0,0,.2h.2l.1.1h.5s.1,0,0-.1Zm.5-1.1h0c0-.1,0-.1.1-.1l.2-.1h.2l.5,2.3v.1h-.1l-.2.1h-.2Zm1.2.5c.1,0,.2-.1.3-.1h.5l.2.1.2.1c.1,0,.1.1.2.1a.1.1,0,0,1,.1.1v.1c0,.1,0,.1-.1.1l-.2.2c-.1,0-.2.1-.3.1h-.4c-.1,0-.1,0-.2-.1l-.2-.1H116l-.1-.1v-.1c0-.1,0-.1.1-.1-.1-.2,0-.2,0-.3Zm1,.4h0l-.2-.1-.1-.1h-.1c-.1-.1-.2-.1-.4,0a.1.1,0,0,0,0,.2h.2l.1.1h.5a.1.1,0,0,0,.1-.1s0-.1-.1,0Z" transform="translate(-19.11 -32.7)" style="fill:#fff"/></g><path id="Path_7939" data-name="Path 7939" d="M112.3,207h0l.2.1h0l-.7.4h-.1l-1.1-.6h0l.1-.1h.1l.9.5Z" transform="translate(-19.11 -32.7)" style="fill:#d8d8d8"/><path id="Path_7940" data-name="Path 7940" d="M111.9,206.6l-.1-.1a.1.1,0,0,0-.1-.1c0-.1,0-.1.1-.1s.1-.1.2-.1a.35.35,0,0,0,.2-.1h.4c.1,0,.1,0,.2.1h.4a.1.1,0,0,1,.1.1.1.1,0,0,0,.1.1c0,.1,0,.1-.1.1s-.1.1-.2.1a.35.35,0,0,0-.2.1h-.4c-.1,0-.1,0-.2-.1h-.4Zm.8-.4c-.1,0-.2-.1-.3-.1a.37.37,0,0,0-.3.1.1.1,0,0,0,0,.2l.1.1.1.1c.1,0,.2.1.3.1a.37.37,0,0,0,.3-.1.1.1,0,0,0,.1-.1c0-.1,0-.1-.1-.2l-.1-.1Z" transform="translate(-19.11 -32.7)" style="fill:#d8d8d8"/><path id="Path_7941" data-name="Path 7941" d="M113.1,205.4a.85.85,0,0,1,.8,0c.1,0,.1.1.1.2v.2l.6.1h0l-.1.1h-.2l-.6-.1-.2.1.4.2h0l-.1.1h-.1l-1.1-.6h0Zm.3.5.2-.1.1-.1a.1.1,0,0,0-.1-.1h-.2c-.1,0-.1,0-.2.1l-.2.1Z" transform="translate(-19.11 -32.7)" style="fill:#d8d8d8"/><path id="Path_7942" data-name="Path 7942" d="M115.5,205.2h0l.2.1h0l-.7.4h-.1l-1-.6.7-.4h.1l.1.1h0l-.5.3.3.2.5-.3h.1l.1.1h0l-.5.3.3.2Z" transform="translate(-19.11 -32.7)" style="fill:#d8d8d8"/><path id="Path_7943" data-name="Path 7943" d="M115.9,204.5l-.2-.5h0l.1-.1h.1l1,.6h0l-.1.1h-.1l-.6-.4.2.3h-.2l-.6-.1.6.4h0l-.1.2h-.1l-1.1-.6h0l.1-.1h.1Z" transform="translate(-19.11 -32.7)" style="fill:#d8d8d8"/><path id="Path_7944" data-name="Path 7944" d="M117.7,204.1h0l-1.1-.6h0l.1-.1h.1l1,.6h0Z" transform="translate(-19.11 -32.7)" style="fill:#d8d8d8"/><path id="Path_7945" data-name="Path 7945" d="M117.4,203a.85.85,0,0,1,.8,0c.1.1.2.1.2.2a.22.22,0,0,1-.2.2l-.3.2.4.2h0l-.1.1h-.1l-1.1-.6h0Zm.3.4.3-.1.1-.1a.1.1,0,0,0-.1-.1c-.1,0-.1-.1-.2,0s-.1,0-.2.1l-.3.1Z" transform="translate(-19.11 -32.7)" style="fill:#d8d8d8"/><path id="Path_7946" data-name="Path 7946" d="M118.4,202.4c.1,0,.1-.1.2-.1h.5l-.1.1h-.2c-.1,0-.1,0-.2.1h-.1v.1h.3l.2-.1c.1,0,.2-.1.3-.1h.4a.1.1,0,0,1,.1.1l.1.1v.1a.1.1,0,0,1-.1.1c-.1,0-.1.1-.2.1s-.1.1-.2.1h-.6l.1-.1h.3l.1-.1.1-.1.1-.1v-.1h-.3l-.2.1-.2.1h-.3c-.1,0-.1,0-.2-.1l-.1-.1v-.1a.1.1,0,0,1,.1-.1c0,.2,0,.1.1.1Z" transform="translate(-19.11 -32.7)" style="fill:#d8d8d8"/><path id="Path_7947" data-name="Path 7947" d="M120,201.5h0l.8.4c.1,0,.1.1.2.1a.1.1,0,0,0,.1.1c0,.1,0,.1-.1.1s-.1.1-.2.1l-.2.1h-.4c-.1,0-.1-.1-.2-.1l-.7-.4h0l.1-.1h.1l.6.4h.5a.1.1,0,0,0,.1-.1V202l-.1-.1-.7-.4h.1Z" transform="translate(-19.11 -32.7)" style="fill:#d8d8d8"/><path id="Path_7948" data-name="Path 7948" d="M121.4,201.4l-.2-.5v-.1l.1-.1h.1l1.1.6h0l-.1.1h-.1l-.6-.4.2.3h-.2l-.6-.1.6.4h0l-.1.1h-.1l-1.1-.6h0l.1-.1h.1Z" transform="translate(-19.11 -32.7)" style="fill:#d8d8d8"/><path id="Path_7949" data-name="Path 7949" d="M140.2,209.2a.1.1,0,0,1-.1-.1v-.2h0l.9-.5h.2v.2h0l-1,.6Zm1.8-1.1a.1.1,0,0,1-.1-.1h0a.1.1,0,0,1,.1-.1l.9-.5h.2v.2h0l-1.1.5Zm1.9-1c-.1,0-.1,0-.1-.1s0-.1.1-.1l.9-.5c.1,0,.2,0,.2.1v.1l-1.1.5Zm1.9-1.1a.1.1,0,0,1-.1-.1h0a.1.1,0,0,1,.1-.1l.9-.5h.2v.2h0l-1.1.5Zm1.9-1.1a.1.1,0,0,1-.1-.1v-.2h0l-.5-.3c-.1,0-.1-.1,0-.2h0c0-.1.1-.1.2-.1h0l.9.5-.5.4Zm-1.4-1.1h0l-1-.5c-.1,0-.1-.1,0-.2s.1-.1.2,0h0l.9.5c.1,0,.1.1,0,.2h0s0,.1-.1,0Zm-1.9-1h0l-1-.5c-.1,0-.1-.1,0-.2s.1-.1.2-.1h0l.9.5c.1,0,.1.1.1.2h0c0,.1-.1.1-.2.1Z" transform="translate(-19.11 -32.7)" style="fill:#354952"/><path id="Path_7950" data-name="Path 7950" d="M142.3,202c-.2-.1-.2-.2-.2-.4a.22.22,0,0,1,.2-.2.91.91,0,0,1,1,0c.2.1.3.2.2.4h0a.22.22,0,0,1-.2.2A.91.91,0,0,1,142.3,202Z" transform="translate(-19.11 -32.7)" style="fill:#354952"/><path id="Path_7951" data-name="Path 7951" d="M128.6,212.4h.2l.2.1h0v.6c.1,0,.2-.1.4-.1h.7c.1,0,.2.1.3.1s.2.1.2.2.1.2,0,.3-.1.2-.2.3-.2.2-.3.2a.76.76,0,0,1-.5.2c-.1,0-.3.1-.4.1h-.4a.37.37,0,0,1-.3-.1h0v-.1l.3-.2h.5c.1,0,.1,0,.2-.1a.35.35,0,0,0,.2-.1c.1-.1.2-.1.3-.2s0-.2-.1-.2-.2-.1-.4,0a.76.76,0,0,0-.4.2l-.3.2h-.2l-.2-.1h0V213l-.9.5h-.2l-.2-.1h0v-.1Z" transform="translate(-19.11 -32.7)" style="fill:#c5c800"/><path id="Path_7952" data-name="Path 7952" d="M131.9,211.5l.1.1.2.1.2.1.1.1c.1.1.2.1.3.2a.5.5,0,0,1,0,.6,1.38,1.38,0,0,1-.4.3c-.2.1-.3.2-.5.2h-.5a.9.9,0,0,1-.5-.1c-.1-.1-.3-.1-.4-.2l-.3-.2-.3-.2-.3-.3a.5.5,0,0,1,0-.6,1.38,1.38,0,0,1,.4-.3c.2-.1.3-.2.5-.2s.3-.1.5,0a.9.9,0,0,1,.5.1.54.54,0,0,0,.4.3Zm-.8,1.2c.2.1.3.1.5.2a.9.9,0,0,0,.5-.1c.2-.1.2-.2.2-.3s-.1-.2-.3-.3-.2-.1-.3-.2l-.3-.2c-.2-.1-.3-.1-.5-.2a.9.9,0,0,0-.5.1c-.2.1-.2.2-.2.3s.1.2.3.3.2.1.3.2Z" transform="translate(-19.11 -32.7)" style="fill:#c5c800"/><path id="Path_7953" data-name="Path 7953" d="M131.8,210.5c.1,0,.2-.1.3-.1h.5c.1,0,.1,0,.2.1l.2.1.2.1.1.1v.1c0,.1,0,.1-.1.1s-.1.1-.2.1-.2.1-.3.1a1.7,1.7,0,0,1-.7-.1l-.2-.1-.2-.1-.1-.1v-.2A.44.44,0,0,0,131.8,210.5Zm1,.4h0l-.2-.1-.1-.1H132a.1.1,0,0,0,0,.2h.1l.1.1h.6s.1,0,0-.1Zm.5-1.1h0c0-.1,0-.1.1-.1l.2-.1h.2l.5,2.3v.1h-.5Zm1.2.6a.37.37,0,0,1,.3-.1h.4c.1,0,.1,0,.2.1l.2.1.2.1.1.1v.1c0,.1,0,.1-.1.1l-.2.2c-.1,0-.2.1-.3.1H135c-.1,0-.1,0-.2-.1l-.2-.1-.2-.1-.1-.1v-.1c0-.1,0-.1.1-.1,0-.2.1-.2.1-.2Zm1,.3h0l-.2-.1-.1-.1h-.5a.1.1,0,1,0,0,.2h.2l.1.1h.3c.1,0,.1,0,.2-.1.1.2.1.1,0,0Z" transform="translate(-19.11 -32.7)" style="fill:#c5c800"/><path id="Path_7954" data-name="Path 7954" d="M130.8,217h0l.2.1h0l-.7.4h-.1l-1.1-.6h0l.1-.1h.1l.9.5Z" transform="translate(-19.11 -32.7)" style="fill:#d8d8d8"/><path id="Path_7955" data-name="Path 7955" d="M130.5,216.6l-.1-.1a.19.19,0,0,1,0-.3h0c0-.1.1-.1.2-.1a.35.35,0,0,0,.2-.1h.4c.1,0,.1,0,.2.1h.4a.1.1,0,0,1,.1.1.19.19,0,0,1,0,.3h0c0,.1-.1.1-.2.1a.35.35,0,0,0-.2.1h-.4l-.2-.1h-.4Zm.7-.5c-.1,0-.2-.1-.3-.1s-.2,0-.2.1a.1.1,0,0,0-.1.1c0,.1,0,.1.1.2l.1.1.1.1c.1,0,.2.1.3.1s.2,0,.2-.1a.1.1,0,0,0,0-.2l-.1-.1Z" transform="translate(-19.11 -32.7)" style="fill:#d8d8d8"/><path id="Path_7956" data-name="Path 7956" d="M131.7,215.4a.85.85,0,0,1,.8,0c.1,0,.1.1.2.2v.2l.6.1h0l-.1.1h-.1l-.6-.1-.2.1.4.2h0l-.1.1h-.1l-1.1-.6h0Zm.2.4.2-.1.1-.1a.1.1,0,0,0-.1-.1h-.2c-.1,0-.1,0-.2.1l-.2.1Z" transform="translate(-19.11 -32.7)" style="fill:#d8d8d8"/><path id="Path_7957" data-name="Path 7957" d="M134,215.1h0l.2.1h0l-.7.4h-.1l-1.1-.6h0l.7-.4h.1l.1.1h0l-.5.3.3.2.5-.3h.1l.1.1h0l-.5.3.3.2Z" transform="translate(-19.11 -32.7)" style="fill:#d8d8d8"/><path id="Path_7958" data-name="Path 7958" d="M134.4,214.5l-.2-.5h0l.1-.1h.1l1.1.6h0l-.1.1h-.1l-.6-.4.2.3h-.2l-.6-.1.6.4h0l-.1.1h-.1l-1.1-.6h0l.1-.1h.1Z" transform="translate(-19.11 -32.7)" style="fill:#d8d8d8"/><path id="Path_7959" data-name="Path 7959" d="M136.2,214.1h0l-1.1-.6h0l.1-.1h.1l1,.6h0Z" transform="translate(-19.11 -32.7)" style="fill:#d8d8d8"/><path id="Path_7960" data-name="Path 7960" d="M136,212.9a.85.85,0,0,1,.8,0c.1.1.2.1.2.2a.22.22,0,0,1-.2.2l-.3.2.4.2h0l-.1.1h-.1l-1.1-.6h0Zm.3.5.3-.1.1-.1a.1.1,0,0,0-.1-.1h0c-.1,0-.1-.1-.2,0s-.1,0-.2.1l-.3.1Z" transform="translate(-19.11 -32.7)" style="fill:#d8d8d8"/><path id="Path_7961" data-name="Path 7961" d="M136.9,212.3c.1,0,.1-.1.2-.1h.5l-.1.1h-.3c-.1,0-.1,0-.2.1h.2l.2-.1c.1,0,.1-.1.2-.1h.5l.1.1v.1a.1.1,0,0,1-.1.1c0,.1-.1.1-.2.1s-.1.1-.2.1h-.6l.1-.1h.4l.1-.1.1-.1.1-.1v-.1h-.3l-.2.1-.2.1h-.3c-.1,0-.1,0-.1-.1l-.1-.1v-.1a.1.1,0,0,1,.1-.1c0,.4.1.3.1.3Z" transform="translate(-19.11 -32.7)" style="fill:#d8d8d8"/><path id="Path_7962" data-name="Path 7962" d="M138.5,211.4h0l.8.4c.1,0,.1.1.2.1s.1.1,0,.1,0,.1-.1.1-.1.1-.2.1a.35.35,0,0,0-.2.1h-.4c-.1,0-.1-.1-.2-.1l-.7-.4h0l.1-.1h.1l.7.4.1.1h.4a.1.1,0,0,0,.1-.1v-.2l-.1-.1-.7-.4h.1Z" transform="translate(-19.11 -32.7)" style="fill:#d8d8d8"/><path id="Path_7963" data-name="Path 7963" d="M139.9,211.3l-.2-.5v-.1l.1-.1h.1l1.1.6h0l-.1.1h-.1l-.6-.4.2.3h-.2l-.6-.1.6.4h0l-.1.1H140l-1.1-.6h0l.1-.1h.1Z" transform="translate(-19.11 -32.7)" style="fill:#d8d8d8"/><path id="Path_7964" data-name="Path 7964" d="M170.5,193.1h0l.1-.8v-.1h0l.3-.2h.2l2.2,1.3h0v.1l-.3.2h-.2l-1.7-1-.1.5h-.5Z" transform="translate(-19.11 -32.7)" style="fill:#c5c800"/><path id="Path_7965" data-name="Path 7965" d="M174.1,191.2l.1.1.2.1.2.1.1.1.3.3a.5.5,0,0,1,0,.6,1.38,1.38,0,0,1-.4.3c-.2.1-.3.2-.5.2s-.3.1-.5,0a.9.9,0,0,1-.5-.1.76.76,0,0,1-.4-.2l-.3-.2c-.1-.1-.2-.1-.3-.2s-.2-.2-.3-.2a.5.5,0,0,1,0-.6,1.38,1.38,0,0,1,.4-.3c.2-.1.3-.2.5-.2a1.39,1.39,0,0,1,.9,0,.59.59,0,0,1,.5.2Zm-.8,1.1c.2.1.3.1.5.2a.9.9,0,0,0,.5-.1c.2-.1.2-.2.2-.3s-.1-.2-.3-.3l-.3-.2-.3-.2c-.2-.1-.3-.1-.5-.2a.9.9,0,0,0-.5.1c-.2.1-.2.2-.2.3l.3.3.3.2Z" transform="translate(-19.11 -32.7)" style="fill:#c5c800"/><path id="Path_7966" data-name="Path 7966" d="M174.1,190.2c.1,0,.2-.1.3-.1h.5c.1,0,.1,0,.2.1l.2.1.2.1a.1.1,0,0,1,.1.1v.1c0,.1,0,.1-.1.1l-.2.2c-.1,0-.2.1-.3.1h-.6c-.1,0-.1,0-.2-.1l-.2-.1-.2-.1-.1-.1v-.1c0-.1,0-.1.1-.1S174,190.2,174.1,190.2Zm.9.3h0l-.2-.1h-.6a.1.1,0,0,0,0,.2h.2l.1.1h.5c.1-.1.1-.1,0-.2Zm.5-1.1h0c0-.1,0-.1.1-.1l.2-.1h.2l.5,2.3v.1h-.1l-.2.1H176Zm1.3.6c.1,0,.2-.1.3-.1h.5c.1,0,.1,0,.2.1l.2.1.2.1.1.1v.1c0,.1,0,.1-.1.1s-.1.1-.2.2-.2.1-.3.1h-.5c-.1,0-.1,0-.2-.1l-.2-.1-.2-.1-.1-.1a.19.19,0,0,1,0-.3c.1,0,.2-.1.3-.1Zm.9.3h0l-.2-.1h-.4c-.1,0-.1,0-.2.1a.1.1,0,0,0,0,.2h.2l.1.1h.5a.1.1,0,0,0,.1-.1c0-.1-.1-.1-.1-.2Z" transform="translate(-19.11 -32.7)" style="fill:#c5c800"/><g id="Group_30930" data-name="Group 30930" style="opacity:0.20000000298023224"><path id="Path_7967" data-name="Path 7967" d="M170.51,193.15h0c-.1,0-.1-.1,0,0l.1-.8v-.1h0l.3-.2h.2l2.2,1.3h0v.1l-.3.2h-.2l-1.7-1-.1.5h-.5Z" transform="translate(-19.11 -32.7)" style="fill:#040405"/><path id="Path_7968" data-name="Path 7968" d="M174.11,191.15l.1.1.2.1.2.1.1.1.3.3a.5.5,0,0,1,0,.6,1.38,1.38,0,0,1-.4.3c-.2.1-.3.2-.5.2s-.3.1-.5,0a.9.9,0,0,1-.5-.1.76.76,0,0,1-.4-.2l-.3-.2c-.1-.1-.2-.1-.3-.2s-.2-.2-.3-.2a.5.5,0,0,1,0-.6,1.38,1.38,0,0,1,.4-.3c.2-.1.3-.2.5-.2a1.39,1.39,0,0,1,.9,0c.2.1.4.1.5.2Zm-.8,1.2c.2.1.3.1.5.2a.9.9,0,0,0,.5-.1c.2-.1.2-.2.2-.3s-.1-.2-.3-.3l-.3-.2-.3-.2c-.2-.1-.3-.1-.5-.2a.9.9,0,0,0-.5.1c-.2.1-.2.2-.2.3l.3.3.3.2Z" transform="translate(-19.11 -32.7)" style="fill:#040405"/><path id="Path_7969" data-name="Path 7969" d="M174,190.15c.1,0,.2-.1.3-.1h.5c.1,0,.1,0,.2.1l.2.1.2.1a.1.1,0,0,1,.1.1v.1c0,.1,0,.1-.1.1l-.2.2c-.1,0-.2.1-.3.1h-.6c-.1,0-.1,0-.2-.1l-.2-.1-.2-.1-.1-.1v-.1c0-.1,0-.1.1-.1S174,190.25,174,190.15Zm1,.4h0l-.2-.1h-.6a.1.1,0,0,0,0,.2h.2l.1.1h.5c0-.1.1-.2,0-.2Zm.5-1.1h0c0-.1,0-.1.1-.1l.2-.1h.1l.5,2.3v.1h-.1l-.2.1h-.2Zm1.3.5c.1,0,.2-.1.3-.1h.5c.1,0,.1,0,.2.1l.2.1.2.1.1.1v.1c0,.1,0,.1-.1.1s-.1.1-.2.2-.2.1-.3.1h-.5c-.1,0-.1,0-.2-.1l-.2-.1-.2-.1-.1-.1a.19.19,0,0,1,0-.3.37.37,0,0,0,.3-.1Zm.9.4h0l-.2-.1h-.4c-.1,0-.1,0-.2.1a.1.1,0,0,0,0,.2h.2l.1.1h.5a.1.1,0,0,0,.1-.1l-.1-.2Z" transform="translate(-19.11 -32.7)" style="fill:#040405"/></g><path id="Path_7970" data-name="Path 7970" d="M159.3,201.5h0c-.1-.1-.2-.2-.1-.2l.1-.1.9-.5h.2v.2h0Zm-.9-.6h0l-1-.5c-.1,0-.1-.1-.1-.2s.1-.1.2-.1h0l.9.5a.1.1,0,0,1,.1.1h0c0,.2-.1.3-.1.2Zm2.7-.5c-.1,0-.1,0-.1-.1s0-.1.1-.1l.9-.5c.1,0,.2,0,.2.1v.1l-1.1.5Zm-4.6-.5h0l-1-.5c-.1,0-.1-.1-.1-.2s.1-.1.2-.1h0l.9.5c.1,0,.1.1.1.2h0a.1.1,0,0,1-.1.1Zm6.5-.5a.1.1,0,0,1-.1-.1v-.2h0l.9-.5h.2v.2l-1,.6Zm1.9-1.1c-.1,0-.1,0-.1-.1s0-.1.1-.1l.9-.5h.2v.2h0l-1.1.5Zm1.9-1.1a.1.1,0,0,1-.1-.1h0a.1.1,0,0,1,.1-.1l.9-.5c.1,0,.2,0,.2.1v.2l-1.1.4Zm1.9-1.1c-.1,0-.1,0-.1-.1s0-.1.1-.1l.7-.4h.2v.2h0l-.9.4Z" transform="translate(-19.11 -32.7)" style="fill:#354952"/><path id="Path_7971" data-name="Path 7971" d="M173.4,196.4h0l.2.1h0l-.7.4h-.1l-1.1-.6h0l.1-.1h.1l.9.5Z" transform="translate(-19.11 -32.7)" style="fill:#d8d8d8"/><path id="Path_7972" data-name="Path 7972" d="M173,196l-.1-.1a.19.19,0,0,1,0-.3c0-.1.1-.1.2-.1s.2-.1.3-.1h.4c.1,0,.1,0,.2.1h.4a.1.1,0,0,1,.1.1.19.19,0,0,1,0,.3h0c0,.1-.1.1-.2.1a.35.35,0,0,0-.2.1h-.4l-.2-.1H173Zm.7-.4c-.1,0-.2-.1-.3-.1s-.2,0-.2.1a.1.1,0,0,0,0,.2l.1.1.1.1c.1,0,.2.1.3.1s.2,0,.2-.1a.1.1,0,0,0,.1-.1c0-.1,0-.1-.1-.2l-.1-.1Z" transform="translate(-19.11 -32.7)" style="fill:#d8d8d8"/><path id="Path_7973" data-name="Path 7973" d="M174.2,194.8a.85.85,0,0,1,.8,0c.1,0,.1.1.2.2v.2l.6.1h0l-.1.1h-.1l-.6-.1-.2.1.4.2h0l-.1.1H175l-1.1-.6h0Zm.3.5.2-.1.1-.1a.1.1,0,0,0-.1-.1h-.2c-.1,0-.1,0-.2.1l-.2.1Z" transform="translate(-19.11 -32.7)" style="fill:#d8d8d8"/><path id="Path_7974" data-name="Path 7974" d="M176.5,194.6h0l.2.1h0l-.7.4h-.1l-1.1-.6h0l.7-.4h0l.1.1h0l-.5.3.3.2.5-.3h.1l.1.1h0l-.5.3.3.2Z" transform="translate(-19.11 -32.7)" style="fill:#d8d8d8"/><path id="Path_7975" data-name="Path 7975" d="M177,193.9l-.2-.5h0l.1-.1h.1l1.1.6h0l-.1.1h-.1l-.6-.4.2.3h-.2l-.6-.1.6.4h0l-.1.1H177l-1.1-.6h0l.1-.1h.1Z" transform="translate(-19.11 -32.7)" style="fill:#d8d8d8"/><path id="Path_7976" data-name="Path 7976" d="M178.7,193.5h0l-1.1-.6h0l.1-.1h.1l1.1.6h0Z" transform="translate(-19.11 -32.7)" style="fill:#d8d8d8"/><path id="Path_7977" data-name="Path 7977" d="M178.5,192.4a.85.85,0,0,1,.8,0c.1.1.2.1.2.2a.22.22,0,0,1-.2.2l-.3.2.4.2-.1.1h-.1l-1.1-.6h0Zm.3.4.3-.1.1-.1a.1.1,0,0,0-.1-.1h0c-.1,0-.1-.1-.2,0s-.1,0-.2.1l-.3.1Z" transform="translate(-19.11 -32.7)" style="fill:#d8d8d8"/><path id="Path_7978" data-name="Path 7978" d="M179.5,191.8c.1,0,.1-.1.2-.1h.5l-.1.1h-.2c-.1,0-.1,0-.2.1h-.1v.1h.3l.2-.1c.1,0,.1-.1.2-.1h.3a.1.1,0,0,1,.1.1l.1.1v.1a.1.1,0,0,1-.1.1c0,.1-.1.1-.2.1s-.1.1-.2.1h-.6v-.1l.1-.1h.5l.1-.1.1-.1v-.1h-.3l-.2.1-.2.1h-.3c-.1,0-.1,0-.1-.1l-.1-.1v-.1a.1.1,0,0,1,.1-.1c0,.1,0,.1.1.1Z" transform="translate(-19.11 -32.7)" style="fill:#d8d8d8"/><path id="Path_7979" data-name="Path 7979" d="M181,190.9h0l.8.4c.1,0,.1.1.2.1v.1c0,.1,0,.1-.1.1s-.1.1-.2.1a.35.35,0,0,0-.2.1H181c-.1,0-.1,0-.2-.1l-.7-.4h0l.1-.1h.1l.6.4h.5l.1-.1s.1-.1,0-.1l-.1-.1-.7-.4h.3Z" transform="translate(-19.11 -32.7)" style="fill:#d8d8d8"/><path id="Path_7980" data-name="Path 7980" d="M182.5,190.8l-.2-.5v-.1l.1-.1h.1l1.1.6h0l-.1.1h-.1l-.6-.4.2.3h-.2l-.6-.1.6.4h0l-.1.1h-.1l-1.1-.6h0l.1-.1h.1Z" transform="translate(-19.11 -32.7)" style="fill:#d8d8d8"/><path id="Path_7981" data-name="Path 7981" d="M175.6,99.4" transform="translate(-19.11 -32.7)" style="fill:none;stroke:#5e5d5d"/><path id="Path_9181" data-name="Path 9181" d="M157,87.9l16.3,10.5,2.3,1.5a2.56,2.56,0,0,0,2.6-4.4L161.9,85l-2.3-1.5a2.56,2.56,0,1,0-2.6,4.4Z" transform="translate(-19.11 -32.7)" style="fill:#fff"/><path id="Path_9182" data-name="Path 9182" d="M173.9,76.6,169,86.3l-7.9,15.4-1.8,3.6a2.54,2.54,0,0,0,4.3,2.7c0-.1.1-.1.1-.2l4.9-9.7,7.9-15.4,1.8-3.6a2.54,2.54,0,1,0-4.3-2.7h0c-.1.1-.1.1-.1.2Z" transform="translate(-19.11 -32.7)" style="fill:#fff"/><g id="Group_30957" data-name="Group 30957" style="opacity:0.30000001192092896"><path id="Path_9183" data-name="Path 9183" d="M63.16,166.66l6.3,3.8-.8.5-6.3-3.8Z" transform="translate(-19.11 -32.7)" style="fill:#040405"/><path id="Path_9184" data-name="Path 9184" d="M71.06,166.76c-1.1-.6-2.3-1.4-3-1.8h0c1.1.9,2.8,2.4,4.4,3.8l-.7.4c-2-.9-4.8-2.1-6.2-2.8h0a29,29,0,0,1,3.1,1.9l2.2,1.4-.7.4-6.3-3.8,1.2-.7c1.9.8,4.3,1.9,5.4,2.4h0c-.7-.6-2.5-2.1-3.8-3.3l1.1-.7,6.3,3.8-.8.4Z" transform="translate(-19.11 -32.7)" style="fill:#040405"/><path id="Path_9185" data-name="Path 9185" d="M68.86,163.36l1.5-.9a3.54,3.54,0,0,1,3.3.4c1.4.8,1.4,1.6.6,2l-.7.4,2.3,1.4-.8.5Zm3.6,1.3.6-.4c.4-.2.4-.5-.3-.9a1.6,1.6,0,0,0-1.5-.2l-.6.4Z" transform="translate(-19.11 -32.7)" style="fill:#040405"/><path id="Path_9186" data-name="Path 9186" d="M78.86,161.36c1.8,1.1,2.6,2.3,1.4,3s-3.2.2-5-1-2.6-2.3-1.4-3S77,160.16,78.86,161.36Zm-2.7,1.5c1.3.7,2.5,1.1,3.1.8s-.1-1.2-1.2-1.9-2.4-1.1-3.1-.7-.1,1.1,1.2,1.8Z" transform="translate(-19.11 -32.7)" style="fill:#040405"/><path id="Path_9187" data-name="Path 9187" d="M81.06,160.86l2.5,1.5-.8.4-6.3-3.8,1.6-.9a3.2,3.2,0,0,1,3,.3c.8.5,1,.9,1,1.2a3.06,3.06,0,0,1,2,.7l.3.2a5.39,5.39,0,0,0,1.3.7l-.8.4a10.93,10.93,0,0,1-1.5-.8l-.1-.1c-.7-.4-1.1-.6-1.7-.2Zm-1.1-.6.7-.4c.4-.3.3-.5-.2-.8a1.2,1.2,0,0,0-1.4-.1l-.7.4Z" transform="translate(-19.11 -32.7)" style="fill:#040405"/><path id="Path_9188" data-name="Path 9188" d="M82,157.16l-1.1.6-1.1-.7,3.1-1.7,1.1.7-1.1.6,5.2,3.1-.8.5Z" transform="translate(-19.11 -32.7)" style="fill:#040405"/><path id="Path_9189" data-name="Path 9189" d="M86.36,154.66l-1.1.6-1.1-.7,3.1-1.7,1.1.7-1.1.6,5.2,3.1-.8.5Z" transform="translate(-19.11 -32.7)" style="fill:#040405"/><path id="Path_9190" data-name="Path 9190" d="M93.86,153.26l-1.8,1,1.6,1,2-1.1,1,.7-2.6,1.5-6.3-3.8,2.6-1.5,1.1.7-1.8,1.1,1.3.8,1.8-1Z" transform="translate(-19.11 -32.7)" style="fill:#040405"/><path id="Path_9191" data-name="Path 9191" d="M95.56,152.56l2.5,1.5-.8.5-6.3-3.8,1.6-.9a3.2,3.2,0,0,1,3,.3c.8.5,1,.9,1,1.2a3.06,3.06,0,0,1,2,.7l.3.2a5.39,5.39,0,0,0,1.3.7l-.8.4a10.93,10.93,0,0,1-1.5-.8l-.1-.1c-.7-.4-1.1-.6-1.7-.2Zm-1.1-.7.7-.4c.4-.3.3-.5-.2-.8a1.4,1.4,0,0,0-1.4-.2l-.7.4Z" transform="translate(-19.11 -32.7)" style="fill:#040405"/><path id="Path_9192" data-name="Path 9192" d="M101.66,149.26c-1.1-.6-2.3-1.4-3-1.8h0c1.1.9,2.8,2.4,4.4,3.8l-.7.4c-2-.9-4.8-2.1-6.2-2.8h0a29,29,0,0,1,3.1,1.9l2.3,1.4-.7.4-6.3-3.8,1.2-.7c1.9.8,4.3,1.9,5.4,2.4h0c-.7-.6-2.5-2.1-3.8-3.3l1.1-.6,6.3,3.8-.8.4Z" transform="translate(-19.11 -32.7)" style="fill:#040405"/><path id="Path_9193" data-name="Path 9193" d="M104.26,148.36a1.71,1.71,0,0,0,1.7.1c.4-.2.3-.5-.1-.8a1.9,1.9,0,0,0-1.8-.1,3.72,3.72,0,0,1-3.1-.4c-1.1-.7-1.4-1.4-.5-1.9a3.3,3.3,0,0,1,3.2.3l-.8.5a1.41,1.41,0,0,0-1.4-.1c-.3.2-.3.4.2.7a1.73,1.73,0,0,0,1.6.1,3.89,3.89,0,0,1,3.3.5c1.1.7,1.4,1.5.4,2a3.66,3.66,0,0,1-3.5-.3Z" transform="translate(-19.11 -32.7)" style="fill:#040405"/></g></svg>