<svg id="Layer_1" data-name="Layer 1" xmlns="http://www.w3.org/2000/svg" viewBox="0 0 291.85 294.06"><title>intro2</title><g id="Group_31012" data-name="Group 31012"><g id="freepik--Floor--inject-2"><path id="freepik--floor--inject-2-2" d="M54.1,162.65C2,192.72,2,241.45,54.1,271.51s136.48,30.06,188.55,0,52.07-78.8,0-108.86S106.17,132.62,54.1,162.65Z" transform="translate(0 0)" style="fill:#f2f1f2"/></g><g id="freepik--Shadows--inject-2"><path id="freepik--Shadow--inject-2" d="M239.38,234.62l-6.55-3.77a5,5,0,0,0-4.8.12l-33.79,18.15c-6.6-3.85-15.7-6.24-25.79-6.24-20.15,0-36.49,9.54-36.49,21.3s16.33,21.3,36.49,21.3,36.47-9.56,36.47-21.3c0-3.77-1.68-7.29-4.61-10.36l39-16.51C240.72,236.6,240.72,235.4,239.38,234.62Z" transform="translate(0 0)" style="fill:#d8d8d8"/><path id="freepik--shadow--inject-2-2" d="M110.71,265.88a7.82,7.82,0,0,1-3.87-1L43.95,228.64l-10,1.88a4.23,4.23,0,0,1-.85.08,4.59,4.59,0,0,1-2.3-.63L4.49,214.83a4.6,4.6,0,0,1-1.68-6.28l.14-.23,0-.06L4.66,206l-2.55-1.47a3.52,3.52,0,0,1,0-6.46L88.26,148,202.71,214l-88.15,50.87A7.76,7.76,0,0,1,110.71,265.88Z" transform="translate(0 0)" style="fill:#d8d8d8"/><path id="freepik--shadow--inject-2-3" d="M223.86,195.53l61.46-35.43c1.58-.92,1.58-2.39,0-3.31L203,109.3a6.28,6.28,0,0,0-5.73,0L135.9,144.76c-1.57.91-1.57,2.39,0,3.3l82.27,47.49A6.33,6.33,0,0,0,223.86,195.53Z" transform="translate(0 0)" style="fill:#d8d8d8"/><path id="freepik--shadow--inject-2-4" d="M255,232.49,216.07,210l36.88-21.27,38.9,22.47Z" transform="translate(0 0)" style="fill:#d8d8d8"/><path id="freepik--shadow--inject-2-5" d="M106.75,277.87l-5.93-6.74h0L56.16,245.27h0l-1.26-.73-2-1.19-.14-.08h0l-2-1.13h0l-8.06-4.64c-1.55-1.06-3.88,1.1-4.79,3.27h0a6.26,6.26,0,0,0-.32,1,2.08,2.08,0,0,0,.63,2.18l6.57,3.77,1.81,1.09h0l1.48.85.14.08,1.7,1h0l.07,0,1.43.82L96.9,277.91h0l8.65,1.71,2.35.47a.34.34,0,0,0,.3-.09.33.33,0,0,0,0-.47h0Z" transform="translate(0 0)" style="fill:#d8d8d8"/></g><path id="Path_7749" data-name="Path 7749" d="M278.73,159.35l-2.21-1.2,2.05-.5a1.58,1.58,0,0,1,.17,1.7Z" transform="translate(0 0)" style="fill:#c5c800"/><path id="Path_7750" data-name="Path 7750" d="M278.73,159.35l-2.21-1.2,2.05-.5a1.58,1.58,0,0,1,.17,1.7Z" transform="translate(0 0)" style="fill:#040405;opacity:0.5;isolation:isolate"/><path id="Path_7751" data-name="Path 7751" d="M219,189.44a5.1,5.1,0,0,0,4.59,0l51.5-29.74L198,115.91l-1.82-1-51.5,29a1.4,1.4,0,0,0,0,2.65Z" transform="translate(0 0)" style="fill:#055485"/><path id="Path_7752" data-name="Path 7752" d="M238.31,134l18,10.34,11.62-6.71,13.53,7.81v9c0,1.18-1.33,2.86-1.81,2.59A12.93,12.93,0,0,0,277,158a19.5,19.5,0,0,0-3.74,2.76L232,137.61Z" transform="translate(0 0)" style="fill:#055485"/><path id="Path_7754" data-name="Path 7754" d="M274,146.54v9.8l.17-.1a4.61,4.61,0,0,1,2.2-.69,2.24,2.24,0,0,1,1.44.35V144.34Z" transform="translate(0 0)" style="fill:#040405;opacity:0.4000000059604645;isolation:isolate"/><path id="Path_7755" data-name="Path 7755" d="M271.5,159.67a3.15,3.15,0,0,1,.63-1.67,7,7,0,0,1,.63-.72l.22-.21.29-.24.23-.18c.16-.13.34-.24.51-.35v-9.77L271.49,148v11.67Z" transform="translate(0 0)" style="fill:#d8d8d8"/><path id="Path_7756" data-name="Path 7756" d="M281.42,154.45c0,1.18-1.33,2.86-1.82,2.59h0l-1.83-1.17v-7.44l1.82-3.14,1-.35.82.48Z" transform="translate(0 0)" style="fill:#040405;opacity:0.4000000059604645;isolation:isolate"/><path id="Path_7757" data-name="Path 7757" d="M221.25,177v11.18a3.1,3.1,0,0,0,1.53-.36l5.65-3.26,43.06-24.84V148Z" transform="translate(0 0)" style="fill:#e7e6e6"/><path id="Path_7758" data-name="Path 7758" d="M145.94,135v8.44a3.41,3.41,0,0,0,1.53,2.65l66.62,38.46,5.65,3.26a3.1,3.1,0,0,0,1.53.36v-9.92Z" transform="translate(0 0)" style="fill:#f2f1f2"/><path id="Path_7759" data-name="Path 7759" d="M198,101.39l77.1,44.53v1c0,.58.8.78,1.8.21s1.8-1.26,1.8-2.28l.09-1L200.19,98.55l-.32-.19a1.31,1.31,0,0,0-.13.48v.48C199.73,99.88,199,100.8,198,101.39Z" transform="translate(0 0)" style="fill:#5291b9;opacity:0.6700000166893005;isolation:isolate"/><path id="Path_7761" data-name="Path 7761" d="M223.55,175.64l50.36-29.09c.63-.34,1.26-.63,1.48-.48l-.33-.18L198,101.39l-.9-.52a2.9,2.9,0,0,0-2.43.36l-50,28.85a1.4,1.4,0,0,0,0,2.65l74.31,42.91a5.07,5.07,0,0,0,4.61,0Z" transform="translate(0 0)" style="fill:#055485"/><path id="Path_7762" data-name="Path 7762" d="M199.9,98.35l.33.19,78.55,45.35a.54.54,0,0,1,.17-.21l.26-.15.57-.33.7-.41a.71.71,0,0,1,.89.08l.09.08a2,2,0,0,1,.24.33,2.17,2.17,0,0,1,.2.45,5.22,5.22,0,0,1,.16.51c0,.2.08.39.11.63a1,1,0,0,0,0,.36V144a4.69,4.69,0,0,0-2.29-3.53l-74.3-42.94a4.61,4.61,0,0,0-4.1-.29l-.93.55h0l-.4.23A.86.86,0,0,0,199.9,98.35Z" transform="translate(0 0)" style="fill:#055485"/><path id="Path_7763" data-name="Path 7763" d="M223.5,189.52l3.14-1.8,46.62-26.92a3.05,3.05,0,0,1,.63-1.67,6.87,6.87,0,0,1,2-1.79,4.64,4.64,0,0,1,2.2-.69,2.35,2.35,0,0,1,1.45.48,8,8,0,0,0,.85-3.86h1.76c0,2.44-.8,4.88-1.79,5.45l-.89.52c-.5.29-.9.31-.9,0v-.48c0-.53-.8-.5-1.8.07s-1.8,1.47-1.8,2v.48c0,.27-.68.88-1.53,1.37L228.4,188.78l-4.88,2.81h0a4.75,4.75,0,0,1-2.29.54v-2a4.6,4.6,0,0,0,2.26-.57Z" transform="translate(0 0)" style="fill:#5291b9"/><path id="Path_7765" data-name="Path 7765" d="M223.53,175.64h0l3.14-1.8,35.8-20.67,11.41-6.63c.81-.48,1.48-.63,1.52-.4v.52c0,.58.8.58,1.79,0s1.4-1.26,1.41-1.8v-.57a.82.82,0,0,1,.27-.67l.26-.15.57-.33.7-.41a.71.71,0,0,1,.89.08l.09.08a1.3,1.3,0,0,1,.16.21l.08.11a2.17,2.17,0,0,1,.2.45,5.29,5.29,0,0,1,.16.51c0,.2.08.39.11.63a1,1,0,0,0,0,.36v8h-1.77v-7.55l0-.44v0a5.09,5.09,0,0,1-2.67,3.32,4.46,4.46,0,0,1-2.15.67,2.36,2.36,0,0,1-1.58-.58l-.16.09-.31.18-45,26.05-4.88,2.82h0a4.79,4.79,0,0,1-2.26.52v-2a4.64,4.64,0,0,0,2.26-.53Z" transform="translate(0 0)" style="fill:#c5c800;fill-opacity:0"/><path id="Path_7766" data-name="Path 7766" d="M223.53,175.72h0l3.14-1.8,35.8-20.67,11.41-6.63c.81-.48,1.48-.63,1.52-.4v.52c0,.58.8.58,1.79,0s1.4-1.26,1.41-1.8v-.57a.82.82,0,0,1,.27-.67,1.74,1.74,0,0,1,.26-.15l.57-.33.7-.41a.71.71,0,0,1,.89.08.31.31,0,0,1,.09.08,1.26,1.26,0,0,1,.16.21l.08.11a2.13,2.13,0,0,1,.2.45,5.15,5.15,0,0,1,.16.51c0,.2.08.39.11.63a1,1,0,0,0,0,.36v8h-1.77V145.7l0-.44v0a5.09,5.09,0,0,1-2.67,3.32,4.46,4.46,0,0,1-2.15.67,2.37,2.37,0,0,1-1.58-.58l-.16.09-.31.18-45,26.05-4.88,2.82h0a4.8,4.8,0,0,1-2.26.52v-2a4.65,4.65,0,0,0,2.26-.53Z" transform="translate(0 0)" style="fill:#5291b9"/><path id="Path_7767" data-name="Path 7767" d="M143.71,131.35v2.08a1.59,1.59,0,0,0,.9,1.31h0l69.46,40.11,4.87,2.82h0a4.85,4.85,0,0,0,2.29.54v-2a4.6,4.6,0,0,1-2.29-.55l-3.1-1.79h0l-71.23-41.12a1.58,1.58,0,0,1-.94-1.36Z" transform="translate(0 0)" style="fill:#5291b9"/><path id="Path_7768" data-name="Path 7768" d="M142.17,134.9V137a1.59,1.59,0,0,0,.9,1.31h0l69.46,40.11,4.87,2.82h0a4.85,4.85,0,0,0,2.29.54v-2a4.6,4.6,0,0,1-2.29-.55l-3.1-1.79h0l-71.23-41.12a1.58,1.58,0,0,1-.94-1.36Z" transform="translate(0 0)" style="fill:#040405;fill-opacity:0"/><path id="Path_7769" data-name="Path 7769" d="M143.71,145.17v2.06a1.59,1.59,0,0,0,.9,1.32h0l69.44,40.13,4.87,2.81h0a4.78,4.78,0,0,0,2.29.54v-2a4.61,4.61,0,0,1-2.29-.55l-3.1-1.79h0l-71.21-41.12A1.59,1.59,0,0,1,143.71,145.17Z" transform="translate(0 0)" style="fill:#5291b9"/><path id="Path_7771" data-name="Path 7771" d="M278.75,136.73,218.53,171l-80.09-46,60.21-34.31Z" transform="translate(0 0)" style="fill:#c5c800"/><path id="Path_7772" data-name="Path 7772" d="M278.75,136.73,218.53,171l-80.09-46,60.21-34.31Z" transform="translate(0 0)" style="fill:#055485"/><path id="Path_7773" data-name="Path 7773" d="M218,168.94l58.55-33.5c-1.26-3.47-1.12-7.54.25-12.13l-58.22,33.22S217.64,159.45,218,168.94Z" transform="translate(0 0)" style="fill:#f2f1f2"/><path id="Path_7774" data-name="Path 7774" d="M220.91,152.73a9.85,9.85,0,0,0-4.49,7.74v9c0,2.85,2,4,4.5,2.58L278.75,139v-2.24l-57.22,32.6c-1.49.85-2.7.16-2.69-1.55l0-8.37a5.93,5.93,0,0,1,2.7-4.64l57.15-32.61v-2.51Z" transform="translate(0 0)" style="fill:#fff"/><path id="Path_7775" data-name="Path 7775" d="M220.67,152.68a9.85,9.85,0,0,0-4.49,7.74v9c0,2.85,2,4,4.5,2.58l57.83-33.12v-2.24l-57.22,32.6c-1.49.85-2.7.16-2.69-1.55l0-8.37a5.93,5.93,0,0,1,2.7-4.64l57.15-32.61V119.6Z" transform="translate(0 0)" style="fill:#5291b9;opacity:0.6700000166893005;isolation:isolate"/><path id="Path_7776" data-name="Path 7776" d="M278.74,119.6l-80.1-45.91L140.86,106.8a9.87,9.87,0,0,0-4.52,7.71v9a3.13,3.13,0,0,0,1.32,2.89l80.09,46a3.16,3.16,0,0,1-1.33-2.89v-9a9.88,9.88,0,0,1,4.5-7.74Z" transform="translate(0 0)" style="fill:#c5c800"/><path id="Path_7777" data-name="Path 7777" d="M278.74,119.6l-80.1-45.91L140.86,106.8a9.87,9.87,0,0,0-4.52,7.71v9a3.13,3.13,0,0,0,1.32,2.89l80.09,46a3.16,3.16,0,0,1-1.33-2.89v-9a9.88,9.88,0,0,1,4.5-7.74Z" transform="translate(0 0)" style="fill:#055485"/><path id="Path_7778" data-name="Path 7778" d="M217.74,156.07a9.09,9.09,0,0,0-1.32,4.4v9a3.12,3.12,0,0,0,1.32,2.89l-80.08-46a3.13,3.13,0,0,1-1.32-2.89v-9a9,9,0,0,1,1.32-4.4Z" transform="translate(0 0)" style="fill:#f2f1f2"/><path id="Path_7779" data-name="Path 7779" d="M217.53,156.31a9.09,9.09,0,0,0-1.32,4.4v9a3.12,3.12,0,0,0,1.32,2.89l-80.08-46a3.13,3.13,0,0,1-1.32-2.89v-9a9,9,0,0,1,1.32-4.4Z" transform="translate(0 0)" style="fill:#0e4668"/><path id="Path_7780" data-name="Path 7780" d="M148.21,116.1c-1.46,6.32-1.44,11.79,0,16.43l3.73,2.15c-1.44-4.64-1.46-10.11,0-16.43Z" transform="translate(0 0)" style="fill:#fff"/><path id="Path_7781" data-name="Path 7781" d="M201.41,146.82c-1.46,6.32-1.43,11.79,0,16.43l3.72,2.15c-1.43-4.64-1.45-10.1,0-16.43Z" transform="translate(0 0)" style="fill:#fff"/><g id="freepik--folder--inject-2-2"><path id="Path_7782" data-name="Path 7782" d="M3,201.66c-1.66-1-1.67-2.51,0-3.49l85.31-49.57,111,64.09-85.57,49.41a6.69,6.69,0,0,1-6,0L44.23,225.5l-10.61,2a2.87,2.87,0,0,1-2-.33L5.32,212a2.88,2.88,0,0,1-1.05-3.91s.06-.1.09-.15l2.78-3.83Z" transform="translate(0 0)" style="fill:#c5c800"/><path id="Path_7783" data-name="Path 7783" d="M3,201.66c-1.66-1-1.67-2.51,0-3.49l85.31-49.57,111,64.09-85.57,49.41a6.69,6.69,0,0,1-6,0L44.23,225.5l-10.61,2a2.87,2.87,0,0,1-2-.33L5.32,212a2.88,2.88,0,0,1-1.05-3.91s.06-.1.09-.15l2.78-3.83Z" transform="translate(0 0)" style="fill:#5291b9"/><path id="Path_7784" data-name="Path 7784" d="M91.77,150.62l103.77,59.92-84.82,48.6L7.51,199.56Z" transform="translate(0 0)" style="fill:#ececec"/><path id="Path_7785" data-name="Path 7785" d="M199.41,212.77l-77.25,44.42a6.49,6.49,0,0,1-5.88-.1L11.59,196.65c-1.67-1-1.74-2.48-.16-3.4l77-44.59Z" transform="translate(0 0)" style="fill:#055485"/></g><g id="freepik--magnifying-glass--inject-2"><g id="freepik--magnifying-glass--inject-2-2"><path id="Path_7786" data-name="Path 7786" d="M227.28,223.95h0l-25.71,14.77h0a2.51,2.51,0,0,0-1.11,2.18,7.76,7.76,0,0,0,3.19,6.23,2.46,2.46,0,0,0,2.46.37l27-12h0A6.49,6.49,0,0,0,228,223.57l-.32.15a3.39,3.39,0,0,0-.4.2Z" transform="translate(0 0)" style="fill:#354952"/><path id="Path_7787" data-name="Path 7787" d="M206.06,247.54l27-12a6.49,6.49,0,0,0,3.14-8.62,6.61,6.61,0,0,0-2-2.44c1.52,1.57,1.11,5.51-3.33,7.84s-21.07,9.85-28.62,13.69a5.77,5.77,0,0,0,1.3,1.17,2.47,2.47,0,0,0,2.47.35Z" transform="translate(0 0)" style="fill:#29373e"/><path id="Path_7788" data-name="Path 7788" d="M200.4,240.94a7.75,7.75,0,0,0,3.2,6.22,2.47,2.47,0,0,0,2.39.4c.47-.22,2.29-1,2.78-1.26A2.51,2.51,0,0,0,210,244a8,8,0,0,0-3.3-6.42,2.52,2.52,0,0,0-2.6-.34l-2.62,1.51A2.51,2.51,0,0,0,200.4,240.94Z" transform="translate(0 0)" style="fill:#c5c800"/><path id="Path_7789" data-name="Path 7789" d="M200.4,240.94c.11-2.23,1.72-3.05,3.59-1.85a7.71,7.71,0,0,1,3.2,6.22c-.11,2.23-1.72,3.06-3.59,1.85a7.75,7.75,0,0,1-3.2-6.22Z" transform="translate(0 0)" style="fill:#c5c800"/><path id="Path_7790" data-name="Path 7790" d="M200.4,240.94c.11-2.23,1.72-3.05,3.59-1.85a7.71,7.71,0,0,1,3.2,6.22c-.11,2.23-1.72,3.06-3.59,1.85a7.75,7.75,0,0,1-3.2-6.22Z" transform="translate(0 0)" style="fill:#fff;opacity:0.30000001192092896;isolation:isolate"/><path id="Path_7791" data-name="Path 7791" d="M193.68,251a5.13,5.13,0,0,1-2.15-4.11,1.65,1.65,0,0,1,.73-1.47h0l9.51-4.94h0a1.62,1.62,0,0,1,1.62.23,5.12,5.12,0,0,1,2.15,4.11,1.62,1.62,0,0,1-.74,1.47h0l-9.49,4.94h0A1.62,1.62,0,0,1,193.68,251Z" transform="translate(0 0)" style="fill:#29373e"/><path id="Path_7792" data-name="Path 7792" d="M195.32,251.18a1.64,1.64,0,0,1-1.64-.23,4.43,4.43,0,0,1-1.26-1.26L205.21,243a4.34,4.34,0,0,1,.33,1.74,1.62,1.62,0,0,1-.74,1.47l-9.49,4.94Z" transform="translate(0 0)" style="fill:#1c262c"/><path id="Path_7793" data-name="Path 7793" d="M134.7,253.06v9.21c0,5,3.3,10,9.91,13.82,13.19,7.63,34.65,7.63,47.87,0,6.61-3.82,9.91-8.79,9.92-13.82v-9.21h0c0-5-3.31-10-9.92-13.82-13.19-7.63-34.65-7.63-47.87,0C138,243.06,134.7,248,134.7,253.06Zm64.43,0c0,4-2.94,7.9-8.28,11-5.9,3.4-13.82,5.28-22.3,5.28s-16.39-1.88-22.3-5.28c-5.34-3.08-8.28-7-8.28-11s2.94-7.9,8.28-11c5.9-3.41,13.82-5.29,22.3-5.29s16.4,1.88,22.3,5.29c5.33,3.07,8.28,7,8.28,11Z" transform="translate(0 0)" style="fill:#c5c800"/><path id="Path_7794" data-name="Path 7794" d="M134.7,253.06v9.21c0,5,3.3,10,9.91,13.82,13.19,7.63,34.65,7.63,47.87,0,6.61-3.82,9.91-8.79,9.92-13.82v-9.21h0c0-5-3.31-10-9.92-13.82-13.19-7.63-34.65-7.63-47.87,0C138,243.06,134.7,248,134.7,253.06Zm64.43,0c0,4-2.94,7.9-8.28,11-5.9,3.4-13.82,5.28-22.3,5.28s-16.39-1.88-22.3-5.28c-5.34-3.08-8.28-7-8.28-11s2.94-7.9,8.28-11c5.9-3.41,13.82-5.29,22.3-5.29s16.4,1.88,22.3,5.29c5.33,3.07,8.28,7,8.28,11Z" transform="translate(0 0)" style="fill:#fff;opacity:0.30000001192092896;isolation:isolate"/><path id="Path_7795" data-name="Path 7795" d="M197.54,248a9.38,9.38,0,0,1,1.58,5c0,4-2.94,7.9-8.28,11a36.7,36.7,0,0,1-8.4,3.45v12.59a40.63,40.63,0,0,0,10-4c6.6-3.82,9.91-8.79,9.92-13.82v-9.19a12.62,12.62,0,0,0-2.12-6.8Z" transform="translate(0 0)" style="fill:#c5c800;opacity:0.4000000059604645;isolation:isolate"/><path id="Path_7796" data-name="Path 7796" d="M134.7,253.06h0v9.21c0,5,3.3,10,9.91,13.82a38,38,0,0,0,5.83,2.69l0-12.69a33.71,33.71,0,0,1-4.24-2c-5.34-3.08-8.28-7-8.28-11a9,9,0,0,1,1-3.93L136.37,247a12.36,12.36,0,0,0-1.68,6.07Z" transform="translate(0 0)" style="fill:#fff;opacity:0.30000001192092896;isolation:isolate"/><path id="Path_7797" data-name="Path 7797" d="M192.49,239.25c-13.19-7.63-34.65-7.63-47.86,0s-13.19,20,0,27.64,34.64,7.63,47.86,0S205.7,246.88,192.49,239.25Zm-1.63,24.81c-5.9,3.4-13.82,5.28-22.3,5.28s-16.39-1.88-22.3-5.28c-5.33-3.08-8.27-7-8.27-11s2.93-7.9,8.27-11c5.91-3.41,13.82-5.29,22.3-5.29s16.39,1.88,22.3,5.29c5.34,3.08,8.28,7,8.28,11s-2.94,7.89-8.28,11Z" transform="translate(0 0)" style="fill:#c5c800"/><g id="Group_30923" data-name="Group 30923" style="opacity:0.5"><path id="Path_7798" data-name="Path 7798" d="M192.48,239.25c-13.19-7.63-34.65-7.63-47.86,0s-13.19,20,0,27.64,34.64,7.63,47.86,0S205.7,246.88,192.48,239.25Zm-1.63,24.81c-5.9,3.4-13.82,5.28-22.3,5.28s-16.39-1.88-22.3-5.28c-5.33-3.08-8.27-7-8.27-11s2.93-7.9,8.27-11c5.91-3.41,13.82-5.29,22.3-5.29s16.39,1.88,22.3,5.29c5.34,3.08,8.28,7,8.28,11s-2.94,7.89-8.28,11Z" transform="translate(0 0)" style="fill:#fff"/></g><path id="Path_7799" data-name="Path 7799" d="M138.63,243.83a15,15,0,0,0-3.73,6.54,11.9,11.9,0,0,0,.66,7.49,17.59,17.59,0,0,0,4.55,6.07,27.47,27.47,0,0,0,3,2.3c.54.35,1.07.68,1.63,1l1.69.88a15.76,15.76,0,0,0,1.73.8c.58.25,1.17.51,1.74.74l1.8.63.9.31c.3.1.63.17.91.26a55.9,55.9,0,0,0,30,0c.3-.09.63-.16.91-.26l.9-.31,1.8-.63c.59-.23,1.16-.49,1.75-.73a18.38,18.38,0,0,0,1.73-.79l1.71-.9c.57-.3,1.09-.63,1.63-1a27.16,27.16,0,0,0,3-2.3,17.34,17.34,0,0,0,4.55-6.07,11.76,11.76,0,0,0,.66-7.49,14.87,14.87,0,0,0-3.73-6.54,25.5,25.5,0,0,0-6-4.59,25.57,25.57,0,0,1,5.88,4.67,14.78,14.78,0,0,1,3.57,6.51,11.48,11.48,0,0,1-.71,7.3,17,17,0,0,1-4.51,5.9,28.82,28.82,0,0,1-6.28,4.06,14.85,14.85,0,0,1-1.7.78c-.58.24-1.16.5-1.73.73l-1.78.63-.89.3c-.3.09-.63.16-.9.25a56.65,56.65,0,0,1-29.75,0c-.3-.08-.63-.16-.9-.25l-.89-.3-1.78-.63c-.58-.23-1.15-.48-1.73-.73a16,16,0,0,1-1.7-.78,29.1,29.1,0,0,1-6.28-4.06,17.16,17.16,0,0,1-4.51-5.9,11.56,11.56,0,0,1-.71-7.3,14.92,14.92,0,0,1,3.57-6.52,25.63,25.63,0,0,1,5.89-4.65,25.76,25.76,0,0,0-6,4.59Z" transform="translate(0 0)" style="fill:#fff;opacity:0.4000000059604645;isolation:isolate"/><path id="Path_7800" data-name="Path 7800" d="M199.13,253.06a9,9,0,0,1-1.33,4.61,18.35,18.35,0,0,0-7-6.38c-5.9-3.41-13.82-5.29-22.3-5.29s-16.39,1.88-22.29,5.29a18.34,18.34,0,0,0-7,6.38,9,9,0,0,1-1.32-4.61c0-4,2.93-7.9,8.28-11,5.9-3.4,13.82-5.29,22.29-5.29s16.4,1.88,22.3,5.29C196.19,245.15,199.13,249.06,199.13,253.06Z" transform="translate(0 0)" style="fill:#c5c800"/><path id="Path_7801" data-name="Path 7801" d="M199.13,253.06a9,9,0,0,1-1.33,4.61,18.35,18.35,0,0,0-7-6.38c-5.9-3.41-13.82-5.29-22.3-5.29s-16.39,1.88-22.29,5.29a18.34,18.34,0,0,0-7,6.38,9,9,0,0,1-1.32-4.61c0-4,2.93-7.9,8.28-11,5.9-3.4,13.82-5.29,22.29-5.29s16.4,1.88,22.3,5.29C196.19,245.15,199.13,249.06,199.13,253.06Z" transform="translate(0 0)" style="fill:#fff;opacity:0.30000001192092896;isolation:isolate"/><path id="Path_7802" data-name="Path 7802" d="M146.26,242.07c-5.35,3.08-8.28,7-8.28,11a9.17,9.17,0,0,0,1.32,4.61,18.47,18.47,0,0,1,7-6.38,33.78,33.78,0,0,1,4.27-2.06c-1.26.5-5.24,1.77-3.8-2,1.72-4.48,10.09-9.34,16.25-10.15h0A42.27,42.27,0,0,0,146.26,242.07Z" transform="translate(0 0)" style="fill:#c5c800;opacity:0.4000000059604645;isolation:isolate"/><path id="Path_7803" data-name="Path 7803" d="M190.85,246.25c-5.9-3.41-13.82-5.28-22.3-5.28s-16.39,1.88-22.3,5.28c-4.4,2.51-7.17,5.65-8,8.9.83,3.25,3.6,6.36,8,8.9,5.91,3.4,13.82,5.28,22.3,5.28s16.39-1.88,22.3-5.28c4.4-2.54,7.17-5.65,8-8.9C198,251.9,195.25,248.79,190.85,246.25Z" transform="translate(0 0)" style="fill:#fff;opacity:0.699999988079071;isolation:isolate"/></g></g><g id="freepik--Pencil--inject-2"><g id="freepik--pencil--inject-2-2"><g id="freepik--pencil--inject-2-3"><path id="Path_7804" data-name="Path 7804" d="M45.49,244.91l.81.46,1,.57L98,275.3a4.47,4.47,0,0,1,.63-3.34c.8-1.51,2-2.71,2.93-2.76L51.09,240l-1.88-1.07C50.42,239.68,46.65,245.65,45.49,244.91Z" transform="translate(0 0)" style="fill:#354952"/><path id="Path_7805" data-name="Path 7805" d="M51,239.94l-1.83-1c-.51-.32-1.48.63-2.34,1.83-1.14,1.61-2.06,3.77-1.38,4.18l1.33.77.48.26c-.68-.42.24-2.56,1.38-4.18.82-1.17,1.75-2.07,2.27-1.85Z" transform="translate(0 0)" style="fill:#e7e6e6"/><path id="Path_7806" data-name="Path 7806" d="M50.56,239.69c-1.19-.74-4.91,5.26-3.72,6l1.8,1c-1.19-.73,2.51-6.74,3.72-6Z" transform="translate(0 0)" style="fill:#c5c800"/><path id="Path_7807" data-name="Path 7807" d="M54.08,241.71l-1.78-1c-1.16-.73-4.81,5-3.82,5.95l.06,0,1.82,1C49.17,246.94,52.94,241,54.08,241.71Z" transform="translate(0 0)" style="fill:#e7e6e6"/><path id="Path_7808" data-name="Path 7808" d="M49.23,238.93h0c-.51-.33-1.48.63-2.34,1.82-1.12,1.59-2,3.69-1.41,4.15l-7.54-4.32a1.82,1.82,0,0,1-.59-2c.42-2.19,3-5,4.62-3.87Z" transform="translate(0 0)" style="fill:#ec797c"/><path id="Path_7809" data-name="Path 7809" d="M106.35,275.57c-.63.84-.56,1.26-.56,1.26L98,275.3c-.79-1.18-.26-3.1.8-4.47l.35.2Z" transform="translate(0 0)" style="fill:#ec797c"/><path id="Path_7810" data-name="Path 7810" d="M107.92,277.24l-2.13-.41s-.1-.41.56-1.26l1.85,1.17h0a.31.31,0,0,1,0,.43h0A.28.28,0,0,1,107.92,277.24Z" transform="translate(0 0)" style="fill:#29373e"/><path id="Path_7811" data-name="Path 7811" d="M101.53,269.2h0l5.36,6.07a1,1,0,0,0-.55.31L99.12,271l-.35-.2A3.77,3.77,0,0,1,101.53,269.2Z" transform="translate(0 0)" style="fill:#ef9296"/><path id="Path_7812" data-name="Path 7812" d="M106.36,275.57a.74.74,0,0,1,.55-.31l1.26,1.48Z" transform="translate(0 0)" style="fill:#354952"/><path id="Path_7813" data-name="Path 7813" d="M98.78,270.82l-60.66-34a5.84,5.84,0,0,0-.75,1.83,1.83,1.83,0,0,0,.58,2l7.54,4.35.81.46,1,.57L98,275.3C97,273.82,98.08,271.65,98.78,270.82Z" transform="translate(0 0)" style="fill:#040405;opacity:0.20000000298023224;isolation:isolate"/></g></g></g><path id="Path_7814" data-name="Path 7814" d="M225.46,205.83l30.71-17.73,29.52,17.05L255,222.89Z" transform="translate(0 0)" style="fill:#c5c800"/><path id="Path_7815" data-name="Path 7815" d="M225.46,205.83l30.71-17.73,29.52,17.05L255,222.89Z" transform="translate(0 0)" style="fill:#fff;opacity:0.30000001192092896;isolation:isolate"/><path id="Path_7816" data-name="Path 7816" d="M225.46,205.83l-3.54-2,30.74-17.74,3.54,2Z" transform="translate(0 0)" style="fill:#c5c800"/><path id="Path_7817" data-name="Path 7817" d="M225.46,205.83l-3.54-2,30.74-17.74,3.54,2Z" transform="translate(0 0)" style="fill:#c5c800;opacity:0.15000000596046448;isolation:isolate"/><path id="Path_7818" data-name="Path 7818" d="M225.46,205.83l-3.54-2,30.74-17.74,3.54,2Z" transform="translate(0 0)" style="fill:#fff;opacity:0.30000001192092896;isolation:isolate"/><path id="Path_7819" data-name="Path 7819" d="M221.91,203.79v6.09L255,229v-6.09Z" transform="translate(0 0)" style="fill:#c5c800"/><path id="Path_7820" data-name="Path 7820" d="M221.91,203.79v6.09L255,229v-6.09Z" transform="translate(0 0)" style="fill:#040405;opacity:0.15000000596046448;isolation:isolate"/><path id="Path_7821" data-name="Path 7821" d="M255,222.89l30.71-17.73v6.08L255,229Z" transform="translate(0 0)" style="fill:#c5c800"/><path id="Path_7822" data-name="Path 7822" d="M280,199.1h0l-23.8-11-30.71,17.73L255,219.48l26.57-15.34c1.61-.94,3.19-2.51,3.09-4.61C283.74,200,282.25,200.15,280,199.1Z" transform="translate(0 0)" style="fill:#c5c800"/><path id="Path_7823" data-name="Path 7823" d="M280,199.1h0l-23.8-11-30.71,17.73L255,219.48l26.57-15.34c1.61-.94,3.19-2.51,3.09-4.61C283.74,200,282.25,200.15,280,199.1Z" transform="translate(0 0)" style="fill:#fff;opacity:0.5;isolation:isolate"/><path id="Path_7824" data-name="Path 7824" d="M269.71,199.43l-.12-.06c-.2-.16-.47.12-.34.24a5.33,5.33,0,0,0-.63.32,2.79,2.79,0,0,1-1.38.35.11.11,0,0,0,0-.06,1.87,1.87,0,0,0-.89-1.74,1.42,1.42,0,0,0-1.61-.2c-.63.37-.22,1.08.16,1.46a3,3,0,0,0,1.42.78,2.83,2.83,0,0,1-.92.52c-.55.22-.8.22-.82.68a3.5,3.5,0,0,0,.14.72c.09.47,0,1-1,1a3.68,3.68,0,0,1-1.26-.35c-.2-.08-.4,0-.42.13-.06.38.11.78.09,1.16,0,1.09-1.6,0-2.07-.32-.25-.17-.53,0-.44.19a2.69,2.69,0,0,1,0,2c-.08.32-.21.92-.69,1.13a1.13,1.13,0,0,1-1.26-.22,3.84,3.84,0,0,0,.46-2.88,1,1,0,0,0-1.13-.83h0a1.09,1.09,0,0,0-.28.08,1.23,1.23,0,0,0-.79,1.82,6.18,6.18,0,0,0,1.17,1.83,9.13,9.13,0,0,1-3.33,2.86c-.2.11,0,.36.23.22a9.26,9.26,0,0,0,3.45-2.76,1.52,1.52,0,0,0,2,.07,2.79,2.79,0,0,0,.9-2.74,2.16,2.16,0,0,0,1.82.52c.86-.28.53-1.16.45-1.74a3.14,3.14,0,0,0,2.17.2c1-.39.35-1.16.41-1.7s.91-.57,1.49-1a1.51,1.51,0,0,0,.4-.4,3.21,3.21,0,0,0,2.67-1,.12.12,0,0,0,0-.17h0Zm-12.39,7.21a6.19,6.19,0,0,1-.42-.63c-.27-.41-1-1.51-.58-2a.58.58,0,0,1,.16-.14.83.83,0,0,1,.68,0,.89.89,0,0,1,.55.82,6.23,6.23,0,0,1-.07.84,3.91,3.91,0,0,1-.32,1.17Zm9.34-6.54a2.42,2.42,0,0,1-1.44-.68h0a.63.63,0,0,1-.22-.4.5.5,0,0,1,.46-.46c.45,0,.7.28.93.58.08,0,.46,1,.27,1Zm-11.57,3.14a2.24,2.24,0,0,0,.36-1.49,9.52,9.52,0,0,0,0-1,3.85,3.85,0,0,0-.2-.63,2.19,2.19,0,0,0,2,.53c1.26-.38,1-1.4.71-2.15.75.4,1.43.81,2-.08a2.61,2.61,0,0,1,1-1.16,5.85,5.85,0,0,0,1-.63c.68-.63.28-1.35.78-2,.14-.18-.24-.38-.45-.18a1.13,1.13,0,0,0-.28.63c-.17.89-.56,1.36-1.64,2-.52.32-.57.56-.89.9-.76.8-1.07.19-1.79-.1-.21-.08-.45,0-.41.17.17.54,1.07,2-.48,2.14-.8,0-1-.41-1.72-.63s-.32,1.34-.26,1.64a4,4,0,0,1,.09,1,1,1,0,0,1-.71,1.19h0a1,1,0,0,1-.28,0,4.09,4.09,0,0,1-1.63-.12c.09-.21.3-.35.38-.57a1.62,1.62,0,0,0,.09-.79,2.55,2.55,0,0,0-.79-1.53,2.31,2.31,0,0,0-2.13-.53c-.72.32-.35,1.36-.16,1.76a4.49,4.49,0,0,0,1.73,1.63,3.92,3.92,0,0,1-1.35.4c-.77.12-1.37.07-1.61.58-.12.27.11.72-.16.94-.5.41-1,0-1.45,0-.58.06-.75.16-.76.55,0,.11.18.29.14.4l.09.14a1.25,1.25,0,0,1-.77-.1,4.61,4.61,0,0,1-.67-.24.38.38,0,0,0-.39.1,2.47,2.47,0,0,0,0,1.61,9.53,9.53,0,0,0-3-3.27c-.85-.52-2.37-1.17-3.43-.47-1.61,1.07-1.07,4,1.14,4.68a.29.29,0,0,0,.26-.07l.19-.18c.14-.14-.09-.33-.3-.16-.42.35-1.43-1.47-1.46-1.6a2.32,2.32,0,0,1,.23-2.07c1-1.31,3.14.12,3.91.79,1.21,1,1.56,2.17,2.51,3.24.15.17.54.16.58,0,.15-.71-.36-1.42-.18-2.12.63.28,1.61.78,2,.26.18-.25-.21-.55-.09-.81s.13-.16.7-.07a1.74,1.74,0,0,0,.63,0,.83.83,0,0,0,.53-.32c.48-.55-.07-1.12,1.16-1.45a7.41,7.41,0,0,0,1.88-.44l.16-.09.36.16a2.41,2.41,0,0,0,2.83-.32Zm-3.39-.35a7.68,7.68,0,0,1-.85-.63,1.89,1.89,0,0,1-.84-1.57.7.7,0,0,1,.83-.53h0a.88.88,0,0,1,.27.13,2.28,2.28,0,0,1,1,1.6,1.2,1.2,0,0,1-.36,1Z" transform="translate(0 0)" style="fill:#354952"/><g id="freepik--speech-bubble--inject-2"><g id="freepik--speech-bubble--inject-2-2"><g id="freepik--speech-bubble--inject-2-3"><path id="Path_7825" data-name="Path 7825" d="M148.59,79.13l-1-3.72c.45-2.14-8.26,2.9-8.71,5L141.65,88a1.21,1.21,0,0,0,.47.55c.63.38,4.77,2.74,5,2.86a1.21,1.21,0,0,0,1.67-.4h0a1,1,0,0,0,.12-.27l3.64-12.47C152.8,77.21,150.75,77.91,148.59,79.13Z" transform="translate(0 0)" style="fill:#c5c800"/><path id="Path_7826" data-name="Path 7826" d="M148.59,79.13l-1-3.72c.45-2.14-8.26,2.9-8.71,5L141.65,88a1.21,1.21,0,0,0,.47.55c.63.38,4.77,2.74,5,2.86a1.21,1.21,0,0,0,1.67-.4h0a1,1,0,0,0,.12-.27l3.64-12.47C152.8,77.21,150.75,77.91,148.59,79.13Z" transform="translate(0 0)" style="fill:#fff;opacity:0.20000000298023224;isolation:isolate"/><path id="Path_7827" data-name="Path 7827" d="M158.54,27.28,125.42,46.37a2.51,2.51,0,0,0-1.12,1.94V87.57a2.44,2.44,0,0,0,1.13,1.93l3.94,2.24a2.51,2.51,0,0,0,2.24,0l33.11-19.13a2.51,2.51,0,0,0,1.12-1.94V31.42a2.42,2.42,0,0,0-1.12-1.93l-3.91-2.21A2.51,2.51,0,0,0,158.54,27.28Z" transform="translate(0 0)" style="fill:#c5c800"/><path id="Path_7828" data-name="Path 7828" d="M158.54,27.28,125.42,46.37a2.51,2.51,0,0,0-1.12,1.94V87.57a2.44,2.44,0,0,0,1.13,1.93l3.94,2.24a2.51,2.51,0,0,0,2.24,0l33.11-19.13a2.51,2.51,0,0,0,1.12-1.94V31.42a2.42,2.42,0,0,0-1.12-1.93l-3.91-2.21A2.51,2.51,0,0,0,158.54,27.28Z" transform="translate(0 0)" style="fill:#fff;opacity:0.20000000298023224;isolation:isolate"/><path id="Path_7829" data-name="Path 7829" d="M164.73,30.77l-33.1,19.12a2.52,2.52,0,0,0-1.12,1.94V91.08c0,.71.51,1,1.12.63l12.67-7.27,2.33,6.46a1.22,1.22,0,0,0,1.6.63,1.19,1.19,0,0,0,.67-.75L152,80l12.75-7.37a2.51,2.51,0,0,0,1.12-1.94V31.42C165.86,30.71,165.36,30.42,164.73,30.77Z" transform="translate(0 0)" style="fill:#c5c800"/><path id="Path_7830" data-name="Path 7830" d="M164.73,30.77l-33.1,19.12a2.52,2.52,0,0,0-1.12,1.94V91.08c0,.71.51,1,1.12.63l12.67-7.27,2.33,6.46a1.22,1.22,0,0,0,1.6.63,1.19,1.19,0,0,0,.67-.75L152,80l12.75-7.37a2.51,2.51,0,0,0,1.12-1.94V31.42C165.86,30.71,165.36,30.42,164.73,30.77Z" transform="translate(0 0)" style="fill:#fff;opacity:0.4000000059604645;isolation:isolate"/><path id="Path_7831" data-name="Path 7831" d="M165.84,31.22c-.09-.57-.55-.77-1.11-.45L131.62,49.89a2.31,2.31,0,0,0-.79.84l-6.17-3.55a2.24,2.24,0,0,1,.77-.8l33.12-19.1a2.51,2.51,0,0,1,2.25,0l3.91,2.21A2.51,2.51,0,0,1,165.84,31.22Z" transform="translate(0 0)" style="fill:#fff;opacity:0.699999988079071;isolation:isolate"/></g></g></g><g id="freepik--speech-bubble--inject-2-4"><g id="freepik--speech-bubble--inject-2-5"><g id="freepik--speech-bubble--inject-2-6"><path id="Path_7825-2" data-name="Path 7825-2" d="M195.7,52.13l-1-3.72c.45-2.14-8.26,2.9-8.71,5L188.75,61a1.21,1.21,0,0,0,.47.55c.63.38,4.77,2.74,5,2.86a1.21,1.21,0,0,0,1.67-.4h0a1,1,0,0,0,.12-.27l3.64-12.47C199.9,50.21,197.85,50.9,195.7,52.13Z" transform="translate(0 0)" style="fill:#c5c800"/><path id="Path_7826-2" data-name="Path 7826-2" d="M195.7,52.13l-1-3.72c.45-2.14-8.26,2.9-8.71,5L188.75,61a1.21,1.21,0,0,0,.47.55c.63.38,4.77,2.74,5,2.86a1.21,1.21,0,0,0,1.67-.4h0a1,1,0,0,0,.12-.27l3.64-12.47C199.9,50.21,197.85,50.9,195.7,52.13Z" transform="translate(0 0)" style="fill:#fff;opacity:0.20000000298023224;isolation:isolate"/><path id="Path_7827-2" data-name="Path 7827-2" d="M205.65.27,172.53,19.37a2.51,2.51,0,0,0-1.12,1.94V60.57a2.44,2.44,0,0,0,1.13,1.93l3.94,2.24a2.51,2.51,0,0,0,2.24,0L211.84,45.6A2.51,2.51,0,0,0,213,43.66V4.41a2.42,2.42,0,0,0-1.12-1.93L207.92.27A2.51,2.51,0,0,0,205.65.27Z" transform="translate(0 0)" style="fill:#c5c800"/><path id="Path_7828-2" data-name="Path 7828-2" d="M205.65.27,172.53,19.37a2.51,2.51,0,0,0-1.12,1.94V60.57a2.44,2.44,0,0,0,1.13,1.93l3.94,2.24a2.51,2.51,0,0,0,2.24,0L211.84,45.6A2.51,2.51,0,0,0,213,43.66V4.41a2.42,2.42,0,0,0-1.12-1.93L207.92.27A2.51,2.51,0,0,0,205.65.27Z" transform="translate(0 0)" style="fill:#fff;opacity:0.20000000298023224;isolation:isolate"/><path id="Path_7829-2" data-name="Path 7829-2" d="M211.83,3.76l-33.1,19.12a2.52,2.52,0,0,0-1.12,1.94V64.07c0,.71.51,1,1.12.63l12.67-7.27,2.33,6.46a1.22,1.22,0,0,0,1.6.63,1.19,1.19,0,0,0,.67-.75L199.08,53l12.75-7.37a2.51,2.51,0,0,0,1.12-1.94V4.41C213,3.7,212.46,3.41,211.83,3.76Z" transform="translate(0 0)" style="fill:#c5c800"/><path id="Path_7830-2" data-name="Path 7830-2" d="M211.83,3.76l-33.1,19.12a2.52,2.52,0,0,0-1.12,1.94V64.07c0,.71.51,1,1.12.63l12.67-7.27,2.33,6.46a1.22,1.22,0,0,0,1.6.63,1.19,1.19,0,0,0,.67-.75L199.08,53l12.75-7.37a2.51,2.51,0,0,0,1.12-1.94V4.41C213,3.7,212.46,3.41,211.83,3.76Z" transform="translate(0 0)" style="fill:#fff;opacity:0.4000000059604645;isolation:isolate"/><path id="Path_7831-2" data-name="Path 7831-2" d="M212.94,4.21c-.09-.57-.55-.77-1.11-.45L178.72,22.88a2.31,2.31,0,0,0-.79.84l-6.17-3.55a2.24,2.24,0,0,1,.77-.8L205.65.27a2.51,2.51,0,0,1,2.25,0l3.91,2.21A2.51,2.51,0,0,1,212.94,4.21Z" transform="translate(0 0)" style="fill:#fff;opacity:0.699999988079071;isolation:isolate"/></g><path id="freepik--Check--inject-2" d="M203.41,18.07a2.47,2.47,0,0,0-3.22,1.31l-9.27,22.08-2.21-2.15a2.46,2.46,0,0,0-3.46,3.49l0,0,4.79,4.66a2.45,2.45,0,0,0,1.71.69,1.82,1.82,0,0,0,.49,0,2.44,2.44,0,0,0,1.78-1.45l10.68-25.4a2.46,2.46,0,0,0-1.32-3.21h0Z" transform="translate(0 0)" style="fill:#fff"/></g></g><g id="freepik--Sheets--inject-2"><g id="freepik--Papers--inject-2"><g id="freepik--sheets--inject-2-2"><path id="freepik--shadow--inject-2-6" d="M7.34,181.66l86.17-49.74,115,66.52-86.16,49.74Z" transform="translate(0 0)" style="fill:#040405;opacity:0.15000000596046448;isolation:isolate"/><g id="freepik--sheets--inject-2-3"><g id="freepik--Character--inject-2"><path id="Path_7832" data-name="Path 7832" d="M14.72,181.33l107.61,62.25V204.64L14.72,142.38Z" transform="translate(0 0)" style="fill:#d8d8d8"/><path id="Path_7833" data-name="Path 7833" d="M201.16,198.1l-78.82,45.48V204.64l78.82-45.49Z" transform="translate(0 0)" style="fill:#e7e6e6"/><path id="Path_7834" data-name="Path 7834" d="M14.72,142.38,93.51,96.93l107.65,62.22-78.82,45.49Z" transform="translate(0 0)" style="fill:#f2f1f2"/></g><path id="Path_7835" data-name="Path 7835" d="M66.94,185.16l55.4,30.47L155,196.79l-32.66,20.8Z" transform="translate(0 0)" style="fill:#040405;opacity:0.10000000149011612;isolation:isolate"/><path id="Path_7836" data-name="Path 7836" d="M35.26,183.75l87.08,49,54.86-33-54.85,34.92Z" transform="translate(0 0)" style="fill:#040405;opacity:0.10000000149011612;isolation:isolate"/><path id="Path_7837" data-name="Path 7837" d="M23.29,153s-1.8,10.17-.9,15.32c0,0,14.25-.35,38.31,6.28Z" transform="translate(0 0)" style="fill:#040405;opacity:0.10000000149011612;isolation:isolate"/><path id="Path_7838" data-name="Path 7838" d="M23.29,153l37.41,21.6L19.31,162.7Z" transform="translate(0 0)" style="fill:#fff"/><path id="Path_7839" data-name="Path 7839" d="M51,182.51,92,220.2s1.15-5.18,9-8.79Z" transform="translate(0 0)" style="fill:#040405;opacity:0.10000000149011612;isolation:isolate"/><path id="Path_7840" data-name="Path 7840" d="M51,182.51l38.52,32.43L101,211.39Z" transform="translate(0 0)" style="fill:#fbfbfb"/><path id="Path_7841" data-name="Path 7841" d="M187,173.85c-.21-.33-.35-.51-.35-.51l-25.93,15,29.17-2.4C190.91,180.49,188,175.44,187,173.85Z" transform="translate(0 0)" style="fill:#040405;opacity:0.10000000149011612;isolation:isolate"/><path id="Path_7842" data-name="Path 7842" d="M160.73,188.3l25.92-15,8.63,4.55Z" transform="translate(0 0)" style="fill:#fbfbfb"/></g><path id="Path_7843" data-name="Path 7843" d="M14.72,142.38l107.62,59.79,78.82-43-78.83,41.41Z" transform="translate(0 0)" style="fill:#d8d8d8"/><path id="Path_7844" data-name="Path 7844" d="M14.72,142.38l107.62,58.18,78.82-41.41L93.51,96.93Z" transform="translate(0 0)" style="fill:#fff"/><path id="Path_7845" data-name="Path 7845" d="M93.51,97.56,200,159.11l-77.61,40.82L15.88,142.37,93.51,97.56m0-.63-78.8,45.45,107.63,58.18,78.82-41.41Z" transform="translate(0 0)" style="fill:#e1e0e0"/></g><path id="Path_7854" data-name="Path 7854" d="M90.07,116.61l-39.85,23,1.09.63,39.85-23Z" transform="translate(0 0)" style="fill:#c5c800"/><path id="Path_7856" data-name="Path 7856" d="M106.74,112.47,43.07,149.23l-1.19-.68,63.67-36.76Z" transform="translate(0 0)" style="fill:#d8d8d8"/><path id="Path_7857" data-name="Path 7857" d="M109.58,114.11,45.92,150.87l-1.19-.69,63.67-36.75Z" transform="translate(0 0)" style="fill:#d8d8d8"/><path id="Path_7858" data-name="Path 7858" d="M112.42,115.77,48.75,152.51l-1.19-.69,63.67-36.76Z" transform="translate(0 0)" style="fill:#d8d8d8"/><path id="Path_7859" data-name="Path 7859" d="M133.67,128,70,164.76l-1.19-.68,63.67-36.76Z" transform="translate(0 0)" style="fill:#d8d8d8"/><path id="Path_7860" data-name="Path 7860" d="M136.5,129.66,72.83,166.42l-1.19-.69L135.32,129Z" transform="translate(0 0)" style="fill:#d8d8d8"/><path id="Path_7861" data-name="Path 7861" d="M139.34,131.3,75.67,168.05l-1.19-.68,63.67-36.76Z" transform="translate(0 0)" style="fill:#d8d8d8"/><path id="Path_7862" data-name="Path 7862" d="M180.3,154.94l-62.31,36-1.19-.69,62.31-36Z" transform="translate(0 0)" style="fill:#d8d8d8"/><path id="Path_7863" data-name="Path 7863" d="M183.13,156.59l-62.31,36-1.19-.69,62.32-36Z" transform="translate(0 0)" style="fill:#d8d8d8"/><path id="Path_7864" data-name="Path 7864" d="M61.69,151.16l-7.64,4.4-3-1.73,7.64-4.4Z" transform="translate(0 0)" style="fill:#c5c800"/><path id="Path_7865" data-name="Path 7865" d="M71,145.77l-7.64,4.4-3-1.74L68,144Z" transform="translate(0 0)" style="fill:#c5c800"/><path id="Path_7866" data-name="Path 7866" d="M80.36,140.37l-7.64,4.4-3-1.74,7.64-4.4Z" transform="translate(0 0)" style="fill:#c5c800"/><path id="Path_7867" data-name="Path 7867" d="M89.7,135l-7.64,4.4-3-1.74,7.64-4.4Z" transform="translate(0 0)" style="fill:#c5c800"/><path id="Path_7868" data-name="Path 7868" d="M99,129.59,91.4,134l-3-1.74,7.64-4.4Z" transform="translate(0 0)" style="fill:#c5c800"/><path id="Path_7869" data-name="Path 7869" d="M108.38,124.21l-7.64,4.4-3-1.74,7.64-4.4Z" transform="translate(0 0)" style="fill:#c5c800"/><path id="Path_7870" data-name="Path 7870" d="M65.63,153.45,58,157.85l-3-1.74,7.64-4.4Z" transform="translate(0 0)" style="fill:#ececec"/><path id="Path_7871" data-name="Path 7871" d="M75,148l-7.64,4.4-3-1.74,7.64-4.4Z" transform="translate(0 0)" style="fill:#d8d8d8"/><path id="Path_7872" data-name="Path 7872" d="M84.34,142.65l-7.64,4.4-3-1.74,7.64-4.4Z" transform="translate(0 0)" style="fill:#ececec"/><path id="Path_7873" data-name="Path 7873" d="M93.65,137.26,86,141.66l-3-1.74,7.64-4.4Z" transform="translate(0 0)" style="fill:#ececec"/><path id="Path_7874" data-name="Path 7874" d="M103,131.87l-7.64,4.4-3-1.74,7.64-4.4Z" transform="translate(0 0)" style="fill:#ececec"/><path id="Path_7875" data-name="Path 7875" d="M112.32,126.48l-7.64,4.4-3-1.74,7.64-4.4Z" transform="translate(0 0)" style="fill:#d8d8d8"/><path id="Path_7876" data-name="Path 7876" d="M121.66,121.09l-7.64,4.4-3-1.74,7.64-4.4Z" transform="translate(0 0)" style="fill:#ececec"/><path id="Path_7877" data-name="Path 7877" d="M69.57,155.71l-7.64,4.4-3-1.74,7.64-4.4Z" transform="translate(0 0)" style="fill:#ececec"/><path id="Path_7878" data-name="Path 7878" d="M78.91,150.31l-7.64,4.4-3-1.74,7.64-4.4Z" transform="translate(0 0)" style="fill:#ececec"/><path id="Path_7879" data-name="Path 7879" d="M88.25,144.93l-7.64,4.4-3-1.74,7.64-4.4Z" transform="translate(0 0)" style="fill:#ececec"/><path id="Path_7880" data-name="Path 7880" d="M97.59,139.54,90,143.94l-3-1.74,7.64-4.4Z" transform="translate(0 0)" style="fill:#d8d8d8"/><path id="Path_7881" data-name="Path 7881" d="M106.95,134.15l-7.64,4.4-3-1.73,7.64-4.4Z" transform="translate(0 0)" style="fill:#ececec"/><path id="Path_7882" data-name="Path 7882" d="M116.26,128.75l-7.64,4.4-3-1.74,7.64-4.4Z" transform="translate(0 0)" style="fill:#ececec"/><path id="Path_7883" data-name="Path 7883" d="M125.6,123.36l-7.64,4.4L115,126l7.64-4.4Z" transform="translate(0 0)" style="fill:#ececec"/><path id="Path_7884" data-name="Path 7884" d="M73.52,158l-7.64,4.4-3-1.74,7.64-4.4Z" transform="translate(0 0)" style="fill:#ececec"/><path id="Path_7885" data-name="Path 7885" d="M82.86,152.6,75.22,157l-3-1.74,7.64-4.4Z" transform="translate(0 0)" style="fill:#d8d8d8"/><path id="Path_7886" data-name="Path 7886" d="M92.2,147.2l-7.64,4.4-3-1.74,7.64-4.4Z" transform="translate(0 0)" style="fill:#ececec"/><path id="Path_7887" data-name="Path 7887" d="M101.53,141.82l-7.64,4.4-3-1.74,7.64-4.4Z" transform="translate(0 0)" style="fill:#ececec"/><path id="Path_7888" data-name="Path 7888" d="M110.87,136.42l-7.64,4.4-3-1.74,7.64-4.4Z" transform="translate(0 0)" style="fill:#d8d8d8"/><path id="Path_7889" data-name="Path 7889" d="M120.21,131l-7.64,4.4-3-1.74,7.64-4.4Z" transform="translate(0 0)" style="fill:#ececec"/><path id="Path_7890" data-name="Path 7890" d="M129.56,125.64l-7.64,4.4-3-1.71,7.64-4.4Z" transform="translate(0 0)" style="fill:#ececec"/><path id="Path_7891" data-name="Path 7891" d="M61.69,151.16l-7.64,4.4-3-1.73,7.64-4.4Z" transform="translate(0 0)" style="fill:#c5c800"/><path id="Path_7892" data-name="Path 7892" d="M71,145.77l-7.64,4.4-3-1.74L68,144Z" transform="translate(0 0)" style="fill:#c5c800"/><path id="Path_7893" data-name="Path 7893" d="M80.36,140.37l-7.64,4.4-3-1.74,7.64-4.4Z" transform="translate(0 0)" style="fill:#c5c800"/><path id="Path_7894" data-name="Path 7894" d="M89.7,135l-7.64,4.4-3-1.74,7.64-4.4Z" transform="translate(0 0)" style="fill:#c5c800"/><path id="Path_7895" data-name="Path 7895" d="M99,129.59,91.4,134l-3-1.74,7.64-4.4Z" transform="translate(0 0)" style="fill:#c5c800"/><path id="Path_7896" data-name="Path 7896" d="M108.38,124.21l-7.64,4.4-3-1.74,7.64-4.4Z" transform="translate(0 0)" style="fill:#c5c800"/><path id="Path_7897" data-name="Path 7897" d="M117.72,118.81l-7.64,4.4-3-1.74,7.64-4.4Z" transform="translate(0 0)" style="fill:#c5c800"/><g id="Group_30924" data-name="Group 30924" style="opacity:0.30000001192092896"><path id="Path_7898" data-name="Path 7898" d="M61.69,151.16l-7.64,4.4-3-1.73,7.64-4.4Z" transform="translate(0 0)" style="fill:#fff"/><path id="Path_7899" data-name="Path 7899" d="M71,145.77l-7.64,4.4-3-1.74L68,144Z" transform="translate(0 0)" style="fill:#fff"/><path id="Path_7900" data-name="Path 7900" d="M80.36,140.37l-7.64,4.4-3-1.74,7.64-4.4Z" transform="translate(0 0)" style="fill:#fff"/><path id="Path_7901" data-name="Path 7901" d="M89.7,135l-7.64,4.4-3-1.74,7.64-4.4Z" transform="translate(0 0)" style="fill:#fff"/><path id="Path_7902" data-name="Path 7902" d="M99,129.59,91.4,134l-3-1.74,7.64-4.4Z" transform="translate(0 0)" style="fill:#fff"/><path id="Path_7903" data-name="Path 7903" d="M108.38,124.21l-7.64,4.4-3-1.74,7.64-4.4Z" transform="translate(0 0)" style="fill:#fff"/><path id="Path_7904" data-name="Path 7904" d="M117.72,118.81l-7.64,4.4-3-1.74,7.64-4.4Z" transform="translate(0 0)" style="fill:#fff"/></g><path id="Path_7905" data-name="Path 7905" d="M124.47,158.88l-13.82-8c5.68-3.24,14.83-3.88,22.19-1.71,9.1,2.69,13.43,9.46,9,14.8Z" transform="translate(0 0)" style="fill:#c5c800"/><g id="Group_30925" data-name="Group 30925" style="opacity:0.2199999988079071"><path id="Path_7906" data-name="Path 7906" d="M124.47,158.88l-13.82-8c5.68-3.24,14.83-3.88,22.19-1.71,9.1,2.69,13.43,9.46,9,14.8Z" transform="translate(0 0)" style="fill:#055485"/></g><path id="Path_7907" data-name="Path 7907" d="M137.19,167a20.53,20.53,0,0,1-3.92,1.71l-7.15-8.1,14,4.14a13.49,13.49,0,0,1-3,2.25Z" transform="translate(0 0)" style="fill:#c5c800"/><g id="Group_30926" data-name="Group 30926" style="opacity:0.20000000298023224"><path id="Path_7908" data-name="Path 7908" d="M137.19,167a20.53,20.53,0,0,1-3.92,1.71l-7.15-8.1,14,4.14a13.49,13.49,0,0,1-3,2.25Z" transform="translate(0 0)" style="fill:#040405"/></g><path id="Path_7909" data-name="Path 7909" d="M132,169.73a31.9,31.9,0,0,1-16.17,0l8.1-9.15Z" transform="translate(0 0)" style="fill:#c5c800"/><path id="Path_7910" data-name="Path 7910" d="M114.52,168.71a20.74,20.74,0,0,1-3.89-1.72c-7.08-4.09-7.3-10.68-.67-14.91l12.74,7.36Z" transform="translate(0 0)" style="fill:#c5c800"/><g id="Group_30927" data-name="Group 30927" style="opacity:0.30000001192092896"><path id="Path_7911" data-name="Path 7911" d="M114.52,168.71a20.74,20.74,0,0,1-3.89-1.72c-7.08-4.09-7.3-10.68-.67-14.91l12.74,7.36Z" transform="translate(0 0)" style="fill:#fff"/></g><path id="Path_7912" data-name="Path 7912" d="M129,151.14a.14.14,0,0,1-.13-.12.13.13,0,0,1,.07-.12l.93-.54a.13.13,0,0,1,.18,0h0a.14.14,0,0,1,0,.19h0l-.93.54Zm1.88-1.07a.15.15,0,0,1-.14-.13.13.13,0,0,1,.07-.12l.93-.53a.14.14,0,0,1,.2.2l-.05,0L131,150h-.09Zm1.88-1.07a.13.13,0,0,1-.13-.14h0a.12.12,0,0,1,.06-.11l.93-.54a.13.13,0,0,1,.18,0h0a.13.13,0,0,1,0,.17h0l-.93.53a.12.12,0,0,1-.11,0Zm1.88-1.07a.14.14,0,0,1-.12-.15h0a.15.15,0,0,1,.06-.1l.94-.54a.13.13,0,0,1,.18,0h0a.14.14,0,0,1,0,.19h0l-.93.54a.16.16,0,0,1-.13,0Zm1.88-1.07a.14.14,0,0,1-.14-.12.13.13,0,0,1,.08-.13l.93-.54a.14.14,0,0,1,.17.09.14.14,0,0,1,0,.15l-.94.54a.12.12,0,0,1-.14,0Z" transform="translate(0 0)" style="fill:#354952"/><path id="Path_7913" data-name="Path 7913" d="M100.28,166.64a.14.14,0,0,1-.12-.15h0a.15.15,0,0,1,.06-.1l.94-.54a.13.13,0,0,1,.18,0h0a.14.14,0,0,1,0,.19h0l-.92.54h-.07Zm1.88-1.08a.13.13,0,0,1-.07-.24l.93-.54a.14.14,0,0,1,.14.23l-.94.54h-.06Zm1.88-1.07a.14.14,0,0,1-.11-.06.13.13,0,0,1,0-.18h0l.93-.53a.13.13,0,0,1,.18,0h0a.13.13,0,0,1,0,.18h0l-.93.53a.12.12,0,0,1-.11,0Zm1.88-1.07a.14.14,0,0,1-.14-.12.13.13,0,0,1,.08-.13l.93-.54a.13.13,0,0,1,.18,0h0a.14.14,0,0,1,0,.19l-.94.53a.13.13,0,0,1-.12,0Zm1.88-1.07a.13.13,0,0,1-.12-.14h0a.12.12,0,0,1,.06-.11l.93-.54a.13.13,0,0,1,.18,0h0a.14.14,0,0,1,0,.19h0l-.93.54a.13.13,0,0,1-.16,0Z" transform="translate(0 0)" style="fill:#354952"/><path id="Path_7914" data-name="Path 7914" d="M127.6,151.82c-.28-.16-.28-.42,0-.58a1.13,1.13,0,0,1,1,0,.31.31,0,0,1,.2.39h0a.32.32,0,0,1-.2.2A1.13,1.13,0,0,1,127.6,151.82Z" transform="translate(0 0)" style="fill:#354952"/><path id="Path_7915" data-name="Path 7915" d="M108.72,161.62a.31.31,0,0,1,0-.58,1.13,1.13,0,0,1,1,0,.31.31,0,0,1,.2.39h0a.33.33,0,0,1-.2.2A1.09,1.09,0,0,1,108.72,161.62Z" transform="translate(0 0)" style="fill:#354952"/><path id="Path_7916" data-name="Path 7916" d="M135.32,166.51a.31.31,0,0,1-.2-.38.3.3,0,0,1,.2-.2,1.09,1.09,0,0,1,1,0,.31.31,0,0,1,.19.39h0a.32.32,0,0,1-.19.18A1.09,1.09,0,0,1,135.32,166.51Z" transform="translate(0 0)" style="fill:#354952"/><path id="Path_7917" data-name="Path 7917" d="M142,144.66h-.18l-.42-.24-1.06.63h-.18l-.24-.14-.06-.06v-.08l-.27-1.37a.12.12,0,0,1,0-.13l.26-.15h.18l1.37.79.3-.17a.17.17,0,0,1,.19,0l.24.14s0,0,0,.06a.05.05,0,0,1,0,0l-.34.14.42.24a.06.06,0,0,1,0,.06.05.05,0,0,1,0,0Zm-1-.49-.73-.42.15.76Z" transform="translate(0 0)" style="fill:#c5c800"/><path id="Path_7918" data-name="Path 7918" d="M140.93,142.61a.1.1,0,0,1,0,0s0,0,0-.06l1.26-.74a.17.17,0,0,1,.19,0l.24.14a.06.06,0,0,1,0,.11l-1,.56.4.27a.4.4,0,0,1,.14-.13l.14-.09a1.79,1.79,0,0,1,.41-.18,1.76,1.76,0,0,1,.43-.08,1.71,1.71,0,0,1,.44,0,1.34,1.34,0,0,1,.41.16.84.84,0,0,1,.3.26.34.34,0,0,1,.07.26.49.49,0,0,1-.14.25,1.6,1.6,0,0,1-.31.23,2,2,0,0,1-.89.28,2,2,0,0,1-.39,0,1.48,1.48,0,0,1-.32-.11.06.06,0,0,1,0-.06.05.05,0,0,1,0,0l.28-.16a.09.09,0,0,1,.08,0h.11l.19,0h.18l.18,0,.16-.08c.13-.08.2-.16.21-.24a.27.27,0,0,0-.17-.24.63.63,0,0,0-.38-.08,1,1,0,0,0-.42.12.58.58,0,0,0-.14.11l-.06.08v.06l-.07,0-.32.18H142Z" transform="translate(0 0)" style="fill:#c5c800"/><path id="Path_7919" data-name="Path 7919" d="M143.22,141.16a.83.83,0,0,1,.26-.11l.25,0a.71.71,0,0,1,.23,0,.65.65,0,0,1,.2.06l.2.11.18.11a.47.47,0,0,1,.11.11.18.18,0,0,1,0,.14.27.27,0,0,1-.06.14.46.46,0,0,1-.18.14.84.84,0,0,1-.26.11.79.79,0,0,1-.25,0h-.23l-.2-.07-.2-.11-.18-.11-.12-.11a.2.2,0,0,1,0-.13.28.28,0,0,1,.06-.14A.63.63,0,0,1,143.22,141.16Zm1,.34-.06,0-.09,0-.09-.06-.07,0-.16,0a.28.28,0,0,0-.18,0c-.07,0-.1.08-.09.11a.2.2,0,0,0,.07.09l.07,0,.09.06.09,0,.07,0a.39.39,0,0,0,.16,0,.34.34,0,0,0,.18,0c.07,0,.09-.08.09-.11a.12.12,0,0,0-.07-.07Zm.5-1.09v-.06l.06,0,.21-.12h.15l.53,2.26a.09.09,0,0,1,0,.06l0,0-.21.12h-.11Zm1.23.58a1,1,0,0,1,.26-.11l.26,0a.71.71,0,0,1,.23,0,.62.62,0,0,1,.2.07l.2.1.18.12a.32.32,0,0,1,.12.11.18.18,0,0,1,0,.14.22.22,0,0,1-.06.14.63.63,0,0,1-.18.15,1,1,0,0,1-.26.1.79.79,0,0,1-.25,0h-.23l-.2-.07-.2-.1-.18-.12a.36.36,0,0,1-.11-.11.22.22,0,0,1,0-.13.28.28,0,0,1,.07-.14.5.5,0,0,1,.17-.17Zm1,.35-.06,0-.09,0-.09-.06-.07,0a.33.33,0,0,0-.16,0,.3.3,0,0,0-.19,0c-.06,0-.09.08-.09.11a.21.21,0,0,0,.07.09l.06,0,.09,0,.09,0,.07,0,.16,0a.32.32,0,0,0,.19-.06c.06,0,.09-.07.09-.11a.11.11,0,0,0,0-.09Z" transform="translate(0 0)" style="fill:#c5c800"/><g id="Group_30928" data-name="Group 30928" style="opacity:0.6000000238418579"><path id="Path_7920" data-name="Path 7920" d="M142,144.66h-.18l-.42-.24-1.06.63h-.18l-.24-.14-.06-.06v-.08l-.27-1.37a.12.12,0,0,1,0-.13l.26-.15h.18l1.37.79.3-.17a.17.17,0,0,1,.19,0l.24.14s0,0,0,.06a.05.05,0,0,1,0,0l-.34.14.42.24a.06.06,0,0,1,0,.06.05.05,0,0,1,0,0Zm-1-.49-.73-.42.15.76Z" transform="translate(0 0)" style="fill:#fff"/><path id="Path_7921" data-name="Path 7921" d="M140.93,142.61a.1.1,0,0,1,0,0s0,0,0-.06l1.26-.74a.17.17,0,0,1,.19,0l.24.14a.06.06,0,0,1,0,.11l-1,.56.4.27a.4.4,0,0,1,.14-.13l.14-.09a1.79,1.79,0,0,1,.41-.18,1.76,1.76,0,0,1,.43-.08,1.71,1.71,0,0,1,.44,0,1.34,1.34,0,0,1,.41.16.84.84,0,0,1,.3.26.34.34,0,0,1,.07.26.49.49,0,0,1-.14.25,1.6,1.6,0,0,1-.31.23,2,2,0,0,1-.89.28,2,2,0,0,1-.39,0,1.48,1.48,0,0,1-.32-.11.06.06,0,0,1,0-.06.05.05,0,0,1,0,0l.28-.16a.09.09,0,0,1,.08,0h.11l.19,0h.18l.18,0,.16-.08c.13-.08.2-.16.21-.24a.27.27,0,0,0-.17-.24.63.63,0,0,0-.38-.08,1,1,0,0,0-.42.12.58.58,0,0,0-.14.11l-.06.08v.06l-.07,0-.32.18H142Z" transform="translate(0 0)" style="fill:#fff"/><path id="Path_7922" data-name="Path 7922" d="M143.22,141.16a.83.83,0,0,1,.26-.11l.25,0a.71.71,0,0,1,.23,0,.65.65,0,0,1,.2.06l.2.11.18.11a.47.47,0,0,1,.11.11.18.18,0,0,1,0,.14.27.27,0,0,1-.06.14.46.46,0,0,1-.18.14.84.84,0,0,1-.26.11.79.79,0,0,1-.25,0h-.23l-.2-.07-.2-.11-.18-.11-.12-.11a.2.2,0,0,1,0-.13.28.28,0,0,1,.06-.14A.63.63,0,0,1,143.22,141.16Zm1,.34-.06,0-.09,0-.09-.06-.07,0-.16,0a.28.28,0,0,0-.18,0c-.07,0-.1.08-.09.11a.2.2,0,0,0,.07.09l.07,0,.09.06.09,0,.07,0a.39.39,0,0,0,.16,0,.34.34,0,0,0,.18,0c.07,0,.09-.08.09-.11a.12.12,0,0,0-.07-.07Zm.5-1.09v-.06l.06,0,.21-.12h.15l.53,2.26a.09.09,0,0,1,0,.06l0,0-.21.12h-.11Zm1.23.58a1,1,0,0,1,.26-.11l.26,0a.71.71,0,0,1,.23,0,.62.62,0,0,1,.2.07l.2.1.18.12a.32.32,0,0,1,.12.11.18.18,0,0,1,0,.14.22.22,0,0,1-.06.14.63.63,0,0,1-.18.15,1,1,0,0,1-.26.1.79.79,0,0,1-.25,0h-.23l-.2-.07-.2-.1-.18-.12a.36.36,0,0,1-.11-.11.21.21,0,0,1,0-.13.28.28,0,0,1,.07-.14.5.5,0,0,1,.17-.17Zm1,.35-.06,0-.09,0-.09-.06-.07,0a.33.33,0,0,0-.16,0,.3.3,0,0,0-.19,0c-.06,0-.09.08-.09.11a.21.21,0,0,0,.07.09l.06,0,.09,0,.09,0,.07,0,.16,0a.32.32,0,0,0,.19-.06c.06,0,.09-.07.09-.11a.11.11,0,0,0,0-.09Z" transform="translate(0 0)" style="fill:#fff"/></g><path id="Path_7923" data-name="Path 7923" d="M142.27,147.56h.09l.11.07h0l-.71.41h-.09l-1.05-.63h0l.13-.08h.12l.9.52Z" transform="translate(0 0)" style="fill:#d8d8d8"/><path id="Path_7924" data-name="Path 7924" d="M141.87,147.17l-.14-.12a.34.34,0,0,1,0-.13.33.33,0,0,1,0-.14.62.62,0,0,1,.18-.14,1,1,0,0,1,.24-.1.81.81,0,0,1,.24,0,.72.72,0,0,1,.23,0l.21.08.07,0,.08,0,.08,0,.06,0a.42.42,0,0,1,.14.12.15.15,0,0,1,0,.13.19.19,0,0,1,0,.14.55.55,0,0,1-.18.14,1,1,0,0,1-.24.1h-.46l-.21-.08-.08,0-.08,0-.07,0Zm.75-.43a.44.44,0,0,0-.26-.06.53.53,0,0,0-.25.07c-.08,0-.11.09-.11.14a.14.14,0,0,0,.11.15l.14.08.14.08a.57.57,0,0,0,.26.06.52.52,0,0,0,.25-.07A.23.23,0,0,0,143,147a.19.19,0,0,0-.11-.14l-.14-.08Z" transform="translate(0 0)" style="fill:#d8d8d8"/><path id="Path_7925" data-name="Path 7925" d="M143.13,146a.74.74,0,0,1,.4-.13.68.68,0,0,1,.37.09.26.26,0,0,1,.14.15.14.14,0,0,1,0,.16l.63.11h0l-.14.08h-.12l-.63-.1-.21.13.38.22h0l-.13.08h-.09l-1.05-.63h0Zm.26.43.24-.13a.27.27,0,0,0,.12-.11.11.11,0,0,0-.07-.11.29.29,0,0,0-.18,0,.53.53,0,0,0-.18.07l-.24.14Z" transform="translate(0 0)" style="fill:#d8d8d8"/><path id="Path_7926" data-name="Path 7926" d="M145.44,145.72h.09l.12.07h0l-.72.41h-.08l-1.05-.63h0l.7-.41h.09l.11.07h0l-.53.3.26.15.49-.28H145l.11.07h0l-.49.28.27.16Z" transform="translate(0 0)" style="fill:#d8d8d8"/><path id="Path_7927" data-name="Path 7927" d="M145.89,145.07l-.23-.5v0l.11-.06h.09l1,.63h0l-.13.08h-.09l-.63-.37.16.34h0v0l-.08,0H146l-.58-.09.63.37h0l-.13.08h-.09l-1.05-.63h0l.11-.06H145Z" transform="translate(0 0)" style="fill:#d8d8d8"/><path id="Path_7928" data-name="Path 7928" d="M147.63,144.69h-.09l-1.05-.63.13-.08h.09l1,.63h0Z" transform="translate(0 0)" style="fill:#d8d8d8"/><path id="Path_7929" data-name="Path 7929" d="M147.41,143.49a.84.84,0,0,1,.4-.12.67.67,0,0,1,.38.09c.12.07.18.15.17.23s-.08.16-.21.23l-.26.15.37.21h0l-.14.08a.11.11,0,0,1-.09,0l-1-.63h0Zm.27.46.25-.14a.26.26,0,0,0,.11-.11s0-.08-.08-.11a.23.23,0,0,0-.18,0,.41.41,0,0,0-.18.07l-.25.14Z" transform="translate(0 0)" style="fill:#d8d8d8"/><path id="Path_7930" data-name="Path 7930" d="M148.4,142.93a.87.87,0,0,1,.23-.09l.21,0H149l.13,0v0h0l-.11.06h-.23a.39.39,0,0,0-.18.07l-.08,0,0,.06v0l0,0h.16l.13,0,.18-.06.22-.07.19,0h.16a.27.27,0,0,1,.14.06.18.18,0,0,1,.11.09.13.13,0,0,1,0,.12.24.24,0,0,1-.08.13.83.83,0,0,1-.17.13.62.62,0,0,1-.2.09l-.21,0H149l-.18,0h0l.12-.06h.35l.11,0,.09-.06.06-.06a.08.08,0,0,0,0-.06,0,0,0,0,0,0,0h-.19l-.14,0-.2.07-.2.06h-.32l-.15-.06a.29.29,0,0,1-.1-.09.34.34,0,0,1,0-.11.38.38,0,0,1,.07-.12l.12-.12Z" transform="translate(0 0)" style="fill:#d8d8d8"/><path id="Path_7931" data-name="Path 7931" d="M149.94,142H150l.67.39a.42.42,0,0,1,.16.12.2.2,0,0,1,0,.13.19.19,0,0,1-.06.14.62.62,0,0,1-.17.14l-.24.1-.24,0-.23,0-.22-.09-.67-.39h0l.13-.08h.09l.66.38.14,0h.24l.11,0,.09-.07a.07.07,0,0,0,0-.07.08.08,0,0,0,0-.08.27.27,0,0,0-.09-.08l-.66-.38h0Z" transform="translate(0 0)" style="fill:#d8d8d8"/><path id="Path_7932" data-name="Path 7932" d="M151.35,141.9l-.23-.49h0l0,0,.11-.06h.09l1,.63h0l-.13.08h-.11l-.63-.37.15.34-.08,0h-.07l-.58-.09.63.37h0l-.13.08h-.09l-1.05-.63h0l.11-.06h.11Z" transform="translate(0 0)" style="fill:#d8d8d8"/><path id="Path_7933" data-name="Path 7933" d="M90.84,169.78a.24.24,0,0,1,.19,0l.24.14a.08.08,0,0,1,.05.06v.63a1.45,1.45,0,0,1,.35-.12l.37,0a1.34,1.34,0,0,1,.35,0,1.23,1.23,0,0,1,.32.13.62.62,0,0,1,.24.23.33.33,0,0,1,0,.24.7.7,0,0,1-.15.26,1.41,1.41,0,0,1-.32.24,2.24,2.24,0,0,1-.48.21,2.18,2.18,0,0,1-.44.09,1.87,1.87,0,0,1-.38,0,1.07,1.07,0,0,1-.29-.09s-.05,0-.05,0,0,0,.05-.06l.26-.16h.48l.19,0,.23-.11a.53.53,0,0,0,.25-.24c0-.09,0-.16-.11-.21a.45.45,0,0,0-.35-.06,1.23,1.23,0,0,0-.4.16l-.29.16H91l-.24-.14a.1.1,0,0,1,0-.06v-.63l-.94.55a.24.24,0,0,1-.19,0l-.24-.14a.1.1,0,0,1,0,0s0,0,0-.06Z" transform="translate(0 0)" style="fill:#c5c800"/><path id="Path_7934" data-name="Path 7934" d="M94.14,168.9l.14.08.16.09.16.09.14.08a1.28,1.28,0,0,1,.31.25.42.42,0,0,1,.14.26.35.35,0,0,1-.09.28,1.11,1.11,0,0,1-.35.28,1.71,1.71,0,0,1-.5.21,2,2,0,0,1-.47,0,2.36,2.36,0,0,1-.46-.08,3.15,3.15,0,0,1-.42-.18l-.3-.17-.29-.18a2.06,2.06,0,0,1-.32-.25.51.51,0,0,1-.14-.26.42.42,0,0,1,.08-.28,1.17,1.17,0,0,1,.35-.28,1.91,1.91,0,0,1,.5-.21,1.78,1.78,0,0,1,.48,0,1.57,1.57,0,0,1,.45.08,2,2,0,0,1,.43.18ZM93.35,170a1.45,1.45,0,0,0,.5.15.83.83,0,0,0,.48-.12c.16-.09.23-.18.21-.28a.57.57,0,0,0-.26-.29l-.28-.17-.29-.16a1.38,1.38,0,0,0-.5-.15.81.81,0,0,0-.48.12c-.16.09-.23.18-.2.28a.57.57,0,0,0,.26.29l.28.17Z" transform="translate(0 0)" style="fill:#c5c800"/><path id="Path_7935" data-name="Path 7935" d="M94.07,167.9a.8.8,0,0,1,.26-.1.9.9,0,0,1,.25,0,.71.71,0,0,1,.23,0,.62.62,0,0,1,.2.07l.2.11.18.11a.28.28,0,0,1,.11.11.17.17,0,0,1,0,.13.23.23,0,0,1-.06.14.47.47,0,0,1-.18.15,1.1,1.1,0,0,1-.25.1.79.79,0,0,1-.25,0h-.24l-.2-.06-.2-.11-.18-.11-.13-.11a.27.27,0,0,1,0-.28.63.63,0,0,1,.18-.15Zm1,.35-.06,0-.09,0-.09-.06-.07,0a.35.35,0,0,0-.16,0,.29.29,0,0,0-.18,0c-.07,0-.1.08-.09.11a.15.15,0,0,0,.07.09l.06,0,.09,0,.09.06.07,0a.45.45,0,0,0,.16,0,.34.34,0,0,0,.18,0c.07,0,.11-.08.09-.11a.13.13,0,0,0-.08-.11Zm.5-1.09v-.06l.06-.06.21-.12h.08a.08.08,0,0,1,.08,0h0l.53,2.26a.09.09,0,0,1,0,.06s0,0-.06,0l-.2.12h-.15Zm1.26.58a1.06,1.06,0,0,1,.26-.1.89.89,0,0,1,.26,0h.23l.19.07.2.11a.87.87,0,0,1,.18.11.29.29,0,0,1,.12.11.19.19,0,0,1,0,.13.23.23,0,0,1-.06.14.71.71,0,0,1-.18.15,1,1,0,0,1-.26.11l-.24,0h-.23l-.2-.06-.2-.11-.19-.11-.11-.11a.2.2,0,0,1,0-.14.24.24,0,0,1,.06-.14.42.42,0,0,1,.14-.15Zm1,.35-.06,0-.09-.06-.06-.09-.07,0a.33.33,0,0,0-.35,0c-.06,0-.09.07-.08.11a.14.14,0,0,0,.07.09s0,0,.06,0l.09,0,.09.06.07,0,.16,0a.34.34,0,0,0,.18,0c.06,0,.09-.08.09-.11a.14.14,0,0,0-.1-.09Z" transform="translate(0 0)" style="fill:#c5c800"/><g id="Group_30929" data-name="Group 30929" style="opacity:0.30000001192092896"><path id="Path_7936" data-name="Path 7936" d="M90.84,169.78a.24.24,0,0,1,.19,0l.24.14a.08.08,0,0,1,.05.06v.63a1.45,1.45,0,0,1,.35-.12l.37,0a1.34,1.34,0,0,1,.35,0,1.23,1.23,0,0,1,.32.13.62.62,0,0,1,.24.23.33.33,0,0,1,0,.24.7.7,0,0,1-.15.26,1.41,1.41,0,0,1-.32.24,2.24,2.24,0,0,1-.48.21,2.18,2.18,0,0,1-.44.09,1.87,1.87,0,0,1-.38,0,1.07,1.07,0,0,1-.29-.09s-.05,0-.05,0,0,0,.05-.06l.26-.16h.48l.19,0,.23-.11a.53.53,0,0,0,.25-.24c0-.09,0-.16-.11-.21a.45.45,0,0,0-.35-.06,1.23,1.23,0,0,0-.4.16l-.29.16H91l-.24-.14a.1.1,0,0,1,0-.06v-.63l-.94.55a.24.24,0,0,1-.19,0l-.24-.14a.1.1,0,0,1,0,0s0,0,0-.06Z" transform="translate(0 0)" style="fill:#fff"/><path id="Path_7937" data-name="Path 7937" d="M94.14,168.9l.14.08.16.09.16.09.14.08a1.28,1.28,0,0,1,.31.25.42.42,0,0,1,.14.26.35.35,0,0,1-.09.28,1.11,1.11,0,0,1-.35.28,1.71,1.71,0,0,1-.5.21,2,2,0,0,1-.47,0,2.36,2.36,0,0,1-.46-.08,3.15,3.15,0,0,1-.42-.18l-.3-.17-.29-.18a2.06,2.06,0,0,1-.32-.25.51.51,0,0,1-.14-.26.42.42,0,0,1,.08-.28,1.17,1.17,0,0,1,.35-.28,1.91,1.91,0,0,1,.5-.21,1.78,1.78,0,0,1,.48,0,1.57,1.57,0,0,1,.45.08,2,2,0,0,1,.43.18ZM93.35,170a1.45,1.45,0,0,0,.5.15.83.83,0,0,0,.48-.12c.16-.09.23-.18.21-.28a.57.57,0,0,0-.26-.29l-.28-.17-.29-.16a1.38,1.38,0,0,0-.5-.15.81.81,0,0,0-.48.12c-.16.09-.23.18-.2.28a.57.57,0,0,0,.26.29l.28.17Z" transform="translate(0 0)" style="fill:#fff"/><path id="Path_7938" data-name="Path 7938" d="M94.07,167.9a.8.8,0,0,1,.26-.1.9.9,0,0,1,.25,0,.71.71,0,0,1,.23,0,.63.63,0,0,1,.2.07l.2.11.18.11a.28.28,0,0,1,.11.11.17.17,0,0,1,0,.13.23.23,0,0,1-.06.14.47.47,0,0,1-.18.15,1.1,1.1,0,0,1-.25.1.79.79,0,0,1-.25,0h-.24l-.2-.06-.2-.11-.18-.11-.13-.11a.27.27,0,0,1,0-.28.63.63,0,0,1,.18-.15Zm1,.35-.06,0-.09,0-.09-.06-.07,0a.35.35,0,0,0-.16,0,.29.29,0,0,0-.18,0c-.07,0-.1.08-.09.11a.15.15,0,0,0,.07.09l.06,0,.09,0,.09.06.07,0a.45.45,0,0,0,.16,0,.34.34,0,0,0,.18,0c.07,0,.11-.08.09-.11a.13.13,0,0,0-.08-.11Zm.5-1.09v-.06l.06-.06.21-.12h.08a.08.08,0,0,1,.08,0h0l.53,2.26a.09.09,0,0,1,0,.06s0,0-.06,0l-.2.12h-.15Zm1.26.58a1.06,1.06,0,0,1,.26-.1.89.89,0,0,1,.26,0h.23l.19.07.2.11a.87.87,0,0,1,.18.11.29.29,0,0,1,.12.11.19.19,0,0,1,0,.13.23.23,0,0,1-.06.14.71.71,0,0,1-.18.15,1,1,0,0,1-.26.11l-.24,0h-.23l-.2-.06-.2-.11-.19-.11-.11-.11a.2.2,0,0,1,0-.14.24.24,0,0,1,.06-.14.42.42,0,0,1,.14-.15Zm1,.35-.06,0-.09-.06-.06-.09-.07,0a.33.33,0,0,0-.35,0c-.06,0-.09.07-.08.11a.14.14,0,0,0,.07.09s0,0,.06,0l.09,0,.09.06.07,0,.16,0a.34.34,0,0,0,.18,0c.06,0,.09-.08.09-.11a.14.14,0,0,0-.1-.09Z" transform="translate(0 0)" style="fill:#fff"/></g><path id="Path_7939" data-name="Path 7939" d="M93.06,174.32h.07l.11.07h0l-.71.41h-.09l-1.05-.63h0l.13-.08h.09l.9.52Z" transform="translate(0 0)" style="fill:#d8d8d8"/><path id="Path_7940" data-name="Path 7940" d="M92.69,173.94l-.14-.12a.34.34,0,0,1-.05-.13.33.33,0,0,1,.05-.14.62.62,0,0,1,.18-.14.87.87,0,0,1,.24-.1l.24,0a.72.72,0,0,1,.23,0l.21.08.07,0,.08,0,.08,0,.06,0a.42.42,0,0,1,.14.12.2.2,0,0,1,.05.13.19.19,0,0,1-.05.14.55.55,0,0,1-.18.14,1,1,0,0,1-.24.1l-.24,0-.23,0-.21-.08-.07,0-.08,0-.08,0Zm.75-.42a.45.45,0,0,0-.26-.06.53.53,0,0,0-.25.07.21.21,0,0,0-.12.14.21.21,0,0,0,.11.14l.14.08.14.08a.63.63,0,0,0,.26.06.48.48,0,0,0,.25-.07c.08,0,.11-.09.12-.14a.16.16,0,0,0-.11-.15l-.13-.08Z" transform="translate(0 0)" style="fill:#d8d8d8"/><path id="Path_7941" data-name="Path 7941" d="M93.91,172.75a.88.88,0,0,1,.41-.12.68.68,0,0,1,.37.09.26.26,0,0,1,.14.15.14.14,0,0,1,0,.16l.63.11h0l-.14.08h-.11l-.6-.1-.21.13.38.22h0l-.13.08h-.09l-1.05-.63v0Zm.27.43.24-.13a.27.27,0,0,0,.11-.11.12.12,0,0,0-.06-.11.29.29,0,0,0-.18,0l-.18.07-.24.14Z" transform="translate(0 0)" style="fill:#d8d8d8"/><path id="Path_7942" data-name="Path 7942" d="M96.23,172.48h.09l.12.07h0l-.71.41h-.08l-1-.63.71-.41h.11l.11.07h0l-.51.29.26.15.5-.28h.09l.11.07h0l-.49.28.26.16Z" transform="translate(0 0)" style="fill:#d8d8d8"/><path id="Path_7943" data-name="Path 7943" d="M96.65,171.83l-.23-.49v0l0,0,.11-.06h.09l1,.63h0l-.13.08h-.09l-.63-.37.16.34h0v0l-.08,0h-.1l-.58-.09.63.37h0l-.13.08h-.09l-1.05-.63h0l.11-.06h.11Z" transform="translate(0 0)" style="fill:#d8d8d8"/><path id="Path_7944" data-name="Path 7944" d="M98.43,171.45h-.09l-1-.63h0l.13-.08h.1l1,.63h0Z" transform="translate(0 0)" style="fill:#d8d8d8"/><path id="Path_7945" data-name="Path 7945" d="M98.2,170.27a.84.84,0,0,1,.4-.12.63.63,0,0,1,.38.1c.13.07.18.14.16.22s-.08.16-.21.23l-.26.15.37.21h0l-.13.08a.11.11,0,0,1-.09,0l-1.05-.63v0h0Zm.27.46.25-.14a.27.27,0,0,0,.11-.11s0-.08-.08-.11a.26.26,0,0,0-.18,0,.41.41,0,0,0-.18.07l-.25.14Z" transform="translate(0 0)" style="fill:#d8d8d8"/><path id="Path_7946" data-name="Path 7946" d="M99.17,169.69a.87.87,0,0,1,.23-.09l.21,0h.18l.13,0v0h0l-.11.06h-.24a.37.37,0,0,0-.18.07.16.16,0,0,0-.08,0,.1.1,0,0,0,0,.06,0,0,0,0,0,0,0,.08.08,0,0,0,0,0h.18l.13,0,.18-.06a1,1,0,0,1,.26-.07l.19,0h.16a.32.32,0,0,1,.14.06.22.22,0,0,1,.11.09.19.19,0,0,1,0,.12.36.36,0,0,1-.08.13l-.17.13a.75.75,0,0,1-.21.09l-.21,0h-.21l-.18,0h0l.12-.06H100l.11-.06.09-.06.06-.06a.09.09,0,0,0,0-.06,0,0,0,0,0,0,0h-.19l-.14,0-.2.07-.2.06h-.32l-.15-.06A.37.37,0,0,1,99,170a.34.34,0,0,1,0-.11.37.37,0,0,1,.07-.12l.13-.12Z" transform="translate(0 0)" style="fill:#d8d8d8"/><path id="Path_7947" data-name="Path 7947" d="M100.74,168.8h.09l.67.39a.42.42,0,0,1,.16.12.2.2,0,0,1,.05.13.19.19,0,0,1-.06.14.62.62,0,0,1-.17.14l-.24.1-.24,0-.23,0-.21-.09-.67-.39h0l.13-.08h.09l.63.38.13,0h.25l.11,0,.09-.07a.18.18,0,0,0,0-.14.27.27,0,0,0-.09-.08l-.66-.38h0Z" transform="translate(0 0)" style="fill:#d8d8d8"/><path id="Path_7948" data-name="Path 7948" d="M102.15,168.66l-.23-.49v-.07L102,168h.09l1.05.63h0l-.13.08h-.09l-.63-.37.15.34v0l-.08,0h-.08l-.58-.09.63.37h0l-.13.08h-.09l-1.05-.63h0l.11-.06h.11Z" transform="translate(0 0)" style="fill:#d8d8d8"/><path id="Path_7949" data-name="Path 7949" d="M120.93,176.53a.16.16,0,0,1-.12-.06.14.14,0,0,1,0-.19h0l.93-.53a.13.13,0,0,1,.18,0h0a.13.13,0,0,1,0,.18h0l-.94.53h-.06Zm1.88-1.07a.14.14,0,0,1-.12-.15h0a.15.15,0,0,1,.06-.1l.94-.54a.13.13,0,0,1,.18,0h0a.14.14,0,0,1,0,.19h0l-.93.53h-.09Zm1.88-1.07a.14.14,0,0,1-.14-.12.13.13,0,0,1,.08-.13l.93-.54a.14.14,0,0,1,.17.09.14.14,0,0,1,0,.15l-.94.54a.15.15,0,0,1-.11,0Zm1.88-1.07a.13.13,0,0,1-.13-.14h0a.12.12,0,0,1,.06-.11l.93-.54a.13.13,0,0,1,.18,0h0a.14.14,0,0,1,0,.19h0l-.93.54a.14.14,0,0,1-.14,0Zm1.88-1.08a.16.16,0,0,1-.12-.06.14.14,0,0,1,0-.19h.05l-.48-.28a.14.14,0,0,1,0-.18h0a.13.13,0,0,1,.17-.06h0l.88.51-.45.26Zm-1.37-1.07H127l-.93-.53a.14.14,0,0,1,0-.19.13.13,0,0,1,.18,0h0l.94.53a.13.13,0,0,1,0,.18h0a.15.15,0,0,1-.11.06Zm-1.88-1.07h-.06l-.94-.54a.14.14,0,0,1,.12-.24h0l.93.54a.13.13,0,0,1,.07.16h0a.13.13,0,0,1-.14.08Z" transform="translate(0 0)" style="fill:#354952"/><path id="Path_7950" data-name="Path 7950" d="M123.09,169.34a.31.31,0,0,1,0-.58,1.14,1.14,0,0,1,1,0,.31.31,0,0,1,.2.39h0a.32.32,0,0,1-.2.2A1.14,1.14,0,0,1,123.09,169.34Z" transform="translate(0 0)" style="fill:#354952"/><path id="Path_7951" data-name="Path 7951" d="M109.37,179.71a.24.24,0,0,1,.19,0l.24.14a.07.07,0,0,1,0,0v.63a1.9,1.9,0,0,1,.35-.11,1.42,1.42,0,0,1,.36,0,1.08,1.08,0,0,1,.35,0,1,1,0,0,1,.32.13.68.68,0,0,1,.24.22.35.35,0,0,1,0,.25.72.72,0,0,1-.15.26,1.43,1.43,0,0,1-.32.24,2.21,2.21,0,0,1-.47.21l-.44.09a1.92,1.92,0,0,1-.38,0,1.1,1.1,0,0,1-.3-.09s0,0,0,0a.08.08,0,0,1,0-.06l.26-.16h.48l.19-.06.23-.11a.53.53,0,0,0,.25-.24.19.19,0,0,0-.11-.21.48.48,0,0,0-.35,0,1.23,1.23,0,0,0-.4.16l-.29.16h-.18l-.24-.14,0,0v-.63l-.95.54a.2.2,0,0,1-.19,0l-.24-.14a.1.1,0,0,1,0,0s0,0,0-.06Z" transform="translate(0 0)" style="fill:#c5c800"/><path id="Path_7952" data-name="Path 7952" d="M112.66,178.85l.14.08.16.09.16.09.14.09a1.46,1.46,0,0,1,.31.24.43.43,0,0,1,.14.26.35.35,0,0,1-.09.28,1.11,1.11,0,0,1-.35.28,2.17,2.17,0,0,1-.5.21,1.92,1.92,0,0,1-.47,0,1.88,1.88,0,0,1-.45-.08,3.68,3.68,0,0,1-.43-.18l-.31-.16-.29-.18a2.36,2.36,0,0,1-.32-.25.54.54,0,0,1-.14-.26.43.43,0,0,1,.08-.28,1.19,1.19,0,0,1,.35-.29,1.89,1.89,0,0,1,.5-.2,1.38,1.38,0,0,1,.48,0,1.56,1.56,0,0,1,.45.08,2,2,0,0,1,.43.18Zm-.79,1.14a1.45,1.45,0,0,0,.5.15.79.79,0,0,0,.48-.11c.16-.09.23-.19.21-.28a.57.57,0,0,0-.26-.29l-.28-.17-.3-.16a1.38,1.38,0,0,0-.5-.15.81.81,0,0,0-.48.12c-.16.09-.23.18-.2.27a.63.63,0,0,0,.26.29l.28.17Z" transform="translate(0 0)" style="fill:#c5c800"/><path id="Path_7953" data-name="Path 7953" d="M112.6,177.83a.83.83,0,0,1,.26-.11l.25,0a.71.71,0,0,1,.23,0,.69.69,0,0,1,.2.06l.2.11.18.11a.41.41,0,0,1,.12.11.18.18,0,0,1,0,.14.25.25,0,0,1-.06.14.54.54,0,0,1-.19.14,1,1,0,0,1-.25.11,1.12,1.12,0,0,1-.68-.07l-.2-.11-.18-.11a.54.54,0,0,1-.13-.11.19.19,0,0,1,0-.13.23.23,0,0,1,0-.14A.64.64,0,0,1,112.6,177.83Zm1,.35-.06,0-.09,0-.09-.06-.07,0a.35.35,0,0,0-.16,0,.26.26,0,0,0-.18,0c-.07,0-.09.08-.09.11a.15.15,0,0,0,.07.09l.06,0,.09.06.09,0,.07,0a.35.35,0,0,0,.16,0,.34.34,0,0,0,.18,0c.07,0,.11-.07.09-.11a.11.11,0,0,0-.08-.09Zm.5-1.09V177l.06,0,.21-.12h.16l.53,2.26a.09.09,0,0,1,0,.06s0,0-.06,0l-.2.12h-.15Zm1.26.58a.81.81,0,0,1,.26-.11l.24,0a.71.71,0,0,1,.23,0,.62.62,0,0,1,.2.07l.2.1.19.12a.38.38,0,0,1,.11.11.17.17,0,0,1,0,.13.26.26,0,0,1-.06.14.7.7,0,0,1-.18.15,1,1,0,0,1-.26.1.79.79,0,0,1-.25,0h-.23l-.2-.07-.19-.1-.18-.12a.42.42,0,0,1-.12-.11.22.22,0,0,1,0-.13.28.28,0,0,1,.07-.14.45.45,0,0,1,.16-.15Zm1,.35-.07,0-.09,0-.09-.06-.06,0a.39.39,0,0,0-.16,0,.26.26,0,0,0-.18,0c-.07,0-.1.08-.09.11a.16.16,0,0,0,.08.09l.06,0,.09,0,.09.06.07,0a.46.46,0,0,0,.16,0,.3.3,0,0,0,.18-.06c.07,0,.09-.07.09-.11a.12.12,0,0,0-.09-.07Z" transform="translate(0 0)" style="fill:#c5c800"/><path id="Path_7954" data-name="Path 7954" d="M111.59,184.26h.09l.12.07h0l-.71.41H111l-1.05-.63v0h0l.14-.08h.09l.89.52Z" transform="translate(0 0)" style="fill:#d8d8d8"/><path id="Path_7955" data-name="Path 7955" d="M111.22,183.88l-.13-.12a.2.2,0,0,1,0-.28h0a.51.51,0,0,1,.17-.14,1,1,0,0,1,.24-.1l.24,0a.72.72,0,0,1,.23,0,.57.57,0,0,1,.21.08l.08,0,.08,0,.08,0,.07,0a.42.42,0,0,1,.14.12.2.2,0,0,1,0,.28h0a.62.62,0,0,1-.17.14,1.05,1.05,0,0,1-.24.1l-.24,0-.23,0-.21-.08-.07,0-.08,0-.08,0Zm.75-.43a.48.48,0,0,0-.26-.06.5.5,0,0,0-.24.07c-.08,0-.12.09-.12.14a.2.2,0,0,0,.11.15l.13.08.14.08a.54.54,0,0,0,.26.06.47.47,0,0,0,.24-.07c.08,0,.12-.09.12-.14s0-.1-.11-.14l-.13-.08Z" transform="translate(0 0)" style="fill:#d8d8d8"/><path id="Path_7956" data-name="Path 7956" d="M112.44,182.69a.74.74,0,0,1,.4-.13.63.63,0,0,1,.37.09.27.27,0,0,1,.15.15.16.16,0,0,1,0,.16l.63.11h0l-.14.08h-.12l-.59-.09-.22.13.38.22h0l-.13.08H113l-1.05-.63h0Zm.27.43.23-.13a.27.27,0,0,0,.12-.11s0-.07-.07-.11a.28.28,0,0,0-.18,0,.5.5,0,0,0-.18.07l-.24.14Z" transform="translate(0 0)" style="fill:#d8d8d8"/><path id="Path_7957" data-name="Path 7957" d="M114.76,182.43h.09l.11.07h0l-.71.41h-.09l-1.05-.63h0l.7-.41h.09l.12.07h0l-.53.3.26.15.49-.28h.09l.12.07h0l-.5.28.28.16Z" transform="translate(0 0)" style="fill:#d8d8d8"/><path id="Path_7958" data-name="Path 7958" d="M115.19,181.8l-.23-.49,0,0,.11-.06h.09l1.05.63h0l-.13.08H116l-.63-.37.16.34h0v0l-.09,0h-.1l-.58-.09.63.37h0l-.13.08h-.09l-1.05-.63h0l.11-.06h.11Z" transform="translate(0 0)" style="fill:#d8d8d8"/><path id="Path_7959" data-name="Path 7959" d="M117,181.4h-.09l-1.05-.63h0l.14-.08H116l1,.63h0Z" transform="translate(0 0)" style="fill:#d8d8d8"/><path id="Path_7960" data-name="Path 7960" d="M116.75,180.21a.86.86,0,0,1,.4-.12.67.67,0,0,1,.38.09c.12.07.18.14.16.23s-.08.15-.21.23l-.26.15.36.21h0l-.13.08h-.09l-1.05-.63h0Zm.27.46.25-.14a.27.27,0,0,0,.11-.11.09.09,0,0,0-.07-.11h0a.26.26,0,0,0-.18,0,.46.46,0,0,0-.19.07l-.25.14Z" transform="translate(0 0)" style="fill:#d8d8d8"/><path id="Path_7961" data-name="Path 7961" d="M117.7,179.63a.77.77,0,0,1,.22-.09l.21,0h.18l.13,0h0l-.11.07h-.26a.42.42,0,0,0-.18.07l-.07,0,0,0a.07.07,0,0,0,0,0l0,0H118l.13,0,.18-.06.22-.07.18,0h.17a.36.36,0,0,1,.14,0,.2.2,0,0,1,.1.1.13.13,0,0,1,0,.12.31.31,0,0,1-.08.13.5.5,0,0,1-.17.13l-.2.09-.21,0h-.22a.46.46,0,0,1-.18,0h0l.11-.06h.35l.12-.06.08-.06a.09.09,0,0,0,.06-.06.07.07,0,0,0,0-.1h-.2l-.14,0-.2.07-.19.06h-.32l-.14-.06a.26.26,0,0,1-.11-.09.19.19,0,0,1,0-.11.26.26,0,0,1,.07-.12.39.39,0,0,1,.16-.09Z" transform="translate(0 0)" style="fill:#d8d8d8"/><path id="Path_7962" data-name="Path 7962" d="M119.26,178.75h.09l.67.38a.5.5,0,0,1,.16.13.15.15,0,0,1,0,.13.19.19,0,0,1-.06.14.73.73,0,0,1-.17.14,1.17,1.17,0,0,1-.24.09.68.68,0,0,1-.23,0l-.23,0-.21-.09-.67-.38h0l.13-.08h.09l.66.38.13.06h.26l.11,0,.09-.07a.09.09,0,0,0,0-.07.08.08,0,0,0,0-.08.2.2,0,0,0-.1-.08l-.66-.38h0Z" transform="translate(0 0)" style="fill:#d8d8d8"/><path id="Path_7963" data-name="Path 7963" d="M120.67,178.61l-.23-.49V178l.11-.06h.09l1.05.63h0l-.13.08h-.09l-.63-.37.16.34h0v0l-.09,0h-.1l-.58-.09.63.37h0l-.13.08h-.09l-1.05-.63h0l.11-.06h.11Z" transform="translate(0 0)" style="fill:#d8d8d8"/><path id="Path_7964" data-name="Path 7964" d="M151.25,160.45h-.09a.08.08,0,0,1,0-.06l.16-.77v-.06l0,0,.27-.15a.11.11,0,0,1,.09,0,.12.12,0,0,1,.09,0l2.22,1.26s0,0,0,0,0,0,0,.06l-.28.16h-.18l-1.7-1-.11.5a0,0,0,0,1,0,0h-.44Z" transform="translate(0 0)" style="fill:#c5c800"/><path id="Path_7965" data-name="Path 7965" d="M154.89,158.48l.14.08.17.09.16.09.14.08a1.65,1.65,0,0,1,.31.25.49.49,0,0,1,.14.26.38.38,0,0,1-.09.28,1.11,1.11,0,0,1-.35.28,1.73,1.73,0,0,1-.5.21,2,2,0,0,1-.47,0,2.31,2.31,0,0,1-.45-.08,3.63,3.63,0,0,1-.43-.18l-.3-.17-.29-.18a2,2,0,0,1-.31-.24.45.45,0,0,1-.14-.27.36.36,0,0,1,.08-.28,1,1,0,0,1,.35-.28,1.74,1.74,0,0,1,.5-.21,1.61,1.61,0,0,1,.93,0,2.29,2.29,0,0,1,.43.18Zm-.79,1.14a1.42,1.42,0,0,0,.5.15.81.81,0,0,0,.48-.12c.16-.09.22-.18.2-.28a.56.56,0,0,0-.26-.29l-.28-.17-.3-.16a1.38,1.38,0,0,0-.5-.15.8.8,0,0,0-.47.12c-.16.09-.23.18-.21.28a.67.67,0,0,0,.27.29l.28.17Z" transform="translate(0 0)" style="fill:#c5c800"/><path id="Path_7966" data-name="Path 7966" d="M154.82,157.46a.8.8,0,0,1,.26-.1.91.91,0,0,1,.48,0,.69.69,0,0,1,.2.07l.2.11.18.11a.29.29,0,0,1,.12.11.16.16,0,0,1,0,.13.22.22,0,0,1-.06.14.63.63,0,0,1-.18.15l-.25.11-.25,0h-.25l-.2-.06-.2-.11-.18-.11-.12-.11a.24.24,0,0,1,0-.14.2.2,0,0,1,.06-.14A.64.64,0,0,1,154.82,157.46Zm1,.35-.06,0-.09,0-.09,0-.07,0a.35.35,0,0,0-.16,0,.33.33,0,0,0-.18,0c-.07,0-.09.08-.09.11a.21.21,0,0,0,.07.09l.06,0,.09,0,.09.06h.07l.16,0a.38.38,0,0,0,.19,0c.06,0,.09-.08.09-.11a.09.09,0,0,0-.07-.06Zm.5-1.09v-.06l.06-.06.21-.12h.08a.08.08,0,0,1,.08,0h0l.53,2.26a.09.09,0,0,1,0,.06l-.06,0L157,159h-.15Zm1.26.58a.8.8,0,0,1,.28-.08.9.9,0,0,1,.25,0h.23a.63.63,0,0,1,.2.07l.2.11.19.11a.28.28,0,0,1,.11.11.19.19,0,0,1,0,.13.23.23,0,0,1-.06.14.47.47,0,0,1-.18.15,1,1,0,0,1-.26.11h-.48l-.2-.06-.2-.11-.18-.11-.12-.11a.24.24,0,0,1,0-.28.52.52,0,0,1,.16-.11Zm1,.35-.06,0-.09-.06-.09,0-.07,0a.35.35,0,0,0-.16,0,.33.33,0,0,0-.18.06c-.07,0-.1.07-.09.11a.21.21,0,0,0,.08.09l.06,0,.09,0,.09.06.07,0,.16,0a.35.35,0,0,0,.16,0c.07,0,.09-.08.09-.11a.16.16,0,0,0-.09-.09Z" transform="translate(0 0)" style="fill:#c5c800"/><g id="Group_30930" data-name="Group 30930" style="opacity:0.20000000298023224"><path id="Path_7967" data-name="Path 7967" d="M151.25,160.44h-.09a.08.08,0,0,1,0-.06l.16-.77v-.06l0,0,.27-.15a.11.11,0,0,1,.09,0,.12.12,0,0,1,.09,0l2.22,1.26s0,0,0,0,0,0,0,.06l-.28.16h-.18l-1.7-1-.11.5a0,0,0,0,1,0,0h-.44Z" transform="translate(0 0)" style="fill:#040405"/><path id="Path_7968" data-name="Path 7968" d="M154.89,158.48l.14.08.17.09.16.09.14.08a1.64,1.64,0,0,1,.31.25.49.49,0,0,1,.14.26.38.38,0,0,1-.09.28,1.11,1.11,0,0,1-.35.28,1.73,1.73,0,0,1-.5.21,2,2,0,0,1-.47,0,2.31,2.31,0,0,1-.45-.08,3.63,3.63,0,0,1-.43-.18l-.3-.17-.29-.18a2,2,0,0,1-.31-.24.45.45,0,0,1-.14-.27.36.36,0,0,1,.08-.28,1,1,0,0,1,.35-.28,1.74,1.74,0,0,1,.5-.21,1.61,1.61,0,0,1,.93,0,2.29,2.29,0,0,1,.43.18Zm-.79,1.14a1.42,1.42,0,0,0,.5.15.82.82,0,0,0,.48-.12c.16-.09.22-.18.2-.28a.56.56,0,0,0-.26-.29l-.28-.17-.3-.16a1.38,1.38,0,0,0-.5-.15.8.8,0,0,0-.47.12c-.16.09-.23.18-.21.28a.67.67,0,0,0,.27.29l.28.17Z" transform="translate(0 0)" style="fill:#040405"/><path id="Path_7969" data-name="Path 7969" d="M154.82,157.46a.8.8,0,0,1,.26-.1.91.91,0,0,1,.48,0,.69.69,0,0,1,.2.07l.2.11.18.11a.29.29,0,0,1,.12.11.16.16,0,0,1,0,.13.22.22,0,0,1-.06.14.63.63,0,0,1-.18.15l-.25.11-.25,0h-.25l-.2-.06-.2-.11-.18-.11-.12-.11a.24.24,0,0,1,0-.14.2.2,0,0,1,.06-.14A.63.63,0,0,1,154.82,157.46Zm1,.35-.06,0-.09,0-.09,0-.07,0a.35.35,0,0,0-.16,0,.33.33,0,0,0-.18,0c-.07,0-.09.08-.09.11a.21.21,0,0,0,.07.09l.06,0,.09,0,.09.06h.07l.16,0a.38.38,0,0,0,.19,0c.06,0,.09-.08.09-.11a.09.09,0,0,0-.07-.06Zm.5-1.09v-.06l.06-.06.21-.12h.08a.08.08,0,0,1,.08,0h0l.53,2.26a.09.09,0,0,1,0,.06l-.06,0L157,159h-.15Zm1.26.58a.8.8,0,0,1,.28-.08.9.9,0,0,1,.25,0h.23a.63.63,0,0,1,.2.07l.2.11.19.11a.28.28,0,0,1,.11.11.19.19,0,0,1,0,.13.23.23,0,0,1-.06.14.47.47,0,0,1-.18.15,1,1,0,0,1-.26.11h-.48l-.2-.06-.2-.11-.18-.11-.12-.11a.24.24,0,0,1,0-.28.53.53,0,0,1,.16-.11Zm1,.35-.06,0-.09-.06-.09,0-.07,0a.35.35,0,0,0-.16,0,.33.33,0,0,0-.18.06c-.07,0-.1.07-.09.11a.21.21,0,0,0,.08.09l.06,0,.09,0,.09.06.07,0,.16,0a.35.35,0,0,0,.16,0c.07,0,.09-.08.09-.11a.16.16,0,0,0-.09-.09Z" transform="translate(0 0)" style="fill:#040405"/></g><path id="Path_7970" data-name="Path 7970" d="M140.07,168.84l-.07,0a.17.17,0,0,1-.06-.2.13.13,0,0,1,.12-.07l.85-.5a.13.13,0,0,1,.18,0h0a.14.14,0,0,1,0,.19h0Zm-1-.58h-.07l-.93-.54a.14.14,0,0,1-.06-.18.13.13,0,0,1,.18-.06h0l.93.54a.11.11,0,0,1,.07.15h0a.12.12,0,0,1-.12.08Zm2.8-.5a.14.14,0,0,1-.14-.12.13.13,0,0,1,.08-.13l.93-.54a.14.14,0,0,1,.17.09.14.14,0,0,1,0,.15l-.94.54h-.06Zm-4.66-.57h-.07l-.93-.53a.14.14,0,0,1-.06-.18.13.13,0,0,1,.18-.06h0l.94.53a.14.14,0,0,1,.05.19h0a.16.16,0,0,1-.12,0Zm6.52-.51a.14.14,0,0,1-.11-.06.13.13,0,0,1,0-.18h0l.94-.53a.13.13,0,0,1,.17,0h0a.14.14,0,0,1,0,.18l-.93.54h-.07Zm1.88-1.07a.14.14,0,0,1-.14-.12.13.13,0,0,1,.08-.13l.93-.53a.13.13,0,0,1,.18,0h0a.13.13,0,0,1,0,.18h0l-.94.53h-.08Zm1.88-1.07a.13.13,0,0,1-.13-.14h0a.13.13,0,0,1,.06-.11l.93-.54a.14.14,0,0,1,.18.08.14.14,0,0,1,0,.16l-.93.53h-.08Zm1.88-1.07a.14.14,0,0,1-.14-.12.13.13,0,0,1,.08-.13l.74-.43a.13.13,0,0,1,.15.22h0l-.73.43Z" transform="translate(0 0)" style="fill:#354952"/><path id="Path_7971" data-name="Path 7971" d="M154.13,163.72h.09l.12.07h0l-.72.41h-.09l-1.05-.63h0l.13-.08h.09l.9.52Z" transform="translate(0 0)" style="fill:#d8d8d8"/><path id="Path_7972" data-name="Path 7972" d="M153.76,163.34l-.14-.12a.2.2,0,0,1,0-.28.44.44,0,0,1,.16-.14,1,1,0,0,1,.25-.1l.24,0a.77.77,0,0,1,.23,0,.63.63,0,0,1,.2.08l.07,0,.08,0,.08,0,.07,0a.64.64,0,0,1,.14.12.19.19,0,0,1,0,.27h0a.62.62,0,0,1-.17.14,1,1,0,0,1-.24.1,1,1,0,0,1-.24,0l-.23,0-.2-.08-.07,0-.08,0-.08,0Zm.75-.42a.43.43,0,0,0-.26-.06.5.5,0,0,0-.24.07c-.08,0-.12.09-.12.14s0,.1.11.14l.13.08.14.08a.62.62,0,0,0,.26.06.5.5,0,0,0,.24-.07c.08,0,.12-.09.12-.14a.18.18,0,0,0-.11-.15l-.13-.08Z" transform="translate(0 0)" style="fill:#d8d8d8"/><path id="Path_7973" data-name="Path 7973" d="M155,162.15a.86.86,0,0,1,.4-.12.63.63,0,0,1,.37.09.29.29,0,0,1,.15.15.16.16,0,0,1,0,.16l.63.11h0l-.14.08h-.12l-.59-.1-.22.13.38.22h0l-.13.08h-.09l-1.05-.63h0v0Zm.27.43.23-.13a.27.27,0,0,0,.12-.11.11.11,0,0,0-.07-.11.28.28,0,0,0-.18,0l-.18.07-.24.14Z" transform="translate(0 0)" style="fill:#d8d8d8"/><path id="Path_7974" data-name="Path 7974" d="M157.3,161.88h.09l.11.07h0l-.72.41h-.09l-1.05-.63h0l.7-.41h.09l.11.07h0l-.53.3.26.15.49-.28h.09l.12.07h0l-.5.28.26.16Z" transform="translate(0 0)" style="fill:#d8d8d8"/><path id="Path_7975" data-name="Path 7975" d="M157.73,161.23l-.23-.49v0l0,0,.11-.06h.09l1.05.63h0l-.13.08h-.09l-.63-.37.16.34h0v0l-.09,0h-.1l-.58-.09.63.37h0l-.13.08h-.09l-1.05-.63h0l.11-.06h.11Z" transform="translate(0 0)" style="fill:#d8d8d8"/><path id="Path_7976" data-name="Path 7976" d="M159.5,160.85h-.09l-1.05-.63h0l.13-.08h.09l1.05.63h0Z" transform="translate(0 0)" style="fill:#d8d8d8"/><path id="Path_7977" data-name="Path 7977" d="M159.26,159.67a.85.85,0,0,1,.41-.12.58.58,0,0,1,.38.09c.12.07.17.14.16.22s-.08.16-.21.23l-.27.15.36.21-.14.08h-.09l-1.05-.63h0Zm.27.46.25-.14a.27.27,0,0,0,.11-.11.09.09,0,0,0-.07-.11h0a.27.27,0,0,0-.19,0l-.18.07-.25.14Z" transform="translate(0 0)" style="fill:#d8d8d8"/><path id="Path_7978" data-name="Path 7978" d="M160.24,159.11a.77.77,0,0,1,.22-.09l.21,0h.18l.13,0h0l-.12.06h-.25a.42.42,0,0,0-.18.07l-.07,0,0,.06v0l0,0h.17l.13,0,.19-.06.22-.07h.35l.14.06a.24.24,0,0,1,.1.09.19.19,0,0,1,0,.12.53.53,0,0,1-.08.13.65.65,0,0,1-.17.13l-.2.09-.21,0a.54.54,0,0,1-.2,0,.52.52,0,0,1-.18,0v-.06l.11-.06h.35l.11,0,.09-.06.06-.06v-.06a.06.06,0,0,0,0,0h-.19l-.14,0-.2.07-.19.06h-.32a.44.44,0,0,1-.14-.06.2.2,0,0,1-.11-.09.12.12,0,0,1,0-.11.23.23,0,0,1,.06-.12.48.48,0,0,1,.16-.1Z" transform="translate(0 0)" style="fill:#d8d8d8"/><path id="Path_7979" data-name="Path 7979" d="M161.8,158.2h.09l.67.39a.55.55,0,0,1,.16.12.23.23,0,0,1,0,.13.19.19,0,0,1-.06.14.7.7,0,0,1-.16.14l-.24.1h-.46a.8.8,0,0,1-.21-.09l-.67-.39h0l.13-.08h.09l.63.38.13,0h.25l.11,0,.09-.07a.16.16,0,0,0,0-.14l-.1-.08-.66-.38h0Z" transform="translate(0 0)" style="fill:#d8d8d8"/><path id="Path_7980" data-name="Path 7980" d="M163.23,158.06l-.22-.49v-.07l.11-.06h.09l1.05.63h0l-.13.08H164l-.63-.36.16.33h0v0l-.09,0h-.1l-.58-.09.63.37h0l-.13.08a.11.11,0,0,1-.09,0l-1.05-.63h0l.11-.06h.11Z" transform="translate(0 0)" style="fill:#d8d8d8"/></g></g><path id="Path_7981" data-name="Path 7981" d="M156.39,66.74" transform="translate(0 0)" style="fill:none;stroke:#5e5d5d"/><path id="Path_9181" data-name="Path 9181" d="M137.76,55.22l16.33,10.54,2.32,1.5a2.57,2.57,0,0,0,3.49-.91,2.61,2.61,0,0,0-.92-3.49L142.66,52.32l-2.32-1.5a2.57,2.57,0,0,0-3.49.89,2.62,2.62,0,0,0,.92,3.5Z" transform="translate(0 0)" style="fill:#fff"/><path id="Path_9182" data-name="Path 9182" d="M154.64,43.9l-4.93,9.65L141.84,69,140,72.54a2.55,2.55,0,1,0,4.29,2.76l.11-.18,4.93-9.65,7.88-15.41L159,46.48a2.55,2.55,0,1,0-4.29-2.76h0l-.11.18Z" transform="translate(0 0)" style="fill:#fff"/><g id="Group_30957" data-name="Group 30957" style="opacity:0.30000001192092896"><path id="Path_9183" data-name="Path 9183" d="M43.95,134l6.28,3.82-.8.46-6.28-3.82Z" transform="translate(0 0)" style="fill:#040405"/><path id="Path_9184" data-name="Path 9184" d="M51.88,134c-1.07-.63-2.27-1.39-3-1.83h0c1.11.88,2.84,2.37,4.45,3.77l-.68.39c-2-.89-4.76-2.12-6.18-2.79h0c.77.43,2.08,1.21,3.14,1.88l2.25,1.37-.73.41-6.28-3.81,1.19-.68c1.93.84,4.32,1.88,5.37,2.41h0c-.74-.55-2.51-2.12-3.84-3.28l1.15-.66L55,135l-.77.44Z" transform="translate(0 0)" style="fill:#040405"/><path id="Path_9185" data-name="Path 9185" d="M49.6,130.71l1.54-.89a3.4,3.4,0,0,1,3.27.43c1.37.83,1.39,1.56.63,2l-.71.41,2.35,1.43-.8.46ZM53.27,132l.63-.35c.37-.21.39-.51-.25-.9a1.47,1.47,0,0,0-1.51-.18l-.63.36Z" transform="translate(0 0)" style="fill:#040405"/><path id="Path_9186" data-name="Path 9186" d="M59.66,128.63c1.75,1.06,2.64,2.34,1.43,3s-3.2.15-5-1-2.57-2.35-1.41-3S57.73,127.46,59.66,128.63Zm-2.77,1.59c1.26.75,2.48,1.13,3.14.75s-.05-1.17-1.17-1.85-2.41-1.12-3.1-.73-.1,1.08,1.13,1.83Z" transform="translate(0 0)" style="fill:#040405"/><path id="Path_9187" data-name="Path 9187" d="M61.78,128.18l2.51,1.53-.79.45-6.28-3.82,1.63-.94a3.07,3.07,0,0,1,3,.34c.85.51,1,.94,1,1.21a3.27,3.27,0,0,1,2,.68l.32.19a12,12,0,0,0,1.26.7l-.76.44a10.9,10.9,0,0,1-1.49-.82l-.09-.06c-.68-.41-1.12-.55-1.71-.21Zm-1.08-.63.67-.39c.44-.25.33-.52-.2-.84a1.34,1.34,0,0,0-1.39-.14l-.69.4Z" transform="translate(0 0)" style="fill:#040405"/><path id="Path_9188" data-name="Path 9188" d="M62.71,124.51l-1.12.63-1.11-.66,3.05-1.74,1.12.67-1.12.63,5.18,3.14-.8.46Z" transform="translate(0 0)" style="fill:#040405"/><path id="Path_9189" data-name="Path 9189" d="M67.17,122l-1.12.63-1.12-.68L68,120.17l1.12.68-1.12.63,5.18,3.14-.8.46Z" transform="translate(0 0)" style="fill:#040405"/><path id="Path_9190" data-name="Path 9190" d="M74.6,120.59l-1.77,1,1.6,1,2-1.12,1,.73-2.64,1.51-6.28-3.82,2.63-1.51,1.11.68-1.85,1.06,1.35.82,1.78-1Z" transform="translate(0 0)" style="fill:#040405"/><path id="Path_9191" data-name="Path 9191" d="M76.34,119.83l2.51,1.53-.79.45L71.78,118l1.63-.94a3.09,3.09,0,0,1,3,.34c.84.52,1,.94,1,1.21a3.28,3.28,0,0,1,2,.68l.31.19a11.57,11.57,0,0,0,1.26.7l-.76.44a11.24,11.24,0,0,1-1.49-.82l-.09-.06c-.69-.42-1.12-.55-1.71-.21Zm-1.08-.66.67-.39c.43-.25.32-.52-.2-.83a1.33,1.33,0,0,0-1.39-.15l-.69.4Z" transform="translate(0 0)" style="fill:#040405"/><path id="Path_9192" data-name="Path 9192" d="M82.38,116.55c-1.07-.63-2.27-1.39-3-1.83h0c1.11.88,2.83,2.37,4.45,3.77l-.68.4c-2-.89-4.76-2.12-6.18-2.79h0c.77.43,2.08,1.21,3.14,1.88l2.26,1.36-.74.42L75.38,116l1.19-.68c1.93.83,4.32,1.88,5.37,2.41h0c-.74-.55-2.51-2.13-3.84-3.29l1.15-.63,6.28,3.83-.78.44Z" transform="translate(0 0)" style="fill:#040405"/><path id="Path_9193" data-name="Path 9193" d="M85,115.63a1.76,1.76,0,0,0,1.69.11c.43-.24.33-.53-.14-.8a2,2,0,0,0-1.8-.13,3.77,3.77,0,0,1-3.14-.42c-1.09-.67-1.36-1.39-.48-1.88a3.45,3.45,0,0,1,3.25.28l-.8.46a1.52,1.52,0,0,0-1.45-.12c-.33.18-.29.43.15.71s.77.28,1.61.08a4,4,0,0,1,3.32.46c1.14.7,1.42,1.47.44,2a3.6,3.6,0,0,1-3.46-.3Z" transform="translate(0 0)" style="fill:#040405"/></g></g></svg>