<svg id="Layer_1" data-name="Layer 1" xmlns="http://www.w3.org/2000/svg" viewBox="0 0 310.56 302.53"><title>intro3</title><g id="Group_31009" data-name="Group 31009"><path id="freepik--floor--inject-16-2" d="M155.28,117.7c207.05,2.4,207,182.44,0,184.83C-51.77,300.12-51.75,120.09,155.28,117.7Z" transform="translate(0 0)" style="fill:#e7e6e6"/><path id="freepik--Shadow--inject-16" d="M135,274.07c-1.57.48-11.73-6.27-13.2-6.89-3,1.06-11.31,8.45-14.69,6-1.2-1.23-9.19-3.81-7.91-6.33-.16-.77,10.07-6,10.64-6.56-11.62-7.55-17.7-5.75-1.67-14.26,3.38-2.52,12.46,5.32,15.39,6.36,3-1.08,11.22-8.37,14.63-5.94,1.2,1.23,9.2,3.8,7.92,6.33.15.77-10,6-10.57,6.52l10.35,6a1.8,1.8,0,0,1,0,3.29c-1.58.67-9.13,5.93-10.88,5.53Z" transform="translate(0 0)" style="fill:#040405;opacity:0.10000000149011612;isolation:isolate"/><path id="freepik--shadow--inject-16-2" d="M161.06,243.18c-1.79.37-7.57-3.9-9.13-4.54a1.79,1.79,0,0,1,0-3.29l33.63-19.41c3.15-2.16,8.65,2.86,11.32,4a1.8,1.8,0,0,1,0,3.29l-33.64,19.41A4.3,4.3,0,0,1,161.06,243.18Z" transform="translate(0 0)" style="fill:#040405;opacity:0.10000000149011612;isolation:isolate"/><path id="freepik--shadow--inject-16-3" d="M59.56,253.7,14.39,227.61c-1.58-.91-1.58-2.39,0-3.29l90.76-52.4a6.3,6.3,0,0,1,5.7,0L156,198c1.58.91,1.58,2.39,0,3.29L65.27,253.7A6.32,6.32,0,0,1,59.56,253.7Z" transform="translate(0 0)" style="fill:#040405;opacity:0.10000000149011612;isolation:isolate"/><path id="freepik--shadow--inject-16-4" d="M226,233.79c53.28.64,53.28,48.17,0,48.8C172.68,282,172.69,234.42,226,233.79Z" transform="translate(0 0)" style="fill:#040405;opacity:0.10000000149011612;isolation:isolate"/><path id="freepik--shadow--inject-16-5" d="M276.87,237.16c4.23,2.44,4.23,6.4,0,8.84-5.88,4.92-26.11-.6-15.3-8.84C265.8,234.72,272.67,234.72,276.87,237.16Z" transform="translate(0 0)" style="fill:#040405;opacity:0.10000000149011612;isolation:isolate"/><g id="freepik--plants--inject-16-2"><path id="Path_8962" data-name="Path 8962" d="M51.79,207.94c-1.78-76-64.43-68.5-27.33-35.28,10.26,9.85,17.6,20.78,19.68,34.5Z" transform="translate(0 0)" style="fill:#c5c800"/><path id="Path_8963" data-name="Path 8963" d="M51.79,207.94c-1.78-76-64.43-68.5-27.33-35.28,10.26,9.85,17.6,20.78,19.68,34.5Z" transform="translate(0 0)" style="fill:#040405;opacity:0.15000000596046448;isolation:isolate"/><path id="Path_8964" data-name="Path 8964" d="M47.18,205.88c-2.39-29.08-22.51-47.9-28-52.32C24.85,154.92,47.73,177.77,47.18,205.88Z" transform="translate(0 0)" style="fill:#fff"/><path id="Path_8965" data-name="Path 8965" d="M52.61,202.57c-3.26-8-13.55-7.76-20.64-10.12-7.23-2.79-15.53-9.08-23.14-3.92-5.16,3.83.61,9.18,3.56,11.73,9.34,8.5-10,10.44,1.43,19.16,4.49,4.44,12.17,2.8,16.11,6.59,1,5,.31,10,6,12.91,6.71,4.64,15.45,1.51,22.33-.7,2.59-.73,4-5.34,4.38-7.65C64,217.68,52.59,218,52.61,202.57Z" transform="translate(0 0)" style="fill:#c5c800"/><path id="Path_8966" data-name="Path 8966" d="M55.26,236.37c-5-21.83-31.74-40.28-41.73-45.52C23.37,193.7,53,215.84,55.26,236.37Z" transform="translate(0 0)" style="fill:#fff"/><path id="Path_8967" data-name="Path 8967" d="M21.66,215.45C20.24,213,42,210.81,42.91,213.21c-6.77,0-14.43.18-21.25,2.24Z" transform="translate(0 0)" style="fill:#fff"/></g><path id="Path_8968" data-name="Path 8968" d="M158.34,11.14a4.07,4.07,0,0,0-1.66-3.69c-1-.6-9.71-5.67-10.77-6.25s-2.44-.48-4,.42L55.11,51.74a12.63,12.63,0,0,0-5.71,9.89V240.46a4,4,0,0,0,1.68,3.69c1,.59,9.66,5.59,10.67,6.2a4,4,0,0,0,4.08-.38l86.79-50.12C164.57,203.46,155.83,15.11,158.34,11.14Z" transform="translate(0 0)" style="fill:#29373e"/><path id="Path_8969" data-name="Path 8969" d="M60.12,246.68C62.58,242,53.89,55,65.83,57.95L152.63,7.83c3.15-1.82,5.71-.34,5.71,3.29-2.45,4.64,6.23,191.7-5.71,188.75L65.84,250C62.68,251.8,60.12,250.33,60.12,246.68Z" transform="translate(0 0)" style="fill:#29373e"/><path id="Path_8970" data-name="Path 8970" d="M82.95,214a.69.69,0,0,0-.72,0l-12.71,7.37a3.9,3.9,0,0,0-1.32,3.11V237c-.34,1.73,2.12,2.33,3.28,3.17a.7.7,0,0,0,.72,0L85,232.77a3.91,3.91,0,0,0,1.32-3.12V217.18C86.73,215.56,83.87,214.67,82.95,214Z" transform="translate(0 0)" style="fill:#c5c800"/><path id="Path_8971" data-name="Path 8971" d="M71.49,240.19c-1-.62-3.82-1.76-3.29-3.17.14-1.72-.39-13.37.43-14.47l2.68,1.54C70.75,224.82,70.35,240,71.49,240.19Z" transform="translate(0 0)" style="fill:#0e4668"/><path id="Path_8972" data-name="Path 8972" d="M85.6,215.54c-1,0-14.3,7.45-14.34,8.57l-2.68-1.54c-.71-.73,13.25-8.1,13.64-8.51C83,213.57,85,215.36,85.6,215.54Z" transform="translate(0 0)" style="fill:#5291b9"/><path id="Path_8973" data-name="Path 8973" d="M84.92,232.78l-12.77,7.37c-.73.42-1.32-.29-1.32-1.59.46-2.33-1.2-14.24,1.32-15.6l12.75-7.37c.73-.42,1.32.29,1.32,1.58C85.75,219.5,87.41,231.4,84.92,232.78Z" transform="translate(0 0)" style="fill:#055485"/><path id="Path_8974" data-name="Path 8974" d="M128.48,187.72a.66.66,0,0,0-.71,0L115,195.13a3.89,3.89,0,0,0-1.32,3.11v12.48c-.46,1.61,2.37,2.5,3.29,3.16a.66.66,0,0,0,.72,0l12.75-7.37a3.89,3.89,0,0,0,1.32-3.11V190.89C132.12,189.16,129.66,188.54,128.48,187.72Z" transform="translate(0 0)" style="fill:#c5c800"/><path id="Path_8975" data-name="Path 8975" d="M117,213.88c-1-.64-3.75-1.55-3.32-3.17.15-1.41-.41-13.45.43-14.46l2.68,1.54C116.22,198.6,115.82,213.62,117,213.88Z" transform="translate(0 0)" style="fill:#0e4668"/><path id="Path_8976" data-name="Path 8976" d="M131.14,189.24a.7.7,0,0,0-.69.05l-12.75,7.37a2.42,2.42,0,0,0-.9,1.15l-2.68-1.54c-.71-.73,13.25-8.1,13.65-8.51C128.58,187.27,130.47,189.07,131.14,189.24Z" transform="translate(0 0)" style="fill:#5291b9"/><path id="Path_8977" data-name="Path 8977" d="M130.45,206.48l-12.75,7.4c-.73.42-1.32-.28-1.32-1.58.46-2.33-1.2-14.28,1.32-15.64l12.75-7.37c.73-.42,1.32.29,1.32,1.59C131.3,193.22,133,205.11,130.45,206.48Z" transform="translate(0 0)" style="fill:#055485"/><path id="Path_8978" data-name="Path 8978" d="M151.25,174.57a.7.7,0,0,0-.71,0L137.79,182a3.91,3.91,0,0,0-1.32,3.12v12.48c-.46,1.61,2.36,2.5,3.28,3.17a.7.7,0,0,0,.72,0l12.76-7.37a3.91,3.91,0,0,0,1.32-3.11V177.74C155,176.12,152.17,175.23,151.25,174.57Z" transform="translate(0 0)" style="fill:#c5c800"/><path id="Path_8979" data-name="Path 8979" d="M139.78,200.75c-1-.62-3.82-1.76-3.29-3.17.14-1.72-.39-13.37.43-14.47l2.68,1.54c-.83,1-.28,13.09-.43,14.46A1.79,1.79,0,0,0,139.78,200.75Z" transform="translate(0 0)" style="fill:#0e4668"/><path id="Path_8980" data-name="Path 8980" d="M153.93,176.1a.7.7,0,0,0-.69.05l-12.77,7.39a2.42,2.42,0,0,0-.9,1.15l-2.68-1.54c-.71-.73,13.25-8.1,13.65-8.51C151.33,174.15,153.25,175.92,153.93,176.1Z" transform="translate(0 0)" style="fill:#5291b9"/><path id="Path_8981" data-name="Path 8981" d="M153.22,193.34l-12.76,7.35c-.73.42-1.32-.29-1.32-1.59.46-2.33-1.2-14.22,1.32-15.58l12.75-7.37c.73-.42,1.32.29,1.32,1.59C154.07,180.07,155.72,192,153.22,193.34Z" transform="translate(0 0)" style="fill:#055485"/><path id="Path_8982" data-name="Path 8982" d="M151.25,148.25a.66.66,0,0,0-.71,0l-12.75,7.36a3.91,3.91,0,0,0-1.32,3.12v12.48c-.46,1.61,2.36,2.5,3.28,3.16a.66.66,0,0,0,.72,0L153.22,167a3.91,3.91,0,0,0,1.32-3.11V151.42C155,149.8,152.17,148.91,151.25,148.25Z" transform="translate(0 0)" style="fill:#c5c800"/><path id="Path_8983" data-name="Path 8983" d="M139.78,174.44c-1-.62-3.82-1.76-3.29-3.17.14-1.72-.39-13.37.43-14.47l2.68,1.54c-.83,1-.28,13.09-.43,14.45A1.79,1.79,0,0,0,139.78,174.44Z" transform="translate(0 0)" style="fill:#0e4668"/><path id="Path_8984" data-name="Path 8984" d="M153.93,149.78a.7.7,0,0,0-.69.05l-12.75,7.37a2.42,2.42,0,0,0-.9,1.15l-2.68-1.54c-.71-.73,13.25-8.1,13.65-8.51C151.35,147.81,153.24,149.6,153.93,149.78Z" transform="translate(0 0)" style="fill:#5291b9"/><path id="Path_8985" data-name="Path 8985" d="M153.22,167l-12.76,7.37c-.73.42-1.32-.29-1.32-1.59.46-2.33-1.2-14.24,1.32-15.6l12.75-7.37c.73-.42,1.32.29,1.32,1.59C154.07,153.75,155.72,165.65,153.22,167Z" transform="translate(0 0)" style="fill:#055485"/><path id="Path_8986" data-name="Path 8986" d="M151.25,121.93a.7.7,0,0,0-.71,0l-12.75,7.37a3.91,3.91,0,0,0-1.32,3.12v12.48c-.46,1.61,2.36,2.5,3.28,3.16a.66.66,0,0,0,.72,0l12.76-7.39a3.91,3.91,0,0,0,1.32-3.11V125.1C155,123.48,152.17,122.59,151.25,121.93Z" transform="translate(0 0)" style="fill:#c5c800"/><path id="Path_8987" data-name="Path 8987" d="M139.78,148.12c-1-.62-3.82-1.76-3.29-3.17.14-1.72-.39-13.37.43-14.47L139.6,132c-.83,1-.28,13.09-.43,14.46A1.77,1.77,0,0,0,139.78,148.12Z" transform="translate(0 0)" style="fill:#0e4668"/><path id="Path_8988" data-name="Path 8988" d="M153.93,123.45a.7.7,0,0,0-.69.05l-12.75,7.36a2.42,2.42,0,0,0-.9,1.15l-2.68-1.54c-.71-.73,13.25-8.1,13.65-8.51C151.35,121.48,153.24,123.29,153.93,123.45Z" transform="translate(0 0)" style="fill:#5291b9"/><path id="Path_8989" data-name="Path 8989" d="M153.22,140.68l-12.76,7.39c-.73.42-1.32-.29-1.32-1.59.46-2.33-1.2-14.24,1.32-15.6l12.75-7.35c.73-.42,1.32.29,1.32,1.59C154.07,127.42,155.72,139.34,153.22,140.68Z" transform="translate(0 0)" style="fill:#055485"/><path id="Path_8990" data-name="Path 8990" d="M151.25,95.61a.66.66,0,0,0-.71,0L137.79,103a3.91,3.91,0,0,0-1.32,3.12v12.48c-.46,1.61,2.35,2.51,3.28,3.17a.66.66,0,0,0,.72,0l12.76-7.37a3.93,3.93,0,0,0,1.32-3.12V98.78C154.89,97,152.4,96.45,151.25,95.61Z" transform="translate(0 0)" style="fill:#c5c800"/><path id="Path_8991" data-name="Path 8991" d="M139.78,121.8c-1-.63-3.86-1.77-3.32-3.19.14-1.72-.39-13.35.43-14.45l2.68,1.54c-.83,1-.28,13.09-.43,14.45A1.88,1.88,0,0,0,139.78,121.8Z" transform="translate(0 0)" style="fill:#0e4668"/><path id="Path_8992" data-name="Path 8992" d="M153.93,97.15a.7.7,0,0,0-.69.05l-12.75,7.37a2.42,2.42,0,0,0-.9,1.15l-2.68-1.54c-.71-.73,13.25-8.1,13.65-8.51C151.35,95.18,153.24,97,153.93,97.15Z" transform="translate(0 0)" style="fill:#5291b9"/><path id="Path_8993" data-name="Path 8993" d="M153.22,114.37l-12.76,7.37c-.73.42-1.32-.29-1.32-1.59.46-2.32-1.2-14.21,1.32-15.56l12.75-7.37c.73-.42,1.32.29,1.32,1.59C154.07,101.14,155.72,113,153.22,114.37Z" transform="translate(0 0)" style="fill:#055485"/><path id="Path_8994" data-name="Path 8994" d="M151.25,69.29a.66.66,0,0,0-.71,0l-12.75,7.38a3.9,3.9,0,0,0-1.32,3.11V92.3c-.34,1.73,2.12,2.33,3.28,3.17a.66.66,0,0,0,.72,0l12.76-7.37A3.93,3.93,0,0,0,154.54,85V72.46C154.7,70.45,152.52,70.26,151.25,69.29Z" transform="translate(0 0)" style="fill:#c5c800"/><path id="Path_8995" data-name="Path 8995" d="M139.78,95.47c-1-.62-3.82-1.76-3.29-3.17.14-1.73-.39-13.37.43-14.47l2.68,1.54c-.83,1-.28,13.11-.43,14.47A1.78,1.78,0,0,0,139.78,95.47Z" transform="translate(0 0)" style="fill:#0e4668"/><path id="Path_8996" data-name="Path 8996" d="M153.93,70.82a.7.7,0,0,0-.69.05l-12.75,7.37a2.42,2.42,0,0,0-.9,1.15l-2.68-1.54c-.71-.73,13.25-8.1,13.65-8.51C151.35,68.84,153.24,70.64,153.93,70.82Z" transform="translate(0 0)" style="fill:#5291b9"/><path id="Path_8997" data-name="Path 8997" d="M153.22,88.05l-12.76,7.37c-.73.42-1.32-.29-1.32-1.59.47-2.33-1.2-14.27,1.32-15.62l12.75-7.37c.73-.42,1.32.29,1.32,1.59C154.07,74.78,155.72,86.67,153.22,88.05Z" transform="translate(0 0)" style="fill:#055485"/><path id="Path_8998" data-name="Path 8998" d="M128.48,82.43a.7.7,0,0,0-.71,0L115,89.83A3.91,3.91,0,0,0,113.71,93v12.48c-.45,1.61,2.36,2.5,3.29,3.16a.66.66,0,0,0,.72,0l12.75-7.37a3.89,3.89,0,0,0,1.32-3.11V85.6C132.23,84,129.41,83.09,128.48,82.43Z" transform="translate(0 0)" style="fill:#c5c800"/><path id="Path_8999" data-name="Path 8999" d="M117,108.62h0c-.93-.69-3.71-1.59-3.27-3.2.15-1.41-.41-13.43.43-14.44l2.68,1.56C116.24,93.41,115.84,108.25,117,108.62Z" transform="translate(0 0)" style="fill:#0e4668"/><path id="Path_9000" data-name="Path 9000" d="M131.14,84a.7.7,0,0,0-.69.05L117.7,91.38a2.42,2.42,0,0,0-.9,1.15L114.12,91c-.71-.73,13.25-8.1,13.65-8.51C128.58,82,130.47,83.79,131.14,84Z" transform="translate(0 0)" style="fill:#5291b9"/><path id="Path_9001" data-name="Path 9001" d="M130.45,101.2l-12.75,7.37c-.73.42-1.32-.29-1.32-1.59.46-2.33-1.2-14.22,1.32-15.57L130.45,84c.73-.42,1.32.29,1.32,1.59C131.3,87.95,133,99.84,130.45,101.2Z" transform="translate(0 0)" style="fill:#055485"/><path id="Path_9002" data-name="Path 9002" d="M105.71,95.57a.7.7,0,0,0-.71,0L92.25,103a3.87,3.87,0,0,0-1.32,3.11v12.48c-.46,1.61,2.36,2.5,3.28,3.17a.71.71,0,0,0,.73,0l12.75-7.37a3.89,3.89,0,0,0,1.32-3.11V98.75C109.46,97.13,106.64,96.24,105.71,95.57Z" transform="translate(0 0)" style="fill:#c5c800"/><path id="Path_9003" data-name="Path 9003" d="M94.25,121.76c-1-.63-3.75-1.54-3.32-3.15.15-1.4-.41-13.48.43-14.49L94,105.67c-.83,1-.28,13.09-.43,14.46A1.83,1.83,0,0,0,94.25,121.76Z" transform="translate(0 0)" style="fill:#055485"/><path id="Path_9004" data-name="Path 9004" d="M108.37,97.1c-1,0-14.25,7.45-14.3,8.57l-2.68-1.54c-.71-.73,13.25-8.1,13.65-8.51C105.81,95.13,107.71,96.93,108.37,97.1Z" transform="translate(0 0)" style="fill:#5291b9"/><path id="Path_9005" data-name="Path 9005" d="M107.68,114.34l-12.75,7.37c-.73.42-1.32-.29-1.32-1.59.46-2.33-1.2-14.24,1.32-15.6l12.75-7.37c.73-.42,1.32.29,1.32,1.59C108.53,101.07,110.21,113,107.68,114.34Z" transform="translate(0 0)" style="fill:#055485"/><path id="Path_9006" data-name="Path 9006" d="M83,108.72a.69.69,0,0,0-.72,0l-12.71,7.37a3.89,3.89,0,0,0-1.32,3.11v12.48c-.46,1.61,2.36,2.5,3.28,3.17a.66.66,0,0,0,.72,0l12.72-7.37a3.89,3.89,0,0,0,1.32-3.11V111.89C86.51,110,84,109.54,83,108.72Z" transform="translate(0 0)" style="fill:#c5c800"/><path id="Path_9007" data-name="Path 9007" d="M71.49,134.91c-1-.62-3.82-1.76-3.29-3.17.14-1.72-.39-13.37.43-14.47l2.68,1.54C70.76,119.49,70.35,134.82,71.49,134.91Z" transform="translate(0 0)" style="fill:#0e4668"/><path id="Path_9008" data-name="Path 9008" d="M85.6,110.25c-1,0-14.3,7.45-14.34,8.57l-2.68-1.54c-.71-.73,13.25-8.1,13.64-8.51C83,108.27,85,110.08,85.6,110.25Z" transform="translate(0 0)" style="fill:#5291b9"/><path id="Path_9009" data-name="Path 9009" d="M84.92,127.48l-12.77,7.37c-.73.42-1.32-.28-1.32-1.58.46-2.33-1.2-14.25,1.32-15.6L84.9,110.3c.73-.42,1.32.29,1.32,1.59C85.75,114.21,87.42,126.12,84.92,127.48Z" transform="translate(0 0)" style="fill:#055485"/><path id="Path_9010" data-name="Path 9010" d="M105.72,200.86a.66.66,0,0,0-.71,0l-12.75,7.37a3.89,3.89,0,0,0-1.32,3.11v12.48c-.34,1.73,2.12,2.33,3.28,3.17a.66.66,0,0,0,.73,0l12.75-7.36a3.91,3.91,0,0,0,1.32-3.12V204C109.28,202.13,106.74,201.68,105.72,200.86Z" transform="translate(0 0)" style="fill:#d8d8d8"/><path id="Path_9011" data-name="Path 9011" d="M108.37,202.39c-1,0-14.25,7.45-14.3,8.57l-2.68-1.54c-.71-.73,13.25-8.1,13.65-8.51C105.81,200.41,107.71,202.21,108.37,202.39Z" transform="translate(0 0)" style="fill:#ececec"/><path id="Path_9012" data-name="Path 9012" d="M94.25,227.07c-1-.64-3.75-1.55-3.32-3.17.15-1.4-.41-13.5.43-14.5L94,210.95c-.83,1-.28,13.09-.43,14.45A1.9,1.9,0,0,0,94.25,227.07Z" transform="translate(0 0)" style="fill:#040405;opacity:0.20000000298023224;isolation:isolate"/><path id="Path_9013" data-name="Path 9013" d="M82.95,187.68a.69.69,0,0,0-.72,0l-12.71,7.37a3.89,3.89,0,0,0-1.32,3.11v12.49c-.34,1.73,2.12,2.33,3.28,3.17a.7.7,0,0,0,.72,0L85,206.49a3.91,3.91,0,0,0,1.32-3.12V190.85C86.55,188.95,84,188.5,82.95,187.68Z" transform="translate(0 0)" style="fill:#d8d8d8"/><path id="Path_9014" data-name="Path 9014" d="M85.6,189.2c-1,0-14.3,7.45-14.34,8.57l-2.68-1.54c-.71-.73,13.25-8.1,13.64-8.51C83,187.23,85,189,85.6,189.2Z" transform="translate(0 0)" style="fill:#ececec"/><path id="Path_9015" data-name="Path 9015" d="M71.49,213.88c-1-.62-3.82-1.76-3.29-3.17.14-1.72-.39-13.38.43-14.48l2.68,1.54c-.83,1-.28,13.09-.43,14.45A1.67,1.67,0,0,0,71.49,213.88Z" transform="translate(0 0)" style="fill:#040405;opacity:0.20000000298023224;isolation:isolate"/><path id="Path_9016" data-name="Path 9016" d="M128.48,161.4a.66.66,0,0,0-.71,0L115,168.8a3.89,3.89,0,0,0-1.32,3.11V184.4c-.45,1.61,2.37,2.51,3.29,3.17a.66.66,0,0,0,.72,0l12.75-7.37a3.89,3.89,0,0,0,1.32-3.11V164.56C132.12,162.83,129.66,162.22,128.48,161.4Z" transform="translate(0 0)" style="fill:#d8d8d8"/><path id="Path_9017" data-name="Path 9017" d="M131.14,162.92a.7.7,0,0,0-.69.05l-12.75,7.38a2.42,2.42,0,0,0-.9,1.15L114.12,170c-.71-.73,13.25-8.1,13.65-8.51C128.58,161,130.47,162.75,131.14,162.92Z" transform="translate(0 0)" style="fill:#ececec"/><path id="Path_9018" data-name="Path 9018" d="M117,187.58c-1-.64-3.75-1.55-3.32-3.17.15-1.41-.41-13.47.43-14.47l2.68,1.54C116.22,172.36,115.82,187.21,117,187.58Z" transform="translate(0 0)" style="fill:#040405;opacity:0.20000000298023224;isolation:isolate"/><path id="Path_9019" data-name="Path 9019" d="M105.71,174.54a.66.66,0,0,0-.71,0l-12.76,7.37a3.89,3.89,0,0,0-1.32,3.11v12.48c-.46,1.61,2.36,2.5,3.28,3.17a.66.66,0,0,0,.73,0l12.75-7.36a3.91,3.91,0,0,0,1.32-3.12V177.71C109.28,175.81,106.74,175.36,105.71,174.54Z" transform="translate(0 0)" style="fill:#d8d8d8"/><path id="Path_9020" data-name="Path 9020" d="M108.37,176.06c-1,0-14.25,7.45-14.3,8.57l-2.68-1.54c-.71-.73,13.25-8.1,13.65-8.51C105.81,174.09,107.71,175.89,108.37,176.06Z" transform="translate(0 0)" style="fill:#ececec"/><path id="Path_9021" data-name="Path 9021" d="M94.25,200.72c-1-.64-3.75-1.55-3.32-3.17.15-1.41-.41-13.47.43-14.48L94,184.63C93.47,185.48,93.06,200.4,94.25,200.72Z" transform="translate(0 0)" style="fill:#040405;opacity:0.20000000298023224;isolation:isolate"/><path id="Path_9022" data-name="Path 9022" d="M83,161.37a.71.71,0,0,0-.72,0l-12.71,7.37a3.91,3.91,0,0,0-1.32,3.12v12.48c-.46,1.61,2.36,2.5,3.28,3.16a.66.66,0,0,0,.68,0l12.75-7.37A3.89,3.89,0,0,0,86.23,177V164.54C86.69,162.93,83.88,162,83,161.37Z" transform="translate(0 0)" style="fill:#d8d8d8"/><path id="Path_9023" data-name="Path 9023" d="M85.6,162.9c-1,0-14.3,7.48-14.34,8.6L68.58,170c-.71-.73,13.25-8.1,13.64-8.51C83,161,85,162.71,85.6,162.9Z" transform="translate(0 0)" style="fill:#ececec"/><path id="Path_9024" data-name="Path 9024" d="M71.49,187.56c-1-.62-3.82-1.76-3.29-3.17.14-1.72-.39-13.37.43-14.47l2.68,1.54C70.75,172.18,70.35,187.41,71.49,187.56Z" transform="translate(0 0)" style="fill:#040405;opacity:0.20000000298023224;isolation:isolate"/><path id="Path_9025" data-name="Path 9025" d="M128.48,135.08a.66.66,0,0,0-.71,0L115,142.49a3.89,3.89,0,0,0-1.32,3.11v12.48c-.45,1.61,2.37,2.51,3.29,3.17a.7.7,0,0,0,.72,0l12.73-7.35a3.91,3.91,0,0,0,1.32-3.12v-12.5C132.1,136.53,129.67,135.91,128.48,135.08Z" transform="translate(0 0)" style="fill:#d8d8d8"/><path id="Path_9026" data-name="Path 9026" d="M131.14,136.61a.7.7,0,0,0-.69.05L117.7,144a2.42,2.42,0,0,0-.9,1.15l-2.68-1.54c-.71-.73,13.25-8.1,13.65-8.51C128.58,134.63,130.47,136.44,131.14,136.61Z" transform="translate(0 0)" style="fill:#ececec"/><path id="Path_9027" data-name="Path 9027" d="M117,161.27c-1-.64-3.75-1.55-3.32-3.17.15-1.41-.41-13.47.43-14.47l2.68,1.54c-.83,1-.28,13.09-.43,14.46A1.9,1.9,0,0,0,117,161.27Z" transform="translate(0 0)" style="fill:#040405;opacity:0.20000000298023224;isolation:isolate"/><path id="Path_9028" data-name="Path 9028" d="M105.71,148.23a.66.66,0,0,0-.71,0l-12.76,7.37a3.91,3.91,0,0,0-1.32,3.12v12.48c-.46,1.61,2.35,2.51,3.28,3.17a.66.66,0,0,0,.73,0L107.68,167a3.91,3.91,0,0,0,1.32-3.12V151.4C109.46,149.78,106.64,148.89,105.71,148.23Z" transform="translate(0 0)" style="fill:#d8d8d8"/><path id="Path_9029" data-name="Path 9029" d="M108.37,149.76c-1,0-14.29,7.43-14.34,8.55l-2.68-1.54c-.71-.73,13.25-8.1,13.65-8.51C105.8,147.77,107.73,149.59,108.37,149.76Z" transform="translate(0 0)" style="fill:#ececec"/><path id="Path_9030" data-name="Path 9030" d="M94.25,174.42c-1-.64-3.75-1.55-3.32-3.17.15-1.41-.41-13.47.43-14.47L94,158.32C93.47,159.16,93.06,174.12,94.25,174.42Z" transform="translate(0 0)" style="fill:#040405;opacity:0.20000000298023224;isolation:isolate"/><path id="Path_9031" data-name="Path 9031" d="M82.95,135.06a.69.69,0,0,0-.72,0l-12.71,7.37a3.89,3.89,0,0,0-1.32,3.11v12.49c-.34,1.73,2.12,2.33,3.28,3.17a.7.7,0,0,0,.72,0L85,153.83a3.91,3.91,0,0,0,1.32-3.12V138.22C86.55,136.32,84,135.87,82.95,135.06Z" transform="translate(0 0)" style="fill:#d8d8d8"/><path id="Path_9032" data-name="Path 9032" d="M85.6,136.58c-1,0-14.3,7.42-14.34,8.54l-2.68-1.54c-.71-.73,13.25-8.1,13.65-8.51C83,134.59,85,136.42,85.6,136.58Z" transform="translate(0 0)" style="fill:#ececec"/><path id="Path_9033" data-name="Path 9033" d="M71.49,161.24c-1-.62-3.82-1.76-3.29-3.17.14-1.72-.39-13.37.43-14.47l2.68,1.54C70.75,145.86,70.35,161.09,71.49,161.24Z" transform="translate(0 0)" style="fill:#040405;opacity:0.20000000298023224;isolation:isolate"/><path id="Path_9034" data-name="Path 9034" d="M128.48,108.77a.66.66,0,0,0-.71,0L115,116.18a3.89,3.89,0,0,0-1.32,3.11v12.48c-.45,1.61,2.37,2.51,3.29,3.17a.66.66,0,0,0,.72,0l12.75-7.37a3.89,3.89,0,0,0,1.32-3.11V111.94C132.12,110.2,129.66,109.59,128.48,108.77Z" transform="translate(0 0)" style="fill:#d8d8d8"/><path id="Path_9035" data-name="Path 9035" d="M131.14,110.29a.7.7,0,0,0-.69.05l-12.75,7.37a2.42,2.42,0,0,0-.9,1.15l-2.68-1.54c-.71-.73,13.25-8.1,13.65-8.51C128.58,108.32,130.47,110.12,131.14,110.29Z" transform="translate(0 0)" style="fill:#ececec"/><path id="Path_9036" data-name="Path 9036" d="M117,135c-1-.63-3.74-1.54-3.3-3.15.15-1.4-.41-13.48.43-14.49l2.68,1.54c-.83,1-.28,13.09-.43,14.46A1.86,1.86,0,0,0,117,135Z" transform="translate(0 0)" style="fill:#040405;opacity:0.20000000298023224;isolation:isolate"/><path id="Path_9037" data-name="Path 9037" d="M105.71,121.91a.66.66,0,0,0-.71,0l-12.76,7.37a3.89,3.89,0,0,0-1.32,3.11v12.48c-.46,1.61,2.36,2.5,3.28,3.17a.66.66,0,0,0,.73,0l12.75-7.37a3.91,3.91,0,0,0,1.32-3.12V125.08C109.28,123.18,106.74,122.73,105.71,121.91Z" transform="translate(0 0)" style="fill:#d8d8d8"/><path id="Path_9038" data-name="Path 9038" d="M108.37,123.44c-1,0-14.25,7.45-14.3,8.57l-2.68-1.54c-.71-.73,13.25-8.1,13.65-8.51C105.81,121.46,107.71,123.26,108.37,123.44Z" transform="translate(0 0)" style="fill:#ececec"/><path id="Path_9039" data-name="Path 9039" d="M94.25,148.1c-1-.64-3.75-1.55-3.32-3.17.15-1.41-.41-13.47.43-14.48L94,132C93.47,132.81,93.06,147.84,94.25,148.1Z" transform="translate(0 0)" style="fill:#040405;opacity:0.20000000298023224;isolation:isolate"/><path id="Path_9040" data-name="Path 9040" d="M77.35,153.31c-.06-.23,1.6-6.63,1.6-6.83l-2.18,1.27c-.4.07-.17-1.43-.14-1.65s3.57-2.08,3.69-2.19c.87.85-1.45,7.33-1.53,8.59.09.3-1.52,1.39-1.44.8Z" transform="translate(0 0)" style="fill:#354952"/><path id="Path_9041" data-name="Path 9041" d="M99.19,135.36c-.24-3.89,5.76-6,3.77-.66,2.84,3.84-6,8.76-3.38,1.92A1.82,1.82,0,0,1,99.19,135.36Zm1.26,2.49c.13,1.17,1.78-.2,1.65-.94-.1-1.17-1.82.18-1.59.94Zm.11-3.29c.13,1.19,1.57-.11,1.43-.82-.12-1.17-1.55.1-1.4.81Z" transform="translate(0 0)" style="fill:#354952"/><path id="Path_9042" data-name="Path 9042" d="M121.9,122.65c0-4.94,6.29-6.34,3.84-.17l-1.41,3.82c0,.05-.05.12-.08.19a4.12,4.12,0,0,1-1.44.83c-.23-.14.88-2.72.91-2.92C122.58,124.9,121.83,123.67,121.9,122.65Zm3-1.72c-.23-1.69-2.07.39-1.54,1.3S124.95,121.62,124.87,120.94Z" transform="translate(0 0)" style="fill:#354952"/><path id="Path_9043" data-name="Path 9043" d="M78.9,179c-.38.19-.13-1.2-.2-1.34A20.58,20.58,0,0,1,76.22,179a4.78,4.78,0,0,1,0-1.92c.68-1.19,1.9-6.64,3.75-6.61.17.14,0,4.39.06,4.57.16,0,.89-.7.86-.18,0,.86.18,1.7-.86,2C80.15,178.15,80.12,178.41,78.9,179Zm-.16-3.21v-2.1l-1.08,2.73Z" transform="translate(0 0)" style="fill:#354952"/><path id="Path_9044" data-name="Path 9044" d="M100.52,164.09c1.57,1.54,2.38-3.76.2-1.05-.15,0-1.45,1.1-1.36.47.38-4.64-.83-4.14,3.6-6.46.39-.2.12,1.3.2,1.43.16.48-2.13,1.43-2.36,1.66l0,1c5-4.35,2.07,8.34-1.4,4.59-.11-.35-.31-.87,0-1.16C99.52,164.58,100.35,163.9,100.52,164.09Z" transform="translate(0 0)" style="fill:#354952"/><path id="Path_9045" data-name="Path 9045" d="M126.29,148.84c0,5-6.37,6.39-3.87.17a42.6,42.6,0,0,1,1.65-4.12l1.18-.66c.56-.13-.86,2.74-.82,2.9C125.59,146.53,126.46,147.74,126.29,148.84Zm-3.05,1.77c.3,2.09,2.83-1.38,1.15-1.65A1.71,1.71,0,0,0,123.23,150.61Z" transform="translate(0 0)" style="fill:#354952"/><path id="Path_9046" data-name="Path 9046" d="M77,201c-.18-.54,1.61-3,1.78-3.51.11-.16,1.3-1.08,1.29-.54-.06,0,.17,8.23-.2,7.8-.16,0-1.23,1-1.17.38v-5a16.13,16.13,0,0,1-1,1.69C77.55,201.92,77.1,201,77,201Z" transform="translate(0 0)" style="fill:#354952"/><path id="Path_9047" data-name="Path 9047" d="M103.35,185.85c.06,1.67-1.18,3.31-1.95,4.72.14,0,2.15-1.56,2.06-.9-.06.32.17,1.44-.2,1.63l-3.92,2.26c-.37.18-.13-1-.2-1.16-.25-1.16,4.5-6.1,2.23-6.27-.59.3-.56,1-.8,1.52a8.16,8.16,0,0,1-1.1.69h-.11C98.6,186,103.25,181.62,103.35,185.85Z" transform="translate(0 0)" style="fill:#354952"/><path id="Path_9048" data-name="Path 9048" d="M125.83,170.18c.8.74-.45,2.9-.85,3.79,4.36.4-2.5,9.27-3,4.13,0-.15.95-.6,1-.69.27-.16.4.25.68.21,1.65-.25,1.77-2.88-.16-1.33-.37.18-.13-1-.2-1.16a15,15,0,0,1,.94-2.18c-1.34.54-2.55,2.38-2.08-.52a.38.38,0,0,1,.15-.17Z" transform="translate(0 0)" style="fill:#354952"/><path id="Path_9049" data-name="Path 9049" d="M101.3,210.58c3.16-1.59,2.26,4.84,1.62,6.36C98.67,223.82,97.64,212.27,101.3,210.58Zm.8,4.62c-.13-.65.34-2.58-.43-2.89-2.55.51-.7,8.29.42,2.89Z" transform="translate(0 0)" style="fill:#354952"/><path id="Path_9050" data-name="Path 9050" d="M75.39,126.38c-.08,0-.75-1.54-.8-1.61v3.78a.56.56,0,0,1-.06.25c0,.2-1,.63-1.11.74-.53.2,0-7.43-.2-7.58-.07-.44.81-.72,1.06-.91.38-.35,1.34,2.48,1.52,2.6.19-.34,1.14-4.23,1.52-4.34.16,0,1.1-.89,1.06-.32v7.38c0,.44-1,.94-1.31,1-.16-.14,0-3.78-.06-4C76.67,124.07,76.49,126.5,75.39,126.38Z" transform="translate(0 0)" style="fill:#fafafa"/><path id="Path_9051" data-name="Path 9051" d="M80.61,120.42c-.32,3,.8,4.11,2.11.79,2.63-2,.12,3.4-1.18,3.72-3,1.49-2.41-3.48-2.13-5.11,1.51-5.89,6.79-2.59,3.31-.75C81.78,117.49,80.65,119,80.61,120.42Z" transform="translate(0 0)" style="fill:#fafafa"/><path id="Path_9052" data-name="Path 9052" d="M98.19,113.21s-.77-1.55-.8-1.61c0,.1.05,4.06-.06,4,0,.2-1,.62-1.11.73-.54.22,0-7.42-.2-7.57-.07-.45.81-.72,1.06-.92.38-.36,1.34,2.48,1.52,2.59.18-.35,1.14-4.23,1.52-4.34.15,0,1.11-.89,1.06-.32v7.38c0,.44-1,.94-1.31,1-.16-.13,0-3.8-.06-4C99.47,110.9,99.3,113.29,98.19,113.21Z" transform="translate(0 0)" style="fill:#fafafa"/><path id="Path_9053" data-name="Path 9053" d="M104.47,103.62c2.72-1.6,2.44,3,1.2,4.2,0,.35,1.31,2.36.76,2.64-.14,0-1.11.77-1.23.58,0,.07-.9-2.08-.92-2.12l-.66.4c-.08.33.19,2.69-.2,2.88-.16,0-1.23,1-1.17.38.05-.24-.11-7.41.06-7.61A15.42,15.42,0,0,1,104.47,103.62Zm-.84,4c1.78-.53,2.44-3.46,0-1.7Z" transform="translate(0 0)" style="fill:#fafafa"/><path id="Path_9054" data-name="Path 9054" d="M121.83,99.56c-.07,0-.75-1.53-.8-1.61-.07.29.19,4.14-.2,4.24-.16,0-1.23,1-1.17.38.13-.17-.27-8,.2-7.82.15,0,.95-.69,1.08-.49s1.24,2.44,1.33,2.57c.18-.35,1.14-4.23,1.52-4.34.16,0,1.1-.89,1.06-.32-.09.1.22,8.08-.2,7.8-.16,0-1.22,1-1.17.38V96.55C123.14,97.26,123,99.7,121.83,99.56Z" transform="translate(0 0)" style="fill:#fafafa"/><path id="Path_9055" data-name="Path 9055" d="M125.95,96.65c-.39.18-.12-1.2-.2-1.34-.17-.49,2.31-1.5,2.54-1.74.38-.19.13,1.19.2,1.33C128.66,95.4,126.18,96.42,125.95,96.65Z" transform="translate(0 0)" style="fill:#fafafa"/><path id="Path_9056" data-name="Path 9056" d="M144,86.75s-.76-1.55-.8-1.61v3.78a.57.57,0,0,1-.06.25c0,.2-1,.61-1.12.73-.54.2,0-7.41-.2-7.57-.07-.44.81-.72,1.06-.91.38-.35,1.34,2.48,1.52,2.6.19-.35,1.15-4.23,1.52-4.35.16,0,1.11-.88,1.06-.32v7.39c0,.44-1,.94-1.31,1-.16-.14,0-3.79-.06-4C145.32,84.44,145.13,86.87,144,86.75Z" transform="translate(0 0)" style="fill:#fafafa"/><path id="Path_9057" data-name="Path 9057" d="M150.48,82.49c-.07.34.18,2.11-.2,2.3-.09,0-1,.67-1.07.54a15,15,0,0,1-.06-2.07c-.15,0-1.41,1.13-1.35.52-.13-1.46.09-1.61,1.35-2.24.07-.34-.18-2.15.2-2.35.09,0,1-.67,1.07-.54a15,15,0,0,1,.06,2.07c1.34-.77,1.42-1.11,1.35.68C151.92,81.86,150.73,82.27,150.48,82.49Z" transform="translate(0 0)" style="fill:#fafafa"/><path id="Path_9058" data-name="Path 9058" d="M144.63,111.55c-.37.15-.26-1.68,0-1.76s4.41-2.7,4.56-2.55c.08.37.19,1.47-.14,1.76Z" transform="translate(0 0)" style="fill:#fafafa"/><path id="Path_9059" data-name="Path 9059" d="M147.57,105.79c.17.89-1.31,2.63-1.46.85C145.92,105.75,147.42,104,147.57,105.79Z" transform="translate(0 0)" style="fill:#fafafa"/><path id="Path_9060" data-name="Path 9060" d="M147.57,112.32c-.15-1.77-1.65,0-1.46.85C146.26,114.94,147.74,113.21,147.57,112.32Z" transform="translate(0 0)" style="fill:#fafafa"/><path id="Path_9061" data-name="Path 9061" d="M145.9,136.34c-1.45-1.16-1-1.31-.3-2.77.16-.67,1.05.7,1.24.75l1-2a.38.38,0,0,1,.14-.17c.13-.16.71.62.8.66.28.28-.9,2.16-1,2.46,1.47,1.13,1,1.3.3,2.74-.17.65-1-.68-1.24-.74a21,21,0,0,1-1.1,2.2c-.12.17-.71-.63-.8-.66C144.66,138.51,145.84,136.64,145.9,136.34Z" transform="translate(0 0)" style="fill:#fafafa"/><path id="Path_9062" data-name="Path 9062" d="M144.63,164.27c-.37.15-.26-1.67,0-1.76s4.42-2.7,4.56-2.55c.09.37.19,1.47-.14,1.76Z" transform="translate(0 0)" style="fill:#fafafa"/><path id="Path_9063" data-name="Path 9063" d="M76.68,224.94c.47-.47,2,6.86,1.93,6.81,0,.15-1,.6-1,.68-.4.26-.39-.81-.5-1l-2,1.14c-.11.34-.11,1.34-.5,1.53-.22,0-1.29,1-1.1.21l1.62-8.14C75.11,225.59,76.3,225.21,76.68,224.94Zm-1.23,5.68,1.2-.69-.6-2.39Z" transform="translate(0 0)" style="fill:#fafafa"/><path id="Path_9064" data-name="Path 9064" d="M80.33,225.87c-.32,3,.79,4.12,2.1.79,2.31-1.77.56,2.24-.27,3-3.77,3.73-3.77-3.51-2.58-5.62,1.88-4.21,6-1.08,2.85.5-.18.12-.22-.09-.25-.21-.59-1.48-2.06.65-1.85,1.56Z" transform="translate(0 0)" style="fill:#fafafa"/><path id="Path_9065" data-name="Path 9065" d="M122,202.27c-.4.08-.17-1.37-.14-1.59s4.19-2.43,4.35-2.61c.41-.1.17,1.37.14,1.58S122.11,202.11,122,202.27Zm0,2.81c-.4.08-.17-1.37-.14-1.59s4.19-2.43,4.35-2.61c.41-.1.17,1.37.14,1.58S122.11,204.92,122,205.08Z" transform="translate(0 0)" style="fill:#fafafa"/><path id="Path_9066" data-name="Path 9066" d="M147.51,188.92c-.07.34.19,2.1-.2,2.29-1.84,1.38-.93-.42-1.13-1.53-.16,0-1.41,1.09-1.35.47-.13-1.46.1-1.6,1.35-2.23.07-.35-.19-2.11.2-2.31,1.84-1.36.93.41,1.13,1.54.16,0,1.4-1.09,1.34-.47C149,188.13,148.76,188.29,147.51,188.92Z" transform="translate(0 0)" style="fill:#fafafa"/><path id="Path_9067" data-name="Path 9067" d="M61.81,62.2a11.67,11.67,0,0,0-1.69,5.66C61.74,72.31,57,247,61.71,250.34c-3-2.5-12.87-5.26-12.31-9.87V61.62A11.67,11.67,0,0,1,51.08,56Z" transform="translate(0 0)" style="fill:#1c262b"/><path id="Path_9068" data-name="Path 9068" d="M156.67,7.45l.06,0c-3.3-2.06-95,51.89-94.92,54.71L51.08,56a11.68,11.68,0,0,1,4-4.25L141.91,1.63a4,4,0,0,1,4-.43C146.94,1.77,155.64,6.84,156.67,7.45Z" transform="translate(0 0)" style="fill:#354952"/><path id="Path_9069" data-name="Path 9069" d="M149.88,58.58h0c-.71,1.85-79.06,45.62-80.3,46.85-.79.45-1.43.08-1.43-.83.56-1.23-1.46-40.25,1.42-39.57l45.71-26.38Z" transform="translate(0 0)" style="fill:#354952"/><path id="Path_9070" data-name="Path 9070" d="M150.3,20.08v37.1a2.92,2.92,0,0,1-.41,1.4l-34.6-19.92L147.6,20C148.42,19.45,150.29,18.23,150.3,20.08Z" transform="translate(0 0)" style="fill:#1c262b"/><path id="Path_9071" data-name="Path 9071" d="M147.62,20V55.65a3.15,3.15,0,0,1-1.43,2.47l-78,45V67.54a3.17,3.17,0,0,1,1.43-2.47Z" transform="translate(0 0)" style="fill:#c5c800"/><g id="Group_30956" data-name="Group 30956" style="opacity:0.5"><path id="Path_9073" data-name="Path 9073" d="M82.84,84.57l-2.78,1.61C77.77,87.69,76.26,83.29,78,82c1.23-.38.28,3.07,2.08,2,3.89-1.83,4.48-3,4.18-7.29-1.8,2.16-7.1,5.73-7,.31-.14-2.85.18-6.33,2.79-8,2.39-1.55,5.52-3.56,5.58,1.07C85.3,74.08,87,82,82.84,84.57Zm1.4-13.66c.12-.76-.57-1.94-1.41-1.33s-3.45,1.61-3.76,2.8c-.53,1.43-.77,3.82,0,5.17.68.81,3.1-1.38,3.77-1.55,1.64-1,1.41-3.43,1.4-5.1Z" transform="translate(0 0)" style="fill:#040405"/><path id="Path_9074" data-name="Path 9074" d="M89.8,69.31c.84,1.54,6.66-6.19,7,.79.14,2.84-.18,6.33-2.79,8-2.39,1.55-5.51,3.56-5.58-1.08,0-.58.45-1.85,1.19-1.47.35.74.18,2.73,1.59,2,1.7-.95,4.44-2.17,4.18-4.56-.1-.88.3-2.72-.41-3.42-1.5-1.21-6.43,5.21-6.55,1,.24-1.15-.62-6.13.7-6.82l7-4c1.17-.4.7,1.82,0,2.12l-5.94,3.41a.66.66,0,0,0-.25.3C89.65,65.78,89.84,69,89.8,69.31Z" transform="translate(0 0)" style="fill:#040405"/><path id="Path_9075" data-name="Path 9075" d="M105.13,71.71c-2.39,1.55-5.51,3.57-5.58-1.07.34-4-1.38-11.92,2.79-14.47,2.39-1.55,5.51-3.56,5.58,1.08C107.58,61.23,109.3,69.17,105.13,71.71Zm-2.78-.54c.58-.4,3.14-1.6,3.44-2.26L101,61.45c.43.95-1.2,11,1.38,9.73Zm2.78-14.46c-.58.4-3.15,1.59-3.44,2.26l4.84,7.46c-.43-.94,1.21-11.09-1.4-9.73Z" transform="translate(0 0)" style="fill:#040405"/><path id="Path_9076" data-name="Path 9076" d="M115.53,65.7c-.28,0-4.48,2.93-4.66,2.43-.87-1.36.82-2.46,1.89-2.94-.46-.83,1.25-13.66-1.37-12.1h0c-1.17.39-.7-1.83,0-2.14h0c4.71-2.43,2.2,11.53,2.79,13.39.35-.09,1.53-1.17,1.89-.8A1.69,1.69,0,0,1,115.53,65.7Z" transform="translate(0 0)" style="fill:#040405"/><path id="Path_9077" data-name="Path 9077" d="M124.59,60.47C122.2,62,119.08,64,119,59.4c.35-4-1.38-11.92,2.79-14.46,2.39-1.55,5.5-3.57,5.58,1.07C127,50,128.76,57.92,124.59,60.47Zm-2.78-.54c.58-.41,3.15-1.6,3.44-2.27l-4.83-7.47c.43,1-1.21,11,1.39,9.74Zm2.78-14.46c-.58.41-3.15,1.6-3.44,2.27L126,55.2c-.43-.95,1.21-11.08-1.4-9.73Z" transform="translate(0 0)" style="fill:#040405"/><path id="Path_9078" data-name="Path 9078" d="M138.3,52.24c-2,3.21-.94-5.6-1.19-6-1.78,2.17-7.11,5.73-7,.32.35-1.11-1-7.17,1.19-6.85.93,1-1.11,8.34,1.6,7.35,5.38-2.15,4.05-5.15,4.17-9.9-.18-.92,1.32-2.44,1.39-.81v15A2,2,0,0,1,138.3,52.24Z" transform="translate(0 0)" style="fill:#040405"/></g><g id="freepik--character--inject-16-2"><path id="Path_9079" data-name="Path 9079" d="M283.75,216.18c-13.94,39-7.86,37.76-21.38-.24Z" transform="translate(0 0)" style="fill:#ef9296"/><path id="Path_9080" data-name="Path 9080" d="M272.12,244.95c1.95,3,3.07-4.94,3.68-5.62a5.24,5.24,0,0,1-5.76-.59Z" transform="translate(0 0)" style="fill:#1c262b"/><path id="Path_9081" data-name="Path 9081" d="M262.75,87.59v6.21l-.35,122.13c4.78,5.87,17.64,5.52,21.35.27l.34-122.06v-6.5C283.85,91.83,262.58,91.81,262.75,87.59Z" transform="translate(0 0)" style="fill:#c5c800"/><path id="Path_9082" data-name="Path 9082" d="M262.75,87.59v6.21l-.35,122.13c4.78,5.87,17.64,5.52,21.35.27l.34-122.06v-6.5C283.85,91.83,262.58,91.81,262.75,87.59Z" transform="translate(0 0)" style="fill:#c5c800"/><path id="Path_9083" data-name="Path 9083" d="M262.7,98.31c-.05,6.78-1.39,8.81,8.3,9.7,5.93.57,13-1,13-3.46V98.28c.2,4.21-19.89,5-21.32.25h0A.4.4,0,0,1,262.7,98.31Z" transform="translate(0 0)" style="fill:#e7e6e6"/><path id="Path_9084" data-name="Path 9084" d="M262.71,99.88c-.15,4.23,21.19,4.18,21.34-.05V93.54c-.15,4.23-21.49,4.28-21.33.05Z" transform="translate(0 0)" style="fill:#c5c800"/><path id="Path_9085" data-name="Path 9085" d="M262.75,87.59v6.21c-.18,4.15,20.41,4.28,21.34.31.12-.22,0-6.26,0-6.5C283.85,91.83,262.58,91.81,262.75,87.59Z" transform="translate(0 0)" style="fill:#e7e6e6"/><path id="Path_9086" data-name="Path 9086" d="M284.2,61c-.24-8.27-24.64-7.69-21.33,2.6l-.11,24c-.08,1.8,3.76,3,8.2,3.42,5.94.58,13-1,13.12-3.4h0C284.1,87.42,284.12,61.14,284.2,61Z" transform="translate(0 0)" style="fill:#ec797c"/><path id="Ellipse_107" data-name="Ellipse 107" d="M273.53,55.21c13.85-.11,13.85,11.1,0,11C259.68,66.3,259.68,55.09,273.53,55.21Z" transform="translate(0 0)" style="fill:#fff;opacity:0.20000000298023224;isolation:isolate"/><path id="Path_9087" data-name="Path 9087" d="M284.08,94.11,284.2,61c-.14,2.6-4.57,5.05-9.4,5.23-.11,16.67,0,166.91-.92,178.76l9.89-28.78h0Z" transform="translate(0 0)" style="fill:#040405;opacity:0.10000000149011612;isolation:isolate"/><path id="Path_9088" data-name="Path 9088" d="M246.78,108.86c4-.59,10.08,1.53,13.56,6.42s15.6,16.82,16.92,20.59c1,2.76,1.81,9.69-3.91,7.25-5.53-2.36-24.56-21.39-24.56-21.39Z" transform="translate(0 0)" style="fill:#ef9296"/><path id="Path_9089" data-name="Path 9089" d="M274.09,131.49l9.89-9.58v-9.49c2.86.69,4.58,10.13,4.11,13C285.57,131.81,271.32,159.31,274.09,131.49Z" transform="translate(0 0)" style="fill:#ef9296"/><path id="Path_9128" data-name="Path 9128" d="M176.88,142.23a.36.36,0,0,0,0,.07l.05,0Z" transform="translate(0 0)" style="fill:#1c262b"/></g><g id="freepik--speech-bubble--inject-16-2"><g id="freepik--speech-bubble--inject-16-3"><path id="Path_9149" data-name="Path 9149" d="M235.43,58.14l-4.48-2.59c-.22,0-.91-1.47-1-1.63l2.64-1.54-.08.24Z" transform="translate(0 0)" style="fill:#fff;opacity:0.4000000059604645;isolation:isolate"/><path id="Path_9150" data-name="Path 9150" d="M235.43,58.14l-4.48-2.59c-.22,0-.91-1.47-1-1.63l2.64-1.54-.08.24Z" transform="translate(0 0)" style="fill:#0e4668"/><path id="Path_9151" data-name="Path 9151" d="M232.17,52.61c.34.2,3.05,6.27,3.73,5.55a.46.46,0,0,0,.21-.25l3.29-9.47Z" transform="translate(0 0)" style="fill:#055485"/><path id="Path_9152" data-name="Path 9152" d="M274.43,5.28c-.19-3.63-5-6.42-8.28-4.78L219,27.69c-4.13,1.43-1.46,21.15-2.17,24.21,0,2.33,2,3.86,3.94,4.78,1.37,4.32,49.69-27.21,51.67-27.33,2-1.11,2-2.23,2-3.61Z" transform="translate(0 0)" style="fill:#055485"/><path id="Path_9153" data-name="Path 9153" d="M216.85,51.91c.18,3.5,4.68,6.18,7.89,5-1,.39-1.8-.2-1.8-1.43.21-1.1-.59-22.43.66-22.58l-6.11-3.52C216.25,29.43,217.05,50.87,216.85,51.91Z" transform="translate(0 0)" style="fill:#040405;opacity:0.20000000298023224;isolation:isolate"/><path id="Path_9154" data-name="Path 9154" d="M274.36,4.67c-.26-.92-1.1-1.22-2.1-.66L225.12,31.2a4.36,4.36,0,0,0-1.53,1.62l-6.1-3.52A4.35,4.35,0,0,1,219,27.68L266.15.49c3.07-1.57,7.54.9,8.21,4.18Z" transform="translate(0 0)" style="fill:#fff;opacity:0.4000000059604645;isolation:isolate"/></g><path id="Path_9155" data-name="Path 9155" d="M227.58,46.24a1.8,1.8,0,0,1,0-.19l1.1-3c-3.17,1.3-2.3-4.16-.81-5.41,1.93-2.41,3.83.19,2.87,2.41-.2.88-1.64,4.64-2,5.56C228.82,45.89,227.59,46.75,227.58,46.24Zm.08-5.67c.55,3.49,3.93-3,1.08-2.1A2.39,2.39,0,0,0,227.66,40.58Z" transform="translate(0 0)" style="fill:#fafafa"/><path id="Path_9156" data-name="Path 9156" d="M232.49,35.2c-.22-.53,3.08-2,3.32-2.26.41-.19.16.94.22,1.1.17.56-2.27,1.53-2.54,1.79l-.09,1.67c4.66-4,3.24,7.06-.86,5.55-.83-.67-.72-2.2.47-2.28.57,1.83,2.45-.43,2.23-1.58-.25-2.17-1.92.32-2.79.64C231.87,40.15,232.63,35.31,232.49,35.2Z" transform="translate(0 0)" style="fill:#fafafa"/><path id="Path_9157" data-name="Path 9157" d="M242,32.66c0,1.55.13,3.58-.53,5-.42,1.51-3.26,3.61-3.74,1.09a13.88,13.88,0,0,1,.38-6.3c.93-2.55,4.16-3.4,3.89.18Zm-3.29,4.12c-.21,1.71,1.4,1.74,1.93.28a9.42,9.42,0,0,0,0-5c-2.24-.66-1.94,3.3-2,4.69Z" transform="translate(0 0)" style="fill:#fafafa"/><path id="Path_9158" data-name="Path 9158" d="M243.12,31.59c-.33-.32,1.74-3.36,1.82-3.69s1.13-1.12,1.17-.55v8.2c.12.35-1.12,1.24-1.11.65V29.88L243.84,32C243.63,32.45,243.28,31.72,243.12,31.59Z" transform="translate(0 0)" style="fill:#fafafa"/><path id="Path_9159" data-name="Path 9159" d="M252,26.9c.09,2.61.08,6.8-3.23,7.33-2-.83-1-4.39-1-6.15.15-2.84,4.39-5.76,4.27-1.17ZM248.71,31c-.21,1.71,1.41,1.75,1.92.28a9.6,9.6,0,0,0,0-4.94c-2.2-.65-2,3.28-1.91,4.66Z" transform="translate(0 0)" style="fill:#fafafa"/><path id="Path_9160" data-name="Path 9160" d="M256.15,30.1c-.45.22-.13-1.6-.22-1.75s-2.9,2.06-2.78,1.28c-.17-1.57,2.32-7.08,3-8.45.17,0,.89-.72.85-.16V26.1c1.12-.77.93-.33.93.7.07.45-.65.69-.93.88C257,28.62,257.31,29.73,256.15,30.1Zm-.22-3.34V24l-1.42,3.54Z" transform="translate(0 0)" style="fill:#fafafa"/><path id="Path_9161" data-name="Path 9161" d="M261.71,23.81c-.08.39.21,2.57-.22,2.79-.18,0-.89.71-.85.16V24.43c-.84.29-2,1.76-1.7-.2-.12-.54,1.42-1.08,1.7-1.33.08-.38-.21-2.56.22-2.77.18,0,.88-.71.85-.17v2.3c.87-.33,1.95-1.78,1.69.22C263.53,23,262,23.56,261.71,23.81Z" transform="translate(0 0)" style="fill:#fafafa"/><path id="Path_9162" data-name="Path 9162" d="M265.57,22.72c.44-.2.14,1.29.22,1.45,0,.44-.82.91-1.15.92a4.49,4.49,0,0,1,0-1.73C264.69,23.14,265.43,22.83,265.57,22.72Z" transform="translate(0 0)" style="fill:#fafafa"/><path id="Path_9163" data-name="Path 9163" d="M268.15,21.23c.42-.2.14,1.3.22,1.46.05.45-.82.91-1.15.92a4.58,4.58,0,0,1,0-1.74C267.26,21.66,268,21.34,268.15,21.23Z" transform="translate(0 0)" style="fill:#fafafa"/><path id="Path_9164" data-name="Path 9164" d="M270.71,19.75c.43-.2.14,1.29.22,1.45,0,.44-.82.9-1.15.91a4.53,4.53,0,0,1,0-1.74C269.81,20.16,270.57,19.86,270.71,19.75Z" transform="translate(0 0)" style="fill:#fafafa"/></g><g id="freepik--Plus--inject-16"><path id="Path_9165" data-name="Path 9165" d="M146.62,254.68c.07-1.19-3.79-2.59-4.5-3.21.7-.65,3.78-1.6,3.74-2.79-.28-.88.74-9.73-.76-9.87-1.32-.55-7.32-4.78-8.8-4.45-1.27-.51-11.22,6.07-12.45,6.56-2.62-.87-12.1-8.78-15.06-6.55-.58.61-9.8,5-9.42,6.07h0v8.78h0c-.07,1.18,3.79,2.6,4.49,3.22-.71.61-3.83,1.66-3.81,2.83h0v8.78h0c-.27,1.14,7.06,4.46,7.69,5.09,2.89,2.21,11.84-5.29,14.36-6.15,2.62.87,12.12,8.78,15.07,6.55.56-.58,9.78-5,9.4-6h0v-8.78h0S146.62,254.7,146.62,254.68Z" transform="translate(0 0)" style="fill:#c5c800"/><path id="Path_9166" data-name="Path 9166" d="M146.62,254.68c.07-1.19-3.79-2.59-4.5-3.21.7-.65,3.78-1.6,3.74-2.79-.28-.88.74-9.73-.76-9.87-1.32-.55-7.32-4.78-8.8-4.45-1.27-.51-11.22,6.07-12.45,6.56-2.62-.87-12.1-8.78-15.06-6.55-.58.61-9.8,5-9.42,6.07h0v8.78h0c-.07,1.18,3.79,2.6,4.49,3.22-.71.61-3.83,1.66-3.81,2.83h0v8.78h0c-.27,1.14,7.06,4.46,7.69,5.09,2.89,2.21,11.84-5.29,14.36-6.15,2.62.87,12.12,8.78,15.07,6.55.56-.58,9.78-5,9.4-6h0v-8.78h0S146.62,254.7,146.62,254.68Z" transform="translate(0 0)" style="fill:#040405;opacity:0.25;isolation:isolate"/><path id="Path_9167" data-name="Path 9167" d="M132.86,251.95H143l-.86-.49c.71-.64,3.77-1.6,3.74-2.79v-8.78c0-1.05-1.82-1.55-2.49-2.06H132.83Z" transform="translate(0 0)" style="fill:#040405;opacity:0.25;isolation:isolate"/><path id="Path_9168" data-name="Path 9168" d="M135.37,270c1.35.4,9.25-4.91,10.5-5.43a1.25,1.25,0,0,0,.74-1h0v-8.78h0a.94.94,0,0,0-.16-.51H135.37Z" transform="translate(0 0)" style="fill:#040405;opacity:0.25;isolation:isolate"/><path id="Path_9169" data-name="Path 9169" d="M100.15,239.36a1.25,1.25,0,0,0-.76,1.07h0v8.78h0c-.07,1.18,3.79,2.6,4.49,3.22h10.28V238.66C113.4,238.81,100.14,238.15,100.15,239.36Z" transform="translate(0 0)" style="fill:#040405;opacity:0.25;isolation:isolate"/><path id="Path_9170" data-name="Path 9170" d="M109.68,269.57c1.17.51,11.31-6.13,12.46-6.58v-8.78H109.68Z" transform="translate(0 0)" style="fill:#040405;opacity:0.25;isolation:isolate"/><path id="Path_9171" data-name="Path 9171" d="M134.52,247.06l11.34,6.55a1.14,1.14,0,0,1,0,2.14c-14.08,8.75-10,5.42-23.72-1.55l-10.66,6.15c-2.75,1.91-8.31-3.05-10.65-4a1.14,1.14,0,0,1,0-2.14l10.66-6.15-11.35-6.55a1.15,1.15,0,0,1,0-2.14c14.09-8.75,10-5.43,23.72,1.55,1.28-.52,11.14-7,12.45-6.55,1.45-.35,7.51,3.9,8.8,4.45a1.15,1.15,0,0,1,0,2.15Z" transform="translate(0 0)" style="fill:#c5c800"/></g><g id="freepik--Minus--inject-16"><path id="Path_9172" data-name="Path 9172" d="M193.94,221c.66-.64,3.81-1.6,3.74-2.79v-8.78c.29-1.15-7.09-4.46-7.7-5.09-2.87-2.24-11.75,5.26-14.26,6.11-2.69,2-22.33,11.9-23.79,14.36h0v8.78h0c-.28,1.13,7.09,4.46,7.7,5.08a4,4,0,0,0,3.71,0C170,234.82,187.06,225,193.94,221Z" transform="translate(0 0)" style="fill:#c5c800"/><path id="Path_9173" data-name="Path 9173" d="M193.94,221c.66-.64,3.81-1.6,3.74-2.79v-8.78c.29-1.15-7.09-4.46-7.7-5.09-2.87-2.24-11.75,5.26-14.26,6.11-2.69,2-22.33,11.9-23.79,14.36h0v8.78h0c-.28,1.13,7.09,4.46,7.7,5.08a4,4,0,0,0,3.71,0C170,234.82,187.06,225,193.94,221Z" transform="translate(0 0)" style="fill:#040405;opacity:0.25;isolation:isolate"/><path id="Path_9174" data-name="Path 9174" d="M161.58,228.57v10.51c1,.55,11.37-6.16,12.37-6.55l23-13.26c1.51-.13.47-9,.76-9.85.08-1.21-3.28-2.29-4-2.93Z" transform="translate(0 0)" style="fill:#040405;opacity:0.25;isolation:isolate"/><path id="Path_9175" data-name="Path 9175" d="M186.33,216.59l-23,13.3c-2.78,1.92-8.29-3.06-10.65-4a1.14,1.14,0,0,1,0-2.14l10.66-6.15,12.39-7.14c1.21-.48,11.15-7.06,12.41-6.55,1.52-.38,7.46,3.92,8.8,4.45a1.14,1.14,0,0,1,0,2.14Z" transform="translate(0 0)" style="fill:#c5c800"/></g><g id="Group_31008" data-name="Group 31008"><path id="Path_8935" data-name="Path 8935" d="M256.31,249.2c.88.78,1.46,7.09-.79,7.69-1.73.47-4.27.16-5.35-1.26-1.67-3.84-12.81-11.76-6.72-15.71,2.21-.88,5.57,2.24,7.28,2.76C252.19,243.12,255.78,249,256.31,249.2Z" transform="translate(0 0)" style="fill:#1c262b"/><path id="Path_8936" data-name="Path 8936" d="M256.36,247.39l-.05,2.39a5.85,5.85,0,0,1-6.06,0c-.11-.23-.55-3.44-.55-3.44Z" transform="translate(0 0)" style="fill:#ef9296"/><path id="Path_8937" data-name="Path 8937" d="M236.59,262.58c1,4.09,4,11.53-4.53,10.55-4.93.42-10.93,4.9-16.37,3.59-16.69-5.09,5.83-7.62,13-14.16Z" transform="translate(0 0)" style="fill:#1c262b"/><path id="Path_8938" data-name="Path 8938" d="M236.65,260c0,2.23.53,5.45-4.45,5.11-3.88.1-3.73-2.47-3.5-5.17Z" transform="translate(0 0)" style="fill:#ef9296"/><path id="Path_8939" data-name="Path 8939" d="M258.63,215.61a65,65,0,0,0-2.55-12.55c1-11.87,4.1-35,.92-53.59,0,0-33.8-3-34.72,9.7-1.77,34.21,2.53,72.4,6.45,100.8a8.44,8.44,0,0,0,7.93,0c.6-6.19,5.3-35.87.82-46.09,0-1.79,3.16-33.13,3.5-37.16l.77-.36c-.9,14.12,4.7,57.88,8.09,71.2,4,2.29,6.5-.14,6.5-.14S259.55,223.46,258.63,215.61Z" transform="translate(0 0)" style="fill:#29373e"/><path id="Path_8940" data-name="Path 8940" d="M241,176.77s8.76-4.07,13.14-7.8c0,0-4.14,5.56-9.46,8,0,0-2.32,19.57-2.31,19.17l-.65-19.33Z" transform="translate(0 0)" style="fill:#1c262b"/><path id="Path_8941" data-name="Path 8941" d="M234.9,104.05l1.32,11.67,11-.55L246,101.55Z" transform="translate(0 0)" style="fill:#ef9296"/><path id="Path_8943" data-name="Path 8943" d="M258.09,112.49c-.8-4.55-7-7.3-11.63-5.58-.48,2-5.86,3.19-11,2-1.55.41-6.65,1.37-7.95,1.8-9.9,4.15-4.21,35.21-5.64,49.62,11.7,6,34,3.35,36.51-3.78L256.73,144S259.44,119.89,258.09,112.49Z" transform="translate(0 0)" style="fill:#354952"/><path id="Path_8944" data-name="Path 8944" d="M235.33,107.9l.09.73c2.39,1.11,10.65-.52,11.07-1.8l-.08-.87s.88-.32,1.36,1c3.3,6.07-9.86,7.55-13.79,4.31l-1.65.35c.36-.29,1.43-4.68,2.89-4.54Z" transform="translate(0 0)" style="fill:#29373e"/><path id="Path_8945" data-name="Path 8945" d="M201.68,95.38l-21.85,11.41,10.86,29.68,20.39-11.42Z" transform="translate(0 0)" style="fill:#354952"/><path id="Path_8946" data-name="Path 8946" d="M200.68,98.29l-18.34,9.57L192,133.38l17.11-9.58Z" transform="translate(0 0)" style="fill:#f2f2f2"/><path id="Path_8947" data-name="Path 8947" d="M196.81,101c-.23-2.88-5.36.8-7,1.46-2.24,1.33-3.23,1.9-2.35,3.35Z" transform="translate(0 0)" style="fill:#040405;opacity:0.15000000596046448;isolation:isolate"/><path id="Path_8948" data-name="Path 8948" d="M196.45,97.41c-.31-.7-2.18.5-2.74.8-1.33-2.92-7.05.7-5.93,3-1,.56-3.15,1.42-2.36,2.63L196.68,98Z" transform="translate(0 0)" style="fill:#c5c800"/><path id="Path_8949" data-name="Path 8949" d="M195.24,98.72c-2.12.5-.78,2.38-.5,3.06l-5,2.63c-.31-.46-.45-2.75-1.94-1.78l-.3-.32,7.88-4Z" transform="translate(0 0)" style="fill:#c5c800"/><path id="Path_8950" data-name="Path 8950" d="M195.24,98.72c-2.12.5-.78,2.38-.5,3.06l-5,2.63c-.31-.46-.45-2.75-1.94-1.78l-.3-.32,7.88-4Z" transform="translate(0 0)" style="fill:#040405;opacity:0.30000001192092896;isolation:isolate"/><path id="Path_8951" data-name="Path 8951" d="M197,101.09c-.36-1.7-1.42-1.28-3.76-.21-1.62,1.05-7.34,2.9-5.57,5Z" transform="translate(0 0)" style="fill:#c5c800"/><path id="Path_8952" data-name="Path 8952" d="M227.75,112.76c-5,.44-7.19,1.36-11,8.18-5.49,12.15-16.78,22.58-13.47,30.63,6.45,8.81,22-21.2,22.51-20.31C225.82,131.26,233.36,121.24,227.75,112.76Z" transform="translate(0 0)" style="fill:#ef9296"/><path id="Path_8953" data-name="Path 8953" d="M205.38,153.12c-8.64-3.2-15.18-19.82-23.3-25-4.24-1.65-4.06-14.56,1-12.45.44,1.23,1.56,4.26,2,5.53,2.86,2.6.58-1,.81-3.47,0-2.36,1.67-.8,2.16,0,1.94,2.73,2.09,7,3.24,9.58,1,1.43,14.48,14.36,14.48,14.36Z" transform="translate(0 0)" style="fill:#ef9296"/><path id="Path_8954" data-name="Path 8954" d="M228.71,112.48c-3.06-.07-6.73.42-9.57,4.12s-14.23,23.79-14.23,23.79l-6.39-5.73a11.13,11.13,0,0,0-4.92,6.92c7.75,12,13.49,18.54,24.28,1.72C226.79,129,234.18,126.25,228.71,112.48Z" transform="translate(0 0)" style="fill:#29373e"/><path id="Path_8955" data-name="Path 8955" d="M227.13,89.77s-2.75,4.17-2.43,4.58,2.34.78,2.34.78Z" transform="translate(0 0)" style="fill:#ec797c"/><path id="Path_8956" data-name="Path 8956" d="M228.42,92.45c-4.26.06-4.26-6.63,0-6.57S232.68,92.51,228.42,92.45Zm0-5.83c-3.32-.06-3.33,5.15,0,5.11S231.73,86.57,228.42,86.61Z" transform="translate(0 0)" style="fill:#1c262b"/><path id="Path_8957" data-name="Path 8957" d="M234.76,78.21c-5.57,1.17-7.18,3.62-7.71,12.46-.54,9.25.4,12.15,1.61,13.39,6.1,2.28,14.87-.81,20.09-7.38C258.15,81.88,245.22,75.43,234.76,78.21Z" transform="translate(0 0)" style="fill:#ef9296"/><path id="Path_8958" data-name="Path 8958" d="M235,104.69l-.26-1.7a11,11,0,0,1-5.7,1.29C230.06,104.8,232.83,105,235,104.69Z" transform="translate(0 0)" style="fill:#ec797c"/><path id="Path_8959" data-name="Path 8959" d="M225.45,88.48l9.9,1.29-.39.69-9.5-1.23Z" transform="translate(0 0)" style="fill:#1c262b"/><path id="Path_8960" data-name="Path 8960" d="M226.13,81.79a3.22,3.22,0,0,0,1.26-.08c-.76,1.89,1.51,3.32,3.17,2.65-1.08,1.77.64,4,2.61,3.84.06,1.3.08,2.56,1.45,3.14,0,0,.88-3.42,3.77-3,5.27.81,1.23,9.47-2,7.76.43,6.89,10.41,11.46,13.33,3.58,2.86-.85,5.42-3.37,3.78-6.5a3.85,3.85,0,0,0,1.46-6.67,4.49,4.49,0,0,0-1.32-8.13c-1.78-.49-.61-5.35-6.17-4.25-.4-2.77-4.5-4.36-6.33-2.08-1.47-3.12-5.93-3.75-7.71-.54-3.13-4-10.46.13-7,4.58C223.71,76.84,222.94,81.21,226.13,81.79Z" transform="translate(0 0)" style="fill:#1c262b"/><path id="Path_8961" data-name="Path 8961" d="M234.57,93.26l.1-3.87C232.11,89.25,232,93.27,234.57,93.26Z" transform="translate(0 0)" style="fill:#1c262b"/><path id="Path_9180" data-name="Path 9180" d="M252.54,109.34c3.06-.07,4.32.58,7.17,4.28s14.72,16.9,14.72,16.9l9.59-8.58c2.49,1.57,2.77,2.71,3.43,5.58-2.69,5.32-7.34,15.7-13,16.6-2.86-.43-16.74-12.16-16.74-12.59S256.41,107.63,252.54,109.34Z" transform="translate(0 0)" style="fill:#29373e"/></g></g></svg>