<svg id="Layer_1" data-name="Layer 1" xmlns="http://www.w3.org/2000/svg" viewBox="0 0 310.54 302.5"><path id="freepik--floor--inject-16-2" d="M171.2,158.1c207.1,2.4,207,182.4,0,184.8C-35.8,340.5-35.8,160.5,171.2,158.1Z" transform="translate(-15.95 -40.4)" style="fill:#e7e6e6"/><path id="freepik--Shadow--inject-16" d="M150.9,314.5c-1.6.5-11.7-6.3-13.2-6.9-3,1.1-11.3,8.4-14.7,6-1.2-1.2-9.2-3.8-7.9-6.3-.2-.8,10.1-6,10.6-6.6-11.6-7.5-17.7-5.8-1.7-14.3,3.4-2.5,12.5,5.3,15.4,6.4,3-1.1,11.2-8.4,14.6-5.9,1.2,1.2,9.2,3.8,7.9,6.3.1.8-10,6-10.6,6.5l10.4,6a1.83,1.83,0,0,1,.9,2.4,2,2,0,0,1-.9.9c-1.5.6-9,5.9-10.8,5.5Z" transform="translate(-15.95 -40.4)" style="fill:#040405;opacity:0.10000000149011612;isolation:isolate"/><path id="freepik--shadow--inject-16-2" d="M177,283.6c-1.8.4-7.6-3.9-9.1-4.5a1.8,1.8,0,0,1-.9-2.4,1.59,1.59,0,0,1,.9-.9l33.6-19.4c3.2-2.2,8.6,2.9,11.3,4a1.83,1.83,0,0,1,.9,2.4,2,2,0,0,1-.9.9l-33.6,19.4A5.45,5.45,0,0,1,177,283.6Z" transform="translate(-15.95 -40.4)" style="fill:#040405;opacity:0.10000000149011612;isolation:isolate"/><path id="freepik--shadow--inject-16-3" d="M75.5,294.1,30.3,268c-1.6-.9-1.6-2.4,0-3.3l90.8-52.4a6.35,6.35,0,0,1,5.7,0l45.1,26.1c1.6.9,1.6,2.4,0,3.3L81.2,294.1A6.35,6.35,0,0,1,75.5,294.1Z" transform="translate(-15.95 -40.4)" style="fill:#040405;opacity:0.10000000149011612;isolation:isolate"/><path id="freepik--shadow--inject-16-4" d="M241.9,274.2c53.3.6,53.3,48.2,0,48.8C188.6,322.4,188.6,274.8,241.9,274.2Z" transform="translate(-15.95 -40.4)" style="fill:#040405;opacity:0.10000000149011612;isolation:isolate"/><path id="freepik--shadow--inject-16-5" d="M292.8,277.6c4.2,2.4,4.2,6.4,0,8.8-5.9,4.9-26.1-.6-15.3-8.8A16.54,16.54,0,0,1,292.8,277.6Z" transform="translate(-15.95 -40.4)" style="fill:#040405;opacity:0.10000000149011612;isolation:isolate"/><path id="Path_8962" data-name="Path 8962" d="M67.7,248.4c-1.8-76-64.4-68.5-27.3-35.3C50.7,223,58,233.9,60.1,247.6Z" transform="translate(-15.95 -40.4)" style="fill:#c5c800"/><path id="Path_8963" data-name="Path 8963" d="M67.7,248.4c-1.8-76-64.4-68.5-27.3-35.3C50.7,223,58,233.9,60.1,247.6Z" transform="translate(-15.95 -40.4)" style="fill:#99ba7d"/><path id="Path_8964" data-name="Path 8964" d="M63.1,246.3c-2.4-29.1-22.5-47.9-28-52.3C40.8,195.3,63.7,218.2,63.1,246.3Z" transform="translate(-15.95 -40.4)" style="fill:#fff"/><path id="Path_8965" data-name="Path 8965" d="M68.6,243c-3.3-8-13.6-7.8-20.6-10.1-7.2-2.8-15.5-9.1-23.1-3.9-5.2,3.8.6,9.2,3.6,11.7,9.3,8.5-10,10.4,1.4,19.2,4.5,4.4,12.2,2.8,16.1,6.6,1,5,.3,10,6,12.9,6.7,4.6,15.4,1.5,22.3-.7,2.6-.7,4-5.3,4.4-7.7C79.9,258.1,68.5,258.4,68.6,243Z" transform="translate(-15.95 -40.4)" style="fill:#a3cc84"/><path id="Path_8966" data-name="Path 8966" d="M71.2,276.8c-5-21.8-31.7-40.3-41.7-45.5C39.3,234.1,69,256.2,71.2,276.8Z" transform="translate(-15.95 -40.4)" style="fill:#fff"/><path id="Path_8967" data-name="Path 8967" d="M37.6,255.9c-1.4-2.4,20.4-4.6,21.3-2.2-6.8-.1-14.5.1-21.3,2.2Z" transform="translate(-15.95 -40.4)" style="fill:#fff"/><path id="Path_8968" data-name="Path 8968" d="M174.3,51.5a4.24,4.24,0,0,0-1.7-3.7c-1-.6-9.7-5.7-10.8-6.3s-2.4-.5-4,.4L71.1,92.1a12.54,12.54,0,0,0-5.7,9.9V280.8a4.13,4.13,0,0,0,1.7,3.7c1,.6,9.7,5.6,10.7,6.2a4,4,0,0,0,4.1-.4l86.8-50.1C180.5,243.9,171.8,55.5,174.3,51.5Z" transform="translate(-15.95 -40.4)" style="fill:#29373e"/><path id="Path_8969" data-name="Path 8969" d="M76.1,287.1c2.5-4.7-6.2-191.7,5.7-188.7l86.8-50.1c3.2-1.8,5.7-.3,5.7,3.3-2.5,4.6,6.2,191.7-5.7,188.7L81.8,290.4C78.6,292.2,76.1,290.7,76.1,287.1Z" transform="translate(-15.95 -40.4)" style="fill:#29373e"/><path id="Path_8971" data-name="Path 8971" d="M87.4,280.6c-1-.6-3.8-1.8-3.3-3.2.1-1.7-.4-13.4.4-14.5l2.7,1.5C86.7,265.2,86.3,280.4,87.4,280.6Z" transform="translate(-15.95 -40.4)" style="fill:#0e4668"/><path id="Path_8972" data-name="Path 8972" d="M101.5,255.9c-1,0-14.3,7.4-14.3,8.6L84.5,263c-.7-.7,13.3-8.1,13.6-8.5C99,254,100.9,255.8,101.5,255.9Z" transform="translate(-15.95 -40.4)" style="fill:#5291b9"/><path id="Path_8973" data-name="Path 8973" d="M100.9,273.2l-12.8,7.4c-.7.4-1.3-.3-1.3-1.6.5-2.3-1.2-14.2,1.3-15.6l12.7-7.4c.7-.4,1.3.3,1.3,1.6C101.7,259.9,103.4,271.8,100.9,273.2Z" transform="translate(-15.95 -40.4)" style="fill:#214f6e"/><path id="Path_8975" data-name="Path 8975" d="M132.9,254.3c-1-.6-3.8-1.6-3.3-3.2.2-1.4-.4-13.4.4-14.5l2.7,1.5C132.2,239,131.8,254,132.9,254.3Z" transform="translate(-15.95 -40.4)" style="fill:#0e4668"/><path id="Path_8976" data-name="Path 8976" d="M147.1,229.6a.62.62,0,0,0-.7.1l-12.7,7.4a3.13,3.13,0,0,0-.9,1.1l-2.7-1.5c-.7-.7,13.3-8.1,13.6-8.5C144.5,227.7,146.4,229.5,147.1,229.6Z" transform="translate(-15.95 -40.4)" style="fill:#5291b9"/><path id="Path_8977" data-name="Path 8977" d="M146.4,246.9l-12.7,7.4c-.7.4-1.3-.3-1.3-1.6.5-2.3-1.2-14.3,1.3-15.6l12.7-7.4c.7-.4,1.3.3,1.3,1.6C147.2,233.6,148.9,245.5,146.4,246.9Z" transform="translate(-15.95 -40.4)" style="fill:#214f6e"/><path id="Path_8979" data-name="Path 8979" d="M155.7,241.2c-1-.6-3.8-1.8-3.3-3.2.1-1.7-.4-13.4.4-14.5l2.7,1.5c-.8,1-.3,13.1-.4,14.5A1.83,1.83,0,0,0,155.7,241.2Z" transform="translate(-15.95 -40.4)" style="fill:#0e4668"/><path id="Path_8980" data-name="Path 8980" d="M169.9,216.5a.62.62,0,0,0-.7.1L156.4,224a3.13,3.13,0,0,0-.9,1.1l-2.7-1.5c-.7-.7,13.3-8.1,13.6-8.5C167.3,214.6,169.2,216.3,169.9,216.5Z" transform="translate(-15.95 -40.4)" style="fill:#5291b9"/><path id="Path_8981" data-name="Path 8981" d="M169.2,233.7l-12.8,7.4c-.7.4-1.3-.3-1.3-1.6.5-2.3-1.2-14.2,1.3-15.6l12.7-7.4c.7-.4,1.3.3,1.3,1.6C170,220.5,171.7,232.4,169.2,233.7Z" transform="translate(-15.95 -40.4)" style="fill:#214f6e"/><path id="Path_8983" data-name="Path 8983" d="M155.7,214.8c-1-.6-3.8-1.8-3.3-3.2.1-1.7-.4-13.4.4-14.5l2.7,1.5c-.8,1-.3,13.1-.4,14.5A1.75,1.75,0,0,0,155.7,214.8Z" transform="translate(-15.95 -40.4)" style="fill:#0e4668"/><path id="Path_8984" data-name="Path 8984" d="M169.9,190.2a.62.62,0,0,0-.7.1l-12.7,7.4a3.13,3.13,0,0,0-.9,1.1l-2.7-1.5c-.7-.7,13.3-8.1,13.6-8.5C167.3,188.2,169.2,190,169.9,190.2Z" transform="translate(-15.95 -40.4)" style="fill:#5291b9"/><path id="Path_8985" data-name="Path 8985" d="M169.2,207.4l-12.8,7.4c-.7.4-1.3-.3-1.3-1.6.5-2.3-1.2-14.2,1.3-15.6l12.7-7.4c.7-.4,1.3.3,1.3,1.6C170,194.2,171.7,206.1,169.2,207.4Z" transform="translate(-15.95 -40.4)" style="fill:#214f6e"/><path id="Path_8987" data-name="Path 8987" d="M155.7,188.5c-1-.6-3.8-1.8-3.3-3.2.1-1.7-.4-13.4.4-14.5l2.7,1.5c-.8,1-.3,13.1-.4,14.5A1.75,1.75,0,0,0,155.7,188.5Z" transform="translate(-15.95 -40.4)" style="fill:#0e4668"/><path id="Path_8988" data-name="Path 8988" d="M169.9,163.9a.62.62,0,0,0-.7.1l-12.7,7.4a3.13,3.13,0,0,0-.9,1.1l-2.7-1.5c-.7-.7,13.3-8.1,13.6-8.5C167.3,161.9,169.2,163.7,169.9,163.9Z" transform="translate(-15.95 -40.4)" style="fill:#5291b9"/><path id="Path_8989" data-name="Path 8989" d="M169.2,181.1l-12.8,7.4c-.7.4-1.3-.3-1.3-1.6.5-2.3-1.2-14.2,1.3-15.6l12.7-7.3c.7-.4,1.3.3,1.3,1.6C170,167.8,171.7,179.7,169.2,181.1Z" transform="translate(-15.95 -40.4)" style="fill:#214f6e"/><path id="Path_8991" data-name="Path 8991" d="M155.7,162.2c-1-.6-3.9-1.8-3.3-3.2.1-1.7-.4-13.3.4-14.5l2.7,1.5c-.8,1-.3,13.1-.4,14.5A1.75,1.75,0,0,0,155.7,162.2Z" transform="translate(-15.95 -40.4)" style="fill:#0e4668"/><path id="Path_8992" data-name="Path 8992" d="M169.9,137.6a.62.62,0,0,0-.7.1l-12.7,7.4a3.13,3.13,0,0,0-.9,1.1l-2.7-1.5c-.7-.7,13.3-8.1,13.6-8.5C167.3,135.6,169.2,137.4,169.9,137.6Z" transform="translate(-15.95 -40.4)" style="fill:#5291b9"/><path id="Path_8993" data-name="Path 8993" d="M169.1,154.8l-12.8,7.4c-.7.4-1.3-.3-1.3-1.6.5-2.3-1.2-14.2,1.3-15.6l12.7-7.4c.7-.4,1.3.3,1.3,1.6C170,141.6,171.6,153.4,169.1,154.8Z" transform="translate(-15.95 -40.4)" style="fill:#214f6e"/><path id="Path_8995" data-name="Path 8995" d="M155.7,135.9c-1-.6-3.8-1.8-3.3-3.2.1-1.7-.4-13.4.4-14.5l2.7,1.5c-.8,1-.3,13.1-.4,14.5A1.75,1.75,0,0,0,155.7,135.9Z" transform="translate(-15.95 -40.4)" style="fill:#0e4668"/><path id="Path_8996" data-name="Path 8996" d="M169.9,111.2a.62.62,0,0,0-.7.1l-12.7,7.4a3.13,3.13,0,0,0-.9,1.1l-2.7-1.5c-.7-.7,13.3-8.1,13.6-8.5C167.3,109.2,169.2,111,169.9,111.2Z" transform="translate(-15.95 -40.4)" style="fill:#5291b9"/><path id="Path_8997" data-name="Path 8997" d="M169.2,128.4l-12.8,7.4c-.7.4-1.3-.3-1.3-1.6.5-2.3-1.2-14.3,1.3-15.6l12.7-7.4c.7-.4,1.3.3,1.3,1.6C170,115.2,171.7,127.1,169.2,128.4Z" transform="translate(-15.95 -40.4)" style="fill:#214f6e"/><path id="Path_8999" data-name="Path 8999" d="M132.9,149h0c-1-.7-3.7-1.6-3.3-3.2.2-1.4-.4-13.4.4-14.4l2.7,1.6C132.2,133.8,131.8,148.7,132.9,149Z" transform="translate(-15.95 -40.4)" style="fill:#0e4668"/><path id="Path_9000" data-name="Path 9000" d="M147.1,124.4a.62.62,0,0,0-.7.1l-12.7,7.4a2.73,2.73,0,0,0-.9,1.2l-2.7-1.5c-.7-.7,13.3-8.1,13.6-8.5C144.5,122.4,146.4,124.2,147.1,124.4Z" transform="translate(-15.95 -40.4)" style="fill:#5291b9"/><path id="Path_9001" data-name="Path 9001" d="M146.4,141.6,133.7,149c-.7.4-1.3-.3-1.3-1.6.5-2.3-1.2-14.2,1.3-15.6l12.7-7.4c.7-.4,1.3.3,1.3,1.6C147.2,128.4,148.9,140.3,146.4,141.6Z" transform="translate(-15.95 -40.4)" style="fill:#214f6e"/><path id="Path_9003" data-name="Path 9003" d="M110.2,162.2c-1-.6-3.8-1.5-3.3-3.2.2-1.4-.4-13.5.4-14.5L110,146c-.8,1-.3,13.1-.4,14.5A1.75,1.75,0,0,0,110.2,162.2Z" transform="translate(-15.95 -40.4)" style="fill:#055485"/><path id="Path_9004" data-name="Path 9004" d="M124.3,137.5c-1,0-14.3,7.4-14.3,8.6l-2.7-1.5c-.7-.7,13.3-8.1,13.6-8.5C121.8,135.5,123.7,137.3,124.3,137.5Z" transform="translate(-15.95 -40.4)" style="fill:#5291b9"/><path id="Path_9005" data-name="Path 9005" d="M123.5,154.8l-12.7,7.4c-.7.4-1.3-.3-1.3-1.6.5-2.3-1.2-14.2,1.3-15.6l12.7-7.4c.7-.4,1.3.3,1.3,1.6C124.4,141.5,126,153.4,123.5,154.8Z" transform="translate(-15.95 -40.4)" style="fill:#214f6e"/><path id="Path_9007" data-name="Path 9007" d="M87.4,175.3c-1-.6-3.8-1.8-3.3-3.2.1-1.7-.4-13.4.4-14.5l2.7,1.5C86.7,159.9,86.3,175.2,87.4,175.3Z" transform="translate(-15.95 -40.4)" style="fill:#0e4668"/><path id="Path_9008" data-name="Path 9008" d="M101.5,150.7c-1,0-14.3,7.4-14.3,8.6l-2.7-1.5c-.7-.7,13.3-8.1,13.6-8.5C99,148.7,100.9,150.5,101.5,150.7Z" transform="translate(-15.95 -40.4)" style="fill:#5291b9"/><path id="Path_9009" data-name="Path 9009" d="M100.9,167.8l-12.8,7.4c-.7.4-1.3-.3-1.3-1.6.5-2.3-1.2-14.2,1.3-15.6l12.8-7.4c.7-.4,1.3.3,1.3,1.6C101.7,154.6,103.4,166.5,100.9,167.8Z" transform="translate(-15.95 -40.4)" style="fill:#214f6e"/><path id="Path_9010" data-name="Path 9010" d="M121.7,241.3a.85.85,0,0,0-.7,0l-12.8,7.4a3.7,3.7,0,0,0-1.3,3.1v12.5c-.3,1.7,2.1,2.3,3.3,3.2a.85.85,0,0,0,.7,0l12.7-7.4a3.7,3.7,0,0,0,1.3-3.1V244.5C125.2,242.5,122.7,242.1,121.7,241.3Z" transform="translate(-15.95 -40.4)" style="fill:#d8d8d8"/><path id="Path_9011" data-name="Path 9011" d="M124.3,242.8c-1,0-14.3,7.4-14.3,8.6l-2.7-1.5c-.7-.7,13.3-8.1,13.6-8.5C121.8,240.8,123.7,242.6,124.3,242.8Z" transform="translate(-15.95 -40.4)" style="fill:#ececec"/><path id="Path_9012" data-name="Path 9012" d="M110.2,267.5c-1-.6-3.8-1.6-3.3-3.2.2-1.4-.4-13.5.4-14.5l2.7,1.5c-.8,1-.3,13.1-.4,14.5A1.83,1.83,0,0,0,110.2,267.5Z" transform="translate(-15.95 -40.4)" style="fill:#040405;opacity:0.20000000298023224;isolation:isolate"/><path id="Path_9013" data-name="Path 9013" d="M98.9,228.1a.85.85,0,0,0-.7,0l-12.7,7.4a3.7,3.7,0,0,0-1.3,3.1v12.5c-.3,1.7,2.1,2.3,3.3,3.2a.85.85,0,0,0,.7,0l12.8-7.4a3.7,3.7,0,0,0,1.3-3.1V231.3C102.5,229.4,99.9,228.9,98.9,228.1Z" transform="translate(-15.95 -40.4)" style="fill:#d8d8d8"/><path id="Path_9014" data-name="Path 9014" d="M101.5,229.6c-1,0-14.3,7.4-14.3,8.6l-2.7-1.5c-.7-.7,13.3-8.1,13.6-8.5C99,227.6,100.9,229.4,101.5,229.6Z" transform="translate(-15.95 -40.4)" style="fill:#ececec"/><path id="Path_9015" data-name="Path 9015" d="M87.4,254.3c-1-.6-3.8-1.8-3.3-3.2.1-1.7-.4-13.4.4-14.5l2.7,1.5c-.8,1-.3,13.1-.4,14.5A1.75,1.75,0,0,0,87.4,254.3Z" transform="translate(-15.95 -40.4)" style="fill:#040405;opacity:0.20000000298023224;isolation:isolate"/><path id="Path_9016" data-name="Path 9016" d="M144.4,201.8a.85.85,0,0,0-.7,0L131,209.2a3.7,3.7,0,0,0-1.3,3.1v12.5c-.5,1.6,2.4,2.5,3.3,3.2a.85.85,0,0,0,.7,0l12.7-7.4a3.7,3.7,0,0,0,1.3-3.1V205C148.1,203.2,145.6,202.6,144.4,201.8Z" transform="translate(-15.95 -40.4)" style="fill:#d8d8d8"/><path id="Path_9017" data-name="Path 9017" d="M147.1,203.3a.62.62,0,0,0-.7.1l-12.7,7.4a3.13,3.13,0,0,0-.9,1.1l-2.7-1.5c-.7-.7,13.3-8.1,13.6-8.5C144.5,201.4,146.4,203.2,147.1,203.3Z" transform="translate(-15.95 -40.4)" style="fill:#ececec"/><path id="Path_9018" data-name="Path 9018" d="M132.9,228c-1-.6-3.8-1.6-3.3-3.2.2-1.4-.4-13.5.4-14.5l2.7,1.5C132.2,212.8,131.8,227.6,132.9,228Z" transform="translate(-15.95 -40.4)" style="fill:#040405;opacity:0.20000000298023224;isolation:isolate"/><path id="Path_9019" data-name="Path 9019" d="M121.7,214.9a.85.85,0,0,0-.7,0l-12.8,7.4a3.7,3.7,0,0,0-1.3,3.1V238c-.5,1.6,2.4,2.5,3.3,3.2a.85.85,0,0,0,.7,0l12.7-7.4a3.7,3.7,0,0,0,1.3-3.1V218.2C125.2,216.2,122.7,215.8,121.7,214.9Z" transform="translate(-15.95 -40.4)" style="fill:#d8d8d8"/><path id="Path_9020" data-name="Path 9020" d="M124.3,216.5c-1,0-14.3,7.4-14.3,8.6l-2.7-1.5c-.7-.7,13.3-8.1,13.6-8.5C121.8,214.5,123.7,216.3,124.3,216.5Z" transform="translate(-15.95 -40.4)" style="fill:#ececec"/><path id="Path_9021" data-name="Path 9021" d="M110.2,241.1c-1-.6-3.8-1.6-3.3-3.2.2-1.4-.4-13.5.4-14.5l2.7,1.5C109.4,225.9,109,240.8,110.2,241.1Z" transform="translate(-15.95 -40.4)" style="fill:#040405;opacity:0.20000000298023224;isolation:isolate"/><path id="Path_9022" data-name="Path 9022" d="M98.9,201.8a.85.85,0,0,0-.7,0l-12.7,7.4a3.7,3.7,0,0,0-1.3,3.1v12.5c-.5,1.6,2.4,2.5,3.3,3.2a.85.85,0,0,0,.7,0l12.8-7.4a3.7,3.7,0,0,0,1.3-3.1V205C102.6,203.3,99.8,202.4,98.9,201.8Z" transform="translate(-15.95 -40.4)" style="fill:#d8d8d8"/><path id="Path_9023" data-name="Path 9023" d="M101.5,203.3c-1,0-14.3,7.5-14.3,8.6l-2.7-1.5c-.7-.7,13.3-8.1,13.6-8.5C98.9,201.4,100.9,203.1,101.5,203.3Z" transform="translate(-15.95 -40.4)" style="fill:#ececec"/><path id="Path_9024" data-name="Path 9024" d="M87.4,228c-1-.6-3.8-1.8-3.3-3.2.1-1.7-.4-13.4.4-14.5l2.7,1.5C86.7,212.6,86.3,227.8,87.4,228Z" transform="translate(-15.95 -40.4)" style="fill:#040405;opacity:0.20000000298023224;isolation:isolate"/><path id="Path_9025" data-name="Path 9025" d="M144.4,175.5a.85.85,0,0,0-.7,0L131,182.9a3.7,3.7,0,0,0-1.3,3.1v12.5c-.5,1.6,2.4,2.5,3.3,3.2a.85.85,0,0,0,.7,0l12.7-7.4a3.7,3.7,0,0,0,1.3-3.1V178.7C148,176.9,145.6,176.3,144.4,175.5Z" transform="translate(-15.95 -40.4)" style="fill:#d8d8d8"/><path id="Path_9026" data-name="Path 9026" d="M147.1,177a.62.62,0,0,0-.7.1l-12.7,7.4a3.13,3.13,0,0,0-.9,1.1l-2.7-1.5c-.7-.7,13.3-8.1,13.6-8.5C144.5,175,146.4,176.8,147.1,177Z" transform="translate(-15.95 -40.4)" style="fill:#ececec"/><path id="Path_9027" data-name="Path 9027" d="M132.9,201.7c-1-.6-3.8-1.6-3.3-3.2.2-1.4-.4-13.5.4-14.5l2.7,1.5c-.8,1-.3,13.1-.4,14.5A2,2,0,0,0,132.9,201.7Z" transform="translate(-15.95 -40.4)" style="fill:#040405;opacity:0.20000000298023224;isolation:isolate"/><path id="Path_9028" data-name="Path 9028" d="M121.7,188.6a.85.85,0,0,0-.7,0L108.2,196a3.7,3.7,0,0,0-1.3,3.1v12.5c-.5,1.6,2.4,2.5,3.3,3.2a.85.85,0,0,0,.7,0l12.7-7.4a3.7,3.7,0,0,0,1.3-3.1V191.8C125.4,190.2,122.6,189.3,121.7,188.6Z" transform="translate(-15.95 -40.4)" style="fill:#d8d8d8"/><path id="Path_9029" data-name="Path 9029" d="M124.3,190.2c-1,0-14.3,7.4-14.3,8.6l-2.7-1.5c-.7-.7,13.3-8.1,13.6-8.5C121.7,188.2,123.7,190,124.3,190.2Z" transform="translate(-15.95 -40.4)" style="fill:#ececec"/><path id="Path_9030" data-name="Path 9030" d="M110.2,214.8c-1-.6-3.8-1.6-3.3-3.2.2-1.4-.4-13.5.4-14.5l2.7,1.5C109.4,199.6,109,214.5,110.2,214.8Z" transform="translate(-15.95 -40.4)" style="fill:#040405;opacity:0.20000000298023224;isolation:isolate"/><path id="Path_9031" data-name="Path 9031" d="M98.9,175.5a.85.85,0,0,0-.7,0l-12.7,7.4a3.7,3.7,0,0,0-1.3,3.1v12.5c-.3,1.7,2.1,2.3,3.3,3.2a.85.85,0,0,0,.7,0l12.8-7.4a3.7,3.7,0,0,0,1.3-3.1V178.7C102.5,176.7,99.9,176.3,98.9,175.5Z" transform="translate(-15.95 -40.4)" style="fill:#d8d8d8"/><path id="Path_9032" data-name="Path 9032" d="M101.5,177c-1,0-14.3,7.4-14.3,8.5L84.5,184c-.7-.7,13.3-8.1,13.6-8.5C99,175,100.9,176.8,101.5,177Z" transform="translate(-15.95 -40.4)" style="fill:#ececec"/><path id="Path_9033" data-name="Path 9033" d="M87.4,201.6c-1-.6-3.8-1.8-3.3-3.2.1-1.7-.4-13.4.4-14.5l2.7,1.5C86.7,186.3,86.3,201.5,87.4,201.6Z" transform="translate(-15.95 -40.4)" style="fill:#040405;opacity:0.20000000298023224;isolation:isolate"/><path id="Path_9034" data-name="Path 9034" d="M144.4,149.2a.85.85,0,0,0-.7,0L131,156.6a3.7,3.7,0,0,0-1.3,3.1v12.5c-.5,1.6,2.4,2.5,3.3,3.2a.85.85,0,0,0,.7,0l12.7-7.4a3.7,3.7,0,0,0,1.3-3.1V152.4C148.1,150.6,145.6,150,144.4,149.2Z" transform="translate(-15.95 -40.4)" style="fill:#d8d8d8"/><path id="Path_9035" data-name="Path 9035" d="M147.1,150.7a.62.62,0,0,0-.7.1l-12.7,7.4a3.13,3.13,0,0,0-.9,1.1l-2.7-1.5c-.7-.7,13.3-8.1,13.6-8.5C144.5,148.7,146.4,150.5,147.1,150.7Z" transform="translate(-15.95 -40.4)" style="fill:#ececec"/><path id="Path_9036" data-name="Path 9036" d="M132.9,175.4c-1-.6-3.7-1.5-3.3-3.2.2-1.4-.4-13.5.4-14.5l2.7,1.5c-.8,1-.3,13.1-.4,14.5A2.11,2.11,0,0,0,132.9,175.4Z" transform="translate(-15.95 -40.4)" style="fill:#040405;opacity:0.20000000298023224;isolation:isolate"/><path id="Path_9037" data-name="Path 9037" d="M121.7,162.3a.85.85,0,0,0-.7,0l-12.8,7.4a3.7,3.7,0,0,0-1.3,3.1v12.5c-.5,1.6,2.4,2.5,3.3,3.2a.85.85,0,0,0,.7,0l12.7-7.4a3.7,3.7,0,0,0,1.3-3.1V165.5C125.2,163.6,122.7,163.1,121.7,162.3Z" transform="translate(-15.95 -40.4)" style="fill:#d8d8d8"/><path id="Path_9038" data-name="Path 9038" d="M124.3,163.8c-1,0-14.3,7.4-14.3,8.6l-2.7-1.5c-.7-.7,13.3-8.1,13.6-8.5C121.8,161.9,123.7,163.7,124.3,163.8Z" transform="translate(-15.95 -40.4)" style="fill:#ececec"/><path id="Path_9039" data-name="Path 9039" d="M110.2,188.5c-1-.6-3.8-1.6-3.3-3.2.2-1.4-.4-13.5.4-14.5l2.7,1.5C109.4,173.2,109,188.2,110.2,188.5Z" transform="translate(-15.95 -40.4)" style="fill:#040405;opacity:0.20000000298023224;isolation:isolate"/><path id="Path_9040" data-name="Path 9040" d="M93.3,193.7c-.1-.2,1.6-6.6,1.6-6.8l-2.2,1.3c-.4.1-.2-1.4-.1-1.7s3.6-2.1,3.7-2.2c.9.8-1.4,7.3-1.5,8.6,0,.3-1.6,1.4-1.5.8Z" transform="translate(-15.95 -40.4)" style="fill:#354952"/><path id="Path_9041" data-name="Path 9041" d="M115.1,175.8c-.2-3.9,5.8-6,3.8-.7,2.8,3.8-6,8.8-3.4,1.9A1.75,1.75,0,0,1,115.1,175.8Zm1.3,2.5c.1,1.2,1.8-.2,1.6-.9-.1-1.2-1.8.1-1.6.9Zm.1-3.3c.1,1.2,1.6-.1,1.4-.8-.1-1.2-1.5,0-1.4.8Z" transform="translate(-15.95 -40.4)" style="fill:#354952"/><path id="Path_9042" data-name="Path 9042" d="M137.8,163.1c0-4.9,6.3-6.3,3.8-.2l-1.4,3.8c0,.1-.1.1-.1.2a2.85,2.85,0,0,1-1.4.8c-.2-.1.9-2.7.9-2.9C138.5,165.3,137.8,164.1,137.8,163.1Zm3-1.8c-.2-1.7-2.1.4-1.5,1.3S140.9,162,140.8,161.3Z" transform="translate(-15.95 -40.4)" style="fill:#354952"/><path id="Path_9043" data-name="Path 9043" d="M94.8,219.4c-.4.2-.1-1.2-.2-1.3a19.65,19.65,0,0,1-2.5,1.3,6.05,6.05,0,0,1,0-1.9c.7-1.2,1.9-6.6,3.8-6.6.2.1,0,4.4.1,4.6.2,0,.9-.7.9-.2,0,.9.2,1.7-.9,2C96.1,218.6,96.1,218.8,94.8,219.4Zm-.1-3.2v-2.1l-1.1,2.7Z" transform="translate(-15.95 -40.4)" style="fill:#354952"/><path id="Path_9044" data-name="Path 9044" d="M116.5,204.5c1.6,1.5,2.4-3.8.2-1.1-.1,0-1.4,1.1-1.4.5.4-4.6-.8-4.1,3.6-6.5.4-.2.1,1.3.2,1.4.2.5-2.1,1.4-2.4,1.7v1c5-4.4,2.1,8.3-1.4,4.6-.1-.3-.3-.9,0-1.2C115.5,205,116.3,204.3,116.5,204.5Z" transform="translate(-15.95 -40.4)" style="fill:#354952"/><path id="Path_9045" data-name="Path 9045" d="M142.2,189.2c0,5-6.4,6.4-3.9.2a29.48,29.48,0,0,1,1.7-4.1l1.2-.7c.6-.1-.9,2.7-.8,2.9C141.5,186.9,142.4,188.1,142.2,189.2Zm-3,1.8c.3,2.1,2.8-1.4,1.2-1.6A1.59,1.59,0,0,0,139.2,191Z" transform="translate(-15.95 -40.4)" style="fill:#354952"/><path id="Path_9046" data-name="Path 9046" d="M93,241.4c-.2-.5,1.6-3,1.8-3.5.1-.2,1.3-1.1,1.3-.5-.1,0,.2,8.2-.2,7.8-.2,0-1.2,1-1.2.4v-5c-.3.6-.7,1.1-1,1.7C93.5,242.3,93,241.5,93,241.4Z" transform="translate(-15.95 -40.4)" style="fill:#354952"/><path id="Path_9047" data-name="Path 9047" d="M119.3,226.3c.1,1.7-1.2,3.3-1.9,4.7.1,0,2.2-1.6,2.1-.9-.1.3.2,1.4-.2,1.6l-3.9,2.3c-.4.2-.1-1-.2-1.2-.2-1.2,4.5-6.1,2.2-6.3-.6.3-.6,1-.8,1.5a4.13,4.13,0,0,1-1.1.7h-.1C114.5,226.4,119.2,222,119.3,226.3Z" transform="translate(-15.95 -40.4)" style="fill:#354952"/><path id="Path_9048" data-name="Path 9048" d="M141.8,210.6c.8.7-.5,2.9-.9,3.8,4.4.4-2.5,9.3-3,4.1,0-.1.9-.6,1-.7.3-.2.4.3.7.2,1.6-.2,1.8-2.9-.2-1.3-.4.2-.1-1-.2-1.2.3-.8.6-1.5.9-2.2-1.3.5-2.6,2.4-2.1-.5,0-.1.1-.1.1-.2Z" transform="translate(-15.95 -40.4)" style="fill:#354952"/><path id="Path_9049" data-name="Path 9049" d="M117.2,251c3.2-1.6,2.3,4.8,1.6,6.4C114.6,264.2,113.6,252.7,117.2,251Zm.8,4.6c-.1-.6.3-2.6-.4-2.9-2.5.5-.7,8.3.4,2.9Z" transform="translate(-15.95 -40.4)" style="fill:#354952"/><path id="Path_9050" data-name="Path 9050" d="M91.3,166.8c-.1,0-.7-1.5-.8-1.6V169c0,.1,0,.2-.1.2,0,.2-1,.6-1.1.7-.5.2,0-7.4-.2-7.6-.1-.4.8-.7,1.1-.9s1.3,2.5,1.5,2.6c.2-.3,1.1-4.2,1.5-4.3.2,0,1.1-.9,1.1-.3v7.4c0,.4-1,.9-1.3,1-.2-.1,0-3.8-.1-4C92.6,164.5,92.4,166.9,91.3,166.8Z" transform="translate(-15.95 -40.4)" style="fill:#fafafa"/><path id="Path_9051" data-name="Path 9051" d="M96.5,160.8c-.3,3,.8,4.1,2.1.8,2.6-2,.1,3.4-1.2,3.7-3,1.5-2.4-3.5-2.1-5.1,1.5-5.9,6.8-2.6,3.3-.8C97.7,157.9,96.6,159.4,96.5,160.8Z" transform="translate(-15.95 -40.4)" style="fill:#fafafa"/><path id="Path_9052" data-name="Path 9052" d="M114.1,153.6l-.8-1.6c0,.1.1,4.1-.1,4,0,.2-1,.6-1.1.7-.5.2,0-7.4-.2-7.6-.1-.4.8-.7,1.1-.9.4-.4,1.3,2.5,1.5,2.6.2-.3,1.1-4.2,1.5-4.3.2,0,1.1-.9,1.1-.3v7.4c0,.4-1,.9-1.3,1-.2-.1,0-3.8-.1-4C115.4,151.3,115.2,153.7,114.1,153.6Z" transform="translate(-15.95 -40.4)" style="fill:#fafafa"/><path id="Path_9053" data-name="Path 9053" d="M120.4,144c2.7-1.6,2.4,3,1.2,4.2,0,.4,1.3,2.4.8,2.6-.1,0-1.1.8-1.2.6,0,.1-.9-2.1-.9-2.1l-.7.4c-.1.3.2,2.7-.2,2.9-.2,0-1.2,1-1.2.4.1-.2-.1-7.4.1-7.6A15.34,15.34,0,0,1,120.4,144Zm-.8,4c1.8-.5,2.4-3.5,0-1.7Z" transform="translate(-15.95 -40.4)" style="fill:#fafafa"/><path id="Path_9054" data-name="Path 9054" d="M137.8,140a8,8,0,0,1-.8-1.6c-.1.3.2,4.1-.2,4.2-.2,0-1.2,1-1.2.4.1-.2-.3-8,.2-7.8.1,0,.9-.7,1.1-.5s1.2,2.4,1.3,2.6c.2-.3,1.1-4.2,1.5-4.3.2,0,1.1-.9,1.1-.3-.1.1.2,8.1-.2,7.8-.2,0-1.2,1-1.2.4V137C139.1,137.7,138.9,140.1,137.8,140Z" transform="translate(-15.95 -40.4)" style="fill:#fafafa"/><path id="Path_9055" data-name="Path 9055" d="M141.9,137.1c-.4.2-.1-1.2-.2-1.3-.2-.5,2.3-1.5,2.5-1.7.4-.2.1,1.2.2,1.3C144.6,135.8,142.1,136.8,141.9,137.1Z" transform="translate(-15.95 -40.4)" style="fill:#fafafa"/><path id="Path_9056" data-name="Path 9056" d="M160,127.2s-.8-1.5-.8-1.6v3.8c0,.1,0,.2-.1.2,0,.2-1,.6-1.1.7-.5.2,0-7.4-.2-7.6-.1-.4.8-.7,1.1-.9.4-.4,1.3,2.5,1.5,2.6.2-.4,1.1-4.2,1.5-4.4.2,0,1.1-.9,1.1-.3v7.4c0,.4-1,.9-1.3,1-.2-.1,0-3.8-.1-4C161.3,124.8,161.1,127.3,160,127.2Z" transform="translate(-15.95 -40.4)" style="fill:#fafafa"/><path id="Path_9057" data-name="Path 9057" d="M166.4,122.9c-.1.3.2,2.1-.2,2.3-.1,0-1,.7-1.1.5a14.77,14.77,0,0,1-.1-2.1c-.2,0-1.4,1.1-1.4.5-.1-1.5.1-1.6,1.4-2.2.1-.3-.2-2.2.2-2.4.1,0,1-.7,1.1-.5a14.77,14.77,0,0,1,.1,2.1c1.3-.8,1.4-1.1,1.3.7C167.9,122.3,166.7,122.7,166.4,122.9Z" transform="translate(-15.95 -40.4)" style="fill:#fafafa"/><path id="Path_9058" data-name="Path 9058" d="M160.6,152c-.4.2-.3-1.7,0-1.8.1,0,4.4-2.7,4.6-2.6.1.4.2,1.5-.1,1.8Z" transform="translate(-15.95 -40.4)" style="fill:#fafafa"/><path id="Path_9059" data-name="Path 9059" d="M163.5,146.2c.2.9-1.3,2.6-1.5.9C161.9,146.2,163.4,144.4,163.5,146.2Z" transform="translate(-15.95 -40.4)" style="fill:#fafafa"/><path id="Path_9060" data-name="Path 9060" d="M163.5,152.7c-.2-1.8-1.6,0-1.5.9C162.2,155.3,163.7,153.6,163.5,152.7Z" transform="translate(-15.95 -40.4)" style="fill:#fafafa"/><path id="Path_9061" data-name="Path 9061" d="M161.8,176.7c-1.4-1.2-1-1.3-.3-2.8.2-.7,1.1.7,1.2.8l1-2c0-.1.1-.1.1-.2s.7.6.8.7c.3.3-.9,2.2-1,2.5,1.5,1.1,1,1.3.3,2.7-.2.6-1-.7-1.2-.7a15.05,15.05,0,0,1-1.1,2.2c-.1.2-.7-.6-.8-.7C160.6,178.9,161.8,177,161.8,176.7Z" transform="translate(-15.95 -40.4)" style="fill:#fafafa"/><path id="Path_9062" data-name="Path 9062" d="M160.6,204.7c-.4.1-.3-1.7,0-1.8.1,0,4.4-2.7,4.6-2.6.1.4.2,1.5-.1,1.8Z" transform="translate(-15.95 -40.4)" style="fill:#fafafa"/><path id="Path_9063" data-name="Path 9063" d="M92.6,265.3c.5-.5,2,6.9,1.9,6.8,0,.2-1,.6-1,.7-.4.3-.4-.8-.5-1l-2,1.1c-.1.3-.1,1.3-.5,1.5-.2,0-1.3,1-1.1.2l1.6-8.1C91,266,92.2,265.6,92.6,265.3ZM91.4,271l1.2-.7-.6-2.4Z" transform="translate(-15.95 -40.4)" style="fill:#fafafa"/><path id="Path_9064" data-name="Path 9064" d="M96.3,266.3c-.3,3,.8,4.1,2.1.8,2.3-1.8.6,2.2-.3,3-3.8,3.7-3.8-3.5-2.6-5.6,1.9-4.2,6-1.1,2.9.5-.2.1-.2-.1-.3-.2-.6-1.6-2,.6-1.8,1.5Z" transform="translate(-15.95 -40.4)" style="fill:#fafafa"/><path id="Path_9065" data-name="Path 9065" d="M137.9,242.7c-.4.1-.2-1.4-.1-1.6s4.2-2.4,4.4-2.6c.4-.1.2,1.4.1,1.6S138,242.5,137.9,242.7Zm0,2.8c-.4.1-.2-1.4-.1-1.6s4.2-2.4,4.4-2.6c.4-.1.2,1.4.1,1.6S138,245.3,137.9,245.5Z" transform="translate(-15.95 -40.4)" style="fill:#fafafa"/><path id="Path_9066" data-name="Path 9066" d="M163.5,229.3c-.1.3.2,2.1-.2,2.3-1.8,1.4-.9-.4-1.1-1.5-.2,0-1.4,1.1-1.4.5-.1-1.5.1-1.6,1.4-2.2.1-.3-.2-2.1.2-2.3,1.8-1.4.9.4,1.1,1.5.2,0,1.4-1.1,1.3-.5C164.9,228.5,164.7,228.7,163.5,229.3Z" transform="translate(-15.95 -40.4)" style="fill:#fafafa"/><path id="Path_9067" data-name="Path 9067" d="M77.8,102.6a12.62,12.62,0,0,0-1.7,5.7c1.6,4.4-3.1,179.1,1.6,182.5-3-2.5-12.9-5.3-12.3-9.9V102a11.13,11.13,0,0,1,1.7-5.6Z" transform="translate(-15.95 -40.4)" style="fill:#1c262b"/><path id="Path_9068" data-name="Path 9068" d="M172.6,47.9h0c-3.2-2-95,51.9-94.9,54.7L67,96.4a13.72,13.72,0,0,1,4-4.3L157.8,42a4.1,4.1,0,0,1,4-.4C162.9,42.2,171.6,47.2,172.6,47.9Z" transform="translate(-15.95 -40.4)" style="fill:#354952"/><path id="Path_9069" data-name="Path 9069" d="M165.8,99h0c-.7,1.8-79.1,45.6-80.3,46.8-.8.5-1.4.1-1.4-.8.6-1.2-1.5-40.2,1.4-39.6L131.2,79Z" transform="translate(-15.95 -40.4)" style="fill:#354952"/><path id="Path_9070" data-name="Path 9070" d="M166.2,60.5V97.6a3.26,3.26,0,0,1-.4,1.4L131.2,79.1l32.3-18.7C164.4,59.9,166.2,58.6,166.2,60.5Z" transform="translate(-15.95 -40.4)" style="fill:#1c262b"/><path id="Path_9071" data-name="Path 9071" d="M163.6,60.4V96.1a3.55,3.55,0,0,1-1.4,2.5l-78,45V108a3.55,3.55,0,0,1,1.4-2.5Z" transform="translate(-15.95 -40.4)" style="fill:#a3cc84"/><g id="Group_30956" data-name="Group 30956" style="opacity:0.5"><path id="Path_9073" data-name="Path 9073" d="M98.78,125l-2.8,1.6c-2.3,1.5-3.8-2.9-2.1-4.2,1.2-.4.3,3.1,2.1,2,3.9-1.8,4.5-3,4.2-7.3-1.8,2.2-7.1,5.7-7,.3-.1-2.8.2-6.3,2.8-8,2.4-1.5,5.5-3.6,5.6,1.1C101.28,114.47,103,122.47,98.78,125Zm1.4-13.7c.1-.8-.6-1.9-1.4-1.3s-3.5,1.6-3.8,2.8c-.5,1.4-.8,3.8,0,5.2.7.8,3.1-1.4,3.8-1.5,1.6-1.1,1.4-3.5,1.4-5.2Z" transform="translate(-15.95 -40.4)" style="fill:#040405"/><path id="Path_9074" data-name="Path 9074" d="M105.78,109.67c.8,1.5,6.7-6.2,7,.8.1,2.8-.2,6.3-2.8,8-2.4,1.5-5.5,3.6-5.6-1.1,0-.6.4-1.8,1.2-1.5.3.7.2,2.7,1.6,2,1.7-.9,4.4-2.2,4.2-4.6-.1-.9.3-2.7-.4-3.4-1.5-1.2-6.4,5.2-6.6,1,.2-1.1-.6-6.1.7-6.8l7-4c1.2-.4.7,1.8,0,2.1l-5.9,3.4c-.1.1-.2.2-.2.3C105.58,106.17,105.78,109.37,105.78,109.67Z" transform="translate(-15.95 -40.4)" style="fill:#040405"/><path id="Path_9075" data-name="Path 9075" d="M121.08,112.07c-2.4,1.6-5.5,3.6-5.6-1.1.3-4-1.4-11.9,2.8-14.5,2.4-1.5,5.5-3.6,5.6,1.1C123.48,101.67,125.28,109.57,121.08,112.07Zm-2.8-.5c.6-.4,3.1-1.6,3.4-2.3l-4.8-7.5c.4,1-1.2,11.1,1.4,9.8Zm2.8-14.4c-.6.4-3.1,1.6-3.4,2.3l4.8,7.5c-.4-1.1,1.2-11.2-1.4-9.8Z" transform="translate(-15.95 -40.4)" style="fill:#040405"/><path id="Path_9076" data-name="Path 9076" d="M131.48,106.07c-.3,0-4.5,2.9-4.7,2.4-.9-1.4.8-2.5,1.9-2.9-.5-.8,1.2-13.7-1.4-12.1h0c-1.2.4-.7-1.8,0-2.1h0c4.7-2.4,2.2,11.5,2.8,13.4.4-.1,1.5-1.2,1.9-.8A1.6,1.6,0,0,1,131.48,106.07Z" transform="translate(-15.95 -40.4)" style="fill:#040405"/><path id="Path_9077" data-name="Path 9077" d="M140.48,100.87c-2.4,1.6-5.5,3.6-5.6-1.1.3-4-1.4-11.9,2.8-14.5,2.4-1.6,5.5-3.6,5.6,1.1C143,90.37,144.68,98.37,140.48,100.87Zm-2.7-.5c.6-.4,3.1-1.6,3.4-2.3l-4.8-7.5c.4,1-1.2,11.1,1.4,9.8Zm2.7-14.5c-.6.4-3.1,1.6-3.4,2.3l4.8,7.5c-.4-1,1.3-11.1-1.4-9.8Z" transform="translate(-15.95 -40.4)" style="fill:#040405"/><path id="Path_9078" data-name="Path 9078" d="M154.28,92.67c-2,3.2-.9-5.6-1.2-6-1.8,2.2-7.1,5.7-7,.3.3-1.1-1-7.2,1.2-6.8.9,1-1.1,8.3,1.6,7.4,5.4-2.2,4.1-5.2,4.2-9.9-.2-.9,1.3-2.4,1.4-.8v15A3.09,3.09,0,0,1,154.28,92.67Z" transform="translate(-15.95 -40.4)" style="fill:#040405"/></g><path id="Path_9079" data-name="Path 9079" d="M299.7,256.6c-13.9,39-7.9,37.8-21.4-.2Z" transform="translate(-15.95 -40.4)" style="fill:#ef9296"/><path id="Path_9080" data-name="Path 9080" d="M288.1,285.4c1.9,3,3.1-4.9,3.7-5.6a5.34,5.34,0,0,1-5.8-.6Z" transform="translate(-15.95 -40.4)" style="fill:#1c262b"/><path id="Path_9081" data-name="Path 9081" d="M278.7,128v6.2l-.3,122.1c4.8,5.9,17.6,5.5,21.4.3l.3-122.1V128C299.8,132.2,278.5,132.2,278.7,128Z" transform="translate(-15.95 -40.4)" style="fill:#c5c800"/><path id="Path_9082" data-name="Path 9082" d="M278.7,128v6.2l-.3,122.1c4.8,5.9,17.6,5.5,21.4.3l.3-122.1V128C299.8,132.2,278.5,132.2,278.7,128Z" transform="translate(-15.95 -40.4)" style="fill:#a3cc84"/><path id="Path_9083" data-name="Path 9083" d="M278.6,138.7c-.1,6.8-1.4,8.8,8.3,9.7,5.9.6,13-1,13-3.5v-6.3c.2,4.2-19.9,5-21.3.2h0Z" transform="translate(-15.95 -40.4)" style="fill:#e7e6e6"/><path id="Path_9084" data-name="Path 9084" d="M278.6,140.3c-.2,4.2,21.2,4.2,21.3-.1v-6.3c-.2,4.2-21.5,4.3-21.3.1Z" transform="translate(-15.95 -40.4)" style="fill:#a3cc84"/><path id="Path_9085" data-name="Path 9085" d="M278.7,128v6.2c-.2,4.2,20.4,4.3,21.3.3.1-.2,0-6.3,0-6.5C299.8,132.2,278.5,132.2,278.7,128Z" transform="translate(-15.95 -40.4)" style="fill:#e7e6e6"/><path id="Path_9086" data-name="Path 9086" d="M300.1,101.4c-.2-8.3-24.6-7.7-21.3,2.6l-.1,24c-.1,1.8,3.8,3,8.2,3.4,5.9.6,13-1,13.1-3.4h0C300,127.8,300.1,101.5,300.1,101.4Z" transform="translate(-15.95 -40.4)" style="fill:#ec797c"/><path id="Ellipse_107" data-name="Ellipse 107" d="M289.5,95.6c13.9-.1,13.9,11.1,0,11C275.6,106.7,275.6,95.5,289.5,95.6Z" transform="translate(-15.95 -40.4)" style="fill:#fff;opacity:0.20000000298023224;isolation:isolate"/><path id="Path_9087" data-name="Path 9087" d="M300,134.5l.1-33.2c-.1,2.6-4.6,5.1-9.4,5.2-.1,16.7,0,166.9-.9,178.8l9.9-28.8h0Z" transform="translate(-15.95 -40.4)" style="fill:#040405;opacity:0.10000000149011612;isolation:isolate"/><path id="Path_9088" data-name="Path 9088" d="M262.7,149.3c4-.6,10.1,1.5,13.6,6.4s15.6,16.8,16.9,20.6c1,2.8,1.8,9.7-3.9,7.3-5.5-2.4-24.6-21.4-24.6-21.4Z" transform="translate(-15.95 -40.4)" style="fill:#ef9296"/><path id="Path_9089" data-name="Path 9089" d="M290,171.9l9.9-9.6v-9.5c2.9.7,4.6,10.1,4.1,13C301.5,172.2,287.3,199.7,290,171.9Z" transform="translate(-15.95 -40.4)" style="fill:#ef9296"/><path id="Path_9128" data-name="Path 9128" d="M192.8,182.6Z" transform="translate(-15.95 -40.4)" style="fill:#1c262b"/><path id="Path_9149" data-name="Path 9149" d="M251.4,98.6,246.9,96c-.2,0-.9-1.5-1-1.6l2.6-1.5-.1.2Z" transform="translate(-15.95 -40.4)" style="fill:#fff;opacity:0.4000000059604645;isolation:isolate"/><path id="Path_9150" data-name="Path 9150" d="M251.4,98.6,246.9,96c-.2,0-.9-1.5-1-1.6l2.6-1.5-.1.2Z" transform="translate(-15.95 -40.4)" style="fill:#0e4668"/><path id="Path_9151" data-name="Path 9151" d="M248.1,93c.3.2,3.1,6.3,3.7,5.6.1-.1.2-.1.2-.3l3.3-9.5Z" transform="translate(-15.95 -40.4)" style="fill:#055485"/><path id="Path_9152" data-name="Path 9152" d="M290.4,45.7c-.2-3.6-5-6.4-8.3-4.8L235,68.1c-4.1,1.4-1.5,21.2-2.2,24.2,0,2.3,2,3.9,3.9,4.8,1.4,4.3,49.7-27.2,51.7-27.3,2-1.1,2-2.2,2-3.6Z" transform="translate(-15.95 -40.4)" style="fill:#214f6e"/><path id="Path_9153" data-name="Path 9153" d="M232.8,92.3c.2,3.5,4.7,6.2,7.9,5-1,.4-1.8-.2-1.8-1.4.2-1.1-.6-22.4.7-22.6l-6.1-3.5C232.2,69.8,233,91.3,232.8,92.3Z" transform="translate(-15.95 -40.4)" style="fill:#040405;opacity:0.20000000298023224;isolation:isolate"/><path id="Path_9154" data-name="Path 9154" d="M290.3,45.1c-.3-.9-1.1-1.2-2.1-.7L241.1,71.6a4.57,4.57,0,0,0-1.5,1.6l-6.1-3.5a4.63,4.63,0,0,1,1.5-1.6l47.1-27.2c3.1-1.6,7.5.9,8.2,4.2Z" transform="translate(-15.95 -40.4)" style="fill:#fff;opacity:0.4000000059604645;isolation:isolate"/><path id="Path_9155" data-name="Path 9155" d="M243.5,86.7v-.2l1.1-3c-3.2,1.3-2.3-4.2-.8-5.4,1.9-2.4,3.8.2,2.9,2.4-.2.9-1.6,4.6-2,5.6C244.8,86.3,243.5,87.2,243.5,86.7Zm.1-5.7c.5,3.5,3.9-3,1.1-2.1A2.36,2.36,0,0,0,243.6,81Z" transform="translate(-15.95 -40.4)" style="fill:#fafafa"/><path id="Path_9156" data-name="Path 9156" d="M248.4,75.6c-.2-.5,3.1-2,3.3-2.3.4-.2.2.9.2,1.1.2.6-2.3,1.5-2.5,1.8l-.1,1.7c4.7-4,3.2,7.1-.9,5.5-.8-.7-.7-2.2.5-2.3.6,1.8,2.4-.4,2.2-1.6-.3-2.2-1.9.3-2.8.6C247.8,80.6,248.6,75.7,248.4,75.6Z" transform="translate(-15.95 -40.4)" style="fill:#fafafa"/><path id="Path_9157" data-name="Path 9157" d="M258,73.1c0,1.6.1,3.6-.5,5-.4,1.5-3.3,3.6-3.7,1.1a13.41,13.41,0,0,1,.4-6.3c.8-2.6,4-3.4,3.8.2Zm-3.3,4.1c-.2,1.7,1.4,1.7,1.9.3a10.56,10.56,0,0,0,0-5c-2.2-.7-1.9,3.3-1.9,4.7Z" transform="translate(-15.95 -40.4)" style="fill:#fafafa"/><path id="Path_9158" data-name="Path 9158" d="M259.1,72c-.3-.3,1.7-3.4,1.8-3.7s1.1-1.1,1.2-.6V76c.1.4-1.1,1.2-1.1.7V70.4l-1.2,2.1C259.6,72.9,259.2,72.1,259.1,72Z" transform="translate(-15.95 -40.4)" style="fill:#fafafa"/><path id="Path_9159" data-name="Path 9159" d="M267.9,67.3c.1,2.6.1,6.8-3.2,7.3-2-.8-1-4.4-1-6.2.1-2.8,4.4-5.7,4.2-1.1Zm-3.2,4.1c-.2,1.7,1.4,1.7,1.9.3a10.15,10.15,0,0,0,0-4.9c-2.3-.7-2,3.2-1.9,4.6Z" transform="translate(-15.95 -40.4)" style="fill:#fafafa"/><path id="Path_9160" data-name="Path 9160" d="M272.1,70.5c-.5.2-.1-1.6-.2-1.8s-2.9,2.1-2.8,1.3c-.2-1.6,2.3-7.1,3-8.4.2,0,.9-.7.9-.2v5.1c1.1-.8.9-.3.9.7.1.4-.7.7-.9.9C273,69,273.3,70.1,272.1,70.5Zm-.2-3.3V64.5L270.5,68Z" transform="translate(-15.95 -40.4)" style="fill:#fafafa"/><path id="Path_9161" data-name="Path 9161" d="M277.7,64.2c-.1.4.2,2.6-.2,2.8-.2,0-.9.7-.9.2V64.9c-.8.3-2,1.8-1.7-.2-.1-.5,1.4-1.1,1.7-1.3.1-.4-.2-2.6.2-2.8.2,0,.9-.7.9-.2v2.3c.9-.3,1.9-1.8,1.7.2C279.5,63.4,277.9,64,277.7,64.2Z" transform="translate(-15.95 -40.4)" style="fill:#fafafa"/><path id="Path_9162" data-name="Path 9162" d="M281.5,63.1c.4-.2.1,1.3.2,1.5,0,.4-.8.9-1.1.9a4.84,4.84,0,0,1,0-1.7C280.6,63.6,281.4,63.2,281.5,63.1Z" transform="translate(-15.95 -40.4)" style="fill:#fafafa"/><path id="Path_9163" data-name="Path 9163" d="M284.1,61.6c.4-.2.1,1.3.2,1.5.1.4-.8.9-1.1.9a4.84,4.84,0,0,1,0-1.7C283.2,62.1,283.9,61.8,284.1,61.6Z" transform="translate(-15.95 -40.4)" style="fill:#fafafa"/><path id="Path_9164" data-name="Path 9164" d="M286.6,60.2c.4-.2.1,1.3.2,1.5,0,.4-.8.9-1.1.9a4.84,4.84,0,0,1,0-1.7C285.8,60.6,286.5,60.3,286.6,60.2Z" transform="translate(-15.95 -40.4)" style="fill:#fafafa"/><path id="Path_9165" data-name="Path 9165" d="M162.6,295.1c.1-1.2-3.8-2.6-4.5-3.2.7-.6,3.8-1.6,3.7-2.8-.3-.9.7-9.7-.8-9.9-1.3-.5-7.3-4.8-8.8-4.4-1.3-.5-11.2,6.1-12.4,6.6-2.6-.9-12.1-8.8-15.1-6.5-.6.6-9.8,5-9.4,6.1h0v8.8h0c-.1,1.2,3.8,2.6,4.5,3.2-.7.6-3.8,1.7-3.8,2.8h0v8.8h0c-.3,1.1,7.1,4.5,7.7,5.1,2.9,2.2,11.8-5.3,14.4-6.2,2.6.9,12.1,8.8,15.1,6.5.6-.6,9.8-5,9.4-6h0v-8.9Z" transform="translate(-15.95 -40.4)" style="fill:#c5c800"/><path id="Path_9166" data-name="Path 9166" d="M162.6,295.1c.1-1.2-3.8-2.6-4.5-3.2.7-.6,3.8-1.6,3.7-2.8-.3-.9.7-9.7-.8-9.9-1.3-.5-7.3-4.8-8.8-4.4-1.3-.5-11.2,6.1-12.4,6.6-2.6-.9-12.1-8.8-15.1-6.5-.6.6-9.8,5-9.4,6.1h0v8.8h0c-.1,1.2,3.8,2.6,4.5,3.2-.7.6-3.8,1.7-3.8,2.8h0v8.8h0c-.3,1.1,7.1,4.5,7.7,5.1,2.9,2.2,11.8-5.3,14.4-6.2,2.6.9,12.1,8.8,15.1,6.5.6-.6,9.8-5,9.4-6h0v-8.9Z" transform="translate(-15.95 -40.4)" style="fill:#bad89e"/><path id="Path_9167" data-name="Path 9167" d="M148.8,292.4h10.1l-.9-.5c.7-.6,3.8-1.6,3.7-2.8v-8.8c0-1.1-1.8-1.5-2.5-2.1H148.6Z" transform="translate(-15.95 -40.4)" style="fill:#040405;opacity:0.25;isolation:isolate"/><path id="Path_9168" data-name="Path 9168" d="M151.3,310.4c1.4.4,9.3-4.9,10.5-5.4a1.2,1.2,0,0,0,.7-1h0v-8.8h0a.76.76,0,0,0-.2-.5H151.2v15.7Z" transform="translate(-15.95 -40.4)" style="fill:#040405;opacity:0.25;isolation:isolate"/><path id="Path_9169" data-name="Path 9169" d="M116.1,279.8a1.55,1.55,0,0,0-.8,1.1h0v8.8h0c-.1,1.2,3.8,2.6,4.5,3.2h10.3V279.1C129.3,279.2,116.1,278.6,116.1,279.8Z" transform="translate(-15.95 -40.4)" style="fill:#040405;opacity:0.25;isolation:isolate"/><path id="Path_9170" data-name="Path 9170" d="M125.6,310c1.2.5,11.3-6.1,12.5-6.6v-8.8H125.6Z" transform="translate(-15.95 -40.4)" style="fill:#040405;opacity:0.25;isolation:isolate"/><path id="Path_9171" data-name="Path 9171" d="M150.5,287.5l11.3,6.6a1.19,1.19,0,0,1,.7,1.5,1.21,1.21,0,0,1-.7.7c-14.1,8.8-10,5.4-23.7-1.5L127.4,301c-2.8,1.9-8.3-3.1-10.7-4a1.19,1.19,0,0,1-.7-1.5,1.21,1.21,0,0,1,.7-.7l10.7-6.2-11.3-6.5a1.19,1.19,0,0,1-.7-1.5,1.58,1.58,0,0,1,.7-.7c14.1-8.8,10-5.4,23.7,1.5,1.3-.5,11.1-7,12.4-6.5,1.5-.3,7.5,3.9,8.8,4.4a1.07,1.07,0,0,1,.6,1.5,1.17,1.17,0,0,1-.6.6Z" transform="translate(-15.95 -40.4)" style="fill:#a3cc84"/><path id="Path_9172" data-name="Path 9172" d="M209.9,261.4c.7-.6,3.8-1.6,3.7-2.8v-8.8c.3-1.1-7.1-4.5-7.7-5.1-2.9-2.2-11.8,5.3-14.3,6.1-2.7,2-22.3,11.9-23.8,14.4h0V274h0c-.3,1.1,7.1,4.5,7.7,5.1a4,4,0,0,0,3.7,0C186,275.2,203,265.4,209.9,261.4Z" transform="translate(-15.95 -40.4)" style="fill:#c5c800"/><path id="Path_9173" data-name="Path 9173" d="M209.9,261.4c.7-.6,3.8-1.6,3.7-2.8v-8.8c.3-1.1-7.1-4.5-7.7-5.1-2.9-2.2-11.8,5.3-14.3,6.1-2.7,2-22.3,11.9-23.8,14.4h0V274h0c-.3,1.1,7.1,4.5,7.7,5.1a4,4,0,0,0,3.7,0C186,275.2,203,265.4,209.9,261.4Z" transform="translate(-15.95 -40.4)" style="fill:#bad89e"/><path id="Path_9174" data-name="Path 9174" d="M177.5,269v10.5c1,.6,11.4-6.2,12.4-6.6,1.9-1.1,21.7-12.6,23-13.3,1.5-.1.5-9,.8-9.8.1-1.2-3.3-2.3-4-2.9Z" transform="translate(-15.95 -40.4)" style="fill:#040405;opacity:0.25;isolation:isolate"/><path id="Path_9175" data-name="Path 9175" d="M202.3,257l-23,13.3c-2.8,1.9-8.3-3.1-10.7-4a1.19,1.19,0,0,1-.7-1.5,1.21,1.21,0,0,1,.7-.7l10.7-6.2,12.4-7.1c1.2-.5,11.2-7.1,12.4-6.5,1.5-.4,7.5,3.9,8.8,4.4a1.19,1.19,0,0,1,.7,1.5,1.21,1.21,0,0,1-.7.7Z" transform="translate(-15.95 -40.4)" style="fill:#a3cc84"/><path id="Path_8935" data-name="Path 8935" d="M272.3,289.6c.9.8,1.5,7.1-.8,7.7-1.7.5-4.3.2-5.4-1.3-1.7-3.8-12.8-11.8-6.7-15.7,2.2-.9,5.6,2.2,7.3,2.8C268.1,283.5,271.7,289.4,272.3,289.6Z" transform="translate(-15.95 -40.4)" style="fill:#1c262b"/><path id="Path_8936" data-name="Path 8936" d="M272.3,287.8l-.1,2.4a6.05,6.05,0,0,1-6.1,0c-.1-.2-.6-3.4-.6-3.4Z" transform="translate(-15.95 -40.4)" style="fill:#ef9296"/><path id="Path_8937" data-name="Path 8937" d="M252.5,303c1,4.1,4,11.5-4.5,10.5-4.9.4-10.9,4.9-16.4,3.6-16.7-5.1,5.8-7.6,13-14.2Z" transform="translate(-15.95 -40.4)" style="fill:#1c262b"/><path id="Path_8938" data-name="Path 8938" d="M252.6,300.4c0,2.2.5,5.4-4.4,5.1-3.9.1-3.7-2.5-3.5-5.2Z" transform="translate(-15.95 -40.4)" style="fill:#ef9296"/><path id="Path_8939" data-name="Path 8939" d="M274.6,256a66.94,66.94,0,0,0-2.5-12.6c1-11.9,4.1-35,.9-53.6,0,0-33.8-3-34.7,9.7-1.8,34.2,2.5,72.4,6.5,100.8a8.49,8.49,0,0,0,7.9,0c.6-6.2,5.3-35.9.8-46.1,0-1.8,3.2-33.1,3.5-37.2l.8-.4c-.9,14.1,4.7,57.9,8.1,71.2,4,2.3,6.5-.1,6.5-.1S275.5,263.9,274.6,256Z" transform="translate(-15.95 -40.4)" style="fill:#29373e"/><path id="Path_8940" data-name="Path 8940" d="M256.9,217.2s8.8-4.1,13.1-7.8c0,0-4.1,5.6-9.5,8,0,0-2.3,19.6-2.3,19.2l-.6-19.3Z" transform="translate(-15.95 -40.4)" style="fill:#1c262b"/><path id="Path_8941" data-name="Path 8941" d="M250.8,144.5l1.3,11.7,11-.6L262,142Z" transform="translate(-15.95 -40.4)" style="fill:#ef9296"/><path id="Path_8943" data-name="Path 8943" d="M274,152.9c-.8-4.5-7-7.3-11.6-5.6-.5,2-5.9,3.2-11,2-1.5.4-6.6,1.4-7.9,1.8-9.9,4.1-4.2,35.2-5.6,49.6,11.7,6,34,3.3,36.5-3.8l-1.6-12.5C272.7,184.5,275.4,160.3,274,152.9Z" transform="translate(-15.95 -40.4)" style="fill:#354952"/><path id="Path_8944" data-name="Path 8944" d="M251.3,148.3l.1.7c2.4,1.1,10.6-.5,11.1-1.8l-.1-.9s.9-.3,1.4,1c3.3,6.1-9.9,7.6-13.8,4.3l-1.6.3c.4-.3,1.4-4.7,2.9-4.5Z" transform="translate(-15.95 -40.4)" style="fill:#29373e"/><path id="Path_8945" data-name="Path 8945" d="M217.6,135.8l-21.9,11.4,10.9,29.7L227,165.5Z" transform="translate(-15.95 -40.4)" style="fill:#354952"/><path id="Path_8946" data-name="Path 8946" d="M216.6,138.7l-18.3,9.6,9.6,25.5,17.1-9.6Z" transform="translate(-15.95 -40.4)" style="fill:#f2f2f2"/><path id="Path_8947" data-name="Path 8947" d="M212.8,141.5c-.2-2.9-5.4.8-7,1.5-2.2,1.3-3.2,1.9-2.3,3.4Z" transform="translate(-15.95 -40.4)" style="fill:#040405;opacity:0.15000000596046448;isolation:isolate"/><path id="Path_8948" data-name="Path 8948" d="M212.4,137.8c-.3-.7-2.2.5-2.7.8-1.3-2.9-7.1.7-5.9,3-1,.6-3.2,1.4-2.4,2.6l11.3-5.9Z" transform="translate(-15.95 -40.4)" style="fill:#a3cc84"/><path id="Path_8949" data-name="Path 8949" d="M211.2,139.1c-2.1.5-.8,2.4-.5,3.1l-5,2.6c-.3-.5-.5-2.8-1.9-1.8l-.3-.3,7.9-4Z" transform="translate(-15.95 -40.4)" style="fill:#c5c800"/><path id="Path_8950" data-name="Path 8950" d="M211.2,139.1c-2.1.5-.8,2.4-.5,3.1l-5,2.6c-.3-.5-.5-2.8-1.9-1.8l-.3-.3,7.9-4Z" transform="translate(-15.95 -40.4)" style="fill:#b5e090"/><path id="Path_8951" data-name="Path 8951" d="M213,141.5c-.4-1.7-1.4-1.3-3.8-.2-1.6,1.1-7.3,2.9-5.6,5Z" transform="translate(-15.95 -40.4)" style="fill:#a3cc84"/><path id="Path_8952" data-name="Path 8952" d="M243.7,153.2c-5,.4-7.2,1.4-11,8.2-5.5,12.1-16.8,22.6-13.5,30.6,6.5,8.8,22-21.2,22.5-20.3C241.8,171.7,249.3,161.6,243.7,153.2Z" transform="translate(-15.95 -40.4)" style="fill:#ef9296"/><path id="Path_8953" data-name="Path 8953" d="M221.3,193.5c-8.6-3.2-15.2-19.8-23.3-25-4.2-1.6-4.1-14.6,1-12.4.4,1.2,1.6,4.3,2,5.5,2.9,2.6.6-1,.8-3.5,0-2.4,1.7-.8,2.2,0,1.9,2.7,2.1,7,3.2,9.6,1,1.4,14.5,14.4,14.5,14.4Z" transform="translate(-15.95 -40.4)" style="fill:#ef9296"/><path id="Path_8954" data-name="Path 8954" d="M244.6,152.9c-3.1-.1-6.7.4-9.6,4.1s-14.2,23.8-14.2,23.8l-6.4-5.7a11.06,11.06,0,0,0-4.9,6.9c7.8,12,13.5,18.5,24.3,1.7C242.7,169.4,250.1,166.7,244.6,152.9Z" transform="translate(-15.95 -40.4)" style="fill:#29373e"/><path id="Path_8955" data-name="Path 8955" d="M243.1,130.2s-2.8,4.2-2.4,4.6a7.87,7.87,0,0,0,2.3.8Z" transform="translate(-15.95 -40.4)" style="fill:#ec797c"/><path id="Path_8956" data-name="Path 8956" d="M244.4,132.9c-4.3.1-4.3-6.6,0-6.6S248.6,132.9,244.4,132.9Zm0-5.9c-3.3-.1-3.3,5.2,0,5.1C247.7,132.2,247.7,127,244.4,127Z" transform="translate(-15.95 -40.4)" style="fill:#1c262b"/><path id="Path_8957" data-name="Path 8957" d="M250.7,118.6c-5.6,1.2-7.2,3.6-7.7,12.5-.5,9.2.4,12.1,1.6,13.4,6.1,2.3,14.9-.8,20.1-7.4C274.1,122.3,261.2,115.8,250.7,118.6Z" transform="translate(-15.95 -40.4)" style="fill:#ef9296"/><path id="Path_8958" data-name="Path 8958" d="M250.9,145.1l-.3-1.7a11.13,11.13,0,0,1-5.7,1.3A13.91,13.91,0,0,0,250.9,145.1Z" transform="translate(-15.95 -40.4)" style="fill:#ec797c"/><path id="Path_8959" data-name="Path 8959" d="M241.4,128.9l9.9,1.3-.4.7-9.5-1.2Z" transform="translate(-15.95 -40.4)" style="fill:#1c262b"/><path id="Path_8960" data-name="Path 8960" d="M242.1,122.2a2.88,2.88,0,0,0,1.3-.1c-.8,1.9,1.5,3.3,3.2,2.6a2.61,2.61,0,0,0,2.6,3.8c.1,1.3.1,2.6,1.5,3.1,0,0,.9-3.4,3.8-3,5.3.8,1.2,9.5-2,7.8.4,6.9,10.4,11.5,13.3,3.6,2.9-.8,5.4-3.4,3.8-6.5a3.79,3.79,0,0,0,2.7-4.7,3.47,3.47,0,0,0-1.2-1.9,4.47,4.47,0,0,0-1.4-8.1c-1.8-.5-.6-5.3-6.2-4.2-.4-2.8-4.5-4.4-6.3-2.1-1.5-3.1-5.9-3.8-7.7-.5-3.1-4-10.5.1-7,4.6C239.6,117.2,238.9,121.6,242.1,122.2Z" transform="translate(-15.95 -40.4)" style="fill:#1c262b"/><path id="Path_8961" data-name="Path 8961" d="M250.5,133.7l.1-3.9C248.1,129.7,248,133.7,250.5,133.7Z" transform="translate(-15.95 -40.4)" style="fill:#1c262b"/><path id="Path_9180" data-name="Path 9180" d="M268.5,149.8c3.1-.1,4.3.6,7.2,4.3S290.4,171,290.4,171l9.6-8.6c2.5,1.6,2.8,2.7,3.4,5.6-2.7,5.3-7.3,15.7-13,16.6-2.9-.4-16.7-12.2-16.7-12.6S272.3,148,268.5,149.8Z" transform="translate(-15.95 -40.4)" style="fill:#29373e"/><path d="M158.8,122.1a2.2,2.2,0,0,1-1.5.9,1.79,1.79,0,0,1-1.8-1.8,2.09,2.09,0,0,1,.9-1.7,2.14,2.14,0,0,1,1.3-.5h0a1.55,1.55,0,0,1,.8.2.37.37,0,0,1,.1.3.45.45,0,0,1-.3.4c-.1,0-.1,0-.2-.1a1.22,1.22,0,0,0-.9-.4c-.5,0-1,.4-1,1.3a1.47,1.47,0,0,0,1.3,1.6,1.11,1.11,0,0,0,1-.5Z" transform="translate(-15.95 -40.4)"/><path d="M162,123.1a7.18,7.18,0,0,1-.8-2.5v-.4h-.6c-.8,0-1.4-.4-1.4-1.2a1.51,1.51,0,0,1,1.3-1.5c.5,0,1,.5,1,2a5.34,5.34,0,0,0,.9,2.9,1.61,1.61,0,0,1-.4.7Zm-1.6-4.8a.68.68,0,0,0-.7.5c0,.4.7.6,1.2.6h.2C161.1,118.5,160.7,118.3,160.4,118.3Z" transform="translate(-15.95 -40.4)"/><path d="M164,119.2V119a1.48,1.48,0,0,1,.1-.7,2.24,2.24,0,0,1,.7-1,1.91,1.91,0,0,1,1-.5.78.78,0,0,1,.7.3.19.19,0,0,1,0,.3c0,.1-.1.1-.2.2a.19.19,0,0,1-.3,0,.91.91,0,0,0-.7-.3c-.2,0-.4.1-.4.3a3.09,3.09,0,0,0-.2,1.3v.4h1c.1.1,0,.3-.1.4h-.9v2.4c0,.6.1.7.8.7v.2h-2.1v-.2c.6-.1.6-.1.6-.7v-2.5h-.6v-.1l.2-.3Z" transform="translate(-15.95 -40.4)"/><path d="M168.6,117.5a6.89,6.89,0,0,0-.3.8,4.44,4.44,0,0,0-1.4.9c0,.2.6.6,1.6.6h.4a3.33,3.33,0,0,1-.3.6c-.8.4-1.4.9-1.4,1.2s.4.6,1.2.6a1.94,1.94,0,0,0,1.2-.3h0a9.22,9.22,0,0,0-.5.8,2.15,2.15,0,0,1-1,.2,1.17,1.17,0,0,1-1.3-1.2c0-.6.3-.9.8-1.4-.7-.1-1.1-.4-1.1-.9a1.16,1.16,0,0,1,.4-1,4.26,4.26,0,0,1,1.7-.9Z" transform="translate(-15.95 -40.4)"/><path d="M173.1,123c-.2,0-.4-.1-.4-.2a.52.52,0,0,1-.2-.4,4.53,4.53,0,0,1-1,.5,1,1,0,0,1-1.1-1.1.76.76,0,0,1,.7-.8c.6-.2,1.2-.4,1.3-.6v-.2c0-.6-.3-.9-.7-.9a.52.52,0,0,0-.4.2,1.63,1.63,0,0,0-.3.6c-.1.2-.1.2-.3.2a.43.43,0,0,1-.4-.4c0-.1.1-.2.3-.4a3.93,3.93,0,0,1,1.3-.6,1.45,1.45,0,0,1,.7.2,1.37,1.37,0,0,1,.4,1.1v1.5c0,.4.2.5.3.5a.37.37,0,0,0,.3-.1l.1.2Zm-.7-2.1a2.12,2.12,0,0,1-.7.3.63.63,0,0,0-.5.6c0,.5.3.7.6.7a.71.71,0,0,0,.6-.3v-1.3Z" transform="translate(-15.95 -40.4)"/><path d="M176.7,117.5a6.89,6.89,0,0,0-.3.8,4.44,4.44,0,0,0-1.4.9c0,.2.6.6,1.6.6h.4a3.33,3.33,0,0,1-.3.6c-.8.4-1.4.9-1.4,1.2s.4.6,1.2.6a1.94,1.94,0,0,0,1.2-.3h0a9.22,9.22,0,0,0-.5.8,2.15,2.15,0,0,1-1,.2,1.17,1.17,0,0,1-1.3-1.2c0-.6.3-.9.8-1.4-.7-.1-1.1-.4-1.1-.9a1.16,1.16,0,0,1,.4-1,4.26,4.26,0,0,1,1.7-.9Z" transform="translate(-15.95 -40.4)"/></svg>