<svg id="Layer_1" data-name="Layer 1" xmlns="http://www.w3.org/2000/svg" viewBox="0 0 590.01 273.73"><rect width="590.01" height="273.73" style="fill:#fff"/><polyline points="317.17 124.91 280.28 203.97 354.05 203.97" style="fill:#a3cc84"/><polygon points="177.89 204.08 213.04 204.08 288.33 38.69 252.6 38.69 177.89 204.08" style="fill:#a3cc84"/><path d="M40.16,182.77l21.59-25.24c11.83,10.07,27.17,17,40.86,17,15.7,0,23.38-6.05,23.38-15.71,0-10.24-9.45-13.53-24-19.38l-21.62-9c-17.24-6.86-33.57-20.72-33.57-44.37,0-27,24.62-48.5,59.25-48.5,19.15,0,39.18,7.38,53.51,21.32l-19,23.19c-11-8.22-21.37-12.74-34.52-12.74-13,0-21.22,5.28-21.22,14.59,0,10,10.88,13.61,25.4,19.26l21.19,8.4c20.32,8,33,21.27,33,44.28,0,27-23,50.44-62.67,50.44C80.13,206.3,57.12,198.28,40.16,182.77Z" transform="translate(-0.21 -0.08)" style="fill:#22506f"/><path d="M369.18,38.93h59.9c35.28,0,64.2,12.2,64.2,51.59,0,38.08-28.92,54.47-64.2,54.47h-22.3v59.63h-37.6ZM426,115.25c19.78,0,30.41-8.43,30.41-24.73S445.8,68.67,426,68.67H406.78v46.58Zm-3.81,19.87,26-24,53.08,93.47H459.22Z" transform="translate(-0.21 -0.08)" style="fill:#22506f"/><path d="M513.18,38.4h37.61V204.1H513.18Z" transform="translate(-0.21 -0.08)" style="fill:#22506f"/><path d="M38.93,212.76h6.39c4.38,0,7.41,1.47,7.41,5.21a4.66,4.66,0,0,1-3.15,4.62v.13A4.92,4.92,0,0,1,54,227.81C54,232,50.61,234,45.81,234H38.93Zm5.93,9.05c3.66,0,5.18-1.33,5.18-3.49,0-2.49-1.73-3.41-5.06-3.41H41.67v6.9Zm.56,10.08c3.68,0,5.85-1.31,5.85-4.18,0-2.62-2.09-3.82-5.85-3.82H41.67v8Z" transform="translate(-0.21 -0.08)" style="fill:#22506f"/><path d="M81.4,225.79l-6.47-13h2.92l2.78,6c.69,1.56,1.34,3,2.08,4.64h.13c.75-1.6,1.49-3.08,2.15-4.64l2.78-6h2.84l-6.47,13V234H81.4Z" transform="translate(-0.21 -0.08)" style="fill:#22506f"/><path d="M129.94,212.76H133L140.31,234h-2.9l-3.76-11.89c-.77-2.38-1.46-4.71-2.15-7.17h-.13c-.67,2.47-1.36,4.79-2.13,7.17L125.44,234h-2.79Zm-3.46,12.63h9.92v2.16h-9.92Z" transform="translate(-0.21 -0.08)" style="fill:#22506f"/><path d="M168.09,223.42c0-6.87,4.09-11,9.55-11a8,8,0,0,1,5.92,2.62l-1.5,1.77a5.85,5.85,0,0,0-4.37-2c-4.07,0-6.77,3.29-6.77,8.59s2.58,8.71,6.66,8.71a6.49,6.49,0,0,0,5-2.39l1.51,1.7a8.36,8.36,0,0,1-6.61,3.07C172.11,234.43,168.09,230.33,168.09,223.42Z" transform="translate(-0.21 -0.08)" style="fill:#22506f"/><path d="M214.32,212.76h6.74c4.38,0,7.53,1.55,7.53,6,0,4.25-3.15,6.29-7.53,6.29h-4v9h-2.74Zm6.35,10.09c3.35,0,5.19-1.35,5.19-4.1S224,215,220.67,215h-3.61v7.9Zm-.15,1.45,2.15-1.4L229.24,234h-3.11Z" transform="translate(-0.21 -0.08)" style="fill:#22506f"/><path d="M258,223.32c0-6.82,3.79-10.95,9.2-10.95s9.2,4.15,9.2,10.95-3.79,11.11-9.2,11.11S258,230.14,258,223.32Zm15.57,0c0-5.3-2.53-8.57-6.37-8.57s-6.37,3.27-6.37,8.57,2.52,8.73,6.37,8.73S273.55,228.62,273.55,223.32Z" transform="translate(-0.21 -0.08)" style="fill:#22506f"/><path d="M305.7,231.27l1.63-1.86a8.47,8.47,0,0,0,5.94,2.64c2.83,0,4.51-1.39,4.51-3.46s-1.56-2.87-3.6-3.75l-3.09-1.34c-2-.85-4.36-2.35-4.36-5.48s2.87-5.65,6.78-5.65a9,9,0,0,1,6.34,2.63l-1.45,1.74a6.93,6.93,0,0,0-4.89-2c-2.42,0-4,1.2-4,3.11s1.87,2.81,3.56,3.52l3.07,1.31c2.49,1.06,4.43,2.53,4.43,5.69,0,3.36-2.81,6.05-7.33,6.05A10.38,10.38,0,0,1,305.7,231.27Z" transform="translate(-0.21 -0.08)" style="fill:#22506f"/><path d="M349.46,231.27l1.64-1.86a8.45,8.45,0,0,0,5.94,2.64c2.82,0,4.5-1.39,4.5-3.46s-1.56-2.87-3.59-3.75l-3.1-1.34c-2-.85-4.35-2.35-4.35-5.48s2.86-5.65,6.77-5.65a8.93,8.93,0,0,1,6.34,2.63l-1.45,1.74a6.93,6.93,0,0,0-4.89-2c-2.41,0-4,1.2-4,3.11s1.88,2.81,3.56,3.52l3.07,1.31c2.49,1.06,4.44,2.53,4.44,5.69,0,3.36-2.81,6.05-7.34,6.05A10.38,10.38,0,0,1,349.46,231.27Z" transform="translate(-0.21 -0.08)" style="fill:#22506f"/><path d="M394.78,212.76h3.3l4.13,11.37c.52,1.45,1,3,1.53,4.43h.13c.52-1.48,1-3,1.49-4.43l4.08-11.37h3.3V234h-2.55V222.32c0-1.85.21-4.41.35-6.29h-.13l-1.71,4.85-4.06,11h-1.81l-4.08-11-1.7-4.85h-.13c.13,1.88.34,4.44.34,6.29V234h-2.48Z" transform="translate(-0.21 -0.08)" style="fill:#22506f"/><path d="M444.88,212.76h12.41v2.29h-9.67v6.67h8.16V224h-8.16v7.74h10V234H444.88Z" transform="translate(-0.21 -0.08)" style="fill:#22506f"/><path d="M488.41,212.76h2.83l7.8,13.38,2.32,4.4h.13c-.14-2.14-.35-4.54-.35-6.77v-11h2.61V234h-2.83l-7.8-13.39-2.32-4.4h-.13c.13,2.16.35,4.43.35,6.65V234h-2.61Z" transform="translate(-0.21 -0.08)" style="fill:#22506f"/><path d="M540.31,212.76h3.09L550.69,234h-2.9L544,222.15c-.77-2.38-1.46-4.71-2.15-7.17h-.14c-.66,2.47-1.35,4.79-2.13,7.17L535.82,234H533Zm-3.45,12.63h9.91v2.16h-9.91Z" transform="translate(-0.21 -0.08)" style="fill:#22506f"/></svg>