<svg id="Layer_1" data-name="Layer 1" xmlns="http://www.w3.org/2000/svg" viewBox="0 0 590.01 273.73"><rect width="590.01" height="273.73" style="fill:#a4cc84"/><polyline points="316.9 131.09 280.02 210.15 353.79 210.15" style="fill:#fff"/><polygon points="177.63 210.26 212.78 210.26 288.07 44.87 252.34 44.87 177.63 210.26" style="fill:#fff"/><path d="M40.41,189.9,62,164.66c11.83,10.07,27.17,17,40.86,17,15.7,0,23.38-6,23.38-15.71,0-10.25-9.46-13.54-24-19.38l-21.61-9C63.41,130.7,47.08,116.85,47.08,93.2c0-27,24.62-48.51,59.24-48.51,19.16,0,39.19,7.39,53.51,21.33l-19,23.19c-11-8.23-21.38-12.75-34.53-12.75-13,0-21.21,5.28-21.21,14.59,0,10,10.88,13.61,25.39,19.27l21.2,8.4c20.31,8,33,21.27,33,44.27,0,27-23,50.45-62.67,50.45C80.38,213.44,57.38,205.42,40.41,189.9Z" transform="translate(-0.73 -1.03)" style="fill:#22506f"/><path d="M369.43,46.06h59.91c35.28,0,64.2,12.2,64.2,51.6,0,38.08-28.92,54.47-64.2,54.47H407v59.63H369.43Zm56.85,76.33c19.78,0,30.4-8.44,30.4-24.73S446.06,75.8,426.28,75.8H407v46.59Zm-3.82,19.86,26-24,53.09,93.48H459.48Z" transform="translate(-0.73 -1.03)" style="fill:#22506f"/><path d="M513.44,45.54h37.61V211.23H513.44Z" transform="translate(-0.73 -1.03)" style="fill:#22506f"/><path d="M39.19,219.89h6.39c4.38,0,7.41,1.47,7.41,5.21a4.65,4.65,0,0,1-3.15,4.62v.13a5,5,0,0,1,4.38,5.1c0,4.18-3.35,6.22-8.15,6.22H39.19ZM45.12,229c3.66,0,5.17-1.34,5.17-3.5,0-2.48-1.72-3.41-5-3.41H41.93V229ZM45.68,239c3.68,0,5.85-1.31,5.85-4.18,0-2.62-2.09-3.82-5.85-3.82H41.93v8Z" transform="translate(-0.73 -1.03)" style="fill:#22506f"/><path d="M81.65,232.92l-6.47-13h2.93l2.78,6c.69,1.57,1.34,3,2.08,4.64h.13c.75-1.59,1.49-3.07,2.15-4.64l2.78-6h2.84l-6.48,13v8.25H81.65Z" transform="translate(-0.73 -1.03)" style="fill:#22506f"/><path d="M130.19,219.89h3.09l7.29,21.28h-2.9l-3.76-11.88c-.77-2.38-1.46-4.72-2.15-7.17h-.14c-.66,2.46-1.35,4.79-2.13,7.17l-3.79,11.88h-2.79Zm-3.45,12.64h9.91v2.16h-9.91Z" transform="translate(-0.73 -1.03)" style="fill:#22506f"/><path d="M168.34,230.55c0-6.86,4.1-11.05,9.56-11.05a8.06,8.06,0,0,1,5.92,2.63l-1.5,1.76a5.9,5.9,0,0,0-4.37-2c-4.07,0-6.78,3.3-6.78,8.6s2.59,8.7,6.67,8.7a6.46,6.46,0,0,0,5-2.39l1.5,1.7a8.34,8.34,0,0,1-6.6,3.07C172.36,241.56,168.34,237.46,168.34,230.55Z" transform="translate(-0.73 -1.03)" style="fill:#22506f"/><path d="M214.57,219.89h6.75c4.38,0,7.53,1.56,7.53,6,0,4.25-3.15,6.3-7.53,6.3h-4v9h-2.74ZM220.92,230c3.35,0,5.2-1.34,5.2-4.1s-1.85-3.79-5.2-3.79h-3.61V230Zm-.14,1.46,2.14-1.41,6.57,11.14h-3.1Z" transform="translate(-0.73 -1.03)" style="fill:#22506f"/><path d="M258.23,230.45c0-6.81,3.8-10.95,9.21-10.95s9.2,4.15,9.2,10.95-3.8,11.11-9.2,11.11S258.23,237.27,258.23,230.45Zm15.58,0c0-5.3-2.53-8.57-6.37-8.57s-6.38,3.27-6.38,8.57,2.53,8.73,6.38,8.73S273.81,235.76,273.81,230.45Z" transform="translate(-0.73 -1.03)" style="fill:#22506f"/><path d="M306,238.4l1.64-1.86a8.45,8.45,0,0,0,5.94,2.64c2.83,0,4.5-1.39,4.5-3.46s-1.56-2.86-3.59-3.74l-3.09-1.35c-2-.85-4.36-2.35-4.36-5.48s2.86-5.65,6.78-5.65a8.94,8.94,0,0,1,6.34,2.64l-1.46,1.74a6.92,6.92,0,0,0-4.88-2c-2.42,0-4,1.21-4,3.11s1.88,2.82,3.57,3.52l3.06,1.31c2.5,1.06,4.44,2.53,4.44,5.69,0,3.37-2.81,6.05-7.34,6.05A10.38,10.38,0,0,1,306,238.4Z" transform="translate(-0.73 -1.03)" style="fill:#22506f"/><path d="M349.72,238.4l1.64-1.86a8.45,8.45,0,0,0,5.93,2.64c2.83,0,4.51-1.39,4.51-3.46s-1.56-2.86-3.6-3.74l-3.09-1.35c-2-.85-4.36-2.35-4.36-5.48s2.87-5.65,6.78-5.65a8.92,8.92,0,0,1,6.34,2.64l-1.45,1.74a6.94,6.94,0,0,0-4.89-2c-2.41,0-4,1.21-4,3.11s1.87,2.82,3.56,3.52l3.07,1.31c2.49,1.06,4.43,2.53,4.43,5.69,0,3.37-2.81,6.05-7.33,6.05A10.38,10.38,0,0,1,349.72,238.4Z" transform="translate(-0.73 -1.03)" style="fill:#22506f"/><path d="M395,219.89h3.3l4.13,11.37c.52,1.46,1,3,1.53,4.44h.13c.52-1.48,1-3,1.49-4.44l4.08-11.37H413v21.28h-2.55V229.45c0-1.85.21-4.41.35-6.29h-.13L409,228l-4.06,11h-1.81L399,228l-1.71-4.85h-.13c.14,1.88.35,4.44.35,6.29v11.72H395Z" transform="translate(-0.73 -1.03)" style="fill:#22506f"/><path d="M445.14,219.89h12.41v2.29h-9.67v6.67H456v2.29h-8.15v7.74h10v2.29H445.14Z" transform="translate(-0.73 -1.03)" style="fill:#22506f"/><path d="M488.67,219.89h2.83l7.79,13.38,2.33,4.41h.13c-.14-2.15-.35-4.55-.35-6.77v-11H504v21.28h-2.83l-7.79-13.39-2.33-4.39h-.13c.14,2.15.35,4.42.35,6.65v11.13h-2.6Z" transform="translate(-0.73 -1.03)" style="fill:#22506f"/><path d="M540.57,219.89h3.09l7.28,21.28H548l-3.75-11.88c-.78-2.38-1.47-4.72-2.16-7.17H542c-.67,2.46-1.36,4.79-2.13,7.17l-3.8,11.88h-2.78Zm-3.46,12.64H547v2.16h-9.92Z" transform="translate(-0.73 -1.03)" style="fill:#22506f"/></svg>