<svg id="Layer_1" data-name="Layer 1" xmlns="http://www.w3.org/2000/svg" viewBox="0 0 511.9 196.8"><title>sari_blue1</title><polyline points="278.5 87.4 241.6 166.5 315.3 166.5" style="fill:#a4cc84"/><polygon points="139.2 166.6 174.3 166.6 249.6 1.2 213.9 1.2 139.2 166.6" style="fill:#a4cc84"/><path d="M40,182.7l21.6-25.2c11.8,10.1,27.2,17,40.9,17,15.7,0,23.4-6,23.4-15.7,0-10.3-9.5-13.5-24-19.4l-21.6-9C63.1,123.5,46.7,109.7,46.7,86c0-27,24.6-48.5,59.2-48.5,19.2,0,39.2,7.4,53.5,21.3L140.4,82c-11-8.2-21.4-12.7-34.5-12.7S84.7,74.6,84.7,83.9c0,10,10.9,13.6,25.4,19.3l21.2,8.4c20.3,8,33,21.3,33,44.3,0,27-23,50.4-62.7,50.4C79.9,206.2,56.9,198.2,40,182.7Z" transform="translate(-38.7 -37.5)" style="fill:#fff"/><path d="M369,38.9h59.9c35.3,0,64.2,12.2,64.2,51.6,0,38.1-28.9,54.5-64.2,54.5H406.6v59.6H369Zm56.8,76.3c19.8,0,30.4-8.4,30.4-24.7s-10.6-21.9-30.4-21.9H406.6v46.6ZM422,135l26-24,53.1,93.5H459Z" transform="translate(-38.7 -37.5)" style="fill:#fff"/><path d="M513,38.3h37.6V204H513Z" transform="translate(-38.7 -37.5)" style="fill:#fff"/><path d="M38.7,212.7h6.4c4.4,0,7.4,1.5,7.4,5.2a4.54,4.54,0,0,1-3.2,4.6v.1a4.93,4.93,0,0,1,4.4,5.1c0,4.2-3.3,6.2-8.1,6.2H38.7Zm6,9c3.7,0,5.2-1.3,5.2-3.5,0-2.5-1.7-3.4-5.1-3.4H41.5v6.9Zm.5,10.1c3.7,0,5.8-1.3,5.8-4.2,0-2.6-2.1-3.8-5.8-3.8H41.4v8Z" transform="translate(-38.7 -37.5)" style="fill:#fff"/><path d="M81.2,225.7l-6.5-13h2.9l2.8,6c.7,1.6,1.3,3,2.1,4.6h.1c.8-1.6,1.5-3.1,2.2-4.6l2.8-6h2.8l-6.5,13V234H81.2Z" transform="translate(-38.7 -37.5)" style="fill:#fff"/><path d="M129.7,212.7h3.1l7.3,21.3h-2.9l-3.8-11.9c-.8-2.4-1.5-4.7-2.1-7.2h-.1c-.7,2.5-1.4,4.8-2.1,7.2L125.3,234h-2.8Zm-3.4,12.6h9.9v2.2h-9.9Z" transform="translate(-38.7 -37.5)" style="fill:#fff"/><path d="M167.9,223.3c0-6.9,4.1-11.1,9.6-11.1a8.09,8.09,0,0,1,5.9,2.6l-1.5,1.8a5.71,5.71,0,0,0-4.4-2c-4.1,0-6.8,3.3-6.8,8.6s2.6,8.7,6.7,8.7a6.5,6.5,0,0,0,5-2.4l1.5,1.7a8.35,8.35,0,0,1-6.6,3.1C171.9,234.4,167.9,230.3,167.9,223.3Z" transform="translate(-38.7 -37.5)" style="fill:#fff"/><path d="M214.1,212.7h6.8c4.4,0,7.5,1.6,7.5,6s-3.1,6.3-7.5,6.3h-4v9h-2.7Zm6.4,10.1c3.4,0,5.2-1.3,5.2-4.1s-1.9-3.8-5.2-3.8h-3.6v7.9Zm-.2,1.4,2.1-1.4L229,234h-3.1Z" transform="translate(-38.7 -37.5)" style="fill:#fff"/><path d="M257.8,223.2c0-6.8,3.8-11,9.2-11s9.2,4.1,9.2,11-3.8,11.1-9.2,11.1S257.8,230.1,257.8,223.2Zm15.5,0c0-5.3-2.5-8.6-6.4-8.6s-6.4,3.3-6.4,8.6,2.5,8.7,6.4,8.7S273.3,228.5,273.3,223.2Z" transform="translate(-38.7 -37.5)" style="fill:#fff"/><path d="M305.5,231.2l1.6-1.9a8.44,8.44,0,0,0,5.9,2.6c2.8,0,4.5-1.4,4.5-3.5s-1.5-2.9-3.6-3.8l-3.1-1.3c-2-.9-4.4-2.4-4.4-5.5s2.9-5.6,6.8-5.6a8.6,8.6,0,0,1,6.3,2.6l-1.5,1.7a7,7,0,0,0-4.9-2c-2.4,0-4,1.2-4,3.1s1.9,2.8,3.6,3.5l3.1,1.3c2.5,1.1,4.4,2.5,4.4,5.7,0,3.4-2.8,6-7.3,6A9.57,9.57,0,0,1,305.5,231.2Z" transform="translate(-38.7 -37.5)" style="fill:#fff"/><path d="M349.3,231.2l1.6-1.9a8.26,8.26,0,0,0,5.9,2.6c2.8,0,4.5-1.4,4.5-3.5s-1.6-2.9-3.6-3.8l-3.1-1.3c-2-.9-4.4-2.4-4.4-5.5s2.9-5.6,6.8-5.6a8.6,8.6,0,0,1,6.3,2.6l-1.5,1.7a7,7,0,0,0-4.9-2c-2.4,0-4,1.2-4,3.1s1.9,2.8,3.6,3.5l3.1,1.3c2.5,1.1,4.4,2.5,4.4,5.7,0,3.4-2.8,6-7.3,6A9.57,9.57,0,0,1,349.3,231.2Z" transform="translate(-38.7 -37.5)" style="fill:#fff"/><path d="M394.6,212.7h3.3l4.1,11.4c.5,1.4,1,3,1.5,4.4h.1c.5-1.5,1-3,1.5-4.4l4.1-11.4h3.3V234H410V222.3c0-1.9.2-4.4.4-6.3h-.1l-1.7,4.9-4.1,11h-1.8l-4.1-11-1.7-4.9h-.1c.1,1.9.4,4.4.4,6.3V234h-2.5V212.7Z" transform="translate(-38.7 -37.5)" style="fill:#fff"/><path d="M444.7,212.7h12.4V215h-9.7v6.7h8.1V224h-8.1v7.7h10V234H444.7V212.7Z" transform="translate(-38.7 -37.5)" style="fill:#fff"/><path d="M488.2,212.7H491l7.8,13.4,2.3,4.4h.1c-.1-2.1-.4-4.5-.4-6.8v-11h2.6V234h-2.8l-7.8-13.4-2.3-4.4h-.1c.1,2.2.3,4.4.3,6.6V234h-2.6Z" transform="translate(-38.7 -37.5)" style="fill:#fff"/><path d="M540.1,212.7h3.1l7.3,21.3h-2.9l-3.8-11.9c-.8-2.4-1.5-4.7-2.2-7.2h-.1c-.7,2.5-1.3,4.8-2.1,7.2L535.6,234h-2.8Zm-3.4,12.6h9.9v2.2h-9.9Z" transform="translate(-38.7 -37.5)" style="fill:#fff"/></svg>