<svg id="Layer_1" data-name="Layer 1" xmlns="http://www.w3.org/2000/svg" viewBox="0 0 590.01 273.73"><rect width="590.01" height="273.73" style="fill:#22506f"/><polyline points="317.17 124.91 280.28 203.97 354.05 203.97" style="fill:#a4cc84"/><polygon points="177.89 204.08 213.04 204.08 288.33 38.69 252.6 38.69 177.89 204.08" style="fill:#a4cc84"/><path d="M39.68,182.72l21.59-25.24c11.83,10.07,27.17,17,40.86,17,15.7,0,23.38-6,23.38-15.7,0-10.25-9.46-13.54-24-19.39l-21.61-9C62.67,123.52,46.34,109.66,46.34,86c0-27,24.62-48.5,59.25-48.5,19.15,0,39.18,7.38,53.5,21.33L140.11,82c-11-8.22-21.38-12.74-34.52-12.74-13,0-21.22,5.28-21.22,14.59,0,10,10.88,13.61,25.4,19.26l21.19,8.4c20.31,8,33,21.28,33,44.28,0,27-23,50.44-62.67,50.44C79.64,206.25,56.64,198.23,39.68,182.72Z" transform="translate(0.27 -0.03)" style="fill:#fff"/><path d="M368.7,38.88h59.9c35.28,0,64.2,12.2,64.2,51.6,0,38.07-28.92,54.46-64.2,54.46H406.3v59.63H368.7Zm56.84,76.32c19.78,0,30.41-8.43,30.41-24.72s-10.63-21.86-30.41-21.86H406.3V115.2Zm-3.82,19.87,26-24,53.09,93.47H458.74Z" transform="translate(0.27 -0.03)" style="fill:#fff"/><path d="M512.7,38.35h37.61v165.7H512.7Z" transform="translate(0.27 -0.03)" style="fill:#fff"/><path d="M38.45,212.71h6.39c4.38,0,7.41,1.47,7.41,5.21a4.66,4.66,0,0,1-3.15,4.62v.13a4.92,4.92,0,0,1,4.38,5.09c0,4.18-3.35,6.23-8.15,6.23H38.45Zm5.93,9c3.66,0,5.18-1.33,5.18-3.49,0-2.48-1.73-3.41-5.06-3.41H41.19v6.9Zm.56,10.08c3.68,0,5.85-1.31,5.85-4.18,0-2.62-2.09-3.82-5.85-3.82H41.19v8Z" transform="translate(0.27 -0.03)" style="fill:#fff"/><path d="M80.92,225.74l-6.48-13h2.93l2.78,6c.69,1.57,1.34,3,2.08,4.64h.13c.75-1.6,1.49-3.07,2.15-4.64l2.78-6h2.84l-6.47,13V234H80.92Z" transform="translate(0.27 -0.03)" style="fill:#fff"/><path d="M129.45,212.71h3.1L139.83,234h-2.9l-3.76-11.89c-.77-2.38-1.46-4.71-2.15-7.17h-.13c-.67,2.47-1.36,4.79-2.13,7.17L125,234h-2.79ZM126,225.35h9.91v2.16H126Z" transform="translate(0.27 -0.03)" style="fill:#fff"/><path d="M167.61,223.37c0-6.87,4.09-11.05,9.55-11.05a8.1,8.1,0,0,1,5.92,2.62l-1.5,1.77a5.85,5.85,0,0,0-4.37-2c-4.07,0-6.77,3.29-6.77,8.6S173,232,177.1,232a6.49,6.49,0,0,0,5-2.39l1.5,1.7a8.33,8.33,0,0,1-6.6,3.07C171.62,234.38,167.61,230.28,167.61,223.37Z" transform="translate(0.27 -0.03)" style="fill:#fff"/><path d="M213.83,212.71h6.75c4.38,0,7.53,1.55,7.53,6,0,4.25-3.15,6.29-7.53,6.29h-4v9h-2.74Zm6.35,10.09c3.35,0,5.2-1.34,5.2-4.1s-1.85-3.8-5.2-3.8h-3.61v7.9Zm-.14,1.45,2.14-1.4L228.75,234h-3.1Z" transform="translate(0.27 -0.03)" style="fill:#fff"/><path d="M257.5,223.27c0-6.81,3.79-11,9.2-11s9.2,4.15,9.2,11-3.79,11.11-9.2,11.11S257.5,230.09,257.5,223.27Zm15.57,0c0-5.3-2.53-8.57-6.37-8.57s-6.37,3.27-6.37,8.57,2.52,8.73,6.37,8.73S273.07,228.57,273.07,223.27Z" transform="translate(0.27 -0.03)" style="fill:#fff"/><path d="M305.21,231.22l1.64-1.86a8.47,8.47,0,0,0,5.94,2.64c2.83,0,4.5-1.39,4.5-3.46s-1.55-2.87-3.59-3.75l-3.09-1.34c-2-.85-4.36-2.35-4.36-5.48s2.87-5.65,6.78-5.65a8.92,8.92,0,0,1,6.34,2.64l-1.45,1.74a6.9,6.9,0,0,0-4.89-2c-2.42,0-4,1.2-4,3.11s1.88,2.81,3.57,3.52l3.07,1.31c2.49,1.06,4.43,2.53,4.43,5.69,0,3.36-2.81,6-7.33,6A10.4,10.4,0,0,1,305.21,231.22Z" transform="translate(0.27 -0.03)" style="fill:#fff"/><path d="M349,231.22l1.64-1.86a8.45,8.45,0,0,0,5.94,2.64c2.82,0,4.5-1.39,4.5-3.46s-1.56-2.87-3.59-3.75l-3.1-1.34c-2-.85-4.36-2.35-4.36-5.48s2.87-5.65,6.78-5.65a8.92,8.92,0,0,1,6.34,2.64l-1.45,1.74a6.9,6.9,0,0,0-4.89-2c-2.41,0-4,1.2-4,3.11s1.88,2.81,3.56,3.52l3.07,1.31c2.49,1.06,4.44,2.53,4.44,5.69,0,3.36-2.81,6-7.34,6A10.38,10.38,0,0,1,349,231.22Z" transform="translate(0.27 -0.03)" style="fill:#fff"/><path d="M394.3,212.71h3.3l4.13,11.37c.52,1.45,1,3,1.53,4.43h.13c.52-1.47,1-3,1.49-4.43L409,212.71h3.3V234h-2.55V222.27c0-1.85.21-4.41.35-6.29h-.13l-1.71,4.85-4.06,11h-1.81l-4.08-11-1.7-4.85h-.14c.14,1.88.35,4.44.35,6.29V234H394.3Z" transform="translate(0.27 -0.03)" style="fill:#fff"/><path d="M444.4,212.71h12.41V215h-9.67v6.67h8.15V224h-8.15v7.74h10V234H444.4Z" transform="translate(0.27 -0.03)" style="fill:#fff"/><path d="M487.93,212.71h2.83l7.79,13.38,2.33,4.4H501c-.14-2.14-.35-4.54-.35-6.77v-11h2.6V234h-2.83l-7.79-13.39-2.32-4.4h-.13c.13,2.16.34,4.43.34,6.65V234h-2.6Z" transform="translate(0.27 -0.03)" style="fill:#fff"/><path d="M539.83,212.71h3.09L550.21,234H547.3l-3.75-11.89c-.77-2.38-1.47-4.71-2.16-7.17h-.13c-.66,2.47-1.35,4.79-2.13,7.17L535.33,234h-2.78Zm-3.45,12.64h9.91v2.16h-9.91Z" transform="translate(0.27 -0.03)" style="fill:#fff"/></svg>