<svg id="Layer_1" data-name="Layer 1" xmlns="http://www.w3.org/2000/svg" viewBox="0 0 228.49 221.09"><title>select_user</title><g id="Group_31011" data-name="Group 31011"><g id="freepik--background-simple--inject-1--inject-2"><path id="Path_9274" data-name="Path 9274" d="M205.15,33.32c-14-31.94-47.63-44-74.16-22.52-10.36,8.37-16.82,21.68-29.51,27-11.9,5-27,3.54-39.85,6.25C34.23,49.81-2.66,71.6.15,105.17c1.23,14.7,11.15,31,16.06,44.8,5.63,15.83,9,35.64,23.91,45.1,25.55,16.25,56.37,3,79.38-10.13,12.39-7,19.2-11.37,32.54-9,12.35,2.25,23.46,10.13,35.53.78,9.06-7,9.81-21.25,17.41-29.6,8.57-9.41,17.25-10.1,21.71-24.24,5.4-17.17-2.56-27.89-7.93-43.23S211.75,48.35,205.15,33.32Z" transform="translate(0 0)" style="fill:#055485"/><g id="Group_30970" data-name="Group 30970" style="opacity:0.699999988079071"><path id="Path_9275" data-name="Path 9275" d="M205.15,33.32c-14-31.94-47.63-44-74.16-22.52-10.36,8.37-16.82,21.68-29.51,27-11.9,5-27,3.54-39.85,6.25C34.23,49.81-2.66,71.6.15,105.17c1.23,14.7,11.15,31,16.06,44.8,5.63,15.83,9,35.64,23.91,45.1,25.55,16.25,56.37,3,79.38-10.13,12.39-7,19.2-11.37,32.54-9,12.35,2.25,23.46,10.13,35.53.78,9.06-7,9.81-21.25,17.41-29.6,8.57-9.41,17.25-10.1,21.71-24.24,5.4-17.17-2.56-27.89-7.93-43.23S211.75,48.35,205.15,33.32Z" transform="translate(0 0)" style="fill:#055485"/></g></g><g id="freepik--Shadow--inject-1--inject-2"><ellipse id="Ellipse_112" data-name="Ellipse 112" cx="104.77" cy="215.67" rx="87.03" ry="5.42" style="fill:#5291b9"/><ellipse id="Ellipse_113" data-name="Ellipse 113" cx="104.77" cy="215.67" rx="87.03" ry="5.42" style="fill:#5291b9;opacity:0.800000011920929;isolation:isolate"/></g><rect id="Rectangle_9583" data-name="Rectangle 9583" x="62.13" y="9.14" width="109.38" height="206.62" rx="19.43" ry="19.43" style="fill:#1c262b"/><rect id="Rectangle_9584" data-name="Rectangle 9584" x="66.99" y="31.83" width="99.66" height="161.24" style="fill:#fff;stroke:#1c262b;stroke-miterlimit:10;stroke-width:1.3370000123977661px"/><circle id="Ellipse_114" data-name="Ellipse 114" cx="116.82" cy="81.84" r="21.6" style="fill:#c5c800"/><path id="Path_9276" data-name="Path 9276" d="M145.18,182.93H88.47a1,1,0,0,1-1-1h0a1,1,0,0,1,1-1h56.73a1,1,0,0,1,1,1h0a1,1,0,0,1-1,1Z" transform="translate(0 0)" style="fill:#055485"/><rect id="Rectangle_9585" data-name="Rectangle 9585" x="84.36" y="115.59" width="64.93" height="11.64" rx="4.01" ry="4.01" style="fill:#c5c800"/><rect id="Rectangle_9586" data-name="Rectangle 9586" x="84.36" y="137.35" width="64.93" height="11.64" rx="4.01" ry="4.01" style="fill:#c5c800"/><path id="Path_9277" data-name="Path 9277" d="M127.58,92.62,121.22,89v-3a9.94,9.94,0,0,0,2-3.81,2.06,2.06,0,0,0,.68.12c.79,0,1.29-2.44,1.37-4.19A2.6,2.6,0,0,0,124.9,75a5.23,5.23,0,0,0,.86-2.59c.34-2.08-1.21-1.21-2.42-3.11s-2.08-4-6.05-4a5.46,5.46,0,0,0-5.19,3.29,13.14,13.14,0,0,0-2.94.34c-1.22.34-1.56,4.32-.52,5.88a5.93,5.93,0,0,1,.72,2.77c-.28-.34-.56-.43-.72.34-.34,1.73,1,4.15,1,4.15l.71-.2a10.13,10.13,0,0,0,2,4.07v3l-6.36,3.66a4.89,4.89,0,0,0-2.44,4.23v2.09a21.59,21.59,0,0,0,26.4,0V96.85A4.88,4.88,0,0,0,127.58,92.62Z" transform="translate(0 0)" style="fill:#1c262b"/><rect id="Rectangle_9587" data-name="Rectangle 9587" x="66.99" y="32.04" width="99.66" height="6.24" style="fill:#055485"/><path id="Path_9284" data-name="Path 9284" d="M127.66,20.54H106a1.48,1.48,0,0,1-1.48-1.48h0A1.48,1.48,0,0,1,106,17.59h21.68a1.48,1.48,0,0,1,1.48,1.48h0a1.48,1.48,0,0,1-1.48,1.48Z" transform="translate(0 0)" style="fill:#c5c800;stroke:#1c262b;stroke-linecap:round;stroke-linejoin:round;stroke-width:1.3370000123977661px"/><path id="Path_9285" data-name="Path 9285" d="M122.73,202.18a5.91,5.91,0,1,0-5.92,5.9h0A5.91,5.91,0,0,0,122.73,202.18Z" transform="translate(0 0)" style="fill:#c5c800"/><rect id="Rectangle_9588" data-name="Rectangle 9588" x="113.83" y="199.18" width="5.99" height="5.99" style="fill:#c5c800;stroke:#1c262b;stroke-linecap:round;stroke-linejoin:round;stroke-width:1.3370000123977661px"/><g id="freepik--Plant--inject-1--inject-2"><path id="Path_9286" data-name="Path 9286" d="M188.18,134.2s-7.85-19.94-.86-22.31c7.27-2.47,7,10.7,6.67,17.11-.59,13.72-2.11,16.27-3.24,12.91Zm-2.36,15.55c2.16,2.82,2.76-.1-1.13-13.27-1.82-6.19-5.79-18.72-11.87-14-5.84,4.5,8.06,20.83,8.06,20.83Zm-4.17,11.43c2.05,1.82,2.09-.48-2.79-10-2.29-4.45-7.14-13.47-11.11-9-3.81,4.3,9.18,14.76,9.18,14.76Zm-4.5,13.59c2.05,1.83,2.09-.48-2.79-10-2.29-4.45-7.14-13.47-11.11-9-3.79,4.31,9.16,14.77,9.16,14.77Zm13-27.66c-3.29,1.28-.68,2.68,13.06,2.64,6.44,0,19.59-.29,16.79-7.45-2.68-6.87-22.24,1.88-22.24,1.88Zm-3.74,9.15c-3.48.6-1.19,2.49,12.27,5.18,6.31,1.27,19.25,3.6,17.93-3.94-1.27-7.27-22.18-2.58-22.18-2.58Zm-4.19,11.16c-3,.43-1.07,2.08,10.25,4.67,5.31,1.22,16.2,3.5,15.26-2.94-.9-6.19-18.69-2.69-18.69-2.69ZM179,177.76c-2.9.74-.84,2.18,10.7,3.55,5.4.64,16.48,1.76,14.86-4.54-1.56-6-18.87-.69-18.87-.69Zm17-41.87c-1.69,3.78,1.82,3.21,13.74-7.2,5.58-4.88,16.79-15.09,7.91-20.18C209.15,103.63,200,127.2,200,127.2Zm-16.53,55.34c-1.78,1,0,1.45,8.15-.19,3.84-.76,11.65-2.45,9-5.78s-13,3.55-13,3.55Z" transform="translate(0 0)" style="fill:#c5c800"/><path id="Path_9287" data-name="Path 9287" d="M188.18,134.2s-7.85-19.94-.86-22.31c7.27-2.47,7,10.7,6.67,17.11-.59,13.72-2.11,16.27-3.24,12.91Zm-2.36,15.55c2.16,2.82,2.76-.1-1.13-13.27-1.82-6.19-5.79-18.72-11.87-14-5.84,4.5,8.06,20.83,8.06,20.83Zm-4.17,11.43c2.05,1.82,2.09-.48-2.79-10-2.29-4.45-7.14-13.47-11.11-9-3.81,4.3,9.18,14.76,9.18,14.76Zm-4.5,13.59c2.05,1.83,2.09-.48-2.79-10-2.29-4.45-7.14-13.47-11.11-9-3.79,4.31,9.16,14.77,9.16,14.77Zm13-27.66c-3.29,1.28-.68,2.68,13.06,2.64,6.44,0,19.59-.29,16.79-7.45-2.68-6.87-22.24,1.88-22.24,1.88Zm-3.74,9.15c-3.48.6-1.19,2.49,12.27,5.18,6.31,1.27,19.25,3.6,17.93-3.94-1.27-7.27-22.18-2.58-22.18-2.58Zm-4.19,11.16c-3,.43-1.07,2.08,10.25,4.67,5.31,1.22,16.2,3.5,15.26-2.94-.9-6.19-18.69-2.69-18.69-2.69ZM179,177.76c-2.9.74-.84,2.18,10.7,3.55,5.4.64,16.48,1.76,14.86-4.54-1.56-6-18.87-.69-18.87-.69Zm17-41.87c-1.69,3.78,1.82,3.21,13.74-7.2,5.58-4.88,16.79-15.09,7.91-20.18C209.15,103.63,200,127.2,200,127.2Zm-16.53,55.34c-1.78,1,0,1.45,8.15-.19,3.84-.76,11.65-2.45,9-5.78s-13,3.55-13,3.55Z" transform="translate(0 0)" style="fill:#fff;opacity:0.30000001192092896;isolation:isolate"/><path id="Path_9288" data-name="Path 9288" d="M191.64,143.49l-1.37-22.76m-3,30.27-8.65-19.58m31,13.88-20.72,3m-6.07,13.27-11.22-14.4m13.19,10,15.46.78m-19.12,10.26L193,169.34m-14.68,5.84-5.88-8.82m5.2,12,13.9.13m-16.71,25.95a.36.36,0,0,0,.32-.38c-.88-13.28,4.25-35,12.49-52.86,5.26-11.41,25.9-33.82,26.12-34a.36.36,0,0,0,0-.5.35.35,0,0,0-.49,0h0c-.21.22-20.93,22.73-26.23,34.23-8.39,18.28-13.45,39.63-12.55,53.22a.36.36,0,0,0,.36.33Zm16.84-60.55a.36.36,0,0,0,.33-.37l-1.35-22.77a.35.35,0,0,0-.36-.33h0a.36.36,0,0,0-.33.37l1.37,22.76a.35.35,0,0,0,.35.33Zm-4.2,7.48a.35.35,0,0,0,.18-.46L179,131.28a.35.35,0,0,0-.66.24l0,0L187,151.14a.37.37,0,0,0,.49.18h0Zm1.5-2.7,20.71-3a.36.36,0,1,0,0-.71h-.08l-20.71,3a.35.35,0,1,0,0,.7ZM183,161.83a.36.36,0,0,0,.07-.5h0l-11.23-14.42a.36.36,0,1,0-.56.43h0l11.25,14.45a.35.35,0,0,0,.28.14.36.36,0,0,0,.23-.1Zm17.54-3.9a.35.35,0,0,0-.34-.37l-15.43-.78a.35.35,0,0,0,0,.7l15.46.78h0a.36.36,0,0,0,.37-.34Zm-7.28,11.45a.35.35,0,0,0-.3-.39h0l-11.82-1.17a.35.35,0,0,0-.38.31h0a.35.35,0,0,0,.32.38l11.82,1.17h0a.35.35,0,0,0,.37-.32Zm-14.83,6.1a.36.36,0,0,0,.1-.49l-5.84-8.83a.36.36,0,0,0-.49-.1.35.35,0,0,0-.1.49l5.84,8.83a.37.37,0,0,0,.3.16.34.34,0,0,0,.21-.07Zm13.41,3a.36.36,0,0,0-.35-.35l-13.9-.13h0a.35.35,0,0,0-.35.35.34.34,0,0,0,.33.35h0l13.9.13h0a.36.36,0,0,0,.37-.34h0Zm-18.65,20.78a13.74,13.74,0,0,1,9.53-8.15.36.36,0,0,0,.27-.42.36.36,0,0,0-.42-.27,14.47,14.47,0,0,0-10,8.61.36.36,0,0,0,.22.45h.11a.35.35,0,0,0,.36-.22Zm1.58,5.16a.36.36,0,0,0,.32-.38c-.88-13.28,4.25-35,12.49-52.86,5.26-11.41,25.9-33.82,26.12-34a.36.36,0,0,0,0-.5.35.35,0,0,0-.49,0h0c-.21.22-20.93,22.73-26.24,34.23-8.39,18.28-13.45,39.63-12.55,53.22a.36.36,0,0,0,.36.33Zm16.84-60.55a.36.36,0,0,0,.33-.37l-1.35-22.77a.35.35,0,0,0-.36-.33h0a.36.36,0,0,0-.33.37l1.37,22.76a.35.35,0,0,0,.35.33Zm-4.2,7.48a.35.35,0,0,0,.18-.46L179,131.28a.35.35,0,0,0-.64.28L187,151.14a.37.37,0,0,0,.49.18h0Zm1.5-2.7,20.71-3a.36.36,0,0,0,0-.71h-.08l-20.71,3a.35.35,0,1,0,0,.7ZM183,161.83a.36.36,0,0,0,.07-.5h0l-11.23-14.42a.36.36,0,0,0-.56.43l11.25,14.45a.35.35,0,0,0,.28.14.36.36,0,0,0,.23-.1Zm17.54-3.9a.35.35,0,0,0-.34-.37l-15.43-.78a.35.35,0,0,0,0,.7l15.46.78h0a.36.36,0,0,0,.37-.34Zm-7.28,11.45a.35.35,0,0,0-.3-.39h0l-11.82-1.17a.35.35,0,0,0-.38.31h0a.35.35,0,0,0,.32.38l11.82,1.17h0a.35.35,0,0,0,.37-.32Zm-14.83,6.1a.36.36,0,0,0,.1-.49l-5.84-8.83a.36.36,0,0,0-.49-.1.35.35,0,0,0-.1.49l5.84,8.83a.37.37,0,0,0,.3.16.34.34,0,0,0,.21-.07Zm13.41,3a.36.36,0,0,0-.35-.35l-13.9-.13h0a.35.35,0,0,0-.35.35.34.34,0,0,0,.33.35h0l13.9.13h0a.36.36,0,0,0,.37-.34h0Zm-18.66,20.78a13.74,13.74,0,0,1,9.53-8.15.36.36,0,0,0,.27-.42.36.36,0,0,0-.42-.27,14.47,14.47,0,0,0-10,8.61.36.36,0,0,0,.22.45h.11a.35.35,0,0,0,.36-.22Z" transform="translate(0 0)" style="fill:#c5c800"/><path id="Path_9289" data-name="Path 9289" d="M191.64,143.49l-1.37-22.76m-3,30.27-8.65-19.58m31,13.88-20.72,3m-6.07,13.27-11.22-14.4m13.19,10,15.46.78m-19.12,10.26L193,169.34m-14.68,5.84-5.88-8.82m5.2,12,13.9.13m-16.71,25.95a.36.36,0,0,0,.32-.38c-.88-13.28,4.25-35,12.49-52.86,5.26-11.41,25.9-33.82,26.12-34a.36.36,0,0,0,0-.5.35.35,0,0,0-.49,0h0c-.21.22-20.93,22.73-26.23,34.23-8.39,18.28-13.45,39.63-12.55,53.22a.36.36,0,0,0,.36.33Zm16.84-60.55a.36.36,0,0,0,.33-.37l-1.35-22.77a.35.35,0,0,0-.36-.33h0a.36.36,0,0,0-.33.37l1.37,22.76a.35.35,0,0,0,.35.33Zm-4.2,7.48a.35.35,0,0,0,.18-.46L179,131.28a.35.35,0,0,0-.66.24l0,0L187,151.14a.37.37,0,0,0,.49.18h0Zm1.5-2.7,20.71-3a.36.36,0,1,0,0-.71h-.08l-20.71,3a.35.35,0,1,0,0,.7ZM183,161.83a.36.36,0,0,0,.07-.5h0l-11.23-14.42a.36.36,0,1,0-.56.43h0l11.25,14.45a.35.35,0,0,0,.28.14.36.36,0,0,0,.23-.1Zm17.54-3.9a.35.35,0,0,0-.34-.37l-15.43-.78a.35.35,0,0,0,0,.7l15.46.78h0a.36.36,0,0,0,.37-.34Zm-7.28,11.45a.35.35,0,0,0-.3-.39h0l-11.82-1.17a.35.35,0,0,0-.38.31h0a.35.35,0,0,0,.32.38l11.82,1.17h0a.35.35,0,0,0,.37-.32Zm-14.83,6.1a.36.36,0,0,0,.1-.49l-5.84-8.83a.36.36,0,0,0-.49-.1.35.35,0,0,0-.1.49l5.84,8.83a.37.37,0,0,0,.3.16.34.34,0,0,0,.21-.07Zm13.41,3a.36.36,0,0,0-.35-.35l-13.9-.13h0a.35.35,0,0,0-.35.35.34.34,0,0,0,.33.35h0l13.9.13h0a.36.36,0,0,0,.37-.34h0Zm-18.65,20.78a13.74,13.74,0,0,1,9.53-8.15.36.36,0,0,0,.27-.42.36.36,0,0,0-.42-.27,14.47,14.47,0,0,0-10,8.61.36.36,0,0,0,.22.45h.11a.35.35,0,0,0,.36-.22Zm1.58,5.16a.36.36,0,0,0,.32-.38c-.88-13.28,4.25-35,12.49-52.86,5.26-11.41,25.9-33.82,26.12-34a.36.36,0,0,0,0-.5.35.35,0,0,0-.49,0h0c-.21.22-20.93,22.73-26.24,34.23-8.39,18.28-13.45,39.63-12.55,53.22a.36.36,0,0,0,.36.33Zm16.84-60.55a.36.36,0,0,0,.33-.37l-1.35-22.77a.35.35,0,0,0-.36-.33h0a.36.36,0,0,0-.33.37l1.37,22.76a.35.35,0,0,0,.35.33Zm-4.2,7.48a.35.35,0,0,0,.18-.46L179,131.28a.35.35,0,0,0-.64.28L187,151.14a.37.37,0,0,0,.49.18h0Zm1.5-2.7,20.71-3a.36.36,0,0,0,0-.71h-.08l-20.71,3a.35.35,0,1,0,0,.7ZM183,161.83a.36.36,0,0,0,.07-.5h0l-11.23-14.42a.36.36,0,0,0-.56.43l11.25,14.45a.35.35,0,0,0,.28.14.36.36,0,0,0,.23-.1Zm17.54-3.9a.35.35,0,0,0-.34-.37l-15.43-.78a.35.35,0,0,0,0,.7l15.46.78h0a.36.36,0,0,0,.37-.34Zm-7.28,11.45a.35.35,0,0,0-.3-.39h0l-11.82-1.17a.35.35,0,0,0-.38.31h0a.35.35,0,0,0,.32.38l11.82,1.17h0a.35.35,0,0,0,.37-.32Zm-14.83,6.1a.36.36,0,0,0,.1-.49l-5.84-8.83a.36.36,0,0,0-.49-.1.35.35,0,0,0-.1.49l5.84,8.83a.37.37,0,0,0,.3.16.34.34,0,0,0,.21-.07Zm13.41,3a.36.36,0,0,0-.35-.35l-13.9-.13h0a.35.35,0,0,0-.35.35.34.34,0,0,0,.33.35h0l13.9.13h0a.36.36,0,0,0,.37-.34h0Zm-18.66,20.78a13.74,13.74,0,0,1,9.53-8.15.36.36,0,0,0,.27-.42.36.36,0,0,0-.42-.27,14.47,14.47,0,0,0-10,8.61.36.36,0,0,0,.22.45h.11a.35.35,0,0,0,.36-.22Z" transform="translate(0 0)" style="fill:#040405;opacity:0.20000000298023224;isolation:isolate"/><path id="Path_9290" data-name="Path 9290" d="M184,194.46H168v3.3h1.39l2.88,18h7.4l2.88-18H184Z" transform="translate(0 0)" style="fill:#c5c800"/><path id="Path_9291" data-name="Path 9291" d="M184,194.46H168v3.3h1.39l2.88,18h7.4l2.88-18H184Z" transform="translate(0 0)" style="fill:#fff;opacity:0.30000001192092896;isolation:isolate"/></g><g id="freepik--Character--inject-2"><g id="freepik--group--inject-2"><path id="Path_9240" data-name="Path 9240" d="M30.44,209.78h-5.7a.41.41,0,0,0-.4.32l-.93,4.18a.69.69,0,0,0,.54.82h.17c1.85,0,3.19-.15,5.51-.15,1.43,0,5.74.15,7.71.15s2.25-1.95,1.43-2.13c-3.63-.79-6.35-1.88-7.5-2.92a1.13,1.13,0,0,0-.82-.28Z" transform="translate(0 0)" style="fill:#1c262b"/><path id="Path_9241" data-name="Path 9241" d="M54.64,209.63H48.94a.42.42,0,0,0-.4.32l-.92,4.18a.69.69,0,0,0,.52.82h.17c1.85,0,3.19-.14,5.51-.14,1.43,0,5.74.15,7.71.15s2.25-1.95,1.43-2.13c-3.62-.79-6.35-1.88-7.5-2.92A1.13,1.13,0,0,0,54.64,209.63Z" transform="translate(0 0)" style="fill:#1c262b"/><path id="Path_9242" data-name="Path 9242" d="M30.44,209.78h-5.7a.41.41,0,0,0-.4.32l-.93,4.18a.69.69,0,0,0,.54.82h.17c1.85,0,3.19-.15,5.51-.15,1.43,0,5.74.15,7.71.15s2.25-1.95,1.43-2.13c-3.63-.79-6.35-1.88-7.5-2.92a1.13,1.13,0,0,0-.82-.28Z" transform="translate(0 0)" style="fill:#fff;opacity:0.30000001192092896;isolation:isolate"/><path id="Path_9243" data-name="Path 9243" d="M54.64,209.63H48.94a.42.42,0,0,0-.4.32l-.92,4.18a.69.69,0,0,0,.52.82h.17c1.85,0,3.19-.14,5.51-.14,1.43,0,5.74.15,7.71.15s2.25-1.95,1.43-2.13c-3.62-.79-6.35-1.88-7.5-2.92A1.13,1.13,0,0,0,54.64,209.63Z" transform="translate(0 0)" style="fill:#fff;opacity:0.30000001192092896;isolation:isolate"/><path id="Path_9244" data-name="Path 9244" d="M55.4,97.78l-1.69,3.11s3.19,2.93,3.19,4-2.84,3.33-4.08,2a16.34,16.34,0,0,1-3-5.56c0-.71,1.31-1.46,1.31-1.46l2.48-4.54Z" transform="translate(0 0)" style="fill:#dc7267"/><path id="Path_9245" data-name="Path 9245" d="M49.81,68.2c3.64.68,12.7,8.55,12.39,15.82s-7.57,15.59-7.57,15.59-3.94-2.25-3-2.25S58.53,86.73,58,83.88s-8.24-9.57-8.24-9.57Z" transform="translate(0 0)" style="fill:#c5c800"/><path id="Path_9246" data-name="Path 9246" d="M62.21,84c-.3,7.28-7.57,15.59-7.57,15.59s-3.94-2.25-3-2.25,6.88-10.62,6.38-13.48C57.81,82.42,55.71,80,53.7,78s-3.89-3.65-3.89-3.65V68.2C53.46,68.87,62.51,76.75,62.21,84Z" transform="translate(0 0)" style="fill:#fff;opacity:0.6000000238418579;isolation:isolate"/><path id="Path_9247" data-name="Path 9247" d="M53.71,78c-2-2-3.89-3.65-3.89-3.65V72.56A7.64,7.64,0,0,1,53.71,78Z" transform="translate(0 0)" style="fill:#040405;opacity:0.20000000298023224;isolation:isolate"/><path id="Path_9248" data-name="Path 9248" d="M27.41,104H52.34c2.37,12.95,9.79,65.5,4.46,106.31H48.36s.78-62-6.67-82c-.86,10.7-9.57,82-9.57,82H23.54s1.28-26.8,2.57-52.12C26.92,142.22,27.38,107.28,27.41,104Z" transform="translate(0 0)" style="fill:#1c262b"/><path id="Path_9249" data-name="Path 9249" d="M41.71,128.32a67,67,0,0,1,2.82,10.78c.69-9.53-2.09-19.65-2.09-19.65Z" transform="translate(0 0)" style="fill:#040405;opacity:0.20000000298023224;isolation:isolate"/><path id="Path_9250" data-name="Path 9250" d="M52.55,104.31H27.46v3L52.88,107Z" transform="translate(0 0)" style="fill:#040405"/><rect id="Rectangle_9580" data-name="Rectangle 9580" x="35.52" y="102.96" width="0.89" height="5.3" style="fill:#1c262b"/><rect id="Rectangle_9581" data-name="Rectangle 9581" x="48.23" y="102.96" width="0.89" height="5.3" style="fill:#1c262b"/><rect id="Rectangle_9582" data-name="Rectangle 9582" x="41.12" y="103.78" width="4.64" height="3.34" style="fill:#fff"/><path id="Path_9251" data-name="Path 9251" d="M52.54,104.79H27.38C26.82,92.55,23.65,76,22.76,71.46A1.21,1.21,0,0,1,23.68,70c1.27-.28,2.57-.51,3.88-.71a121.86,121.86,0,0,1,17.93-1.2c2.66,0,4.32.08,4.32.08C52.87,79.1,52.8,96.7,52.54,104.79Z" transform="translate(0 0)" style="fill:#c5c800"/><path id="Path_9252" data-name="Path 9252" d="M52.54,104.79H27.38a203.9,203.9,0,0,0-2.56-21.86c-.85-5.22-1.69-9.51-2.07-11.47a1,1,0,0,1,0-.32A1.19,1.19,0,0,1,23.7,70c1.27-.28,2.57-.51,3.88-.71a121.86,121.86,0,0,1,17.93-1.2c2.66,0,4.32.08,4.32.08C52.86,79.1,52.8,96.69,52.54,104.79Z" transform="translate(0 0)" style="fill:#fff;opacity:0.699999988079071;isolation:isolate"/><path id="Path_9253" data-name="Path 9253" d="M40.24,75.11c-7.67.81-12.78-5.71-12.78-5.71l.1-.08a121.87,121.87,0,0,1,17.93-1.2S47.44,74.35,40.24,75.11Z" transform="translate(0 0)" style="fill:#c5c800"/><path id="Path_9254" data-name="Path 9254" d="M31.76,68.73c2.16,2,7.44,1.24,7.44,1.24s3.3-.91,2.61-1.94c-1.94-.32-2.88-1.23-3.27-2.39a5.62,5.62,0,0,1-.2-2.22,11.7,11.7,0,0,1,.16-1.24L32,57.35C32.83,60.54,33.88,66.41,31.76,68.73Z" transform="translate(0 0)" style="fill:#dc7267"/><path id="Path_9255" data-name="Path 9255" d="M33.48,60.42a5.52,5.52,0,0,0,5.07,5.22,5.62,5.62,0,0,1-.2-2.22Z" transform="translate(0 0)" style="fill:#040405;opacity:0.20000000298023224;isolation:isolate"/><path id="Path_9256" data-name="Path 9256" d="M32.73,66.24,39,69.06l.37-2.25,2.3.8a1.89,1.89,0,0,1,1.25,2l-.27,2.48-3.16-1.73-1.58,2.25L30.37,69Z" transform="translate(0 0)" style="fill:#c5c800"/><path id="Path_9257" data-name="Path 9257" d="M32.73,66.24,39,69.06l.37-2.25,2.3.8a1.89,1.89,0,0,1,1.25,2l-.27,2.48-3.16-1.73-1.58,2.25L30.37,69Z" transform="translate(0 0)" style="fill:#fff;opacity:0.30000001192092896;isolation:isolate"/><path id="Path_9258" data-name="Path 9258" d="M43.45,47.52s1.77,6.11-1.22,9-4.5-8.78-4.5-8.78Z" transform="translate(0 0)" style="fill:#1c262b"/><path id="Path_9259" data-name="Path 9259" d="M43.49,60a6.18,6.18,0,0,1-.22.64A6.38,6.38,0,0,1,40.06,64a5.85,5.85,0,0,1-4.21.33,5.75,5.75,0,0,1-2.58-1.69c-2.2-2.39-2-5.07-2.14-9.57a6.19,6.19,0,0,1,8.76-5.86C44.25,49.22,44.62,56,43.49,60Z" transform="translate(0 0)" style="fill:#dc7267"/><path id="Path_9260" data-name="Path 9260" d="M38,54.64c0,.37.16.68.41.68s.45-.28.46-.65-.17-.68-.41-.68S38,54.27,38,54.64Z" transform="translate(0 0)" style="fill:#1c262b"/><path id="Path_9261" data-name="Path 9261" d="M42.1,54.8c0,.37.17.68.41.68s.45-.29.46-.65-.17-.67-.41-.68S42.12,54.45,42.1,54.8Z" transform="translate(0 0)" style="fill:#1c262b"/><path id="Path_9262" data-name="Path 9262" d="M40.76,54.93a13.43,13.43,0,0,0,1.64,3.21,2.12,2.12,0,0,1-1.78.27Z" transform="translate(0 0)" style="fill:#d44040"/><path id="Path_9263" data-name="Path 9263" d="M43.71,53.08a.24.24,0,0,1-.23,0,1.73,1.73,0,0,0-1.54-.24.21.21,0,0,1-.19-.39h0a2.14,2.14,0,0,1,2,.28.21.21,0,0,1,.07.29h0Z" transform="translate(0 0)" style="fill:#1c262b"/><path id="Path_9264" data-name="Path 9264" d="M37.18,52.95a.19.19,0,0,1-.12,0,.22.22,0,0,1,0-.3h0A2.13,2.13,0,0,1,39,52.18a.21.21,0,0,1,.14.26h0a.21.21,0,0,1-.27.14h0a1.74,1.74,0,0,0-1.53.36A.2.2,0,0,1,37.18,52.95Z" transform="translate(0 0)" style="fill:#1c262b"/><path id="Path_9265" data-name="Path 9265" d="M34.66,47.61l.26,2a1.49,1.49,0,0,0-.73,1.88,5.42,5.42,0,0,1-1.54,5.33s0-.73-.66-.56-.4,3.94.81,5.75a11.79,11.79,0,0,1-2.88-5.57c-1-3.67-1.13-6.72-.39-8.15Z" transform="translate(0 0)" style="fill:#1c262b"/><path id="Path_9266" data-name="Path 9266" d="M29,56.75A4.32,4.32,0,0,0,31.4,59c1.41.54,2.25-.7,2-2.1-.26-1.24-1.3-3.06-2.76-3A1.93,1.93,0,0,0,29,56.75Z" transform="translate(0 0)" style="fill:#dc7267"/><path id="Path_9267" data-name="Path 9267" d="M40,60.77a.15.15,0,0,1-.12-.07A3.24,3.24,0,0,0,38,59.39a.14.14,0,0,1-.11-.17h0a.14.14,0,0,1,.16-.11h0a3.47,3.47,0,0,1,2,1.44.15.15,0,0,1,0,.2l-.08,0Z" transform="translate(0 0)" style="fill:#1c262b"/><path id="Path_9268" data-name="Path 9268" d="M29.23,49.2s-.49-2.61,3.63-4.66,8.63.29,11.37-1.47,2.85,5.47-3,6.29A46.59,46.59,0,0,1,29.23,49.2Z" transform="translate(0 0)" style="fill:#1c262b"/><path id="Path_9269" data-name="Path 9269" d="M42,62.61A6.26,6.26,0,0,1,40.06,64a5.85,5.85,0,0,1-4.21.33A4.75,4.75,0,0,1,38,63.23,19.56,19.56,0,0,1,42,62.61Z" transform="translate(0 0)" style="fill:#040405;opacity:0.10000000149011612;isolation:isolate"/><path id="Path_9270" data-name="Path 9270" d="M36,71.32,36.63,68s-1.3-1.23-1.13-2.36,5.9-3,6.92-3.08.64,4.07.32,4.82S39,69.07,39,69.07l-.43,3.5Z" transform="translate(0 0)" style="fill:#dc7267"/><path id="Path_9271" data-name="Path 9271" d="M31.13,83.91c-2,1.09-4.5.07-6.3-1-.85-5.22-1.69-9.51-2.07-11.47a1,1,0,0,1,0-.32C26.84,75.32,33.45,82.6,31.13,83.91Z" transform="translate(0 0)" style="fill:#040405;opacity:0.20000000298023224;isolation:isolate"/><path id="Path_9272" data-name="Path 9272" d="M22.32,70.68c-3.59,4.88,4.63,12.95,10,16.16s7-15.76,7-15.76L35.74,70s-1.59,10.44-3.38,9.66S24.63,67.54,22.32,70.68Z" transform="translate(0 0)" style="fill:#c5c800"/><path id="Path_9273" data-name="Path 9273" d="M22.32,70.68c-3.59,4.88,4.63,12.95,10,16.16s7-15.76,7-15.76L35.74,70s-1.59,10.44-3.38,9.66S24.63,67.54,22.32,70.68Z" transform="translate(0 0)" style="fill:#fff;opacity:0.6000000238418579;isolation:isolate"/></g></g></g></svg>