<?xml version="1.0" encoding="utf-8"?>
<!-- Generator: Adobe Illustrator 24.3.0, SVG Export Plug-In . SVG Version: 6.00 Build 0)  -->
<svg version="1.1" id="Layer_1" xmlns="http://www.w3.org/2000/svg" xmlns:xlink="http://www.w3.org/1999/xlink" x="0px" y="0px"
	 viewBox="0 0 349.1 181" style="enable-background:new 0 0 349.1 181;" xml:space="preserve">
<style type="text/css">
	.st0{fill:#4BAFCA;}
</style>
<path class="st0" d="M346.5,66.8c-1.9-14.4-11.3-26.9-28-37c-9.7-5.9-20.7-9.4-32-10.3c-0.1,0-13.5-0.8-15.1,0.6l-0.5,0.5v113.6
	h-7.4V0H0v157.9h18c0.9,13.6,12.6,24,26.2,23.1c12.4-0.8,22.3-10.7,23.1-23.1h91.4c0.9,13.6,12.6,24,26.2,23.1
	c12.4-0.8,22.3-10.7,23.1-23.1h62.5c1.2,13.6,13.3,23.6,26.9,22.4c11.9-1.1,21.3-10.5,22.4-22.4h27.9l0.1-1.4
	c0.7-14.2,1.1-26.7,1.2-38.2C349.2,97.4,348.4,81.6,346.5,66.8z M345.5,89h-57.1V58H341c1.2,3,2.1,6.1,2.5,9.3
	C344.4,74.1,345.1,81.2,345.5,89L345.5,89z M3,3h257.4v131.2L3,133.5V3z M42.7,178c-11.4,0-20.8-8.8-21.7-20.2h43.3
	C63.5,169.2,54.1,178,42.7,178z M183.4,178c-11.4,0-20.8-8.8-21.7-20.2h43.3C204.3,169.2,194.8,178,183.4,178L183.4,178z
	 M295.3,177.3c-12,0-21.7-9.7-21.7-21.7s9.7-21.7,21.7-21.7c12,0,21.7,9.7,21.7,21.7C317,167.6,307.2,177.3,295.3,177.3L295.3,177.3
	z M346.1,118.2c-0.1,11.1-0.5,23.1-1.1,36.7h-25c-0.5-13.6-11.9-24.3-25.6-23.8c-13,0.5-23.4,10.9-23.8,23.9H3v-18.3l258.9,0.7h11.9
	V22.5c2.8-0.3,11.1,0,12.4,0.1c10.9,0.9,21.4,4.3,30.7,9.9c10.8,6.6,18.4,14.1,22.7,22.5h-54.4v37h60.3
	C346,99.9,346.1,108.5,346.1,118.2L346.1,118.2z"/>
</svg>
