<svg id="Layer_1" data-name="Layer 1" xmlns="http://www.w3.org/2000/svg" viewBox="0 0 226.1 278.72"><path d="M283.8,251.25V66.82c0-8.21,0-16.41,0-24.62,0-5.12,0-10.49-1.88-15.34-5.2-13.44-19.46-12.29-31.44-12.25q-26,.08-52.09,0c-17.43,0-34.87-.09-52.3.17-8,.12-16.92,0-22.74,4.63l-.21.16-.23.2c-2.24,1.86-4.16,4.89-5.92,6.91l-8.54,9.78L73.68,76.33c-2.86,3.29-5.86,6.5-8.62,9.88A17.58,17.58,0,0,0,64,87.64a17.78,17.78,0,0,0-1.53,1.79c-2.32,3.08-4.76,8.38-4.14,12.57V205.61c0,17.08.08,34.15-.11,51.22-.13,11.95-1.8,26.42,10.24,33.39,5.74,3.31,12.15,2.87,18.53,2.84,8.48,0,17,0,25.43,0h132.3c6.07,0,12.24.53,18.29,0,11.84-1.07,19.68-8,20.87-20.07C284.58,265.82,283.8,258.43,283.8,251.25Zm-195.14,30c-5.94-.1-14.81,1.58-17.39-5.34-1.58-4.24-1.06-9.17-1-13.59.32-16.52,0-33.08,0-49.61v-105c0-1.86.22-4.08,0-6.14.53-2.28.82-4.69,3.09-6.19,3.84-2.53,9.59-2,14-1.87a120.2,120.2,0,0,0,17.29-.19c12.8-1.44,22.09-10,24-22.84,1.07-7.2.62-14.67.65-21.93,0-3.85,0-7.69.05-11.54a21.59,21.59,0,0,1,.53-6.32,17.36,17.36,0,0,0,2-2.8,5.81,5.81,0,0,1,1.14-.59c3.2-1.2,7.75-.4,11.12-.41l12.93,0,25.48-.08L235,26.66c8.58,0,17.17-.15,25.75-.1,3.56,0,7.36.24,9.6,3.49s1.45,8.46,1.45,12.22V264.64c0,3.65.73,8.55-1,11.91-2.2,4.32-6.47,4.5-10.75,4.51H193.49C158.56,281.05,123.58,281.91,88.66,281.29Zm28.6-231c0,6.4.58,13.24-.74,19.55-1.64,7.76-7.07,11.66-14.92,11.94-5.54.19-11.1-.08-16.65-.12l22.14-25.37,10-11.49C117.19,46.65,117.26,48.49,117.26,50.26Z" transform="translate(-58.07 -14.56)" style="fill:#103553"/><path d="M182.19,183.16H96.24c-3.86,0-3.86,6,0,6h86C186.06,189.16,186.06,183.16,182.19,183.16Z" transform="translate(-58.07 -14.56)" style="fill:#103553"/><path d="M154.05,93.86H240c3.86,0,3.87-6,0-6H154.05C150.19,87.86,150.18,93.86,154.05,93.86Z" transform="translate(-58.07 -14.56)" style="fill:#103553"/><path d="M154.05,66.47H240c3.86,0,3.87-6,0-6H154.05C150.19,60.47,150.18,66.47,154.05,66.47Z" transform="translate(-58.07 -14.56)" style="fill:#103553"/><path d="M257,183.16H211.9c-3.86,0-3.86,6,0,6H257C260.85,189.16,260.85,183.16,257,183.16Z" transform="translate(-58.07 -14.56)" style="fill:#103553"/><path d="M182.19,205.65H96.24c-3.86,0-3.86,6,0,6h86C186.06,211.65,186.06,205.65,182.19,205.65Z" transform="translate(-58.07 -14.56)" style="fill:#103553"/><path d="M257,205.65H211.9c-3.86,0-3.86,6,0,6H257C260.85,211.65,260.85,205.65,257,205.65Z" transform="translate(-58.07 -14.56)" style="fill:#103553"/><path d="M182.19,230.24H96.24c-3.86,0-3.86,6,0,6h86C186.06,236.24,186.06,230.24,182.19,230.24Z" transform="translate(-58.07 -14.56)" style="fill:#103553"/><path d="M257,230.24H211.9c-3.86,0-3.86,6,0,6H257C260.85,236.24,260.85,230.24,257,230.24Z" transform="translate(-58.07 -14.56)" style="fill:#103553"/><path d="M182.19,254.82H96.24c-3.86,0-3.86,6,0,6h86C186.06,260.82,186.06,254.82,182.19,254.82Z" transform="translate(-58.07 -14.56)" style="fill:#103553"/><path d="M257.69,254.82H212.61c-3.86,0-3.87,6,0,6h45.08C261.55,260.82,261.56,254.82,257.69,254.82Z" transform="translate(-58.07 -14.56)" style="fill:#103553"/><path d="M101.82,120.36l-.93-.3a5.48,5.48,0,0,0-1.69-.23,3.57,3.57,0,0,0-2.11.55,2.14,2.14,0,0,0-.78,1.88v23.67h5.51Z" transform="translate(-58.07 -14.56)" style="fill:#103553"/><path d="M113.68,128.07c.63.89,1.44,2.06,2.43,3.5s2,3,3.17,4.69,2.25,3.38,3.36,5.08,2.12,3.23,3,4.59H131V120.36l-.89-.3a5.14,5.14,0,0,0-1.65-.23,3.57,3.57,0,0,0-2.11.55,2.14,2.14,0,0,0-.78,1.88v14.86q-1.06-1.71-2.43-3.8c-.92-1.39-1.85-2.79-2.81-4.18s-1.87-2.7-2.7-3.92-1.56-2.22-2.15-3-1-1.28-1.12-1.46a7.39,7.39,0,0,0-1.07-.59,4.58,4.58,0,0,0-1.9-.32,3,3,0,0,0-2.39.89,2.85,2.85,0,0,0-.76,1.88v23.33h5.4Z" transform="translate(-58.07 -14.56)" style="fill:#103553"/><path d="M135.79,126.4c.38.94.88,2.14,1.5,3.61s1.33,3.09,2.11,4.87,1.62,3.61,2.49,5.51,1.77,3.74,2.68,5.54h6.16c.55-1.19,1.19-2.57,1.9-4.14s1.43-3.23,2.18-5,1.48-3.47,2.21-5.18,1.38-3.3,2-4.77,1.12-2.73,1.54-3.78.69-1.77.82-2.15a10.49,10.49,0,0,0-1-.59,4.28,4.28,0,0,0-2.17-.51,3.13,3.13,0,0,0-2.2.64,4.52,4.52,0,0,0-1.11,1.83q-1.22,3.35-2.52,6.8t-2.55,6.52c-.82,2-1.53,3.75-2.11,5.15l-1.37-3.33c-.53-1.3-1.09-2.71-1.69-4.22s-1.19-3-1.78-4.59-1.16-3-1.69-4.47-1-2.69-1.37-3.8c0,0-.26-.12-.69-.29a5.26,5.26,0,0,0-1.78-.24,2.49,2.49,0,0,0-2.15.81,2.9,2.9,0,0,0-.59,1.7,5.75,5.75,0,0,0,.31,1.82C135.16,124.79,135.44,125.54,135.79,126.4Z" transform="translate(-58.07 -14.56)" style="fill:#103553"/><path d="M183.81,121a15.08,15.08,0,0,0-14.25,0,12.64,12.64,0,0,0-4.77,4.88,14.27,14.27,0,0,0-1.71,7,14.73,14.73,0,0,0,1,5.44,12.87,12.87,0,0,0,2.79,4.37,12.47,12.47,0,0,0,4.29,2.88,15.36,15.36,0,0,0,11.06,0,12.47,12.47,0,0,0,4.29-2.88,13,13,0,0,0,2.8-4.37,14.73,14.73,0,0,0,1-5.44,14.38,14.38,0,0,0-1.71-7A12.64,12.64,0,0,0,183.81,121Zm-.17,16.53a7.82,7.82,0,0,1-2.72,3.25,7.3,7.3,0,0,1-4.2,1.19,7.45,7.45,0,0,1-4.26-1.19,7.7,7.7,0,0,1-2.73-3.25,11.78,11.78,0,0,1,0-9.27,7.33,7.33,0,0,1,7-4.41,7.37,7.37,0,0,1,4.2,1.18,7.64,7.64,0,0,1,2.72,3.23,11.9,11.9,0,0,1,0,9.27Z" transform="translate(-58.07 -14.56)" style="fill:#103553"/><path d="M196.38,120.38a2.14,2.14,0,0,0-.77,1.88v23.67h5.51V120.36l-.94-.3a5.44,5.44,0,0,0-1.69-.23A3.59,3.59,0,0,0,196.38,120.38Z" transform="translate(-58.07 -14.56)" style="fill:#103553"/><path d="M216,125a7.85,7.85,0,0,1,4.24-1.12,9.72,9.72,0,0,1,3.49.55,8.75,8.75,0,0,1,2.32,1.23,13.49,13.49,0,0,1,1.26,1.1,3.83,3.83,0,0,0,.79-.59A4.79,4.79,0,0,0,229,125a2.91,2.91,0,0,0,.41-1.52,3,3,0,0,0-1.48-2.39,11.38,11.38,0,0,0-2.81-1.29,16,16,0,0,0-5-.65,14.5,14.5,0,0,0-7,1.66,12.33,12.33,0,0,0-4.9,4.71,14.15,14.15,0,0,0-1.81,7.31,14.71,14.71,0,0,0,1.79,7.54,11.69,11.69,0,0,0,4.84,4.62,14.89,14.89,0,0,0,6.86,1.56,19.05,19.05,0,0,0,5-.59,16.08,16.08,0,0,0,3.32-1.25,8.63,8.63,0,0,0,1.45-.9l-2.43-4.1c-.13.1-.49.32-1.07.65a12.31,12.31,0,0,1-2.37,1,12.48,12.48,0,0,1-3.56.45,7.85,7.85,0,0,1-5.94-2.3q-2.24-2.3-2.23-6.63a10.42,10.42,0,0,1,1-4.75A7.68,7.68,0,0,1,216,125Z" transform="translate(-58.07 -14.56)" style="fill:#103553"/><path d="M234.17,122.79v23.14h18.36v-4.82H239.68v-5.89h11.86a5.52,5.52,0,0,0,.4-.91,4.73,4.73,0,0,0,.25-1.56,2.44,2.44,0,0,0-.59-1.75,2.7,2.7,0,0,0-2-.61h-9.92v-5.74h12.39a4.48,4.48,0,0,0,.4-.91,4.4,4.4,0,0,0,.25-1.56,2.39,2.39,0,0,0-.59-1.74,2.69,2.69,0,0,0-2-.61H237.25Q234.18,119.83,234.17,122.79Z" transform="translate(-58.07 -14.56)" style="fill:#103553"/><path d="M251.82,160.59H98.51c-6.88,0-6.89,6,0,6H251.82C258.7,166.59,258.71,160.59,251.82,160.59Z" transform="translate(-58.07 -14.56)" style="fill:#103553"/></svg>