<svg id="Layer_1" data-name="Layer 1" xmlns="http://www.w3.org/2000/svg" viewBox="0 0 265.78 267.3"><path d="M162,98.6a63.8,63.8,0,1,0,63.8,63.8h0A63.87,63.87,0,0,0,162,98.6Zm0,123.6a59.8,59.8,0,1,1,59.8-59.8A59.8,59.8,0,0,1,162,222.2Z" transform="translate(0 0.02)" style="fill:#4bafca"/><path d="M264.83,242.91l-33.74-34.63a82.53,82.53,0,0,0,13.14-56.92c0-9.71.06-36.36,0-110.58v-35a5.82,5.82,0,0,0-5.8-5.8H62.3a5.85,5.85,0,0,0-4.11,1.69L1.69,58.19A5.86,5.86,0,0,0,0,62.28v141.4a5.82,5.82,0,0,0,5.8,5.81H93.71A82.83,82.83,0,0,0,207.09,232c5.43,5.17,24.29,24.27,34.2,34.27a3.33,3.33,0,0,0,2.38,1,3.63,3.63,0,0,0,2.31-.84l18.84-18.82A3.38,3.38,0,0,0,264.83,242.91ZM185.27,82.75,185,61.28a10.45,10.45,0,0,0,1.3-1L240.2,6.85v34c0,28.26.07,69.21.06,94A83.34,83.34,0,0,0,185.27,82.75Zm-5.07-24H6.83L37,28.55h175.6L183.54,57.34a5,5,0,0,1-3.34,1.36ZM61,4.52A1.84,1.84,0,0,1,62.3,4h175L216.62,24.5H41ZM5.8,205.52A1.81,1.81,0,0,1,4,203.71v-141H180.2a5.61,5.61,0,0,0,.82,0l.24,19A82.93,82.93,0,0,0,79.09,160.4H14.5a2.82,2.82,0,0,0-2.8,2.8v28.6a2.8,2.8,0,0,0,2.8,2.8h71a82.47,82.47,0,0,0,5.59,10.91ZM79.09,164.4A82.5,82.5,0,0,0,84,190.6H15.7V164.4Zm5.15-2A77.8,77.8,0,1,1,162,240.2h0A77.87,77.87,0,0,1,84.2,162.4Zm159.5,100.67c-3.35-3.41-25.59-26-33.22-33.36a83.55,83.55,0,0,0,18.29-18.06l32.72,33.63Z" transform="translate(0 0.02)" style="fill:#4bafca"/><path d="M120.69,163.79l2.82,2.83,35.71-35.7-2.83-2.83Z" transform="translate(0 0.02)" style="fill:#4bafca"/><rect x="117.61" y="133.74" width="19.66" height="4" transform="translate(-58.66 129.89) rotate(-45)" style="fill:#4bafca"/></svg>