<svg id="Layer_1" data-name="Layer 1" xmlns="http://www.w3.org/2000/svg" viewBox="0 0 218.5 285.4"><path d="M26.7,150h5.53V124.4l-.9-.3a4.67,4.67,0,0,0-1.7-.2,5,5,0,0,0-2.1.5,2.09,2.09,0,0,0-.8,1.9Z" transform="translate(0)" style="fill:#103553"/><path d="M44,132.1c.6.9,1.4,2.1,2.4,3.5s2,3,3.2,4.7,2.2,3.4,3.4,5.1,2.1,3.2,3,4.6h5.4V124.4l-.9-.3a4.67,4.67,0,0,0-1.7-.2,5,5,0,0,0-2.1.5,2.09,2.09,0,0,0-.8,1.9v15c-.7-1.1-1.5-2.4-2.4-3.8s-1.8-2.8-2.8-4.2-1.9-2.7-2.7-3.9-1.6-2.2-2.2-3-1-1.3-1.1-1.5a10.59,10.59,0,0,0-1.1-.6,6.14,6.14,0,0,0-1.9-.3,3,3,0,0,0-2.4.9,3.21,3.21,0,0,0-.8,1.9v23.3h5.4Z" transform="translate(0)" style="fill:#103553"/><path d="M66.1,130.4q.6,1.35,1.5,3.6c.6,1.5,1.3,3.1,2.1,4.9s1.6,3.6,2.5,5.5,1.8,3.7,2.7,5.5h6.2c.6-1.2,1.2-2.6,1.9-4.1s1.4-3.2,2.2-5,1.5-3.5,2.2-5.2,1.4-3.3,2-4.8,1.1-2.7,1.5-3.8.7-1.8.8-2.1c-.3-.2-.7-.4-1-.6a4.19,4.19,0,0,0-2.2-.5,3.38,3.38,0,0,0-2.2.6,4.16,4.16,0,0,0-1.07,1.85c-.8,2.2-1.7,4.5-2.5,6.8s-1.7,4.5-2.6,6.5-1.5,3.8-2.1,5.1l-1.4-3.3c-.5-1.3-1.1-2.7-1.7-4.2s-1.2-3-1.8-4.6-1.2-3-1.7-4.5-1-2.7-1.4-3.8c-.24-.09-.47-.19-.7-.3a3.79,3.79,0,0,0-1.8-.2,2.66,2.66,0,0,0-2.2.8,2.69,2.69,0,0,0-.6,1.7,5.53,5.53,0,0,0,.3,1.8A13.46,13.46,0,0,1,66.1,130.4Z" transform="translate(0)" style="fill:#103553"/><path d="M97.3,146.7a14.12,14.12,0,0,0,4.3,2.9,15.19,15.19,0,0,0,11.1,0,11.26,11.26,0,0,0,4.3-2.9,12.75,12.75,0,0,0,2.8-4.4,14.25,14.25,0,0,0,1-5.4,15.78,15.78,0,0,0-1.7-7,15.29,15.29,0,0,0-4.9-4.9,14.9,14.9,0,0,0-14.2,0,12.56,12.56,0,0,0-4.8,4.9,14.24,14.24,0,0,0-1.7,7,13.88,13.88,0,0,0,1,5.4A13.58,13.58,0,0,0,97.3,146.7Zm2.8-14.4a7.69,7.69,0,0,1,13.9,0,11.58,11.58,0,0,1,0,9.3,7.34,7.34,0,0,1-6.9,4.4,8.23,8.23,0,0,1-4.3-1.2,7.57,7.57,0,0,1-2.7-3.2,11.42,11.42,0,0,1,0-9.3Z" transform="translate(0)" style="fill:#103553"/><path d="M126.7,124.4a2.37,2.37,0,0,0-.8,1.9V150h5.5V124.4l-.9-.3a4.67,4.67,0,0,0-1.7-.2A3.23,3.23,0,0,0,126.7,124.4Z" transform="translate(0)" style="fill:#103553"/><path d="M138.6,144.4a11.22,11.22,0,0,0,4.8,4.6,14.88,14.88,0,0,0,6.9,1.6,21.11,21.11,0,0,0,5-.6,18.33,18.33,0,0,0,3.3-1.2l1.5-.9-2.4-4.1a7.82,7.82,0,0,1-1.1.6,10.32,10.32,0,0,1-2.4,1,15.1,15.1,0,0,1-3.6.5,7.59,7.59,0,0,1-5.9-2.3c-1.5-1.5-2.2-3.7-2.2-6.6a11.51,11.51,0,0,1,1-4.8,7.48,7.48,0,0,1,2.9-3.2,7,7,0,0,1,4.2-1.1,10.43,10.43,0,0,1,3.5.6,9.87,9.87,0,0,1,2.3,1.2,12.39,12.39,0,0,1,1.3,1.1,6.68,6.68,0,0,0,.8-.6,2.68,2.68,0,0,0,.9-1.2,2.81,2.81,0,0,0,.4-1.5,3,3,0,0,0-1.5-2.4,10.35,10.35,0,0,0-2.8-1.3,14.11,14.11,0,0,0-5-.6,14.46,14.46,0,0,0-7,1.7,13,13,0,0,0-4.9,4.7,13.41,13.41,0,0,0-1.8,7.3A14.13,14.13,0,0,0,138.6,144.4Z" transform="translate(0)" style="fill:#103553"/><path d="M180.4,123.9H167.5c-1.9,0-3,.9-3,2.9v23.1h18.4v-4.8H170v-5.85h11.9a3.64,3.64,0,0,0,.4-.9,2.83,2.83,0,0,0,.2-1.6,3,3,0,0,0-.6-1.8,2.52,2.52,0,0,0-2-.6H170v-5.6h12.4a3.64,3.64,0,0,0,.4-.9,2.83,2.83,0,0,0,.2-1.6,2.15,2.15,0,0,0-1.94-2.34,2.1,2.1,0,0,0-.66,0Z" transform="translate(0)" style="fill:#103553"/><path d="M211.5,0H67.23A6.38,6.38,0,0,0,62,2.78L1.17,92.44A6,6,0,0,0,0,96V279a6.42,6.42,0,0,0,6.4,6.4H212.1a6.42,6.42,0,0,0,6.4-6.4V7A7,7,0,0,0,211.5,0ZM62.8,8.65V90.4a3,3,0,0,1-3,3H5.35ZM214.5,279a2.43,2.43,0,0,1-2.4,2.4H6.4A2.43,2.43,0,0,1,4,279V97.4H59.8a7,7,0,0,0,7-7V4.05a2.73,2.73,0,0,1,.4,0H211.5a3,3,0,0,1,3,3Z" transform="translate(0)" style="fill:#103553"/><rect x="95.6" y="77.6" width="87.2" height="4" style="fill:#103553"/><rect x="94.4" y="106.3" width="87.1" height="4" style="fill:#103553"/><rect x="23.7" y="185.2" width="87.1" height="4" style="fill:#103553"/><rect x="132.7" y="185.2" width="55.2" height="4" style="fill:#103553"/><rect x="132.7" y="212.2" width="55.2" height="4" style="fill:#103553"/><rect x="130.2" y="239" width="55.2" height="4" style="fill:#103553"/><rect x="130.2" y="261" width="55.2" height="4" style="fill:#103553"/><rect x="23.7" y="212.2" width="87.1" height="4" style="fill:#103553"/><rect x="23.7" y="239.2" width="87.1" height="4" style="fill:#103553"/><rect x="23.7" y="261" width="87.1" height="4" style="fill:#103553"/><rect x="22.4" y="163.5" width="165" height="4" style="fill:#103553"/></svg>