<svg id="Layer_1" data-name="Layer 1" xmlns="http://www.w3.org/2000/svg" viewBox="0 0 346.01 290.83"><title>step7</title><path d="M343,76.48a4.68,4.68,0,0,0-2-1.13c-.23-.27-.59-.7-1.07-1.34a65.39,65.39,0,0,0-5.06-5.35c-.48-.5-2.79-3-2.58-2.68-4.89-6.21-9.07-13.16-13.56-19.67S310.5,33,304,28.36A51.07,51.07,0,0,0,294.12,23c-2.7-1.14-7-1.62-9.09-2.61-3.24-1.58-6.4-6-9-8.51-2-1.94-4.15-4.65-6.63-6.1-3.1-1.8-7.52-2.33-10.9-3.31-3-.86-6.22-2.4-9.33-1.91-3.78.6-7.84,3.25-11.43,4.58-10.19,3.76-21.89,4.7-32.53,6.74L148.75,22.73c-3,.57-5.95,1.13-8.91,1.71-.72.14-1.44.3-2.16.42h-.43c-4.65.17-9.45-.47-14.09,0-5.25.53-10,5.77-13.83,9.26C85.27,56.29,78,87.76,81.44,119.44A6.17,6.17,0,0,0,85,124.09c13.48,5.29,26.58,11.74,40.22,16.55,9.73,3.43,20.27,6,30.63,4.6,2.81-.38,4.28-1.44,5.92-1.23,2.43.3,5.29,1.89,7.58,2.71,8.66,3.09,16.76,6.67,25.92,7.52l5,.47c-6.07,5.68-8.29,13.77-10.13,22.36L150,167.91a4.63,4.63,0,0,0-4.74,1.57,5.21,5.21,0,0,0-1.2,1.8q-7.29,18.26-14.6,36.51l-.07.18-.11.27a.32.32,0,0,1-.07.24h0a3.75,3.75,0,0,0,1.11,4.36l29.54,47.52a4.14,4.14,0,0,0,3.18,2.69l119.09,27.1a4.92,4.92,0,0,0,6.1-4.62h0q1.08-10.68,2.15-21.36c.67-6.68,2.62-14.39,1.81-21.09-.86-7.07-3.6-14.36-5.33-21.25l-5.33-21.32a.14.14,0,0,0,0-.06,4.07,4.07,0,0,0-1-2,3.86,3.86,0,0,0-2.61-1.34l-9.58-2.19c2-9.37,3.68-18.53-.44-26.94q10.35,2.85,20.68,5.66c6.28,1.7,13.32,4.76,19.81,5.39,4.52.44,8.72-3.93,11.13-7.5,4.07-6,3.7-13.11,2.79-20a34.78,34.78,0,0,0-5.39-15.43c7.19,0,12.53-7,15.91-12.54a94.4,94.4,0,0,0,10.89-27.83C344.82,90.47,347.5,80.92,343,76.48ZM250.78,10.12C251.53,9.81,251.59,10.12,250.78,10.12Zm27.65,217.42c1.65,5.65,3.66,11.56,4.3,17.22,0-.16-.1,0-.16.81-.12,1.45-.29,2.9-.44,4.35l-.84,8.35-4.53-17.45Q277.59,234.18,278.43,227.54Zm-111.1,26.6-23.21-37.32L253.24,241.9l14.7,3.38q4.4,16.88,8.77,33.75ZM271.5,205.53l-3.71,29.83L152.5,208.86l-12-2.78,11.16-27.9Zm-69.18-30.4c1.49-6.61,3.84-12.83,11.34-15.12,6.25-1.91,14,1,20.12,2.28,5.9,1.24,14.12,1.74,19.13,5.44,6.8,5,6.47,12.09,5.13,19.14Zm133.2-89.34a56.27,56.27,0,0,1-2.31,11.57c-2.46,8.77-5.83,18.74-12,25.69-2.07,2.35-3.48,3.42-5.52,3-3.59-.79-7.6-3.86-10.75-5.64-5.72-3.25-11.37-6.64-17-10.09-.35-9.43,3.62-15.93,12.61-20.61,4.77-2.48,1.46-10.73-3.72-8.82-11.48,4.23-17.18-5.09-21.65-14.32-1.7-3.51-8.25-3-8.82,1.15-.42,3-14.89,1.23-18.26.4a18.52,18.52,0,0,1-3.43-1c.5.1-1-1.43-1.56-1.8-2-1.38-3.9-2-6.27-.8-4.3,2.17-7.08,9.64-9.17,13.53-1.75,3.27-3.45,6.59-5.12,9.92l-12.68-4c-4.53-1.44-8.24,4.83-4.69,8.06,19.21,17.46,45.33,25.12,70.19,30.42,12,2.55,28.84,9.54,35.07,21.11,2.65,4.93,3.77,13.93,2.37,19.26a12.36,12.36,0,0,1-4.31,6.27c-26.48-7.27-53-14.56-79.7-21-4.58-1.1-9.68-2.88-14.44-3-5.88-.11-11.72.15-17.69-.38-1.82-.17-3.69-.27-5.49-.54-2.06-.3-.83-.16-.76-.14-3.06-.92-6.07-2.17-9.08-3.25-5.65-2-12.32-5.74-18.28-6.53-3.38-.45-6.8,1.37-10.21,1.64a46.31,46.31,0,0,1-13.33-1.12c-10-2.15-19.45-6.22-28.69-10.42-6.62-3-13.34-5.67-20.1-8.32C88.66,91.74,92.67,67.22,109,48.18A89.23,89.23,0,0,1,120,37.55c1.79-1.49,2.57-2.76,3.57-3.06,1.61-.48,4.15,0,5.83,0A67.58,67.58,0,0,0,141,34c28.14-4.9,56.15-10.76,84.21-16.14,7.72-1.48,18-2.51,24.57-7.21a6,6,0,0,1,.68-.43c.84.24,1.68.51,2.51.75,3.79,1.1,7.57,2.39,11.4,3.32a31.23,31.23,0,0,0,3.11,2.89c3,2.86,6,5.78,9.07,8.57,2.78,2.53,5.33,3.15,9,4.37,6.52,2.15,13.49,5.23,17.78,10.83,3.71,4.85,7,10.22,10.43,15.25,6.42,9.23,12.71,20.18,21.71,27.11,0,.93.07,2.4.06,2.5Zm-101.26.57c.94-1.79,1.87-3.59,2.85-5.37.4-.74,2.17-3.1,3.45-5.12,6.63,3.15,21.38,5.33,29.55,1.48,3.71,6,8.42,10.94,14.27,13.18a27.6,27.6,0,0,0-4.83,8.94C274.36,81.42,248,74.59,234.26,86.36Zm38.32,19.41-37-7.81c7.65-16.43,37.05-10.37,37,7.77Z" transform="translate(0 0.03)" style="fill:#bdbdbd;stroke:#bdbdbd;stroke-miterlimit:10"/><path d="M107.26,25.79c4.36-1.38,4.82-8.14,0-9.3L75,8.69C65.5,6.36,52.25.25,42.5,3.54,4.71,16.36-5.25,63.26,3.42,98a4.24,4.24,0,0,0,3.24,3.36l.13.06,54.13,19.91c3.24,1.19,5.79-1.83,6.11-4.66a253.4,253.4,0,0,1,8.1-40.35C80,59.06,88,31.92,107.26,25.79ZM67.21,69a261.9,261.9,0,0,0-9,41.06l-46-16.92C8.6,76.84,9.34,59.42,15.32,43.79a57.25,57.25,0,0,1,14.09-21.5,44.36,44.36,0,0,1,11.4-7.73c1.83-.85,6-2.68,6.24-2.69,3.47-.13,8.22,2,11.54,2.79l19.29,4.7L92.79,23C79.17,33.74,72,53.28,67.21,69Z" transform="translate(0 0.03)" style="fill:#bdbdbd;stroke:#bdbdbd;stroke-miterlimit:10"/></svg>