<svg id="Layer_1" data-name="Layer 1" xmlns="http://www.w3.org/2000/svg" viewBox="0 0 349.07 181.01"><path d="M346.48,66.86c-1.92-14.41-11.33-26.85-28-37a73.51,73.51,0,0,0-32.05-10.34c-.13,0-13.47-.85-15.07.63l-.53.53V134.26H263.4V0H0V157.86H18a24.72,24.72,0,0,0,49.34,0h91.41a24.72,24.72,0,0,0,49.34,0h62.52a24.71,24.71,0,0,0,49.23-.05h27.93l.07-1.43c.69-14.16,1.08-26.66,1.19-38.2C349.27,97.43,348.44,81.59,346.48,66.86Zm-1,22.17H288.35V58H341a37.63,37.63,0,0,1,2.48,9.26c.92,6.82,1.57,13.95,2,21.71ZM3,3H260.43V134.26L3,133.55ZM42.66,178A21.73,21.73,0,0,1,21,157.86H64.33A21.75,21.75,0,0,1,42.67,178Zm140.75,0a21.73,21.73,0,0,1-21.65-20.17h43.32A21.75,21.75,0,0,1,183.42,178Zm111.8-.69a21.7,21.7,0,1,1,.06,0ZM346,118.15c-.1,11.12-.47,23.12-1.12,36.66h-25a24.72,24.72,0,0,0-49.41.05H3V136.55l258.93.71h11.93V22.45c2.8-.27,11.09,0,12.36.07A70.79,70.79,0,0,1,317,32.43C327.77,39,335.36,46.55,339.66,55H285.35V92h60.29c.36,7.89.48,16.51.39,26.18Z" style="fill:#103653"/></svg>