<svg id="Layer_1" data-name="Layer 1" xmlns="http://www.w3.org/2000/svg" viewBox="0 0 290.58 293.85"><g id="Group_31173" data-name="Group 31173"><path id="Path_10014" data-name="Path 10014" d="M331.18,288.8a13,13,0,0,0-8.44,3.12c-2,1.67-3.51,3.81-5.29,5.59a9.47,9.47,0,0,1-7.59,2.64,10.52,10.52,0,0,1-6.79-3.76l-1.78-1.93,15.11-42.13,2.17-6a1.84,1.84,0,0,0-1.27-2.2l-5.51-1.77V199.69a1.84,1.84,0,0,0-1.79-1.8H290.13v-38a1.83,1.83,0,0,0-1.8-1.8H214.67c-3.6,0-7.33-.24-10.95,0a1.82,1.82,0,0,0-1.77,1.8v38H181.58a1.86,1.86,0,0,0-1.8,1.8v40.87l-1.72.55L168.94,244a1.85,1.85,0,0,0-1.25,2.22l17.7,49.33,1.64,4.55a9.15,9.15,0,0,1-3.86-.87,25.56,25.56,0,0,1-5.74-5.29,13.48,13.48,0,0,0-15.72-4,11,11,0,0,0-2.64,1.61V279a1.81,1.81,0,0,0-1.8-1.8H130.82V257a1.78,1.78,0,0,0-1.77-1.78H108.39V102.51c0-6.58.24-13.22,0-19.83h5.48a1.83,1.83,0,0,0,1.79-1.78V65.83h53.41l47,.18h16.53l4.07,7a1.72,1.72,0,0,0,.77.74h.21a1.75,1.75,0,0,0,.56,0h8.83v45.42a1.8,1.8,0,0,0,1.87,1.72h0a1.72,1.72,0,0,0,1.27-.59,9.9,9.9,0,0,1-1.45,19.74H247a3.78,3.78,0,0,1-1-.27l-.61-.18h-.21a9.21,9.21,0,0,1-1.8-1l-.45-.32h-.16l-.8-.71a10.69,10.69,0,0,1-.71-.8l-.16-.18-.32-.43a13.32,13.32,0,0,1-1-1.79v-.24l-.21-.58a5.45,5.45,0,0,0-.26-1.06v-.69a8.28,8.28,0,0,1,0-1.22,1.8,1.8,0,0,0-3.57-.43,1.55,1.55,0,0,0,0,.43,13.46,13.46,0,0,0,26.9,1.2q0-.6,0-1.2a13.24,13.24,0,0,0-4.74-10.23,13.64,13.64,0,0,0-6.93-3.1V74.18h7.46a15.76,15.76,0,0,0,2.38,0c1.27-.15,1.64-1.05,2.2-2,1.08-1.91,2.16-3.81,3.28-5.72h11.45A13.47,13.47,0,0,0,288.7,59c2.2-3.94,3.76-9.26,1.75-13.52a10.35,10.35,0,0,0-9.71-5.71H266.19l-4-6.88a1.81,1.81,0,0,0-1.54-.9H240.62a18.11,18.11,0,0,0-2.33,0c-1.3.16-1.67,1.06-2.22,2.07l-3.18,5.44-11.11-2.46-29.94-6.82-36.55-8.41q-15.87-3.68-31.74-7.49c-5.29-1.29-10.58-2.85-15.87-4.12h0a1.62,1.62,0,0,0-1.67,0H71.17A1.77,1.77,0,0,0,69.4,12V30H63.87a1.81,1.81,0,0,0-1.79,1.77V40H56.79a11,11,0,0,0-10,5.74,14,14,0,0,0-.19,14.74,11.16,11.16,0,0,0,10,6.08h5.29V81a1.69,1.69,0,0,0,.5,1.19h0a1.63,1.63,0,0,0,1.22.5h5.5V235.45c0,6.59-.21,13.23,0,19.84H43.8a1.83,1.83,0,0,0-1.8,1.77v34a1.8,1.8,0,0,0,1.82,1.78,1.83,1.83,0,0,0,1-.35c5.45.72,7.77,5.95,12,9a13.07,13.07,0,0,0,16.19-1c2-1.69,3.49-3.86,5.42-5.6a9.39,9.39,0,0,1,8.12-2.38c5.45.92,7.8,6.85,12.19,9.54a13.22,13.22,0,0,0,16.08-2.27,60.79,60.79,0,0,1,5.51-5.61,9.47,9.47,0,0,1,8.43-1.43c5.08,1.56,7.28,7.52,12,9.79a13.55,13.55,0,0,0,16.08-3.78l.79-.87a1.64,1.64,0,0,0,1.51-1.7,15,15,0,0,1,3.28-2.72,9.5,9.5,0,0,1,8.38-.35,19.16,19.16,0,0,1,5.72,5.11A17.22,17.22,0,0,0,182.9,303a13.26,13.26,0,0,0,6.08.72,2.07,2.07,0,0,0,2-.37l1.25-.43a17.8,17.8,0,0,0,6.45-5,16.81,16.81,0,0,1,5.82-5,9.42,9.42,0,0,1,8.44.64,29.31,29.31,0,0,1,5.5,5.29,14.28,14.28,0,0,0,6.93,4.41,13.21,13.21,0,0,0,9.26-1,22.68,22.68,0,0,0,5.89-5.29,24.06,24.06,0,0,1,2.86-2.85,1.74,1.74,0,0,0,1.43-1,7.23,7.23,0,0,1,1.85-.74,9.47,9.47,0,0,1,8.2,1.58,70.82,70.82,0,0,1,5.29,5.53,13.43,13.43,0,0,0,7.67,3.94,12.68,12.68,0,0,0,8.7-1.85,35,35,0,0,0,5.74-5.47,11.05,11.05,0,0,1,6.56-4,9.44,9.44,0,0,1,7.78,2.46c2,1.82,3.6,4.1,5.71,5.84a12.92,12.92,0,0,0,16.22.51,60,60,0,0,0,5.55-5.61,10,10,0,0,1,7.14-3.28,1.78,1.78,0,0,0,0-3.47ZM73,122.51l28.27,18,3.49,2.19v23.07L76.44,147.69,73,145.55Zm31.74,15.87L76.44,120.53,73,118.28V93.81l28.27,18,3.47,2.19ZM73,149.7l28.27,18,3.47,2.22v23L76.44,175,73,172.82Zm31.74-51.37v11.35L76.44,91.77,73,89.58V88.15c0-1.69.21-3.62.13-5.29H104.9ZM73,197.39V177.08l28.27,18,3.47,2.19V221L76.44,203,73,200.88ZM221.76,62.49l-47-.16-40.84-.15c-6.06,0-12.17-.27-18.25,0V43.4h115l-.39.71-4.63,8.12a2,2,0,0,0,0,1.8c1.69,2.86,3.36,5.74,5,8.6ZM277,43.29h3.83a7.55,7.55,0,0,1,1.9.16,6.4,6.4,0,0,1,4.4,3.73,9.52,9.52,0,0,1-.32,6.61c-1.43,4.71-4.71,8.78-10,8.91h-8.86l.4-.68,4.65-8.1a1.81,1.81,0,0,0,0-1.8l-5.05-8.67Zm-37.72-7.62h20.15l2.38,4.18h0l1.67,2.86a4,4,0,0,0,.4.69h0l5.63,9.73c-1.85,3.23-3.73,6.45-5.61,9.65h0l-2.09,3.63h0l-2.4,4.2H239.24c-3.44-5.92-6.66-11.58-10-17.51l5.58-9.68h0a3.21,3.21,0,0,0,.66-1.11c.47-.82.92-1.64,1.43-2.46h0ZM118.47,16.76q15.15,3.68,30.34,7.14l36.87,8.6,32,7.3h-102V31.6a1.82,1.82,0,0,0-1.8-1.8h-5.5V14.19l.93.24C112.36,15.25,115.4,16,118.47,16.76Zm-16.24-3.09h2.64V29.8H73.13V13.67ZM56.87,62.84a7.33,7.33,0,0,1-4.29-1,11.17,11.17,0,0,1-4.18-6.74c-1.06-4.87,2.25-11.46,7.65-11.67H62.1V62.86Zm8.8-25V33.4h46.45V79.05H65.67ZM73,239.55V205.17l28.27,17.88,3.47,2.19v10.19c0,6.61-.24,13.22,0,19.83H73Zm-.35,19.31h54.7v18.33H45.6V258.86Zm76.87,40.95a9.54,9.54,0,0,1-8.49-1.25,44.09,44.09,0,0,1-5.29-5.47,13.49,13.49,0,0,0-16.06-2.65c-4.6,2.65-6.93,8.81-12.48,9.76A9.44,9.44,0,0,1,99.29,298c-2-1.69-3.46-3.86-5.29-5.6A13,13,0,0,0,77.84,291c-4.42,3-6.88,9.07-12.88,9.28s-8.57-5.29-12.88-8.57a12.79,12.79,0,0,0-6.35-2.64v-8.18H155.47v14.42a14.91,14.91,0,0,1-6,4.65Zm154.18-98.35a38.19,38.19,0,0,0,4.28,0v39.68L292.14,236l-10.58-3.41V213.5a1.8,1.8,0,0,0-3.57-.44,1.62,1.62,0,0,0,0,.44h0v18.12l-10.05-3.23v-26.9h35.71Zm-52.08,11.46a1.83,1.83,0,0,0-1.8,1.8v7.93L244,220.77a1.55,1.55,0,0,0-1.17-.16h-.18l-3.57,1.14v-7.06a1.8,1.8,0,0,0-3.58-.44,3.23,3.23,0,0,0,0,.44v8.09l-9.23,3V201.44h38.3v25.73l-11.08-3.57v-9a1.8,1.8,0,0,0-1.82-1.72Zm34.8-51.21v36.18H247.81V161.66h30.05Zm-73.87,0h31.55v36.18H205.57V161.6h7ZM183.3,204.9v-3.44h39.33v25.45l-4.95,1.61-5.87,1.91V213.08a1.8,1.8,0,0,0-3.57,0v18.51l-11.13,3.68a1.8,1.8,0,0,0,.23-.9V213.21a1.8,1.8,0,1,0-3.57-.44,1.62,1.62,0,0,0,0,.44v21.16a1.65,1.65,0,0,0,1.11,1.61l-11.45,3.7Zm55.78,88.56a36.44,36.44,0,0,1-5.53,5.29,9.43,9.43,0,0,1-8.35,1,15.87,15.87,0,0,1-6-5,18.43,18.43,0,0,0-6.37-5.05,13,13,0,0,0-9.1-.26,15.85,15.85,0,0,0-6.51,4.68,22.3,22.3,0,0,1-5.71,5.29,10.37,10.37,0,0,1-1,.45q-8.49-23.81-17-47.4l-1.91-5.29,23.12-7.46L234.35,227l6.87-2.3v66.76a17.76,17.76,0,0,0-2.14,1.93ZM288.31,289a13,13,0,0,0-7.41,3.71c-1.9,1.77-3.39,4-5.42,5.58a9.34,9.34,0,0,1-7.94,1.85,12.12,12.12,0,0,1-6.29-4.28,24.14,24.14,0,0,0-6-5.29,13.26,13.26,0,0,0-9.21-1.2,9.05,9.05,0,0,0-1.13.32v-65l6.08,2h.24L267.62,232l10.71,3.47a1.83,1.83,0,0,0,2.46.79h0l26.45,8.57,7.28,2.35-14.84,41.32-1.24,3.44-1-.85a13,13,0,0,0-9-2.14Z" transform="translate(-42 -10)" style="fill:#103553"/><path id="Path_10015" data-name="Path 10015" d="M218.9,192.26V171.1a1.8,1.8,0,0,0-3.57,0h0v21.16a1.8,1.8,0,1,0,3.57.43A1.55,1.55,0,0,0,218.9,192.26Z" transform="translate(-42 -10)" style="fill:#103553"/><path id="Path_10016" data-name="Path 10016" d="M233.34,192.26V171.1a1.8,1.8,0,0,0-3.57-.44,1.62,1.62,0,0,0,0,.44h0v21.16a1.8,1.8,0,1,0,3.57.43A1.55,1.55,0,0,0,233.34,192.26Z" transform="translate(-42 -10)" style="fill:#103553"/><path id="Path_10017" data-name="Path 10017" d="M296.14,234.69V213.53a1.8,1.8,0,0,0-3.58-.44,3.23,3.23,0,0,0,0,.44v21.16a1.8,1.8,0,0,0,3.58,0Z" transform="translate(-42 -10)" style="fill:#103553"/><path id="Path_10018" data-name="Path 10018" d="M260,192.26V171.1a1.8,1.8,0,0,0-3.57-.44,3.23,3.23,0,0,0,0,.44h0v21.16a1.8,1.8,0,0,0,3.57.43A1.55,1.55,0,0,0,260,192.26Z" transform="translate(-42 -10)" style="fill:#103553"/><path id="Path_10019" data-name="Path 10019" d="M274.55,192.26V171.1a1.8,1.8,0,0,0-3.6,0h0v21.16a1.8,1.8,0,0,0,3.6,0Z" transform="translate(-42 -10)" style="fill:#103553"/><path id="Path_10021" data-name="Path 10021" d="M222.5,241.14a10,10,0,0,0-7.94,9.36v.82A9.84,9.84,0,1,0,223.89,241a10.78,10.78,0,0,0-1.39.18Zm7.4,13.07a6.37,6.37,0,1,1-2.17-8.76,5.93,5.93,0,0,1,1.72,1.51A6.36,6.36,0,0,1,229.9,254.21Z" transform="translate(-42 -10)" style="fill:#103553"/><path id="Path_10021-2" data-name="Path 10021-2" d="M190.76,249.07a10.06,10.06,0,0,0-7.94,9.37v.82a9.84,9.84,0,1,0,9.33-10.33,9.26,9.26,0,0,0-1.39.17Zm7.4,13.07a6.37,6.37,0,1,1-2.17-8.75,6,6,0,0,1,1.72,1.5A6.36,6.36,0,0,1,198.16,262.14Z" transform="translate(-42 -10)" style="fill:#103553"/><path id="Path_10022" data-name="Path 10022" d="M303.91,260.66a1,1,0,0,0,0-.42,1,1,0,0,0,0-.43,10.13,10.13,0,1,0,0,.85Zm-7.67,5.53a6.4,6.4,0,1,1,3.7-8.26h0a6.06,6.06,0,0,1,.43,2.27A6.49,6.49,0,0,1,296.24,266.19Z" transform="translate(-42 -10)" style="fill:#103553"/><path id="Path_10023" data-name="Path 10023" d="M273,250.5a10.26,10.26,0,1,0,0,.85,1,1,0,0,0,0-.42A1,1,0,0,0,273,250.5Zm-7.75,6.4a6.4,6.4,0,1,1,3.73-8.25,6.56,6.56,0,0,1,.4,2.28A6.47,6.47,0,0,1,265.29,256.9Z" transform="translate(-42 -10)" style="fill:#103553"/></g></svg>