<svg id="Layer_1" data-name="Layer 1" xmlns="http://www.w3.org/2000/svg" viewBox="0 0 287.3 248.52"><path d="M85.76,15.32l5.14-2.51-5.52-1.52C42-.63,40-.11,39.38.06h0C18.07,5.82,4.83,20.82,1.09,43.45a91.52,91.52,0,0,0,.74,32.38L2.12,77,50.91,93.72l.21-2.79C55.6,30.93,85.46,15.46,85.76,15.32ZM47,87.83,5.83,73.7A89.49,89.49,0,0,1,5.38,44C8.9,23,20.63,9.68,40.24,4.3c3,.21,23.95,5.7,39.34,9.88C70.76,20.75,51.26,40.41,47,87.83Z" transform="translate(0.01 0)" style="fill:#103653"/><path d="M279.83,99.38c6.91-11.6,9.12-23.77,6.22-34.28-1.76-6.37-5.21-11.92-8.55-17.29-4.14-6.65-8.83-14.18-15.61-19.46-4.26-3.31-9.17-5.62-13.92-7.84-5.74-2.7-11.16-5.24-15.41-9.4-.76-.74-1.47-1.53-2.23-2.36a33.13,33.13,0,0,0-4.53-4.41C217-2.34,205.29.34,194,3.69a444.26,444.26,0,0,1-88.9,16.68H105c-3.28.27-6.67.55-9.79,2.16a22.72,22.72,0,0,0-5.8,4.71A90.72,90.72,0,0,0,65,94.39,10.12,10.12,0,0,0,66.61,100a10.41,10.41,0,0,0,3.62,2.75c12,6.37,26,13.45,40.9,17,9.87,2.34,17.71,2.09,23.89-.8,8.32,6,18.3,8.16,28.56,9.22l-6.33,23.47c-17.16-4-30.12-7-31.83-7.57l-1.89-.62L108,180.79l26.42,42.73,107.1,25-.85-3,6.69-36.86-10.62-37,.35-1.77-2-.47-12.33-2.79,4.87-19.52a12.52,12.52,0,0,0-1.91-9.84,276.64,276.64,0,0,1,31.63,10.55,6.33,6.33,0,0,0,2.35.48,5.68,5.68,0,0,0,3.35-1.11c4.9-3.48,6-14,5.87-16.69a27,27,0,0,0-4.59-13.65C269.75,112.74,278.15,102.15,279.83,99.38ZM137.13,219.72,114.92,183.8l110.77,24.43,9.67,34.42Zm105.78-10.84L238,236,229.7,206.5l5.13-25.64ZM232,173.17l-6.18,30.67L113.37,179,126,148.74c4.61,1.18,16.17,3.89,30.1,7.11h0l2.2.49h.11l15.5,3.65H174c10.66,2.44,21.57,4.93,31.13,7.1,7.86,1.84,14,3.18,14.42,3.28Zm-8.65-27.08-4.89,19.58-12.15-2.76-.41-.1-31-7.07c-5.55-1.3-10.66-2.47-13.44-3.1l6.48-24c2.42.19,4.85.34,7.26.49,2.63.17,5.36.34,8,.56a233.39,233.39,0,0,1,31,4.82,13.45,13.45,0,0,1,7.56,4.76,8.31,8.31,0,0,1,1.59,6.82Zm38.24-32.61a23.25,23.25,0,0,0-2.15-2.06A74.92,74.92,0,0,0,234.52,97.6c2.7-8.3,9.81-23.1,15.41-26.58l-2.1-3.77s-5.69,2.7-10.68.57c-3.12-1.33-5.45-4.33-6.93-8.9l-1-3-2.45,2c-.49.4-12.17,9.6-23-1.25l-1.18-1.18-1.44.84c-.45.27-10.65,6.37-18.14,19.91a69.58,69.58,0,0,1-7.36-5.67,2.52,2.52,0,0,1,.28.44L172,72.8c.8,1.76,13.24,10.6,23,16.3,16,9.37,28.31,13.44,36.72,12.12a72.35,72.35,0,0,1,24.94,13.49,22.9,22.9,0,0,1,7.9,16c.15,3.34-1.45,11.11-4.06,13a1.44,1.44,0,0,1-1.58.14,281.46,281.46,0,0,0-43.7-13.54l-.4-.11h0a235.6,235.6,0,0,0-31.26-4.83c-2.67-.22-5.41-.4-8.07-.57-13.93-.87-28.33-1.78-38.89-10l-1.12-.87-1.25.68c-5.39,2.94-12.61,3.28-22.09,1C97.7,112.16,84,105.22,72.26,99a7.09,7.09,0,0,1-2.21-1.54,6.62,6.62,0,0,1-.79-3.32,86.35,86.35,0,0,1,23.27-63.9,18.56,18.56,0,0,1,4.66-3.85c2.36-1.22,5.18-1.45,8.17-1.7h.11A447.72,447.72,0,0,0,195.24,7.84c10.18-3,20.73-5.51,27.92,0a31.24,31.24,0,0,1,3.94,3.86c.77.85,1.56,1.73,2.41,2.56,4.77,4.67,10.78,7.49,16.6,10.22,4.74,2.22,9.22,4.32,13.1,7.34,6.17,4.8,10.45,11.68,14.59,18.34,3.18,5.1,6.47,10.38,8.06,16.14,2.58,9.37.53,20.35-5.77,30.93-2,3.45-10.39,13.29-14.49,16.3ZM220,69.93c-9.14-4.48-22.66-2.37-31.64,9.94l-1.79-1.19A53.77,53.77,0,0,1,202,60.92c10,8.79,20.45,4.6,25.06,1.94,1.93,4.39,4.75,7.4,8.41,9A15.34,15.34,0,0,0,242,73c-5.38,7.2-10,18.29-11.86,24.08h-.11C234,82.64,227.31,73.49,220,69.93Zm5.55,27c-9.89-1.22-23.15-8.2-33.54-14.71,7.58-10.2,18.65-12,26.09-8.4,6.19,3,11.22,10.66,7.45,23.1Z" transform="translate(0.01 0)" style="fill:#103653"/></svg>