<svg id="Layer_1" data-name="Layer 1" xmlns="http://www.w3.org/2000/svg" viewBox="0 0 284.31 256.8"><path d="M283.89,291.6h-141a5.15,5.15,0,0,1-5.18-4.76h-.11c0-.28,0-.57,0-.86a1.15,1.15,0,0,0-1.13-.77h-124a5.15,5.15,0,0,1-5.2-5.2V42.1a7.32,7.32,0,0,1,7.3-7.3h183.6a5.14,5.14,0,0,1,5.2,5.2v71.7h-4V40a1.16,1.16,0,0,0-1.2-1.2H14.59a3.35,3.35,0,0,0-3.3,3.3V280a1.16,1.16,0,0,0,1.2,1.2h124a5.45,5.45,0,0,1,1.23.14c0-1.71.05-3.5.07-5.27.05-3.86.1-7.87.21-10.84l.29-13.08c0-.82.06-1.59.08-2.35.09-3.69.19-7.51,2-11.28A60.62,60.62,0,0,1,160.06,215a52.32,52.32,0,0,1,13.2-6.55,67.21,67.21,0,0,1,7.43-2l.82-.21c4.34-1.13,6.65-1.51,8.06-.62.24.17,17.92,12.39,23.75,16.34a1.19,1.19,0,0,0,1.4,0l21.71-15.51a5,5,0,0,1,3.61-.95,56.2,56.2,0,0,1,28.47,11.39,70.87,70.87,0,0,1,11,10.48c.54.63,1.1,1.25,1.65,1.87,2.74,3.06,5.57,6.22,7,10.5,1.13,3.23,1,6.62.95,9.9,0,.83-.05,1.64-.05,2.44v34.3A5.14,5.14,0,0,1,283.89,291.6Zm-142.26-6a5.32,5.32,0,0,1,.06.81,1.16,1.16,0,0,0,1.2,1.2h141a1.16,1.16,0,0,0,1.2-1.2V252.1c0-.83,0-1.69.05-2.55.08-2.92.17-5.93-.73-8.49-1.2-3.52-3.64-6.25-6.23-9.13-.57-.64-1.14-1.27-1.7-1.92a66.38,66.38,0,0,0-10.39-9.91,52.33,52.33,0,0,0-26.49-10.61,1,1,0,0,0-.84.24l-21.7,15.5a5.13,5.13,0,0,1-6,0c-5.42-3.67-21.27-14.62-23.42-16.11a24.21,24.21,0,0,0-5.08,1l-1,.25a59.67,59.67,0,0,0-7,1.85,47.92,47.92,0,0,0-12.2,6.05,56.71,56.71,0,0,0-18.34,22c-1.45,3-1.53,6.06-1.62,9.62,0,.79,0,1.58-.08,2.39l-.3,13c-.1,3-.15,6.94-.2,10.79C141.75,279.43,141.71,282.82,141.63,285.59Z" transform="translate(-7.29 -34.8)" style="fill:#103653"/><path d="M225.41,242.84a3.18,3.18,0,0,1-2.48-1.19l-.08-.12-8.9-13-10.49,13.09a3.08,3.08,0,0,1-2.24,1.14,3.25,3.25,0,0,1-2.18-.73l-.1-.09L178,222.67a3.23,3.23,0,0,1-.35-4.17l8.95-11.74,1-13.2,4,.28-1,14.4-9.19,12L201,238.38l10.68-13.33a3,3,0,0,1,4.93.24l9,13.11,20-18-9-12-1.77-11.8,3.95-.6,1.63,10.8,8.89,11.8a3.06,3.06,0,0,1-.28,4.11l-.08.08-21.49,19.37A3.05,3.05,0,0,1,225.41,242.84Zm-12.17-15.31v0ZM246,221a.05.05,0,0,0,0,0Z" transform="translate(-7.29 -34.8)" style="fill:#103653"/><path d="M116.29,181.1" transform="translate(-7.29 -34.8)" style="fill:none;stroke:#103653;stroke-miterlimit:10;stroke-width:4px"/><path d="M204.34,290.06l-3.89-.92,11.6-49.4a2.37,2.37,0,0,1,2.29-1.84h0a2.38,2.38,0,0,1,2.29,1.82c.7,3,2.45,10.45,4.39,18.64,7.26,30.69,7.26,30.82,7.26,31.24h-2l-2,.29c-.19-1.06-4.23-18.14-7.18-30.61-1-4.34-2-8.46-2.8-11.82Z" transform="translate(-7.29 -34.8)" style="fill:#103653"/><path d="M214,242.06a4,4,0,0,1-3-1.33l-5.12-5.92,3-2.62,5,5.83,3.91-5.57,3.27,2.3-4,5.7a3.82,3.82,0,0,1-2.91,1.61Z" transform="translate(-7.29 -34.8)" style="fill:#103653"/><path d="M213.49,210.5c-7.11,0-14.09-3.22-20.2-9.33-10.82-10.8-17.76-29.28-17.7-47.08l4,0c-.06,16.52,6.58,34.3,16.52,44.23,5.35,5.34,11.36,8.16,17.38,8.16h.09c7.53,0,14.81-3.71,21.08-10.62,9.5-10.5,14.74-26.83,13.34-41.59l4-.38c1.52,16.08-4,33.19-14.37,44.65-6.93,7.66-15.46,11.9-24,11.94Z" transform="translate(-7.29 -34.8)" style="fill:#103653"/><path d="M284.9,234.92l-3-2.64,5.68-6.48-18-17.67-6.69,6.59-2.81-2.84,6.7-6.6a3.93,3.93,0,0,1,5.62,0l17.95,17.65a3.93,3.93,0,0,1,.24,5.48Z" transform="translate(-7.29 -34.8)" style="fill:#103653"/><path d="M142.17,236.5l-6-6.05A3.93,3.93,0,0,1,136,225l17-18.68a3.78,3.78,0,0,1,2.6-1.38,4,4,0,0,1,3,1l7.1,6.19-2.63,3L156,208.92l0,0L139,227.6h0l6,6.1Z" transform="translate(-7.29 -34.8)" style="fill:#103653"/><path d="M177.59,156.6v-4l72.59-.5,0,4Z" transform="translate(-7.29 -34.8)" style="fill:#103653"/><path d="M215.28,176.13a62.34,62.34,0,0,1-11.19-1c-13.82-2.54-28.05-10.36-28.49-20.4l4-.18c.31,6.91,11.15,14.06,25.22,16.65,15.79,2.9,35.32-.13,42.75-17.35l3.67,1.58C244.61,170.74,229.76,176.13,215.28,176.13Z" transform="translate(-7.29 -34.8)" style="fill:#103653"/><path d="M250.71,156.11l-2.63-3c4.92-4.28,9.38-12.8,11.47-21.88-9.09-1.93-14.83-7.56-17.14-16.77-11.47.79-20.71-3.52-27.49-12.82-5.83,10.28-15.07,14.92-27.47,13.83-3.25,8-9.37,13.25-18.19,15.52,1,8.43,4.7,16.91,9.7,22.27L176,156c-5.69-6.09-9.83-15.75-10.82-25.21a3.13,3.13,0,0,1,2.47-3.51c8.11-1.92,13.43-6.42,16.25-13.76a3.14,3.14,0,0,1,3.33-2.06c11.57,1.18,19.66-3,24.76-12.84a3.06,3.06,0,0,1,2.53-1.68,3.23,3.23,0,0,1,2.87,1.34c6.2,9.1,14.45,13.08,25.25,12.17a3.2,3.2,0,0,1,2.24.56,3,3,0,0,1,1.24,1.93c1.9,8.29,6.78,13,14.9,14.53a3.08,3.08,0,0,1,2.08,1.3,3.23,3.23,0,0,1,.54,2.35l0,.14C261.44,141.55,256.48,151.09,250.71,156.11Zm9.65-24.74h0Zm-44.78-31v0Z" transform="translate(-7.29 -34.8)" style="fill:#103653"/><path d="M176.79,152.3" transform="translate(-7.29 -34.8)" style="fill:none;stroke:#103653;stroke-miterlimit:10;stroke-width:4px"/><path d="M170.4,144.19l-.41-4c5.19-.53,12.45-1.93,17.55-5.54h0c.57-2.36-1.14-12.41-3.21-20.78l3.89-1c1.87,7.6,4.71,20.84,2.63,24.08a2.79,2.79,0,0,1-1.26,1.1C183.83,142.09,176,143.61,170.4,144.19Z" transform="translate(-7.29 -34.8)" style="fill:#103653"/><path d="M257.17,144c-7.53-1.23-14.15-3.86-18.69-7.42a2.77,2.77,0,0,1-1.2-1.15c-1.89-3.32,1.89-16.35,4.31-23.82l3.81,1.24c-2.64,8.15-5.06,18-4.68,20.4l0,0c4,3.23,10.07,5.64,17.07,6.79Z" transform="translate(-7.29 -34.8)" style="fill:#103653"/><path d="M208.23,142.53a2.1,2.1,0,0,1-.81-.17A2.36,2.36,0,0,1,206,140.2l0-.27.87-6.45-4.73-4.31a2.22,2.22,0,0,1,1.08-3.95l6.29-1.12,2.64-6a2.26,2.26,0,0,1,2-1.34,2.21,2.21,0,0,1,2,1.26l3,5.6,6.46.7a2.24,2.24,0,0,1,1.9,1.39,2.2,2.2,0,0,1-.46,2.42l-4.47,4.74L224,139.7a2.37,2.37,0,0,1-1.42,2.17,2.13,2.13,0,0,1-1.86-.12L215,139l-5.59,3.23A2.15,2.15,0,0,1,208.23,142.53ZM210.05,131a2.13,2.13,0,0,1,.94,1.85v.27l-.53,3.88,4.36-2.51,4.51,2.18-.83-4.22a2.38,2.38,0,0,1,.69-1.72l2.62-2.77L218,127.5a2.1,2.1,0,0,1-1.89-1.29L214.35,123l-1.45,3.29a2.18,2.18,0,0,1-1.84,1.55l-3.66.66Zm12.06,2.46-.06.06Zm2.13-8.08-.07.07Zm-11.61-5.48a.25.25,0,0,1,0,.07Z" transform="translate(-7.29 -34.8)" style="fill:#103653"/><path d="M72,122.8H34.89a5.31,5.31,0,0,1-5.3-5.3V80.4a5.31,5.31,0,0,1,5.3-5.3H72a5.3,5.3,0,0,1,5.3,5.3v37.1A5.3,5.3,0,0,1,72,122.8ZM34.89,79.1a1.34,1.34,0,0,0-1.3,1.3v37.1a1.34,1.34,0,0,0,1.3,1.3H72a1.33,1.33,0,0,0,1.3-1.3V80.4A1.33,1.33,0,0,0,72,79.1Z" transform="translate(-7.29 -34.8)" style="fill:#103653"/><path d="M72,193H34.89a5.31,5.31,0,0,1-5.3-5.3V150.6a5.31,5.31,0,0,1,5.3-5.3H72a5.3,5.3,0,0,1,5.3,5.3v37.1A5.3,5.3,0,0,1,72,193Zm-37.1-43.7a1.34,1.34,0,0,0-1.3,1.3v37.1a1.34,1.34,0,0,0,1.3,1.3H72a1.33,1.33,0,0,0,1.3-1.3V150.6a1.33,1.33,0,0,0-1.3-1.3Z" transform="translate(-7.29 -34.8)" style="fill:#103653"/><path d="M72,263.3H34.89a5.31,5.31,0,0,1-5.3-5.3V220.9a5.31,5.31,0,0,1,5.3-5.3H72a5.3,5.3,0,0,1,5.3,5.3V258A5.3,5.3,0,0,1,72,263.3Zm-37.1-43.7a1.34,1.34,0,0,0-1.3,1.3V258a1.34,1.34,0,0,0,1.3,1.3H72a1.33,1.33,0,0,0,1.3-1.3V220.9a1.33,1.33,0,0,0-1.3-1.3Z" transform="translate(-7.29 -34.8)" style="fill:#103653"/><polygon points="41.11 73.78 33.06 65.49 35.94 62.71 41.29 68.22 56.86 54.12 59.54 57.08 41.11 73.78" style="fill:#103653"/><polygon points="41.11 144.88 33.06 136.59 35.94 133.81 41.29 139.32 56.86 125.22 59.54 128.18 41.11 144.88" style="fill:#103653"/><polygon points="41.11 214.08 33.06 205.79 35.94 203.01 41.29 208.52 56.86 194.42 59.54 197.38 41.11 214.08" style="fill:#103653"/><rect x="89.1" y="53.6" width="83.5" height="4" style="fill:#103653"/><rect x="86" y="121.5" width="83.5" height="4" style="fill:#103653"/><rect x="89.2" y="53.6" width="83.5" height="4" style="fill:#103653"/><rect x="88.8" y="191.5" width="42.7" height="4" style="fill:#103653"/><rect x="107.1" y="70.7" width="51.3" height="4" style="fill:#103653"/><rect x="105.9" y="138.6" width="51.2" height="4" style="fill:#103653"/><rect x="107.5" y="208.1" width="26.1" height="4" style="fill:#103653"/></svg>