<svg id="Layer_1" data-name="Layer 1" xmlns="http://www.w3.org/2000/svg" viewBox="0 0 239.62 295.21"><path d="M56,122.45a3.24,3.24,0,0,0,3.24,3.23h95.4c1.46,0,2.93,0,4.39,0s2.93,0,4.41,0,2.94,0,4.4-.09h.2a2.92,2.92,0,0,0,2.18-.86l.2-.19a2.66,2.66,0,0,0,.86-2.18V22.34c0-1.52,0-3.06,0-4.6,0-3.07.09-6.23,0-9.29v-.2A3.24,3.24,0,0,0,168,5H72.62c-1.46,0-2.93,0-4.39,0-2.89,0-5.88-.09-8.81,0h-.2A3.24,3.24,0,0,0,56,8.25V108.34c0,1.53,0,3.07,0,4.61,0,3.07-.09,6.23,0,9.3Zm44.79-111h24.11V41.61h-24c.09-4.53.09-9.17.09-13.66C101,22.42,100.87,17.1,100.77,11.48ZM94.19,44a1.83,1.83,0,0,0-.11.73A3.24,3.24,0,0,0,97.32,48H128a3.24,3.24,0,0,0,3.24-3.23V11.38h33.42v92.27a3.11,3.11,0,0,0-2-.64h-98a3,3,0,0,0-2.26.92V11.38H94.19l.06,3.19C94.43,24.23,94.62,34.21,94.19,44Zm.43-.18h-.24a.34.34,0,0,1,.06-.18Zm70,75.27H62.37l.09-8.06v-2.49a3,3,0,0,0,2.26.92h98a3.13,3.13,0,0,0,2-.64c0,1.06,0,2.12,0,3.18C164.64,114.32,164.62,116.69,164.67,119.11Z" transform="translate(-6.34 -4.92)" style="fill:#4bafca"/><path d="M215.28,238.78a3.12,3.12,0,0,0-3.2,3.17v51.66H17.92c-1,0-1.92,0-2.86-.05l-2.2-.05V45.84c0-.86,0-1.73,0-2.6,0-1.57,0-3.18,0-4.76H46.22a3.24,3.24,0,0,0,0-6.47c-4,0-8.07,0-12.1,0-7.92,0-16.11-.09-24.1,0h-.4a3.24,3.24,0,0,0-3.24,3.24v251c0,1.13,0,2.26,0,3.39,0,2.23,0,4.54,0,6.81v.39a3.24,3.24,0,0,0,3.24,3.24H207c.9,0,1.79,0,2.68,0l2.64,0c.89,0,1.79,0,2.68-.05h.4a3.24,3.24,0,0,0,3.24-3.24V241.93A3.21,3.21,0,0,0,215.28,238.78Z" transform="translate(-6.34 -4.92)" style="fill:#4bafca"/><path d="M180.92,38.38h34.46V149.45c0,1.76,0,3.52,0,5.27-.05,3.44-.09,7,0,10.53v.2a3,3,0,0,0,1,2.37,3.36,3.36,0,0,0,2.21.79,3.1,3.1,0,0,0,3.24-3.16V51.15c0-1.73,0-3.46,0-5.2,0-3.48.09-7.07,0-10.61v-.19a3.24,3.24,0,0,0-3.24-3.24h-37.7a3.24,3.24,0,0,0,0,6.47Z" transform="translate(-6.34 -4.92)" style="fill:#4bafca"/><path d="M103.42,152.58a3.24,3.24,0,0,0,0-6.47H45.22a3.24,3.24,0,0,0,0,6.47Z" transform="translate(-6.34 -4.92)" style="fill:#4bafca"/><path d="M90,173a3.1,3.1,0,0,0,3.16,3.24h78.6a3.24,3.24,0,0,0,0-6.47H93.12A3.1,3.1,0,0,0,90,173Z" transform="translate(-6.34 -4.92)" style="fill:#4bafca"/><path d="M126.38,191.35a3.1,3.1,0,0,0-3.16-3.24H44.62a3.24,3.24,0,0,0,0,6.47h78.6A3.1,3.1,0,0,0,126.38,191.35Z" transform="translate(-6.34 -4.92)" style="fill:#4bafca"/><path d="M156.58,209.64a3.1,3.1,0,0,0-3.16-3.23h-56a3.24,3.24,0,0,0,0,6.47h56A3.1,3.1,0,0,0,156.58,209.64Z" transform="translate(-6.34 -4.92)" style="fill:#4bafca"/><path d="M132,191.35a3.1,3.1,0,0,0,3.16,3.23h42a3.24,3.24,0,0,0,0-6.47h-42A3.1,3.1,0,0,0,132,191.35Z" transform="translate(-6.34 -4.92)" style="fill:#4bafca"/><path d="M38.26,173a3.1,3.1,0,0,0,3.16,3.24h42a3.24,3.24,0,0,0,0-6.47h-42A3.1,3.1,0,0,0,38.26,173Z" transform="translate(-6.34 -4.92)" style="fill:#4bafca"/><path d="M87.72,206.41h-42a3.24,3.24,0,0,0,0,6.47h42a3.24,3.24,0,0,0,0-6.47Z" transform="translate(-6.34 -4.92)" style="fill:#4bafca"/><path d="M87.72,261.31h-42a3.24,3.24,0,0,0,0,6.47h42a3.24,3.24,0,0,0,0-6.47Z" transform="translate(-6.34 -4.92)" style="fill:#4bafca"/><path d="M113.62,261.31a3.24,3.24,0,0,0,0,6.47h30.2a3.24,3.24,0,0,0,0-6.47Z" transform="translate(-6.34 -4.92)" style="fill:#4bafca"/><path d="M244.3,186.59a27,27,0,0,0-9.29-10.1c-4.17-2.66-9-3.35-13-1.85-3.57,1.4-6.3,4.3-8.94,7.11l-1.45,1.53c-1.19,1.25-2.44,2.48-3.65,3.67-.62.61-1.24,1.21-1.78,1.76a4.4,4.4,0,0,0-1.2,1.2c-3.91,3.81-7.95,7.62-11.85,11.3-8.17,7.71-16.61,15.68-24.32,24.07a98.08,98.08,0,0,0-7,8.39,3.37,3.37,0,0,0-1.9,1.32,3.14,3.14,0,0,0-.54,2.24,55.13,55.13,0,0,0-5.05,10.83A108.75,108.75,0,0,0,151,259.23c-.19.84-.37,1.68-.55,2.52-.38,1.81-.77,3.68-1.24,5.42l-.29.87a.81.81,0,0,0-.18.26l0,0a.67.67,0,0,0-.16.24,3.67,3.67,0,0,0-.72,1.52l-.57,1.15.5-.5a3.1,3.1,0,0,0,.37,1.54,2.72,2.72,0,0,0,.55.68,2.76,2.76,0,0,0,2.22,1,3.28,3.28,0,0,0,1-.16c8.47-2.7,18.07-5.76,26.81-10.65a63.31,63.31,0,0,0,5.46-3.47,3.72,3.72,0,0,0,2.39-1.74A123.35,123.35,0,0,0,201,244.52c6.38-6.75,13.45-14,21.59-22.29l11.1-11.1c.87-.88,1.78-1.74,2.69-2.6a50.55,50.55,0,0,0,7.38-8.09A13.53,13.53,0,0,0,244.3,186.59Zm-66.17,69.27a108,108,0,0,1-21.48,9.47l-.49.18c.1-.47.2-.94.29-1.42.3-1.42.61-2.9,1-4.33a68.39,68.39,0,0,1,6.41-17.44c1.88,1.77,3.75,3.56,5.62,5.34C172.29,250.36,175.2,253.14,178.13,255.86Zm46-44.47c-.49.57-1,1.09-1.59,1.64l-.75.73c-7,7-14.21,14.21-21.11,21.51L198,238.1A135.43,135.43,0,0,1,183.55,252L167.4,236.75l0-.07a122.74,122.74,0,0,1,8.18-9.37c2.77-3,5.84-6.17,10-10.18,3.44-3.35,7-6.7,10.44-9.94s7-6.61,10.46-10l.6-.58c.26-.24.51-.48.75-.73,2.71,2.56,5.39,5.13,8.08,7.7S221.35,208.8,224.08,211.39Zm15.41-17.62h0c-.4,3.05-3.13,5.64-5.54,7.93l-1.41,1.35-3.83,3.74-16.22-15.27,4.22-4.21c.47-.49.94-1,1.42-1.55,2.1-2.34,4.27-4.76,7.18-5.29,3.8-.64,7.35,2.14,9.14,3.85C238.15,187.88,239.84,191.06,239.49,193.77Zm-90.65,74.39,0,0a.43.43,0,0,0,0,.07l0,0A.32.32,0,0,1,148.84,268.16Z" transform="translate(-6.34 -4.92)" style="fill:#4bafca"/></svg>