<svg id="Layer_1" data-name="Layer 1" xmlns="http://www.w3.org/2000/svg" viewBox="0 0 222.43 274.09"><path d="M138.92,129.51a2.53,2.53,0,0,0,2.5,2.5H230c4.07,0,8.18.15,12.24,0h.19a2.31,2.31,0,0,0,1.69-.66.6.6,0,0,1,.08-.08s0,0,.05-.05a2.31,2.31,0,0,0,.68-1.71V36.58c0-4.28.16-8.6,0-12.88a1.2,1.2,0,0,1,0-.19,2.54,2.54,0,0,0-2.5-2.5H153.84c-4.07,0-8.17-.15-12.24,0h-.18a2.54,2.54,0,0,0-2.5,2.5v92.94c0,4.28-.17,8.6,0,12.88Zm64-103.5V55H179.57c.13-4.4.08-8.81.05-13.21,0-5.26-.1-10.52-.17-15.79Zm-59,93V27.85c0-.6,0-1.22,0-1.84h30.5c.18,10.3.49,20.64,0,30.93a2.12,2.12,0,0,0-.07.57,2.53,2.53,0,0,0,2.5,2.5h28.5a2.53,2.53,0,0,0,2.5-2.5V26h30.36c.54,0,1.09,0,1.64,0v90.4c0,3.51-.11,7,0,10.56H145.55l-1.63,0ZM174.6,56.6a1.42,1.42,0,0,0-.07.22v0A.61.61,0,0,1,174.6,56.6Z" transform="translate(-92.39 -20.45)" style="fill:#103553;stroke:#103653;stroke-miterlimit:10"/><path d="M283.92,240.51V289H103.16c-1.73,0-3.49-.06-5.24-.05V58.39c0-2.45.07-4.92,0-7.38h31.46c3.21,0,3.22-5,0-5-11.21,0-22.43-.2-33.64,0-.12,0-.24,0-.36,0a2.54,2.54,0,0,0-2.5,2.5V281.64c0,3.15-.06,6.31,0,9.46v.41a2.53,2.53,0,0,0,2.5,2.5H278.67c2.47,0,4.95.06,7.42,0h.33a2.53,2.53,0,0,0,2.5-2.5v-51C288.92,237.3,283.92,237.29,283.92,240.51Z" transform="translate(-92.39 -20.45)" style="fill:#103553;stroke:#103653;stroke-miterlimit:10"/><path d="M254.42,51h32.5V154.64c0,4.88-.17,9.79,0,14.67v.2c0,3.22,5,3.23,5,0V63.38c0-4.87.17-9.78,0-14.66a1.47,1.47,0,0,1,0-.21,2.54,2.54,0,0,0-2.5-2.5h-35C251.2,46,251.19,51,254.42,51Z" transform="translate(-92.39 -20.45)" style="fill:#103553;stroke:#103653;stroke-miterlimit:10"/><path d="M128.42,157h54c3.21,0,3.22-5,0-5h-54C125.2,152,125.19,157,128.42,157Z" transform="translate(-92.39 -20.45)" style="fill:#103553;stroke:#103653;stroke-miterlimit:10"/><path d="M181.9,174h-9c-3.22,0-3.23,5,0,5h73c3.21,0,3.22-5,0-5h-64Z" transform="translate(-92.39 -20.45)" style="fill:#103553;stroke:#103653;stroke-miterlimit:10"/><path d="M200.92,196c3.21,0,3.22-5,0-5h-73c-3.22,0-3.23,5,0,5h73Z" transform="translate(-92.39 -20.45)" style="fill:#103553;stroke:#103653;stroke-miterlimit:10"/><path d="M228.92,213c3.21,0,3.22-5,0-5h-52c-3.22,0-3.23,5,0,5h52Z" transform="translate(-92.39 -20.45)" style="fill:#103553;stroke:#103653;stroke-miterlimit:10"/><path d="M211.92,191c-3.22,0-3.23,5,0,5h39c3.21,0,3.22-5,0-5h-39Z" transform="translate(-92.39 -20.45)" style="fill:#103553;stroke:#103653;stroke-miterlimit:10"/><path d="M163.92,179c3.21,0,3.22-5,0-5h-39c-3.22,0-3.23,5,0,5h39Z" transform="translate(-92.39 -20.45)" style="fill:#103553;stroke:#103653;stroke-miterlimit:10"/><path d="M167.92,208h-39c-3.22,0-3.23,5,0,5h39C171.13,213,171.14,208,167.92,208Z" transform="translate(-92.39 -20.45)" style="fill:#103553;stroke:#103653;stroke-miterlimit:10"/><path d="M133.75,259h-4.83c-3.22,0-3.23,5,0,5h39c3.21,0,3.22-5,0-5Z" transform="translate(-92.39 -20.45)" style="fill:#103553;stroke:#103653;stroke-miterlimit:10"/><path d="M195.39,259h-3.47c-3.22,0-3.23,5,0,5h28c3.21,0,3.22-5,0-5Z" transform="translate(-92.39 -20.45)" style="fill:#103553;stroke:#103653;stroke-miterlimit:10"/><path d="M312.87,189.33a24.27,24.27,0,0,0-8.45-9.2c-3.36-2.11-7.75-3.17-11.57-1.69s-6.59,4.95-9.47,7.87c-1.69,1.72-3.39,3.41-5.11,5.09a2.82,2.82,0,0,0-1,1c-11.25,10.92-23,21.32-33.65,32.87a90,90,0,0,0-6.59,7.87,2.61,2.61,0,0,0-2.07,3,51.18,51.18,0,0,0-4.75,10.1,81.18,81.18,0,0,0-3.06,10.34c-.52,2.48-1,5-1.7,7.42q-.12.42-.27.84c0,.05-.09.23-.14.36a2.63,2.63,0,0,0-.52,3.18,2.89,2.89,0,0,0,.42.53,2.15,2.15,0,0,0,2.41.62c8.45-2.72,17-5.48,24.78-9.84,1.76-1,3.43-2.08,5.07-3.23a2.8,2.8,0,0,0,2-1.46,114.89,114.89,0,0,0,13.44-12.49c6.61-7,13.27-13.87,20.05-20.67,3.43-3.45,6.89-6.88,10.34-10.32,3.16-3.13,6.76-6.15,9.26-9.87A11.75,11.75,0,0,0,312.87,189.33Zm-87.88,76-.13.15c-.07,0,0-.07.14-.17Zm0,0h0Zm.06-.13h0C225.12,265.06,225.11,265.09,225.07,265.16Zm7.05-2.46-1.28.42c.5-2.08.86-4.18,1.35-6.26A64.5,64.5,0,0,1,238.51,240c4.72,4.5,9.42,9,14.18,13.47C246.33,257.55,239.26,260.3,232.12,262.7Zm60.63-48c-6.61,6.59-13.17,13.22-19.6,20-5.2,5.48-10.29,11.23-16.28,15.88l-7.36-7-8.24-7.81.29-.42a106.46,106.46,0,0,1,7.61-8.7c3-3.23,6.15-6.39,9.32-9.49,6.39-6.25,13-12.29,19.45-18.46.54-.52,1.07-1,1.61-1.56,5.26,5,10.48,10,15.79,15C294.48,213,293.61,213.8,292.75,214.67Zm16.63-18.86c-.48,3.64-4.2,6.49-6.62,8.9l-3.86,3.84-7.39-7-8.36-7.93q2.14-2.12,4.25-4.26c2.33-2.37,4.74-5.88,8.23-6.52,3.31-.6,6.61,1.51,8.88,3.71S309.84,192.29,309.38,195.81Z" transform="translate(-92.39 -20.45)" style="fill:#103553;stroke:#103653;stroke-miterlimit:10"/><path d="M190,117h46.49c.32,0,.65,0,1,0h0c3.21,0,3.22-5,0-5h-91c-3.22,0-3.23,5,0,5Z" transform="translate(-92.39 -20.45)" style="fill:#103553;stroke:#103653;stroke-miterlimit:10"/></svg>