<svg id="Layer_1" data-name="Layer 1" xmlns="http://www.w3.org/2000/svg" viewBox="0 0 284.02 292.3"><rect x="42.82" y="126.9" width="87.2" height="5.2" style="fill:#4bafca"/><rect x="109.52" y="184.9" width="65.6" height="5.2" style="fill:#4bafca"/><rect x="109.52" y="212.8" width="65.6" height="5.2" style="fill:#4bafca"/><rect x="109.52" y="240.4" width="65.6" height="5.2" style="fill:#4bafca"/><rect x="43.92" y="153.6" width="131.2" height="5.2" style="fill:#4bafca"/><path d="M154.3,28.6a46.1,46.1,0,1,0,46.1,46.1h0A46.18,46.18,0,0,0,154.3,28.6Zm0,87a40.9,40.9,0,1,1,40.9-40.9h0a40.89,40.89,0,0,1-40.88,40.9Z" transform="translate(-0.08 0)" style="fill:#4bafca"/><rect x="124.54" y="72.21" width="59.6" height="5.2" transform="translate(-7.77 131.04) rotate(-45)" style="fill:#4bafca"/><path d="M141,77.3c5.1,0,9-5.8,9-13.1s-3.9-13.1-9-13.1-9,5.8-9,13.1S136,77.3,141,77.3Zm0-21c1.6,0,3.8,3.1,3.8,7.9s-2.2,7.9-3.8,7.9-3.8-3.1-3.8-7.9S139.5,56.3,141,56.3Z" transform="translate(-0.08 0)" style="fill:#4bafca"/><path d="M165.7,75.8c-5.1,0-9,5.8-9,13.1s4,13.1,9,13.1,9-5.8,9-13.1S170.7,75.8,165.7,75.8Zm0,21c-1.6,0-3.8-3.1-3.8-7.9s2.3-7.9,3.8-7.9,3.8,3.1,3.8,7.9S167.3,96.8,165.7,96.8Z" transform="translate(-0.08 0)" style="fill:#4bafca"/><path d="M275.9,140.4H241.4V7.6A7.6,7.6,0,0,0,233.8,0H89.5a7.3,7.3,0,0,0-5.3,2.4h-.4V3l-.1.1L22.9,92.7a6.63,6.63,0,0,0-1.2,3.9V221A36,36,0,0,0,36,290a36.26,36.26,0,0,0,5.7-.5v.1h58a5.93,5.93,0,0,0,5.8-5.3h73.7a8.26,8.26,0,0,0,8.2,8h88.5a8.24,8.24,0,0,0,8.2-8.2V148.6A8.24,8.24,0,0,0,275.9,140.4ZM83.8,12V90.8a2.43,2.43,0,0,1-2.4,2.4H28.8ZM36,284.7a30.8,30.8,0,1,1,30.8-30.8A30.8,30.8,0,0,1,36,284.7Zm63.5-68a.92.92,0,0,1-.8,1H38.4a1,1,0,0,1-.8-1V204.5a.92.92,0,0,1,.8-1H98.7a1,1,0,0,1,.8,1Zm.2,8.6a1,1,0,0,1,.8,1v12.3a.92.92,0,0,1-.8,1H69a35.76,35.76,0,0,0-11.2-14.3Zm0,59.2H54.9A36.09,36.09,0,0,0,68,270.2H99.6a1,1,0,0,1,.8,1v12.3h.1a.92.92,0,0,1-.8,1Zm.9-22.9h-.1a.92.92,0,0,1-.8,1H70.9a36,36,0,0,0,1.1-8.7,50,50,0,0,0-.4-5.6H99.8a1,1,0,0,1,.8,1Zm78.6-113V279H105.5v-7.8a5.7,5.7,0,0,0-2.3-4.7,6.17,6.17,0,0,0,2.3-4.8V249.4a6.16,6.16,0,0,0-3.2-5.4,6,6,0,0,0,3.2-5.4V226.4a6.09,6.09,0,0,0-2.9-5.2,6,6,0,0,0,1.9-4.4V204.6a5.91,5.91,0,0,0-5.8-6H38.4a5.91,5.91,0,0,0-5.8,6v12.2a6.66,6.66,0,0,0,.2,1.4,38.07,38.07,0,0,0-5.9,1V98.4H81.4A7.68,7.68,0,0,0,89,90.7V5.2c.1,0,.3-.1.4-.1H233.8a2.43,2.43,0,0,1,2.4,2.4V140.4H187.4a8.24,8.24,0,0,0-8.2,8.2Zm99.7,135.5a3,3,0,0,1-3,3H187.5a3,3,0,0,1-3-3V148.6a3,3,0,0,1,3-3h88.4a3,3,0,0,1,3,3Z" transform="translate(-0.08 0)" style="fill:#4bafca"/><path d="M268.2,151.6h-73a7.92,7.92,0,0,0-7.9,7.9v20.7a7.92,7.92,0,0,0,7.9,7.9h73a7.92,7.92,0,0,0,7.9-7.9V159.5A7.92,7.92,0,0,0,268.2,151.6Zm0,31.3h-73a2.68,2.68,0,0,1-2.7-2.68V159.5a2.68,2.68,0,0,1,2.68-2.7h73a2.68,2.68,0,0,1,2.7,2.68V180.2a2.68,2.68,0,0,1-2.68,2.7Z" transform="translate(-0.08 0)" style="fill:#4bafca"/><path d="M237.9,193.5H225.5a7.92,7.92,0,0,0-7.9,7.9v12.4a7.92,7.92,0,0,0,7.9,7.9h12.4a7.84,7.84,0,0,0,7.9-7.8V201.4A7.92,7.92,0,0,0,237.9,193.5Zm2.7,20.2a2.68,2.68,0,0,1-2.68,2.7H225.5a2.68,2.68,0,0,1-2.7-2.68V201.3a2.68,2.68,0,0,1,2.68-2.7H237.9a2.68,2.68,0,0,1,2.7,2.68V213.7Z" transform="translate(-0.08 0)" style="fill:#4bafca"/><path d="M207.7,193.5H195.3a7.92,7.92,0,0,0-7.9,7.9v12.4a7.92,7.92,0,0,0,7.9,7.9h12.4a8,8,0,0,0,7.9-7.9V201.4A7.92,7.92,0,0,0,207.7,193.5Zm2.6,20.2a2.68,2.68,0,0,1-2.68,2.7H195.2a2.68,2.68,0,0,1-2.7-2.68V201.3a2.68,2.68,0,0,1,2.68-2.7H207.6a2.68,2.68,0,0,1,2.7,2.68V213.7Z" transform="translate(-0.08 0)" style="fill:#4bafca"/><path d="M268.2,193.5H255.8a7.92,7.92,0,0,0-7.9,7.9v12.4a7.92,7.92,0,0,0,7.9,7.9h12.4a7.84,7.84,0,0,0,7.9-7.8V201.4A7.92,7.92,0,0,0,268.2,193.5Zm2.7,20.2a2.68,2.68,0,0,1-2.68,2.7H255.8a2.68,2.68,0,0,1-2.7-2.68V201.3a2.68,2.68,0,0,1,2.68-2.7H268.2a2.68,2.68,0,0,1,2.7,2.68V213.7Z" transform="translate(-0.08 0)" style="fill:#4bafca"/><path d="M237.9,222.8H225.5a7.92,7.92,0,0,0-7.9,7.9v12.4a7.92,7.92,0,0,0,7.9,7.9h12.4a7.92,7.92,0,0,0,7.9-7.9V230.7A7.92,7.92,0,0,0,237.9,222.8Zm2.7,20.3a2.68,2.68,0,0,1-2.68,2.7H225.5a2.68,2.68,0,0,1-2.7-2.68V230.7a2.68,2.68,0,0,1,2.68-2.7H237.9a2.68,2.68,0,0,1,2.7,2.68V243.1Z" transform="translate(-0.08 0)" style="fill:#4bafca"/><path d="M207.7,222.8H195.3a7.92,7.92,0,0,0-7.9,7.9v12.4a7.92,7.92,0,0,0,7.9,7.9h12.4a8,8,0,0,0,7.9-7.9V230.7A7.92,7.92,0,0,0,207.7,222.8Zm2.6,20.3a2.68,2.68,0,0,1-2.68,2.7H195.2a2.68,2.68,0,0,1-2.7-2.68V230.7a2.68,2.68,0,0,1,2.68-2.7H207.6a2.68,2.68,0,0,1,2.7,2.68V243.1Z" transform="translate(-0.08 0)" style="fill:#4bafca"/><path d="M237.9,252.2H225.5a7.92,7.92,0,0,0-7.9,7.9v12.4a7.92,7.92,0,0,0,7.9,7.9h12.4a7.84,7.84,0,0,0,7.9-7.8V260.1A7.92,7.92,0,0,0,237.9,252.2Zm2.7,20.3a2.68,2.68,0,0,1-2.68,2.7H225.5a2.68,2.68,0,0,1-2.7-2.68V260.1a2.68,2.68,0,0,1,2.68-2.7H237.9a2.68,2.68,0,0,1,2.7,2.68V272.5Z" transform="translate(-0.08 0)" style="fill:#4bafca"/><path d="M207.7,252.2H195.3a7.92,7.92,0,0,0-7.9,7.9v12.4a7.92,7.92,0,0,0,7.9,7.9h12.4a8,8,0,0,0,7.9-7.9V260.1A7.92,7.92,0,0,0,207.7,252.2Zm2.6,20.3a2.68,2.68,0,0,1-2.68,2.7H195.2a2.68,2.68,0,0,1-2.7-2.68V260.1a2.68,2.68,0,0,1,2.68-2.7H207.6a2.68,2.68,0,0,1,2.7,2.68V272.5Z" transform="translate(-0.08 0)" style="fill:#4bafca"/><path d="M268.2,222.8H255.8a7.92,7.92,0,0,0-7.9,7.9v41.8a7.92,7.92,0,0,0,7.9,7.9h12.4a7.84,7.84,0,0,0,7.9-7.8V230.7A7.92,7.92,0,0,0,268.2,222.8Zm2.7,49.8a2.68,2.68,0,0,1-2.68,2.7H255.8a2.68,2.68,0,0,1-2.7-2.68V230.8a2.68,2.68,0,0,1,2.68-2.7H268.2a2.68,2.68,0,0,1,2.7,2.68V272.6Z" transform="translate(-0.08 0)" style="fill:#4bafca"/><path d="M37.7,252.4l-1.9-.5V238.7c5,.7,6.3,3.9,7.3,7.4l1.8-.4c-.5-3.6-1-5.8-1.3-7.9a11,11,0,0,1-2.2-.5,18.63,18.63,0,0,0-5.5-.8v-4.7H33.7v4.9c-6.7.7-10.3,5-10.3,10,0,4.7,3.5,7.6,8.1,9.5l2.1.9v14.3c-6-.7-8.5-5.6-9.7-9.2l-1.8.5c.6,3.3,1.3,6.9,1.7,8.2a17.54,17.54,0,0,0,9.8,2.6v5.2h2.3v-5.3c6.7-.8,10.8-4.9,10.8-10.7C46.7,257.3,42.5,254.1,37.7,252.4Zm-4.1-1.5c-3.3-1.3-5.6-3.2-5.6-6.4a5.88,5.88,0,0,1,5.6-6Zm2.3,20.5V257.9l.7.3c4.4,1.9,5.1,4.2,5.1,6.8A6.25,6.25,0,0,1,35.9,271.4Z" transform="translate(-0.08 0)" style="fill:#4bafca"/></svg>