<?xml version="1.0" encoding="utf-8"?>
<!-- Generator: Adobe Illustrator 24.3.0, SVG Export Plug-In . SVG Version: 6.00 Build 0)  -->
<svg version="1.1" id="Layer_1" xmlns="http://www.w3.org/2000/svg" xmlns:xlink="http://www.w3.org/1999/xlink" x="0px" y="0px"
	 viewBox="0 0 239.6 295.2" style="enable-background:new 0 0 239.6 295.2;" xml:space="preserve">
<style type="text/css">
	.st0{fill:#103653;}
</style>
<path class="st0" d="M49.6,117.5c0,1.8,1.5,3.2,3.2,3.2h95.4c1.5,0,2.9,0,4.4,0s2.9,0,4.4,0s2.9,0,4.4-0.1h0.2
	c0.8,0,1.6-0.3,2.2-0.9l0.2-0.2c0.6-0.6,0.9-1.4,0.9-2.2v-100c0-1.5,0-3.1,0-4.6c0.1-3.1,0.1-6.2,0-9.3V3.3c0-1.8-1.5-3.2-3.2-3.2
	c0,0,0,0,0,0H66.3c-1.5,0-2.9,0-4.4,0C59,0,56,0,53.1,0.1h-0.2c-1.8,0-3.2,1.5-3.2,3.2v100.1c0,1.5,0,3.1,0,4.6c0,3.1-0.1,6.2,0,9.3
	L49.6,117.5z M94.4,6.5h24.1v30.2h-24c0.1-4.5,0.1-9.2,0.1-13.7C94.6,17.5,94.5,12.2,94.4,6.5L94.4,6.5z M87.8,39.1
	c-0.1,0.2-0.1,0.5-0.1,0.7c0,1.8,1.5,3.2,3.2,3.2h30.7c1.8,0,3.2-1.4,3.2-3.2V6.5h33.4v92.3c-0.6-0.4-1.3-0.7-2-0.6h-98
	c-0.8,0-1.7,0.3-2.3,0.9V6.5h31.7l0.1,3.2C88.1,19.3,88.3,29.3,87.8,39.1L87.8,39.1z M88.3,38.9H88c0-0.1,0-0.1,0.1-0.2L88.3,38.9z
	 M158.3,114.2H56l0.1-8.1v-2.5c0.6,0.6,1.4,0.9,2.3,0.9h98c0.7,0,1.4-0.2,2-0.6c0,1.1,0,2.1,0,3.2
	C158.3,109.4,158.3,111.8,158.3,114.2L158.3,114.2z"/>
<path class="st0" d="M208.9,233.9c-1.7,0-3.2,1.3-3.2,3c0,0,0,0.1,0,0.1v51.7H11.6c-1,0-1.9,0-2.9,0l-2.2,0V40.9c0-0.9,0-1.7,0-2.6
	c0-1.6,0-3.2,0-4.8h33.4c1.8-0.1,3.2-1.6,3.1-3.4c-0.1-1.6-1.4-3-3.1-3.1c-4,0-8.1,0-12.1,0c-7.9,0-16.1-0.1-24.1,0H3.3
	c-1.8,0-3.2,1.5-3.2,3.2v251c0,1.1,0,2.3,0,3.4c0,2.2,0,4.5,0,6.8v0.4c0,1.8,1.5,3.2,3.2,3.2h197.4c0.9,0,1.8,0,2.7,0h2.6
	c0.9,0,1.8,0,2.7,0h0.4c1.8,0,3.2-1.5,3.2-3.2V237c0-1.8-1.5-3.2-3.3-3.2C209,233.9,209,233.9,208.9,233.9z"/>
<path class="st0" d="M174.6,33.5H209v111.1c0,1.8,0,3.5,0,5.3c-0.1,3.4-0.1,7,0,10.5v0.2c0,0.9,0.3,1.8,1,2.4
	c0.6,0.5,1.4,0.8,2.2,0.8c1.7,0.1,3.2-1.2,3.2-3c0-0.1,0-0.1,0-0.2V46.2c0-1.7,0-3.5,0-5.2c0-3.5,0.1-7.1,0-10.6v-0.2
	c0-1.8-1.5-3.2-3.2-3.2l0,0h-37.7c-1.8,0.1-3.2,1.6-3.1,3.4C171.6,32.1,172.9,33.4,174.6,33.5L174.6,33.5z"/>
<path class="st0" d="M97.1,147.7c1.8-0.1,3.2-1.6,3.1-3.4c-0.1-1.6-1.4-3-3.1-3.1H38.9c-1.8,0.1-3.2,1.6-3.1,3.4
	c0.1,1.6,1.4,3,3.1,3.1H97.1z"/>
<path class="st0" d="M83.6,168.1c-0.1,1.7,1.2,3.2,3,3.2c0.1,0,0.1,0,0.2,0h78.6c1.8-0.1,3.2-1.6,3.1-3.4c-0.1-1.6-1.4-3-3.1-3.1
	H86.8c-1.7,0-3.1,1.3-3.1,3.1C83.6,168,83.6,168.1,83.6,168.1z"/>
<path class="st0" d="M120,186.4c0.1-1.7-1.3-3.2-3-3.2c-0.1,0-0.1,0-0.2,0H38.3c-1.8,0.1-3.2,1.6-3.1,3.4c0.1,1.6,1.4,3,3.1,3.1
	h78.6c1.7,0,3.1-1.3,3.2-3C120.1,186.6,120.1,186.5,120,186.4z"/>
<path class="st0" d="M150.2,204.7c0.1-1.7-1.3-3.2-3-3.2c-0.1,0-0.1,0-0.2,0h-56c-1.8,0.1-3.2,1.6-3.1,3.4c0.1,1.6,1.4,3,3.1,3.1h56
	c1.7,0,3.1-1.3,3.2-3C150.2,204.9,150.2,204.8,150.2,204.7z"/>
<path class="st0" d="M125.6,186.4c-0.1,1.7,1.3,3.2,3,3.2c0.1,0,0.1,0,0.2,0h42c1.8-0.1,3.2-1.6,3.1-3.4c-0.1-1.6-1.4-3-3.1-3.1h-42
	c-1.7,0-3.1,1.3-3.1,3.1C125.6,186.3,125.6,186.4,125.6,186.4z"/>
<path class="st0" d="M31.9,168.1c-0.1,1.7,1.2,3.2,3,3.2c0.1,0,0.1,0,0.2,0h42c1.8-0.1,3.2-1.6,3.1-3.4c-0.1-1.6-1.4-3-3.1-3.1h-42
	c-1.7,0-3.1,1.3-3.2,3C31.9,168,31.9,168.1,31.9,168.1z"/>
<path class="st0" d="M81.4,201.5h-42c-1.8,0.1-3.2,1.6-3.1,3.4c0.1,1.6,1.4,3,3.1,3.1h42c1.8-0.1,3.2-1.6,3.1-3.4
	C84.3,202.9,83,201.6,81.4,201.5z"/>
<path class="st0" d="M81.4,256.4h-42c-1.8,0.1-3.2,1.6-3.1,3.4c0.1,1.6,1.4,3,3.1,3.1h42c1.8-0.1,3.2-1.6,3.1-3.4
	C84.3,257.8,83,256.5,81.4,256.4z"/>
<path class="st0" d="M107.3,256.4c-1.8,0.1-3.2,1.6-3.1,3.4c0.1,1.6,1.4,3,3.1,3.1h30.2c1.8-0.1,3.2-1.6,3.1-3.4
	c-0.1-1.6-1.4-3-3.1-3.1H107.3z"/>
<path class="st0" d="M238,181.7c-2.2-4.1-5.4-7.6-9.3-10.1c-4.2-2.7-9-3.4-13-1.9c-3.6,1.4-6.3,4.3-9,7.1l-1.4,1.5
	c-1.2,1.2-2.4,2.5-3.6,3.7c-0.6,0.6-1.2,1.2-1.8,1.8c-0.5,0.3-0.9,0.7-1.2,1.2c-3.9,3.8-8,7.6-11.9,11.3
	c-8.2,7.7-16.6,15.7-24.3,24.1c-2.5,2.7-4.8,5.5-7,8.4c-0.8,0.2-1.5,0.7-1.9,1.3c-0.5,0.7-0.7,1.5-0.5,2.2c-2.1,3.4-3.7,7-5,10.8
	c-1.3,3.7-2.4,7.4-3.3,11.2c-0.2,0.8-0.4,1.7-0.6,2.5c-0.4,1.8-0.8,3.7-1.2,5.4l-0.3,0.9c-0.1,0.1-0.1,0.2-0.2,0.3l0,0
	c-0.1,0.1-0.1,0.1-0.2,0.2c-0.4,0.4-0.6,1-0.7,1.5l-0.6,1.1l0.5-0.5c0,0.5,0.1,1.1,0.4,1.5c0.1,0.3,0.3,0.5,0.6,0.7
	c0.5,0.7,1.4,1.1,2.2,1c0.3,0,0.7-0.1,1-0.2c8.5-2.7,18.1-5.8,26.8-10.6c1.9-1.1,3.7-2.2,5.5-3.5c1-0.2,1.9-0.9,2.4-1.7
	c5.2-4.1,10-8.6,14.5-13.5c6.4-6.8,13.4-14,21.6-22.3l11.1-11.1c0.9-0.9,1.8-1.7,2.7-2.6c2.7-2.4,5.2-5.1,7.4-8.1
	C240.2,191.4,240.3,186.1,238,181.7z M171.8,250.9c-6.8,3.9-14,7.1-21.5,9.5l-0.5,0.2l0.3-1.4c0.3-1.4,0.6-2.9,1-4.3
	c1.3-6.1,3.5-11.9,6.4-17.4c1.9,1.8,3.8,3.6,5.6,5.3C165.9,245.4,168.9,248.2,171.8,250.9z M217.8,206.5c-0.5,0.6-1,1.1-1.6,1.6
	l-0.8,0.7c-7,7-14.2,14.2-21.1,21.5l-2.7,2.8c-4.5,5-9.3,9.6-14.4,13.9l-16.2-15.3v-0.1c2.6-3.3,5.3-6.4,8.2-9.4
	c2.8-3,5.8-6.2,10-10.2c3.4-3.4,7-6.7,10.4-9.9s7-6.6,10.5-10l0.6-0.6c0.3-0.2,0.5-0.5,0.8-0.7c2.7,2.6,5.4,5.1,8.1,7.7
	S215,203.9,217.8,206.5z M233.2,188.9L233.2,188.9c-0.4,3.1-3.1,5.6-5.5,7.9c-0.5,0.5-1,0.9-1.4,1.4l-3.8,3.7l-16.2-15.3l4.2-4.2
	c0.5-0.5,0.9-1,1.4-1.6c2.1-2.3,4.3-4.8,7.2-5.3c3.8-0.6,7.4,2.1,9.1,3.9C231.8,183,233.5,186.1,233.2,188.9L233.2,188.9z
	 M142.5,263.2L142.5,263.2C142.5,263.3,142.5,263.3,142.5,263.2L142.5,263.2C142.5,263.3,142.5,263.3,142.5,263.2L142.5,263.2z"/>
</svg>
