<svg id="Layer_1" data-name="Layer 1" xmlns="http://www.w3.org/2000/svg" viewBox="0 0 284.42 256.96"><path d="M283.21,188.06l-18-17.65a4,4,0,0,0-5.66-.07l-.07.07L253,176.82a55.38,55.38,0,0,0-20-6.08l-1.26-8.39c9.38-11.21,14.37-27.14,13.2-42.29,5.19-5.28,9.56-14.11,11.6-23.63v-.14a3.25,3.25,0,0,0-2.66-3.75h0c-8.1-1.48-13-6.21-14.84-14.47a3.22,3.22,0,0,0-3.58-2.55c-10.76.89-19-3.06-25.16-12.14A3.33,3.33,0,0,0,207.3,62a3.14,3.14,0,0,0-2.6,1.72,24.13,24.13,0,0,1-8.47,9.67V5.28A5.22,5.22,0,0,0,191.07,0H7.38A7.4,7.4,0,0,0,0,7.38v237.9a5.23,5.23,0,0,0,5.17,5.29H129.28a1.06,1.06,0,0,1,1,.69v.85h.11a5.23,5.23,0,0,0,5.27,4.85h141a5.23,5.23,0,0,0,5.28-5.18v-34.4c0-.8,0-1.61.05-2.44.09-3.13.18-6.68-1-9.93a20.75,20.75,0,0,0-2.82-5.4l5.22-6A4,4,0,0,0,283.21,188.06Zm-76.08,25c.78,3.31,1.73,7.31,2.72,11.51,2.38,10,5.46,23,6.66,28.28H197.79Zm-.38-10h0l-3.88-4.41,3.82-4.77,3.18,4.65Zm-9.88-62.7a62.78,62.78,0,0,0,11.2,1c12.5,0,25.26-4,32.81-14.94-.52,12.7-5.47,25.7-13.49,34.55-4.35,4.81-11.53,10.55-21,10.6h-.09c-6,0-12-2.81-17.32-8.14-7.88-7.86-13.66-20.65-15.69-33.84C178.26,134.52,186.66,138.48,196.87,140.36Zm-24-18.51,66.17-.46c-8.14,15-26.48,17.62-41.46,14.87C185.05,134,175.07,128,172.87,121.85ZM186,166.41c6.13,6.12,13.13,9.36,20.26,9.36h.12c7.62,0,15.22-3.41,21.7-9.54l.84,5.63-21.44,15.32a1.13,1.13,0,0,1-1.31,0c-5-3.37-18.57-12.76-22.6-15.54l.52-7.28c.64.7,1.28,1.39,1.94,2Zm-4.16,9.1c4.64,3.2,17.2,11.87,21.9,15.06l.2.12-10.23,12.75-19.46-18Zm27.78,15.23c.09-.06.18-.1.26-.16l20.86-14.9,7.45,9.87-19.85,17.91Zm42.61-94.28a55.55,55.55,0,0,1-2.71,8.46c-6.52-1.21-12.15-3.51-15.94-6.56-.28-1.89,1.08-8.1,2.92-14.55,2.89,6.76,8.14,11,15.76,12.65ZM207.68,67c6.42,8.74,15,13,25.63,12.82-2.33,7.56-5,17.92-3.35,20.84a2.86,2.86,0,0,0,1.23,1.18c4.1,3.21,9.89,5.66,16.51,7a34.22,34.22,0,0,1-5.83,8.38c-8.43,0-63.24.44-70.66.48a35.35,35.35,0,0,1-5.4-8.56c5.26-.76,11.68-2.37,16.63-5.78a3,3,0,0,0,1.29-1.12c1.86-2.9-.18-13.71-2-21.42,11.65.62,20.37-4,26-13.82ZM178.29,84.64c1.42,6.74,2.38,13.27,2,15.15-4.64,3.28-11,4.71-16.06,5.35a43.94,43.94,0,0,1-2.07-8.92c7.24-1.89,12.71-5.78,16.16-11.58ZM131,217.44l-.3,13.07c-.1,3-.15,7-.2,10.86,0,1.72,0,3.48-.07,5.15a5.54,5.54,0,0,0-1.15-.12H5.25a1.08,1.08,0,0,1-1.12-1V7.38a3.27,3.27,0,0,1,3.25-3.2H191a1.08,1.08,0,0,1,1.12,1V75.39a27.88,27.88,0,0,1-12,1.14,3.22,3.22,0,0,0-3.42,2.11c-2.81,7.31-8.11,11.79-16.19,13.71a3.15,3.15,0,0,0-2,1.33A3.24,3.24,0,0,0,158,96c1,9.23,4.94,18.64,10.42,24.77v.68H86.08v4.17h82.49c1.06,12.35,5.3,24.55,11.68,33.85l-.79,10.94a35.41,35.41,0,0,0-5.19,1.07l-.81.21a65.82,65.82,0,0,0-7.44,2,53.52,53.52,0,0,0-7.88,3.34l-6.69-5.84a4.12,4.12,0,0,0-3.1-1,4,4,0,0,0-2.66,1.42l-17,18.68a4.11,4.11,0,0,0-.76,1.29H88.87v4.17h40l.11.12,5.43,5.52c-.43.81-.86,1.63-1.26,2.46a17.56,17.56,0,0,0-1.42,4.23H107.58v4.14h23.6c-.06,1-.08,1.94-.11,2.91,0,.75,0,1.52-.07,2.35Zm5.54-19.87-4.62-4.69,16.87-18.56,5.53,4.83-1.52,1a58.29,58.29,0,0,0-16.23,17.42Zm-2,54.11a5.52,5.52,0,0,0-.06-.81c.08-2.77.12-6.16.16-9.45,0-3.85.1-7.84.2-10.79l.3-13.06c0-.8.06-1.6.08-2.39.09-3.55.16-6.61,1.61-9.58a56.6,56.6,0,0,1,18.32-22,47.72,47.72,0,0,1,12.17-6,62.7,62.7,0,0,1,7-1.85l1-.24,1.63-.41-6.54,8.57a3.31,3.31,0,0,0,.36,4.28l20.93,19.23.11.1a3.19,3.19,0,0,0,4.49-.39l0,0,3.95-4.92,3.46,4a5.09,5.09,0,0,0,.65.58l-10.86,46.25H135.68a1.08,1.08,0,0,1-1.12-1v0Zm143.36-36.85v36.85a1.08,1.08,0,0,1-1,1.12h-56c-.64-2.84-2.33-10.07-6.87-29.24-1.75-7.37-3.34-14.11-4.16-17.62a2,2,0,0,0,.24-.26l2.44-3.49,3.13,4.57.09.12a3.24,3.24,0,0,0,2.12,1.21h.42a3.16,3.16,0,0,0,2-.7L241.76,188l.07-.08a3.13,3.13,0,0,0,.29-4.22l-6.35-8.43a52.71,52.71,0,0,1,23.1,10.17,66.08,66.08,0,0,1,10.37,9.9c.56.64,1.13,1.28,1.7,1.91,2.58,2.89,5,5.61,6.21,9.11C278,208.91,277.92,211.92,277.87,214.83Zm-2.24-18.54L274,194.48q-.84-.91-1.65-1.86a71.44,71.44,0,0,0-11-10.5q-2.22-1.69-4.58-3.15l5.62-5.54L280.29,191Z" transform="translate(0 0)" style="fill:#4bafca"/><path d="M199.58,98.69l-.86,6.41v.28a2.44,2.44,0,0,0,1.47,2.24,2.08,2.08,0,0,0,.85.17,2.15,2.15,0,0,0,1.18-.35l5.56-3.2,5.7,2.76a2.15,2.15,0,0,0,1.93.12,2.44,2.44,0,0,0,1.46-2.24l-1.35-6.81L220,93.35a2.29,2.29,0,0,0,.46-2.5,2.32,2.32,0,0,0-2-1.45L212,88.71l-3-5.56a2.28,2.28,0,0,0-3-1.08,2.31,2.31,0,0,0-1.08,1.08l-2.68,6L196,90.27a2.3,2.3,0,0,0-2,2.57,2.26,2.26,0,0,0,.87,1.53Zm4.29-5.51a2.28,2.28,0,0,0,1.91-1.61l1.38-3.13,1.61,3a2.17,2.17,0,0,0,2,1.34l3.68.4L212,95.83a2.41,2.41,0,0,0-.71,1.77l.79,4.08-4.39-2.13L203.38,102l.51-3.72V98a2.19,2.19,0,0,0-1-1.92l-2.51-2.29Z" transform="translate(0 0)" style="fill:#4bafca"/><path d="M64.78,40.18H27.68a5.38,5.38,0,0,0-5.38,5.38v37.1a5.4,5.4,0,0,0,5.38,5.39h37.1a5.4,5.4,0,0,0,5.38-5.39V45.58a5.38,5.38,0,0,0-5.36-5.4ZM66,82.66a1.25,1.25,0,0,1-1.22,1.22H27.68a1.25,1.25,0,0,1-1.22-1.22V45.58a1.24,1.24,0,0,1,1.22-1.21h37.1A1.24,1.24,0,0,1,66,45.58Z" transform="translate(0 0)" style="fill:#4bafca"/><path d="M64.78,110.5H27.68a5.38,5.38,0,0,0-5.38,5.38h0V153a5.4,5.4,0,0,0,5.38,5.39h37.1A5.4,5.4,0,0,0,70.16,153v-37.1A5.38,5.38,0,0,0,64.78,110.5ZM66,153a1.26,1.26,0,0,1-1.22,1.2H27.68A1.25,1.25,0,0,1,26.46,153V115.88a1.24,1.24,0,0,1,1.22-1.21h37.1A1.24,1.24,0,0,1,66,115.88Z" transform="translate(0 0)" style="fill:#4bafca"/><path d="M64.78,180.7H27.68a5.38,5.38,0,0,0-5.38,5.38h0v37.1a5.4,5.4,0,0,0,5.38,5.39h37.1a5.4,5.4,0,0,0,5.38-5.39v-37.1A5.38,5.38,0,0,0,64.78,180.7ZM66,223.18a1.25,1.25,0,0,1-1.22,1.22H27.68a1.25,1.25,0,0,1-1.22-1.22v-37.1a1.24,1.24,0,0,1,1.22-1.21h37.1A1.24,1.24,0,0,1,66,186.08Z" transform="translate(0 0)" style="fill:#4bafca"/><polygon points="41.38 68.09 36.08 62.63 33.09 65.53 41.19 73.88 59.68 57.13 56.88 54.04 41.38 68.09" style="fill:#4bafca"/><polygon points="41.38 139.19 36.08 133.73 33.09 136.63 41.19 144.98 59.68 128.23 56.88 125.14 41.38 139.19" style="fill:#4bafca"/><polygon points="41.37 208.4 36.07 203.02 33.1 205.95 41.2 214.17 59.68 197.43 56.88 194.34 41.37 208.4" style="fill:#4bafca"/><polygon points="172.68 57.67 172.78 57.67 172.78 53.5 172.68 53.5 89.28 53.5 89.18 53.5 89.18 57.67 89.28 57.67 172.68 57.67" style="fill:#4bafca"/><rect x="107.18" y="70.6" width="51.3" height="4.17" style="fill:#4bafca"/><rect x="105.98" y="138.5" width="51.2" height="4.17" style="fill:#4bafca"/></svg>