<svg id="Layer_1" data-name="Layer 1" xmlns="http://www.w3.org/2000/svg" viewBox="0 0 290.47 293.86"><g id="Group_31173" data-name="Group 31173"><path id="Path_10014" data-name="Path 10014" d="M288.6,279.12a12.83,12.83,0,0,0-8.4,3.1c-2,1.7-3.5,3.8-5.3,5.6a9.3,9.3,0,0,1-7.6,2.6,10.21,10.21,0,0,1-6.8-3.8l-1.8-1.9,15.1-42.1,2.2-6a1.83,1.83,0,0,0-1.3-2.2l-5.5-1.8v-42.7a1.79,1.79,0,0,0-1.78-1.8H247.5v-38a1.79,1.79,0,0,0-1.78-1.8H172c-3.6,0-7.3-.2-10.9,0a1.79,1.79,0,0,0-1.8,1.78v38H138.9a1.79,1.79,0,0,0-1.8,1.78v40.92l-1.7.5-9.1,2.9a1.82,1.82,0,0,0-1.2,2.2l17.7,49.3,1.6,4.5a9,9,0,0,1-3.9-.9,23.74,23.74,0,0,1-5.7-5.3,13.51,13.51,0,0,0-15.7-4,11.24,11.24,0,0,0-2.6,1.6v-12.5a1.79,1.79,0,0,0-1.78-1.8H88.3v-20.2a1.79,1.79,0,0,0-1.78-1.8H65.8V92.82c0-6.6.2-13.2,0-19.8h5.5a1.79,1.79,0,0,0,1.8-1.78V56.12h53.4l47,.2H190l4.1,7a1.38,1.38,0,0,0,.8.7h9.6v45.4a1.74,1.74,0,0,0,1.77,1.71h.13a1.75,1.75,0,0,0,1.3-.6,9.88,9.88,0,0,1-1.4,19.7h-1.7a2,2,0,0,1-1-.3l-.6-.2h-.2a15.83,15.83,0,0,1-1.8-1l-.4-.3h-.16l-.8-.7c-.2-.3-.5-.5-.7-.8l-.2-.2-.3-.4a15.83,15.83,0,0,1-1-1.8v-.2l-.2-.6a4.17,4.17,0,0,0-.3-1.1v-1.9a1.74,1.74,0,0,0-1.57-1.89h-.13a1.82,1.82,0,0,0-1.9,1.5v.4a13.41,13.41,0,0,0,12.8,14,13.59,13.59,0,0,0,14.1-12.9v-1.2a13.34,13.34,0,0,0-4.7-10.2,14,14,0,0,0-6.9-3.1V64.22h7.5a9.64,9.64,0,0,0,2.4,0c1.3-.1,1.6-1.1,2.2-2l3.3-5.7h11.5a13.49,13.49,0,0,0,11-7.5c2.2-3.9,3.8-9.3,1.8-13.5a10.17,10.17,0,0,0-9.7-5.7h-14.5l-4-6.9a1.86,1.86,0,0,0-1.5-.9h-20a8.85,8.85,0,0,0-2.3,0c-1.3.2-1.7,1.1-2.2,2.1l-3.2,5.4L179.84,27l-29.9-6.8-36.6-8.4c-10.6-2.5-21.2-5-31.7-7.5C76.34,3,71,1.52,65.74.22h0a1.72,1.72,0,0,0-1.7,0H29.2A1.79,1.79,0,0,0,27.44,2h0V20h-5.5a1.79,1.79,0,0,0-1.8,1.78V30h-5.3a11.19,11.19,0,0,0-10,5.7,13.91,13.91,0,0,0-.2,14.7,11.14,11.14,0,0,0,10,6.1h5.3v14.4a1.85,1.85,0,0,0,.5,1.2h0a1.85,1.85,0,0,0,1.2.5h5.5v152.8c0,6.6-.2,13.2,0,19.8H1.8A1.79,1.79,0,0,0,0,247v34a1.79,1.79,0,0,0,1.78,1.8h0a1.68,1.68,0,0,0,1-.3c5.4.7,7.8,6,12,9a13.1,13.1,0,0,0,16.2-1c2-1.7,3.5-3.9,5.4-5.6a9.65,9.65,0,0,1,8.1-2.4c5.4.9,7.8,6.9,12.2,9.5a13.21,13.21,0,0,0,16.1-2.3,58.16,58.16,0,0,1,5.5-5.6,9.34,9.34,0,0,1,8.4-1.4c5.1,1.6,7.3,7.5,12,9.8a13.57,13.57,0,0,0,16.1-3.8l.8-.9a1.66,1.66,0,0,0,1.5-1.7,14.29,14.29,0,0,1,3.3-2.7,9.89,9.89,0,0,1,8.4-.4,18.56,18.56,0,0,1,5.7,5.1,16.93,16.93,0,0,0,6.4,4.8,12.55,12.55,0,0,0,6.1.7,2.1,2.1,0,0,0,2-.4l1.2-.4a18.6,18.6,0,0,0,6.5-5,16.45,16.45,0,0,1,5.8-5,9.52,9.52,0,0,1,8.4.6,27.63,27.63,0,0,1,5.5,5.3,13.26,13.26,0,0,0,16.2,3.4,21.33,21.33,0,0,0,5.9-5.3,26.47,26.47,0,0,1,2.9-2.9,1.65,1.65,0,0,0,1.4-1,6.8,6.8,0,0,1,1.8-.7,9.28,9.28,0,0,1,8.2,1.6,67.11,67.11,0,0,1,5.3,5.5,13.3,13.3,0,0,0,7.7,3.9,12.68,12.68,0,0,0,8.7-1.8,33,33,0,0,0,5.7-5.5,10.91,10.91,0,0,1,6.6-4,9.41,9.41,0,0,1,7.8,2.5c2,1.8,3.6,4.1,5.7,5.8a12.81,12.81,0,0,0,16.2.5,48.49,48.49,0,0,0,5.5-5.6,10.11,10.11,0,0,1,7.1-3.3,1.66,1.66,0,0,0,1.34-1.93,1,1,0,0,0,0-.17,1.73,1.73,0,0,0-1.3-1.3ZM30.44,112.82l28.3,18,3.5,2.2v23.1L33.94,138l-3.4-2.1Zm31.8,15.8-28.3-17.9-3.4-2.2V84l28.3,18,3.5,2.2ZM30.44,140l28.3,18,3.5,2.2v23l-28.3-17.9-3.4-2.2Zm31.8-51.4v11.3L33.94,82l-3.4-2.2v-1.4c0-1.7.2-3.6.1-5.3h31.8Zm-31.8,99.1v-20.3l28.3,18,3.5,2.2v23.7l-28.3-18-3.4-2.1-.1-3.5Zm148.8-134.9-47-.2-40.8-.14c-6.1,0-12.2-.3-18.2,0V33.72h115l-.4.7-4.6,8.1a1.91,1.91,0,0,0,0,1.8c1.7,2.9,3.4,5.7,5,8.6Zm55.2-19.2h3.8a6.09,6.09,0,0,1,1.9.2,6.57,6.57,0,0,1,4.4,3.7,9.39,9.39,0,0,1-.3,6.6c-1.4,4.7-4.7,8.8-10,8.9h-8.9l.4-.7,4.6-8.1a1.91,1.91,0,0,0,0-1.8l-5-8.7Zm-37.7-7.7h20.2l2.4,4.2h0L221,33a2.44,2.44,0,0,0,.4.7h0l5.6,9.7c-1.9,3.2-3.7,6.5-5.6,9.7h0l-2.1,3.6h0l-2.4,4.2h-20.2c-3.4-5.9-6.7-11.6-10-17.5l5.6-9.7h0a4.11,4.11,0,0,0,.7-1.1c.5-.8.9-1.6,1.4-2.5h0ZM75.9,7c10.1,2.5,20.2,4.8,30.3,7.1l36.9,8.6,32,7.3H73.1v-8.1a1.79,1.79,0,0,0-1.78-1.8H65.8V4.48l.9.2C69.8,5.48,72.8,6.32,75.9,7ZM59.6,3.92h2.6V20H30.5V3.92ZM14.3,53.12a7.28,7.28,0,0,1-4.3-1,11.2,11.2,0,0,1-4.2-6.7c-1.1-4.9,2.2-11.5,7.7-11.7h6v19.4Zm8.8-25v-4.4H69.5v45.6H23.1Zm7.34,201.7v-34.4l28.3,17.9,3.5,2.2v10.2c0,6.6-.2,13.2,0,19.8H30.5v-15.7Zm-.3,19.3h54.7v18.3H3v-18.3Zm76.8,41a9.52,9.52,0,0,1-8.5-1.2,45.16,45.16,0,0,1-5.3-5.5,13.54,13.54,0,0,0-16.1-2.7c-4.6,2.7-6.9,8.8-12.5,9.8a9.51,9.51,0,0,1-7.9-2.2c-2-1.7-3.5-3.9-5.3-5.6a13,13,0,0,0-16.2-1.4c-4.4,3-6.9,9.1-12.9,9.3s-8.6-5.3-12.9-8.6a12.15,12.15,0,0,0-6.4-2.6v-8.2h109.7v14.4a15.08,15.08,0,0,1-6,4.6Zm154.2-98.4a30.85,30.85,0,0,0,4.3,0v39.7l-15.8-5.1-10.6-3.4v-19.1a1.72,1.72,0,0,0-1.53-1.89h-.07a1.77,1.77,0,0,0-1.9,1.5v.4h0v18.1l-10-3.2v-26.9l35.6-.1ZM209,203.22a1.79,1.79,0,0,0-1.8,1.78v7.92l-5.8-1.9a1.73,1.73,0,0,0-1.2-.2H200l-3.6,1.1v-7.1a1.81,1.81,0,1,0-3.6-.4h0v8.5l-9.2,3v-24.3h38.3v25.7l-11.1-3.6v-9a1.53,1.53,0,0,0-1.51-1.53,1.36,1.36,0,0,0-.29,0Zm34.8-51.2v36.2h-38.6v-36.3h30ZM170,152h31.6v36.2h-38.5v-36.3h7Zm-29.3,43.2v-3.4H180v25.5l-4.9,1.6-5.9,1.9V203.48a1.81,1.81,0,0,0-2-1.6h0a1.91,1.91,0,0,0-1.6,1.6v18.4l-11.1,3.7a1.5,1.5,0,0,0,.2-.9v-21.2a1.82,1.82,0,1,0-3.6-.6v21.7a1.62,1.62,0,0,0,1.1,1.6l-11.4,3.7Zm55.8,88.5A39.37,39.37,0,0,1,191,289a9.42,9.42,0,0,1-8.3,1,16.15,16.15,0,0,1-6-5,17.39,17.39,0,0,0-6.4-5,13,13,0,0,0-9.1-.3,16,16,0,0,0-6.5,4.7,22.13,22.13,0,0,1-5.7,5.3c-.3.2-.7.3-1,.5-5.7-15.9-11.3-31.7-17-47.4l-1.9-5.3,23.1-7.5,39.6-12.7,6.9-2.3v66.8a13.29,13.29,0,0,0-2.2,1.9Zm49.2-4.4a13.09,13.09,0,0,0-7.4,3.7c-1.9,1.8-3.4,4-5.4,5.6a9,9,0,0,1-7.9,1.8,12,12,0,0,1-6.3-4.3,23.37,23.37,0,0,0-6-5.3,13.35,13.35,0,0,0-9.2-1.2c-.4.1-.8.2-1.1.3v-65l6.1,2h.2l16.4,5.3,10.7,3.5a1.94,1.94,0,0,0,2.5.8h0l26.5,8.6,7.3,2.4-14.8,41.3-1.2,3.4-1-.9a12.45,12.45,0,0,0-9-2.1Z" transform="translate(0 0)" style="fill:#103553"/><path id="Path_10015" data-name="Path 10015" d="M176.3,182.48v-21.2a1.81,1.81,0,0,0-2-1.6h0a1.91,1.91,0,0,0-1.6,1.6h0v21.2a1.82,1.82,0,0,0,3.6.6h0Z" transform="translate(0 0)" style="fill:#103553"/><path id="Path_10016" data-name="Path 10016" d="M190.8,182.48v-21.2a1.72,1.72,0,0,0-1.53-1.89h-.07a1.77,1.77,0,0,0-1.9,1.5v.4h0v21.2a1.82,1.82,0,0,0,3.6.6h0v-.2C190.8,182.82,190.8,182.72,190.8,182.48Z" transform="translate(0 0)" style="fill:#103553"/><path id="Path_10017" data-name="Path 10017" d="M253.6,225v-21.2a1.81,1.81,0,1,0-3.6-.4h0V225a1.81,1.81,0,0,0,2,1.6h0A1.91,1.91,0,0,0,253.6,225Z" transform="translate(0 0)" style="fill:#103553"/><path id="Path_10018" data-name="Path 10018" d="M217.44,182.48v-21.2a1.72,1.72,0,0,0-1.53-1.89h-.07a1.77,1.77,0,0,0-1.9,1.5v.4h0v21.2a1.74,1.74,0,0,0,1.57,1.89h.13a1.82,1.82,0,0,0,1.9-1.5C217.44,182.82,217.44,182.72,217.44,182.48Z" transform="translate(0 0)" style="fill:#103553"/><path id="Path_10019" data-name="Path 10019" d="M232,182.48v-21.2a1.8,1.8,0,0,0-3.6,0h0v21.2a1.8,1.8,0,0,0,3.6,0Z" transform="translate(0 0)" style="fill:#103553"/><path id="Path_10021" data-name="Path 10021" d="M179.9,231.42a9.92,9.92,0,0,0-7.9,9.4v.8a9.81,9.81,0,1,0,9.3-10.3h0c-.5,0-.9.1-1.4.1Zm7.4,13.1a6.35,6.35,0,1,1-2.21-8.7h0a5,5,0,0,1,1.7,1.5A6.17,6.17,0,0,1,187.3,244.52Z" transform="translate(0 0)" style="fill:#103553"/><path id="Path_10021-2" data-name="Path 10021-2" d="M148.2,239.32a10,10,0,0,0-7.9,9.4v.8a9.81,9.81,0,1,0,9.3-10.3c-.5,0-1,.1-1.4.1Zm7.4,13.1a6.35,6.35,0,1,1-2.21-8.7h0A6.39,6.39,0,0,1,155.6,252.42Z" transform="translate(0 0)" style="fill:#103553"/><path id="Path_10022" data-name="Path 10022" d="M261.3,250.92v-.8a10.11,10.11,0,1,0,0,.8Zm-7.6,5.6a6.43,6.43,0,1,1,3.7-8.31h0a5.81,5.81,0,0,1,.4,2.3,6.65,6.65,0,0,1-4.1,6Z" transform="translate(0 0)" style="fill:#103553"/><path id="Path_10023" data-name="Path 10023" d="M230.44,240.82a10.26,10.26,0,1,0,0,.9Zm-7.7,6.4a6.36,6.36,0,1,1,3.7-8.2,5.81,5.81,0,0,1,.4,2.3,6.46,6.46,0,0,1-4.1,5.9Z" transform="translate(0 0)" style="fill:#103553"/></g></svg>