<svg id="Layer_1" data-name="Layer 1" xmlns="http://www.w3.org/2000/svg" viewBox="0 0 265.69 267.26"><path d="M161.9,98.6a63.8,63.8,0,1,0,63.79,63.81h0A63.86,63.86,0,0,0,161.9,98.6Zm0,123.6a59.8,59.8,0,1,1,59.79-59.81h0A59.86,59.86,0,0,1,161.9,222.2Z" transform="translate(0 -0.06)" style="fill:#103653"/><path d="M264.73,242.91l-34.16-35a81.92,81.92,0,0,0,13.72-45.47c0-1.76-.07-3.51-.18-5.25h0c.15-.52.22-.79.1-116.33v-35a5.81,5.81,0,0,0-5.79-5.8H62.29a5.87,5.87,0,0,0-4.13,1.63L1.66,58.19A5.83,5.83,0,0,0,0,62.28v141.4a5.8,5.8,0,0,0,5.79,5.8H94.34a82.21,82.21,0,0,0,112.23,22.1c4.71,4.46,24.41,24.36,34.61,34.74a3.33,3.33,0,0,0,2.38,1,3.63,3.63,0,0,0,2.32-.84l18.83-18.82A3.39,3.39,0,0,0,264.73,242.91ZM185.26,83.4l-.36-22.12a8.57,8.57,0,0,0,1.4-1.08L240.16,6.8v34c0,29.09.08,71.65.06,96.21A82.75,82.75,0,0,0,185.26,83.4Zm-5.1-24.7H6.82L37,28.5h175.6L183.54,57.33A5,5,0,0,1,180.16,58.7ZM61,4.52A1.84,1.84,0,0,1,62.29,4H237.34L216.66,24.5H41Zm-55.22,201A1.79,1.79,0,0,1,4,203.73H4v-141H180.9l.32,19.65a82.33,82.33,0,0,0-101.7,78.08H14.4a2.8,2.8,0,0,0-2.8,2.8h0v28.6a2.8,2.8,0,0,0,2.8,2.8H86.05a82.71,82.71,0,0,0,5.65,10.9Zm73.76-41.1a82,82,0,0,0,4.92,26.2H15.6v-26.2Zm4-2a78.4,78.4,0,1,1,78.4,78.4,78.4,78.4,0,0,1-78.4-78.4Zm160.1,100.67c-3.49-3.5-26.49-26.93-33.72-33.81a83,83,0,0,0,18.3-18.08l33.19,34Z" transform="translate(0 -0.06)" style="fill:#103653"/><path d="M120.58,163.79l2.83,2.83,35.7-35.7-2.83-2.83Z" transform="translate(0 -0.06)" style="fill:#103653"/><rect x="117.52" y="133.74" width="19.66" height="4" transform="translate(-58.68 129.75) rotate(-45)" style="fill:#103653"/></svg>