<svg id="Layer_1" data-name="Layer 1" xmlns="http://www.w3.org/2000/svg" viewBox="0 0 343.48 180.99"><title>step8</title><path d="M341.38,77.37a72.21,72.21,0,0,0-5.68-21.15,1.94,1.94,0,0,0-.51-1.09,57.41,57.41,0,0,0-16.11-20.67c-10.24-8.17-22.76-12.94-35.59-15.21a89.9,89.9,0,0,0-21.66-1.55h-.34a2,2,0,0,0-1.94,1.94v113h-5.12l.34-42.82.58-70c0-5.35,0-10.71.12-16.06a2,2,0,0,0-1.82-2.07H34.27c-10.12,0-20.3-.34-30.42,0H3.43A2,2,0,0,0,1.5,3.62V154.41a2,2,0,0,0,1.93,1.94h8.4a23.68,23.68,0,0,0,41.78,14.56,24.2,24.2,0,0,0,5.54-14.56h93.42a23.67,23.67,0,0,0,47.33,0h64.51a23.65,23.65,0,0,0,47.28,0h14.62c4.21,0,8.63.37,12.86,0a1.93,1.93,0,0,0,2.74-1.7V96.36A164.81,164.81,0,0,0,341.38,77.37Zm-3.09,11.9H283.51V58.46h49a64.06,64.06,0,0,1,4.25,13.93,100.49,100.49,0,0,1,1.49,16.88ZM28.42,5.52H251.65l-.34,42.29-.56,70q0,7.33-.12,14.64H14c-2.79,0-5.79-.26-8.64-.09V5.43Zm7.09,170A20,20,0,0,1,15.72,156.4H55.28a20,20,0,0,1-19.77,19.07Zm140.73,0a20,20,0,0,1-19.77-19.12H196a20,20,0,0,1-19.82,19.12Zm128.81-9.59a19.85,19.85,0,1,1-1.55-22.76,19.85,19.85,0,0,1,1.55,22.76Zm26-13.4H311.5a23,23,0,0,0-3.1-9,23.66,23.66,0,0,0-43.76,9H17.06c-3.85,0-7.86-.29-11.74,0V136.32H229.84c10.39,0,20.85.35,31.23,0h.43a1.94,1.94,0,0,0,1.94-1.93v-113a90.18,90.18,0,0,1,15,.87,80.88,80.88,0,0,1,34.19,12.2,54.68,54.68,0,0,1,17.93,20.12h-49a1.94,1.94,0,0,0-1.93,1.93V91.2a2,2,0,0,0,1.93,1.94h56.7c0,5.43-.17,10.83-.17,16.23v43.14Z" transform="translate(0 -0.04)" style="fill:#bdbdbd;stroke:#bdbdbd;stroke-miterlimit:10;stroke-width:3px"/></svg>