<svg id="Layer_1" data-name="Layer 1" xmlns="http://www.w3.org/2000/svg" viewBox="0 0 298.8 302.22"><g id="Group_31173" data-name="Group 31173"><path id="Path_10014" data-name="Path 10014" d="M301.93,292.82a13.2,13.2,0,0,0-8.65,3.19c-2,1.75-3.6,3.91-5.45,5.76a9.55,9.55,0,0,1-7.82,2.68,10.5,10.5,0,0,1-7-3.91l-1.86-2,15.54-43.31L289,249.1a1.87,1.87,0,0,0-1.33-2.26L282,245V201.05a1.85,1.85,0,0,0-1.85-1.85H259.64V160.11a1.84,1.84,0,0,0-1.85-1.85H182c-3.7,0-7.51-.21-11.22,0a1.85,1.85,0,0,0-1.85,1.85h0V199.2h-21a1.85,1.85,0,0,0-1.86,1.85h0v42.08l-1.75.52-9.36,3a2,2,0,0,0-1.23,2.26l18.21,50.72,1.64,4.63a8.94,8.94,0,0,1-4-.92,22.7,22.7,0,0,1-5.86-5.46,13.89,13.89,0,0,0-16.15-4.11,14.47,14.47,0,0,0-2.68,1.64V282.53a1.85,1.85,0,0,0-1.85-1.85H95.86V259.9A1.84,1.84,0,0,0,94,258.05H72.71V101.16c0-6.79.21-13.58,0-20.37h5.66a1.84,1.84,0,0,0,1.85-1.85h0V63.4h54.94l48.35.21h17l4.21,7.2a1.83,1.83,0,0,0,.83.72h9.87v46.71a1.77,1.77,0,0,0,1.86,1.75h.1a1.68,1.68,0,0,0,1.34-.62,10.17,10.17,0,0,1-1.44,20.27h-1.75a1.79,1.79,0,0,1-1-.31l-.62-.21h-.2a17.24,17.24,0,0,1-1.86-1l-.41-.31h-.2l-.83-.72c-.2-.31-.51-.51-.72-.82l-.2-.21-.31-.41a16.22,16.22,0,0,1-1-1.85v-.2l-.21-.62a4.73,4.73,0,0,0-.3-1.13v-2a1.76,1.76,0,0,0-1.65-2h-.1a1.88,1.88,0,0,0-2,1.54v.41a13.81,13.81,0,0,0,13.17,14.41h0A14.06,14.06,0,0,0,231.56,131v-1.23a13.69,13.69,0,0,0-4.84-10.49,15.32,15.32,0,0,0-7.1-3.19V71.74h7.72a10.21,10.21,0,0,0,2.47,0c1.33-.11,1.64-1.14,2.26-2.06l3.4-5.87H247.3a13.87,13.87,0,0,0,11.31-7.71c2.27-4,3.91-9.57,1.86-13.89a10.46,10.46,0,0,0-10-5.86H235.57l-4.12-7.1a1.9,1.9,0,0,0-1.54-.93H209.33a9.32,9.32,0,0,0-2.36,0c-1.34.21-1.75,1.13-2.27,2.16L201.41,36,190,33.46l-30.76-7-37.65-8.64C110.67,15.25,99.77,12.68,89,10.11,83.51,8.67,78.06,7.23,72.61,5.89h0a1.76,1.76,0,0,0-1.75,0H35.06a1.85,1.85,0,0,0-1.85,1.85h0V26.26H27.55a1.85,1.85,0,0,0-1.85,1.85h0v8.44H20.24A11.48,11.48,0,0,0,10,42.42a14.33,14.33,0,0,0-.21,15A11.46,11.46,0,0,0,20,63.71h5.45V78.53A1.93,1.93,0,0,0,26,79.76h0a1.91,1.91,0,0,0,1.24.51H32.9v157.2c0,6.79-.21,13.58,0,20.37h-26A1.85,1.85,0,0,0,5,259.7H5v35a1.85,1.85,0,0,0,1.85,1.86h0a1.79,1.79,0,0,0,1-.31c5.55.72,8,6.17,12.34,9.26a13.48,13.48,0,0,0,16.67-1c2.06-1.75,3.6-4,5.55-5.76a9.92,9.92,0,0,1,8.34-2.47c5.55.92,8,7.1,12.55,9.77a13.55,13.55,0,0,0,16.56-2.37,50.47,50.47,0,0,1,5.66-5.76,9.61,9.61,0,0,1,8.64-1.44c5.25,1.65,7.51,7.72,12.35,10.09a14,14,0,0,0,16.56-3.91l.82-.93a1.7,1.7,0,0,0,1.55-1.75,14.51,14.51,0,0,1,3.39-2.78,10.18,10.18,0,0,1,8.64-.41,19,19,0,0,1,5.87,5.25,17.39,17.39,0,0,0,6.58,4.94,12.93,12.93,0,0,0,6.28.72,2.19,2.19,0,0,0,2.06-.41l1.23-.42a20.39,20.39,0,0,0,6.69-5.14,16.83,16.83,0,0,1,6-5.14,9.83,9.83,0,0,1,8.64.61,28.72,28.72,0,0,1,5.66,5.46,13.6,13.6,0,0,0,16.66,3.49,21.87,21.87,0,0,0,6.07-5.45,40,40,0,0,1,3-3,1.56,1.56,0,0,0,1.44-1,6.62,6.62,0,0,1,1.85-.72,9.55,9.55,0,0,1,8.43,1.64,71.14,71.14,0,0,1,5.46,5.66,14,14,0,0,0,7.92,4,13.09,13.09,0,0,0,9-1.86,33.64,33.64,0,0,0,5.86-5.65,11.16,11.16,0,0,1,6.79-4.12,9.69,9.69,0,0,1,8,2.57c2.05,1.85,3.7,4.22,5.86,6a13.19,13.19,0,0,0,16.67.51,50.49,50.49,0,0,0,5.66-5.76,10.36,10.36,0,0,1,7.3-3.39,1.65,1.65,0,0,0,1.34-2h0v-.2a1.78,1.78,0,0,0-1.34-1.34ZM36.29,121.73l29.12,18.52,3.6,2.27v23.76L39.89,147.66,36.4,145.5ZM69,138,39.89,119.57l-3.49-2.26V92l29.11,18.52,3.6,2.26ZM36.29,149.61l29.12,18.52L69,170.4v23.66L39.89,175.64l-3.49-2.26ZM69,96.74v11.62L39.89,90,36.4,87.68V86.24c0-1.75.2-3.7.1-5.45H69.21Zm-32.72,102V177.8l29.12,18.52,3.6,2.27V223L39.89,204.45l-3.49-2.16-.11-3.6ZM189.38,59.9,141,59.7l-42-.1c-6.28,0-12.55-.31-18.73,0V40.36H198.64l-.42.72-4.73,8.33a2,2,0,0,0,0,1.85c1.75,3,3.5,5.87,5.15,8.85Zm56.79-19.75h3.9a6.24,6.24,0,0,1,2,.21,6.75,6.75,0,0,1,4.53,3.8,9.68,9.68,0,0,1-.31,6.79c-1.44,4.84-4.84,9.06-10.29,9.16H236.8l.41-.72L242,51.06a2,2,0,0,0,0-1.85l-5.15-9Zm-38.79-7.92h20.78l2.47,4.32h0l1.75,3a1.64,1.64,0,0,0,.41.72h0l5.76,10c-2,3.3-3.8,6.69-5.76,10h0l-2.16,3.71h0l-2.47,4.32H207.38c-3.5-6.07-6.89-11.94-10.29-18l5.76-10h0a4,4,0,0,0,.72-1.13c.52-.82.93-1.64,1.44-2.57h0ZM83.1,12.79c10.39,2.57,20.78,4.93,31.17,7.3l38,8.85,32.92,7.51H80.22V28.11a1.85,1.85,0,0,0-1.85-1.85H72.71v-16l.93.21C76.83,11.24,79.91,12.17,83.1,12.79ZM66.33,9.7H69V26.26H36.4V9.7ZM19.73,60.32a7.5,7.5,0,0,1-4.43-1A11,11,0,0,1,11,52.39c-1.13-5,2.27-11.83,7.93-12h6.17v20ZM28.78,34.6V30.07H76.52V77H28.78Zm7.51,207.5V206.71l29.12,18.42,3.6,2.26v10.49c0,6.79-.21,13.58,0,20.37H36.4l-.11-16.15ZM36,262H92.26v18.83H8.1V262Zm79,42.18a9.77,9.77,0,0,1-8.74-1.24,47,47,0,0,1-5.45-5.65,13.93,13.93,0,0,0-16.57-2.78c-4.73,2.78-7.09,9-12.86,10.08a9.81,9.81,0,0,1-8.12-2.26c-2.06-1.75-3.6-4-5.46-5.76a13.33,13.33,0,0,0-16.66-1.44c-4.53,3.08-7.1,9.36-13.27,9.56S19,299.2,14.58,295.81A12,12,0,0,0,8,293.13v-8.44H120.86v14.82a15.62,15.62,0,0,1-6.17,4.73ZM273.63,202.91a32.75,32.75,0,0,0,4.43,0v40.84L261.8,238.5,250.9,235V215.35a1.82,1.82,0,0,0-1.55-1.95h-.1a1.82,1.82,0,0,0-1.95,1.54v.41h0V234L237,230.68V203l36.62-.1ZM220,214.74a1.85,1.85,0,0,0-1.85,1.85h0v8.13l-6-2a1.78,1.78,0,0,0-1.24-.2h-.21l-3.7,1.13v-7.31a1.86,1.86,0,0,0-3.7-.41h0v8.75l-9.47,3.08v-25h39.41v26.44l-11.42-3.7v-9.26a1.58,1.58,0,0,0-1.55-1.54.19.19,0,0,0-.31,0Zm35.81-52.68v37.25H216.12V162H247Zm-75.93-.1h32.51V199.2H172.81V161.86H180ZM149.77,206.4v-3.49H190.2v26.23l-5,1.65-6.07,2v-17.8A1.85,1.85,0,0,0,177,213.3h0a2,2,0,0,0-1.65,1.64v18.93L164,237.68a1.52,1.52,0,0,0,.21-.93V214.94a1.87,1.87,0,1,0-3.7-.61v22.32a1.68,1.68,0,0,0,1.13,1.65l-11.73,3.8Zm57.4,91a46.19,46.19,0,0,1-5.65,5.45,9.65,9.65,0,0,1-8.54,1,17.61,17.61,0,0,1-6.18-5.14,17.82,17.82,0,0,0-6.58-5.14,13.29,13.29,0,0,0-9.36-.31,16.52,16.52,0,0,0-6.69,4.83,22.82,22.82,0,0,1-5.86,5.45c-.31.21-.72.31-1,.52-5.87-16.36-11.63-32.61-17.49-48.77l-2-5.45,23.77-7.71,40.74-13.07,7.1-2.37V295.5a13.59,13.59,0,0,0-2.27,1.95Zm50.62-4.52a13.4,13.4,0,0,0-7.61,3.8c-2,1.85-3.5,4.12-5.56,5.76a9.25,9.25,0,0,1-8.13,1.85,12.33,12.33,0,0,1-6.48-4.42,24,24,0,0,0-6.17-5.45,13.74,13.74,0,0,0-9.46-1.24c-.42.11-.83.21-1.14.31V226.67l6.28,2.06h.21l16.87,5.45,11,3.6a2,2,0,0,0,2.57.83h0l27.26,8.84,7.51,2.47-15.23,42.49-1.23,3.5-1-.93a12.81,12.81,0,0,0-9.26-2.16Z" transform="translate(-5.02 -5.66)" style="fill:#4caeca"/><path id="Path_10015" data-name="Path 10015" d="M186.39,193.34V171.53a1.86,1.86,0,0,0-2.06-1.65h0a2,2,0,0,0-1.64,1.65h0v21.81a1.88,1.88,0,1,0,3.7.62h0Z" transform="translate(-5.02 -5.66)" style="fill:#4caeca"/><path id="Path_10016" data-name="Path 10016" d="M201.31,193.34V171.53a1.83,1.83,0,0,0-1.54-2h-.11a1.82,1.82,0,0,0-1.95,1.55v.41h0v21.81a1.88,1.88,0,1,0,3.7.62h0v-.21C201.31,193.75,201.31,193.65,201.31,193.34Z" transform="translate(-5.02 -5.66)" style="fill:#4caeca"/><path id="Path_10017" data-name="Path 10017" d="M265.92,237.06V215.25a1.87,1.87,0,0,0-3.71-.41h0v22.22a1.87,1.87,0,0,0,2.06,1.65h0A1.87,1.87,0,0,0,265.92,237.06Z" transform="translate(-5.02 -5.66)" style="fill:#4caeca"/><path id="Path_10018" data-name="Path 10018" d="M228.68,193.34V171.53a1.83,1.83,0,0,0-1.55-2H227a1.83,1.83,0,0,0-2,1.55v.41h0v21.81a1.76,1.76,0,0,0,1.65,1.95h.1a1.88,1.88,0,0,0,2-1.54C228.68,193.75,228.68,193.65,228.68,193.34Z" transform="translate(-5.02 -5.66)" style="fill:#4caeca"/><path id="Path_10019" data-name="Path 10019" d="M243.7,193.34V171.53a1.86,1.86,0,0,0-3.71,0h0v21.81a1.86,1.86,0,0,0,3.71,0Z" transform="translate(-5.02 -5.66)" style="fill:#4caeca"/><path id="Path_10021" data-name="Path 10021" d="M190.1,243.75a10.1,10.1,0,0,0-8.13,9.67v.82a10.09,10.09,0,1,0,9.57-10.59h0c-.52,0-.93.1-1.44.1Zm7.61,13.48a6.53,6.53,0,1,1-2.26-9h0a5,5,0,0,1,1.74,1.54,6.34,6.34,0,0,1,.52,7.41Z" transform="translate(-5.02 -5.66)" style="fill:#4caeca"/><path id="Path_10021-2" data-name="Path 10021-2" d="M157.48,251.88a10.28,10.28,0,0,0-8.12,9.67v.82a10.09,10.09,0,1,0,9.56-10.6c-.51,0-1,.11-1.44.11Zm7.62,13.47a6.53,6.53,0,1,1-2.27-9h0a6.51,6.51,0,0,1,2.27,9Z" transform="translate(-5.02 -5.66)" style="fill:#4caeca"/><path id="Path_10022" data-name="Path 10022" d="M273.84,263.81V263a10.4,10.4,0,1,0-10,10.8A10.5,10.5,0,0,0,273.84,263.81ZM266,269.57a6.61,6.61,0,1,1,3.81-8.54h0a6,6,0,0,1,.41,2.37,7.12,7.12,0,0,1-4.22,6.17Z" transform="translate(-5.02 -5.66)" style="fill:#4caeca"/><path id="Path_10023" data-name="Path 10023" d="M242.05,253.42a10.56,10.56,0,1,0,0,.93ZM234.13,260a6.54,6.54,0,1,1,3.8-8.43,6,6,0,0,1,.42,2.36,6.53,6.53,0,0,1-4.22,6.07Z" transform="translate(-5.02 -5.66)" style="fill:#4caeca"/></g></svg>