<svg id="Layer_1" data-name="Layer 1" xmlns="http://www.w3.org/2000/svg" viewBox="0 0 228.45 221.07"><g id="freepik--background-simple--inject-1--inject-2" style="opacity:0.20999999344348907"><path id="Path_9274" data-name="Path 9274" d="M258,99.84c-14-31.9-47.6-44-74.2-22.5-10.4,8.4-16.8,21.7-29.5,27-11.9,5-27,3.5-39.8,6.2-27.4,5.7-64.3,27.5-61.5,61.1,1.2,14.7,11.2,31,16.1,44.8,5.6,15.8,9,35.6,23.9,45.1,25.5,16.2,56.4,3,79.4-10.1,12.4-7,19.2-11.4,32.5-9,12.3,2.3,23.5,10.1,35.5.8,9.1-7,9.8-21.2,17.4-29.6,8.6-9.4,17.3-10.1,21.7-24.2,5.4-17.2-2.6-27.9-7.9-43.2S264.63,114.84,258,99.84Z" transform="translate(-52.88 -66.51)" style="fill:#214f6e"/><g id="Group_30970" data-name="Group 30970" style="opacity:0.699999988079071"><path id="Path_9275" data-name="Path 9275" d="M258,99.84c-14-31.9-47.6-44-74.2-22.5-10.4,8.4-16.8,21.7-29.5,27-11.9,5-27,3.5-39.8,6.2-27.4,5.7-64.3,27.5-61.5,61.1,1.2,14.7,11.2,31,16.1,44.8,5.6,15.8,9,35.6,23.9,45.1,25.5,16.2,56.4,3,79.4-10.1,12.4-7,19.2-11.4,32.5-9,12.3,2.3,23.5,10.1,35.5.8,9.1-7,9.8-21.2,17.4-29.6,8.6-9.4,17.3-10.1,21.7-24.2,5.4-17.2-2.6-27.9-7.9-43.2S264.63,114.84,258,99.84Z" transform="translate(-52.88 -66.51)" style="fill:#214f6e"/></g></g><g id="freepik--Shadow--inject-1--inject-2"><ellipse id="Ellipse_112" data-name="Ellipse 112" cx="104.69" cy="215.67" rx="87" ry="5.4" style="fill:#a3cc84"/><ellipse id="Ellipse_113" data-name="Ellipse 113" cx="104.69" cy="215.67" rx="87" ry="5.4" style="fill:#a3cc84;opacity:0.800000011920929;isolation:isolate"/></g><path id="Rectangle_9583" data-name="Rectangle 9583" d="M134.4,75.6h70.5A19.42,19.42,0,0,1,224.3,95V262.8a19.42,19.42,0,0,1-19.4,19.4H134.4A19.42,19.42,0,0,1,115,262.8V95.1A19.44,19.44,0,0,1,134.4,75.6Z" transform="translate(-52.88 -66.51)" style="fill:#1c262b"/><rect id="Rectangle_9584" data-name="Rectangle 9584" x="66.92" y="31.79" width="99.7" height="161.2" style="fill:#fff;stroke:#1c262b;stroke-miterlimit:10;stroke-width:1.3370000123977661px"/><circle id="Ellipse_114" data-name="Ellipse 114" cx="116.82" cy="81.79" r="21.6" style="fill:#a3cc84"/><path id="Path_9276" data-name="Path 9276" d="M198,249.4H141.3a1,1,0,0,1-1-1h0a1,1,0,0,1,1-1H198a1,1,0,0,1,1,1h0a1,1,0,0,1-1,1Z" transform="translate(-52.88 -66.51)" style="fill:#055485"/><path id="Rectangle_9585" data-name="Rectangle 9585" d="M141.2,182.1h56.9a4,4,0,0,1,4,4v3.6a4,4,0,0,1-4,4H141.2a4,4,0,0,1-4-4v-3.6A4,4,0,0,1,141.2,182.1Z" transform="translate(-52.88 -66.51)" style="fill:#214f6e"/><path id="Rectangle_9586" data-name="Rectangle 9586" d="M141.2,203.9h56.9a4,4,0,0,1,4,4v3.6a4,4,0,0,1-4,4H141.2a4,4,0,0,1-4-4v-3.6A4,4,0,0,1,141.2,203.9Z" transform="translate(-52.88 -66.51)" style="fill:#214f6e"/><path id="Path_9277" data-name="Path 9277" d="M180.4,159.1l-6.4-3.7v-3a10.67,10.67,0,0,0,2-3.8,1.48,1.48,0,0,0,.7.1c.8,0,1.3-2.4,1.4-4.2a2.72,2.72,0,0,0-.3-3.1,6.22,6.22,0,0,0,.9-2.6c.3-2.1-1.2-1.2-2.4-3.1s-2.1-4-6.1-4A5.43,5.43,0,0,0,165,135a13.58,13.58,0,0,0-2.9.3c-1.2.3-1.6,4.3-.5,5.9a5.55,5.55,0,0,1,.7,2.8c-.3-.3-.6-.4-.7.3-.3,1.7,1,4.2,1,4.2l.7-.2a12,12,0,0,0,2,4.1v3l-6.4,3.7a4.91,4.91,0,0,0-2.4,4.2v2.1a21.61,21.61,0,0,0,26.4,0v-2.1A5,5,0,0,0,180.4,159.1Z" transform="translate(-52.88 -66.51)" style="fill:#1c262b"/><rect id="Rectangle_9587" data-name="Rectangle 9587" x="66.92" y="31.99" width="99.7" height="6.2" style="fill:#214f6e"/><path id="Path_9284" data-name="Path 9284" d="M180.5,87H158.8a1.54,1.54,0,0,1-1.5-1.5h0a1.54,1.54,0,0,1,1.5-1.5h21.7a1.54,1.54,0,0,1,1.5,1.5h0a1.47,1.47,0,0,1-1.5,1.5Z" transform="translate(-52.88 -66.51)" style="fill:#a3cc84"/><path id="Path_9285" data-name="Path 9285" d="M175.6,268.7a5.9,5.9,0,1,0-5.9,5.9h0A6,6,0,0,0,175.6,268.7Z" transform="translate(-52.88 -66.51)" style="fill:#a3cc84"/><rect id="Rectangle_9588" data-name="Rectangle 9588" x="113.82" y="199.19" width="6" height="6" style="fill:#a3cc84;stroke:#1d1d1b;stroke-miterlimit:10"/><path id="Path_9286" data-name="Path 9286" d="M241,200.7s-7.8-19.9-.9-22.3c7.3-2.5,7,10.7,6.7,17.1-.6,13.7-2.1,16.3-3.2,12.9Zm-2.4,15.6c2.2,2.8,2.8-.1-1.1-13.3-1.8-6.2-5.8-18.7-11.9-14-5.8,4.5,8.1,20.8,8.1,20.8Zm-4.1,11.4c2.1,1.8,2.1-.5-2.8-10-2.3-4.5-7.1-13.5-11.1-9-3.8,4.3,9.2,14.8,9.2,14.8ZM230,241.3c2.1,1.8,2.1-.5-2.8-10-2.3-4.5-7.1-13.5-11.1-9-3.8,4.3,9.2,14.8,9.2,14.8Zm13-27.7c-3.3,1.3-.7,2.7,13.1,2.6,6.4,0,19.6-.3,16.8-7.4-2.7-6.9-22.2,1.9-22.2,1.9Zm-3.8,9.2c-3.5.6-1.2,2.5,12.3,5.2,6.3,1.3,19.3,3.6,17.9-3.9-1.3-7.3-22.2-2.6-22.2-2.6Zm-4.1,11.1c-3,.4-1.1,2.1,10.3,4.7,5.3,1.2,16.2,3.5,15.3-2.9-.9-6.2-18.7-2.7-18.7-2.7Zm-3.2,10.4c-2.9.7-.8,2.2,10.7,3.6,5.4.6,16.5,1.8,14.9-4.5-1.6-6-18.9-.7-18.9-.7Zm16.9-41.9c-1.7,3.8,1.8,3.2,13.7-7.2,5.6-4.9,16.8-15.1,7.9-20.2-8.5-4.9-17.7,18.7-17.7,18.7Zm-16.5,55.3c-1.8,1,0,1.4,8.2-.2,3.8-.8,11.6-2.4,9-5.8-2.6-3.2-13,3.5-13,3.5Z" transform="translate(-52.88 -66.51)" style="fill:#c5c800"/><path id="Path_9287" data-name="Path 9287" d="M241,200.7s-7.8-19.9-.9-22.3c7.3-2.5,7,10.7,6.7,17.1-.6,13.7-2.1,16.3-3.2,12.9Zm-2.4,15.6c2.2,2.8,2.8-.1-1.1-13.3-1.8-6.2-5.8-18.7-11.9-14-5.8,4.5,8.1,20.8,8.1,20.8Zm-4.1,11.4c2.1,1.8,2.1-.5-2.8-10-2.3-4.5-7.1-13.5-11.1-9-3.8,4.3,9.2,14.8,9.2,14.8ZM230,241.3c2.1,1.8,2.1-.5-2.8-10-2.3-4.5-7.1-13.5-11.1-9-3.8,4.3,9.2,14.8,9.2,14.8Zm13-27.7c-3.3,1.3-.7,2.7,13.1,2.6,6.4,0,19.6-.3,16.8-7.4-2.7-6.9-22.2,1.9-22.2,1.9Zm-3.8,9.2c-3.5.6-1.2,2.5,12.3,5.2,6.3,1.3,19.3,3.6,17.9-3.9-1.3-7.3-22.2-2.6-22.2-2.6Zm-4.1,11.1c-3,.4-1.1,2.1,10.3,4.7,5.3,1.2,16.2,3.5,15.3-2.9-.9-6.2-18.7-2.7-18.7-2.7Zm-3.2,10.4c-2.9.7-.8,2.2,10.7,3.6,5.4.6,16.5,1.8,14.9-4.5-1.6-6-18.9-.7-18.9-.7Zm16.9-41.9c-1.7,3.8,1.8,3.2,13.7-7.2,5.6-4.9,16.8-15.1,7.9-20.2-8.5-4.9-17.7,18.7-17.7,18.7Zm-16.5,55.3c-1.8,1,0,1.4,8.2-.2,3.8-.8,11.6-2.4,9-5.8-2.6-3.2-13,3.5-13,3.5Z" transform="translate(-52.88 -66.51)" style="fill:#a3cc84"/><path id="Path_9288" data-name="Path 9288" d="M244.5,210l-1.4-22.8m-3,30.3-8.6-19.6m31,13.9-20.7,3M235.7,228l-11.2-14.4m13.1,10,15.5.8M234,234.7l11.8,1.2m-14.7,5.8-5.9-8.8m5.2,11.9,13.9.1m-16.7,26c.2,0,.3-.2.3-.4-.9-13.3,4.2-35,12.5-52.9,5.3-11.4,25.9-33.8,26.1-34a.35.35,0,0,0-.5-.5h0c-.2.2-20.9,22.7-26.2,34.2-8.4,18.3-13.5,39.6-12.6,53.2.1.2.2.4.4.4Zm16.9-60.6c.2,0,.3-.2.3-.4l-1.3-22.8c0-.2-.2-.3-.4-.3h0c-.2,0-.3.2-.3.4l1.4,22.8c-.1.2.1.3.3.3Zm-4.2,7.5a.37.37,0,0,0,.2-.5l-8.7-19.6a.38.38,0,0,0-.7.3h0l8.6,19.6c.2.2.4.3.6.2Zm1.5-2.7,20.7-3c.2,0,.4-.2.3-.4s-.2-.4-.4-.3h-.1l-20.7,3c-.2,0-.3.2-.3.4a.46.46,0,0,0,.5.3Zm-5.9,13.2c.2-.1.2-.3.1-.5h0l-11.2-14.4c-.1-.2-.3-.2-.5-.1s-.2.3-.1.5h0l11.2,14.4a.37.37,0,0,0,.3.1c0,.1.1.1.2,0Zm17.5-3.9c0-.2-.1-.4-.3-.4l-15.4-.8c-.2,0-.3.2-.3.4a.27.27,0,0,0,.3.3l15.5.8h0c.1.1.2-.1.2-.3Zm-7.3,11.5c0-.2-.1-.4-.3-.4h0L234,234.3c-.2,0-.4.1-.4.3h0c0,.2.1.4.3.4l11.8,1.2h0c.3,0,.4-.1.4-.3ZM231.3,242c.2-.1.2-.3.1-.5l-5.8-8.8c-.1-.2-.3-.2-.5-.1s-.2.3-.1.5l5.8,8.8c.1.1.2.2.3.2a.31.31,0,0,1,.2-.1Zm13.4,2.9c0-.2-.2-.3-.3-.4l-13.9-.1h0a.32.32,0,0,0-.3.3c0,.2.1.3.3.4h0l13.9.1h0c.1.1.3-.1.3-.3ZM226,265.7a14,14,0,0,1,9.5-8.2c.2,0,.3-.2.3-.4s-.2-.3-.4-.3a14.43,14.43,0,0,0-10,8.6.37.37,0,0,0,.2.5h.1c.2.1.3,0,.3-.2Zm1.6,5.2c.2,0,.3-.2.3-.4-.9-13.3,4.2-35,12.5-52.9,5.3-11.4,25.9-33.8,26.1-34a.35.35,0,0,0-.5-.5h0c-.2.2-20.9,22.7-26.2,34.2-8.4,18.3-13.5,39.6-12.6,53.2.1.2.2.4.4.4Zm16.9-60.6c.2,0,.3-.2.3-.4l-1.3-22.8c0-.2-.2-.3-.4-.3h0c-.2,0-.3.2-.3.4l1.4,22.8c-.1.2.1.3.3.3Zm-4.2,7.5a.37.37,0,0,0,.2-.5l-8.7-19.6c-.1-.2-.3-.2-.5-.2a.4.4,0,0,0-.2.4l8.6,19.6q.3.45.6.3Zm1.5-2.7,20.7-3c.2,0,.4-.2.3-.4s-.2-.4-.4-.3h-.1l-20.7,3c-.2,0-.3.2-.3.4a.46.46,0,0,0,.5.3Zm-5.9,13.2c.2-.1.2-.3.1-.5h0l-11.2-14.4c-.1-.2-.3-.2-.5-.1s-.2.3-.1.5l11.2,14.4a.37.37,0,0,0,.3.1c.1.1.1.1.2,0Zm17.5-3.9c0-.2-.1-.4-.3-.4l-15.4-.8c-.2,0-.3.2-.3.4a.27.27,0,0,0,.3.3l15.5.8h0c.1.1.2-.1.2-.3Zm-7.3,11.5c0-.2-.1-.4-.3-.4h0L234,234.3c-.2,0-.4.1-.4.3h0c0,.2.1.4.3.4l11.8,1.2h0c.3,0,.4-.1.4-.3ZM231.3,242c.2-.1.2-.3.1-.5l-5.8-8.8c-.1-.2-.3-.2-.5-.1s-.2.3-.1.5l5.8,8.8c.1.1.2.2.3.2a.31.31,0,0,1,.2-.1Zm13.4,2.9c0-.2-.2-.3-.3-.4l-13.9-.1h0a.32.32,0,0,0-.3.3c0,.2.1.3.3.4h0l13.9.1h0c.2.1.3-.1.3-.3ZM226,265.7a14,14,0,0,1,9.5-8.2c.2,0,.3-.2.3-.4s-.2-.3-.4-.3a14.43,14.43,0,0,0-10,8.6.37.37,0,0,0,.2.5h.1c.2.1.3,0,.3-.2Z" transform="translate(-52.88 -66.51)" style="fill:#c5c800"/><path id="Path_9289" data-name="Path 9289" d="M244.5,210l-1.4-22.8m-3,30.3-8.6-19.6m31,13.9-20.7,3M235.7,228l-11.2-14.4m13.1,10,15.5.8M234,234.7l11.8,1.2m-14.7,5.8-5.9-8.8m5.2,11.9,13.9.1m-16.7,26c.2,0,.3-.2.3-.4-.9-13.3,4.2-35,12.5-52.9,5.3-11.4,25.9-33.8,26.1-34a.35.35,0,0,0-.5-.5h0c-.2.2-20.9,22.7-26.2,34.2-8.4,18.3-13.5,39.6-12.6,53.2.1.2.2.4.4.4Zm16.9-60.6c.2,0,.3-.2.3-.4l-1.3-22.8c0-.2-.2-.3-.4-.3h0c-.2,0-.3.2-.3.4l1.4,22.8c-.1.2.1.3.3.3Zm-4.2,7.5a.37.37,0,0,0,.2-.5l-8.7-19.6a.38.38,0,0,0-.7.3h0l8.6,19.6c.2.2.4.3.6.2Zm1.5-2.7,20.7-3c.2,0,.4-.2.3-.4s-.2-.4-.4-.3h-.1l-20.7,3c-.2,0-.3.2-.3.4a.46.46,0,0,0,.5.3Zm-5.9,13.2c.2-.1.2-.3.1-.5h0l-11.2-14.4c-.1-.2-.3-.2-.5-.1s-.2.3-.1.5h0l11.2,14.4a.37.37,0,0,0,.3.1c0,.1.1.1.2,0Zm17.5-3.9c0-.2-.1-.4-.3-.4l-15.4-.8c-.2,0-.3.2-.3.4a.27.27,0,0,0,.3.3l15.5.8h0c.1.1.2-.1.2-.3Zm-7.3,11.5c0-.2-.1-.4-.3-.4h0L234,234.3c-.2,0-.4.1-.4.3h0c0,.2.1.4.3.4l11.8,1.2h0c.3,0,.4-.1.4-.3ZM231.3,242c.2-.1.2-.3.1-.5l-5.8-8.8c-.1-.2-.3-.2-.5-.1s-.2.3-.1.5l5.8,8.8c.1.1.2.2.3.2a.31.31,0,0,1,.2-.1Zm13.4,2.9c0-.2-.2-.3-.3-.4l-13.9-.1h0a.32.32,0,0,0-.3.3c0,.2.1.3.3.4h0l13.9.1h0c.1.1.3-.1.3-.3ZM226,265.7a14,14,0,0,1,9.5-8.2c.2,0,.3-.2.3-.4s-.2-.3-.4-.3a14.43,14.43,0,0,0-10,8.6.37.37,0,0,0,.2.5h.1c.2.1.3,0,.3-.2Zm1.6,5.2c.2,0,.3-.2.3-.4-.9-13.3,4.2-35,12.5-52.9,5.3-11.4,25.9-33.8,26.1-34a.35.35,0,0,0-.5-.5h0c-.2.2-20.9,22.7-26.2,34.2-8.4,18.3-13.5,39.6-12.6,53.2.1.2.2.4.4.4Zm16.9-60.6c.2,0,.3-.2.3-.4l-1.3-22.8c0-.2-.2-.3-.4-.3h0c-.2,0-.3.2-.3.4l1.4,22.8c-.1.2.1.3.3.3Zm-4.2,7.5a.37.37,0,0,0,.2-.5l-8.7-19.6c-.1-.2-.3-.2-.5-.2a.4.4,0,0,0-.2.4l8.6,19.6q.3.45.6.3Zm1.5-2.7,20.7-3c.2,0,.4-.2.3-.4s-.2-.4-.4-.3h-.1l-20.7,3c-.2,0-.3.2-.3.4a.46.46,0,0,0,.5.3Zm-5.9,13.2c.2-.1.2-.3.1-.5h0l-11.2-14.4c-.1-.2-.3-.2-.5-.1s-.2.3-.1.5l11.2,14.4a.37.37,0,0,0,.3.1c.1.1.1.1.2,0Zm17.5-3.9c0-.2-.1-.4-.3-.4l-15.4-.8c-.2,0-.3.2-.3.4a.27.27,0,0,0,.3.3l15.5.8h0c.1.1.2-.1.2-.3Zm-7.3,11.5c0-.2-.1-.4-.3-.4h0L234,234.3c-.2,0-.4.1-.4.3h0c0,.2.1.4.3.4l11.8,1.2h0c.3,0,.4-.1.4-.3ZM231.3,242c.2-.1.2-.3.1-.5l-5.8-8.8c-.1-.2-.3-.2-.5-.1s-.2.3-.1.5l5.8,8.8c.1.1.2.2.3.2a.31.31,0,0,1,.2-.1Zm13.4,2.9c0-.2-.2-.3-.3-.4l-13.9-.1h0a.32.32,0,0,0-.3.3c0,.2.1.3.3.4h0l13.9.1h0c.2.1.3-.1.3-.3ZM226,265.7a14,14,0,0,1,9.5-8.2c.2,0,.3-.2.3-.4s-.2-.3-.4-.3a14.43,14.43,0,0,0-10,8.6.37.37,0,0,0,.2.5h.1c.2.1.3,0,.3-.2Z" transform="translate(-52.88 -66.51)" style="fill:#7f9b67"/><path id="Path_9290" data-name="Path 9290" d="M236.8,261H220.9v3.3h1.4l2.9,18h7.4l2.9-18h1.4Z" transform="translate(-52.88 -66.51)" style="fill:#c5c800"/><path id="Path_9291" data-name="Path 9291" d="M236.8,261H220.9v3.3h1.4l2.9,18h7.4l2.9-18h1.4Z" transform="translate(-52.88 -66.51)" style="fill:#7f9b67"/><path id="Path_9240" data-name="Path 9240" d="M83.3,276.3H77.6c-.2,0-.4.1-.4.3l-.9,4.2a.69.69,0,0,0,.5.8H77c1.8,0,3.2-.1,5.5-.1,1.4,0,5.7.2,7.7.2s2.3-1.9,1.4-2.1c-3.6-.8-6.4-1.9-7.5-2.9a.91.91,0,0,0-.8-.4Z" transform="translate(-52.88 -66.51)" style="fill:#1c262b"/><path id="Path_9241" data-name="Path 9241" d="M107.5,276.1h-5.7c-.2,0-.4.1-.4.3l-.9,4.2a.69.69,0,0,0,.5.8h.2c1.8,0,3.2-.1,5.5-.1,1.4,0,5.7.1,7.7.1s2.3-1.9,1.4-2.1c-3.6-.8-6.3-1.9-7.5-2.9A1.14,1.14,0,0,0,107.5,276.1Z" transform="translate(-52.88 -66.51)" style="fill:#1c262b"/><path id="Path_9242" data-name="Path 9242" d="M83.3,276.3H77.6c-.2,0-.4.1-.4.3l-.9,4.2a.69.69,0,0,0,.5.8H77c1.8,0,3.2-.1,5.5-.1,1.4,0,5.7.2,7.7.2s2.3-1.9,1.4-2.1c-3.6-.8-6.4-1.9-7.5-2.9a.91.91,0,0,0-.8-.4Z" transform="translate(-52.88 -66.51)" style="fill:#fff;opacity:0.30000001192092896;isolation:isolate"/><path id="Path_9243" data-name="Path 9243" d="M107.5,276.1h-5.7c-.2,0-.4.1-.4.3l-.9,4.2a.69.69,0,0,0,.5.8h.2c1.8,0,3.2-.1,5.5-.1,1.4,0,5.7.1,7.7.1s2.3-1.9,1.4-2.1c-3.6-.8-6.3-1.9-7.5-2.9A1.14,1.14,0,0,0,107.5,276.1Z" transform="translate(-52.88 -66.51)" style="fill:#fff;opacity:0.30000001192092896;isolation:isolate"/><path id="Path_9244" data-name="Path 9244" d="M108.2,164.3l-1.7,3.1s3.2,2.9,3.2,4-2.8,3.3-4.1,2a14.47,14.47,0,0,1-3-5.6c0-.7,1.3-1.5,1.3-1.5l2.5-4.5Z" transform="translate(-52.88 -66.51)" style="fill:#dc7267"/><path id="Path_9245" data-name="Path 9245" d="M102.6,134.7c3.6.7,12.7,8.5,12.4,15.8s-7.6,15.6-7.6,15.6-3.9-2.3-3-2.3,6.9-10.6,6.4-13.5-8.2-9.6-8.2-9.6Z" transform="translate(-52.88 -66.51)" style="fill:#c5c800"/><path id="Path_9246" data-name="Path 9246" d="M115,150.5c-.3,7.3-7.6,15.6-7.6,15.6s-3.9-2.3-3-2.3,6.9-10.6,6.4-13.5c-.2-1.4-2.3-3.9-4.4-5.9s-3.9-3.6-3.9-3.6v-6.1C106.3,135.4,115.3,143.2,115,150.5Z" transform="translate(-52.88 -66.51)" style="fill:#c2e2a6"/><path id="Path_9247" data-name="Path 9247" d="M106.5,144.5c-2-2-3.9-3.6-3.9-3.6v-1.8A7.25,7.25,0,0,1,106.5,144.5Z" transform="translate(-52.88 -66.51)" style="fill:#040405;opacity:0.20000000298023224;isolation:isolate"/><path id="Path_9248" data-name="Path 9248" d="M80.2,170.5h24.9c2.4,12.9,9.8,65.5,4.5,106.3h-8.4s.8-62-6.7-82c-.9,10.7-9.6,82-9.6,82H76.3s1.3-26.8,2.6-52.1C79.8,208.7,80.2,173.8,80.2,170.5Z" transform="translate(-52.88 -66.51)" style="fill:#1c262b"/><path id="Path_9249" data-name="Path 9249" d="M94.5,194.8a65.88,65.88,0,0,1,2.8,10.8c.7-9.5-2.1-19.7-2.1-19.7Z" transform="translate(-52.88 -66.51)" style="fill:#040405;opacity:0.20000000298023224;isolation:isolate"/><path id="Path_9250" data-name="Path 9250" d="M105.4,170.8H80.3v3l25.4-.3Z" transform="translate(-52.88 -66.51)" style="fill:#040405"/><rect id="Rectangle_9580" data-name="Rectangle 9580" x="35.52" y="102.99" width="0.9" height="5.3" style="fill:#1c262b"/><rect id="Rectangle_9581" data-name="Rectangle 9581" x="48.22" y="102.99" width="0.9" height="5.3" style="fill:#1c262b"/><rect id="Rectangle_9582" data-name="Rectangle 9582" x="41.12" y="103.79" width="4.6" height="3.3" style="fill:#fff"/><path id="Path_9251" data-name="Path 9251" d="M105.4,171.3H80.2c-.6-12.2-3.7-28.8-4.6-33.3a1.24,1.24,0,0,1,.9-1.4c1.3-.3,2.6-.5,3.9-.7a133.44,133.44,0,0,1,17.9-1.2c2.7,0,4.3.1,4.3.1C105.7,145.6,105.6,163.2,105.4,171.3Z" transform="translate(-52.88 -66.51)" style="fill:#c5c800"/><path id="Path_9252" data-name="Path 9252" d="M105.4,171.3H80.2a204.22,204.22,0,0,0-2.6-21.9c-.9-5.2-1.7-9.5-2.1-11.5v-.3a1.17,1.17,0,0,1,.9-1.1c1.3-.3,2.6-.5,3.9-.7a133.44,133.44,0,0,1,17.9-1.2c2.7,0,4.3.1,4.3.1C105.7,145.6,105.6,163.2,105.4,171.3Z" transform="translate(-52.88 -66.51)" style="fill:#a3cc84"/><path id="Path_9254" data-name="Path 9254" d="M84.6,135.2c2.2,2,7.4,1.2,7.4,1.2s3.3-.9,2.6-1.9a3.7,3.7,0,0,1-3.3-2.4,5.5,5.5,0,0,1-.2-2.2,5,5,0,0,1,.2-1.2l-6.5-4.8C85.7,127,86.7,132.9,84.6,135.2Z" transform="translate(-52.88 -66.51)" style="fill:#dc7267"/><path id="Path_9255" data-name="Path 9255" d="M86.3,126.9a5.42,5.42,0,0,0,5.1,5.2,5.5,5.5,0,0,1-.2-2.2Z" transform="translate(-52.88 -66.51)" style="fill:#040405;opacity:0.20000000298023224;isolation:isolate"/><path id="Path_9256" data-name="Path 9256" d="M85.6,132.7l6.2,2.8.4-2.3,2.3.8a1.88,1.88,0,0,1,1.2,2l-.3,2.5-3.2-1.7-1.6,2.3-7.5-3.6Z" transform="translate(-52.88 -66.51)" style="fill:#c5c800"/><path id="Path_9257" data-name="Path 9257" d="M85.6,132.7l6.2,2.8.4-2.3,2.3.8a1.88,1.88,0,0,1,1.2,2l-.3,2.5-3.2-1.7-1.6,2.3-7.5-3.6Z" transform="translate(-52.88 -66.51)" style="fill:#a3cc84"/><path id="Path_9258" data-name="Path 9258" d="M96.3,114s1.8,6.1-1.2,9-4.5-8.8-4.5-8.8Z" transform="translate(-52.88 -66.51)" style="fill:#1c262b"/><path id="Path_9259" data-name="Path 9259" d="M96.3,126.5c-.1.2-.1.4-.2.6a6.26,6.26,0,0,1-3.2,3.4,6.07,6.07,0,0,1-4.2.3,5.63,5.63,0,0,1-2.6-1.7c-2.2-2.4-2-5.1-2.1-9.6a6.17,6.17,0,0,1,6-6.4,6.71,6.71,0,0,1,2.8.6C97.1,115.7,97.4,122.5,96.3,126.5Z" transform="translate(-52.88 -66.51)" style="fill:#dc7267"/><path id="Path_9260" data-name="Path 9260" d="M90.8,121.1c0,.4.2.7.4.7s.4-.3.5-.6a.6.6,0,0,0-.4-.7A.65.65,0,0,0,90.8,121.1Z" transform="translate(-52.88 -66.51)" style="fill:#1c262b"/><path id="Path_9261" data-name="Path 9261" d="M94.9,121.3c0,.4.2.7.4.7s.4-.3.5-.7a.55.55,0,0,0-.4-.7C95.2,120.6,94.9,121,94.9,121.3Z" transform="translate(-52.88 -66.51)" style="fill:#1c262b"/><path id="Path_9262" data-name="Path 9262" d="M93.6,121.4a13.69,13.69,0,0,0,1.6,3.2,2.78,2.78,0,0,1-1.8.3Z" transform="translate(-52.88 -66.51)" style="fill:#d44040"/><path id="Path_9263" data-name="Path 9263" d="M96.5,119.6h-.2a1.6,1.6,0,0,0-1.5-.2.22.22,0,0,1-.2-.4h0a2.36,2.36,0,0,1,2,.3c.1,0,.1.1-.1.3h0C96.6,119.5,96.6,119.6,96.5,119.6Z" transform="translate(-52.88 -66.51)" style="fill:#1c262b"/><path id="Path_9264" data-name="Path 9264" d="M90,119.4h-.1a.19.19,0,0,1,0-.3h0a2.18,2.18,0,0,1,1.9-.4c.1,0,.2.1.1.3h0a.19.19,0,0,1-.3.1h0a1.67,1.67,0,0,0-1.5.4Z" transform="translate(-52.88 -66.51)" style="fill:#1c262b"/><path id="Path_9265" data-name="Path 9265" d="M87.5,114.1l.3,2a1.47,1.47,0,0,0-.7,1.9,5.45,5.45,0,0,1-1.5,5.3.58.58,0,0,0-.7-.6c-.7.1-.4,3.9.8,5.8a13.07,13.07,0,0,1-2.9-5.6c-1-3.7-1.1-6.7-.4-8.2Z" transform="translate(-52.88 -66.51)" style="fill:#1c262b"/><path id="Path_9266" data-name="Path 9266" d="M81.8,123.3a4.89,4.89,0,0,0,2.4,2.3c1.4.5,2.3-.7,2-2.1-.3-1.2-1.3-3.1-2.8-3a1.89,1.89,0,0,0-1.8,2,3.09,3.09,0,0,0,.2.8Z" transform="translate(-52.88 -66.51)" style="fill:#dc7267"/><path id="Path_9267" data-name="Path 9267" d="M92.8,127.3a.1.1,0,0,1-.1-.1,3.38,3.38,0,0,0-1.8-1.3c-.1,0-.1-.1-.1-.2h0c0-.1.1-.1.2-.1h0a3.23,3.23,0,0,1,2,1.4c0,.1,0,.2-.2.3Z" transform="translate(-52.88 -66.51)" style="fill:#1c262b"/><path id="Path_9268" data-name="Path 9268" d="M82.1,115.7s-.5-2.6,3.6-4.7,8.6.3,11.4-1.5,2.8,5.5-3,6.3A43.78,43.78,0,0,1,82.1,115.7Z" transform="translate(-52.88 -66.51)" style="fill:#1c262b"/><path id="Path_9269" data-name="Path 9269" d="M94.8,129.1a6.22,6.22,0,0,1-1.9,1.4,6.07,6.07,0,0,1-4.2.3,4.59,4.59,0,0,1,2.2-1.1A26.29,26.29,0,0,1,94.8,129.1Z" transform="translate(-52.88 -66.51)" style="fill:#040405;opacity:0.10000000149011612;isolation:isolate"/><path id="Path_9270" data-name="Path 9270" d="M88.8,137.8l.6-3.3s-1.3-1.2-1.1-2.4,5.9-3,6.9-3.1.6,4.1.3,4.8-3.8,1.7-3.8,1.7l-.4,3.5Z" transform="translate(-52.88 -66.51)" style="fill:#dc7267"/><path id="Path_9271" data-name="Path 9271" d="M84,150.4c-2,1.1-4.5.1-6.3-1-.9-5.2-1.7-9.5-2.1-11.5v-.3C79.7,141.8,86.3,149.1,84,150.4Z" transform="translate(-52.88 -66.51)" style="fill:#040405;opacity:0.20000000298023224;isolation:isolate"/><path id="Path_9272" data-name="Path 9272" d="M75.2,137.2c-3.6,4.9,4.6,12.9,10,16.2s7-15.8,7-15.8l-3.5-1.1s-1.6,10.4-3.4,9.7S77.5,134,75.2,137.2Z" transform="translate(-52.88 -66.51)" style="fill:#c5c800"/><path id="Path_9273" data-name="Path 9273" d="M75.2,137.2c-3.6,4.9,4.6,12.9,10,16.2s7-15.8,7-15.8l-3.5-1.1s-1.6,10.4-3.4,9.7S77.5,134,75.2,137.2Z" transform="translate(-52.88 -66.51)" style="fill:#c2e2a6"/></svg>