<svg id="Layer_1" data-name="Layer 1" xmlns="http://www.w3.org/2000/svg" viewBox="0 0 223.64 223.57"><path d="M237.84,58.57a112.17,112.17,0,0,0-49.2-43.74,113.41,113.41,0,0,0-69.08-7.78A111.82,111.82,0,0,0,31.83,98.89a117.62,117.62,0,0,0-1.43,17.67A111.9,111.9,0,0,0,51,181.19a113.43,113.43,0,0,0,53.25,40.55A111.84,111.84,0,0,0,237.84,58.57ZM128.45,216.49l.62.08A2.28,2.28,0,0,1,128.45,216.49Zm114.22-91.08c-.1,1.27-.23,2.53-.38,3.79,0,.16,0,.36,0,.56a1,1,0,0,0-.05.23c-.12.81-.24,1.62-.37,2.43-.44,2.64-1,5.27-1.61,7.88a109.59,109.59,0,0,1-5,15.41c-.11.24-.21.48-.31.71l-.75,1.67c-.61,1.32-1.24,2.64-1.91,3.93-1.18,2.32-2.45,4.6-3.8,6.82s-2.77,4.39-4.27,6.5a27.38,27.38,0,0,1-2.36,3.19c1.09-1.13-.22.27-.48.59L220,180.8a107.67,107.67,0,0,1-11,11.37c-.9.8-1.81,1.58-2.74,2.35-.51.42-1,.84-1.54,1.25l-.7.56-.09.07-.23.17q-3,2.3-6.2,4.37a106.93,106.93,0,0,1-14,7.69l-1.67.74-.12.06a7.12,7.12,0,0,1-.76.31c-1.3.53-2.61,1-3.93,1.51-2.55.92-5.13,1.75-7.74,2.47s-5.17,1.33-7.79,1.84c-1.3.26-2.59.49-3.89.69-.6.1-1.21.19-1.81.27l-.09,0-1.13.13a107.34,107.34,0,0,1-16.91.6q-4.2-.18-8.38-.69h-.12l-.66-.09-1.87-.29c-1.48-.24-3-.51-4.43-.81a105.57,105.57,0,0,1-15.3-4.38c-1.26-.47-2.51-1-3.76-1.47l-.21-.07c-.17-.08-.34-.17-.49-.23l-2-.91q-3.63-1.68-7.13-3.63t-6.81-4.15c-1-.66-2-1.34-3-2-.49-.35-1-.7-1.46-1.06l-.87-.65c-.13-.1-1.29-1-.59-.45s-.21-.16-.3-.23l-.84-.68L78,194.29c-1-.85-2-1.72-3-2.6q-2.94-2.66-5.69-5.52T64,180.24c-.38-.46-.76-.93-1.13-1.4l-.36-.4a.77.77,0,0,0-.11-.19c-.87-1.16-1.73-2.32-2.56-3.5a106.34,106.34,0,0,1-8-13.37c-.6-1.2-1.17-2.41-1.73-3.62-.25-.56-.5-1.11-.74-1.67l-.06-.12A8.25,8.25,0,0,1,49,155q-1.52-3.75-2.75-7.6a106.31,106.31,0,0,1-3.75-16,14.62,14.62,0,0,1-.27-1.86c0,1.69-.05-.42-.09-.8-.15-1.32-.28-2.65-.38-4-.21-2.76-.31-5.52-.32-8.28s.11-5.65.33-8.47c.11-1.39.25-2.78.41-4.17,0-.25.07-.5.1-.75v-.09q.15-1.1.33-2.19A104.81,104.81,0,0,1,46.45,85c.82-2.51,1.75-5,2.73-7.41a1.18,1.18,0,0,0,.07-.2c.1-.23.21-.46.31-.68.24-.55.49-1.11.74-1.66.56-1.22,1.14-2.42,1.75-3.61a104.88,104.88,0,0,1,8.23-13.64c.7-1,1.41-1.93,2.13-2.89l0,0,.67-.84c.45-.57.91-1.12,1.37-1.68q2.49-3,5.18-5.76t5.59-5.37c1-.88,2-1.75,3-2.59l1.4-1.14.85-.67,0,0a110.13,110.13,0,0,1,13.32-8.67q3.51-1.93,7.15-3.59l1.67-.74.44-.19.27-.11c1.25-.51,2.5-1,3.76-1.46a105.4,105.4,0,0,1,15.7-4.4c1.29-.26,2.58-.49,3.88-.7l2-.3c1-.15-.24,0-.34,0a6.3,6.3,0,0,1,1.51-.18q4.18-.48,8.39-.63a107.11,107.11,0,0,1,16.51.67l.69.05a1.37,1.37,0,0,0,.29.07l2,.31c1.36.22,2.72.47,4.07.74,2.67.55,5.33,1.19,7.95,1.94s5.18,1.58,7.72,2.52c1.14.42,2.28.87,3.41,1.33l.13,0c.25.08.51.23.75.33.72.32,1.45.64,2.16,1a105.59,105.59,0,0,1,13.64,7.59A44.15,44.15,0,0,1,204.2,37c-1.16-1.11.26.22.59.48q.77.61,1.53,1.26c1.06.88,2.11,1.78,3.14,2.71A107.25,107.25,0,0,1,220.3,52.74c.42.51.84,1,1.25,1.54.15.19.29.38.44.56l0,0c.79,1,1.58,2.11,2.34,3.18,1.53,2.17,3,4.4,4.35,6.67s2.65,4.62,3.84,7c.55,1.09,1.07,2.18,1.58,3.29.31.66.6,1.33.89,2a3.88,3.88,0,0,1,.29.67c-.31-1.47,0,0,.15.38a104.91,104.91,0,0,1,4.84,15.1c.64,2.67,1.18,5.37,1.61,8.08l.27,1.82v.09c0,.37.09.75.13,1.13.16,1.38.3,2.78.4,4.17A108.86,108.86,0,0,1,242.67,125.41Z" transform="translate(-30.4 -4.8)" style="fill:#1d1d1b"/><path d="M157.54,104.53" transform="translate(-30.4 -4.8)" style="fill:#1d1d1b"/><path d="M141.17,189.06a16.82,16.82,0,0,1-16.8-16.8v-58A7.8,7.8,0,0,1,125,98.67h34a7.8,7.8,0,0,1,7.79,7.8c0,3.9-4,7-8,7.63L158,172.28A16.82,16.82,0,0,1,141.17,189.06ZM125,101.45a5,5,0,0,0,0,10h2.2v60.77a14,14,0,0,0,28,0l.82-60.83h1.37c2.89,0,6.56-2.33,6.56-5a5,5,0,0,0-5-5Z" transform="translate(-30.4 -4.8)" style="fill:#1d1d1b"/><path d="M141.61,184.33h-1.06a12.81,12.81,0,0,1-12.82-12.81v-40.1H155l-.59,40.1A12.81,12.81,0,0,1,141.61,184.33Z" transform="translate(-30.4 -4.8)" style="fill:#a2cb82"/><path d="M148.53,87.69c-1.38-5.13-2.5-10.7-1.46-16,1.15-5.83,5.32-9.68,10.84-11.52a45.34,45.34,0,0,1,17.72-1.72c3.12.23,6.24.57,9.32,1a33.34,33.34,0,0,1,5.41,1.13c.62.2,3.65,1.73,1.25,1.92A12.11,12.11,0,0,0,183.82,66c-2,2.11-3.06,5-4.34,7.59a28.81,28.81,0,0,1-8.95,11c-6.47,4.6-14.54,5.12-22,3.12Z" transform="translate(-30.4 -4.8)" style="fill:#a2cb82;stroke:#1d1d1b;stroke-miterlimit:10;stroke-width:0.5px"/><path d="M149.37,87.46c-2-7.42-3.74-16.85,2.48-22.79,2.68-2.55,6.2-3.82,9.75-4.61a48.28,48.28,0,0,1,13.52-.77A83.87,83.87,0,0,1,188.43,61a10.51,10.51,0,0,1,2.13.66,5.71,5.71,0,0,1,.64.35c.26.17.67.69.47,0s-.49-.34-1-.26c-.39.05-.79.12-1.19.21a13.47,13.47,0,0,0-2.68.92c-3.43,1.56-5.36,4.53-6.9,7.84a36.49,36.49,0,0,1-6.25,10c-6.51,6.92-15.94,8.44-24.88,6.12a.87.87,0,0,0-.46,1.67c8.4,2.18,17.46,1.26,24.3-4.42a30.55,30.55,0,0,0,7.76-10.26c2-4.18,3.7-8.37,8.52-9.88a25.28,25.28,0,0,1,3.1-.59,1.6,1.6,0,0,0,1.33-.76c.48-1-.66-1.79-1.41-2.22a15.35,15.35,0,0,0-5.19-1.5c-2.37-.39-4.76-.71-7.14-1a64.44,64.44,0,0,0-15.14-.11c-4.13.55-8.43,1.62-11.88,4.07-8.57,6.1-7.2,17.06-4.81,26a.87.87,0,0,0,1.67-.46Z" transform="translate(-30.4 -4.8)" style="fill:#1d1d1b"/><path d="M137.2,83.19c.31-2,1.15-3.93,1.26-5.94a16.78,16.78,0,0,0-1.05-6.55c-3.46-9.14-18.16-9.25-26.1-7.37-6.49,1.53-9.57,1.53-10.51.82,4.38,3.29,9.39,5.85,13.15,9.91,3,3.26,3,8.32,6.35,11.24a9.45,9.45,0,0,0,5.63,2.12c2.28.17,4.73-.17,7.07-.21.65,0,3.17.49,3.58.12.75-.69.48-1.83.49-2.73A11.2,11.2,0,0,1,137.2,83.19Z" transform="translate(-30.4 -4.8)" style="fill:#a2cb82;stroke:#1d1d1b;stroke-miterlimit:10;stroke-width:0.5px"/><path d="M138,83.42c.45-2.56,1.41-4.94,1.29-7.58a16.57,16.57,0,0,0-1.53-6.42,12.82,12.82,0,0,0-6.69-6c-6-2.56-13.24-2.46-19.52-1.09a54.72,54.72,0,0,1-7.19,1.3c-.93.08-2.34.29-3.16-.27s-1.76.84-.88,1.49c3.13,2.33,6.53,4.28,9.59,6.69a19.5,19.5,0,0,1,4.11,4,22.8,22.8,0,0,1,2.19,4.63c1.21,3.06,2.74,5.92,5.94,7.24,3.64,1.49,7.33.41,11.09.63,1.1.07,2.65.62,3.68,0,1.5-.87.89-3.3,1.08-4.69.15-1.09-1.52-1.56-1.67-.46s-.05,1.93-.13,2.9c-.07.75-.12.68-.72.73a7,7,0,0,1-1.29-.12,37.48,37.48,0,0,0-5.8.11c-2.26.08-4.66,0-6.63-1.25a9.85,9.85,0,0,1-3.65-5,34.74,34.74,0,0,0-2.27-5.1,17.65,17.65,0,0,0-4-4.28c-3.35-2.78-7.16-4.94-10.65-7.53l-.88,1.49c1.74,1.2,4.76.49,6.64.19,3.43-.55,6.73-1.52,10.21-1.76,5.91-.41,13.63.09,17.78,4.94a11.78,11.78,0,0,1,2.44,5.88,12.83,12.83,0,0,1,0,4.37c-.28,1.5-.8,2.94-1.06,4.44C136.17,84.06,137.85,84.52,138,83.42Z" transform="translate(-30.4 -4.8)" style="fill:#1d1d1b"/><path d="M123.28,71.87a17.81,17.81,0,0,1,2.56,2.38c1.73,1.79,3.37,3.69,4.92,5.64a66.44,66.44,0,0,1,10.66,18.36,36.39,36.39,0,0,1,2.36,12.68.87.87,0,0,0,1.73,0c.06-7.82-2.77-15.37-6.59-22.09a79.89,79.89,0,0,0-11.34-15.28,17.29,17.29,0,0,0-3.43-3.19.87.87,0,0,0-.87,1.5Z" transform="translate(-30.4 -4.8)" style="fill:#1d1d1b"/><path d="M144.9,152.27c.14-1.44.07-2.93.1-4.37.06-3.28.1-6.55.15-9.83q.18-12.84.35-25.67a101.9,101.9,0,0,1,.28-10.63,52.78,52.78,0,0,1,3.28-13.16c2.69-6.88,7.14-13.13,13.72-16.74,1-.53.1-2-.88-1.5-10.61,5.82-15.85,17.91-17.59,29.4a56.68,56.68,0,0,0-.49,8q-.16,13.22-.35,26.44l-.18,12.44c0,1.84.06,3.75-.13,5.59-.11,1.11,1.63,1.1,1.74,0Z" transform="translate(-30.4 -4.8)" style="fill:#1d1d1b"/><g style="opacity:0.52"><circle cx="104.99" cy="143.23" r="3.55" style="fill:#b5d7b0"/></g><g style="opacity:0.52"><circle cx="115.71" cy="147.39" r="2.59" style="fill:#b5d7b0"/></g><g style="opacity:0.52"><circle cx="110.74" cy="154.92" r="2.94" style="fill:#b5d7b0"/></g><g style="opacity:0.52"><circle cx="106.15" cy="165.78" r="4.71" style="fill:#b5d7b0"/></g><g style="opacity:0.52"><circle cx="118.3" cy="162.38" r="2.1" style="fill:#b5d7b0"/></g><path d="M80.86,57.93l-.33-.35c.57-.73.56-.92,0-1.28s-1.35-.76-2.23-1.24L76,57.2c.33.72.63,1.32.94,1.93.46.95.67,1,1.57.36l.33.34L76.44,62l-.32-.34c.58-.77.65-1,0-2.43l-3.63-8.4.28-.46c2.68,1.51,5.37,3,8.06,4.48,1.33.75,1.61.74,2.38.18l.32.35Zm-7-5.41,0,0c.59,1.32,1.22,2.67,1.81,4l2-1.83Z" transform="translate(-30.4 -4.8)" style="fill:#1d1d1b"/><path d="M84.65,45.74a2.32,2.32,0,0,1,0,1.08l-.68.46a2.55,2.55,0,0,1,1.21.9,2.52,2.52,0,0,1-.46,3.67,4.24,4.24,0,0,1-.65.4.93.93,0,0,0,.08.72c.2.25.61.35,1.12,0s.78-.64,1.18-.94a1.86,1.86,0,0,1,2.88.27,3.66,3.66,0,0,1-.89,4.88,2.31,2.31,0,0,1-3.26-.05,1.3,1.3,0,0,1-.27-1c0-.47.18-1.13.26-1.59a1.87,1.87,0,0,1-1.41,0,1.19,1.19,0,0,1-.58-.48,3.11,3.11,0,0,0,.41-1.57,2.41,2.41,0,0,1-2.36-1,2.64,2.64,0,0,1,.42-3.79h0A2.82,2.82,0,0,1,83,47.1c.56-.49,1.09-1,1.47-1.42Zm-2.79,2.4c-.46.35-.51,1.22.28,2.25s1.75,1.42,2.37.94.53-1.23-.27-2.26-1.73-1.44-2.37-.94Zm4.56,5.48c-.53.41-.73.69-.79,1A1.85,1.85,0,0,0,85.89,56a1.76,1.76,0,0,0,2.51.09,1.8,1.8,0,0,0,.5-2.66,1.18,1.18,0,0,0-1.25-.51,3.5,3.5,0,0,0-1.22.69Z" transform="translate(-30.4 -4.8)" style="fill:#1d1d1b"/><path d="M88,45.24c-.11-1-.1-2.08.46-2.45a.86.86,0,0,1,1.2.21,1,1,0,0,1,.08,1,.33.33,0,0,1-.35.18.79.79,0,0,0-.72.07c-.31.21-.4.85-.17,1.76l1.64,2.45c.61.9.72.95,1.72.4l.24.37-2.88,1.93L89,50.82c.68-.57.73-.72.12-1.63l-1.9-2.84c-.59-.87-.69-.89-1.44-.55l-.21-.31A8.07,8.07,0,0,0,87,43.73l1,1.53Z" transform="translate(-30.4 -4.8)" style="fill:#1d1d1b"/><path d="M89.41,39.52a.87.87,0,0,1,.2-1.21.85.85,0,0,1,1.14.4.86.86,0,0,1-.21,1.17A.87.87,0,0,1,89.41,39.52Zm4.35,8.7-.23-.38c.72-.56.76-.7.17-1.69L92,43.3c-.54-.89-.62-.93-1.45-.63l-.2-.34a9.84,9.84,0,0,0,1.53-1.66l2.91,4.83c.59,1,.72,1,1.58.63l.23.38Z" transform="translate(-30.4 -4.8)" style="fill:#1d1d1b"/><path d="M101.21,42.26A3.51,3.51,0,0,1,99.82,45a3.18,3.18,0,0,1-4.26-1.63,4.08,4.08,0,0,1-.22-3.53,3.74,3.74,0,0,1,1.53-1.88h0a1.89,1.89,0,0,1,1.36-.23.63.63,0,0,1,.45.34.82.82,0,0,1-.09.91c-.08,0-.16,0-.35,0a2,2,0,0,0-1.64.08c-.79.42-1.12,1.54-.29,3.09,1.07,2,2.68,2,3.36,1.6a2.16,2.16,0,0,0,1.12-1.61Z" transform="translate(-30.4 -4.8)" style="fill:#1d1d1b"/><path d="M108.77,40a9.68,9.68,0,0,0-.94.71l-.86.75-.13,0-.48-1.07c-.19.39-.33.77-.58,1.19a2.12,2.12,0,0,1-.88.86c-.93.42-2,.12-2.7-1.5l-1.3-2.87c-.37-.82-.51-.84-.89-.78l-.4.05L99.44,37c.27-.13.6-.34,1-.55s.7-.47.92-.62c.17.48.5,1.2,1,2.2l.92,2c.57,1.25,1.29,1.4,1.88,1.13a2,2,0,0,0,1.06-1.29l-1.57-3.46c-.37-.83-.53-.87-1-.76l-.52.13-.16-.37a10.31,10.31,0,0,0,1.19-.68,9.38,9.38,0,0,0,.86-.56l2.24,5c.35.78.51.84,1,.64l.37-.14Z" transform="translate(-30.4 -4.8)" style="fill:#1d1d1b"/><path d="M109.27,40.32l-.16-.41c.81-.45.89-.58.49-1.61l-2.82-7.23c-.4-1-.51-1-1.38-.81l-.15-.38a12,12,0,0,0,1.89-1.35l3.63,9.32c.4,1,.56,1.09,1.48.84l.16.41Z" transform="translate(-30.4 -4.8)" style="fill:#1d1d1b"/><path d="M115.51,38a1.23,1.23,0,0,1-.5.41c-.92.32-1.63-.1-2.07-1.36l-1.56-4.48-.94.32-.13-.16.22-.6.62-.22-.4-1.13.63-1.43.2,0,.76,2.18,1.53-.53a.54.54,0,0,1,.14.68l-1.44.5,1.37,3.94c.44,1.26,1,1.31,1.33,1.19a1.78,1.78,0,0,0,.73-.56l.27.39Z" transform="translate(-30.4 -4.8)" style="fill:#1d1d1b"/><path d="M123.48,35.18a9,9,0,0,0-1,.57l-1,.62-.12-.06-.33-1.13a9.77,9.77,0,0,1-.75,1.1,2.08,2.08,0,0,1-1,.73c-1,.28-2-.16-2.45-1.87l-.88-3c-.25-.87-.39-.92-.77-.91h-.41l-.11-.38c.28-.09.64-.26,1-.41s.77-.37,1-.48c.1.5.32,1.26.63,2.31l.62,2.14c.38,1.32,1.08,1.56,1.7,1.38a2,2,0,0,0,1.23-1.12L119.83,31c-.25-.87-.4-.93-.87-.88l-.53,0-.11-.38a11,11,0,0,0,1.28-.51,8.54,8.54,0,0,0,.92-.43L122,34.06c.24.82.38.9.94.79l.38-.09Z" transform="translate(-30.4 -4.8)" style="fill:#1d1d1b"/><path d="M125.05,29.49c.27-1,.65-2,1.31-2.13a.87.87,0,0,1,1,.62,1,1,0,0,1-.3,1,.31.31,0,0,1-.39,0,.8.8,0,0,0-.69-.18c-.37.08-.69.65-.8,1.58l.67,2.88c.24,1.06.33,1.14,1.46,1l.09.43-3.38.79-.1-.43c.84-.3.94-.43.7-1.49l-.77-3.34c-.24-1-.33-1.07-1.15-1l-.08-.36a8.68,8.68,0,0,0,1.94-1.15l.42,1.8Z" transform="translate(-30.4 -4.8)" style="fill:#1d1d1b"/><path d="M133.93,33.67a1.06,1.06,0,0,1-.79-.19,1.58,1.58,0,0,1-.47-.63c-.5.52-1.07,1.23-1.48,1.3a1.92,1.92,0,0,1-2.13-1.69,1.58,1.58,0,0,1,.89-1.79,8.81,8.81,0,0,0,2-1.45l-.05-.29c-.2-1.17-.78-1.71-1.46-1.59a.79.79,0,0,0-.56.4,3,3,0,0,0-.24,1.18.46.46,0,0,1-.39.48.77.77,0,0,1-.78-.61,1,1,0,0,1,.34-.75,6.4,6.4,0,0,1,2-1.53,1.8,1.8,0,0,1,1.27.2,2.73,2.73,0,0,1,1,1.94l.52,2.92c.12.73.42.93.68.88a1.06,1.06,0,0,0,.48-.27l.22.41Zm-1.85-3.88-1.06.84a1.26,1.26,0,0,0-.65,1.35c.15.86.78,1.14,1.2,1.06a1.61,1.61,0,0,0,1-.72Z" transform="translate(-30.4 -4.8)" style="fill:#1d1d1b"/><path d="M135.35,33.26l0-.44c.88-.24,1-.35.85-1.45l-1-7.69c-.14-1.1-.25-1.12-1.15-1.11l-.06-.4a11.51,11.51,0,0,0,2.16-.87l1.33,9.91c.15,1.1.29,1.19,1.24,1.16l.06.44Z" transform="translate(-30.4 -4.8)" style="fill:#1d1d1b"/><path d="M153.32,31.55a3.48,3.48,0,0,1-2.62,1.54c-1.89-.14-2.85-1.91-2.73-3.66a4.19,4.19,0,0,1,1.71-3.1,3.72,3.72,0,0,1,2.31-.77h0a1.86,1.86,0,0,1,1.27.54.62.62,0,0,1,.2.52c0,.38-.38.73-.57.72s-.15-.06-.27-.21a2,2,0,0,0-1.42-.82c-.9-.07-1.78.71-1.91,2.46-.17,2.26,1.2,3.1,2,3.16a2.24,2.24,0,0,0,1.81-.77Z" transform="translate(-30.4 -4.8)" style="fill:#1d1d1b"/><path d="M159.17,32.48a3.33,3.33,0,0,1-2.68,1.28c-1.77-.27-2.57-2.07-2.3-3.89a4.55,4.55,0,0,1,1.34-2.66,2.91,2.91,0,0,1,2.35-.92h0a2.45,2.45,0,0,1,1.83,2.84c0,.32-.14.45-.41.48s-2.1-.1-3.77-.28c-.29,2.12.66,3.17,1.65,3.32a2.28,2.28,0,0,0,1.79-.57Zm-1.72-5.63c-.62-.09-1.33.45-1.74,1.78.77.12,1.53.23,2.34.32.25,0,.35-.05.39-.26.12-.86-.22-1.73-1-1.84Z" transform="translate(-30.4 -4.8)" style="fill:#1d1d1b"/><path d="M163,29.09c.67-.77,1.44-1.5,2.1-1.35a.87.87,0,0,1,.67,1,1,1,0,0,1-.69.76.33.33,0,0,1-.37-.13c-.17-.28-.31-.42-.54-.47s-.9.29-1.4,1.08l-.65,2.88c-.24,1-.2,1.17.89,1.52l-.1.43-3.38-.77.09-.43c.88.1,1,0,1.27-1l.75-3.34c.23-1,.17-1.11-.59-1.42l.08-.36a8.78,8.78,0,0,0,2.25-.19l-.41,1.8Z" transform="translate(-30.4 -4.8)" style="fill:#1d1d1b"/><path d="M167.71,36.12a1.43,1.43,0,0,1-.66,0c-.93-.28-1.26-1-.88-2.32l1.36-4.55-.95-.28v-.2l.52-.37.63.19.34-1.15,1.35-.8.18.1L168.93,29l1.56.46a.55.55,0,0,1-.29.64l-1.47-.44-1.19,4c-.38,1.28,0,1.64.38,1.74a1.8,1.8,0,0,0,.93,0v.47Z" transform="translate(-30.4 -4.8)" style="fill:#1d1d1b"/><path d="M169.05,36.58l.15-.41c.89.21,1,.15,1.41-.93l1.13-3.13c.35-1,.33-1.07-.42-1.52l.14-.37a10.27,10.27,0,0,0,2.25.14l-1.91,5.3c-.39,1.08-.33,1.19.51,1.63l-.15.41Zm4-8.86a.87.87,0,0,1,1.07-.6.92.92,0,0,1-.63,1.7A.87.87,0,0,1,173.05,27.72Z" transform="translate(-30.4 -4.8)" style="fill:#1d1d1b"/><path d="M176.29,39.47l.18-.4c.75.23.89.18,1.3-.75l1.62-3.59c.33-.72.35-.86-.32-1.16l-1.74-.78-2,4.43c-.42.92-.34,1.07.43,1.53l-.19.4-3-1.36.18-.4c.87.26,1,.23,1.44-.69l2-4.43-1-.43,0-.21.58-.28.65.29.17-.37a4.48,4.48,0,0,1,.74-1.15,4.31,4.31,0,0,1,1.86-1.22,3.48,3.48,0,0,1,2.06-.06,2,2,0,0,1,1.12,1.38.78.78,0,0,1-.7.87c-.23.06-.35,0-.39-.19a2,2,0,0,0-1-1.6,1,1,0,0,0-1.08.21,5.56,5.56,0,0,0-1.42,2.11l-.25.54,1.1.49a12,12,0,0,0,2.59.94l-2.37,5.25c-.41.93-.39,1,.42,1.53l-.18.4Z" transform="translate(-30.4 -4.8)" style="fill:#1d1d1b"/><path d="M185.08,42.41a3.48,3.48,0,0,1-3,.26,3.18,3.18,0,0,1-.9-4.48A4.12,4.12,0,0,1,184,36.13a3.71,3.71,0,0,1,2.41.3h0a1.86,1.86,0,0,1,.92,1,.6.6,0,0,1,0,.55c-.19.34-.65.5-.81.41s-.12-.12-.16-.31a2,2,0,0,0-.94-1.35c-.78-.44-1.91-.12-2.77,1.4-1.13,2-.25,3.32.43,3.7a2.21,2.21,0,0,0,2,.09Z" transform="translate(-30.4 -4.8)" style="fill:#1d1d1b"/><path d="M188.43,46.76a1.05,1.05,0,0,1-.43-.69,1.54,1.54,0,0,1,.1-.77,4.59,4.59,0,0,1-2-.11,1.91,1.91,0,0,1-.33-2.69,1.59,1.59,0,0,1,1.89-.67,8.61,8.61,0,0,0,2.46.39l.16-.24c.67-1,.64-1.77.07-2.16a.77.77,0,0,0-.67-.11,2.87,2.87,0,0,0-1,.68.47.47,0,0,1-.62.07.78.78,0,0,1-.13-1c.14-.21.41-.27.77-.3a6.36,6.36,0,0,1,2.49.3,1.73,1.73,0,0,1,.76,1,2.7,2.7,0,0,1-.6,2.11l-1.68,2.46c-.41.6-.34,1-.13,1.1a1,1,0,0,0,.53.14l-.13.45Zm1.39-4.06-1.34-.14a1.26,1.26,0,0,0-1.41.51,1.12,1.12,0,0,0,.11,1.6,1.66,1.66,0,0,0,1.19.15Z" transform="translate(-30.4 -4.8)" style="fill:#1d1d1b"/><path d="M192,49.21a1.34,1.34,0,0,1-.62-.2c-.76-.6-.79-1.43,0-2.48l2.94-3.73-.78-.61.06-.19.63-.15.51.41.74-.94,1.56-.25.12.16L195.73,43,197,44a.54.54,0,0,1-.51.48l-1.19-.94-2.59,3.28c-.82,1-.57,1.53-.29,1.75a1.92,1.92,0,0,0,.87.33l-.18.43Z" transform="translate(-30.4 -4.8)" style="fill:#1d1d1b"/><path d="M197.9,52.51A3.29,3.29,0,0,1,195,52.1c-1.33-1.2-1-3.14.23-4.51a4.51,4.51,0,0,1,2.59-1.48,2.92,2.92,0,0,1,2.47.53h0a2.48,2.48,0,0,1,0,3.39c-.22.23-.37.29-.61.16s-1.7-1.23-3-2.31c-1.41,1.61-1.21,3-.46,3.68a2.28,2.28,0,0,0,1.8.52Zm1.68-5.64c-.46-.42-1.36-.36-2.44.53.58.51,1.15,1,1.78,1.55.2.16.32.16.47,0a1.48,1.48,0,0,0,.2-2.07Z" transform="translate(-30.4 -4.8)" style="fill:#1d1d1b"/><path d="M216,70.88A86.5,86.5,0,0,0,202,53.35l-3.08,2.78a83.18,83.18,0,0,1,6.79,7.25,82,82,0,0,1,6.79,94.6A82,82,0,0,1,61.37,128.07,82.42,82.42,0,0,1,75.57,68c.62-.87,1.26-1.74,1.92-2.59l-2.72-3.17a85.92,85.92,0,0,0-17.44,39.94,91.39,91.39,0,0,0-1,13.32A86.09,86.09,0,1,0,216,70.88Z" transform="translate(-30.4 -4.8)" style="fill:#a2cb81"/></svg>