<svg id="كيس" xmlns="http://www.w3.org/2000/svg" width="41.161" height="45.673" viewBox="0 0 41.161 45.673">
  <path id="Path_2778" data-name="Path 2778" d="M976.17,729.624a.664.664,0,0,1,.076-.024h0C976.119,729.635,976.127,729.635,976.17,729.624Z" transform="translate(-945.586 -720.593)" fill="#fff"/>
  <path id="Path_2779" data-name="Path 2779" d="M830.933,733.832h0l-.013.013.064-.045A.228.228,0,0,0,830.933,733.832Z" transform="translate(-823.73 -724.117)" fill="#fff"/>
  <path id="Path_2780" data-name="Path 2780" d="M829.282,735.48v.011a.394.394,0,0,1-.018.043C829.244,735.58,829.264,735.577,829.282,735.48Z" transform="translate(-822.333 -725.526)" fill="#fff"/>
  <path id="Path_2781" data-name="Path 2781" d="M829.45,735.28a.014.014,0,0,1,0,.013h0A.014.014,0,0,0,829.45,735.28Z" transform="translate(-822.496 -725.359)" fill="#fff"/>
  <path id="Path_2782" data-name="Path 2782" d="M995,717.648v0Z" transform="translate(-961.41 -710.557)" fill="#fff"/>
  <path id="Path_2783" data-name="Path 2783" d="M1015.494,735.994a.108.108,0,0,1,.013-.064h0C1015.464,736.065,1015.476,736.046,1015.494,735.994Z" transform="translate(-978.593 -725.904)" fill="#fff"/>
  <path id="Path_2784" data-name="Path 2784" d="M994.69,719.261h0l.039-.061A.529.529,0,0,0,994.69,719.261Z" transform="translate(-961.15 -711.866)" fill="#fff"/>
  <path id="Path_2785" data-name="Path 2785" d="M994.95,719.109a.058.058,0,0,0-.01.032C994.967,719.118,994.967,719.1,994.95,719.109Z" transform="translate(-961.36 -711.787)" fill="#fff"/>
  <path id="Path_2786" data-name="Path 2786" d="M842.676,732.3l.034.027a.071.071,0,0,0-.013-.016.287.287,0,0,0-.047-.035Z" transform="translate(-833.573 -722.841)" fill="#fff"/>
  <path id="Path_2787" data-name="Path 2787" d="M995.19,718.81Z" transform="translate(-961.57 -711.539)" fill="#fff"/>
  <path id="Path_2788" data-name="Path 2788" d="M1008,749.157a.524.524,0,0,0,.047-.027h0A.25.25,0,0,1,1008,749.157Z" transform="translate(-972.319 -736.98)" fill="#fff"/>
  <path id="Path_2789" data-name="Path 2789" d="M994.933,718.878a.249.249,0,0,1,.029-.048.492.492,0,0,1-.042.06Z" transform="translate(-961.343 -711.555)" fill="#fff"/>
  <path id="Path_2790" data-name="Path 2790" d="M802.023,942.426l.05.021a.035.035,0,0,0,.018,0h0l-.111-.047A.072.072,0,0,0,802.023,942.426Z" transform="translate(-799.446 -899.154)" fill="#fff"/>
  <path id="Path_2791" data-name="Path 2791" d="M794.889,932.016c.039-.052.051-.1-.039.043h0A.363.363,0,0,0,794.889,932.016Z" transform="translate(-793.463 -890.397)" fill="#fff"/>
  <path id="Path_2792" data-name="Path 2792" d="M827.355,715.069a14.32,14.32,0,0,0-1.752-5.1c.114-.338.217-.682.322-1.025a31.767,31.767,0,0,0,.8-3.594,35.261,35.261,0,0,0,.5-5.409,31.212,31.212,0,0,0-.589-6.489,27.674,27.674,0,0,0-2.367-6.938c-.052-.1-.1-.2-.161-.3a4.353,4.353,0,0,0,.349-.55,6.142,6.142,0,0,0-.225-5.866,4.924,4.924,0,0,0-2.547-2.068,4.16,4.16,0,0,0-1.553-.248c-.269.008-.537.048-.8.056h-.2a.87.87,0,0,0-.09,0,2.133,2.133,0,0,1-.354-.1l-.09-.032a.87.87,0,0,1-.093-.04c-.116-.051-.227-.1-.333-.161-.238-.119-.473-.248-.708-.372-.46-.243-.922-.494-1.382-.742a32.887,32.887,0,0,0-2.96-1.448,12.218,12.218,0,0,0-3.284-.991,8.642,8.642,0,0,0-3.131.288,19.575,19.575,0,0,0-2.981,1.081,19.976,19.976,0,0,0-2.751,1.477,43.218,43.218,0,0,0-3.775,2.832c-.452.364-.9.73-1.343,1.11a6.714,6.714,0,0,0-2,.6,6.849,6.849,0,0,0-1.919,1.126,2.3,2.3,0,0,0-.525,2.619,4.932,4.932,0,0,0,2.269,2.328c.051.027.1.056.15.079a25.973,25.973,0,0,1,.848,3.034c.116.52.214,1.039.294,1.562v.024L795,692c.018.135.034.275.047.41.031.275.051.552.069.827a11.691,11.691,0,0,1-.018,1.628c-.013.132-.026.264-.043.393v.011c-.008.06-.016.116-.029.175a7.374,7.374,0,0,1-.175.735c-.034.116-.072.232-.114.348-.023.052-.043.108-.064.161a.219.219,0,0,0-.013.027,6.5,6.5,0,0,1-.338.592q-.439.664-.874,1.329c-.661,1.018-1.3,2.051-1.873,3.113A23.048,23.048,0,0,0,788.823,710a17.393,17.393,0,0,0-.114,2.3c0,.2.013.4.021.59,0,.1.013.188.016.28,0,.048.01.1.01.14v.043a.637.637,0,0,0-.024.076c-.026.064-.056.132-.085.2.132-.312.016-.04-.035.068-.1.212-.217.423-.336.627a8.2,8.2,0,0,1-.471.716l-.127.171a.15.15,0,0,0-.023.029.148.148,0,0,0-.016.024c0,.008,0,.011-.018.014a.152.152,0,0,1-.013.021l.01-.013c-.1.113-.2.22-.3.322s-.23.22-.354.322c-.047.037-.088.072-.137.108a1,1,0,0,1-.106.069.882.882,0,0,0-.346,1.229,3.548,3.548,0,0,0,1.3,1.026,7.59,7.59,0,0,0,3.929.634,16.014,16.014,0,0,0,3.48-.69c.521.072,1.041.14,1.565.2,1.438.177,2.875.322,4.322.444q2.93.246,5.873.322a63.912,63.912,0,0,0,6.4-.135,32.023,32.023,0,0,0,6.035-.956l.375-.108a21.719,21.719,0,0,0,2.253.536,13.392,13.392,0,0,0,2.206.256,4.117,4.117,0,0,0,1.984-.372,2.122,2.122,0,0,0,.861-.9A4.468,4.468,0,0,0,827.355,715.069ZM819.86,680.88ZM819.886,680.843Zm-22.419.66c.78-.668,1.586-1.315,2.394-1.956.192-.151.383-.3.579-.452.1-.071.2-.146.294-.219.039-.027.077-.06.119-.089-.187.129.039-.024.072-.052.4-.283.8-.558,1.224-.819a20.407,20.407,0,0,1,2.594-1.364c.2-.084.393-.169.594-.253l.145-.06h.016c.124-.048.243-.092.367-.135.465-.161.94-.322,1.416-.439.209-.052.423-.1.644-.14.121-.024.235-.043.354-.06.013,0,.2-.021.124-.016a1,1,0,0,0,.116-.013c.209-.015.418-.027.631-.023.116,0,.23,0,.346.011a1.2,1.2,0,0,1,.171.016h.047a11.122,11.122,0,0,1,1.395.367c.214.072.426.148.644.228a1.046,1.046,0,0,1,.106.039l-.05-.019c.047.016.093.04.14.056.142.056.282.116.423.179.941.412,1.85.883,2.751,1.366a27.239,27.239,0,0,0,2.627,1.361c.114.048.23.089.344.129a1.092,1.092,0,0,0,.2.151c.132.076.261.161.389.243a1.846,1.846,0,0,0,.161.108,1.207,1.207,0,0,1,.111.088c.14.111.277.227.405.351.064.061.127.124.187.188.022.024.043.048.064.068.082.116.145.24.227.356-.082-.124-.039-.116-.013-.051a.175.175,0,0,0,.021.059.057.057,0,0,0,.021.027.2.2,0,0,0-.021-.027.3.3,0,0,1,.021.064l.013.043v.04a.082.082,0,0,0,0,.027h0a.056.056,0,0,1-.01.04c-.008.035-.026.051-.029.043l-.013.013L819.8,681a.36.36,0,0,0-.018.035l.013-.032c-.039.035-.077.076-.119.113-.068.055-.137.111-.209.161-.018.011-.031.024-.047.035l-.039.029h-.013c-.179.122-.362.238-.555.351a12.691,12.691,0,0,1-1.16.6c-.191.087-.388.171-.584.251l-.15.06h0l-.072.024c-.09.032-.175.072-.261.1-.414.161-.832.3-1.25.434a39.566,39.566,0,0,1-5.506,1.426c-.491.084-.986.175-1.48.227.05,0,.179-.023.016,0l-.187.024-.341.035c-.278.029-.555.056-.832.076a27.989,27.989,0,0,1-3.03.084c-.5-.011-1-.039-1.5-.079-.235-.021-.47-.043-.7-.068a.386.386,0,0,1-.137-.016h-.013c-.145-.021-.294-.04-.439-.064a19.381,19.381,0,0,1-2.927-.658c-.256-.08-.507-.161-.759-.256-.114-.04-.225-.084-.336-.124l-.188-.072-.026-.011a.246.246,0,0,0-.042-.016c-.388-.161-.785-.3-1.186-.428h0c.161.048.089.024,0,0,.031-.048.064-.092.1-.14l.01-.013c.034-.039.068-.076.1-.116.089-.1.179-.195.272-.291a16.952,16.952,0,0,1,1.27-1.181Zm21.98-.212c0,.013-.05.04-.08.056A.6.6,0,0,0,819.447,681.29Zm-24.091,1.8.026.024h-.013a.112.112,0,0,1-.026-.016c-.042-.024-.055-.048-.034-.035C795.271,683.01,795.258,682.952,795.356,683.088Zm.734-.854c.064,0,.077.008-.111.008a.024.024,0,0,0,.018,0Zm-.563,1.274a.1.1,0,0,1-.008.031v.016h0C795.514,683.53,795.526,683.519,795.526,683.508Zm-.013.047.01-.011c-.01.027-.018.06-.031.095a.453.453,0,0,1,.016-.084Zm-2.3.66s.021.043.034.079c-.031-.043-.048-.076-.039-.079Zm.148.264c-.013-.021-.072-.113-.111-.18l-.013-.032-.05-.135a.967.967,0,0,0-.061-.245v-.119c.01-.04.013-.1.023-.121s0-.008,0-.011a.4.4,0,0,1,.018-.043l.013-.037c-.021.029-.039.048-.039.04a.3.3,0,0,1,.06-.072l-.021.032v.024a.421.421,0,0,1,.047-.068l.064-.052c.043-.037.085-.068.129-.1l-.069.048c.031-.019.056-.04.085-.056,0,0,.01,0,.01-.008.034-.027.088-.06.042-.027.047-.032.1-.064.145-.092a1.194,1.194,0,0,0,.161.922,2.743,2.743,0,0,0,1.31.843c.183.071.367.132.555.195.085.029.171.056.256.089.039.011.076.027.114.04.01,0,.013,0,.018.008h0c.573.228,1.152.444,1.741.628a19.512,19.512,0,0,0,3.067.666,31.5,31.5,0,0,0,12.989-1.062,29.573,29.573,0,0,0,5.379-1.973,9.485,9.485,0,0,0,1.139-.679,3.733,3.733,0,0,0,1.147-1.065,2.071,2.071,0,0,0-.2-2.277,2.274,2.274,0,0,1,.422.232.189.189,0,0,0,.043.048c.05.04.1.08.148.124.072.064.145.127.214.2a1.017,1.017,0,0,1,.2.211h0a.268.268,0,0,0,.026.039c.043.056.08.113.119.169a2.387,2.387,0,0,1,.333.582c-.013-.04-.068-.161-.013-.019l.064.161c.042.116.085.237.119.352.064.216.111.439.161.658a.1.1,0,0,0,.008.032v.1c.013.114.021.23.026.346a6.227,6.227,0,0,1,0,.624,2.161,2.161,0,0,1-.024.267v0h0a.267.267,0,0,1-.013.056,1.028,1.028,0,0,1-.018.1,4.124,4.124,0,0,1-.161.6c-.029.087-.064.161-.1.256l-.076.151a3,3,0,0,1-.161.267c-.037.06-.119.228-.179.251,0,0,.15-.161.031-.035a1.522,1.522,0,0,1-.108.116c-.085.088-.171.161-.264.248-.042.035-.085.072-.132.108h0c-.09.068-.077.048-.047.027a2.628,2.628,0,0,0-.235.161,6.512,6.512,0,0,1-.615.322,1.321,1.321,0,0,0-.322.135h0c-.055.021-.111.04-.161.061l-.679.232c-.483.161-.965.3-1.448.439q-1.448.405-2.94.693c-.494.1-.993.18-1.493.256-.251.037-.5.072-.75.1a.029.029,0,0,0-.018,0c-.06.008-.119.016-.179.021l-.413.047c-1.007.108-2.014.177-3.03.2s-2.026.013-3.031-.043c-.5-.027-1.012-.064-1.516-.111-.238-.024-.483-.048-.716-.076-.106-.013-.217-.021-.322-.037H804l-.264-.035a36.054,36.054,0,0,1-5.9-1.318c-.483-.151-.956-.312-1.429-.483-.114-.04-.23-.084-.341-.127-.047-.016-.09-.037-.137-.052a.048.048,0,0,0-.026-.008c-.22-.092-.442-.185-.664-.288a1.011,1.011,0,0,0-.521-.264l-.111-.06c-.093-.052-.187-.108-.277-.161l-.179-.116c-.021-.011-.039-.027-.06-.04-.085-.059-.077-.055.021.016a1.7,1.7,0,0,1-.465-.4c-.039-.035-.072-.076-.106-.111-.116-.121.016.032.029.04a2.425,2.425,0,0,1-.212-.346Zm-4.56,28.781a.144.144,0,0,0-.021.04C788.787,713.276,788.8,713.259,788.8,713.259ZM825.044,717Zm.076-.047a.1.1,0,0,1,.023-.013h0Zm.056-.032h0a.389.389,0,0,1,.064-.04.4.4,0,0,0-.064.037Zm.272-.822v.052a1.972,1.972,0,0,1-.056.243c-.029.108-.068.216-.106.322v.011c-.026.043-.05.092-.076.137a.364.364,0,0,0-.035.052.675.675,0,0,1-.06.048c-.1.027-.2.06-.3.08h-.052a.324.324,0,0,0,.064,0,1.622,1.622,0,0,0-.2.021c-.153.011-.311.011-.465.011a8.525,8.525,0,0,1-.93-.064h.039a.152.152,0,0,1-.06-.008h0l-.089-.013-.175-.023c-.179-.029-.359-.061-.537-.093-.845-.161-1.656-.4-2.483-.607a2.908,2.908,0,0,0-1.323.237q-.492.13-1,.24c-.721.161-1.448.278-2.185.378-.08.013-.161.021-.243.032l-.089.013c-.2.023-.4.043-.594.068-.393.04-.785.076-1.181.108-.793.06-1.591.1-2.385.127-1.6.052-3.2.04-4.79-.011-2.709-.089-5.414-.291-8.109-.587-.452-.048-.9-.1-1.348-.161l-.23-.027-.106-.013-.436-.055c-.183-.024-.367-.048-.55-.077a.661.661,0,0,1-.093-.015,1.578,1.578,0,0,0-.747.071c-.269.084-.542.161-.814.232-.483.121-.951.224-1.434.3-.1.016-.2.024-.294.04a.371.371,0,0,0-.132.016c-.2.019-.4.032-.6.04a9.729,9.729,0,0,1-1.015-.016,2,2,0,0,1-.217-.021h0c-.137-.019-.274-.044-.41-.071a5.446,5.446,0,0,1-.708-.2c.018.008.039.016.06.027a.47.47,0,0,0-.08-.032c-.064-.024-.161-.063-.093-.04l-.064-.027a8.135,8.135,0,0,0,1.522-2.132,7.53,7.53,0,0,0,.428-.954,3.206,3.206,0,0,0-.01-1.03c-.016-.393-.021-.784,0-1.175s.034-.787.072-1.178c.018-.188.039-.375.064-.558,0-.064.026-.331.013-.088a1.991,1.991,0,0,1,.047-.291,18.285,18.285,0,0,1,.483-2.153c.2-.682.431-1.356.7-2.019.064-.161.127-.322.2-.483.029-.071.064-.146.093-.219a.789.789,0,0,0,.047-.113.568.568,0,0,0,.026-.079c.047-.121.119-.245.175-.356.077-.161.161-.322.23-.475a37.139,37.139,0,0,1,1.886-3.306c.3-.483.61-.951.92-1.421a9.679,9.679,0,0,0,.777-1.287c0-.011.013-.027.018-.04a7.757,7.757,0,0,1,4.159-3.562c.093-.032.161-.059.217-.084l-.093-.18c-.043.019-.111.043-.2.076a7.614,7.614,0,0,0-3.792,2.948,12.9,12.9,0,0,0,.008-6.053c-.148-.819-.336-1.638-.566-2.449.183.064.37.129.553.188q1.5.5,3.046.87a38.771,38.771,0,0,0,6.539.965,38.316,38.316,0,0,0,12.852-1.369,15.147,15.147,0,0,0,3.524-1.331c.093.193.188.385.277.579.023.045.043.092.064.137-.08-.2.013.027.026.055.052.113.1.228.145.339.106.248.2.5.3.747a26.508,26.508,0,0,1,.93,2.864,28.5,28.5,0,0,1,.589,2.806c.018.108.039.216.051.322-.031-.264,0,.08.021.148.034.243.06.491.09.735.047.446.085.9.114,1.348a32.409,32.409,0,0,1-.072,4.9c-.029.359-.068.718-.111,1.078l-.063.515c-.01.076-.06.394-.01.071-.013.092-.026.188-.042.28-.093.6-.2,1.207-.322,1.8-.183.883-.4,1.757-.664,2.624-.072.24-.15.475-.23.714a1.255,1.255,0,0,0-.121.483,2.638,2.638,0,0,0,.428,1.009c.122.24.243.483.354.724.021.043.183.383.072.161.047.095.089.2.132.3.089.208.171.415.251.628a10.743,10.743,0,0,1,.571,2.032v.031c0,.053.013.1.018.153.013.127.021.256.026.383-.008.2-.011.409-.029.621Z" transform="translate(-786.232 -673.617)" fill="#fff"/>
  <path id="Path_2793" data-name="Path 2793" d="M1024.963,943.56C1024.745,943.568,1024.865,943.571,1024.963,943.56Z" transform="translate(-986.449 -900.127)" fill="#fff"/>
  <path id="Path_2794" data-name="Path 2794" d="M1015.213,943.2a.283.283,0,0,0,.064,0h.034a.071.071,0,0,1,.026,0C1015.166,943.19,1015.171,943.19,1015.213,943.2Z" transform="translate(-978.35 -899.819)" fill="#fff"/>
</svg>
