<svg xmlns="http://www.w3.org/2000/svg" width="39.58" height="48.792" viewBox="0 0 39.58 48.792">
  <g id="Group_30992" data-name="Group 30992" transform="translate(-58.071 -9.191)">
    <path id="Path_9821" data-name="Path 9821" d="M97.586,50.625V18.339c0-1.437,0-2.873,0-4.31a7.316,7.316,0,0,0-.328-2.686c-.911-2.354-3.408-2.152-5.5-2.145q-4.559.014-9.118,0c-3.052-.01-6.1-.016-9.157.029-1.394.02-2.962,0-3.981.81l-.037.029-.039.034a10.568,10.568,0,0,0-1.037,1.211L66.9,13.023,60.8,20c-.5.575-1.027,1.138-1.509,1.729a2.986,2.986,0,0,0-.186.249,3.286,3.286,0,0,0-.269.314,3.358,3.358,0,0,0-.724,2.2V42.636c0,2.989.013,5.978-.019,8.966-.023,2.091-.315,4.625,1.793,5.845a6.132,6.132,0,0,0,3.244.5c1.484-.007,2.968,0,4.451,0H90.745c1.062,0,2.143.093,3.2,0A3.7,3.7,0,0,0,97.6,54.428C97.722,53.176,97.586,51.883,97.586,50.625ZM63.426,55.884c-1.041-.018-2.593.276-3.044-.936a6.525,6.525,0,0,1-.17-2.378c.056-2.892.006-5.791.006-8.684V25.506c0-.325.037-.714,0-1.074a1.528,1.528,0,0,1,.542-1.084,4.359,4.359,0,0,1,2.443-.327,21.3,21.3,0,0,0,3.027-.033,4.579,4.579,0,0,0,4.2-4,27.278,27.278,0,0,0,.114-3.839q0-1.01.009-2.019a3.8,3.8,0,0,1,.092-1.106,3.184,3.184,0,0,0,.351-.49.926.926,0,0,1,.2-.1,6.065,6.065,0,0,1,1.948-.072l2.263-.007,4.46-.014,9.179-.029c1.5,0,3.006-.026,4.508-.017a1.861,1.861,0,0,1,1.681.612,3.932,3.932,0,0,1,.254,2.138V52.969a4.871,4.871,0,0,1-.173,2.086c-.386.756-1.134.788-1.883.789q-1.2,0-2.406,0H81.776C75.661,55.842,69.539,55.993,63.426,55.884Zm5.007-40.444a16.505,16.505,0,0,1-.131,3.422,2.508,2.508,0,0,1-2.611,2.09c-.97.033-1.943-.014-2.915-.021l3.875-4.44,1.755-2.011C68.419,14.808,68.431,15.13,68.433,15.441Z" fill="#fff"/>
    <path id="Path_9822" data-name="Path 9822" d="M108.9,177.792H93.851a.525.525,0,0,0,0,1.05H108.9A.525.525,0,0,0,108.9,177.792Z" transform="translate(-29.098 -139.086)" fill="#fff"/>
    <path id="Path_9823" data-name="Path 9823" d="M151.656,83.541H166.7a.525.525,0,0,0,0-1.05H151.656A.525.525,0,0,0,151.656,83.541Z" transform="translate(-76.784 -60.468)" fill="#fff"/>
    <path id="Path_9824" data-name="Path 9824" d="M151.656,56.147H166.7a.525.525,0,0,0,0-1.05H151.656A.525.525,0,0,0,151.656,56.147Z" transform="translate(-76.784 -37.87)" fill="#fff"/>
    <path id="Path_9825" data-name="Path 9825" d="M217.4,177.792h-7.892a.525.525,0,0,0,0,1.05H217.4A.525.525,0,0,0,217.4,177.792Z" transform="translate(-124.511 -139.086)" fill="#fff"/>
    <path id="Path_9826" data-name="Path 9826" d="M108.9,200.279H93.851a.525.525,0,0,0,0,1.05H108.9A.525.525,0,0,0,108.9,200.279Z" transform="translate(-29.098 -157.637)" fill="#fff"/>
    <path id="Path_9827" data-name="Path 9827" d="M217.4,200.279h-7.892a.525.525,0,0,0,0,1.05H217.4A.525.525,0,0,0,217.4,200.279Z" transform="translate(-124.511 -157.637)" fill="#fff"/>
    <path id="Path_9828" data-name="Path 9828" d="M108.9,224.864H93.851a.525.525,0,0,0,0,1.05H108.9A.525.525,0,0,0,108.9,224.864Z" transform="translate(-29.098 -177.918)" fill="#fff"/>
    <path id="Path_9829" data-name="Path 9829" d="M217.4,224.864h-7.892a.525.525,0,0,0,0,1.05H217.4A.525.525,0,0,0,217.4,224.864Z" transform="translate(-124.511 -177.918)" fill="#fff"/>
    <path id="Path_9830" data-name="Path 9830" d="M108.9,249.45H93.851a.525.525,0,0,0,0,1.05H108.9A.525.525,0,0,0,108.9,249.45Z" transform="translate(-29.098 -198.2)" fill="#fff"/>
    <path id="Path_9831" data-name="Path 9831" d="M218.105,249.45h-7.892a.525.525,0,0,0,0,1.05h7.892A.525.525,0,0,0,218.105,249.45Z" transform="translate(-125.09 -198.2)" fill="#fff"/>
    <path id="Path_9832" data-name="Path 9832" d="M97.274,114.549c-.022-.009-.076-.026-.163-.053a1,1,0,0,0-.3-.04.628.628,0,0,0-.369.1.375.375,0,0,0-.136.329v4.144h.965Z" transform="translate(-31.544 -86.837)" fill="#fff"/>
    <path id="Path_9833" data-name="Path 9833" d="M109.224,115.9q.166.233.426.612t.556.822q.3.442.589.888t.526.8h.945v-4.477c-.022-.009-.074-.026-.157-.053a.934.934,0,0,0-.289-.04.629.629,0,0,0-.369.1.375.375,0,0,0-.136.329v2.6q-.186-.3-.426-.665t-.492-.732l-.472-.685q-.22-.319-.376-.529t-.2-.256a1.34,1.34,0,0,0-.186-.1.8.8,0,0,0-.333-.057.521.521,0,0,0-.419.156.5.5,0,0,0-.133.329v4.084h.945Z" transform="translate(-41.419 -86.837)" fill="#fff"/>
    <path id="Path_9834" data-name="Path 9834" d="M134.85,115.607q.1.246.263.632t.369.851q.206.466.436.965t.469.971h1.078q.146-.313.333-.725t.382-.871q.2-.459.386-.908t.349-.835q.159-.386.269-.662t.143-.376a1.844,1.844,0,0,0-.166-.1.739.739,0,0,0-.379-.09.549.549,0,0,0-.386.113.8.8,0,0,0-.193.319q-.213.585-.442,1.191t-.446,1.141q-.216.536-.369.9-.1-.239-.239-.582t-.3-.738q-.156-.4-.313-.8t-.3-.782q-.14-.372-.239-.665a1.021,1.021,0,0,0-.12-.05.909.909,0,0,0-.313-.043.435.435,0,0,0-.376.143.5.5,0,0,0-.1.3,1.043,1.043,0,0,0,.053.319Q134.757,115.381,134.85,115.607Z" transform="translate(-63.173 -86.837)" fill="#fff"/>
    <path id="Path_9835" data-name="Path 9835" d="M166.7,114.124a2.644,2.644,0,0,0-2.495,0,2.208,2.208,0,0,0-.835.855,2.5,2.5,0,0,0-.3,1.227,2.572,2.572,0,0,0,.173.951,2.29,2.29,0,0,0,.489.765,2.206,2.206,0,0,0,.752.506,2.7,2.7,0,0,0,1.936,0,2.206,2.206,0,0,0,.752-.506,2.3,2.3,0,0,0,.489-.765,2.571,2.571,0,0,0,.173-.951,2.5,2.5,0,0,0-.3-1.227A2.208,2.208,0,0,0,166.7,114.124Zm-.03,2.894a1.365,1.365,0,0,1-.476.569,1.279,1.279,0,0,1-.735.209,1.306,1.306,0,0,1-.745-.209,1.354,1.354,0,0,1-.479-.569,2.063,2.063,0,0,1,0-1.623,1.285,1.285,0,0,1,1.224-.772,1.3,1.3,0,0,1,.735.206,1.341,1.341,0,0,1,.476.566,2.065,2.065,0,0,1,0,1.623Z" transform="translate(-86.622 -86.305)" fill="#fff"/>
    <path id="Path_9836" data-name="Path 9836" d="M195.739,114.553a.375.375,0,0,0-.136.329v4.144h.965v-4.477c-.022-.009-.077-.026-.163-.053a1,1,0,0,0-.3-.04A.628.628,0,0,0,195.739,114.553Z" transform="translate(-113.456 -86.837)" fill="#fff"/>
    <path id="Path_9837" data-name="Path 9837" d="M208.1,114.825a1.376,1.376,0,0,1,.742-.2,1.726,1.726,0,0,1,.612.1,1.574,1.574,0,0,1,.406.216,1.918,1.918,0,0,1,.22.193.715.715,0,0,0,.14-.1.86.86,0,0,0,.16-.2.5.5,0,0,0,.073-.266.523.523,0,0,0-.26-.419,2.016,2.016,0,0,0-.492-.226,2.807,2.807,0,0,0-.878-.113,2.552,2.552,0,0,0-1.221.289,2.162,2.162,0,0,0-.858.825,2.476,2.476,0,0,0-.316,1.28,2.578,2.578,0,0,0,.313,1.32,2.036,2.036,0,0,0,.848.808,2.607,2.607,0,0,0,1.2.273,3.3,3.3,0,0,0,.881-.1,2.826,2.826,0,0,0,.582-.22,1.53,1.53,0,0,0,.253-.156l-.426-.719a1.923,1.923,0,0,1-.186.113,2.129,2.129,0,0,1-.416.166,2.15,2.15,0,0,1-.622.08,1.381,1.381,0,0,1-1.041-.4,1.6,1.6,0,0,1-.389-1.161,1.808,1.808,0,0,1,.18-.832A1.354,1.354,0,0,1,208.1,114.825Z" transform="translate(-122.389 -86.305)" fill="#fff"/>
    <path id="Path_9838" data-name="Path 9838" d="M234.173,114.975v4.051h3.213v-.845h-2.248V117.15h2.075a.867.867,0,0,0,.07-.16.8.8,0,0,0,.043-.273.422.422,0,0,0-.1-.306.474.474,0,0,0-.349-.106h-1.736v-1h2.169a.864.864,0,0,0,.07-.16.8.8,0,0,0,.043-.273.423.423,0,0,0-.1-.306.473.473,0,0,0-.349-.107h-2.255Q234.173,114.456,234.173,114.975Z" transform="translate(-145.274 -86.837)" fill="#fff"/>
    <path id="Path_9839" data-name="Path 9839" d="M121.085,155.221H94.248c-1.205,0-1.207,1.05,0,1.05h26.837C122.29,156.271,122.292,155.221,121.085,155.221Z" transform="translate(-29.098 -120.466)" fill="#fff"/>
  </g>
</svg>
