<svg id="صندوق" xmlns="http://www.w3.org/2000/svg" width="52.022" height="41.42" viewBox="0 0 52.022 41.42">
  <path id="Path_2777" data-name="Path 2777" d="M1184.468,718.218a1.682,1.682,0,0,0-.113-.5q-.886-2.172-1.77-4.344-1.409-3.451-2.817-6.9c-.216-.523-.428-1.051-.644-1.574a.8.8,0,0,0-.121-.2.643.643,0,0,0-.368-.257.054.054,0,0,1-.037-.01l-.063-.013c-.626-.137-1.252-.278-1.873-.417l-4.743-1.059q-2.853-.643-5.712-1.271-2.47-.554-4.936-1.1c-.8-.177-1.6-.364-2.4-.536h0a.587.587,0,0,0-.253-.045.74.74,0,0,0-.293.076.838.838,0,0,0-.494-.04c-.644.124-1.287.248-1.931.376l-4.623.9-5.585,1.1-4.827.938c-.78.151-1.57.267-2.343.457a.075.075,0,0,1-.032,0,.578.578,0,0,0-.278.15.743.743,0,0,0-.216.311.05.05,0,0,0,0,.023c-.015.031-.026.063-.037.093l-.494,1.287c-.434,1.126-.87,2.253-1.306,3.368q-.784,2.027-1.574,4.055-.681,1.754-1.361,3.5c-.219.571-.446,1.139-.661,1.71v.018a1.039,1.039,0,0,0-.117.513,1.282,1.282,0,0,0,.037.257.879.879,0,0,0,.373.6h0a.68.68,0,0,0,.406.134l1.984-.04c.882-.018,1.76-.035,2.642-.056V733.5c0,.655-.015,1.311,0,1.963v.031a1.1,1.1,0,0,0,.052.333.447.447,0,0,1-.023.092c-.092.483.121,1.126.574,1.228l1.984.422,4.764,1.01,5.742,1.218,4.965,1.056c.8.172,1.609.349,2.423.513h0a.643.643,0,0,0,.253.045.744.744,0,0,0,.135-.023.785.785,0,0,0,.084-.018l2.064-.483,4.951-1.175,5.987-1.422,5.16-1.223c.629-.151,1.266-.28,1.9-.434a.6.6,0,0,0,.322.071.866.866,0,0,0,.724-.531,1.189,1.189,0,0,0,.183-.935,1.241,1.241,0,0,0-.083-.227v-13.62c0-.66.015-1.324,0-1.99v-.026a1.234,1.234,0,0,0-.019-.208l1.2.021c.8.014,1.609.053,2.4.045h.034a.363.363,0,0,0,.1-.01.631.631,0,0,0,.322-.129.724.724,0,0,0,.084-.074A1.1,1.1,0,0,0,1184.468,718.218Zm-49.91-.439c.417-1.076.835-2.148,1.252-3.226q.785-2.027,1.574-4.053.681-1.755,1.361-3.506c.172-.447.351-.895.523-1.342.528-.1,1.054-.2,1.585-.311l4.623-.9,5.591-1.091,4.827-.938c.512-.1,1.028-.182,1.54-.285-.05.161-.1.322-.161.483q-.654,2.051-1.3,4.111-.788,2.486-1.577,4.977-.68,2.153-1.364,4.3c-.146.465-.307.93-.459,1.4-.468.01-.936.018-1.4.031l-4.761.1-5.738.119-4.962.106C1135.323,717.766,1134.949,717.771,1134.559,717.779Zm17.528,20.21-5.741-1.218-4.965-1.056c-.619-.132-1.237-.265-1.852-.394v-13.98c0-.558.011-1.117,0-1.675H1140l5.738-.119,4.962-.108c.8-.018,1.609-.018,2.414-.053h.035a.9.9,0,0,0,.8-.771c.175-.558.354-1.117.531-1.675q.652-2.053,1.3-4.111.792-2.486,1.577-4.977c.14-.439.278-.882.418-1.321v32.662l-.941-.2Q1154.466,738.5,1152.086,737.989Zm26.3-18.637v15.332l-1.339.322q-2.476.584-4.951,1.174l-5.987,1.422-5.16,1.223c-.5.119-1,.225-1.5.341V706.585c.052.161.1.322.161.5q.75,2.4,1.508,4.8.644,2.092,1.31,4.169c.212.674.422,1.352.644,2.026a.076.076,0,0,1,0,.026c.011.035.026.071.037.106a.966.966,0,0,0,.428.541.594.594,0,0,0,.407.089l1.9.035q2.36.048,4.718.089,2.869.053,5.738.111l2.125.04A.574.574,0,0,0,1178.391,719.352Zm-1.448-2.261-5.737-.109-4.925-.093c-.623-.015-1.249-.04-1.874-.045-.1-.311-.193-.62-.293-.93l-1.25-3.989q-.753-2.4-1.509-4.8-.644-2.092-1.31-4.169c-.069-.227-.142-.457-.212-.684l.531.121,4.743,1.059q2.853.644,5.712,1.271,2.47.553,4.936,1.1c.7.161,1.4.322,2.1.47.537,1.316,1.075,2.637,1.609,3.953l2.819,6.9c0,.018.014.032.021.05l-.644-.014Q1179.307,717.142,1176.943,717.092Z" transform="translate(-1132.447 -699.986)" fill="#fff"/>
</svg>
