<svg xmlns="http://www.w3.org/2000/svg" width="53" height="45.581" viewBox="0 0 53 45.581">
  <g id="Group_30736" data-name="Group 30736" transform="translate(-2443 1387.782)">
    <path id="Path_2795" data-name="Path 2795" d="M52.494,7.177a.95.95,0,0,0-.769-.112L48.99,6.577,42.457,5.409,35.13,4.1l-5.262-.94c-.317-.059-.633-.117-.963-.173a1.807,1.807,0,0,0-1,.136L24.009,4.391l-6.477,2.1-7.2,2.34L4.194,10.81.944,11.865l-.158.049a1.108,1.108,0,0,0-.375.222,1.07,1.07,0,0,0-.291.385,1.04,1.04,0,0,0-.1.475v9.446a1.138,1.138,0,0,0,.776,1.088l1.366.383V38.99a1.148,1.148,0,0,0,.776,1.088l2.427.841,5.824,2.015,7.021,2.43,6.067,2.1c.95.331,1.9.689,2.869.994a.855.855,0,0,0,.266.076.877.877,0,0,0,.28,0,.97.97,0,0,0,.389-.146l1.316-.849,3.353-2.161,4.521-2.913,4.764-3.07q2.058-1.333,4.13-2.661l2.612-1.683c.158-.1.309-.19.458-.294.543-.383.532-.871.532-1.441V19.434c.758-.389,1.523-.773,2.265-1.192l.04-.021a1.108,1.108,0,0,0,.519-.95.217.217,0,0,0,0-.03q.071-1.536.144-3.073l.231-4.908c.017-.375.035-.752.054-1.127a1.141,1.141,0,0,0-.524-.956Zm-3.8,10.311-5.541,2.905-6.7,3.515-5.789,3.038c-.418.22-.837.434-1.266.649V26.1q0-2.622.008-5.245v-.486l1.835-.894,5.636-2.737,6.833-3.325,5.875-2.864c.41-.2.823-.4,1.236-.592l-.06,1.266q-.117,2.451-.231,4.9l-.013.407ZM2.13,19.247V14.41l1.312.317,6.307,1.51,7.68,1.836,6.592,1.583h0c.826.2,1.653.416,2.481.608v2.644l-.009,5.474-1.306-.369-6.323-1.765L11.2,24.107l-6.6-1.844c-.822-.23-1.642-.475-2.468-.7Zm8.53-8.174,7.952-2.579L25.5,6.259c1.061-.344,2.145-.647,3.195-1.031l1.911.342,5.482.978,6.6,1.181,5.174.925-4.992,2.327-6.925,3.228L29.977,17c-.839.393-1.7.752-2.533,1.167L25.2,17.626l-1.9-.456-4.417-1.061L17.4,15.753l-6.174-1.48L5.216,12.838Zm8.915,32.4-7.021-2.43-6.067-2.1c-.738-.255-1.474-.529-2.216-.78V24.889l1.091.287,5.826,1.531,7,1.838,6.087,1.6c.738.195,1.474.408,2.216.6V45.86l-1.086-.375Zm26.484-9.3-5.041,3.247-6.13,3.95-5.269,3.4c-.339.218-.679.432-1.021.647V32.005c0-.484.011-.972.011-1.458l1.583-.792,5.066-2.547,6.1-3.066,5.27-2.65c.337-.169.678-.334,1.018-.5v12.15Z" transform="translate(2442.982 -1390.745)" fill="#fff"/>
    <path id="Path_2796" data-name="Path 2796" d="M65.41,170.868l-5.858-1.6-.83-.228a1.108,1.108,0,0,0-1.354.792,1.141,1.141,0,0,0,.763,1.388l5.858,1.6.831.228a1.108,1.108,0,0,0,1.354-.792A1.151,1.151,0,0,0,65.41,170.868Z" transform="translate(2394.737 -1530.497)" fill="#fff"/>
  </g>
</svg>
