<svg id="Layer_1" data-name="Layer 1" xmlns="http://www.w3.org/2000/svg" viewBox="0 0 47.16 47.15"><path d="M47.34,5.21a.75.75,0,0,0-.44-.34h0a.32.32,0,0,0-.14,0l-2.37-.52L38.54,3.06,32,1.65l-4.7-1L26.44.45a1.46,1.46,0,0,0-.9.14L22,1.86,16.23,4,9.77,6.35l-5.51,2L1.34,9.42l-.13.05a.89.89,0,0,0-.35.23,1.07,1.07,0,0,0-.26.39,1.21,1.21,0,0,0-.1.5l0,3.31,0,5.25v1.21a1.16,1.16,0,0,0,.68,1.13l1.22.41,0,5L2.2,35.51v2a1.18,1.18,0,0,0,.68,1.14L5,39.51l5.2,2.13,6.26,2.57,5.41,2.22c.85.35,1.7.73,2.55,1a.75.75,0,0,0,.24.08.53.53,0,0,0,.25,0,.72.72,0,0,0,.35-.15l1.19-.86,3-2.21,4.07-3,4.29-3.14,3.72-2.72,2.35-1.72.41-.3A1.69,1.69,0,0,0,44.83,32l0-4.44.05-6.08,0-3.89v-.25c.68-.38,1.37-.75,2-1.17l0,0a1,1,0,0,0,.42-.63,1.5,1.5,0,0,0,0-.37l0-3.09,0-4.92V6A1.37,1.37,0,0,0,47.34,5.21ZM24,30l0,4.34,0,5.25,0,4.54c0,.22,0,.43,0,.64l-1-.4-5.19-2.13-6.26-2.57L6.06,37.47c-.66-.27-1.32-.56-2-.82l0-4.59.08-8.64v-.5l1,.31,5.19,1.62,6.25,2,5.43,1.7c.66.21,1.32.44,2,.64Zm.09-9.24-.05,5.43v.49l-1.17-.38-5.64-1.88-6.83-2.27-5.89-2c-.74-.25-1.47-.52-2.2-.75l0-2.39,0-5,1.17.34L9.18,14,16,16l5.89,1.69h0l2.21.65ZM25,16.14l-2-.57-1.69-.49L17.36,14,16,13.57,10.51,12,5.15,10.46,10,8.68l7.14-2.61,6.19-2.26c.95-.35,1.92-.65,2.87-1l1.7.37,4.9,1.05,5.9,1.28,4.62,1L40.26,8.1l-1.39.73-6.22,3.29-2.27,1.19L27.27,15C26.52,15.35,25.74,15.72,25,16.14ZM43,22.5,43,30.59v1.2l-1.43,1.05L37,36.16l-5.52,4-4.74,3.47-.92.66,0-4.07L25.87,35l0-4.54c0-.5,0-1,0-1.51l1.42-.81,4.55-2.59,5.49-3.13,4.74-2.7.92-.51ZM45.67,9.07,45.62,14v.4l-1.68,1-5.15,2.94-6.23,3.56-5.39,3.09L26,25.62V24.55L26,18.71v-.58l1.67-.88,3.76-2,1.4-.73,6.22-3.29L41.35,10l3.1-1.64h0c.4-.22.8-.42,1.21-.63Z" transform="translate(-0.42 -0.43)"/><path d="M15.5,28.15l-5-1.7-.71-.24A1,1,0,0,0,8.6,27a1.23,1.23,0,0,0,.64,1.44l5,1.71.72.24a1,1,0,0,0,1.17-.81A1.25,1.25,0,0,0,15.5,28.15Z" transform="translate(-0.42 -0.43)"/></svg>