<svg id="Layer_1" data-name="Layer 1" xmlns="http://www.w3.org/2000/svg" viewBox="0 0 263.04 230"><path d="M212.87,142.52h4.53a1.27,1.27,0,0,0,0-2.53H181.11a1.27,1.27,0,0,0,0,2.53Z" transform="translate(0 -5.21)"/><path d="M181.11,152.07H217.4a1.27,1.27,0,0,0,0-2.54H181.11A1.27,1.27,0,0,0,181.11,152.07Z" transform="translate(0 -5.21)"/><path d="M212.15,211.66H175.86a1.27,1.27,0,0,0,0,2.54h36.29A1.27,1.27,0,0,0,212.15,211.66Z" transform="translate(0 -5.21)"/><path d="M243.72,211.66h-19a1.27,1.27,0,0,0,0,2.54h19A1.27,1.27,0,0,0,243.72,211.66Z" transform="translate(0 -5.21)"/><path d="M180.39,222h-4.53a1.27,1.27,0,0,0,0,2.54h36.29a1.27,1.27,0,0,0,0-2.54Z" transform="translate(0 -5.21)"/><path d="M225,222a1.27,1.27,0,0,0,0,2.54h19a1.27,1.27,0,0,0,0-2.54Z" transform="translate(0 -5.21)"/><path d="M233.46,184.79h8.08c2.91,0,2.91-2.53,0-2.53H176.82c-2.91,0-2.91,2.53,0,2.53Z" transform="translate(0 -5.21)"/><path d="M241.54,200c2.91,0,2.91-2.53,0-2.53H176.82c-2.91,0-2.91,2.53,0,2.53h64.72Z" transform="translate(0 -5.21)"/><path d="M241.54,169.46H176.82c-2.91,0-2.91,2.54,0,2.54h64.72C244.45,172,244.45,169.46,241.54,169.46Z" transform="translate(0 -5.21)"/><path d="M260.52,115l-15.74,17.81-4.86-7.65c-1-1.62-3.62-.12-2.59,1.52l5.95,9.38a1.53,1.53,0,0,0,2.36.3l17-19.24C263.92,115.66,261.8,113.53,260.52,115Z" transform="translate(0 -5.21)"/><path d="M250.07,219.3v9.53H167.69V132h66l-.43-6.38H164.5a3.24,3.24,0,0,0-3.19,3.19v1.22c-10.85-6.13-22.7-8.26-34.91-9a60.36,60.36,0,0,0,20.44-16c16.14-19.67,18.49-48.09,5.42-70A61.71,61.71,0,0,0,87.89,6.31C59.4,11.82,39.06,37.5,38.72,66.2a61.92,61.92,0,0,0,36.2,55.73c-7.62.69-15.23,1.63-22.45,4.27-25.53,9.33-40.58,33.36-47.39,58.61a154,154,0,0,0-5,45.39c.19,5.32,8.48,5.35,8.3,0-.85-24.15,3.31-49.9,16.33-70.64a62.74,62.74,0,0,1,24-22.71L92.74,214,99.06,225a2.22,2.22,0,0,0,1.81,1.19,2,2,0,0,0,2.47-1.19l37.33-80q2.66-5.68,5.3-11.36a2.67,2.67,0,0,0,.26-1.07,56.42,56.42,0,0,1,15.08,7.21V232a2.93,2.93,0,0,0,.86,2.16.94.94,0,0,0,.1.1l.06.06a2.94,2.94,0,0,0,2.17.87h88.76a3.24,3.24,0,0,0,3.19-3.19V135.46l-6.38,3.69ZM100.26,146.09c-10.46.38-18-8.15-22.88-16.49,8.16-.67,16.41-.65,24.16-.75,6.94-.08,14-.23,21,.08C117.78,137.13,110.43,145.72,100.26,146.09ZM46.09,66.2c.27-22.58,14.46-43.31,36-50.72a53.69,53.69,0,0,1,63.78,78.18,54.13,54.13,0,0,1-56,25.31C64.53,114.12,46.4,91.81,46.09,66.2Zm7.12,68.57A76.54,76.54,0,0,1,73.35,130c5.28,9.44,13.65,19.25,25.17,19.77q-8.08,18-16.16,36Q70.69,165.37,59,144.93ZM101,218.39l-15.76-27.6a2.35,2.35,0,0,0,.75-.94l14.76-32.93,14,32.09q-5.17,11.07-10.34,22.15ZM117.49,183l-14.58-33.49,0,0c10.62-1.66,18.41-10.75,23.42-19.75a1.71,1.71,0,0,0,.21-.61,94.63,94.63,0,0,1,15.09,2.2Z" transform="translate(0 -5.21)"/></svg>