<svg id="Layer_1" data-name="Layer 1" xmlns="http://www.w3.org/2000/svg" viewBox="0 0 266.39 233.21"><path d="M291.57,166.14h4.53a1.27,1.27,0,0,0,0-2.54H259.81a1.27,1.27,0,0,0,0,2.54Z" transform="translate(-76.82 -27.4)" style="fill:#a3cc84"/><path d="M291.57,167.64c2.09,0,5.87.84,7-1.64a2.76,2.76,0,0,0-1.29-3.58c-1.66-.9-4.4-.32-6.14-.32h-26.8c-2.06,0-5.5-.78-6.8,1.32a2.77,2.77,0,0,0,.91,3.82c1.42.89,3.78.4,5.33.4h27.79a1.5,1.5,0,0,0,0-3h-26.8a8.3,8.3,0,0,0-3.21.23c-.77.36,2.81.23,2.78.23h25.81c3,0,6.52-.46,1.42-.46A1.5,1.5,0,0,0,291.57,167.64Z" transform="translate(-76.82 -27.4)" style="fill:#a3cc84"/><path d="M259.81,175.68H296.1a1.27,1.27,0,0,0,0-2.53H259.81A1.27,1.27,0,0,0,259.81,175.68Z" transform="translate(-76.82 -27.4)" style="fill:#a3cc84"/><path d="M259.81,177.18h34c1.92,0,4.44.23,4.92-2.19.36-1.83-.85-2.92-2.45-3.32-2.11-.52-5,0-7.15,0H262.83c-1.95,0-4.71-.49-5.56,1.81-.67,1.82.56,3.13,2.14,3.67,1.84.61,2.62-2.28.8-2.9,4.64,1.56,11.14.42,16,.42h9.93c1.86,0,6.78.77,8.17-.24-.06.05-5.7-.23-6.75-.23H259.81A1.5,1.5,0,0,0,259.81,177.18Z" transform="translate(-76.82 -27.4)" style="fill:#a3cc84"/><path d="M290.84,235.28H254.56a1.27,1.27,0,0,0,0,2.53h36.28A1.27,1.27,0,0,0,290.84,235.28Z" transform="translate(-76.82 -27.4)" style="fill:#a3cc84"/><path d="M290.84,233.78h-34c-1.91,0-4.43-.23-4.91,2.19-.36,1.83.85,2.92,2.45,3.32,2.11.52,5,0,7.14,0h26.32c2,0,4.72.49,5.57-1.81.67-1.82-.56-3.13-2.15-3.67-1.83-.61-2.62,2.28-.79,2.9-4.64-1.56-11.15-.42-16.05-.42h-9.92c-1.86,0-6.79-.77-8.18.24.07-.05,5.71.23,6.76.23h27.78A1.5,1.5,0,0,0,290.84,233.78Z" transform="translate(-76.82 -27.4)" style="fill:#a3cc84"/><path d="M322.42,235.28h-19a1.27,1.27,0,0,0,0,2.53h19A1.27,1.27,0,0,0,322.42,235.28Z" transform="translate(-76.82 -27.4)" style="fill:#a3cc84"/><path d="M322.42,233.78H310.71c-2.33,0-6.27-.82-8.4.24-2.62,1.31-1.81,4.74.88,5.27,3.22.62,7.16,0,10.45,0,2.73,0,7,.82,9.52-.15a2.75,2.75,0,0,0-.34-5.33,1.51,1.51,0,0,0-.8,2.9c-1.64-.46-17.17-.71-17.17-.18s15.91.23,17.57.23A1.5,1.5,0,0,0,322.42,233.78Z" transform="translate(-76.82 -27.4)" style="fill:#a3cc84"/><path d="M259.09,245.66h-4.53a1.27,1.27,0,0,0,0,2.53h36.28a1.27,1.27,0,0,0,0-2.53Z" transform="translate(-76.82 -27.4)" style="fill:#a3cc84"/><path d="M259.09,244.16c-2.1,0-5.87-.85-7,1.63a2.75,2.75,0,0,0,1.28,3.58c1.67.9,4.41.32,6.15.32h26.79c2.07,0,5.51.78,6.81-1.32a2.77,2.77,0,0,0-.91-3.82c-1.42-.89-3.79-.39-5.33-.39H259.09a1.5,1.5,0,0,0,0,3h26.79a8.35,8.35,0,0,0,3.22-.23c.77-.36-2.81-.24-2.79-.24h-25.8c-3,0-6.52.47-1.42.47A1.5,1.5,0,0,0,259.09,244.16Z" transform="translate(-76.82 -27.4)" style="fill:#a3cc84"/><path d="M303.68,245.66a1.27,1.27,0,0,0,0,2.53h19a1.27,1.27,0,0,0,0-2.53Z" transform="translate(-76.82 -27.4)" style="fill:#a3cc84"/><path d="M303.29,244.21c-2.54.7-3.22,4-.68,5.24,1.13.57,2.81.24,4,.24h5.86c3.29,0,7.23.6,10.45,0,2.56-.49,3.53-3.76,1.06-5.18-2.08-1.2-6.27-.32-8.58-.32H303.68a1.5,1.5,0,0,0,0,3c1.76,0,17.57.18,17.57-.23s-15.6-.26-17.17.17A1.5,1.5,0,0,0,303.29,244.21Z" transform="translate(-76.82 -27.4)" style="fill:#a3cc84"/><path d="M312.16,208.41h8.08c2.91,0,2.91-2.53,0-2.53H255.52c-2.91,0-2.92,2.53,0,2.53Z" transform="translate(-76.82 -27.4)" style="fill:#a3cc84"/><path d="M312.16,209.91c2.4,0,11.09,1.61,11.71-2.37.69-4.41-7.31-3.16-9.49-3.16H263.6c-2.53,0-11.09-1.64-11.71,2.36-.69,4.41,7.5,3.17,9.48,3.17h50.79a1.5,1.5,0,0,0,0-3H264.3c-1.64,0-5.77-.7-7,.23.12-.08,5.26.24,6.3.24h47.85c1.64,0,5.78.69,7-.24-.11.09-5.26-.23-6.29-.23A1.5,1.5,0,0,0,312.16,209.91Z" transform="translate(-76.82 -27.4)" style="fill:#a3cc84"/><path d="M320.24,223.59c2.91,0,2.91-2.53,0-2.53H255.52c-2.91,0-2.92,2.53,0,2.53h64.72Z" transform="translate(-76.82 -27.4)" style="fill:#a3cc84"/><path d="M320.64,225c2.32-.36,4.63-2.51,2.3-4.62-1.79-1.61-5.52-.86-7.58-.86H265.55c-3.23,0-7.06-.51-10.23,0-2.12.35-4.79,2-2.81,4.41,1.31,1.57,4.26,1.09,5.94,1.09h61.79a1.5,1.5,0,0,0,0-3h-55c-1.8,0-6.68-.73-8,.24.06-.05,4.46.23,5.49.23H287c10.7,0,22.27,1.22,32.8-.41C317.94,222.44,318.75,225.33,320.64,225Z" transform="translate(-76.82 -27.4)" style="fill:#a3cc84"/><path d="M320.24,193.08H255.52c-2.91,0-2.92,2.53,0,2.53h64.72C323.15,195.61,323.15,193.08,320.24,193.08Z" transform="translate(-76.82 -27.4)" style="fill:#a3cc84"/><path d="M320.24,191.58H258.75c-1.75,0-4.86-.5-6.23,1.09-2.05,2.36.7,4.11,2.8,4.41,7.53,1.1,16,0,23.63,0h36.44c2,0,5.81.72,7.55-.86,2.33-2.12,0-4.26-2.3-4.62-1.89-.29-2.7,2.6-.8,2.89-9.67-1.49-20.3-.41-30.14-.41H265.28c-1.8,0-6.68-.74-8,.23.06,0,4.46.24,5.49.24h57.45A1.5,1.5,0,0,0,320.24,191.58Z" transform="translate(-76.82 -27.4)" style="fill:#a3cc84"/><path d="M339.22,138.59l-15.75,17.82q-2.42-3.82-4.85-7.65c-1-1.63-3.63-.13-2.59,1.51l6,9.38a1.52,1.52,0,0,0,2.36.3l17-19.24C342.62,139.27,340.5,137.14,339.22,138.59Z" transform="translate(-76.82 -27.4)" style="fill:#a3cc84"/><path d="M338.16,137.53l-15.75,17.82,2.36.3c-1.11-1.75-6.85-13.65-10.06-7.46-1.32,2.53,1.75,5.55,3,7.53s2.73,6.16,5.63,6.13,5-4.21,6.64-6c3.7-4.19,7.42-8.37,11.11-12.58,1.26-1.43,2.88-3.06,1.72-5.08-1-1.77-2.81-1.75-4.35-.87a1.5,1.5,0,0,0,1.52,2.59c-2.46,1.39-5,5.76-6.89,7.9-2.3,2.6-4.53,5.94-7.2,8.14-1.61,1.33-2.1,2.31-4.1.62-1-.88-1.73-2.73-2.48-3.91l2.87,4.52a1.51,1.51,0,0,0,2.35.31l15.75-17.82C341.56,138.21,339.44,136.08,338.16,137.53Z" transform="translate(-76.82 -27.4)" style="fill:#a3cc84"/><path d="M328.76,242.91v9.53H246.39V155.63h66l-.44-6.38H243.2a3.24,3.24,0,0,0-3.19,3.19v1.23c-10.86-6.14-22.7-8.26-34.91-9a60.08,60.08,0,0,0,20.43-16C241.67,109,244,80.55,231,58.62a61.72,61.72,0,0,0-64.37-28.69c-28.48,5.5-48.82,31.18-49.16,59.88a61.89,61.89,0,0,0,36.2,55.73c-7.62.69-15.23,1.64-22.46,4.27-25.52,9.33-40.57,33.36-47.38,58.61a154,154,0,0,0-5,45.39c.19,5.33,8.48,5.35,8.29,0-.84-24.14,3.32-49.89,16.33-70.64a62.84,62.84,0,0,1,24-22.71l44.05,77.12,6.32,11a2.22,2.22,0,0,0,1.81,1.19,2,2,0,0,0,2.47-1.19q18.66-40,37.33-80,2.64-5.68,5.3-11.36a2.48,2.48,0,0,0,.25-1.06,56.3,56.3,0,0,1,15.09,7.2v92.2a3,3,0,0,0,.85,2.16l.11.11.06.06a2.94,2.94,0,0,0,2.17.86H332a3.23,3.23,0,0,0,3.19-3.19V159.07l-6.38,3.7ZM179,169.7c-10.46.38-18-8.15-22.89-16.49,8.17-.67,16.42-.65,24.17-.74,6.94-.09,14-.24,21,.07C196.48,160.74,189.13,169.33,179,169.7ZM124.79,89.81c.27-22.57,14.46-43.31,36-50.71a53.69,53.69,0,0,1,63.78,78.17,54.12,54.12,0,0,1-56.05,25.31C143.23,137.73,125.1,115.42,124.79,89.81Zm7.12,68.57a76.52,76.52,0,0,1,20.14-4.77c5.28,9.44,13.65,19.24,25.17,19.76q-8.08,18-16.16,36Q149.39,189,137.71,168.54ZM179.68,242l-15.77-27.6a2.28,2.28,0,0,0,.76-.94l14.76-32.93q7,16,14,32.08-5.18,11.08-10.34,22.15C181.93,237.19,180.81,239.6,179.68,242Zm16.51-35.36-14.58-33.49s0,0,0,0c10.62-1.65,18.41-10.75,23.42-19.75a1.66,1.66,0,0,0,.21-.6,93.5,93.5,0,0,1,15.09,2.2Z" transform="translate(-76.82 -27.4)" style="fill:#a3cc84"/><path d="M327.26,242.91v9.53l1.5-1.5H246.39l1.5,1.5V155.63l-1.5,1.5h66a1.52,1.52,0,0,0,1.5-1.5l-.44-6.38a1.52,1.52,0,0,0-1.5-1.5H266.16c-7,0-14.08-.05-21.12,0-4.13,0-6.53,1.52-6.53,5.92l2.26-1.3c-11.08-6-23.19-8.38-35.67-9.24l.75,2.8a63,63,0,0,0,35-57.37,62.35,62.35,0,0,0-33-53.8c-19.11-10.12-42.82-9.91-61.41,1.34A64.35,64.35,0,0,0,116,87c-1.45,25.3,14.22,49.28,36.85,59.84l.76-2.8c-18.3,1.71-34.55,7.11-47.68,20.44C94.2,176.4,86.66,192,82.33,208a151.35,151.35,0,0,0-5,32.44c-.2,4.37-1.19,10.52.12,14.75a5.68,5.68,0,0,0,4,3.89c6.15,1.69,7.12-4.12,7.05-8.59a148.23,148.23,0,0,1,2.66-31.25c4.57-22.91,15.63-46,37-57.51l-2-.53,29.37,51.41q7.35,12.85,14.69,25.7c2,3.48,3.74,8,6.31,11.06,1.09,1.27,2.41,2.32,4.24,2,2.61-.51,3.31-3.41,4.29-5.52q2.91-6.21,5.81-12.44l12.44-26.66,12.45-26.66,5.73-12.29c1.67-3.57,4-7.31,5-11.15l-1.85,1a62.67,62.67,0,0,1,7.37,2.85c1.56.74,4.92,1.86,5.92,3.26,1.4,1.94.7,5.36.7,7.6v76.08c0,4.7-1.65,12,4.69,12.86,5.13.65,10.78,0,15.95,0h66.38c2.91,0,7.39.95,9.73-1.38s1.38-6.43,1.38-9.21V159.07a1.51,1.51,0,0,0-2.25-1.29c-1.78,1-5.86,2.41-6.92,4.23-1.35,2.3-.21,7.81-.21,10.53v70.37a1.5,1.5,0,0,0,3,0V180.36c0-4.39.59-9.34,0-13.68-.36-2.71-.65-2.67,1.66-4l4-2.3-2.26-1.3v87.71c0,1.9.57,5,0,6.88-1.43,4.71-5.58,3.66-9,3.66H249.18c-1.28,0-2.69.11-4,0-3-.24-3.4.06-3.69-3.51-.17-2.08,0-4.27,0-6.35V168.4c0-5.06.64-5.57-3.64-8.1a63.22,63.22,0,0,0-12.55-5.52,1.52,1.52,0,0,0-1.84,1.05c-1,4.07-3.64,8.28-5.41,12.06l-5,10.67-10.78,23.1q-5.4,11.55-10.79,23.11-2.69,5.78-5.39,11.55c-.53,1.15-4.17,11.31-5.39,11.55-2.81.56-6.12-7.75-7.1-9.47l-6.78-11.86-12.73-22.28Q141.41,182,128.68,159.7a1.53,1.53,0,0,0-2.05-.54c-28.87,15.51-39.59,50.63-41,81.36-.18,4,.57,8.56-.08,12.47-.47,2.84-3.58,5-5.18,1.42-.92-2-.2-7-.17-9.18a151.25,151.25,0,0,1,3.63-30.86c3.44-15.23,9.51-30.22,19.44-42.42a67.74,67.74,0,0,1,19.87-16.85c9.5-5.23,19.78-7.06,30.46-8.06,1.32-.12,2.24-2.1.75-2.79a61.12,61.12,0,0,1-35.11-48.59c-2.07-19.38,6.51-39.16,21.3-51.65,16.1-13.59,38.63-17.18,58.34-10A59.52,59.52,0,0,1,237.15,80.1a60.17,60.17,0,0,1-32.81,63.23c-1.43.72-.61,2.71.76,2.8,12,.83,23.54,3,34.15,8.83a1.52,1.52,0,0,0,2.26-1.29c0-1.81,4-2.75,5.36-2.92a39,39,0,0,1,4.59,0H312l-1.5-1.5.44,6.38,1.5-1.5h-66a1.52,1.52,0,0,0-1.5,1.5v96.81a1.52,1.52,0,0,0,1.5,1.5h82.37a1.52,1.52,0,0,0,1.5-1.5v-9.53A1.5,1.5,0,0,0,327.26,242.91Z" transform="translate(-76.82 -27.4)" style="fill:#a3cc84"/><path d="M179,168.2c-10.06,0-16.75-7.76-21.59-15.74l-1.3,2.25a400.41,400.41,0,0,1,45.17-.67l-1.3-2.26c-4.7,7.91-11.18,15.67-21,16.42-1.91.15-1.93,3.15,0,3,10.94-.84,18.26-9,23.57-17.9a1.52,1.52,0,0,0-1.29-2.26,400.41,400.41,0,0,0-45.17.67,1.52,1.52,0,0,0-1.29,2.26c5.42,8.95,13,17.19,24.18,17.23A1.5,1.5,0,0,0,179,168.2Z" transform="translate(-76.82 -27.4)" style="fill:#a3cc84"/><path d="M126.29,89.81c.53-21.24,13.37-41.19,33.55-48.77a53.09,53.09,0,0,1,59.83,16.75c13.8,17.68,14.44,43.44,1.62,61.82-12.54,18-36,26.45-57.09,20.38-22.3-6.42-37.35-27.24-37.91-50.18-.05-1.93-3.05-1.94-3,0,.53,21.7,13.24,41.85,33.32,50.61,21,9.18,46.18,3.83,62-12.76,16.32-17.17,19.53-43.91,8.14-64.62s-35.9-31.75-59-27.32c-25.81,4.94-43.75,28.25-44.4,54.09C123.24,91.74,126.24,91.74,126.29,89.81Z" transform="translate(-76.82 -27.4)" style="fill:#a3cc84"/><path d="M132.31,159.83a65.5,65.5,0,0,1,14.93-4.06c1.72-.22,3.36-.65,4.59.44a18.5,18.5,0,0,1,2,3.06,52.87,52.87,0,0,0,3.36,4.41c5.22,6.18,11.88,10.53,20.07,11.19l-1.3-2.25q-8.07,18-16.16,36h2.6l-29.16-51a1.5,1.5,0,0,0-2.59,1.52q14.58,25.52,29.15,51a1.52,1.52,0,0,0,2.6,0l16.15-36a1.53,1.53,0,0,0-1.29-2.26c-11.18-.9-18.66-9.92-23.88-19a1.42,1.42,0,0,0-1.29-.74,83.7,83.7,0,0,0-20.54,4.83C129.73,157.63,130.5,160.53,132.31,159.83Z" transform="translate(-76.82 -27.4)" style="fill:#a3cc84"/><path d="M181,241.25l-15.76-27.6-.24,1.82c3.5-4.37,5.31-10.89,7.6-16l8.16-18.2h-2.59q3.29,7.58,6.59,15.15l3.1,7.14c1,2.34,3.16,5.52,3.49,8,.56,4.09-3.87,10.22-5.58,13.9q-3.68,7.88-7.36,15.75c-.81,1.74,1.78,3.26,2.59,1.51q4.08-8.72,8.15-17.45c1.2-2.56,2.39-5.11,3.58-7.67.68-1.45,2.24-3.52,2.17-5.22s-1.78-4.24-2.51-5.9l-3.88-8.92-7.75-17.82a1.5,1.5,0,0,0-2.59,0q-3.69,8.24-7.39,16.46l-3.49,7.8c-1.33,3-2.39,6.78-4.41,9.31a1.57,1.57,0,0,0-.23,1.82l15.76,27.59A1.5,1.5,0,0,0,181,241.25Z" transform="translate(-76.82 -27.4)" style="fill:#a3cc84"/><path d="M197.48,205.89l-7.67-17.63c-2.19-5-3.89-11.34-6.93-15.89l-.89,2.2c10.38-2,21.15-11.31,24.68-21.4l-1.45,1.1a104,104,0,0,1,14.69,2.14l-.9-2.2-24.12,51.68c-.81,1.74,1.77,3.26,2.59,1.51l24.12-51.68a1.51,1.51,0,0,0-.89-2.2,109.3,109.3,0,0,0-15.49-2.25,1.51,1.51,0,0,0-1.44,1.1c-3.19,9.12-13.34,17.54-22.59,19.31a1.51,1.51,0,0,0-.9,2.2c3,4.56,4.74,10.86,6.93,15.9q3.84,8.81,7.67,17.62C195.66,209.17,198.24,207.64,197.48,205.89Z" transform="translate(-76.82 -27.4)" style="fill:#a3cc84"/></svg>