<svg xmlns="http://www.w3.org/2000/svg" width="35.104" height="46.876" viewBox="0 0 35.104 46.876">
  <g id="حساب_الرسوم" data-name="حساب الرسوم" transform="translate(0.25 0.25)">
    <path id="Path_2701" data-name="Path 2701" d="M1204.595,349.31h0Z" transform="translate(-1200.666 -347.825)" fill="#fff" stroke="#fff" stroke-miterlimit="10" stroke-width="0.5"/>
    <path id="Path_2702" data-name="Path 2702" d="M1215.054,380.8V344.661a4.853,4.853,0,0,0-1.126-3.092,4.184,4.184,0,0,0-3.15-1.488h-26.163a4.183,4.183,0,0,0-3.157,1.643,4.878,4.878,0,0,0-1,2.941v37.217a4.8,4.8,0,0,0,1.2,3.174,4.17,4.17,0,0,0,3.078,1.4H1210.8a4.169,4.169,0,0,0,3.2-1.554,4.89,4.89,0,0,0,1.067-3.028C1215.054,381.515,1215.054,381.16,1215.054,380.8ZM1211.876,384.764Zm1.815-2.906v.019a2.747,2.747,0,0,1-.01.282c0,.032-.018.179-.011.14a.965.965,0,0,1-.024.15c-.026.129-.056.256-.092.38-.019.064-.043.13-.064.2a.277.277,0,0,1-.021.055v.013a4.234,4.234,0,0,1-.36.66l-.076.1c-.042.053-.085.1-.127.15a3.823,3.823,0,0,1-.278.282l-.055.048c-.051.037-.1.079-.161.116a3.15,3.15,0,0,1-.331.2c-.048.027-.1.053-.15.079h0l-.06.026a3.6,3.6,0,0,1-.372.124c-.064.018-.129.034-.193.047l-.113.023a.018.018,0,0,0-.011,0h-.061a.765.765,0,0,1-.085,0H1184.73c-.119,0-.238-.01-.354-.016h-.069c-.064-.013-.132-.026-.2-.042a3.869,3.869,0,0,1-.4-.124l-.117-.05c-.043-.019-.085-.042-.125-.064-.122-.066-.241-.142-.357-.219-.052-.037-.1-.079-.151-.114l-.058-.05a3.737,3.737,0,0,1-.3-.3,2.044,2.044,0,0,1-.129-.161l-.045-.063c-.072-.124-.161-.238-.222-.365a3.139,3.139,0,0,1-.15-.322s-.024-.058-.037-.1c-.024-.074-.048-.15-.069-.225a3.844,3.844,0,0,1-.092-.41.567.567,0,0,0-.013-.076h0c0-.082-.011-.161-.014-.248v-37.54c0-.061.011-.145.014-.216h0a.524.524,0,0,1,.016-.1,4.133,4.133,0,0,1,.093-.412c.019-.066.04-.134.061-.2q.017-.042.031-.085h0v-.01c.055-.124.113-.248.177-.365.027-.048.058-.1.088-.15s.039-.066.061-.1l.042-.063c.021-.029.077-.1.085-.111.037-.042.074-.089.109-.13a3.943,3.943,0,0,1,.322-.322l.016-.013a.063.063,0,0,0,.018-.013c.051-.039.1-.079.161-.114a3.694,3.694,0,0,1,.355-.219l.135-.066.032-.013.08-.029a2.678,2.678,0,0,1,.406-.121c.063-.016.127-.026.191-.04h.055a.055.055,0,0,0,.021,0c.106-.01.214-.013.322-.016h26.293l.161.016c.253.05.483.142.732.212a.621.621,0,0,1,.063.034c.058.029.116.061.172.095a3.056,3.056,0,0,1,.349.232l.064.048.14.127a3.7,3.7,0,0,1,.286.311c.043.051.082.1.122.161-.085-.111.01.018.04.063a3.579,3.579,0,0,1,.212.375c.031.063.058.125.085.187,0,.016.016.032.022.053a.085.085,0,0,0,0,.019c.043.13.085.264.119.4s.051.235.071.354a1.335,1.335,0,0,1,.011.143c0,.095.01.187.01.28v37.194Z" transform="translate(-1180.46 -340.08)" fill="#fff" stroke="#fff" stroke-miterlimit="10" stroke-width="0.5"/>
    <path id="Path_2703" data-name="Path 2703" d="M1360.2,375.451a.224.224,0,0,1-.071-.021A.235.235,0,0,0,1360.2,375.451Z" transform="translate(-1331.222 -369.742)" fill="#fff" stroke="#fff" stroke-miterlimit="10" stroke-width="0.5"/>
    <path id="Path_2704" data-name="Path 2704" d="M1364.163,377.8h0a.354.354,0,0,1-.072-.055S1364.1,377.773,1364.163,377.8Z" transform="translate(-1334.545 -371.689)" fill="#fff" stroke="#fff" stroke-miterlimit="10" stroke-width="0.5"/>
    <path id="Path_2705" data-name="Path 2705" d="M1215.491,375.344h0l-.061.027C1215.5,375.36,1215.522,375.338,1215.491,375.344Z" transform="translate(-1209.803 -369.669)" fill="#fff" stroke="#fff" stroke-miterlimit="10" stroke-width="0.5"/>
    <path id="Path_2706" data-name="Path 2706" d="M1355.522,374.18h0a.438.438,0,0,1-.092,0A.3.3,0,0,0,1355.522,374.18Z" transform="translate(-1327.278 -368.693)" fill="#fff" stroke="#fff" stroke-miterlimit="10" stroke-width="0.5"/>
    <path id="Path_2707" data-name="Path 2707" d="M1211.306,428.141l.039.034h.01C1211.281,428.1,1211.284,428.118,1211.306,428.141Z" transform="translate(-1206.331 -413.956)" fill="#fff" stroke="#fff" stroke-miterlimit="10" stroke-width="0.5"/>
    <path id="Path_2708" data-name="Path 2708" d="M1224.385,366.264a4.183,4.183,0,0,0-2.98-1.414c-.391-.013-.78,0-1.168,0H1200.3a4.244,4.244,0,0,0-1.829.412,4.5,4.5,0,0,0-2.212,2.494,6,6,0,0,0-.3,2.179v2.159a5.994,5.994,0,0,0,.3,2.177,4.476,4.476,0,0,0,2.195,2.486,4.28,4.28,0,0,0,1.847.418h21a4.183,4.183,0,0,0,3.02-1.34,4.8,4.8,0,0,0,1.255-3.242q.01-1.586,0-3.171A4.827,4.827,0,0,0,1224.385,366.264Zm-.192,6.309v.092a1.484,1.484,0,0,1-.01.206v.09c0,.032-.024.161,0,.037s-.014.089-.021.124-.021.114-.034.174a3.855,3.855,0,0,1-.1.378c-.013.032-.024.069-.037.1s-.048.117,0,.013-.034.079-.048.111a3.373,3.373,0,0,1-.174.339c-.027.048-.058.1-.089.143a.685.685,0,0,0-.045.072c-.014.026-.095.124-.019.029s-.055.072-.072.092l-.119.143a3.015,3.015,0,0,1-.243.253l-.111.1-.052.039a4.016,4.016,0,0,1-.566.349h0l-.021.01-.031.013a.011.011,0,0,1-.01,0l-.161.06a3.048,3.048,0,0,1-.335.1l-.183.039h-.024c-.127.013-.253.019-.381.023h-21.286a.979.979,0,0,1-.161-.016h-.026a3,3,0,0,1-.383-.092c-.109-.032-.217-.074-.322-.114a.107.107,0,0,1-.027-.013c-.061-.029-.122-.061-.18-.095a3.484,3.484,0,0,1-.31-.2l-.106-.077.018.019a.21.21,0,0,0-.027-.026l-.015-.01a.075.075,0,0,1-.026-.024.107.107,0,0,1-.024-.023,4.186,4.186,0,0,1-.483-.526c.055.066-.021-.029-.031-.045-.031-.045-.061-.095-.092-.14-.063-.108-.124-.219-.178-.336-.027-.056-.05-.108-.074-.161.034.076-.014-.035-.021-.055-.043-.124-.079-.248-.113-.377a3.437,3.437,0,0,1-.071-.346.18.18,0,0,0-.008-.052v.016c.022.117,0,.016,0-.013,0-.076-.011-.151-.015-.225v-3.311c0-.151.01-.3.021-.447l.01-.06c.01-.058.021-.117.034-.172.027-.127.061-.256.1-.383.019-.055.04-.114.058-.169.01-.021.016-.04.024-.06.053-.117.111-.232.172-.343s.124-.2.185-.3a.266.266,0,0,0,.018-.026c.043-.055.085-.108.132-.161.075-.089.161-.174.241-.256.039-.039.079-.074.121-.111.016-.013.116-.108.024-.023s0,0,.027-.019a3.86,3.86,0,0,1,.586-.362h0l.04-.021a.073.073,0,0,1,.031-.01c.055-.023.109-.042.161-.061a3.271,3.271,0,0,1,.356-.1l.143-.029h.04a.3.3,0,0,1,.048,0c.108-.011.211-.014.322-.018H1221.3q.134,0,.266.01a.469.469,0,0,1,.066.011.059.059,0,0,1,.043,0l.048.01h0l.051.01a3.118,3.118,0,0,1,.36.092c.079.026.161.071.249.1-.031-.013-.011-.023.027,0l.047.024h0l.027.013a1.6,1.6,0,0,1,.179.1,3.157,3.157,0,0,1,.309.2c.015.014.034.027.052.043a.1.1,0,0,1,.037.019l.035.032h0l.055.05a4.117,4.117,0,0,1,.463.512c.016.024.027.043.043.066s.061.095.088.143a3.718,3.718,0,0,1,.177.336c.021.043.039.088.058.135s.021.058.032.087a3.226,3.226,0,0,1,.108.376c.024.108.045.219.061.33v.068c0,.076.01.151.013.228.014.513,0,1.027,0,1.538,0,.558,0,1.133,0,1.707Z" transform="translate(-1193.466 -360.86)" fill="#fff" stroke="#fff" stroke-miterlimit="10" stroke-width="0.5"/>
    <path id="Path_2709" data-name="Path 2709" d="M1360.077,430.8l.055-.023C1360.027,430.8,1360.043,430.815,1360.077,430.8Z" transform="translate(-1331.156 -416.187)" fill="#fff" stroke="#fff" stroke-miterlimit="10" stroke-width="0.5"/>
    <path id="Path_2710" data-name="Path 2710" d="M1220.05,374.094a.066.066,0,0,0-.024,0h-.055a.018.018,0,0,0-.011,0C1220.053,374.1,1220.066,374.094,1220.05,374.094Z" transform="translate(-1213.605 -368.621)" fill="#fff" stroke="#fff" stroke-miterlimit="10" stroke-width="0.5"/>
    <path id="Path_2711" data-name="Path 2711" d="M1274.694,466.723v-.016a.268.268,0,0,0,0-.037A.118.118,0,0,0,1274.694,466.723Z" transform="translate(-1259.53 -446.302)" fill="#fff" stroke="#fff" stroke-miterlimit="10" stroke-width="0.5"/>
    <path id="Path_2712" data-name="Path 2712" d="M1219.018,456.09h-8.178a1.807,1.807,0,0,0-1.77,1.858v7.641a1.863,1.863,0,0,0,.988,1.659,1.92,1.92,0,0,0,.838.172h8.138a1.75,1.75,0,0,0,1.639-1.323,2.523,2.523,0,0,0,.068-.7V458.65a3.4,3.4,0,0,0-.224-1.64A1.723,1.723,0,0,0,1219.018,456.09Zm-8.6,1.3a.093.093,0,0,0-.024.016A.05.05,0,0,1,1210.421,457.387Zm-.2.254v.01S1210.22,457.644,1210.223,457.641Zm9.01,8.571.031-.01a.111.111,0,0,1-.032.01Zm.348-.346c-.018.031-.031.063-.048.092a.515.515,0,0,1-.047.063c-.01.01-.014.016-.014.019l-.058.058-.01.011h0a1.279,1.279,0,0,1-.119.08l-.035.01c-.04.01-.08.024-.119.037l-.021.01h-8.136a2.479,2.479,0,0,1-.274,0l-.031-.013c-.04-.013-.079-.023-.119-.037a.052.052,0,0,0-.021,0c-.024-.013-.05-.032-.068-.042s-.044-.029-.064-.045h0c-.014-.027-.052-.05-.072-.072a.456.456,0,0,1-.052-.063l.035.053a.676.676,0,0,1-.1-.18.68.68,0,0,0-.031-.1v-.023c0-.013-.01-.076-.01-.085v-7.781a1.462,1.462,0,0,0,.04-.177v-.01c.014-.032.031-.061.048-.095s.024-.045.037-.068a.16.16,0,0,0,.034-.034l.048-.058.021-.013a.941.941,0,0,1,.138-.092.137.137,0,0,0,.035,0,.5.5,0,0,0,.1-.029h8.309c.031,0,.113.01.15.01a.141.141,0,0,0,.034,0,.725.725,0,0,1,.079.026h0c.024.016.055.029.082.045a.656.656,0,0,0,.076.053l.058.058a.57.57,0,0,1,.04.05c.027.048.052.108.082.161h0a.4.4,0,0,0,.027.1h0a.43.43,0,0,0,0,.043v4.339c0,1.142.018,2.286,0,3.429v.114a.432.432,0,0,1-.053.161c.01-.019.016-.039.026-.061a.069.069,0,0,1,0,.055Z" transform="translate(-1204.466 -437.425)" fill="#fff" stroke="#fff" stroke-miterlimit="10" stroke-width="0.5"/>
    <path id="Path_2713" data-name="Path 2713" d="M1274.694,547.023v-.016a.267.267,0,0,0,0-.037A.118.118,0,0,0,1274.694,547.023Z" transform="translate(-1259.53 -513.682)" fill="#fff" stroke="#fff" stroke-miterlimit="10" stroke-width="0.5"/>
    <path id="Path_2714" data-name="Path 2714" d="M1219.018,536.42h-8.178a1.807,1.807,0,0,0-1.77,1.858v7.641a1.863,1.863,0,0,0,.988,1.659,1.92,1.92,0,0,0,.838.172h8.138a1.75,1.75,0,0,0,1.639-1.323,2.523,2.523,0,0,0,.068-.7v-6.75a3.4,3.4,0,0,0-.224-1.64A1.717,1.717,0,0,0,1219.018,536.42Zm-8.6,1.287a.1.1,0,0,0-.024.016Zm-.2.257v.01s0,0,0,0Zm9.01,8.571.031-.01Zm.348-.349c-.018.031-.031.063-.048.092a.525.525,0,0,1-.047.063c-.01.01-.014.016-.014.019l-.058.058-.01.01h0a1.279,1.279,0,0,1-.119.08l-.035.01c-.04.01-.08.024-.119.037l-.021.01h-8.136a2.494,2.494,0,0,1-.274,0l-.031-.013-.119-.037a.053.053,0,0,0-.021,0c-.024-.013-.05-.032-.068-.042s-.044-.029-.064-.045h0c-.014-.027-.052-.05-.072-.072a.453.453,0,0,1-.052-.063l.035.053a.7.7,0,0,1-.1-.18.678.678,0,0,0-.031-.1v-.023c0-.013-.01-.076-.01-.085V538.18a1.462,1.462,0,0,0,.04-.177v-.01c.014-.032.031-.061.048-.095s.024-.045.037-.068a.161.161,0,0,0,.034-.034l.048-.058.021-.013a.826.826,0,0,1,.138-.092.137.137,0,0,0,.035,0,.5.5,0,0,0,.1-.029h8.309c.031,0,.113.011.15.011a.141.141,0,0,0,.034,0,.713.713,0,0,1,.079.026h0c.024.016.055.029.082.045a.648.648,0,0,0,.076.053l.058.058a.575.575,0,0,1,.04.05c.027.048.052.108.082.161h0a.4.4,0,0,0,.027.1h0a.43.43,0,0,0,0,.043V542.5c0,1.142.018,2.285,0,3.429v.114a.432.432,0,0,1-.053.161c.01-.019.016-.039.026-.061a.067.067,0,0,1,0,.053Z" transform="translate(-1204.466 -504.83)" fill="#fff" stroke="#fff" stroke-miterlimit="10" stroke-width="0.5"/>
    <path id="Path_2715" data-name="Path 2715" d="M1362.8,547.023v-.016a.234.234,0,0,0,0-.037A.1.1,0,0,0,1362.8,547.023Z" transform="translate(-1333.46 -513.682)" fill="#fff" stroke="#fff" stroke-miterlimit="10" stroke-width="0.5"/>
    <path id="Path_2716" data-name="Path 2716" d="M1307.126,536.42h-8.177a1.807,1.807,0,0,0-1.77,1.858v7.641a1.863,1.863,0,0,0,.988,1.659,1.916,1.916,0,0,0,.838.172h8.127a1.751,1.751,0,0,0,1.64-1.323,2.527,2.527,0,0,0,.068-.7v-6.75a3.4,3.4,0,0,0-.224-1.64A1.717,1.717,0,0,0,1307.126,536.42Zm-8.6,1.287a.1.1,0,0,0-.024.016Zm-.2.257v.01s0,0,0,0Zm9.01,8.571.031-.01Zm.348-.349c-.019.031-.031.063-.048.092a.524.524,0,0,1-.047.063c-.01.01-.015.016-.015.019-.019.019-.04.039-.058.058l-.01.01h0a1.247,1.247,0,0,1-.119.08l-.035.01c-.04.01-.08.024-.119.037l-.022.01h-8.135a2.494,2.494,0,0,1-.274,0l-.031-.013-.119-.037a.052.052,0,0,0-.021,0c-.026-.013-.05-.032-.068-.042a.773.773,0,0,1-.064-.045h0c-.015-.027-.052-.05-.072-.072a.619.619,0,0,1-.053-.063c.013.016.026.037.037.053a.7.7,0,0,1-.1-.18.678.678,0,0,0-.031-.1v-.023c0-.013-.01-.076-.01-.085V538.18a1.461,1.461,0,0,0,.04-.177v-.01c.015-.032.031-.061.048-.095s.024-.045.037-.068a.221.221,0,0,0,.034-.034l.048-.058.021-.013a.826.826,0,0,1,.138-.092.137.137,0,0,0,.035,0,.494.494,0,0,0,.1-.029h8.309c.031,0,.113.011.15.011a.141.141,0,0,0,.034,0,.725.725,0,0,1,.079.026h0c.024.016.055.029.082.045a.636.636,0,0,0,.076.053c.018.019.04.039.058.058s.027.034.04.05c.027.048.052.108.082.161h0a.4.4,0,0,0,.027.1h0a.369.369,0,0,0,0,.043V542.5c0,1.142.019,2.285,0,3.429v.114a.434.434,0,0,1-.053.161c.01-.019.016-.039.026-.061a.062.062,0,0,1,.006.053Z" transform="translate(-1278.4 -504.83)" fill="#fff" stroke="#fff" stroke-miterlimit="10" stroke-width="0.5"/>
    <path id="Path_2717" data-name="Path 2717" d="M1295.827,468.4h8.127a1.752,1.752,0,0,0,1.64-1.323,2.536,2.536,0,0,0,.068-.7v-6.753a3.4,3.4,0,0,0-.224-1.639,1.712,1.712,0,0,0-1.49-.925h-8.178a1.807,1.807,0,0,0-1.77,1.858v7.641a1.86,1.86,0,0,0,.988,1.659A1.894,1.894,0,0,0,1295.827,468.4Zm8.334-1.208a.139.139,0,0,1,.031-.01Zm-8.814-8.83a.1.1,0,0,0-.024.016Zm-.119.121a.16.16,0,0,0,.034-.032c.01-.01.031-.035.05-.06l.021-.013a1.184,1.184,0,0,1,.137-.092.148.148,0,0,0,.037,0,.485.485,0,0,0,.1-.029h8.31c.031,0,.114.01.15.01a.165.165,0,0,0,.034,0,.762.762,0,0,1,.079.026h0c.024.018.055.031.082.047a.645.645,0,0,0,.077.052h0l.058.06a.35.35,0,0,1,.04.048c.027.05.052.108.082.161h0c.01.035.019.068.027.1h0a.4.4,0,0,0,0,.042v4.339c0,1.144.018,2.286,0,3.429v.114a.465.465,0,0,1-.051.161c.01-.019.014-.04.024-.063l-.027.06c-.018.029-.031.061-.048.092a.521.521,0,0,1-.047.061c-.008.01-.014.016-.014.019l-.058.06-.01.01h0a1.283,1.283,0,0,1-.119.082.143.143,0,0,0-.035.01c-.04.01-.081.023-.119.035l-.021.01h-8.128a2.477,2.477,0,0,1-.273,0l-.031-.013-.119-.035a.049.049,0,0,0-.021,0c-.024-.013-.05-.032-.068-.043s-.042-.029-.064-.045h0c-.015-.026-.052-.048-.073-.072a.609.609,0,0,1-.051-.061l.035.052a.693.693,0,0,1-.1-.179.609.609,0,0,0-.03-.1s0-.01,0-.023V458.82c.011-.016.024-.121.039-.175v-.01a1.023,1.023,0,0,1,.048-.095A.324.324,0,0,0,1295.229,458.478Zm-.085.146v-.01Z" transform="translate(-1275.731 -438.238)" fill="#fff" stroke="#fff" stroke-miterlimit="10" stroke-width="0.5"/>
    <path id="Path_2718" data-name="Path 2718" d="M1359.606,467.732v-.016a.342.342,0,0,0,0-.035C1359.593,467.693,1359.6,467.732,1359.606,467.732Z" transform="translate(-1330.777 -447.15)" fill="#fff" stroke="#fff" stroke-miterlimit="10" stroke-width="0.5"/>
    <path id="Path_2719" data-name="Path 2719" d="M1231.2,472.846h-2.092V470.41a.55.55,0,1,0-1.1,0v2.436h-2.159a.589.589,0,0,0,0,1.176h2.159v2.119a.55.55,0,1,0,1.1,0V474.03h2.092a.589.589,0,0,0,0-1.176Z" transform="translate(-1218.078 -448.944)" fill="#fff" stroke="#fff" stroke-miterlimit="10" stroke-width="0.5"/>
    <path id="Path_2720" data-name="Path 2720" d="M1310.748,489.866h5.348a.589.589,0,0,0,0-1.176h-5.348a.579.579,0,0,0-.549.589A.586.586,0,0,0,1310.748,489.866Z" transform="translate(-1289.325 -464.779)" fill="#fff" stroke="#fff" stroke-miterlimit="10" stroke-width="0.5"/>
    <path id="Path_2721" data-name="Path 2721" d="M1319.314,562.42h-5.348a.589.589,0,0,0,0,1.174h5.348a.589.589,0,0,0,0-1.174Z" transform="translate(-1292.028 -526.647)" fill="#fff" stroke="#fff" stroke-miterlimit="10" stroke-width="0.5"/>
    <path id="Path_2722" data-name="Path 2722" d="M1319.248,575.67H1313.9a.589.589,0,0,0,0,1.176h5.348a.589.589,0,0,0,0-1.176Z" transform="translate(-1291.961 -537.765)" fill="#fff" stroke="#fff" stroke-miterlimit="10" stroke-width="0.5"/>
    <path id="Path_2723" data-name="Path 2723" d="M1233.648,560.367l-1.57-1.205,1.5-1.3a.626.626,0,0,0,.082-.827.533.533,0,0,0-.771-.087l-1.736,1.5-1.854-1.421a.529.529,0,0,0-.764.138.626.626,0,0,0,.127.819l1.609,1.231-1.538,1.329a.627.627,0,0,0-.082.827.534.534,0,0,0,.771.089l1.77-1.535,1.82,1.393a.528.528,0,0,0,.764-.137A.626.626,0,0,0,1233.648,560.367Z" transform="translate(-1220.717 -521.951)" fill="#fff" stroke="#fff" stroke-miterlimit="10" stroke-width="0.5"/>
  </g>
</svg>
