<svg id="Layer_1" data-name="Layer 1" xmlns="http://www.w3.org/2000/svg" viewBox="0 0 212.62 284.91"><g id="حساب_الرسوم" data-name="حساب الرسوم"><path id="Path_2701" data-name="Path 2701" d="M95.53,21.21Z" transform="translate(-71.38 -12.09)" style="fill:#a3cc84"/><path id="Path_2702" data-name="Path 2702" d="M283.92,262.25v-222a29.77,29.77,0,0,0-6.92-19,25.69,25.69,0,0,0-19.35-9.15H96.92a25.69,25.69,0,0,0-19.4,10.1,30,30,0,0,0-6.14,18.07V268.9a29.49,29.49,0,0,0,7.37,19.5A25.64,25.64,0,0,0,97.66,297H257.79a25.59,25.59,0,0,0,19.65-9.55,30,30,0,0,0,6.56-18.6C283.92,266.64,283.92,264.46,283.92,262.25Zm-8.37,6.5v.12c0,.58,0,1.16-.07,1.73,0,.2-.11,1.1-.06.86a7.06,7.06,0,0,1-.15.92q-.24,1.2-.57,2.34c-.11.39-.26.8-.39,1.23a1.33,1.33,0,0,1-.13.33v.08a24.91,24.91,0,0,1-2.21,4.06l-.47.61c-.25.33-.52.62-.78.92-.54.61-1.11,1.19-1.7,1.74l-.34.29c-.32.23-.62.49-1,.71a16.24,16.24,0,0,1-2,1.23c-.29.17-.61.33-.92.49h0l-.37.16a22.57,22.57,0,0,1-2.28.76c-.39.11-.79.21-1.19.29l-.69.14H97.62c-.73,0-1.46-.06-2.17-.1H95c-.4-.08-.81-.16-1.23-.26a22.61,22.61,0,0,1-2.46-.76l-.72-.3c-.26-.12-.52-.26-.77-.4-.75-.4-1.48-.87-2.19-1.34-.32-.23-.61-.49-.93-.7l-.35-.31a22.94,22.94,0,0,1-1.85-1.84c-.28-.32-.54-.65-.79-1l-.28-.39c-.44-.76-1-1.46-1.36-2.24a17.79,17.79,0,0,1-.92-2s-.15-.36-.23-.61c-.15-.46-.29-.93-.42-1.39a21.84,21.84,0,0,1-.57-2.52,2.46,2.46,0,0,0-.08-.46h0c0-.51-.07-1-.08-1.53V39c0-.38.06-.89.08-1.33h0a3.11,3.11,0,0,1,.1-.61c.15-.86.34-1.7.57-2.54.12-.4.25-.82.38-1.22.07-.18.13-.35.19-.53h0v-.06c.33-.76.69-1.52,1.08-2.24.17-.3.36-.61.54-.92s.24-.41.38-.62l.26-.38.52-.69c.23-.25.45-.54.67-.79a23.12,23.12,0,0,1,2-2l.1-.08.11-.08a7.56,7.56,0,0,1,1-.7,22,22,0,0,1,2.18-1.35l.83-.4.19-.08.49-.18a16.69,16.69,0,0,1,2.5-.74c.38-.1.78-.16,1.17-.25h.34a.29.29,0,0,0,.13,0c.65-.06,1.31-.08,2-.1H259.09l1,.1c1.55.31,3,.87,4.49,1.3a2.42,2.42,0,0,1,.39.21c.36.18.71.38,1.06.58a20.43,20.43,0,0,1,2.14,1.43l.39.29.87.79a22.64,22.64,0,0,1,1.75,1.91,8.43,8.43,0,0,1,.75,1c-.52-.68.06.12.25.39a21.73,21.73,0,0,1,1.3,2.31c.19.38.36.76.52,1.14,0,.1.1.2.14.33a.24.24,0,0,0,0,.12c.26.8.52,1.62.73,2.45s.31,1.45.43,2.18a6.4,6.4,0,0,1,.07.88c0,.58.06,1.15.06,1.72v228.5Z" transform="translate(-71.38 -12.09)" style="fill:#a3cc84"/><path id="Path_2703" data-name="Path 2703" d="M249.42,47.16A1.39,1.39,0,0,1,249,47,1.39,1.39,0,0,0,249.42,47.16Z" transform="translate(-71.38 -12.09)" style="fill:#a3cc84"/><path id="Path_2704" data-name="Path 2704" d="M253.35,49.63h0a2.07,2.07,0,0,1-.44-.34S253,49.47,253.35,49.63Z" transform="translate(-71.38 -12.09)" style="fill:#a3cc84"/><path id="Path_2705" data-name="Path 2705" d="M106.34,47h0l-.38.17C106.39,47.05,106.53,46.92,106.34,47Z" transform="translate(-71.38 -12.09)" style="fill:#a3cc84"/><path id="Path_2706" data-name="Path 2706" d="M244.91,45.8h0a2.72,2.72,0,0,1-.57,0A1.82,1.82,0,0,0,244.91,45.8Z" transform="translate(-71.38 -12.09)" style="fill:#a3cc84"/><path id="Path_2707" data-name="Path 2707" d="M102,99.23l.23.21h.07C101.8,99,101.82,99.09,102,99.23Z" transform="translate(-71.38 -12.09)" style="fill:#a3cc84"/><path id="Path_2708" data-name="Path 2708" d="M261.34,45.29A25.7,25.7,0,0,0,243,36.6c-2.41-.08-4.8,0-7.18,0H113.38a26.16,26.16,0,0,0-11.24,2.53A27.68,27.68,0,0,0,88.55,54.45a36.86,36.86,0,0,0-1.84,13.39V81.1a36.81,36.81,0,0,0,1.84,13.38A27.45,27.45,0,0,0,102,109.75a26.34,26.34,0,0,0,11.34,2.57h129A25.69,25.69,0,0,0,261,104.09a29.5,29.5,0,0,0,7.71-19.92q.06-9.75,0-19.48A29.58,29.58,0,0,0,261.34,45.29Zm-1.18,38.76v.56a8.93,8.93,0,0,1-.06,1.27v.55c0,.2-.15,1,0,.23s-.08.55-.13.76-.13.7-.21,1.07a23.28,23.28,0,0,1-.61,2.32c-.08.2-.15.43-.23.62s-.29.71,0,.08-.21.48-.29.68a22.66,22.66,0,0,1-1.07,2.08c-.17.3-.36.61-.55.88a4,4,0,0,0-.27.44c-.09.16-.59.76-.12.18l-.44.56-.74.88A16.87,16.87,0,0,1,254,98.77l-.68.61-.32.24a24.86,24.86,0,0,1-3.48,2.15h0l-.13.06-.19.08a.06.06,0,0,1-.06,0l-1,.37a20.36,20.36,0,0,1-2.06.61l-1.12.24h-.15c-.78.08-1.55.12-2.34.14H111.66a5.54,5.54,0,0,1-1-.1h-.16a17.45,17.45,0,0,1-2.35-.56c-.67-.2-1.33-.46-2-.7a.8.8,0,0,1-.16-.08c-.38-.18-.75-.38-1.11-.59A19.36,19.36,0,0,1,103,100l-.65-.47.11.12a1.21,1.21,0,0,0-.16-.16l-.09-.06a.46.46,0,0,1-.16-.15.67.67,0,0,1-.15-.14,26,26,0,0,1-3-3.23c.34.4-.13-.18-.19-.28-.19-.28-.37-.58-.57-.86-.38-.66-.76-1.35-1.09-2.06-.16-.35-.31-.67-.45-1,.21.46-.09-.22-.13-.34-.27-.76-.49-1.52-.7-2.32s-.32-1.41-.43-2.12a1.13,1.13,0,0,0-.05-.32v.1c.13.71,0,.09,0-.08,0-.47-.07-.93-.09-1.39V64.92c0-.93.06-1.84.12-2.74l.07-.37c.06-.36.12-.72.2-1.06.17-.78.38-1.57.62-2.35.12-.34.25-.7.36-1,.06-.13.09-.25.14-.37.33-.72.68-1.42,1.06-2.11s.76-1.22,1.14-1.84l.11-.16c.26-.34.52-.66.81-1,.46-.54,1-1.07,1.48-1.57.24-.24.48-.46.74-.68.1-.08.71-.67.15-.14s0,0,.16-.12A23.48,23.48,0,0,1,106,47.16h0l.24-.13a.44.44,0,0,1,.19-.07c.34-.14.67-.25,1-.37a18.73,18.73,0,0,1,2.19-.61l.88-.18H111c.66-.07,1.29-.09,2-.11H242.39c.55,0,1.09,0,1.63.06a1.85,1.85,0,0,1,.41.07.3.3,0,0,1,.26,0l.3.06h0l.31.06a18.33,18.33,0,0,1,2.21.56c.49.16,1,.44,1.53.62-.19-.08-.06-.14.17,0l.29.15h0l.16.08a9.06,9.06,0,0,1,1.1.61,18.12,18.12,0,0,1,1.9,1.23c.09.08.21.16.32.26a1,1,0,0,1,.23.12l.21.2h0l.34.3a25,25,0,0,1,2.85,3.15c.09.15.16.26.26.4s.38.59.54.88a22.66,22.66,0,0,1,1.09,2.07,9,9,0,0,1,.35.83c.12.29.13.35.2.53a19,19,0,0,1,.66,2.31c.15.66.28,1.35.38,2v.42c0,.46.06.92.08,1.4.09,3.15,0,6.31,0,9.45V84.05Z" transform="translate(-71.38 -12.09)" style="fill:#a3cc84"/><path id="Path_2709" data-name="Path 2709" d="M249.07,101.86l.34-.14C248.76,101.86,248.86,102,249.07,101.86Z" transform="translate(-71.38 -12.09)" style="fill:#a3cc84"/><path id="Path_2710" data-name="Path 2710" d="M111,45.71h-.56C111,45.75,111.08,45.71,111,45.71Z" transform="translate(-71.38 -12.09)" style="fill:#a3cc84"/><path id="Path_2711" data-name="Path 2711" d="M164.55,137.55v-.1a.89.89,0,0,0,0-.23A.91.91,0,0,0,164.55,137.55Z" transform="translate(-71.38 -12.09)" style="fill:#a3cc84"/><path id="Path_2712" data-name="Path 2712" d="M160.79,126.76H110.55a11.1,11.1,0,0,0-10.88,11.32v47a11.43,11.43,0,0,0,6.07,10.2,11.81,11.81,0,0,0,5.14,1.05h50A10.75,10.75,0,0,0,171,188.24a15.62,15.62,0,0,0,.42-4.31V142.48A20.86,20.86,0,0,0,170,132.41,10.56,10.56,0,0,0,160.79,126.76Zm-52.83,8a.56.56,0,0,0-.15.1.28.28,0,0,1,.17-.11Zm-1.23,1.56v.07s0-.07,0-.08ZM162.08,189l.19-.06a.7.7,0,0,1-.19.06Zm2.14-2.13c-.11.19-.19.39-.29.57a4,4,0,0,1-.29.39c-.06.06-.09.09-.09.11l-.36.36-.06.07h0c-.23.17-.48.34-.73.49l-.21.06c-.25.06-.49.15-.73.23l-.13.06h-50a15.69,15.69,0,0,1-1.68,0l-.19-.08c-.25-.08-.49-.14-.73-.23a.28.28,0,0,0-.13,0c-.15-.08-.31-.19-.42-.26a2.76,2.76,0,0,1-.39-.27h0c-.09-.17-.32-.31-.44-.44a2.37,2.37,0,0,1-.32-.39l.21.32a3.82,3.82,0,0,1-.61-1.1,4.44,4.44,0,0,0-.19-.62V186c0-.08-.06-.46-.06-.52v-47.8a10.08,10.08,0,0,0,.24-1.09v-.06c.09-.2.19-.38.3-.59s.14-.27.22-.41a1,1,0,0,0,.21-.21l.3-.36.13-.08a5.34,5.34,0,0,1,.84-.56h.22a3.28,3.28,0,0,0,.61-.18h51.05c.19,0,.69.06.92.06h.21a4.66,4.66,0,0,1,.49.16h0c.14.1.33.18.5.28a3.88,3.88,0,0,0,.47.32l.35.36a3.76,3.76,0,0,1,.25.31c.16.29.32.66.5,1h0a2.58,2.58,0,0,0,.17.62h0a1.13,1.13,0,0,0,0,.26v26.66c0,7,.11,14,0,21.07v.7a2.58,2.58,0,0,1-.33,1c.06-.12.1-.24.16-.38a.4.4,0,0,1,0,.34Z" transform="translate(-71.38 -12.09)" style="fill:#a3cc84"/><path id="Path_2713" data-name="Path 2713" d="M164.55,216.92v-.1a.88.88,0,0,0,0-.23A.92.92,0,0,0,164.55,216.92Z" transform="translate(-71.38 -12.09)" style="fill:#a3cc84"/><path id="Path_2714" data-name="Path 2714" d="M160.79,206.16H110.55a11.1,11.1,0,0,0-10.88,11.32v47a11.42,11.42,0,0,0,6.07,10.19,11.68,11.68,0,0,0,5.14,1.06h50A10.76,10.76,0,0,0,171,267.64a15.55,15.55,0,0,0,.42-4.3V221.87A20.86,20.86,0,0,0,170,211.8,10.55,10.55,0,0,0,160.79,206.16ZM108,214.07a.4.4,0,0,0-.15.1Zm-1.23,1.58v.06h0Zm55.35,52.65.19-.06Zm2.14-2.14c-.11.19-.19.39-.29.56a4,4,0,0,1-.29.39q-.09.09-.09.12l-.36.35-.06.07h0c-.23.17-.48.34-.73.49l-.21.06c-.25.06-.49.15-.73.23l-.13.06h-50a15.69,15.69,0,0,1-1.68,0l-.19-.08-.73-.23h-.13c-.15-.08-.31-.2-.42-.26a4,4,0,0,1-.39-.27h0c-.09-.17-.32-.31-.44-.45a2.8,2.8,0,0,1-.32-.38l.21.32a4.23,4.23,0,0,1-.61-1.1,4.44,4.44,0,0,0-.19-.62v-.14c0-.08-.06-.47-.06-.52V217a9.91,9.91,0,0,0,.24-1.08v-.06c.09-.2.19-.38.3-.59s.14-.27.22-.42a.8.8,0,0,0,.21-.2l.3-.36.13-.08a4.78,4.78,0,0,1,.84-.57h.22a2.64,2.64,0,0,0,.61-.17h51.05c.19,0,.69.06.92.06h.21l.49.16h0c.14.1.33.18.5.28a4,4,0,0,0,.47.33l.35.35a3.76,3.76,0,0,1,.25.31c.16.29.32.66.5,1h0a2.51,2.51,0,0,0,.17.61h0a1.22,1.22,0,0,0,0,.27v26.71c0,7,.11,14,0,21.07v.7a2.47,2.47,0,0,1-.33,1c.06-.12.1-.24.16-.37a.36.36,0,0,1,0,.32Z" transform="translate(-71.38 -12.09)" style="fill:#a3cc84"/><path id="Path_2715" data-name="Path 2715" d="M251.64,216.92v-.1a.88.88,0,0,0,0-.23A.62.62,0,0,0,251.64,216.92Z" transform="translate(-71.38 -12.09)" style="fill:#a3cc84"/><path id="Path_2716" data-name="Path 2716" d="M247.87,206.16H197.63a11.09,11.09,0,0,0-10.87,11.32v47a11.45,11.45,0,0,0,6.07,10.19,11.69,11.69,0,0,0,5.15,1.06h49.93A10.76,10.76,0,0,0,258,267.64a15.55,15.55,0,0,0,.42-4.3V221.87A20.86,20.86,0,0,0,257,211.8,10.55,10.55,0,0,0,247.87,206.16ZM195,214.07a.4.4,0,0,0-.15.1Zm-1.23,1.58v.06h0Zm55.35,52.65.19-.06Zm2.14-2.14c-.12.19-.19.39-.3.56a2.19,2.19,0,0,1-.29.39q-.09.09-.09.12l-.35.35-.07.07h0a7.74,7.74,0,0,1-.73.49l-.21.06c-.25.06-.49.15-.73.23l-.14.06h-50a15.69,15.69,0,0,1-1.68,0l-.19-.08-.73-.23h-.13c-.16-.08-.31-.2-.42-.26l-.39-.27h0c-.09-.17-.32-.31-.44-.45a3.9,3.9,0,0,1-.33-.38,3.71,3.71,0,0,1,.23.32,4.27,4.27,0,0,1-.62-1.1,3.41,3.41,0,0,0-.19-.62v-.14c0-.08-.06-.47-.06-.52V217a8,8,0,0,0,.25-1.08v-.06c.09-.2.19-.38.29-.59l.23-.42a1.34,1.34,0,0,0,.21-.2l.29-.36.13-.08a5.26,5.26,0,0,1,.85-.57h.22a2.64,2.64,0,0,0,.61-.17h51.05c.19,0,.69.06.92.06h.21l.48.16h0c.15.1.34.18.51.28a3.83,3.83,0,0,0,.46.33c.11.11.25.23.36.35s.17.21.25.31c.16.29.32.66.5,1h0a2.13,2.13,0,0,0,.17.61h0a1.22,1.22,0,0,0,0,.27v26.71c0,7,.11,14,0,21.07v.7a2.82,2.82,0,0,1-.33,1c.06-.12.1-.24.16-.37a.39.39,0,0,1,0,.32Z" transform="translate(-71.38 -12.09)" style="fill:#a3cc84"/><path id="Path_2717" data-name="Path 2717" d="M194.85,197.39h49.93a10.78,10.78,0,0,0,10.08-8.13,15.94,15.94,0,0,0,.41-4.3V143.47a20.87,20.87,0,0,0-1.37-10.07,10.53,10.53,0,0,0-9.16-5.68H194.5A11.09,11.09,0,0,0,183.63,139v47a11.42,11.42,0,0,0,6.07,10.19A11.61,11.61,0,0,0,194.85,197.39Zm51.2-7.42a.7.7,0,0,1,.19-.06ZM191.9,135.72a.71.71,0,0,0-.14.1Zm-.73.74a1,1,0,0,0,.21-.19c.06-.06.19-.22.31-.37l.13-.08a6.89,6.89,0,0,1,.84-.57h.23a2.64,2.64,0,0,0,.61-.17h51.05c.19,0,.7.06.92.06h.21a2.81,2.81,0,0,1,.49.16h0c.15.11.34.19.5.29a3.94,3.94,0,0,0,.48.31h0l.35.37a1.81,1.81,0,0,1,.25.3c.16.31.32.66.5,1h0c.06.21.12.42.17.61h0a1.13,1.13,0,0,0,0,.26v26.66c0,7,.11,14,0,21.06v.7a2.88,2.88,0,0,1-.32,1,2.74,2.74,0,0,0,.15-.38l-.16.36c-.11.18-.19.38-.3.57a2.06,2.06,0,0,1-.29.37c-.05.07-.08.1-.08.12l-.36.37-.06.06h0a7.25,7.25,0,0,1-.73.5l-.22.07-.73.21-.13.06H195.26a15.69,15.69,0,0,1-1.68,0l-.19-.08-.73-.21a.29.29,0,0,0-.13,0c-.15-.08-.31-.2-.42-.27a3.48,3.48,0,0,1-.39-.27h0c-.09-.16-.32-.3-.45-.45a2.76,2.76,0,0,1-.31-.37l.21.32a4.55,4.55,0,0,1-.61-1.1,3.09,3.09,0,0,0-.19-.61V138.53c.07-.09.15-.74.24-1.07v-.06a6.54,6.54,0,0,1,.3-.59,2.16,2.16,0,0,0,.27-.38Zm-.52.9v0Z" transform="translate(-71.38 -12.09)" style="fill:#a3cc84"/><path id="Path_2718" data-name="Path 2718" d="M248.5,138.53v-.09a.81.81,0,0,0,0-.22C248.42,138.29,248.47,138.53,248.5,138.53Z" transform="translate(-71.38 -12.09)" style="fill:#a3cc84"/><path id="Path_2719" data-name="Path 2719" d="M152,158.93H139.15V144a3.38,3.38,0,1,0-6.75-.05v15H119.13a3.62,3.62,0,0,0,0,7.23H132.4v13a3.38,3.38,0,0,0,6.75.05v-13H152a3.62,3.62,0,0,0,0-7.22Z" transform="translate(-71.38 -12.09)" style="fill:#a3cc84"/><path id="Path_2720" data-name="Path 2720" d="M203,166.21h32.86a3.62,3.62,0,0,0,0-7.22H203a3.56,3.56,0,0,0-3.37,3.61A3.6,3.6,0,0,0,203,166.21Z" transform="translate(-71.38 -12.09)" style="fill:#a3cc84"/><path id="Path_2721" data-name="Path 2721" d="M239,231.86H206.17a3.62,3.62,0,0,0,0,7.21H239a3.62,3.62,0,0,0,0-7.21Z" transform="translate(-71.38 -12.09)" style="fill:#a3cc84"/><path id="Path_2722" data-name="Path 2722" d="M239,245H206.17a3.62,3.62,0,0,0,0,7.22H239a3.62,3.62,0,0,0,0-7.22Z" transform="translate(-71.38 -12.09)" style="fill:#a3cc84"/><path id="Path_2723" data-name="Path 2723" d="M150.83,248.1l-9.64-7.41,9.21-8a3.85,3.85,0,0,0,.51-5.08,3.28,3.28,0,0,0-4.59-.66l-.15.12-10.66,9.22-11.39-8.73a3.26,3.26,0,0,0-4.56.64l-.14.21a3.85,3.85,0,0,0,.78,5l9.89,7.56-9.45,8.16a3.86,3.86,0,0,0-.51,5.09,3.3,3.3,0,0,0,4.6.66l.14-.12,10.87-9.43,11.19,8.56a3.24,3.24,0,0,0,4.54-.63l.15-.21A3.84,3.84,0,0,0,150.83,248.1Z" transform="translate(-71.38 -12.09)" style="fill:#a3cc84"/></g></svg>