<svg xmlns="http://www.w3.org/2000/svg" width="54.719" height="46.892" viewBox="0 0 54.719 46.892">
  <g id="Group_30989" data-name="Group 30989" transform="translate(-51.294 -59.053)">
    <path id="Path_9814" data-name="Path 9814" d="M143.062,71.348a.734.734,0,0,0-.315-.183c-.037-.045-.095-.113-.171-.217a10.4,10.4,0,0,0-.81-.866c-.076-.081-.446-.493-.411-.433-.783-1.005-1.451-2.131-2.168-3.183a10.835,10.835,0,0,0-2.347-2.9,8.061,8.061,0,0,0-1.585-.867c-.433-.185-1.127-.262-1.454-.424a7.665,7.665,0,0,1-1.44-1.377,6.7,6.7,0,0,0-1.06-.986,7.9,7.9,0,0,0-1.742-.536,3.578,3.578,0,0,0-1.492-.308,10.775,10.775,0,0,0-1.826.739,32.835,32.835,0,0,1-5.2,1.092l-9.025,1.751c-.475.092-.95.182-1.425.276-.114.023-.23.049-.345.068a.614.614,0,0,0-.068,0c-.744.027-1.512-.076-2.252,0-.84.086-1.608.934-2.212,1.5-3.846,3.588-5.006,8.681-4.458,13.806a.811.811,0,0,0,.178.435.8.8,0,0,0,.388.318c2.156.856,4.25,1.9,6.432,2.679a10.533,10.533,0,0,0,4.9.744c.449-.061.685-.234.946-.2a6.487,6.487,0,0,1,1.212.439,16.845,16.845,0,0,0,4.145,1.218c.265.025.531.052.8.076a6.623,6.623,0,0,0-1.619,3.618l-6.421-1.482a.73.73,0,0,0-.757.253.835.835,0,0,0-.192.292L108.923,92.6c0,.01-.008.02-.012.029l-.017.044c-.005.014-.006.026-.011.039h0a.61.61,0,0,0,.177.705l4.723,7.688a.666.666,0,0,0,.508.435l19.039,4.386a.788.788,0,0,0,.975-.746v-.007l.343-3.456a16.534,16.534,0,0,0,.289-3.414,29.518,29.518,0,0,0-.852-3.438l-.853-3.444,0-.009a.657.657,0,0,0-.167-.331.618.618,0,0,0-.417-.217l-1.531-.353c.315-1.517.588-3-.071-4.359,1.1.306,2.205.614,3.306.916a20.571,20.571,0,0,0,3.168.872c.722.071,1.394-.636,1.779-1.214a4.563,4.563,0,0,0,.446-3.238,5.687,5.687,0,0,0-.862-2.5c1.149,0,2-1.136,2.544-2.029a15.412,15.412,0,0,0,1.742-4.5C143.359,73.612,143.785,72.067,143.062,71.348ZM128.324,60.609c.119-.05.129,0,0,0Zm4.42,35.184a17.277,17.277,0,0,1,.687,2.786c-.007-.026-.015,0-.025.131-.018.235-.047.47-.07.7l-.134,1.351-.725-2.824Q132.61,96.867,132.744,95.793Zm-17.762,4.3-3.71-6.039,17.446,4.058,2.351.547,1.4,5.462Zm16.662-7.866-.6,4.826L112.618,92.77l-1.934-.45,1.785-4.515Zm-11.061-4.919a2.826,2.826,0,0,1,1.813-2.447c1-.309,2.234.159,3.216.369a8.083,8.083,0,0,1,3.059.88c1.088.814,1.035,1.957.82,3.1Zm21.3-14.457a9.228,9.228,0,0,1-.376,1.879,10.732,10.732,0,0,1-1.914,4.157c-.332.38-.557.553-.883.48a7.238,7.238,0,0,1-1.718-.912c-.916-.525-1.819-1.074-2.715-1.633a3.333,3.333,0,0,1,2.016-3.335c.763-.4.235-1.736-.595-1.427-1.836.684-2.747-.824-3.462-2.318a.775.775,0,0,0-1.41.187c-.067.487-2.38.2-2.919.065a3.027,3.027,0,0,1-.548-.168c.08.015-.161-.232-.248-.291a.891.891,0,0,0-1-.13c-.687.351-1.132,1.56-1.465,2.189-.281.53-.552,1.067-.819,1.605l-2.027-.649a.785.785,0,0,0-.751,1.3c3.071,2.826,7.248,4.064,11.222,4.922,1.913.413,4.611,1.543,5.606,3.415a5.176,5.176,0,0,1,.38,3.117,2,2,0,0,1-.689,1.015c-4.234-1.176-8.473-2.356-12.743-3.4a11.135,11.135,0,0,0-2.309-.479c-.939-.017-1.874.025-2.828-.061-.291-.026-.589-.042-.878-.086-.328-.05-.132-.027-.12-.024-.491-.148-.971-.351-1.452-.525a15.917,15.917,0,0,0-2.922-1.057,8.019,8.019,0,0,0-1.632.266,7.321,7.321,0,0,1-2.131-.182,22.713,22.713,0,0,1-4.586-1.685c-1.058-.486-2.134-.917-3.214-1.346-.332-3.931.31-7.9,2.929-10.98a14.411,14.411,0,0,1,1.746-1.72c.287-.24.411-.445.571-.494a3.7,3.7,0,0,1,.932,0,10.594,10.594,0,0,0,1.863-.083c4.5-.793,8.977-1.742,13.463-2.612a10.217,10.217,0,0,0,3.928-1.167.88.88,0,0,1,.109-.068c.135.038.269.081.4.12.6.178,1.21.387,1.823.538a5.16,5.16,0,0,0,.5.468c.483.462.959.934,1.451,1.387a3.41,3.41,0,0,0,1.44.706,5.733,5.733,0,0,1,2.842,1.754c.593.785,1.113,1.653,1.668,2.467a18.7,18.7,0,0,0,3.468,4.383C141.877,72.6,141.88,72.838,141.879,72.854Zm-16.2.087c.15-.291.3-.582.456-.87.065-.119.346-.5.552-.829a6.724,6.724,0,0,0,4.724.239,4.937,4.937,0,0,0,2.282,2.133,4.519,4.519,0,0,0-.773,1.447C132.093,72.147,127.888,71.043,125.682,72.941Zm6.127,3.14-5.922-1.263C127.116,72.166,131.817,73.145,131.809,76.081Z" transform="translate(-37.455)" fill="#fff"/>
    <path id="Path_9815" data-name="Path 9815" d="M67.777,63.936a.751.751,0,0,0,0-1.437l-4.983-1.2c-1.47-.355-3.51-1.3-5.013-.8-5.837,1.975-7.375,9.22-6.038,14.583a.655.655,0,0,0,.5.511l.02.01,8.358,3.073c.5.184.895-.282.943-.718a39.168,39.168,0,0,1,1.251-6.23C63.564,69.073,64.8,64.882,67.777,63.936ZM61.594,70.6A40.507,40.507,0,0,0,60.2,76.941l-7.1-2.612a13.351,13.351,0,0,1,.48-7.614,8.835,8.835,0,0,1,2.175-3.32A6.842,6.842,0,0,1,57.517,62.2c.284-.132.92-.414.964-.415a7.739,7.739,0,0,1,1.782.43l2.978.719,2.3.556C63.44,65.163,62.334,68.181,61.594,70.6Z" transform="translate(0 -0.979)" fill="#fff"/>
  </g>
</svg>
