<svg id="Layer_1" data-name="Layer 1" xmlns="http://www.w3.org/2000/svg" viewBox="0 0 323.31 219.19"><path d="M324.28,131.15c-7.83-19.75-24.09-35.77-44.42-42.05C285.94,59.76,268.61,27.34,243,13,213.48-3.64,176.29,1.89,150.86,23.32a96.82,96.82,0,0,0-27.37,38.79C109.8,53.38,91.1,53,76.72,60.39c-15.48,7.93-24,25.35-22.73,42.28a56,56,0,0,0-31.17,14.9c-10.55,10.2-15.73,25.2-17.11,39.53a69.19,69.19,0,0,0,10.36,43.41c6.44,10.14,15.44,16.28,27,19.33a75.81,75.81,0,0,0,22.44,2.54H162v-8.73H65.52a67.57,67.57,0,0,1-20.12-2.23c-14.5-3.82-23.1-13.91-27.93-28-5.48-15.9-4.29-34.33,3.77-49.18A45.2,45.2,0,0,1,58.86,111a4.43,4.43,0,0,0,4.21-5.52c-2.83-14.71,4.64-30.68,18.05-37.53,12.69-6.47,30.61-5.41,41.38,4.3a4.42,4.42,0,0,0,7.29-1.92c8.85-27.2,30.72-50.38,59.17-56.69,29.35-6.5,59.64,5.91,74.56,32.21,7.73,13.62,11.32,29.92,6.89,45.21a4.41,4.41,0,0,0,3,5.37c19.39,4.61,35.45,19.2,42.66,37.73,7.43,19.06,3.75,39.7-8.16,56.09-9.7,13.33-24.61,23.24-41.44,23.43-4.28,0-8.56,0-12.83,0H225v8.73h30.27c3.85,0,7.71.05,11.56,0,19.69-.27,36.87-11.67,48.28-27.17C328.65,176.76,332.8,152.64,324.28,131.15Z" transform="translate(-5.4 -3.26)" style="fill:#010101"/><polygon points="231.5 180.88 188.43 128.72 148.09 180.88 168.69 180.88 168.69 219.19 208.18 219.19 208.18 180.88 231.5 180.88" style="fill:#010101"/></svg>