<svg id="Layer_1" data-name="Layer 1" xmlns="http://www.w3.org/2000/svg" viewBox="0 0 212.26 165.55"><path d="M29.59,213.5H47.71a5.15,5.15,0,0,0,5.08-5.07V73.2c0-6.24.13-12.49,0-18.73a2.25,2.25,0,0,1,0-.26,5.15,5.15,0,0,0-5.08-5.07H29.59a5.15,5.15,0,0,0-5.08,5.07V189.44c0,6.24-.13,12.49,0,18.73a2.26,2.26,0,0,1,0,.26,5.08,5.08,0,0,0,10.15,0V73.2c0-6.23.21-12.5,0-18.73a2.25,2.25,0,0,1,0-.26l-5.07,5.08H47.71l-5.07-5.08V189.44c0,6.23-.21,12.5,0,18.73v.26l5.07-5.07H29.59a5.07,5.07,0,1,0,0,10.14Z" transform="translate(-24.46 -47.95)"/><path d="M213.46,212.31h18.12a5.15,5.15,0,0,0,5.08-5.07V72c0-6.24.13-12.49,0-18.73a2.26,2.26,0,0,1,0-.26A5.15,5.15,0,0,0,231.58,48H213.46A5.15,5.15,0,0,0,208.38,53V188.25c0,6.24-.13,12.49,0,18.73a2.25,2.25,0,0,1,0,.26,5.08,5.08,0,0,0,10.15,0V72c0-6.23.21-12.5,0-18.73V53l-5.07,5.07h18.12L226.51,53V188.25c0,6.23-.21,12.5,0,18.73a2.25,2.25,0,0,1,0,.26l5.07-5.08H213.46a5.08,5.08,0,1,0,0,10.15Z" transform="translate(-24.46 -47.95)"/><rect x="2.13" y="17.75" width="207.6" height="67.91"/><path d="M26.59,135.49H225.72c2.7,0,5.42.07,8.12,0h.34a1.91,1.91,0,0,0,1.88-1.87V65.7a1.9,1.9,0,0,0-1.88-1.87H35.05c-2.71,0-5.42-.07-8.12,0h-.34a1.9,1.9,0,0,0-1.88,1.87v67.92a1.88,1.88,0,0,0,3.75,0V65.7l-1.87,1.88H225.72c2.68,0,5.44.18,8.12,0,.11,0,.23,0,.34,0l-1.87-1.88v67.92l1.87-1.88H35.05c-2.71,0-5.42-.06-8.12,0h-.34A1.88,1.88,0,0,0,26.59,135.49Z" transform="translate(-24.46 -47.95)"/><polygon points="4.22 64.05 4.22 64.05 4.22 19.63 25.61 19.63 4.22 64.05" style="fill:#a2cb82;stroke:#1d1d1b;stroke-miterlimit:10;stroke-width:0.5px"/><polygon points="207.77 37 207.77 37 207.77 83.88 184.11 83.88 207.77 37" style="fill:#a2cb82;stroke:#1d1d1b;stroke-miterlimit:10;stroke-width:0.5px"/><polygon points="36.45 83.88 16.53 83.88 47.34 19.63 67.26 19.63 36.45 83.88" style="fill:#a2cb82;stroke:#1d1d1b;stroke-miterlimit:10;stroke-width:0.5px"/><polygon points="78.73 83.88 58.82 83.88 89.63 19.63 109.54 19.63 78.73 83.88" style="fill:#a2cb82;stroke:#1d1d1b;stroke-miterlimit:10;stroke-width:0.5px"/><polygon points="121.22 83.88 101.3 83.88 132.11 19.63 152.02 19.63 121.22 83.88" style="fill:#a2cb82;stroke:#1d1d1b;stroke-miterlimit:10;stroke-width:0.5px"/><polygon points="162.76 83.88 142.84 83.88 173.65 19.63 193.56 19.63 162.76 83.88" style="fill:#a2cb82;stroke:#1d1d1b;stroke-miterlimit:10;stroke-width:0.5px"/></svg>