<svg id="Layer_1" data-name="Layer 1" xmlns="http://www.w3.org/2000/svg" viewBox="0 0 208.93 230.55"><g id="Group_525" data-name="Group 525"><g id="Group_523" data-name="Group 523"><path id="Path_299" data-name="Path 299" d="M139.88,228.72H54.8c-2.31,0-4.63-.06-7-.08V19.56h97.63c4.15,0,8.35.14,12.52,0l17.46,16.84,28,27.05-13-.07L150,63.18h-4.54l-.54-14c0-.93-.07-1.85-.11-2.78a4.95,4.95,0,1,0-9.89,0l.74,19.08c0,.92.08,1.84.11,2.77a5.12,5.12,0,0,0,4.95,5.08l25.51.15,40.51.23,9.26.06a5.08,5.08,0,0,0,4.85-5.28,5.25,5.25,0,0,0-1.38-3.39L211,56.8,192,38.53,172.83,20.05c-3.13-3-6.18-6.2-9.43-9.09a6.52,6.52,0,0,0-5.05-1.55H42.88a5.08,5.08,0,0,0-5,5.08V224.88c0,2.84,0,5.7,0,8.54v.37a5.09,5.09,0,0,0,4.94,5.08h85.07c3.91,0,7.84.1,11.75,0h.17a5.08,5.08,0,0,0,0-10.15Z" transform="translate(-37.4 -8.86)" style="stroke:#1d1d1b;stroke-miterlimit:10"/><path id="Path_300" data-name="Path 300" d="M173.67,132.29h.19a5.08,5.08,0,0,0,0-10.15H82.55c-4.22,0-8.46-.12-12.68,0h-.19a5.08,5.08,0,0,0,0,10.15H161C165.21,132.29,169.45,132.4,173.67,132.29Z" transform="translate(-37.4 -8.86)" style="stroke:#1d1d1b;stroke-miterlimit:10"/><path id="Path_301" data-name="Path 301" d="M124.3,155.34H69.68a5.08,5.08,0,0,0,0,10.15h82.53a5.08,5.08,0,0,0,0-10.15Z" transform="translate(-37.4 -8.86)" style="stroke:#1d1d1b;stroke-miterlimit:10"/></g><g id="Group_524" data-name="Group 524"><g id="Path_302" data-name="Path 302"><path d="M187.85,207.82a14.51,14.51,0,0,1-19.91-6.18,15.23,15.23,0,0,1-1.5-4.41,6.54,6.54,0,0,1-7.65-1L162,234.12l31.19-20.67S188.1,212.43,187.85,207.82Z" transform="translate(-37.4 -8.86)" style="fill:#a2cb82"/><path d="M187.22,206.74a13.27,13.27,0,0,1-11.75.45,14.06,14.06,0,0,1-7.83-10.29,1.26,1.26,0,0,0-1.83-.75,5.37,5.37,0,0,1-6.13-.83c-.74-.66-2.23-.27-2.14.89l2.8,33.28.39,4.63a1.26,1.26,0,0,0,1.88,1.08l27.33-18.11,3.87-2.56a1.27,1.27,0,0,0-.3-2.28,5.24,5.24,0,0,1-4.41-4.43c-.13-1.59-2.63-1.61-2.5,0a7.71,7.71,0,0,0,6.24,6.84l-.3-2.29-27.33,18.11L161.35,233l1.88,1.08-2.8-33.28-.39-4.63-2.13.88a8,8,0,0,0,9.16,1.22l-1.84-.75a16.41,16.41,0,0,0,9.27,11.92,15.84,15.84,0,0,0,14-.58C189.9,208.14,188.64,206,187.22,206.74Z" transform="translate(-37.4 -8.86)" style="fill:#1d1d1b"/></g><g id="Path_303" data-name="Path 303"><path d="M237,94.85,223.4,88.17a14.17,14.17,0,0,0-19.13,6.91h0l-3.3,7.08,39.42,19.41,3.3-7.07A14.9,14.9,0,0,0,237,94.85Z" transform="translate(-37.4 -8.86)" style="fill:#a2cb82"/><path d="M237.59,93.77l-13.26-6.53A15.64,15.64,0,0,0,213,86.05a15.86,15.86,0,0,0-9.85,8.4c-1.12,2.35-2.2,4.72-3.3,7.07a1.27,1.27,0,0,0,.45,1.71l13.32,6.57,21.23,10.45,4.87,2.4a1.26,1.26,0,0,0,1.71-.45c1.73-3.7,4.11-7.59,4.7-11.69a16.17,16.17,0,0,0-8.58-16.74c-1.44-.7-2.71,1.45-1.26,2.16a13.71,13.71,0,0,1,7.19,15.26c-.79,3.39-2.75,6.62-4.21,9.75l1.71-.45-13.32-6.56-21.23-10.45-4.87-2.4.45,1.71,3-6.53a13.86,13.86,0,0,1,7.53-7.44,13,13,0,0,1,10.41.56l6.85,3.38,6.45,3.17C237.77,96.64,239,94.48,237.59,93.77Z" transform="translate(-37.4 -8.86)" style="fill:#1d1d1b"/></g><g id="Path_304" data-name="Path 304"><path d="M162.1,189.09h0a3.58,3.58,0,0,0,4.86-1.66h0l36.5-74.93L197,109.17,160.48,184.1A3.77,3.77,0,0,0,162.1,189.09Z" transform="translate(-37.4 -8.86)" style="fill:#a2cb82"/><path d="M161.47,190.17c2.88,1.32,5.56,0,6.86-2.72l2.06-4.22,8.45-17.34,11-22.54,9.8-20.11c1.61-3.3,3.39-6.58,4.85-10l.07-.15a1.26,1.26,0,0,0-.45-1.71l-6.47-3.33a1.27,1.27,0,0,0-1.71.45l-4,8.13-9.38,19.24-11,22.66L162.58,177l-2.51,5.16c-.76,1.55-1.52,3-1.08,4.86a5.12,5.12,0,0,0,2.48,3.2,1.25,1.25,0,0,0,1.26-2.16c-2-1.15-1.33-2.93-.57-4.51l2.39-4.89L173.13,161l10.81-22.19,9.43-19.37L196.5,113a17.79,17.79,0,0,0,1.5-3.07.83.83,0,0,1,.07-.13l-1.71.44,6.47,3.33-.45-1.71-3.81,7.84-9,18.56-10.83,22.24-9,18.52c-1.25,2.58-2.42,5.24-3.78,7.77a2.39,2.39,0,0,1-3.15,1.21C161.28,187.35,160,189.5,161.47,190.17Z" transform="translate(-37.4 -8.86)" style="fill:#1d1d1b"/></g><g id="Path_305" data-name="Path 305"><path d="M177.33,200.91a7.56,7.56,0,0,0,10.27-3.52l36.51-74.92-13.7-7-36.5,74.93A8,8,0,0,0,177.33,200.91Z" transform="translate(-37.4 -8.86)" style="fill:#a2cb82"/><path d="M176.7,202a9,9,0,0,0,12-4.05c.53-1.05,1-2.11,1.55-3.17l8.12-16.67L209.66,155,220,133.85c1.71-3.52,3.61-7,5.16-10.6a1.09,1.09,0,0,1,.08-.15,1.28,1.28,0,0,0-.45-1.71l-13.7-7a1.27,1.27,0,0,0-1.71.45l-4.21,8.64-9.92,20.37-11.37,23.34L175.12,185l-2.06,4.22a9.59,9.59,0,0,0,.45,9.91A9.23,9.23,0,0,0,176.7,202c1.41.76,2.68-1.39,1.26-2.16a6.85,6.85,0,0,1-2.78-9.22c.63-1.31,1.27-2.62,1.91-3.92l8.3-17,11.11-22.82,9.95-20.42,3.36-6.89a21.06,21.06,0,0,0,1.61-3.31,1,1,0,0,1,.07-.15l-1.71.45,13.69,7-.44-1.71L219,130.18l-9.53,19.57-11.19,23-8.86,18.19c-1.65,3.38-3.19,8.53-7.3,9.45a6.31,6.31,0,0,1-4.12-.52C176.52,199.13,175.25,201.28,176.7,202Z" transform="translate(-37.4 -8.86)" style="fill:#1d1d1b"/></g><g id="Path_306" data-name="Path 306"><path d="M194.05,200.7a3.77,3.77,0,0,0,1.46,5,3.57,3.57,0,0,0,4.91-1.49,2.26,2.26,0,0,0,.11-.22L237,129.1l-6.47-3.33Z" transform="translate(-37.4 -8.86)" style="fill:#a2cb82"/><path d="M193,200.07a5.08,5.08,0,0,0,2.81,7.15,4.92,4.92,0,0,0,5.84-2.58c.47-.93.91-1.87,1.37-2.81l7.94-16.3,11.38-23.37,10.48-21.51c1.75-3.58,3.56-7.14,5.24-10.76a.8.8,0,0,0,.08-.16,1.26,1.26,0,0,0-.45-1.71l-6.47-3.33a1.27,1.27,0,0,0-1.71.45l-12.39,25.43-19.61,40.25L193,200.07c-.7,1.44,1.46,2.71,2.16,1.26l12.39-25.43,19.61-40.25,4.51-9.25-1.71.45,6.47,3.33-.45-1.71L232,136.6,222.57,156l-11,22.66L202.59,197l-2.51,5.16c-.71,1.46-1.57,3.46-3.64,2.69a2.53,2.53,0,0,1-1.31-3.47C195.82,199.88,193.66,198.61,193,200.07Z" transform="translate(-37.4 -8.86)" style="fill:#1d1d1b"/></g></g></g></svg>