<svg id="Layer_1" data-name="Layer 1" xmlns="http://www.w3.org/2000/svg" viewBox="0 0 333.33 196.89"><path d="M270,35.58l.27-.23c0-.22,0-.44,0-.67C269.91,34.78,269.88,35.17,270,35.58Z" transform="translate(-4.36 -6.2)"/><path d="M337.33,51.69V39.61a2.73,2.73,0,0,0-.64-1.77,2.62,2.62,0,0,0-2.25-1.12H276.11c.65-2.86,0-6.59,0-9.12v-18a2.94,2.94,0,0,0-2.47-2.85,2.36,2.36,0,0,0-.88,0H219.15c-7,0-14.89-1.06-21.82,0-2.22.33-3,1.49-4.4,3.1l-9.3,10.46q-9.49,10.67-19,21.35H141.43c-3.51,0-4.52,1-6.8,3.26L108,71.51l-81.91,82L5.2,174.34a2.64,2.64,0,0,0-.83,2s0,0,0,.08v23.76A2.92,2.92,0,0,0,7.25,203H55.53c7.93,0,15.86.14,23.78,0a7,7,0,0,0,1.31-.14,3,3,0,0,0,3-1.23c2.67-1.69,4.78-4.61,7.07-6.87l19.79-19.53a2.65,2.65,0,0,0,.85-2h14.53a2.78,2.78,0,0,0-.51,1.66v21.3a2.92,2.92,0,0,0,2.89,2.89h70.62a2.84,2.84,0,0,0,1.16-.25,2.91,2.91,0,0,0,3.21-1.18c-.92,1.33.66-.58,1-.92,1.18-1.2,2.36-2.38,3.54-3.57q6.16-6.19,12.34-12.36,19.35-19.35,38.74-38.66,36.36-36.24,72.75-72.46c1.77-1.76,5-4,5.67-6.51C338.16,59.77,337.33,55.16,337.33,51.69ZM68.7,167.44l-.25-15.51c0-.71,0-1.5.06-2.29,22.87.82,45.91.05,68.8-.08q-.15,8.9-.31,17.77c-.56,0-1.07.11-1.33.11ZM271.16,34.82c-.13,0-.46.16-.91.53a2.4,2.4,0,0,0,.11.74c.4,1.06-.2.26-.38-.51-2.34,2.07-7.23,7.65-7.76,8.19l-48.93,49L158.12,148l-15.27,15.28.27-15.38q23.46-24.12,46.86-48.3L259.4,28l11-11.3V33.45c0,.35-.05.79-.09,1.23A1.45,1.45,0,0,1,271.16,34.82Zm-99.52,75.34L157.27,125q-9.12,9.41-18.25,18.8c-5.11,0-10.22.08-15.34.15q9.82-10.12,19.71-20.2c3.79-3.85,7.55-7.76,11.46-11.49a10.57,10.57,0,0,1,5.25-3,25.74,25.74,0,0,1,6.53-1c1.05,0,4.74.71,5.24.19A1.42,1.42,0,0,0,171.64,110.16Zm-40.49,67.61H196V193.3H131.15ZM197.69,172H188l29.61-30.11c1.35-1.38-.77-3.5-2.12-2.12q-15.18,15.42-30.35,30.86a1.37,1.37,0,0,0-.38,1.37H164.17q6.92-7,13.85-14.09c1.36-1.38-.76-3.5-2.12-2.13l-14.79,15a1.39,1.39,0,0,0-.42,1.18h-18.5l.11-.18a7.19,7.19,0,0,0,.81-.67c4.62-4.48,9.11-9.12,13.66-13.67L263.09,51.08c2.83-2.84,6.33-5.66,9.25-8.73a2.84,2.84,0,0,0,.91.15h11.67l-19.32,20c-1.34,1.39.78,3.51,2.12,2.12L289.1,42.5h38.36L286.51,83.37,213.71,156Zm.57-159.62c.77-1,.5-.46,0,0Zm-.28.23c-.34.22-.71.3-.93-.17C197.1,12.54,197.46,12.59,198,12.61ZM183.83,28.69l10.71-12a48.82,48.82,0,0,0,3.39-3.81l.16-.22c1.64.05,4.68-.17,5-.17h16Q206.22,25.5,193.36,38.55c-1.36,1.38.76,3.5,2.12,2.12l27.81-28.23h22.52L193.36,65.37c-1.36,1.37.76,3.5,2.12,2.12L250,12.5l.05-.06h16.4q-19.25,19.86-38.5,39.7l-53.34,55c-2.47-2.09-11.5-1.6-13-1.31-6.14,1.19-9.07,4.44-13.28,8.66-9.52,9.54-18.91,19.22-28.3,28.9a1.46,1.46,0,0,0-.36.6c-15.74.22-31.51.46-47.21,0,5.47-5.29,10.6-11.08,15.89-16.47l63.28-64.37L168,46.51ZM63.61,124.07l72.32-72.35c1.31-1.31,2.74-2.57,4-4a1.69,1.69,0,0,1,.23-.21c1.31.27,4.39-.18,5.21-.18h2.22Q141,54,134.38,60.72a1.5,1.5,0,0,0,2.12,2.12l15.27-15.48h7.28L65.22,142.8A15.86,15.86,0,0,0,64.13,144a2.84,2.84,0,0,0-1.37,3.15,15.19,15.19,0,0,0-.12,2.46q.16,10.35.32,20.69a2.94,2.94,0,0,0,2.89,2.89h13.2l-.12.11c-1.38,0-3.79.16-4.09.16H14.22Zm-5.24,73.18H10.14v-18H76.36c.58,0,1.25.06,1.92.09v17.71C71.85,196.4,64.73,197.25,58.37,197.25ZM90,187.41l-5.91,5.82V178.4a3,3,0,0,0-.2-1.08c1.49-1.25,2.9-2.84,4.17-4.1h16.31Zm238.77-123-28.23,28.1q-40.86,40.68-81.68,81.42-7.35,7.35-14.69,14.72c-.75.75-1.56,1.49-2.37,2.26v-14.8l45-45,72.8-72.65,11.93-11.91v2.65c0,3.58-1,8.85-.06,12.4A28.65,28.65,0,0,0,328.74,64.38Zm3.05-3c.07-.3.21-.53.51-.49C332.2,60.83,332,61.13,331.79,61.33Z" transform="translate(-4.36 -6.2)"/></svg>