<svg id="Layer_1" data-name="Layer 1" xmlns="http://www.w3.org/2000/svg" viewBox="0 0 219.81 218.8"><path d="M16.8,10.19h-.35l-.14.1C16.64,10.29,16.84,10.23,16.8,10.19Z" style="fill:#1e1e1c"/><path d="M12.89,12.23C13.05,12.12,13,12.14,12.89,12.23Z" style="fill:#1e1e1c"/><path d="M200.2,12.44H20.43a5.74,5.74,0,0,0-5.75,5.75h0V68H206V18.2A5.76,5.76,0,0,0,200.2,12.44Z" style="fill:#a3cc84;stroke:#a3cc84;stroke-miterlimit:10"/><path d="M11.58,203.29h0v0Z" style="fill:#1e1e1c"/><path d="M219.77,15.29A16,16,0,0,0,203.93,0H17.49A16.12,16.12,0,0,0,1.37,16.12v186.8a16,16,0,0,0,15.2,15.44,4.2,4.2,0,0,0,.62.07h186.4a16.17,16.17,0,0,0,11.77-4.88,16.35,16.35,0,0,0,4.41-11.36v-181C219.77,19.29,219.85,17.29,219.77,15.29Zm-11.36-2.93c-.13-.14-.27-.29-.24-.3S208.31,12.18,208.41,12.36ZM15,10.62h0Zm-1.05.55-.08.07Zm-2,2.48c0,.2-.12.5-.16.43s.06-.22.17-.43Zm-.17,190.64a1.12,1.12,0,0,1,.12.24A1.34,1.34,0,0,1,11.77,204.29Zm1,1.72C12.51,205.75,12.62,205.85,12.77,206Zm.21.3c-.07-.08-.12-.18-.19-.27.08.16.19.3.15.31Zm.76.69c.13.09.27.19.25.2a.55.55,0,0,1-.29-.16ZM209.55,15.89v186.4a5.61,5.61,0,0,0-.05,1.16,1.37,1.37,0,0,1-.08.35c-.08.33-.23.65-.29,1h0a.8.8,0,0,1-.08.16c-.2.4-.45.76-.68,1.15h0a.43.43,0,0,0-.12.11l-.7.7a.57.57,0,0,0-.11.11h0c-.38.23-.75.47-1.16.68l-.16.08h0c-.32.06-.65.22-1,.3l-.36.07a6.36,6.36,0,0,0-.87.06H17.21c-.16,0-.67-.05-.88-.06l-.52-.11a7.81,7.81,0,0,1-.82-.26c-.15-.08-.3-.15-.43-.23-.32-.18-.61-.4-.92-.59a.77.77,0,0,1-.18-.18c-.25-.22-.46-.47-.7-.71h0c-.06-.09-.13-.17-.19-.27-.21-.33-.39-.67-.57-1h0c-.07-.38-.24-.76-.33-1.15a2.56,2.56,0,0,0-.05-.27v-.08a.63.63,0,0,0-.06-.32,1,1,0,0,1,.06.25V15.12c.08-.33.14-.66.24-1a2.81,2.81,0,0,0,.16-.49v-.09c.16-.27.35-.57.41-.66s.18-.28.26-.42a1,1,0,0,1,.22-.25l-.13.09a5.11,5.11,0,0,1,.45-.48,7.15,7.15,0,0,1,.57-.53c.16-.1.32-.21.49-.3s.53-.29.81-.42a1.14,1.14,0,0,1,.26-.09l.95-.19h-.12a1.41,1.41,0,0,0,.29,0H204.83c.39.08.76.21,1.15.31a4.28,4.28,0,0,1,1.15.65l.18,0c.21.22.46.41.67.63s.28.35.44.49h0c.18.29.38.64.43.73l.23.44.07.15a2,2,0,0,0,.15.49,5.74,5.74,0,0,0,.19.82v.72Z" style="fill:#1e1e1c"/><path d="M184.44,126.07H52.31c-6.1,0-12.22-.13-18.33,0h-.27a5.09,5.09,0,1,0,0,10.18H165.87c6.1,0,12.22.14,18.33,0h.24a5.09,5.09,0,0,0,0-10.18Z" style="fill:#1e1e1c"/><path d="M184.44,91.6H52.31c-6.1,0-12.22-.14-18.33,0h-.27a5.09,5.09,0,1,0,0,10.18H165.87c6.1,0,12.22.14,18.33,0h.24a5.09,5.09,0,0,0,0-10.18Z" style="fill:#1e1e1c"/><path d="M32.45,176h83.22a5,5,0,1,0,0-10H32.45a5,5,0,0,0,0,10Z" style="fill:#1e1e1c"/><path d="M15.42,10.57h-.51C15.31,10.7,15.47,10.61,15.42,10.57Z" style="fill:#1e1e1c"/><path d="M11.52,12.61C11.68,12.49,11.62,12.52,11.52,12.61Z" style="fill:#1e1e1c"/><path d="M10.21,203.63h0v0Z" style="fill:#1e1e1c"/><path d="M218.4,15.68A16.07,16.07,0,0,0,202.56.37H16.12A16.12,16.12,0,0,0,0,16.49v186.8a16,16,0,0,0,15.19,15.45l.63.06h186.4A16.12,16.12,0,0,0,214,213.93a16.35,16.35,0,0,0,4.41-11.36v-181C218.4,19.61,218.48,17.64,218.4,15.68ZM207,12.74c-.13-.14-.27-.3-.24-.31S206.92,12.56,207,12.74ZM13.62,11c-.08,0-.13.06-.13,0Zm-1,.56-.08.07Zm-2,2.48c0,.2-.12.49-.16.43s0-.23.12-.43Zm-.18,190.68a.87.87,0,0,1,.12.24.67.67,0,0,1-.16-.24Zm1.21,2a2.48,2.48,0,0,1-.19-.26c0,.12.15.25.11.26Zm.76.7c.13.09.27.18.25.2a.86.86,0,0,1-.35-.2ZM208.18,16.29V202.66a5.73,5.73,0,0,0-.05,1.17.58.58,0,0,1-.08.35,9.73,9.73,0,0,0-.29,1h0a.89.89,0,0,1-.08.17c-.21.4-.45.76-.68,1.15h0a.57.57,0,0,1-.11.11l-.7.71-.11.11h0c-.38.24-.75.48-1.16.69l-.16.08h0c-.33.06-.65.21-1,.29l-.36.08a5.08,5.08,0,0,0-.87.05H15.84c-.16,0-.67-.05-.88-.05l-.52-.12a6,6,0,0,1-.82-.25c-.15-.08-.3-.15-.44-.24-.31-.17-.6-.4-.91-.58-.11-.1-.2-.2-.19-.18-.24-.23-.45-.48-.69-.72h0l-.19-.27c-.21-.33-.39-.67-.57-1h0c-.07-.38-.24-.76-.33-1.15a1.31,1.31,0,0,0,0-.28v-.07a1.8,1.8,0,0,0-.06-.32,1,1,0,0,1,.06.25V15.87a2.29,2.29,0,0,1,0-.37c.08-.33.14-.67.24-1A2.7,2.7,0,0,0,10.7,14v-.09c.16-.28.35-.57.41-.67s.18-.27.26-.42a1.26,1.26,0,0,1,.22-.24l-.13.09a5.11,5.11,0,0,1,.45-.48,5.68,5.68,0,0,1,.57-.53c.16-.1.32-.21.49-.3l.81-.43.26-.09.94-.24H203.47c.39.08.76.21,1.15.31a4.53,4.53,0,0,1,1.15.64l.21.15c.21.22.46.41.67.63s.29.33.44.49h0c.18.28.38.63.43.72l.23.44.07.15a1.73,1.73,0,0,0,.15.49,5.71,5.71,0,0,0,.18.82v.73Z" style="fill:#1e1e1c"/><path d="M183.07,126.45H50.91c-6.1,0-12.22-.14-18.33,0h-.27a5.09,5.09,0,0,0,0,10.18H164.5c6.1,0,12.22.13,18.33,0h.24a5.09,5.09,0,0,0,0-10.18Z" style="fill:#1e1e1c"/><path d="M183.07,92H50.91c-6.1,0-12.22-.14-18.33,0h-.27a5.09,5.09,0,0,0,0,10.18H164.5c6.1,0,12.22.13,18.33,0h.24a5.09,5.09,0,1,0,0-10.18Z" style="fill:#1e1e1c"/><path d="M31.08,176.38h83.23a5,5,0,0,0,0-10H31.08a5,5,0,1,0,0,10Z" style="fill:#1e1e1c"/></svg>