<svg id="Layer_1" data-name="Layer 1" xmlns="http://www.w3.org/2000/svg" viewBox="0 0 219.81 218.81"><path d="M24.49,16.9a2.06,2.06,0,0,1-.35,0L24,17C24.33,17,24.53,16.94,24.49,16.9Z" transform="translate(-7.69 -6.71)" style="fill:#1e1e1c"/><path d="M20.58,18.94c.16-.11.1-.09,0,0Z" transform="translate(-7.69 -6.71)" style="fill:#1e1e1c"/><path d="M207.89,19.15H28.12a5.75,5.75,0,0,0-5.75,5.76V74.68H213.65V24.91A5.76,5.76,0,0,0,207.89,19.15Z" transform="translate(-7.69 -6.71)" style="fill:#fbc404"/><path d="M19.27,210h0s0,.05,0,.08a.77.77,0,0,0,0-.15Z" transform="translate(-7.69 -6.71)" style="fill:#1e1e1c"/><path d="M227.46,22A16,16,0,0,0,211.62,6.71H25.18A16.12,16.12,0,0,0,9.06,22.83v186.8a16,16,0,0,0,15.2,15.44,4.2,4.2,0,0,0,.62.07h186.4a16.17,16.17,0,0,0,11.77-4.88,16.35,16.35,0,0,0,4.41-11.36v-181C227.46,26,227.54,24,227.46,22ZM216.1,19.07c-.13-.14-.27-.29-.24-.3S216,18.89,216.1,19.07ZM22.68,17.33l-.13,0Zm-1.05.55s0,0-.08.07Zm-2,2.48c-.05.2-.12.5-.16.43S19.53,20.57,19.64,20.36ZM19.46,211s.07.1.12.24A1.79,1.79,0,0,1,19.46,211Zm1,1.72c-.26-.26-.15-.16,0,0Zm.21.3c-.07-.08-.12-.18-.19-.27C20.56,212.91,20.67,213.05,20.63,213.06Zm.76.69c.13.09.27.19.25.2S21.5,213.86,21.39,213.75ZM217.24,22.6V209a5.61,5.61,0,0,0-.05,1.16c0,.12-.05.24-.08.35-.08.33-.23.65-.29,1h0a1.19,1.19,0,0,1-.08.16c-.2.4-.45.76-.68,1.15v0a.57.57,0,0,0-.12.11l-.7.7a1.11,1.11,0,0,0-.11.11l0,0c-.38.23-.75.47-1.16.68l-.16.08h0c-.32.06-.65.22-1,.3l-.36.07a5.09,5.09,0,0,0-.87.06H25.13l-.23,0c-.16,0-.67-.05-.88-.06l-.52-.11a7.81,7.81,0,0,1-.82-.26c-.15-.08-.3-.15-.43-.23-.32-.18-.61-.4-.92-.59a1.15,1.15,0,0,1-.18-.18c-.25-.22-.46-.47-.7-.71v0c-.06-.09-.13-.17-.19-.27-.21-.33-.39-.67-.57-1h0v0c-.07-.38-.24-.76-.33-1.15a2.56,2.56,0,0,0-.05-.27c0,.22,0,.36,0-.08,0-.1,0-.21-.06-.32a.76.76,0,0,1,.06.25V22.2c0-.15,0-.26,0-.37.08-.33.14-.66.24-1a2.81,2.81,0,0,0,.16-.49v-.09c.16-.27.35-.57.41-.66s.18-.28.26-.42a1.09,1.09,0,0,1,.22-.25l-.13.09a5.27,5.27,0,0,1,.45-.48,7.15,7.15,0,0,1,.57-.53c.16-.1.32-.21.49-.3a8.89,8.89,0,0,1,.81-.42,2,2,0,0,1,.26-.09L24,17l-.12,0a1.42,1.42,0,0,0,.29,0h0c.19,0,.28,0,.31,0H212.36l.16,0c.39.08.76.21,1.15.31s.79.41,1.15.65L215,18c.21.22.46.41.67.63s.28.35.44.49h0c.18.29.38.64.43.73l.23.44.07.15c0,.16.1.32.15.49a5.74,5.74,0,0,0,.19.82c0,.24,0,.47,0,.72Z" transform="translate(-7.69 -6.71)" style="fill:#1e1e1c"/><path d="M192.13,132.78H60c-6.1,0-12.22-.13-18.33,0H41.4a5.09,5.09,0,1,0,0,10.18H173.56c6.1,0,12.22.14,18.33,0h.24a5.09,5.09,0,0,0,0-10.18Z" transform="translate(-7.69 -6.71)" style="fill:#1e1e1c"/><path d="M192.13,98.31H60c-6.1,0-12.22-.14-18.33,0H41.4a5.09,5.09,0,1,0,0,10.18H173.56c6.1,0,12.22.14,18.33,0h.24a5.09,5.09,0,1,0,0-10.18Z" transform="translate(-7.69 -6.71)" style="fill:#1e1e1c"/><path d="M40.14,182.72h83.22a5,5,0,1,0,0-10H40.14a5,5,0,0,0,0,10Z" transform="translate(-7.69 -6.71)" style="fill:#1e1e1c"/><path d="M23.11,17.28c-.11,0-.22,0-.34,0l-.17,0C23,17.41,23.16,17.32,23.11,17.28Z" transform="translate(-7.69 -6.71)" style="fill:#1e1e1c"/><path d="M19.21,19.32c.16-.12.1-.09,0,0Z" transform="translate(-7.69 -6.71)" style="fill:#1e1e1c"/><path d="M206.52,19.53H26.75A5.75,5.75,0,0,0,21,25.29V75.06H212.28V25.29A5.76,5.76,0,0,0,206.52,19.53Z" transform="translate(-7.69 -6.71)" style="fill:#fbc404"/><path d="M17.9,210.34h0s0,.05,0,.07,0-.09,0-.14Z" transform="translate(-7.69 -6.71)" style="fill:#1e1e1c"/><path d="M226.09,22.39A16.06,16.06,0,0,0,210.25,7.08H23.81A16.12,16.12,0,0,0,7.69,23.2V210a16,16,0,0,0,15.19,15.45,4.48,4.48,0,0,0,.63.06h186.4a16.12,16.12,0,0,0,11.77-4.87,16.35,16.35,0,0,0,4.41-11.36v-181C226.09,26.32,226.17,24.35,226.09,22.39Zm-11.36-2.94c-.13-.14-.27-.3-.24-.31S214.61,19.27,214.73,19.45ZM21.31,17.7c-.08,0-.13.06-.13,0Zm-1,.56-.08.07Zm-2,2.48c-.05.2-.12.49-.16.43S18.16,20.94,18.27,20.74Zm-.18,190.68s.07.09.12.24C18.17,211.58,18.12,211.5,18.09,211.42Zm1,1.72Zm.21.29a2.48,2.48,0,0,1-.19-.26C19.19,213.29,19.3,213.42,19.26,213.43Zm.76.7c.13.09.27.18.25.2S20.13,214.24,20,214.13ZM215.87,23V209.37a5.73,5.73,0,0,0-.05,1.17c0,.11,0,.23-.08.35-.08.32-.24.65-.29,1h0a.89.89,0,0,1-.08.17c-.21.4-.45.76-.68,1.15l0,0a1.13,1.13,0,0,1-.11.11l-.7.71-.11.11h0c-.38.24-.75.48-1.16.69l-.16.08h0c-.33.06-.65.21-1,.29l-.36.08a5.08,5.08,0,0,0-.87.05H23.76l-.23,0c-.16,0-.67-.05-.88-.05l-.52-.12a6,6,0,0,1-.82-.25c-.15-.08-.3-.15-.44-.24-.31-.17-.6-.4-.91-.58-.11-.1-.2-.2-.19-.18-.24-.23-.45-.48-.69-.72h0l-.19-.27c-.21-.33-.39-.67-.57-1h0v0c-.07-.38-.24-.76-.33-1.15a2.33,2.33,0,0,0,0-.28c0,.23,0,.36,0-.07a3,3,0,0,0-.06-.32.76.76,0,0,1,.06.25V22.58a3.57,3.57,0,0,1,0-.37c.08-.33.14-.67.24-1a2.7,2.7,0,0,0,.16-.48v-.09c.16-.28.35-.57.41-.67s.18-.27.26-.42a1.28,1.28,0,0,1,.22-.24l-.13.09a5.27,5.27,0,0,1,.45-.48,4.77,4.77,0,0,1,.57-.53c.16-.1.32-.21.49-.3s.54-.29.81-.43l.26-.09.94-.24-.12,0,.29,0h0c.19,0,.28,0,.3,0H211l.16,0c.39.08.76.21,1.15.31s.79.41,1.15.64l.21.15c.21.22.46.41.67.63a6.41,6.41,0,0,0,.44.49h0c.18.28.38.63.43.72l.23.44.07.15c0,.17.1.33.15.49a7.48,7.48,0,0,0,.18.82c0,.24,0,.48,0,.73Z" transform="translate(-7.69 -6.71)" style="fill:#1e1e1c"/><path d="M190.76,133.16H58.6c-6.1,0-12.22-.14-18.33,0H40a5.09,5.09,0,0,0,0,10.18H172.19c6.1,0,12.22.13,18.33,0h.24a5.09,5.09,0,0,0,0-10.18Z" transform="translate(-7.69 -6.71)" style="fill:#1e1e1c"/><path d="M190.76,98.69H58.6c-6.1,0-12.22-.14-18.33,0H40a5.09,5.09,0,0,0,0,10.18H172.19c6.1,0,12.22.13,18.33,0h.24a5.09,5.09,0,1,0,0-10.18Z" transform="translate(-7.69 -6.71)" style="fill:#1e1e1c"/><path d="M38.77,183.09H122a5,5,0,0,0,0-10H38.77a5,5,0,0,0,0,10Z" transform="translate(-7.69 -6.71)" style="fill:#1e1e1c"/></svg>