<svg id="Layer_1" data-name="Layer 1" xmlns="http://www.w3.org/2000/svg" viewBox="0 0 218.88 218.81"><path d="M42.56,86a1,1,0,0,0,.09-.18c.18-.29.36-.35-.1.21h0Z" transform="translate(-28.84 -12.49)"/><path d="M78.64,59.06Z" transform="translate(-28.84 -12.49)"/><path d="M152.68,29.17Z" transform="translate(-28.84 -12.49)"/><path d="M103.06,58.16c-.4,1-.16.4,0,0Z" transform="translate(-28.84 -12.49)"/><path d="M133.78,228.16a4.18,4.18,0,0,1-.3-1.73,5.21,5.21,0,0,1,.08-.57.88.88,0,0,1,0-.16,5,5,0,0,1,.12-.53c.05-.16.1-.32.16-.48l.15-.32a3,3,0,0,1,.25-.47c.1-.16.21-.3.32-.45l.15-.18a4.68,4.68,0,0,1,2.09-1.42,2,2,0,0,1,.22-.09c1.37-.48,2.73-1,4.08-1.53.17-.07,1.38-.59.28-.11l.71-.31q1.21-.54,2.43-1.11,3.65-1.77,7.13-3.88,3.26-2,6.35-4.25c.37-.28.76-.55,1.13-.84l.26-.21.76-.6c.94-.76,1.87-1.53,2.78-2.33A96.21,96.21,0,0,0,171.7,198q1.61-1.8,3.12-3.68c.22-.28.44-.55.65-.83q.56-.72,1.08-1.44c.73-1,1.45-2,2.1-3.09a4.85,4.85,0,1,1,8.37,4.89,74.92,74.92,0,0,1-7.69,10.12,98.14,98.14,0,0,1-15.47,14.32A105.61,105.61,0,0,0,174.17,215l2-.79a8.48,8.48,0,0,0,1.08-.45l-.39.17.76-.33c1.37-.6,2.72-1.22,4.07-1.88q4.08-2,8-4.34t7.54-5c.58-.41,1.15-.84,1.72-1.27l.13-.09.06-.05,1-.81q1.72-1.38,3.39-2.84c2-1.76,4-3.61,5.84-5.52l-.19-.16c-.2-.14-.39-.29-.58-.44-.5-.37-1-.74-1.51-1.1a78.14,78.14,0,0,0-7-4.5q-2.09-1.19-4.26-2.22l-1-.47-.25-.11a23.52,23.52,0,0,0-2.46-.94c-2.39-.85-4.23-3.35-3.39-6,.76-2.36,3.41-4.29,6-3.39A70.2,70.2,0,0,1,212,181.71c1.3.93,2.6,1.89,3.87,2.88l.19-.23c.43-.53.85-1.07,1.27-1.6.07-.09.14-.17.2-.26l.79-1.05q1.32-1.78,2.56-3.63,2.52-3.75,4.73-7.72t4.06-8.14c.16-.35.32-.71.47-1.06a1.72,1.72,0,0,1,.09-.19c.35-.69.6-1.48.88-2.2.54-1.4,1.06-2.81,1.54-4.23A104.08,104.08,0,0,0,237,136.2c.05-.32.09-.65.14-1,0-.1,0-.2,0-.3.1-.85.2-1.71.28-2.57.15-1.43.25-2.87.34-4.31H195.67q-.24,10.68-1.24,21.34c-.26,2.87-.57,5.74-.9,8.61-.29,2.51-2,5-4.84,4.85-2.38-.11-5.16-2.15-4.85-4.85,1.15-9.93,1.94-19.93,2.16-29.95H161.61c-3.7,0-7.4.11-11.09,0h-.17a4.85,4.85,0,0,1,0-9.69H186c-.1-6.66-.48-13.31-1.19-19.93-.1-1-.22-2-.34-3-.06-.48-.14-1-.18-1.45,0-.19-.06-.39-.08-.59q-.42-2.91-.93-5.81-.94-5.28-2.24-10.47c-.16-.63-.34-1.25-.51-1.87a203.3,203.3,0,0,1-31,4.48q-3,.2-6,.28,0,9.89.1,19.77c0,3.81.15,7.63.06,11.44v.17a4.85,4.85,0,0,1-9.69,0c0-3.13,0-6.26-.05-9.39q-.06-11-.11-21.93a173.81,173.81,0,0,1-27.4-2.76c-3-.55-6-1.19-9-1.92-.38,1.53-.73,3.07-1,4.61Q95.36,85,94.66,90l-.09.66h0c0,.34-.09.67-.14,1q-.18,1.44-.33,2.88-.31,2.9-.54,5.79A232.25,232.25,0,0,0,93,125.89c.07,2.33.18,4.67.31,7a4.88,4.88,0,0,1-4.85,4.85,5,5,0,0,1-4.84-4.85C82.72,116,83.19,99,86.12,82.31q.84-4.78,2-9.5A148.46,148.46,0,0,1,61.67,61.56c-.73-.4-1.45-.81-2.16-1.22-1.92,2.14-3.71,4.38-5.54,6.6l-.26.34-.78,1c-.63.85-1.25,1.72-1.86,2.59q-1.8,2.61-3.44,5.31-1.79,2.94-3.32,6c-.52,1.05-1,2.1-1.49,3.17,0,.11-.1.29-.17.43l-.09.18,0,0h0c-.24.59-.48,1.2-.7,1.8a53.87,53.87,0,0,0-2.19,7.45q-.22,1-.39,2.07a3.93,3.93,0,0,0-.11.7h0v.11a38.9,38.9,0,0,0-.24,4.18,4.85,4.85,0,0,1-9.69,0c.05-10.25,3.82-20.16,8.83-29a112.32,112.32,0,0,1,14-19.3c1-1.13,2-2.25,3.1-3.31A109.08,109.08,0,0,1,89.36,24.05a110.25,110.25,0,0,1,44.1-11.45c1.45-.06,2.91-.09,4.37-.1h.53l2.23,0H141a107.84,107.84,0,0,1,37,7.39A109.37,109.37,0,0,1,240.26,82.2a108.31,108.31,0,0,1,7.3,45.48,111.11,111.11,0,0,1-9.38,38.87,108.43,108.43,0,0,1-18.31,28.24h0q-1.42,1.59-2.91,3.14a109,109,0,0,1-30.64,22.26,110.85,110.85,0,0,1-38.36,10.63c-3,.27-6.05.41-9.07.43a5,5,0,0,1-5-2.88c0-.07-.07-.14-.1-.22ZM184.37,94.34c0-.1,0-.19,0-.28ZM153.8,69.74c1.57-.14,3.13-.29,4.7-.47l2.14-.26,1.14-.14.14,0,.19,0Q170,67.71,177.71,66c-.28-.8-.55-1.61-.85-2.41s-.54-1.4-.82-2.1c-.12-.31-.25-.62-.38-.93,0-.09-.07-.18-.1-.26a98.67,98.67,0,0,0-7.15-13.67c-1.21-1.91-2.51-3.76-3.86-5.57l-.3-.38c-.35-.43-.7-.87-1.06-1.3q-.94-1.12-1.92-2.22a67,67,0,0,0-7.73-7.33c-.23-.19-.75-.58-.86-.66l.79.59-.93-.71c-.57-.42-1.15-.83-1.73-1.23-1.11-.76-2.23-1.48-3.39-2.15-1.37-.81-2.78-1.51-4.22-2.18,0,1.08,0,2.16,0,3.24l.12,22.41.11,21.22h.66Q149,70.17,153.8,69.74Zm-50.56-2.9c3.6.8,7.24,1.47,10.89,2l1.13.16.35,0h.07l2.83.34c1.75.2,3.49.36,5.25.51,3.32.26,6.66.43,10,.5l-.09-18L133.54,29c0-1.72,0-3.44-.07-5.16-.27.13-.55.25-.82.39a52,52,0,0,0-6,3.48c-.54.37-1.09.75-1.62,1.13l-.83.62-.07.05c-1.18.94-2.34,1.92-3.46,2.94a68,68,0,0,0-7.21,7.78l-.22.28v0q-.48.63-.93,1.26c-.6.83-1.18,1.66-1.74,2.51q-1.83,2.74-3.44,5.64c-1.16,2.09-2.24,4.24-3.24,6.42L103.12,58a1.47,1.47,0,0,1-.06.14l.09-.21-.42,1c-.5,1.22-1,2.45-1.42,3.69s-.8,2.3-1.18,3.45C101.16,66.34,102.2,66.61,103.24,66.84Zm-3-37.16L99.5,30l-1.1.47q-2.36,1-4.66,2.21a103.28,103.28,0,0,0-9.09,5.18q-2.24,1.42-4.4,3l-2,1.45-1.05.8c.76-.58-.07.06-.36.29A103.85,103.85,0,0,0,69,50.2c-.94.92-1.86,1.87-2.77,2.82,1.79,1,3.61,1.94,5.44,2.84s3.56,1.72,5.36,2.51l1.35.59.57.25-.34-.15.34.14c.89.37,1.79.74,2.69,1.09q4.5,1.76,9.13,3.2a110.13,110.13,0,0,1,6.33-15.43,80.48,80.48,0,0,1,14.92-20.83c.74-.72,1.49-1.43,2.26-2.13a104.93,104.93,0,0,0-11.74,3.66C101.79,29.06,101,29.36,100.25,29.68ZM200.33,43.77l-1-.82h0l-.2-.15c-.75-.58-1.51-1.14-2.27-1.69-1.38-1-2.79-1.94-4.21-2.87q-4.38-2.82-9-5.21-2.36-1.22-4.79-2.31l-1-.47-.7-.3-.07,0-.18-.07-.71-.29-1.25-.5a104.31,104.31,0,0,0-10-3.31c-.56-.16-1.11-.3-1.67-.44q1.59,1.44,3.09,3a86.86,86.86,0,0,1,16.1,23.54,119.31,119.31,0,0,1,4.81,11.87,158.87,158.87,0,0,0,18.21-6.11l.85-.35.51-.22c.71-.31,1.42-.62,2.12-1,1-.48,2-1,3-1.5A103.8,103.8,0,0,0,200.33,43.77Zm37.17,67.54c-.1-.9-.21-1.8-.31-2.7v0c0-.11,0-.21,0-.32-.08-.55-.16-1.1-.25-1.64A103.19,103.19,0,0,0,231,85c-.17-.44-.35-.88-.52-1.31-.07-.16-.17-.41-.24-.56-.36-.84-.73-1.69-1.12-2.53-.76-1.64-1.56-3.25-2.4-4.85a104.08,104.08,0,0,0-5.61-9.43q-1.41-2.11-2.93-4.15a61.94,61.94,0,0,1-6.11,3A160.55,160.55,0,0,1,190,73a153.54,153.54,0,0,1,3.63,17.91,220.46,220.46,0,0,1,2.1,27.5H230.1c2.61,0,5.24,0,7.86,0,0-.37,0-.75,0-1.12Q237.79,114.25,237.5,111.31ZM199.13,201a2.85,2.85,0,0,0,.33-.25Z" transform="translate(-28.84 -12.49)"/><path d="M34.15,131.13c3.53,8,11,22.47,19.48,22.65H115a1.68,1.68,0,0,0,1.68-1.68V125.89a1.68,1.68,0,0,1,2.86-1.2l47.19,46.39a1.67,1.67,0,0,1-.06,2.45l-47.48,42.33a1.68,1.68,0,0,1-2.8-1.23l-.22-23.11a1.68,1.68,0,0,0-1.67-1.67l-50.31-.23c-.2,0-.39-.15-.59-.11-7.77,1.23-39-15.83-32.62-58A1.68,1.68,0,0,1,34.15,131.13Z" transform="translate(-28.84 -12.49)" style="fill:#a2cb82"/><path d="M33.07,131.76A73.82,73.82,0,0,0,41.68,147c2.89,3.78,6.87,7.93,12,8.06,4.43.12,8.88,0,13.3,0h45.83c2,0,4.48.26,5-2.26a11,11,0,0,0,.08-2.43V127.65c0-.41-.24-1.8.17-2.11.59-.44,2.36,1.81,2.68,2.13l6,5.89,18,17.65,16.49,16.21,4.16,4.09c.36.35.78.61.4,1.14a5,5,0,0,1-.73.64l-13,11.63-19.6,17.48-13.28,11.84c-.22.2-.54.62-.82.73-.88.36-.68-1-.69-1.52l-.1-11.25c0-3.4,0-6.8-.1-10.2,0-1.79-1-3.28-2.93-3.4-.4,0-.81,0-1.21,0l-20.21-.1-24-.11c-1.61,0-3.29.12-4.89,0a7.11,7.11,0,0,0-1.18-.06,8.71,8.71,0,0,1-1.25-.05c-.32,0,.11,0-.13,0l-.32-.06c-.27-.05-.53-.1-.79-.17a15.76,15.76,0,0,1-1.66-.48c-6.29-2.11-11.93-6.75-16.2-11.82a49.55,49.55,0,0,1-11.08-27.47,65.27,65.27,0,0,1-.16-9.17c.08-1.66.23-3.31.42-5,.06-.48.12-1,.19-1.45,0-.25,0-.86.18-1.07.31-.37.65-.23.85.16.76,1.41,2.92.15,2.16-1.27A2.94,2.94,0,0,0,31.94,129a3.07,3.07,0,0,0-2.28,2.85,75.12,75.12,0,0,0-.82,10.38,58.93,58.93,0,0,0,2.52,17.75,49.25,49.25,0,0,0,15,23c4.32,3.66,10,7.44,15.8,7.86a8.42,8.42,0,0,0,1.23,0c.14,0,.75,0,.33,0s.38.12.48.13h.11c.6,0,1.21,0,1.81,0l8.93,0,26.35.12,10,.05h2.6c.52,0,.88,0,1,.61a28.53,28.53,0,0,1,0,3.46l.06,6.16.11,11.81a5.28,5.28,0,0,0,.56,3.16,3,3,0,0,0,4.5.35c1.24-1.06,2.43-2.17,3.65-3.26L141.09,198l19.09-17,5.89-5.26c1.63-1.45,3.57-3.28,1.52-5.52-2.8-3.05-6-5.84-8.9-8.74l-18.6-18.28-16.18-15.91c-1.13-1.11-2.24-2.26-3.4-3.34a3,3,0,0,0-4.36,0c-.83.9-.75,2-.75,3.16v23c0,.55.23,1.68-.06,2.19s-.82.27-1.24.27H59c-1.71,0-3.44,0-5.15,0-4.26-.06-7.67-3.82-10.07-6.95a72.28,72.28,0,0,1-8.51-15.09C34.58,129,32.43,130.3,33.07,131.76Z" transform="translate(-28.84 -12.49)" style="fill:#1d1d1b"/></svg>