<svg id="Layer_1" data-name="Layer 1" xmlns="http://www.w3.org/2000/svg" viewBox="0 0 204.52 287.3"><path d="M211.66,261.52V59.68c0-13.8.93-27.94,0-41.69-.43-6.42-5.34-9-11.14-9h-178c-6.71,0-14,.44-14.64,9-.69,9.92,0,20.14,0,30.09V279.24c0,4.35-1.47,11.1,1.82,14.66a6.94,6.94,0,0,0,5.07,2.34,6.67,6.67,0,0,0,4.5-1.12c2.75-1.84,5.05-4.88,7.38-7.21q4.92-4.94,9.83-9.86l18.26-18.31Q73,241.44,91.26,223.13l13.45-13.49c1.58-1.59,3.45-3.15,5.11-4.82.74.65,1.47,1.26,2,1.81L124.19,219l61.42,61.58c5.58,5.59,16.37,20.42,24.28,9.76,2.21-3,1.77-6.75,1.77-10.26Zm-189.2-179V23.61c.69,0,1.31-.05,1.8-.05h170.1c.72,0,1.59.08,2.5.14,0,2.05.22,4.17.22,6.1V271.46q-4.82-4.84-9.64-9.67L127.77,202c-6-6-15.13-19.79-24.41-11.63-6.67,5.88-12.69,12.73-19,19L23.47,270.45l-1,1Z" transform="translate(-7.56 -8.98)"/></svg>