<svg id="Layer_1" data-name="Layer 1" xmlns="http://www.w3.org/2000/svg" viewBox="0 0 234.63 226.6"><path d="M194.14,66.93l0-13.48,0-24.59V19.63a27.73,27.73,0,0,0-.31-5.76c-1.06-5.11-5.94-8.31-10.94-8.33H93.07c-3.1,0-6.21-.06-9.31,0a11,11,0,0,0-10.94,11c0,2.21,0,4.42,0,6.62V49.23c0,.16,0,.33,0,.49s-.09.72,0,0-.13.3-.15.47c0,.56.09-.49.2-.44s-.21.39-.23.42-.25.41-.26.41c-.2-.13.79-.77,0-.17-.42.33.4-.27.4-.27s-.38.24-.41.26l-.42.24c-.05-.11,1-.26.44-.2-.17,0-1.27.3-.46.16s.14,0,0,0h-.53l-3.08,0-23.18.15c-1.91,0-3.85-.07-5.76,0A11,11,0,0,0,29,61.88c0,3.06,0,6.12,0,9.18v104.7a5,5,0,0,0,10,0V65.43c0-1.12,0-2.25,0-3.37a6.75,6.75,0,0,0,0-.77c.05.06-.26,1-.07.5A3.89,3.89,0,0,0,39,61.3c.15-.8-.47.67,0,0a1.91,1.91,0,0,0,.26-.41c.22-.5-.23.44-.29.38s.3-.32.33-.34c.5-.36-1.08.6-.13.09a2.1,2.1,0,0,0,.41-.24c.39-.42-.41.34-.45.17a7.85,7.85,0,0,1,1-.26c0,.08-1.1.06-.26.09,6.08.17,12.2-.08,18.29-.11l10.81-.07c3.17,0,6.36.07,9.1-1.9a11.16,11.16,0,0,0,4.78-9c0-.67,0-1.34,0-2V17.14c0-.22,0-.45,0-.68s.06-.36,0-.41-.26,1-.07.49a2.81,2.81,0,0,0,.12-.48c0-.22.3-.54,0,0s0,0,.11-.13a4.64,4.64,0,0,1,.26-.4s-.59.82-.27.39l.34-.33c.06.06-.88.51-.38.29.18-.08,1.06-.69.4-.29-.82.52.63-.32.67-.12s-1.17.05-.3.09h.08c1,0,1.9,0,2.84,0h96c.21,0,.42,0,.62,0,.87,0-.93-.24.18,0a3.81,3.81,0,0,1,.47.14c0,.11-.88-.54-.45-.18a2.52,2.52,0,0,0,.42.24c.72.38-.29-.14-.24-.2s.32.31.34.34c.32.43-.25-.41-.27-.4a7,7,0,0,1,.5.83c-.11.06-.26-1-.2-.44a2,2,0,0,0,.14.48c.26.83,0-.88,0,0-.05,1.28,0,2.58,0,3.86l0,21.66,0,21.45v3.58a5,5,0,0,0,10,0Z" transform="translate(-10.48 -5.51)" style="fill:#1d1d1b"/><line x1="25.35" y1="51.81" x2="70.44" y2="5.63"/><path d="M39.37,60.86,54.62,45.23,78.91,20.35l5.54-5.68a5.06,5.06,0,0,0,0-7.07,5.09,5.09,0,0,0-7.07,0L62.13,23.23,37.84,48.11,32.3,53.79a5,5,0,1,0,7.07,7.07Z" transform="translate(-10.48 -5.51)" style="fill:#1d1d1b"/><rect x="8.41" y="171.22" width="49.24" height="18.12" rx="4.13" style="fill:#a2cb82"/><path d="M64,193.6H27.49c-2.53,0-7.16.82-7.35-2.89-.1-1.91,0-3.86,0-5.78,0-1.66-.5-4.46.63-5.87.89-1.12,2.13-1.08,3.39-1.08H62.71c1.2,0,2.38-.09,3.32.85,1.32,1.33.84,4,.84,5.74,0,2,.1,4.09,0,6.12A2.93,2.93,0,0,1,64,193.6c-1.6.07-1.61,2.57,0,2.5,3.37-.13,5.38-2.76,5.38-6v-7.53c0-.74,0-1.49,0-2.23A5.44,5.44,0,0,0,66.23,176a8.53,8.53,0,0,0-3.71-.5H32.87c-3.23,0-6.47-.08-9.71,0a5.5,5.5,0,0,0-5.52,5.39c-.08,2,0,4.1,0,6.14,0,2.23-.38,4.86,1,6.78a5.82,5.82,0,0,0,5.11,2.31H64A1.25,1.25,0,0,0,64,193.6Z" transform="translate(-10.48 -5.51)" style="fill:#1d1d1b"/><rect x="1.28" y="189.33" width="56.36" height="18.12" rx="4.13" style="fill:#a2cb82"/><path d="M64,211.72H17.44a5.24,5.24,0,0,1-3.22-.54c-1.86-1.33-1.21-4.81-1.21-6.78v-4.23a4.81,4.81,0,0,1,.45-2.73c.89-1.39,2.29-1.34,3.7-1.34H55.57c2.79,0,5.6-.12,8.39,0,3.06.12,2.91,3,2.91,5.22,0,2.46.1,4.94,0,7.39a3,3,0,0,1-2.88,3c-1.6.07-1.61,2.57,0,2.5a5.48,5.48,0,0,0,5-3.45,8.48,8.48,0,0,0,.37-3.21c0-2.72,0-5.44,0-8.16a5.53,5.53,0,0,0-5.44-5.8c-1,0-2,0-3.07,0H26.56c-3.5,0-7-.08-10.51,0a5.51,5.51,0,0,0-5.54,5.5c-.07,2.6,0,5.21,0,7.81a20.52,20.52,0,0,0,.06,2.6,5.41,5.41,0,0,0,4,4.54,13.23,13.23,0,0,0,3.27.17H64A1.25,1.25,0,0,0,64,211.72Z" transform="translate(-10.48 -5.51)" style="fill:#1d1d1b"/><rect x="1.28" y="207.12" width="95.63" height="18.12" rx="4.13" style="fill:#a2cb82"/><path d="M103.26,229.51H17.79c-2,0-4.53.07-4.77-2.71-.14-1.64,0-3.34,0-5s-.08-3.37,0-5c.15-2.86,2.61-2.88,4.7-2.88H100c1.09,0,2.18,0,3.27,0a2.94,2.94,0,0,1,2.88,2.88c0,.51,0,1,0,1.54v6.78c0,.51,0,1,0,1.53a3,3,0,0,1-2.88,2.89c-1.61.07-1.61,2.57,0,2.5a5.51,5.51,0,0,0,5.38-5.58c0-2.06,0-4.13,0-6.19,0-1.88.29-4.11-.56-5.85a5.52,5.52,0,0,0-5-3c-4.86-.13-9.73,0-14.59,0H31.12c-5,0-10-.06-15,0a5.55,5.55,0,0,0-4.62,2.31c-1.21,1.73-1,3.85-1,5.85,0,2.2,0,4.4,0,6.6,0,2.71,1.54,5.25,4.38,5.76A23.62,23.62,0,0,0,19,232h84.25A1.25,1.25,0,0,0,103.26,229.51Z" transform="translate(-10.48 -5.51)" style="fill:#1d1d1b"/><circle cx="77.26" cy="187.07" r="28.36" style="fill:#a2cb82"/><path d="M58.13,192.58a29.62,29.62,0,1,0,.37-4.66,31.6,31.6,0,0,0-.37,4.66,1.25,1.25,0,0,0,2.5,0,27.11,27.11,0,1,1,21.6,26.55,27.36,27.36,0,0,1-21.6-26.55A1.25,1.25,0,0,0,58.13,192.58Z" transform="translate(-10.48 -5.51)" style="fill:#1d1d1b"/><circle cx="77.26" cy="187.32" r="21.65" style="fill:#a2cb82"/><path d="M65.47,192.83a22.27,22.27,0,1,0,18-21.85,22.53,22.53,0,0,0-18,21.85.63.63,0,0,0,1.25,0,21,21,0,1,1,16.74,20.59,21.22,21.22,0,0,1-16.74-20.59A.63.63,0,0,0,65.47,192.83Z" transform="translate(-10.48 -5.51)" style="fill:#1d1d1b"/><path d="M145.92,221.69h.43A1.29,1.29,0,0,0,145.92,221.69Z" transform="translate(-10.48 -5.51)"/><path d="M244.6,94.83a15.14,15.14,0,0,0-14.79-11.06H194.46a22.44,22.44,0,0,0-.34-5.44,5.18,5.18,0,0,0-6.36-3.61,5.24,5.24,0,0,0-3.09,2.38,5.52,5.52,0,0,0-.62,3.25,27.76,27.76,0,0,1,.08,3.42H147.72a15.56,15.56,0,0,0-13.45,6.85,16.61,16.61,0,0,0-2.37,9.43v103.3c0,4.49,0,9,0,13.49a16.66,16.66,0,0,0,.19,2.46h-8.73a5.17,5.17,0,0,0,0,10.34H138.7a15.85,15.85,0,0,0,3.42,1.71,21.59,21.59,0,0,0,7.33.76H230.2a5.46,5.46,0,0,0,.57,0,15.11,15.11,0,0,0,14.33-15c0-1.24,0-2.48,0-3.72V100.77A22.85,22.85,0,0,0,244.6,94.83ZM232.9,220.94a1.28,1.28,0,0,1,.27-.22S233.06,220.84,232.9,220.94Zm1-.92a2.15,2.15,0,0,1,.25-.35C234.12,219.73,234,219.87,233.86,220Zm.54-123.24c-.05-.16-.06-.23,0,0Zm.17.4s-.09-.13-.14-.29A1.29,1.29,0,0,1,234.57,97.18Zm-.64-1.2c-.12-.13-.25-.27-.22-.28S233.83,95.82,233.93,96Zm0,0Zm-.81-.87a1.28,1.28,0,0,1-.27-.22C233.06,95,233.18,95.12,233.17,95.16Zm-2.48-1h.23C231.62,94.16,231,94.21,230.69,94.13Zm-87.53,1.71c-.11.17-.26.41-.27.36S143,96,143.16,95.84Zm-.47.74a2.49,2.49,0,0,1-.19.41C142.56,96.77,142.62,96.59,142.69,96.58Zm-.39,1s0,.11,0,.25A.53.53,0,0,1,142.3,97.59Zm.19,121.29a2.06,2.06,0,0,1,.2.42C142.62,219.29,142.56,219.11,142.49,218.88Zm.4.79s.16.2.27.37C143,219.88,142.88,219.73,142.89,219.67Zm1.2,1.27a1.1,1.1,0,0,1,.24.17S144.19,221,144.09,220.94Zm44,.83H147.57c-.36,0-.81-.05-1.22-.07.13,0,0,.11-.31,0l-.08,0h-.24l.2,0c-.18-.05-.37-.09-.55-.15l-.32-.11a8.8,8.8,0,0,0-.94-.52l-.12-.06-.17-.18c-.06-.06-.35-.31-.59-.55a.59.59,0,0,0,0-.08,5.65,5.65,0,0,0-.36-.58l-.24-.45-.11-.19c-.08-.3-.15-.67-.19-.88s0-.27,0-.37v-.45c0-.14,0-.27,0-.41,0-1.56,0-3.12,0-4.69V100.59c0-.53,0-1,0-1.58,0-.1,0-.2,0-.31v-.39s0-.12,0-.26l0-.14c0-.11.1-.53.19-.86l.11-.18.24-.45c.11-.19.27-.38.36-.58l0-.08c.24-.24.53-.49.59-.55a2.75,2.75,0,0,1,.26-.22l0,0c.29-.16.65-.32.94-.52l.32-.12.55-.14-.2,0a1.66,1.66,0,0,0,.31,0h0c.21-.07.34,0,.35,0l.42,0c.33,0,.67,0,1,0h81.67c.2,0,.39,0,.59,0h.61a7.36,7.36,0,0,0,1.29.32h0l.17.09c.09,0,.45.22.72.38l.06.06c.16.16.34.3.5.47s.3.33.46.49l0,0c.18.29.39.71.4.74l.09.16v0c.06.21.11.62.2,1,0-.25.1-.36.11.09a1.85,1.85,0,0,0,0,.23.3.3,0,0,0,0,.08l0-.06c0,.16,0,.32,0,.48h0a.27.27,0,0,1,0,.09c0,.14,0,.28,0,.41,0,.61,0,1.22,0,1.83V204c0,4.29,0,8.57,0,12.86a2.43,2.43,0,0,1,0,.27c0,.2,0,.39,0,.58s0,.09,0,.13a.26.26,0,0,1,0,.08c-.1.32-.24.7-.31,1-.05.11-.1.22-.15.31s-.24.39-.35.58a1.81,1.81,0,0,0-.1.2l-.5.46-.37.35-.06.06-.72.38-.17.09h0a8.46,8.46,0,0,0-1.28.31l-.49,0H188.11Z" transform="translate(-10.48 -5.51)"/><path d="M234.75,98.18a1.33,1.33,0,0,1-.12-.32.82.82,0,0,0,.12.34Z" transform="translate(-10.48 -5.51)"/><path d="M146.39,94.14c-.12,0-.24,0-.36,0l-.11,0C146.27,94.22,146.4,94.18,146.39,94.14Z" transform="translate(-10.48 -5.51)"/><path d="M223.75,135.57a7.32,7.32,0,0,0,7.19-7.19c0-1,0-2,0-3V111.91c0-1.33,0-2.67,0-4a7.35,7.35,0,0,0-4.79-7c-1.66-.61-3.63-.43-5.37-.43H170.69c-5.36,0-10.71-.05-16.07,0a7.46,7.46,0,0,0-5.43,2.23,8.12,8.12,0,0,0-2,5.87v18.14a10.43,10.43,0,0,0,.75,4.81,7.31,7.31,0,0,0,6.52,4c.51,0,1,0,1.52,0h67.76Zm-38.48-5.17H155.12a4.08,4.08,0,0,1-1.44-.12c-1.24-.46-1.31-1.61-1.31-2.74V110a14.42,14.42,0,0,1,0-2.63c.37-2,2.5-1.66,4-1.66h65.64c1.61,0,3.57-.15,3.72,2,.19,3,0,6.05,0,9,0,3.72,0,7.43,0,11.15,0,1.3-.54,2.45-2,2.51H185.27Z" transform="translate(-10.48 -5.51)"/><polygon points="213.89 142.13 213.89 142.13 213.89 142.13 213.89 142.13"/><path d="M209.54,158.21h0v0h0S209.55,158.22,209.54,158.21Z" transform="translate(-10.48 -5.51)"/><path d="M209.56,158.27Z" transform="translate(-10.48 -5.51)"/><path d="M205.07,160.8a5.38,5.38,0,0,0,4.74,2.64c4.85.06,9.71,0,14.56,0a2.65,2.65,0,0,0,.71-.1,5.25,5.25,0,0,0,4.48-5.09c0-.76,0-1.52,0-2.28v-7.82a5.47,5.47,0,0,0-2.23-4.7,5.94,5.94,0,0,0-3.6-.95h-7.64c-2.13,0-4.27-.06-6.39,0a5.32,5.32,0,0,0-5,3.49,9,9,0,0,0-.3,3.07v8.09A7,7,0,0,0,205.07,160.8Zm4.49-2.52-.05,0,.05,0v0l0,0s0,0,0,0v0h0v0h0v0h0v0l0,0c0,.07,0,.08,0,0C209.65,158.47,209.66,158.64,209.56,158.28Zm0-10.5,0,0C209.55,147.87,209.51,147.87,209.53,147.78Zm.06,10.49,0,0v0S209.58,158.25,209.59,158.27Zm0,0v0l0,0C209.72,158.37,209.87,158.47,209.61,158.31Zm14.86-.1.05,0Zm-.07-10.54h0l.06,0Zm0-.06v0l0,0h0l-.08,0c-.07-.05-.15-.11.07,0C224.32,147.59,224.34,147.56,224.37,147.61Zm-11.12.06h11.12a.53.53,0,0,0,0,.18v.2c0,.43,0,.86,0,1.28v8.11c0,.26,0,.52,0,.78h0v0H209.63s0,0,0,0l0,0c0-.08,0-.18,0-.18-.06-2,0-3.95,0-5.92v-4.32a.48.48,0,0,0,0-.12l0,0c.08,0,.19,0,.13,0h3.51Z" transform="translate(-10.48 -5.51)"/><polygon points="213.89 167.62 213.89 167.62 213.89 167.62 213.89 167.62"/><path d="M205.07,186.28a5.41,5.41,0,0,0,4.74,2.65c4.85.06,9.71,0,14.56,0a2.65,2.65,0,0,0,.71-.1,5.25,5.25,0,0,0,4.48-5.1c0-.75,0-1.51,0-2.27v-7.83a5.44,5.44,0,0,0-2.23-4.69,5.87,5.87,0,0,0-3.6-.95h-7.64c-2.13,0-4.27-.06-6.39,0a5.29,5.29,0,0,0-5,3.49,9,9,0,0,0-.3,3.06v8.1A6.91,6.91,0,0,0,205.07,186.28Zm4.49-2.51-.05,0,.05,0v0l0,0s0,0,0,0h0s0,0,0,0v0h0v0h0v0l0,0c0,.07,0,.07,0,0C209.65,184,209.66,184.13,209.56,183.77Zm0-10.51,0,0C209.55,173.36,209.51,173.36,209.53,173.26Zm.06,10.49h0v0Zm0,0h0C209.72,183.85,209.87,184,209.61,183.79Zm14.86-.09.05,0Zm-.07-10.54h0l.06,0Zm0-.07v0h0l-.08,0c-.07-.06-.15-.12.07,0C224.32,173.07,224.34,173,224.37,173.09Zm-11.12.07h11.09l0,0a.45.45,0,0,0,0,.17v.21c0,.42,0,.85,0,1.28v8.11c0,.26,0,.52,0,.78h0v0H212c-.74,0-1.47,0-2.21,0h-.18s0,0,0,0l0,0c0-.08,0-.18,0-.18-.06-2,0-4,0-5.92v-4.32a.48.48,0,0,0,0-.12l0,0c.08,0,.19,0,.13,0h3.51Z" transform="translate(-10.48 -5.51)"/><path d="M209.56,183.76Z" transform="translate(-10.48 -5.51)"/><path d="M209.54,183.69h0v0h0A.08.08,0,0,0,209.54,183.69Z" transform="translate(-10.48 -5.51)"/><path d="M199.42,143.45a6,6,0,0,0-3.61-.95h-7.64c-2.13,0-4.26-.06-6.39,0a5.32,5.32,0,0,0-5,3.49,8.8,8.8,0,0,0-.3,3.07v8.09a6.85,6.85,0,0,0,.67,3.65,5.36,5.36,0,0,0,4.74,2.64c4.85.06,9.7,0,14.56,0a2.63,2.63,0,0,0,.7-.1,5.23,5.23,0,0,0,4.48-5.09c0-.76,0-1.52,0-2.28v-7.82A5.47,5.47,0,0,0,199.42,143.45Zm-2.81,14.73-.06,0Zm-.12-10.51h0l0,0Zm0-.06v0l0,0h0l-.08,0c-.07-.05-.15-.11.08,0C196.41,147.59,196.42,147.56,196.45,147.61Zm-14.84.17,0,0C181.63,147.87,181.59,147.87,181.61,147.78Zm0,10.5,0,0,0,0v0l0,0s0,0,0,0v0h0s0,0,0,0h0v0h0v0l0,0c0,.07,0,.08,0,0C181.73,158.47,181.74,158.64,181.64,158.28Zm0,0,0,0v0Zm0,0v0l0,0C181.8,158.37,182,158.47,181.69,158.31Zm2.41,0h-2.39s0,0,0,0l0,0a.44.44,0,0,0,0-.18c-.07-2,0-3.95,0-5.92v-3.39c0-.31,0-.62,0-.93v-.12l0,0c.09,0,.2,0,.13,0h14.63c0,.08,0,.18,0,.18a.67.67,0,0,1,0,.2c0,.43,0,.86,0,1.28v8.11c0,.26,0,.52,0,.78,0,0,0,0,0,0h0v0H184.1Z" transform="translate(-10.48 -5.51)"/><path d="M181.62,158.21h0l0,0h0S181.63,158.22,181.62,158.21Z" transform="translate(-10.48 -5.51)"/><path d="M181.64,158.27Z" transform="translate(-10.48 -5.51)"/><polygon points="185.97 142.13 185.97 142.13 185.97 142.13 185.97 142.13"/><polygon points="157.92 142.13 157.92 142.13 157.92 142.13 157.92 142.13"/><path d="M153.59,158.27Z" transform="translate(-10.48 -5.51)"/><path d="M171.36,143.45a5.94,5.94,0,0,0-3.6-.95h-7.64c-2.13,0-4.26-.06-6.39,0a5.32,5.32,0,0,0-5,3.49,9,9,0,0,0-.29,3.07v8.09a6.94,6.94,0,0,0,.66,3.65,5.38,5.38,0,0,0,4.74,2.64c4.85.06,9.71,0,14.56,0a2.65,2.65,0,0,0,.71-.1,5.24,5.24,0,0,0,4.48-5.09c0-.76,0-1.52,0-2.28v-7.82A5.47,5.47,0,0,0,171.36,143.45Zm-2.81,14.73-.05,0Zm-.12-10.51h0l.06,0Zm0-.06v0l0,0h0l-.08,0c-.07-.05-.15-.11.07,0C168.36,147.59,168.37,147.56,168.4,147.61Zm-14.84.17,0,0C153.58,147.87,153.54,147.87,153.56,147.78Zm0,10.5-.05,0,.05,0v0l0,0s0,0,0,0v0h0v0h0v0h0v0l0,0c0,.07,0,.08,0,0C153.68,158.47,153.69,158.64,153.59,158.28Zm0,0,0,0v0S153.61,158.25,153.62,158.27Zm0,0v0l0,0C153.75,158.37,153.9,158.47,153.64,158.31Zm2.41,0h-2.39s0,0,0,0l0,0c0-.08,0-.18,0-.18-.06-2,0-3.95,0-5.92v-3.39c0-.31,0-.62,0-.93v-.12l0,0c.09,0,.19,0,.13,0H168.4a.53.53,0,0,0,0,.18v.2c0,.43,0,.86,0,1.28v8.11c0,.26,0,.52,0,.78h0v0H156.05Z" transform="translate(-10.48 -5.51)"/><path d="M153.57,158.21h0v0h0S153.58,158.22,153.57,158.21Z" transform="translate(-10.48 -5.51)"/><path d="M153.57,183.69h0v0h0A.08.08,0,0,0,153.57,183.69Z" transform="translate(-10.48 -5.51)"/><polygon points="157.92 167.62 157.92 167.62 157.92 167.62 157.92 167.62"/><path d="M153.59,183.76Z" transform="translate(-10.48 -5.51)"/><path d="M149.1,186.28a5.41,5.41,0,0,0,4.74,2.65c4.85.06,9.71,0,14.56,0a2.65,2.65,0,0,0,.71-.1,5.24,5.24,0,0,0,4.48-5.1c0-.75,0-1.51,0-2.27v-7.83a5.44,5.44,0,0,0-2.23-4.69,5.87,5.87,0,0,0-3.6-.95h-7.64c-2.13,0-4.26-.06-6.39,0a5.29,5.29,0,0,0-5,3.49,9,9,0,0,0-.29,3.06v8.1A6.91,6.91,0,0,0,149.1,186.28Zm4.49-2.51-.05,0,.05,0v0l0,0s0,0,0,0h0s0,0,0,0v0h0v0h0v0l0,0c0,.07,0,.07,0,0C153.68,184,153.69,184.13,153.59,183.77Zm0-10.51,0,0C153.58,173.36,153.54,173.36,153.56,173.26Zm.06,10.49h0v0Zm0,0h0C153.75,183.85,153.9,184,153.64,183.79Zm14.86-.09.05,0Zm-.07-10.54h0l.06,0Zm0-.07v0h0l-.08,0c-.07-.06-.15-.12.07,0C168.36,173.07,168.37,173,168.4,173.09Zm-11.12.07h11.09l0,0a.45.45,0,0,0,0,.17v.21c0,.42,0,.85,0,1.28v8.11c0,.26,0,.52,0,.78h0v0H156.05c-.74,0-1.47,0-2.21,0h-.18s0,0,0,0l0,0c0-.08,0-.18,0-.18-.06-2,0-4,0-5.92v-3.39c0-.31,0-.62,0-.93v-.12l0,0c.09,0,.19,0,.13,0h3.51Z" transform="translate(-10.48 -5.51)"/><path d="M177.16,185.73a5.39,5.39,0,0,0,4.74,2.65c4.85.06,9.7,0,14.56,0a2.63,2.63,0,0,0,.7-.1,5.23,5.23,0,0,0,4.48-5.1c0-.75,0-1.52,0-2.27v-7.83a5.44,5.44,0,0,0-2.22-4.69,5.92,5.92,0,0,0-3.61-.95h-7.64c-2.13,0-4.26-.06-6.39,0a5.29,5.29,0,0,0-5,3.49,8.77,8.77,0,0,0-.3,3.06v8.1A6.82,6.82,0,0,0,177.16,185.73Zm4.48-2.51,0,0,0,0v0l0,0,0,0h0l0,0s0,0,0,0h0v0h0v0l0,0c0,.07,0,.07,0,0C181.73,183.41,181.74,183.58,181.64,183.22Zm0-10.51,0,0C181.63,172.81,181.59,172.81,181.61,172.71Zm.06,10.49h0v0Zm0,0h0C181.8,183.3,182,183.4,181.69,183.24Zm14.86-.09.06,0Zm-.06-10.54h0l0,0Zm0-.07v0h0l-.08,0c-.07-.06-.15-.12.08,0C196.41,172.52,196.42,172.49,196.45,172.54Zm-11.12.07h10.56c.18,0,.36,0,.53,0h0l0,0,0,.17a.74.74,0,0,1,0,.21c0,.42,0,.85,0,1.28v8.11c0,.26,0,.52,0,.78h0v0H181.71s0,0,0,0l0,0a.42.42,0,0,0,0-.17c-.07-2,0-3.95,0-5.92v-3.39c0-.31,0-.62,0-.93v-.12l0,0c.09,0,.2,0,.13,0,.22,0,.43,0,.64,0Z" transform="translate(-10.48 -5.51)"/><path d="M181.64,183.21Z" transform="translate(-10.48 -5.51)"/><path d="M181.62,183.14h0l0,0h0Z" transform="translate(-10.48 -5.51)"/><polygon points="185.97 167.07 185.97 167.07 185.97 167.07 185.97 167.07"/><path d="M209.63,209.18Z" transform="translate(-10.48 -5.51)"/><path d="M209.61,209.11h0v0h0S209.61,209.13,209.61,209.11Z" transform="translate(-10.48 -5.51)"/><polygon points="213.96 193.04 213.95 193.04 213.96 193.04 213.96 193.04"/><path d="M229.63,199.05a5.46,5.46,0,0,0-2.23-4.69,5.9,5.9,0,0,0-3.61-1h-7.64c-2.12,0-4.26-.06-6.38,0a5.31,5.31,0,0,0-5,3.49,9,9,0,0,0-.3,3.06v8.1a7,7,0,0,0,.67,3.65,5.4,5.4,0,0,0,4.74,2.64c4.85.06,9.71,0,14.56,0a2.65,2.65,0,0,0,.71-.1,5.25,5.25,0,0,0,4.48-5.1c0-.75,0-1.51,0-2.27Zm-5,10-.05,0Zm-.12-10.51h0l.06,0Zm0-.07v0h0l-.07,0c-.07-.06-.15-.12.07,0C224.39,198.49,224.41,198.46,224.44,198.51Zm-14.84.17,0,0C209.62,198.78,209.58,198.78,209.6,198.68Zm0,10.51,0,0,0,0v0l0,0s0,0,0,0h0l0,0v0h0v0h0v0l0,0c0,.07,0,.07,0,0C209.72,209.38,209.73,209.55,209.63,209.19Zm0,0h0v0S209.65,209.16,209.65,209.17Zm0,0h.05C209.79,209.27,209.94,209.37,209.67,209.21Zm2.42,0h-2.4s0,0,0,0l0,0c0-.08,0-.18,0-.18-.06-2,0-3.95,0-5.92v-4.44l0,0c.08,0,.19,0,.13,0,.21,0,.43,0,.64,0h13.43c.18,0,.35,0,.53,0h0l0,0a.45.45,0,0,0,0,.17V199c0,.42,0,.85,0,1.28v8.11c0,.26,0,.52,0,.78h0v0H212.09Z" transform="translate(-10.48 -5.51)"/><polygon points="157.99 193.04 157.99 193.04 157.99 193.04 157.99 193.04"/><path d="M153.64,209.11h0v0h0S153.64,209.13,153.64,209.11Z" transform="translate(-10.48 -5.51)"/><path d="M153.66,209.18Z" transform="translate(-10.48 -5.51)"/><path d="M173.66,199.05a5.46,5.46,0,0,0-2.23-4.69,5.9,5.9,0,0,0-3.61-1h-7.63c-2.13,0-4.27-.06-6.39,0a5.31,5.31,0,0,0-5,3.49,9,9,0,0,0-.3,3.06v8.1a7,7,0,0,0,.67,3.65,5.4,5.4,0,0,0,4.74,2.64c4.85.06,9.71,0,14.56,0a2.65,2.65,0,0,0,.71-.1,5.25,5.25,0,0,0,4.48-5.1c0-.75,0-1.51,0-2.27Zm-5,10-.05,0Zm-.12-10.51h0l.06,0Zm0-.07v0h0l-.08,0c-.07-.06-.15-.12.07,0C168.42,198.49,168.44,198.46,168.47,198.51Zm-14.84.17,0,0C153.65,198.78,153.61,198.78,153.63,198.68Zm0,10.51,0,0,0,0v0l0,0s0,0,0,0h0l0,0v0h0v0h0v0l0,0c0,.07,0,.07,0,0C153.75,209.38,153.76,209.55,153.66,209.19Zm0,0h0v0S153.68,209.16,153.68,209.17Zm0,0h.05C153.82,209.27,154,209.37,153.7,209.21Zm2.42,0h-2.39s0,0,0,0l0,0c0-.08,0-.18,0-.18-.06-2,0-3.95,0-5.92v-4.44l0,0c.08,0,.19,0,.13,0,.21,0,.43,0,.64,0h13.43c.18,0,.35,0,.53,0h0l0,0a.45.45,0,0,0,0,.17V199c0,.42,0,.85,0,1.28v8.11c0,.26,0,.52,0,.78h0v0H156.12Z" transform="translate(-10.48 -5.51)"/><path d="M181.71,208.63Z" transform="translate(-10.48 -5.51)"/><polygon points="186.04 192.49 186.04 192.49 186.04 192.49 186.04 192.49"/><path d="M201.71,198.5a5.45,5.45,0,0,0-2.22-4.69,5.92,5.92,0,0,0-3.61-.95h-7.64c-2.13,0-4.26-.06-6.39,0a5.29,5.29,0,0,0-5,3.49,9,9,0,0,0-.29,3.06v8.1a7,7,0,0,0,.66,3.65A5.41,5.41,0,0,0,182,213.8c4.85.06,9.7,0,14.55,0a2.65,2.65,0,0,0,.71-.1,5.23,5.23,0,0,0,4.48-5.1c0-.75,0-1.51,0-2.27Zm-5,10-.06,0ZM196.56,198h0l.06,0Zm0-.07v0h0l-.08,0c-.07-.06-.15-.12.08,0C196.48,197.94,196.49,197.91,196.52,198Zm-14.84.17,0,0C181.7,198.23,181.66,198.23,181.68,198.13Zm0,10.51-.05,0,.05,0v0l0,0s0,0,0,0h0a0,0,0,0,1,0,0v0h0v0h0v0l0,0c0,.07,0,.07,0,0C181.8,208.83,181.81,209,181.71,208.64Zm0,0h0v0Zm0,0h0C181.87,208.72,182,208.82,181.76,208.66Zm2.41,0h-2.39s0,0,0,0l0,0a.44.44,0,0,0,0-.18c-.07-2,0-4,0-5.92v-3.39c0-.31,0-.62,0-.93v-.12l0,0c.09,0,.2,0,.13,0h14.6l0,0a.92.92,0,0,0,0,.17,1.47,1.47,0,0,1,0,.21c0,.42,0,.85,0,1.28v8.11c0,.26,0,.52,0,.78h0v0H184.17Z" transform="translate(-10.48 -5.51)"/><path d="M181.69,208.56h0v0h0S181.7,208.58,181.69,208.56Z" transform="translate(-10.48 -5.51)"/><path d="M97.61,70.92H46.72c-3.38,0-3.38,5.24,0,5.24H97.61C101,76.16,101,70.92,97.61,70.92Z" transform="translate(-10.48 -5.51)"/><path d="M123.6,70.92h-10a2.62,2.62,0,0,0,0,5.24h10a2.62,2.62,0,0,0,0-5.24Z" transform="translate(-10.48 -5.51)"/><path d="M97.61,91.7H46.21c-3.37,0-3.38,5.24,0,5.24h51.4C101,96.94,101,91.7,97.61,91.7Z" transform="translate(-10.48 -5.51)"/><path d="M123.41,91.7h-10a2.62,2.62,0,1,0,0,5.24h10A2.65,2.65,0,0,0,126,94.32,2.68,2.68,0,0,0,123.41,91.7Z" transform="translate(-10.48 -5.51)"/><path d="M97.61,112.48H46.2c-3.38,0-3.38,5.25,0,5.25H97.61C101,117.73,101,112.48,97.61,112.48Z" transform="translate(-10.48 -5.51)"/><path d="M123.41,112.48h-10a2.63,2.63,0,0,0,0,5.25h10a2.66,2.66,0,0,0,2.63-2.62A2.69,2.69,0,0,0,123.41,112.48Z" transform="translate(-10.48 -5.51)"/><path d="M80.26,136.19H46.2c-3.38,0-3.38,5.25,0,5.25H97.61c3.38,0,3.38-5.25,0-5.25Z" transform="translate(-10.48 -5.51)"/><path d="M123.36,136.19h-10a2.63,2.63,0,0,0,0,5.25h10a2.63,2.63,0,0,0,0-5.25Z" transform="translate(-10.48 -5.51)"/><path d="M80.45,192.52a14.09,14.09,0,0,0-2-.51c-.61-.12-1.8-.22-2.12-.86-.43-.86.46-1.51,1.19-1.65a4.21,4.21,0,0,1,3.29.89.66.66,0,0,0,.89-.24l1-1.38a.67.67,0,0,0-.24-.9,7.38,7.38,0,0,0-5.83-1.23,4.09,4.09,0,0,0-3.38,3.59,3.78,3.78,0,0,0,2.26,4.19,13,13,0,0,0,2.31.55c.69.13,2,.23,2.16,1.09.22,1.1-1,1.45-1.85,1.49a4.68,4.68,0,0,1-3.3-1,.66.66,0,0,0-.93,0l-1.09,1.34a.67.67,0,0,0,0,.92,7.48,7.48,0,0,0,3.11,1.55,7.63,7.63,0,0,0,5.13-.54,4,4,0,0,0,2-3.88A3.69,3.69,0,0,0,80.45,192.52Z" transform="translate(-10.48 -5.51)"/><path d="M92.41,186.6H90.47a.64.64,0,0,0-.57.33l-2.16,4.46c-.72-1.49-1.45-3-2.17-4.46a.64.64,0,0,0-.56-.33h-2a.67.67,0,0,0-.57,1l2.6,5a20.08,20.08,0,0,0,1.1,2.17c0,.09,0,.19,0,.22v4.71a.66.66,0,0,0,.65.65h1.75a.66.66,0,0,0,.66-.65v-4.92q1.85-3.62,3.71-7.23A.67.67,0,0,0,92.41,186.6Z" transform="translate(-10.48 -5.51)"/><path d="M99.59,186.69A9.13,9.13,0,0,0,98,186.6H93.79a.62.62,0,0,0-.42.16l0,0a.08.08,0,0,0,0,0,.62.62,0,0,0-.16.42v12.48a.66.66,0,0,0,.66.65h1.75a.66.66,0,0,0,.65-.65v-4.19h2.43a4.52,4.52,0,0,0,3.1-1.15,4.85,4.85,0,0,0,.52-6A4.1,4.1,0,0,0,99.59,186.69Zm-3.4,2.88c.83,0,1.66,0,2.49,0a1.24,1.24,0,0,1,1.22,1.18,1.54,1.54,0,0,1-.81,1.76,2.65,2.65,0,0,1-.8.06h-2.1Z" transform="translate(-10.48 -5.51)"/></svg>