<svg xmlns="http://www.w3.org/2000/svg" viewBox="0 0 213.35 198.75"><g id="Layer_2" data-name="Layer 2"><path d="M86.71,89.59a23.81,23.81,0,0,0-17.09-.13,14.62,14.62,0,0,0-6.88,4.77,15.41,15.41,0,0,0-2.6,7.6,12.32,12.32,0,0,0,2,8.45,2.58,2.58,0,0,0,3.42.9,2.51,2.51,0,0,0,.89-3.42c-2.58-3.44-1.43-10,2.17-12.26,4.82-3.09,11.55-3.3,16.8-1.09a2.5,2.5,0,0,0,3.07-1.75,2.56,2.56,0,0,0-1.74-3.07Z" transform="translate(-14.04 -15.46)" style="fill:#a2cb82"/><path d="M60.44,104.61a18.77,18.77,0,0,0-.22,8.66c.49,2.79,1.54,5.91,3.85,7.72a5.61,5.61,0,0,0,4.27,1.28,6.27,6.27,0,0,0,4.12-2.67,17.88,17.88,0,0,0,2.3-4.26c.52-1.23,1-2.82,1.5-3.83a12.51,12.51,0,0,1,2.08-3.36c.28-.3.57-.6.87-.88l.31-.27c.06-.06.48-.37.23-.2a10,10,0,0,1,.89-.54c.41-.24.19-.1.07-.05a5.61,5.61,0,0,1,.67-.19l-3.07-3.08a2.41,2.41,0,0,0-.08.25c0,.48.11-.22.06-.11-.15.27-.27.56-.41.83-.36.71-.76,1.4-1.19,2.08-.21.33-.43.66-.67,1-.06.09-.47.57-.06.09-.11.13-.21.27-.33.4s-.53.67-.64.64q.53-.37.21-.18t.12,0s.71-.13.55-.14a2.51,2.51,0,0,0-2.5,2.5,2.57,2.57,0,0,0,2.5,2.5c2.12.25,3.81-2.26,4.81-3.75a17.08,17.08,0,0,0,2.45-4.74,2.52,2.52,0,0,0-3.07-3.07c-2.69.6-4.82,2.73-6.42,4.85a28.13,28.13,0,0,0-3.32,7,16.5,16.5,0,0,1-1.57,3.15,3.67,3.67,0,0,1-.4.56c-.06.07-.53.51-.32.35a2.67,2.67,0,0,1-.43.25s.32-.17.06-.06.09,0,.13,0-.36,0,0,0c-.14,0-.28-.07-.42-.1,0,0,.35.17.1,0l-.29-.17s-.31-.24-.12-.08-.35-.37-.45-.48c.19.22-.21-.35-.27-.46a8.2,8.2,0,0,1-.4-.78c.16.34-.08-.21-.12-.32a17.69,17.69,0,0,1-.54-1.75,13.89,13.89,0,0,1-.5-3.81,16.64,16.64,0,0,1,.09-2c0,.37.06-.35.08-.47q.12-.52.27-1a2.5,2.5,0,0,0-4.82-1.33Z" transform="translate(-14.04 -15.46)" style="fill:#a2cb82"/><path d="M74.49,99.68c-1,1-2.2,1.85-3.27,2.81A13.62,13.62,0,0,0,70,103.75c-.19.22-.37.46-.56.68s-.88.66-.22.38L72,106c-.59-1.18,0-3.27.45-4.54a18.71,18.71,0,0,1,2.89-5.25,2.54,2.54,0,0,0-.9-3.42c-2.94-1.9-6.14,1.07-7.89,3.22a17.29,17.29,0,0,0-2.32,3.5c-.91,1.94-.7,4.08-1.37,6.07l3.67-1.49c-.34-.19.12.43,0,0a3.48,3.48,0,0,0-.35-.66,5,5,0,0,0-1-1.43c-1.58-1.49-3.67-.7-4.74.92-2.34,3.5-2.34,8.53-1.56,12.5a23.76,23.76,0,0,0,4.82,10.29c2.74,3.22,7.12,4.63,10.58,6.9L76.26,128a25,25,0,0,1-4.56-.76c-1.39-.5-2.41-1.53-3.89-1.91-2.57-.65-4,2.32-2.44,4.18,2,2.46,5.23,3.59,8.15,4.54,2.51.82,7,2.69,9,0,1.08-1.44.82-3.12.81-4.8a5.29,5.29,0,0,1,1.41-3.6,4,4,0,0,1,2.92-1c1.64,0,3.27.06,4.91,0,3.46-.1,7.83-.07,10.53-2.59,2.51-2.35,2.69-6.18,2.33-9.37a53.55,53.55,0,0,0-2.61-10.86,20.66,20.66,0,0,0-4.93-8c-4.44-4.48-11.71-9.14-18.07-5.82-2.85,1.49-.32,5.81,2.53,4.32a4.29,4.29,0,0,1,2.45-.45,9.83,9.83,0,0,1,3,.82,21.19,21.19,0,0,1,5.86,4,14.08,14.08,0,0,1,4,5.54,53,53,0,0,1,2.53,9.11,17.05,17.05,0,0,1,.37,4.62,4.32,4.32,0,0,1-.79,2.39,4,4,0,0,1-2.54.94,40.45,40.45,0,0,1-5.38.4c-2.63,0-5.41-.35-7.92.63a9.24,9.24,0,0,0-5.42,7.07,12,12,0,0,0-.14,2.54c.05.86-.25,2.86,1.12.46.12-.21.39,0-.2-.07-.26,0-.52,0-.77-.07a14,14,0,0,1-2.38-.65c-2.54-.83-5.48-1.52-7.24-3.67l-2.43,4.17c1.38.35,2.51,1.45,3.89,1.91a28,28,0,0,0,4.56.76,2.51,2.51,0,0,0,1.93-4.57c-2.44-1.59-5.1-2.77-7.55-4.33a10.87,10.87,0,0,1-3.87-5,18.68,18.68,0,0,1-1.91-7,15.6,15.6,0,0,1,.22-3.92,9.05,9.05,0,0,1,.54-1.77c.1-.23.27-.44.36-.67.28-.69-.44.27-.23.18l-1.26.34c-.15,0-1.63-.52-1.59-.84,0,.06.14.25.17.32.13.28.28.57.44.84A5.16,5.16,0,0,0,64,108.37a2.54,2.54,0,0,0,3.68-1.5,38.11,38.11,0,0,0,.87-4.79c.2-1.06-.19.21.07-.25.11-.18.19-.37.29-.55a14.12,14.12,0,0,1,.89-1.38,15.37,15.37,0,0,1,2-2.23c.28-.25.21-.18.29-.23s.64-.42.37-.25.39,0,.1,0c-.13,0-1-.28-.65-.07L71,93.65c-2.83,4-5.76,9.94-3.34,14.84a2.5,2.5,0,0,0,2.82,1.14c1.64-.68,2.4-1.82,3.61-3s2.66-2.2,3.9-3.4c2.33-2.23-1.21-5.76-3.53-3.53Z" transform="translate(-14.04 -15.46)" style="fill:#a2cb82"/><path d="M99.67,101.32a23.46,23.46,0,0,0,.92,5.18,20.58,20.58,0,0,1,.33,4.44c0,3.36-.72,6.65-.74,10h5v-.35c0-3.22-5-3.23-5,0V121c0,3.22,5,3.22,5,0s.75-6.65.74-10a28.7,28.7,0,0,0-.36-5.07,25.42,25.42,0,0,1-.89-4.55c0-3.22-5-3.22-5,0Z" transform="translate(-14.04 -15.46)" style="fill:#a2cb82"/><path d="M101.18,117.29c-5-1.56-11.09-.9-16,.8a21.4,21.4,0,0,0-7.68,4.22,9.25,9.25,0,0,0-2.74,6.94l4.92-.67c-.24-.58-.48-1.16-.73-1.74,0,0-.33-.83-.14-.34,0-.13-.12-.27-.16-.41a3.19,3.19,0,0,0-.16-.55c.17.29,0,.45,0,.17l-.06.36c.08-.26,0-.21-.07.15s-.33.23.11-.09a9.46,9.46,0,0,1,.92-.58,21.27,21.27,0,0,1,1.9-1,42,42,0,0,1,4.48-1.75A69.2,69.2,0,0,1,95.22,120a14.85,14.85,0,0,1,3.39-.24,6.09,6.09,0,0,0,3.56-.73,3.89,3.89,0,0,0,.3-6.26c-1.44-1.11-3.44-1.2-5.19-1.1-2.11.12-4.22.47-6.31.76a58.48,58.48,0,0,0-9.19,1.87c-4.93,1.52-11.87,5.4-11.48,11.47l1.84-2.41c-.48.13-1.08-.28-1.51-.7.25.25-.17-.37,0,.07,0,0,0,.36,0,.33a5.31,5.31,0,0,1,1.08-.57c1.4-.52,2.93-.78,4.37-1.18,1.93-.54,3.86-1.09,5.81-1.57,3.68-.9,7.45-1.45,11-2.66s6.54-3.34,6.81-7.4l-2.5,2.5c.51,0,.19-.06-.08-.29-.43-.37-.14-.1-.05.34a2.51,2.51,0,0,0,3.07,1.75,2.56,2.56,0,0,0,1.75-3.08,27.33,27.33,0,0,0-2.51-7.23,26.17,26.17,0,0,0-4.11-6.33,19.93,19.93,0,0,0-14-6,13.17,13.17,0,0,0-6.69,1.33,13.53,13.53,0,0,0-4.43,4.15c-2.21,3-3.64,6.83-4.93,10.35-1.66,4.48-2.67,10.13,1,13.9a2.54,2.54,0,0,0,3,.39c1.66-1.14,2-2.94,2.15-4.81.09-.82.12-1.65.19-2.47,0-.17,0-.35,0-.52.05-.42-.08.33,0,0a4.48,4.48,0,0,1,.38-1,60.57,60.57,0,0,1,3.72-5.92,26.65,26.65,0,0,1,4.71-5.45,2.52,2.52,0,0,0-1.1-4.18,8.42,8.42,0,0,0-5.72.81l3.42,3.43c.67-1.2,2-1.39,3.29-1.5a14.61,14.61,0,0,1,5.11.09c3.14.87,6.86,3.83,7.76,7a5.52,5.52,0,0,1,.18.9c0,.34,0,.39,0,.13-.14.43-.05.31.27-.33-.2.19-.2.2,0,0l-.14.07c-.52.09-1.05.31-1.55.45-2.38.63-4.78,1.18-7.16,1.82a123.36,123.36,0,0,0-13.86,4.28L73.9,118c.67-1.43,2.29-2.28,3.83-3s3.36-1.41,5-2.06a69.64,69.64,0,0,1,7.65-2.61c1.18-.29,2.39-.42,3.55-.79,1.68-.54,3.46-1.46,4-3.31a3.83,3.83,0,0,0-2.74-4.54c-3.14-.94-7.08.42-10,1.5A79.74,79.74,0,0,1,76.47,106c-3,.71-5.84,1.79-8.82,2.36l3.16,2.42c0,.71-.43.85.07.37a6,6,0,0,1,.58-.5c.45-.35.93-.67,1.4-1A49.25,49.25,0,0,1,78,106.4c1.7-.93,3.45-1.75,5.23-2.51a15.22,15.22,0,0,1,5.15-1.57l-1.77-4.27a7.28,7.28,0,0,1-2.31,1.21,8.05,8.05,0,0,0-2.9,1.84,2.53,2.53,0,0,0,1.1,4.18,16.11,16.11,0,0,0,8.12.39c2.26-.59,2.51-4.41,0-4.82a12.92,12.92,0,0,0-5,.19,25.77,25.77,0,0,1-4.25.84c-3.2.15-3.22,5.15,0,5a22.65,22.65,0,0,0,4.33-.73,9.34,9.34,0,0,1,3.59-.48v-4.82a11.6,11.6,0,0,1-5.47-.4l1.1,4.18a6.71,6.71,0,0,1,2.22-1.18,9.5,9.5,0,0,0,3-1.86,2.53,2.53,0,0,0-1.77-4.27,20.33,20.33,0,0,0-7.09,2,65.75,65.75,0,0,0-6.6,3.2c-1.86,1.06-3.63,2.26-5.38,3.5s-3.33,2.5-3.48,4.71c-.11,1.73,1.69,2.69,3.17,2.41,2.39-.46,4.69-1.35,7.06-1.94s4.57-1.07,6.79-1.81,4.25-1.68,6.46-2.29c.47-.13.93-.25,1.41-.35.33-.08.66-.15,1-.2l.4-.07c.23,0-.13,0,.27,0s.69,0,1,0c.08,0,.51,0,0,0a1.13,1.13,0,0,1,.42.1c-.28-.24-.52-.25-.7-.65a1.76,1.76,0,0,1,0-1.11.63.63,0,0,1,.16-.26c.14-.17.13-.16,0,0,0-.06.49-.31,0,0l-.39.19c.39-.18-.28.08-.41.12-.62.19-1.26.33-1.9.46a64.37,64.37,0,0,0-11.14,3.69c-3.53,1.4-8.16,2.86-9.91,6.58a2.55,2.55,0,0,0,.2,2.78,2.47,2.47,0,0,0,2.63.89A120.78,120.78,0,0,1,85.61,115c2.37-.63,4.75-1.19,7.12-1.81,1.78-.46,3.79-.86,4.94-2.42,2.41-3.3-.48-8.21-2.85-10.68C92,97.19,88.12,94.87,84,94.7S75,95,72.84,98.82a2.57,2.57,0,0,0,.39,3,2.62,2.62,0,0,0,3,.39,2.86,2.86,0,0,1,1.87-.31L77,97.76c-3.59,3.1-6.1,7.28-8.58,11.27a11.25,11.25,0,0,0-1.76,5.31c-.07.82-.09,1.65-.19,2.47-.06.46.05-.28,0,.15,0,.17-.08.33-.11.49s0,.4,0,.22.07-.14,0,0c-.19.31,0,.14.51-.48l3,.39c-2-2-.88-5.73,0-8.26a46.32,46.32,0,0,1,3.67-8.35c1.55-2.65,3.44-4.47,6.54-4.58a15.34,15.34,0,0,1,10.86,3.73,18.57,18.57,0,0,1,3.89,5.57,23.49,23.49,0,0,1,2.3,6.61l4.82-1.33a4.41,4.41,0,0,0-4.69-3.72,2.57,2.57,0,0,0-2.5,2.5c-.1,1.47-1.75,2.1-2.93,2.51a52.46,52.46,0,0,1-6.15,1.61c-4.23.91-8.36,2.07-12.56,3.13-3.08.78-7.62,2-7.43,6,.17,3.68,4.45,6.1,7.81,5.2a2.52,2.52,0,0,0,1.83-2.41c-.1-1.63,1.31-3.1,2.71-4.18a14.46,14.46,0,0,1,5.31-2.53,64.77,64.77,0,0,1,13.54-2.36,18.94,18.94,0,0,1,2,0l.45,0c-.53-.08-.07,0,.07,0,.46.07.09.2,0,0l.15.08a1.15,1.15,0,0,1-.44-.46,1.1,1.1,0,0,1,0-1.07c-.53,1,.55-.67.53-.51h.14l-.41,0c-1,0-1.92-.06-2.89,0a42.64,42.64,0,0,0-8.9,2.15,78.21,78.21,0,0,0-8.28,3.06c-2,.92-4.79,2.13-5.5,4.45-.59,1.94.51,3.82,1.13,5.4a2.53,2.53,0,0,0,2.75,1.79,2.49,2.49,0,0,0,2.16-2.45,4.23,4.23,0,0,1,1.76-3.83,19.42,19.42,0,0,1,6.18-2.89c3.82-1.1,8.27-1.62,12.12-.42,3.07,1,4.39-3.86,1.33-4.82Z" transform="translate(-14.04 -15.46)" style="fill:#a2cb82"/><path d="M114.31,69.77c2.33,3.34,5,6.59,6.46,10.43L125,77.76c-2-1.82-3.15-4.3-5.2-6a2.54,2.54,0,0,0-4.27,1.76c-.13,3.09,1.24,6,2.2,8.8.58,1.73.91,3.52,1.36,5.29a26.71,26.71,0,0,0,1.78,4.73c1.39,2.93,3,5.7,4.15,8.72.59,1.53,1.17,3,1.72,4.59a21.93,21.93,0,0,0,1.9,4.49A2.54,2.54,0,0,0,132,111a8.88,8.88,0,0,0,2.21-2.07,15.81,15.81,0,0,1,2.23-1.84,12,12,0,0,0,3.42-5.52,61.2,61.2,0,0,0,1.77-6.67,26.56,26.56,0,0,0,.78-7.48c-.28-4.25-2.2-8.4-4.33-12.05a19.82,19.82,0,0,0-9.51-8.27c-2.43-1-4.87-1-7.44-1.24-1.78-.19-4.5-.72-5,1.72-.7,3.14,4.12,4.48,4.82,1.33v-.06l-1.14,1.5-.44.13q-.72.15-.33.15a2,2,0,0,0,.36,0c.31,0,.63.06,1,.1.61.08,1.22.15,1.84.19a12.92,12.92,0,0,1,5,1,15.1,15.1,0,0,1,6.71,6.16c1.56,2.73,3.28,6,3.54,9.15.31,3.89-.85,7.85-1.9,11.56-.46,1.59-1,3.44-2.31,4.55-.65.55-1.42,1-2,1.55s-1.08,1.47-1.67,1.82l3.42.89a18.18,18.18,0,0,1-1.52-3.64c-.54-1.49-1.11-3-1.68-4.45-1.2-3.08-2.7-6-4.18-8.9s-1.89-5.94-2.83-9c-.8-2.62-2.34-5.29-2.22-8.1l-4.27,1.77c2.06,1.73,3.25,4.21,5.21,6,1.68,1.57,5.12,0,4.17-2.43-1.64-4.31-4.34-7.87-7-11.62a2.57,2.57,0,0,0-3.42-.9,2.51,2.51,0,0,0-.9,3.42Z" transform="translate(-14.04 -15.46)" style="fill:#a2cb82"/><path d="M139.33,89.08c-1.48,2.36-.93,5.3-2.25,7.65A13,13,0,0,1,135,99.41a14.21,14.21,0,0,1-2.42,1.73l1.93-.25-.07,0,1.11.65c-.23-.27.28.53.23.65a4.22,4.22,0,0,0,0-1c0,.33.11-.6.13-.7.05-.27.1-.54.16-.81a38.66,38.66,0,0,1,1.29-4.47,23.07,23.07,0,0,0,1.28-12.16c-.7-3.8-2.75-7.64-6.21-9.58-1.57-.88-3.32-1.4-4.94-2.18s-3.54-1.85-5.44-1.61c-1.2.15-2.68,1-2.5,2.5.32,2.53,1.77,4.54,2.5,7a61.38,61.38,0,0,1,1.47,8.08A32.44,32.44,0,0,0,126,95c.54,1.24,1.08,2.49,1.71,3.69a9.25,9.25,0,0,1,1.32,2.83,2.58,2.58,0,0,0,2.5,2.5,2.53,2.53,0,0,0,2.5-2.5c-.06-5,1.23-9.93.5-14.93a14.07,14.07,0,0,0-2.39-6.18,36.91,36.91,0,0,1-3.56-5.18c-.94-2-4.05-1.37-4.57.59a9.83,9.83,0,0,0,.44,5.39,29.41,29.41,0,0,1,1,4.46c.48,3.33,1,6.71,3.26,9.33,1.29,1.48,3.64.58,4.17-1.1.94-3,.66-6.09.25-9.12-.17-1.28-.39-2.55-.54-3.83-.11-1-.51-2.5-.18-3.31l-4.18,1.11c1.8,1.77,1.68,4,1.42,6.37a2.51,2.51,0,0,0,2.5,2.5,2.57,2.57,0,0,0,2.5-2.5c.4-3.7-.14-7.2-2.89-9.91-1.45-1.43-3.49-.6-4.17,1.1a8.33,8.33,0,0,0,0,4.15c.14,1.08.34,2.68.53,4,.4,2.68.82,5.51,0,8.14l4.18-1.1c-1.52-1.74-1.64-4.88-2-7.13a25.43,25.43,0,0,0-.81-3.76c-.32-1-.92-2.46-.66-3.43l-4.57.6a32.17,32.17,0,0,0,3.34,4.88,10.63,10.63,0,0,1,2.08,5.06c.59,4.59-.71,9.23-.65,13.83h5c-.32-2.63-1.76-4.75-2.85-7.11a32.33,32.33,0,0,1-2.65-7.58c-.49-2.61-.67-5.27-1.32-7.86a21.22,21.22,0,0,0-1.41-4,10.55,10.55,0,0,1-1.22-2.75l-2.5,2.5c1.51-.19,3.44,1.2,4.88,1.79,1.69.7,3.5,1.28,4.7,2.74,2.28,2.77,2.86,7.06,2.17,10.5-.48,2.36-1.51,4.56-2.13,6.89a30.4,30.4,0,0,0-.85,4.33c-.2,1.66.06,3.55,1.66,4.48,1.9,1.12,4.29-.86,5.63-2.12A15.33,15.33,0,0,0,142,98c.81-2,.5-4.54,1.66-6.4,1.71-2.74-2.62-5.25-4.32-2.52Z" transform="translate(-14.04 -15.46)" style="fill:#a2cb82"/><path d="M163.46,97.09a2.7,2.7,0,0,1,.22.33c-.1-.28-.1-.28,0,0s.17.65.23,1c0-.31.06.61.07.72,0,.38,0,.77.06,1.15.08,1.72.27,3.4.5,5.12.46,3.44,1.29,7.56-.49,10.77a2.53,2.53,0,0,0,2.16,3.76c1.76.09,3.38-.64,5.1-.69s3.44.1,4.84-1.17c2.14-2,1.15-5.13.58-7.56-1.24-5.3-3.43-11.08-8-14.33a2.53,2.53,0,0,0-3.42.9c-1.66,2.71,0,6.33.4,9.19.47,3,.51,6.86,2.66,9.26a2.51,2.51,0,0,0,3.92-.5c1.34-2.11,2-5.69.25-7.7a2.5,2.5,0,0,0-3.53,3.53l-.43-.72.05.18c-.2-.19,0-.35-.05.06,0,0,0,.5,0,.27s-.09.44-.09.42c-.08.33-.19.65-.27,1s0-.12,0,.1a1.58,1.58,0,0,1-.2.36l3.92-.5c.31.34-.1-.19-.15-.3.15.31-.11-.38-.12-.44a17.18,17.18,0,0,1-.37-1.73c-.24-1.39-.46-2.78-.67-4.18s-.45-2.53-.74-3.8l-.18-.86a3,3,0,0,1-.05-.34c0-.19.08-.65,0-.8s0-.18,0,.06-.12.23,0,0l-3.42.9a12.36,12.36,0,0,1,3.38,4.44,29.34,29.34,0,0,1,2.1,5.81c.24.92.44,1.84.63,2.76,0,.26.11.52.16.77.08.45,0-.05,0,.2a5.27,5.27,0,0,0,0,.57c-.17-.08.28-.63.3-.66.16-.2.38-.06.16-.14a4.73,4.73,0,0,0-.52,0,18.69,18.69,0,0,0-2.48.09,18.77,18.77,0,0,1-3.72.55l2.16,3.76c2.36-4.25,1.74-9.06,1.12-13.68-.24-1.77-.38-3.52-.48-5.3s-.19-3.73-1.23-5.15a2.58,2.58,0,0,0-3.42-.9,2.51,2.51,0,0,0-.9,3.42Z" transform="translate(-14.04 -15.46)" style="fill:#a2cb82"/><path d="M163.63,109.23a16.73,16.73,0,0,0,.73,4.5,2.58,2.58,0,0,0,1.14,1.49,2.51,2.51,0,0,0,3.42-.89,2.56,2.56,0,0,0,.26-1.93,15.24,15.24,0,0,1-.53-2.43l.09.67a13.38,13.38,0,0,1-.11-1.41,2.62,2.62,0,0,0-.73-1.76,2.58,2.58,0,0,0-1.77-.74,2.51,2.51,0,0,0-2.5,2.5Z" transform="translate(-14.04 -15.46)" style="fill:#a2cb82"/><path d="M151.85,145.89c-5.06,3.92-7.19,10.66-7.86,16.78a18.5,18.5,0,0,0,.89,9.16,20.87,20.87,0,0,0,6.06,8.29,2.54,2.54,0,0,0,3.29.19,2.47,2.47,0,0,0,.64-3.22,20.19,20.19,0,0,0-3.06-2.86c-2.32-2.23-5.86,1.3-3.54,3.54.67.64,1.76,1.09,2.28,1.84l3.93-3a16.42,16.42,0,0,1-4.92-6.44,14.89,14.89,0,0,1-.57-7.47c.55-4.91,2.38-10.13,6.39-13.24a2.52,2.52,0,0,0,0-3.54,2.56,2.56,0,0,0-3.53,0Z" transform="translate(-14.04 -15.46)" style="fill:#a2cb82"/><path d="M145.46,174.62c.69,3.48,3,5.88,5.25,8.43,2,2.27,3.71,4.78,6.27,6.48,3.05,2,7,1.7,10.48,1.8,3.1.09,6.52,1,9.55,0s1.74-5.82-1.33-4.82c-2.32.76-5.12,0-7.51-.13-1.73-.06-3.47-.06-5.2-.17a6.41,6.41,0,0,1-3.46-1c-2-1.34-3.41-3.53-4.95-5.33-1.78-2.07-3.72-3.79-4.28-6.59a2.5,2.5,0,0,0-4.82,1.33Z" transform="translate(-14.04 -15.46)" style="fill:#a2cb82"/><path d="M164.49,191.68a5.55,5.55,0,0,0,4.38,1.43c1.84-.07,3.67,0,5.5,0a22.37,22.37,0,0,0,10.54-3.19c5.31-3.07,8.93-8.32,11.64-13.71,1.72-3.45,1.93-7.39,2-11.17a20.71,20.71,0,0,0-2.29-10.46c-3.21-5.74-9.34-9.57-15.56-11.23a55.05,55.05,0,0,0-12.62-2c-4.29-.1-8.44,1.12-12.54,2.23-3.11.84-1.79,5.66,1.32,4.82a47.61,47.61,0,0,1,9.4-2,38.92,38.92,0,0,1,9.49,1c5.51,1,10.71,3,14.5,7.33a13.2,13.2,0,0,1,3.19,7.27,31.07,31.07,0,0,1-.32,9c-.55,2.71-2.12,5.1-3.58,7.41a23.63,23.63,0,0,1-4.59,5.47,19,19,0,0,1-8.49,4.06,25.34,25.34,0,0,1-5.15.16c-.76,0-1.5,0-2.25,0a7.49,7.49,0,0,1-.82,0c-.76-.08-.25,0-.19,0-2.28-2.28-5.81,1.25-3.53,3.53Z" transform="translate(-14.04 -15.46)" style="fill:#a2cb82"/><path d="M156.92,148a16.64,16.64,0,0,1,7.23-3.3,49.65,49.65,0,0,1,9.24-1.2A11.42,11.42,0,0,1,184,149a23.92,23.92,0,0,1,3.69,15.37c-.39,4.83-1.65,10.51-6.45,12.75-2.86,1.34-6.07,1.72-9.16,2.15-1.14.16-1.84.29-3,.36a10.05,10.05,0,0,1-1.82,0c.12,0,.33.07-.13,0-.29-.1-.31-.09-.05,0a1.63,1.63,0,0,1-.35-.23,2.51,2.51,0,0,0-3.42.9,2.56,2.56,0,0,0,.9,3.42c2.13,1.62,5.55.93,8,.59l.77-.11c.87-.11,1.74-.21,2.61-.34a32.73,32.73,0,0,0,5.69-1.36A15.26,15.26,0,0,0,189,177a21.5,21.5,0,0,0,3.27-9,30,30,0,0,0-3-20.1c-2.83-5-7.1-8.56-12.94-9.25-4-.47-8.31.32-12.25,1a22.47,22.47,0,0,0-10.64,4.84,2.51,2.51,0,0,0,0,3.53,2.55,2.55,0,0,0,3.54,0Z" transform="translate(-14.04 -15.46)" style="fill:#a2cb82"/><path d="M163.93,143.21a23.38,23.38,0,0,0-9.67,6.63c-2.4,2.9-3.11,6.61-3.48,10.25a56.27,56.27,0,0,0-.44,11.74,37.55,37.55,0,0,0,2.9,11.37,9.31,9.31,0,0,0,4,4.73,8.85,8.85,0,0,0,6.39.62,2.55,2.55,0,0,0,1.5-3.68,8.93,8.93,0,0,0-2.37-2.85,2.58,2.58,0,0,0-3.54,0,2.53,2.53,0,0,0,0,3.54,5.31,5.31,0,0,1,1.59,1.84l1.49-3.68c-3.7,1-5-3.05-5.75-5.86a35.44,35.44,0,0,1-1.21-12.51c.24-3.42.19-7.2,1.56-10.4s5.14-5.7,8.33-6.92A2.58,2.58,0,0,0,167,145a2.52,2.52,0,0,0-3.08-1.74Z" transform="translate(-14.04 -15.46)" style="fill:#a2cb82"/><path d="M150.31,152.53a25.09,25.09,0,0,0-2.84,11.54c-.16,3.86.08,7.58,1.81,11.1a16.88,16.88,0,0,0,7.26,7.57,35.92,35.92,0,0,0,10.07,2.85c4.4.77,9,1.23,13.23-.48a2.57,2.57,0,0,0,1.74-3.07,2.52,2.52,0,0,0-3.07-1.75,28.44,28.44,0,0,1-9.32,1.51c-2.45-.07-5-.66-7,1.1a2.51,2.51,0,0,0-.39,3c1.43,2.15,4.1,2.44,6.48,2.57a41,41,0,0,0,8.21-.09c6.19-1,10.33-5.49,13.7-10.39,3.12-4.54,5.27-10.4,5-16a19.67,19.67,0,0,0-6.34-14,22,22,0,0,0-15.65-5,18.58,18.58,0,0,0-13.69,7.13c-6,7.73-7,19.82-2.16,28.36,3.07,5.38,10.12,6.41,15.8,5.76,4.89-.56,9.83-3.08,11.9-7.77a15.42,15.42,0,0,0,1-7.67,32.54,32.54,0,0,0-1.49-7.84,16.73,16.73,0,0,0-3.91-6.67,12.37,12.37,0,0,0-7.16-3.24c-10-1.33-18.81,6.31-21.85,15.44-1.53,4.58-1.05,9.58,2.12,13.34,3.45,4.1,9,5.14,14.09,5.05,4.85-.08,10.28-.66,14.63-3a11.93,11.93,0,0,0,5.13-5.06,18,18,0,0,0,1.47-8.54c-.17-5.46-1.38-11.31-4.6-15.82a15.21,15.21,0,0,0-6.85-5.69,16,16,0,0,0-8.53-.31,44.66,44.66,0,0,0-7.73,2.41A2.51,2.51,0,0,0,162,154c4.52.24,8.94-.82,13.43-1.13a20.23,20.23,0,0,1,6.21.35c1.47.36,3.23,1.05,3.8,2.61s-.76,3.22-1.38,4.52c-1,2.19-2,4.41-3.11,6.61-1.36,2.85-2.8,5.44-5.76,6.37a11.4,11.4,0,0,1-2.16.47,3,3,0,0,1-1.81-.17,7.22,7.22,0,0,1-1.1-.67,7.06,7.06,0,0,1-1.31-1.46,11.88,11.88,0,0,1-1.69-3.82,10.66,10.66,0,0,1-.32-1.75c0-.31,0-.63,0-.94s0-.35,0-.52c0-.41,0,0,0-.23.11-.49,0-.12.18-.42s.11-.16,0-.08a2.73,2.73,0,0,1,.34-.34c.05,0,.37-.27.08-.07l.33-.2a4.76,4.76,0,0,1,.72-.35,9.63,9.63,0,0,1,3.72-.57l1,.05.5,0c-.05,0-.37-.06-.09,0a4.31,4.31,0,0,1,1.87.68,5.68,5.68,0,0,1,2,3.34,8.22,8.22,0,0,1-1.69,7.07,7.35,7.35,0,0,1-2.65,2.05c-.14.07-.29.15-.44.21.1,0,.37-.14-.09,0-.27.1-.54.18-.81.26l-.83.19h-.06l-.6,0q-.42,0-.84,0c-.12,0-1-.12-.54,0a8.06,8.06,0,0,1-1.86-.53c.35.16-.31-.17-.4-.22-.25-.15-.5-.3-.74-.47-.42-.29-.19-.14-.11-.07l-.39-.35a8.86,8.86,0,0,1-.73-.77,10,10,0,0,1-1.92-7.22c.39-2.67,1.71-4.59,4.24-5.16,2.93-.65,7.29-.77,9.8,1.18a7.7,7.7,0,0,1,2.22,3.39,13.24,13.24,0,0,1,.66,2.31,9.78,9.78,0,0,1,.1,1.75,2.37,2.37,0,0,1-.57,1.37,4.91,4.91,0,0,1-1.39,1.18,5.23,5.23,0,0,1-3.29.84,2.12,2.12,0,0,1-1.21-.56,8.91,8.91,0,0,1-1.93-2.09,5.75,5.75,0,0,1-1-2.25,2.93,2.93,0,0,1,.3-1.91,6.24,6.24,0,0,1,2.83-2.62,3,3,0,0,1,1.3-.24c.5.11.72.59,1,.73-.11-.06-.13-.36-.13-.47,0,.5,0,0,0-.09-.11-.44.32.07,0-.05,0,0-.24.33,0,.09s-.56.49-.39.36-.5.32-.7.43a5.66,5.66,0,0,1-1.46.63c-.32.1-.63.17-.95.26l-.33.07c-.33.07.42,0-.05,0-.16,0-.72,0-.55,0a.76.76,0,0,1-.32-.1c.24.1-.16-.1-.11-.1l.1.15-.12-.18c.21-.07,0,.41,0,0,0,.07-.05.71,0,.42s-.18.45-.24.32.83-.33.38-.26a1.81,1.81,0,0,1,1.43.48,3.77,3.77,0,0,1,1,1,2.07,2.07,0,0,1,.29.69c-.06-.15-.09-.1,0,0v.13c-.14-.58.29-.92,1.3-1l1.26.34a1,1,0,0,1,.32.74l-.35,1.26.09-.15-.9.89c-.51.39-.87.42-1.07.09q.39.23.06,0c-.3,0-.11-.51,0,.19,0-.4,0,.56,0,.66,0-.3-.11.56-.15.67a4,4,0,0,1-.16.49c.09-.21.08-.2,0,.06s-.15.25,0,0c-.47.42-.31.41.48,0-.26,0,.9.37.75.39s0-.33.05-.38a2.43,2.43,0,0,0-.64-2.44c-1.27-1.06-3-1.72-4-3l-1.1,4.18a3,3,0,0,1,1.15-.08c3.22.13,3.21-4.87,0-5a6.93,6.93,0,0,0-2.48.26,2.53,2.53,0,0,0-1.1,4.18c1.12,1.32,2.72,1.9,4,3l-.65-2.43c-1,2.86,1.06,6.49,4.27,6.29,3.05-.18,4.42-3.57,4.58-6.19.19-2.83-1.51-5.67-4.58-5.78a3,3,0,0,0-3.19,3,3.91,3.91,0,0,0,3.66,3.74c3.76-.07,4-4.87,2.52-7.32a8.17,8.17,0,0,0-6.65-4c-2.68,0-5.39,2.16-5.23,5s2.87,4.75,5.57,4.79c3.82.07,10.38-3.06,9.09-7.77a6.21,6.21,0,0,0-6.48-4.17,10.35,10.35,0,0,0-7.09,4.43,8.35,8.35,0,0,0-.75,8.42,12,12,0,0,0,6.21,6.38c4.69,1.73,11.23-1.68,12.19-6.65,1-5.17-2-11.81-6.87-14a18.22,18.22,0,0,0-8.86-1.22c-2.75.22-5.24.74-7.39,2.56C154.1,165,158.37,179.44,168,181a12.75,12.75,0,0,0,11.66-4.27,13.22,13.22,0,0,0,1.89-14.18c-2.41-5-8-6-13-5a8.77,8.77,0,0,0-5.84,3.7c-1.27,2.13-1,4.82-.54,7.14,1,4.45,4,9.55,8.91,10.29,5.49.83,10.66-2.53,13.2-7.21,1.64-3,2.89-6.25,4.44-9.31s2.7-6.05.88-9.24c-3.5-6.12-12.16-5.44-18.09-4.67a52.21,52.21,0,0,1-9.5.71l.66,4.91c3.94-1.51,8.82-3.63,13.07-2.28,3.94,1.25,6.29,6,7.25,9.73a32.53,32.53,0,0,1,1,6.73c.09,2.07.13,4.48-.76,6.41-1.51,3.29-5.5,4.37-8.79,4.93-6.29,1.09-17.7,1.86-18.72-6.61a11.54,11.54,0,0,1,.61-4.66,18.49,18.49,0,0,1,2.44-4.76,17.87,17.87,0,0,1,7.49-6.46c3.16-1.22,7.81-1.52,10.54.85,3,2.57,3.84,7.32,4.15,11a11.88,11.88,0,0,1-.39,5.62,7.47,7.47,0,0,1-3.05,3.41c-3.35,2.07-8,2.16-11.71,1.2a6.52,6.52,0,0,1-4.77-4.11,19.62,19.62,0,0,1-1.58-5.52,24.42,24.42,0,0,1,1.31-11.18,15.46,15.46,0,0,1,6.52-8.32c3.82-2.18,8.59-2.23,12.72-1a13.78,13.78,0,0,1,8.77,7.41,16.27,16.27,0,0,1,.65,11.51,29.12,29.12,0,0,1-7.43,12.4,12.48,12.48,0,0,1-5.74,3.14c-2.24.56-4.66.24-7,.18-.68,0-1.75-.06-2.17-.12a7,7,0,0,1-1.1-.24c-.72-.21-.09,0-.1,0l-.19-.11a1.19,1.19,0,0,1,.33.34l-.39,3c-.41.35-.22.19.12.18.52,0,1,0,1.56.06a30.94,30.94,0,0,0,3.47.1,35.08,35.08,0,0,0,9-1.66l-1.33-4.82c-3.9,1.56-7.92,1-11.92.24-3.26-.6-7.32-1.21-9.81-3.61a13.44,13.44,0,0,1-4.36-9.61c-.09-4.13.11-8.59,2.21-12.26,1.59-2.8-2.73-5.32-4.32-2.52Z" transform="translate(-14.04 -15.46)" style="fill:#a2cb82"/></g><g id="Layer_1" data-name="Layer 1"><path d="M121.79,96.53v0h0Z" transform="translate(-14.04 -15.46)"/><path d="M123,96.2v0l-.13-.29-.19-.26-.26-.19a.93.93,0,0,0-.46-.15.62.62,0,0,0-.33,0,.69.69,0,0,0-.32.08.59.59,0,0,0-.27.17.86.86,0,0,0-.33.35.93.93,0,0,0-.15.46.62.62,0,0,0,0,.33.47.47,0,0,0,0,.17l.12.3h0l-.13-.3h0a.93.93,0,0,0,.22.43,1,1,0,0,0,.35.32,1,1,0,0,0,.46.15.94.94,0,0,0,.5,0l.3-.12a1.21,1.21,0,0,0,.45-.45l.13-.3a1.23,1.23,0,0,0,0-.66c0-.06,0-.11-.07-.16l-.06-.15h0l.13.3h0l-.13,1h0l-2.28-.3v0a.93.93,0,0,0,.22.43,1,1,0,0,0,.35.32,1,1,0,0,0,.46.15.94.94,0,0,0,.5,0l.3-.12a1.21,1.21,0,0,0,.45-.45l.13-.3A1.23,1.23,0,0,0,123,96.2Z" transform="translate(-14.04 -15.46)"/><path d="M140.8,166.2a30.35,30.35,0,1,0,30.35-30.34A30.38,30.38,0,0,0,140.8,166.2Zm57.69,0a27.35,27.35,0,1,1-27.34-27.34A27.37,27.37,0,0,1,198.49,166.2Z" transform="translate(-14.04 -15.46)"/><path d="M139.55,166.2a31.68,31.68,0,1,0,.41-5,33.63,33.63,0,0,0-.41,5,1.25,1.25,0,0,0,2.5,0,29.08,29.08,0,1,1,.35,4.52,29.42,29.42,0,0,1-.35-4.52A1.25,1.25,0,0,0,139.55,166.2Z" transform="translate(-14.04 -15.46)"/><path d="M197.24,166.2a26.08,26.08,0,1,1-20.92-25.58,26.37,26.37,0,0,1,20.92,25.58,1.25,1.25,0,0,0,2.5,0,28.63,28.63,0,1,0-.36,4.5,29.47,29.47,0,0,0,.36-4.5A1.25,1.25,0,0,0,197.24,166.2Z" transform="translate(-14.04 -15.46)"/><path d="M225.94,59.33a4.62,4.62,0,0,0-2.77-3.17L164.83,34.32V23a6.27,6.27,0,0,0-6.24-6.29h-79A6.27,6.27,0,0,0,73.35,23c-.06,2.44-.09,4.61-.12,6.79s-.06,4.1-.11,6.37L19.38,55.79a6.25,6.25,0,0,0-3.72,8L65.07,198.87a6.3,6.3,0,0,0,5.86,4.1,6.14,6.14,0,0,0,2.15-.39h0c1.13-.28,3.67-1.3,10.43-4.27v9.89A4.53,4.53,0,0,0,88,212.74h75.83v-.28A46.81,46.81,0,0,0,201,130.15l24.72-66.27A7.44,7.44,0,0,0,225.94,59.33Zm-26.07,9.24c.28,4.66,3.41,7.74,7.4,9.47q-2.88,7.29-5.75,14.57-5.07,12.83-10.13,25.66l-1.91,4.86a46.67,46.67,0,0,0-10-3c3.75-11.73-2.46-24.91-14.6-30.57V49.62l32.86,12.65,3,1.14A13.29,13.29,0,0,0,199.87,68.57Zm-35,24.34h0c10.09,5.39,15.07,16.77,11.59,26.78a48.27,48.27,0,0,0-5.27-.3,47.13,47.13,0,0,0-6.32.43h0m-88.55-90c0-2.16.06-4.33.12-6.79a3.23,3.23,0,0,1,3.2-3.24h79A3.22,3.22,0,0,1,161.78,23v97.32a45.21,45.21,0,0,0-6.23,1.74l-.22-27.51L155,50l-.09-10.18A1.84,1.84,0,0,0,153.06,38a11.63,11.63,0,0,1-6.75-1.21,7,7,0,0,1-2.59-3.06,11.44,11.44,0,0,1-.56-2c0-.15,0-.3-.08-.45v0s0-.06,0-.12q0-.42-.06-.84a11.12,11.12,0,0,1,.05-1.73,1.82,1.82,0,0,0-1.81-1.82l-14.48,0-23.11,0H98.29a1.68,1.68,0,0,0-1.73,1.52,6.22,6.22,0,0,0-3,.33L76.19,35C76.23,33.19,76.26,31.49,76.28,29.8ZM71.6,173.3q-1.48-4.1-3-8.19-4.33-11.9-8.69-23.8Q54.65,126.89,49.4,112.5,44.86,100,40.3,87.58c-1-2.75-2-5.49-3-8.24-.27-.75-.51-1.55-.78-2.32a12.11,12.11,0,0,0,8.25-9.2,17.83,17.83,0,0,0,.05-5.92c-.06-.39-.14-.81-.23-1.22L56.5,56.21,78.35,48l3.33-1.25a15.31,15.31,0,0,0,2.91,4.72c3.26,3.57,8,4,12.32,2.67q4.35,11.37,8.69,22.76,7.49,19.64,15,39.26l2.58,6.78h-15c2-4,1.56-10.42,1.49-11.34h0a27.29,27.29,0,0,0-54.57.1h0C55,126.78,67.73,139,83.36,139v-2.75c-14.11,0-25.6-11-25.6-24.57h0a24.6,24.6,0,0,1,49.19.31h0c.2,3-.08,9-2,10.93H88a4.54,4.54,0,0,0-4.53,4.54v11a4.52,4.52,0,0,0,2.23,3.88,4.52,4.52,0,0,0-2.23,3.88v11A4.51,4.51,0,0,0,85,160.61a4.51,4.51,0,0,0-1.45,3.31v11a4.45,4.45,0,0,0,.3,1.59,10.94,10.94,0,0,0-6.33-3.3A17.34,17.34,0,0,0,71.6,173.3ZM87,174.94v-11A1.09,1.09,0,0,1,88,162.84h36.42c-.08,1.11-.13,2.23-.13,3.36a47.42,47.42,0,0,0,1,9.82H88A1.09,1.09,0,0,1,87,174.94ZM133,193.32h0v0Zm-45-.67A1.08,1.08,0,0,1,87,191.57v-7.85a1.81,1.81,0,0,0,.08-1.21,2.76,2.76,0,0,0-.08-.27v-1.69A1.09,1.09,0,0,1,88,179.47h38.22a46.53,46.53,0,0,0,6.28,13.18Zm37-34.27H88A1.08,1.08,0,0,1,87,157.3v-11A1.09,1.09,0,0,1,88,145.2h41.28A46.26,46.26,0,0,0,125,158.38Zm7.66-18.78H88A1.09,1.09,0,0,1,87,138.52v-11A1.08,1.08,0,0,1,88,126.42h37.49a2.12,2.12,0,0,0,.71,0h20.27A47.05,47.05,0,0,0,132.66,139.6ZM114,66.29a24.59,24.59,0,0,1,27.69,34.39,24.37,24.37,0,0,1-10.94,11.39m13.39-10.25A27.29,27.29,0,0,0,113,63.73L101.56,32.37a6.18,6.18,0,0,0-1.15-1.93l12.36,0,23.11,0h3.46a13.63,13.63,0,0,0,1.27,5.22c2,4.24,6.27,5.9,10.65,6q.11,13.17.22,26.35l.36,44.58c0,3.39,0,6.78.08,10.18,0,.07,0,.13,0,.2H134.71l-3.05-8.32A27.08,27.08,0,0,0,144.11,101.82ZM72.65,199.57l-.09,0-.52.19a3.2,3.2,0,0,1-4.11-1.91L18.51,62.76a3.21,3.21,0,0,1,.11-2.45,3.16,3.16,0,0,1,1.8-1.66L94.6,31.51a3.2,3.2,0,0,1,4.11,1.91L110.12,64.6l-.06,0,.92,2.54.06,0,7.77,21.24v0c.79,2.1,1.82,5,2.72,7.43.09.22.17.45.25.67h0l6.15,16.82-.16.07.92,2.54.17-.07,2.6,7.1h-4.3l-8.94-23.41q-7.49-19.64-15-39.26-1.73-4.51-3.44-9c-.33-.85-1.3-1.73-2.31-1.31-2.08.86-4.46,1.56-6.66,1.05A6.87,6.87,0,0,1,87,48.56a10.4,10.4,0,0,1-2.29-4.75A1.9,1.9,0,0,0,82.4,42.5L68.62,47.67l-21.84,8.2-5.06,1.89a1.9,1.9,0,0,0-1.12,2.76.25.25,0,0,1,0,.07c.06.16.11.31.16.47a14.77,14.77,0,0,1,.36,1.6c0,.07,0,.11,0,.14h0a6,6,0,0,1,.06.61c0,.36,0,.73.06,1.1a16.6,16.6,0,0,1-.12,2.09c-.7,4.11-3.55,6.48-7.68,7.36a1.9,1.9,0,0,0-1.31,2.31q1.81,4.95,3.62,9.91L44.51,110Q49.76,124.4,55,138.81q4.55,12.45,9.1,24.91c1.47,4,2.89,8.11,4.42,12.13a1.22,1.22,0,0,1,.07.17,1.9,1.9,0,0,0,2.3,1.31,12.59,12.59,0,0,1,1.72-.39l.42-.07h.11l.93-.08a14.47,14.47,0,0,1,2.28.05,8.72,8.72,0,0,1,4,1.55,9.23,9.23,0,0,1,3,5.13,1.43,1.43,0,0,0,.08.22v7.84a4.46,4.46,0,0,0,1,2.85l-.16.18C79.41,196.79,74.11,199.06,72.65,199.57Zm-32-138.95c.05.1.05.12,0,0ZM88,209.29A1.09,1.09,0,0,1,87,208.2v-11a.69.69,0,0,1,.19-.52,1.12,1.12,0,0,1,.87,0l.26.09h47.46a47.05,47.05,0,0,0,17.09,12.51ZM215,166.2a43.81,43.81,0,0,1-51.1,43.21v-.12h-.68a43.8,43.8,0,0,1-10.37-82.87H153v-.06a43.8,43.8,0,0,1,62,39.84Zm8.15-103.27L198.7,128.39a47.53,47.53,0,0,0-6-3.74l6.14-15.56Q203.89,96.27,209,83.43q1.19-3,2.35-5.94a1.82,1.82,0,0,0-1.24-2.2A10.58,10.58,0,0,1,204.68,72a6.32,6.32,0,0,1-1.26-4,9.75,9.75,0,0,1,.62-3.46l.24-.63a.31.31,0,0,0,0-.08l0-.06c.07-.15.13-.3.21-.45a1.82,1.82,0,0,0-1.06-2.62l-33.72-13-4.85-1.87-.09,0V37.27l57.38,21.47a2,2,0,0,1,1.08,1.36A4.71,4.71,0,0,1,223.12,62.93Z" transform="translate(-14.04 -15.46)"/><path d="M227.14,59A6.42,6.42,0,0,0,223,54.75l-3.43-1.28L206,48.39,173,36.05l-7.83-2.93.91,1.2c0-3.71,0-7.42,0-11.13a7.69,7.69,0,0,0-8-7.72c-5.87,0-11.73,0-17.6,0H85c-1.76,0-3.51,0-5.27,0a7.7,7.7,0,0,0-5.47,2.21c-3,3-2.26,7.59-2.31,11.42,0,2.35-.07,4.69-.12,7l.91-1.2L56.87,40.75,29.26,50.85l-8.75,3.2c-.48.18-1,.35-1.45.54a7.57,7.57,0,0,0-5,8,15.61,15.61,0,0,0,1,3.27l2,5.36,7,19.18,9.68,26.45,10.57,28.91L54,172.34l7.1,19.41c1,2.59,1.81,5.23,2.86,7.78a7.58,7.58,0,0,0,9.42,4.26,1.28,1.28,0,0,0,.87-1.54h0l-.88,1.54a25.66,25.66,0,0,0,3.21-1.18c2.53-1,5-2.13,7.52-3.22l-1.88-1.08c0,3.17,0,6.35,0,9.52A6,6,0,0,0,88.39,214c4.49,0,9,0,13.48,0H151c4.2,0,8.46.18,12.66,0h.18a1.26,1.26,0,0,0,1.25-1.25v-.28l-1.58,1.2a48,48,0,0,0,38.33-84.39l.32,1.22L211,106.93l13.47-36.12c1.35-3.6,3.69-7.9,2.69-11.81a1.25,1.25,0,0,0-2.41.66c.77,3-1.29,6.72-2.32,9.49l-5.82,15.61-13.66,36.61-3.15,8.45a1.23,1.23,0,0,0,.32,1.22,45.56,45.56,0,0,1-35.89,80.21,1.28,1.28,0,0,0-1.59,1.21v.28l1.25-1.25H89.74c-1.8,0-3.71.1-4.66-1.86-.58-1.21-.32-2.92-.32-4.21v-7.11a1.27,1.27,0,0,0-1.88-1.08c-3.28,1.44-6.65,3.24-10.13,4.14a1.26,1.26,0,0,0-.87,1.54h0l.87-1.54a5.11,5.11,0,0,1-6.5-2.92c-.11-.28-.21-.57-.31-.85l-1.6-4.39L58,175.87l-9.17-25.06L38.49,122.57l-9.85-26.9-7.72-21.1L17,64c-1-2.82-.18-5.85,2.8-7,1.91-.75,3.86-1.41,5.79-2.12l25.73-9.41,21-7.67,1.12-.41a1.32,1.32,0,0,0,.92-1.21c.1-4.48-.1-9,.24-13.5a5.08,5.08,0,0,1,5-4.66c1.45,0,2.9,0,4.35,0h72.66c2.47,0,4.94.09,6.31,2.64.86,1.61.6,3.64.6,5.41v8.3a1.3,1.3,0,0,0,.92,1.21L185,43.21l31.73,11.87,4.81,1.8c1.49.56,2.62,1,3.18,2.78C225.23,61.18,227.64,60.53,227.14,59Z" transform="translate(-14.04 -15.46)"/><path d="M198.62,68.57c.38,5,3.58,8.57,8,10.55l-.58-1.41-17.79,45.08,1.54-.87a48.82,48.82,0,0,0-10.05-3l.88,1.54c4-12.87-3.35-26.38-15.17-32l.61,1.08V49.62l-1.58,1.21,35.81,13.78-.87-1.54a15.57,15.57,0,0,0-.82,5.5c.07,1.6,2.57,1.61,2.5,0a13.19,13.19,0,0,1,.73-4.83A1.28,1.28,0,0,0,201,62.2L165.17,48.42a1.26,1.26,0,0,0-1.59,1.2V89.56a1.25,1.25,0,0,0,.62,1.08c10.86,5.15,17.72,17.29,14,29.16a1.25,1.25,0,0,0,.87,1.54,48.73,48.73,0,0,1,10,3c.67.28,1.32-.31,1.54-.87l17.79-45.08A1.25,1.25,0,0,0,207.9,77c-3.57-1.59-6.47-4.31-6.78-8.39C201,67,198.5,67,198.62,68.57Z" transform="translate(-14.04 -15.46)"/><path d="M164.2,94c9,4.89,14.4,15.34,11,25.37l1.2-.92a48.85,48.85,0,0,0-11.59.13c-1.57.21-1.59,2.71,0,2.5a48.85,48.85,0,0,1,11.59-.13,1.27,1.27,0,0,0,1.21-.92c3.72-11-2.25-22.79-12.16-28.19-1.42-.77-2.68,1.39-1.27,2.16Z" transform="translate(-14.04 -15.46)"/><path d="M77.53,29.8q0-3,.1-6.06c0-1.37.39-2.6,2-2.72.27,0,.55,0,.82,0h77.79a2.24,2.24,0,0,1,2.32,2.49c0,4,0,8,0,12v84.83l.92-1.21a51.34,51.34,0,0,0-6.23,1.74l1.58,1.21q-.26-32.08-.52-64.16-.06-8-.13-15.92c0-1.91.18-4.2-2-5.05a8.57,8.57,0,0,0-2.95-.16,9.55,9.55,0,0,1-3.55-.69A6.17,6.17,0,0,1,144.29,31c.06.49,0-.2,0-.25,0-.28,0-.57,0-.85,0-.54.1-1.09.06-1.62A2.91,2.91,0,0,0,142.9,26a4.5,4.5,0,0,0-2.65-.52H127.77l-17.72,0H101c-2.24,0-5-.33-5.62,2.45l1.21-.92a11.07,11.07,0,0,0-5.11,1l-6,2.18L75.86,33.8,77.44,35c0-1.74.07-3.48.09-5.21a1.25,1.25,0,0,0-2.5,0c0,1.73,0,3.47-.09,5.21a1.26,1.26,0,0,0,1.59,1.2l9.38-3.43,6-2.19a10.11,10.11,0,0,1,4.68-1,1.23,1.23,0,0,0,1.2-.92c.23-1,1.91-.6,2.73-.6h11.28l15,0h13c.47,0,1.37-.18,1.76.08.59.41.23,2.17.29,2.85a11,11,0,0,0,.45,2.35,8.2,8.2,0,0,0,3.27,4.48,10.93,10.93,0,0,0,5.7,1.53c.76,0,2.14-.4,2.41.53a7.35,7.35,0,0,1,0,1.69v1.94l.12,15,.25,30,.27,33.7a1.26,1.26,0,0,0,1.59,1.2,51.7,51.7,0,0,1,6.22-1.74,1.25,1.25,0,0,0,.92-1.2V24.25c0-2.08-.32-4.14-2.43-5.23-1.29-.67-2.87-.5-4.28-.5H81.51c-1.77,0-3.52-.13-4.94,1.21a5.27,5.27,0,0,0-1.44,4q-.06,3-.1,6.06A1.25,1.25,0,0,0,77.53,29.8Z" transform="translate(-14.04 -15.46)"/><path d="M72.81,173,45.21,97.4c-2.52-6.9-5.13-13.77-7.49-20.72l-.88,1.54a14.32,14.32,0,0,0,7.7-6.17c2-3.54,2.05-7.81,1.25-11.7l-.87,1.53L82,48l-1.54-.87c1.34,3.35,3.59,6.49,7,8a14.15,14.15,0,0,0,9.77.29l-1.54-.87Q106,81.34,116.21,108.2L122,123.3l1.2-1.59h-15l1.08,1.88c1.69-3.66,2-8,1.66-12a1.25,1.25,0,0,0-1.25-1.25h0l1.25,1.25a28.54,28.54,0,0,0-57.07.1l1.25-1.25h0a1.27,1.27,0,0,0-1.25,1.25A29,29,0,0,0,73,138.49a30.9,30.9,0,0,0,10.34,1.8A1.27,1.27,0,0,0,84.61,139v-2.75A1.26,1.26,0,0,0,83.36,135C70.48,135,59.11,124.9,59,111.72a1.26,1.26,0,0,0-1.25-1.25h0L59,111.72a23.35,23.35,0,0,1,46.69.31,1.27,1.27,0,0,0,1.25,1.25h0L105.69,112a30.13,30.13,0,0,1-.14,5.37c-.19,1.52-.44,3.51-1.51,4.68l.88-.37H89.43a14.94,14.94,0,0,0-2.22.08,5.84,5.84,0,0,0-4.72,4.07,11.22,11.22,0,0,0-.23,3.22v4.79c0,1.43,0,2.87,0,4.31a6.09,6.09,0,0,0,2.85,5.3v-2.16a6.09,6.09,0,0,0-2.85,5.3c0,1.56,0,3.12,0,4.68,0,3.34-.75,7.61,1.82,10.19v-1.76c-2.34,2.35-1.82,5.69-1.82,8.72v4.81a11.19,11.19,0,0,0,.34,3.6l2.09-1.21c-3.56-3.61-8.57-4.41-13.42-3.56-1.58.28-.91,2.69.67,2.41,4-.69,8.08,0,11,2.91A1.26,1.26,0,0,0,85,176.2a8.53,8.53,0,0,1-.26-2.85v-4.41c0-2.25-.64-5.71,1.09-7.45a1.27,1.27,0,0,0,0-1.76c-1.08-1.09-1.09-2.28-1.09-3.67v-8.84c0-1.51.21-2.83,1.61-3.74a1.27,1.27,0,0,0,0-2.16c-1.6-1-1.61-2.55-1.61-4.21V131.9c0-2.79-.78-7.51,3.29-7.69,5.51-.24,11.06.19,16.58,0,1.86-.06,2.58-2.52,3-4a27.84,27.84,0,0,0,.61-8.14,1.27,1.27,0,0,0-1.25-1.25h0l1.25,1.25a25.85,25.85,0,0,0-51.69-.31A1.28,1.28,0,0,0,57.74,113h0l-1.25-1.25A25.61,25.61,0,0,0,64.39,130a27.69,27.69,0,0,0,19,7.57l-1.25-1.25V139l1.25-1.25a27.79,27.79,0,0,1-19.15-7.65,25.81,25.81,0,0,1-7.95-18.42L55,113h0a1.28,1.28,0,0,0,1.25-1.25,26,26,0,0,1,52.07-.1,1.26,1.26,0,0,0,1.25,1.25h0l-1.25-1.25c.26,3.5.18,7.48-1.32,10.71a1.26,1.26,0,0,0,1.08,1.88h15a1.26,1.26,0,0,0,1.21-1.58Q114.17,95.9,104,69.15L98.11,53.82A1.26,1.26,0,0,0,96.58,53a11.94,11.94,0,0,1-7.83,0,11.33,11.33,0,0,1-5.86-6.49,1.27,1.27,0,0,0-1.54-.87L44.25,59.47A1.29,1.29,0,0,0,43.38,61c.66,3.23.66,6.84-1,9.78a11.58,11.58,0,0,1-6.2,5,1.27,1.27,0,0,0-.88,1.54c4.27,12.53,9,24.9,13.57,37.34l13.77,37.68Q66.51,163,70.4,173.63C71,175.13,73.36,174.48,72.81,173Z" transform="translate(-14.04 -15.46)"/><path d="M88.21,174.94V164.71c0-.21,0-.43,0-.65s0,0-.15,0a2.71,2.71,0,0,1,.57,0h35.83l-1.25-1.25a49.81,49.81,0,0,0,1,13.51l1.2-1.58H89.24a6.61,6.61,0,0,1-.89,0c-.43-.07-.14.16-.18-.16-.22-1.59-2.63-.92-2.41.66.32,2.39,3,2,4.73,2h34.88a1.27,1.27,0,0,0,1.21-1.58,47,47,0,0,1-.87-12.85,1.26,1.26,0,0,0-1.25-1.25H91.94c-2.09,0-6-.72-6.23,2.35-.22,3.64,0,7.35,0,11A1.25,1.25,0,0,0,88.21,174.94Z" transform="translate(-14.04 -15.46)"/><path d="M133,192.07h0l1.25,1.25v0l-2.33.63,0,0a.91.91,0,0,0,.32.35,1.1,1.1,0,0,0,.93.25,1,1,0,0,0,.46-.15l.25-.19a1.23,1.23,0,0,0,.33-.56l0-.33a1.29,1.29,0,0,0-.17-.63l0,0-.19-.25a1,1,0,0,0-.41-.26.65.65,0,0,0-.31-.08.94.94,0,0,0-.5,0l-.3.13-.25.19a1,1,0,0,0-.26.4,1,1,0,0,0-.11.49v0a1.45,1.45,0,0,0,.37.89l.25.19a1.29,1.29,0,0,0,.63.17h0a.89.89,0,0,0,.48-.11.88.88,0,0,0,.4-.25,1.45,1.45,0,0,0,.37-.89l0-.33a1.2,1.2,0,0,0-.33-.55l-.25-.2A1.24,1.24,0,0,0,133,192.07Z" transform="translate(-14.04 -15.46)"/><path d="M88.38,191.45c-.29,0-.14.23-.17-.22s0-.79,0-1.17v-3.39c0-.86-.07-1.75,0-2.61,0-.29.08-.42.12-.7a12.5,12.5,0,0,0-.12-1.74c0-.22,0-1.05,0-1s-.17.07,0,.05a8.42,8.42,0,0,1,.87,0h37.23l-1.21-.91a49.49,49.49,0,0,0,6.41,13.47l1.08-1.88H88a1.25,1.25,0,0,0,0,2.5h44.5a1.26,1.26,0,0,0,1.08-1.88,47,47,0,0,1-6.16-12.88,1.27,1.27,0,0,0-1.2-.92H91.86c-1.14,0-2.27,0-3.41,0a2.61,2.61,0,0,0-2.74,2.95c0,.57.12,1.13.13,1.68s-.12.88-.13,1.32c0,1.16,0,2.32,0,3.48,0,1.9-.72,5.84,2,6.21C89.28,194.07,90,191.66,88.38,191.45Z" transform="translate(-14.04 -15.46)"/><path d="M125,157.13H91a20.66,20.66,0,0,0-2.61,0c-.27,0-.34-.1-.21.09s0-.17,0-.25a5.53,5.53,0,0,0,0-.91v-8.53a5.14,5.14,0,0,1,0-1.24c-.1.32-.22.08.14.16a4.61,4.61,0,0,0,.91,0h32.95c2.22,0,4.57.22,6.79,0h.32l-1.08-1.88a49.31,49.31,0,0,0-4.45,13.48c-.27,1.57,2.14,2.25,2.41.66a46.86,46.86,0,0,1,4.2-12.88,1.26,1.26,0,0,0-1.08-1.88H89.6c-.51,0-1,0-1.55,0-2.07.13-2.34,1.85-2.34,3.5v6.16a19.36,19.36,0,0,0,.07,4.17c.56,2.51,4.14,1.85,6,1.85h11.72c7,0,14,.16,21.06,0h.4A1.25,1.25,0,0,0,125,157.13Z" transform="translate(-14.04 -15.46)"/><path d="M132.66,138.35H90a7.64,7.64,0,0,1-2,0c.31.1.08.19.16-.17a5.8,5.8,0,0,0,0-1.25v-7.47a8,8,0,0,1,0-2c-.08.27-.12.16.34.16h58l-.63-2.33A49.54,49.54,0,0,0,131.58,139c-.93,1.32,1.24,2.57,2.16,1.26a46.59,46.59,0,0,1,13.4-12.73,1.26,1.26,0,0,0-.63-2.33c-7.13,0-14.27.08-21.39,0-9.3-.1-18.61,0-27.91,0-3,0-6.12-.19-9.14,0-2.57.16-2.36,2.61-2.36,4.48v7.7a4.54,4.54,0,0,0,.32,2.34,2.5,2.5,0,0,0,2.16,1.16c1,0,2,0,3.07,0h41.4A1.25,1.25,0,0,0,132.66,138.35Z" transform="translate(-14.04 -15.46)"/><path d="M114.3,67.49A23.33,23.33,0,0,1,130.09,111c-1.42.76-.16,2.91,1.26,2.16a25.83,25.83,0,0,0-17.71-48.07c-1.57.34-.91,2.76.66,2.41Z" transform="translate(-14.04 -15.46)"/><path d="M145.19,102.46A28.55,28.55,0,0,0,112.7,62.53l1.54.87L103.84,35a17.39,17.39,0,0,0-2.55-5.42l-.88,2.13,38.93-.06-1.25-1.25c.19,3.58,1.49,7.25,4.34,9.56a14.88,14.88,0,0,0,8.83,3L150,41.65q.26,31.88.52,63.74c0,3,.05,5.92.07,8.88s-.21,5.86.09,8.69l1.25-1.25H134.71l1.2.92-3-8.32-.58,1.41a28.77,28.77,0,0,0,12.9-13.26c.68-1.45-1.47-2.72-2.16-1.27a26.55,26.55,0,0,1-12,12.37,1.27,1.27,0,0,0-.57,1.42l3,8.32a1.29,1.29,0,0,0,1.21.91h17.23a1.24,1.24,0,0,0,1.25-1.25c-.26-2.44-.06-5-.08-7.48l-.06-7.86q-.06-8-.13-16.09-.13-15.87-.26-31.73l-.15-18.15a1.27,1.27,0,0,0-1.25-1.25,12.39,12.39,0,0,1-7-2.23,10.36,10.36,0,0,1-3.62-7.79,1.27,1.27,0,0,0-1.25-1.25l-38.93.06a1.27,1.27,0,0,0-.88,2.14,13.55,13.55,0,0,1,1.8,4L104,42.77l6.32,17.28,1.47,4a1.29,1.29,0,0,0,1.54.88A26.09,26.09,0,0,1,145.15,86.4,26,26,0,0,1,143,101.19C142.36,102.65,144.52,103.92,145.19,102.46Z" transform="translate(-14.04 -15.46)"/><path d="M73,198.36c-.67-.24-1.28.26-1.93.3a2,2,0,0,1-1.92-1.18,2.47,2.47,0,0,1-.1-.29c-.23-.55-.42-1.13-.62-1.69l-2.66-7.27-9.68-26.45L43.35,127,30.91,93,22.06,68.82,20,63.15A6.53,6.53,0,0,1,19.6,62c-.28-1.63,1-2.11,2.15-2.53l24.08-8.81L80.11,38.14l11.61-4.25c1.77-.65,4.82-2.41,5.86.09,1.66,4,3,8.16,4.48,12.22l5.82,15.93,1,2.8.87-1.53,0,0a1.26,1.26,0,0,0-.88,1.53l.92,2.54a1.27,1.27,0,0,0,1.54.87l.07,0-1.54-.87,3.37,9.22c1.4,3.82,2.59,7.82,4.23,11.55,0,.07.08.39.15.43s-.2-1.23,0-.26a7.63,7.63,0,0,0,.44,1.38c.86,2.35,1.7,4.71,2.58,7a1.26,1.26,0,0,0,2.28.3h0l-2.29-.3,6.16,16.83.87-1.54-.17.07a1.27,1.27,0,0,0-.87,1.53l.92,2.54a1.27,1.27,0,0,0,1.54.87l.17-.06-1.54-.88,2.6,7.11,1.21-1.59h-4.3l1.2.92-24.69-64.7-1.46-3.83a27.82,27.82,0,0,0-1.48-3.77,3.35,3.35,0,0,0-2.33-1.68c-1.18-.17-2.36.59-3.47.9-2.37.66-4.75.49-6.55-1.32a9.11,9.11,0,0,1-1.83-2.68c-.43-1-.48-2.14-1.1-3-1.5-2.14-3.73-1.1-5.69-.37l-8.27,3.1L55.27,51.35l-7.9,3-4.14,1.56A8.4,8.4,0,0,0,40,57.44c-1.59,1.65-.43,3.49-.07,5.35.13.65,0-.35,0,.17,0,.21,0,.43.06.64a13.67,13.67,0,0,1,0,1.57,8.37,8.37,0,0,1-.5,2.76,7.17,7.17,0,0,1-3.61,3.91c-1.68.85-3.87.74-4.77,2.66a3.4,3.4,0,0,0,.07,2.79c.5,1.35,1,2.7,1.48,4q1.47,4,2.92,8L59.47,154.6q2.91,8,5.8,16l1.4,3.81A10.6,10.6,0,0,0,68,177.48a3.08,3.08,0,0,0,2.38,1.17,6.18,6.18,0,0,0,1.47-.29l1.08-.22.42-.06c-.29,0-.29,0,0,0,2.32-.2,4.91-.05,6.7,1.67a7.54,7.54,0,0,1,1.72,2.81,5.28,5.28,0,0,1,.43,1.45c.19,2.33,0,4.75,0,7.1a6.37,6.37,0,0,0,1.2,3.93l.2-1.51a5.43,5.43,0,0,1-1.62.73l-1.91.83-3.38,1.46c-1.47.62-2.93,1.27-4.44,1.8s-.85,3,.67,2.41c1.7-.61,3.37-1.35,5-2.06,1.2-.5,2.4-1,3.59-1.54s3-.92,3.82-1.87a1.26,1.26,0,0,0,.2-1.51c-1.41-1.87-.86-4.89-.86-7.11,0-.94.07-1.92,0-2.86a10.33,10.33,0,0,0-2-4.73c-2.54-3.5-7.18-4.07-11.15-3.23-.44.09-1.1.41-1.51.19s-.58-1-.73-1.43q-.72-1.91-1.41-3.81c-.93-2.55-1.83-5.1-2.76-7.65l-22.86-62.6q-2.89-7.91-5.78-15.83L33.89,77.3c-.41-1.14-.93-1.89.47-2.25a13.76,13.76,0,0,0,2.69-1,9.86,9.86,0,0,0,5.48-8.56,13.92,13.92,0,0,0-.68-5.25c-.14-.39-.38-.65-.1-1s1.22-.59,1.68-.76l4.14-1.55L78.83,45.17a35.44,35.44,0,0,1,3.68-1.37c1.23-.3,1.15,1.14,1.49,2a11.17,11.17,0,0,0,3.42,4.87,8.15,8.15,0,0,0,6,1.68,14.77,14.77,0,0,0,3.27-.75c.47-.17,1.18-.64,1.68-.38s.78,1.65,1,2.15L123,115.49l3,7.81a1.3,1.3,0,0,0,1.21.91h4.3a1.25,1.25,0,0,0,1.2-1.58l-2.59-7.1a1.28,1.28,0,0,0-1.54-.88l-.17.07,1.53.88-.92-2.54-.87,1.54.16-.07a1.28,1.28,0,0,0,.88-1.54L123,96.17a1.26,1.26,0,0,0-2.28-.3h0l2.29.29c-.76-2-1.49-4.06-2.24-6.1a9.39,9.39,0,0,0-.48-1.31l-.13-.35-.12.3c0-.14,0-.48,0-.67a1.8,1.8,0,0,0-.08-.21c-.4-1.36-1-2.69-1.47-4L113.53,70.3l-1.28-3.5a1.28,1.28,0,0,0-1.54-.87l-.06,0,1.53.87-.92-2.53-.87,1.54.06,0a1.27,1.27,0,0,0,.87-1.54L101.33,37c-.47-1.27-.91-2.55-1.4-3.81A4.56,4.56,0,0,0,94,30.39c-2.44.85-4.86,1.78-7.28,2.67L54.25,45l-30,11c-2.23.81-5.61,1.49-6.75,3.77-1,2,0,4,.66,5.86l7.43,20.31,12.07,33L50.9,154.9l10.83,29.6c1.65,4.51,3.23,9.06,5,13.55a5.11,5.11,0,0,0,.9,1.59,4.45,4.45,0,0,0,2.81,1.49,4,4,0,0,0,2-.2c.6-.24.37,0-.06-.16C73.83,201.32,74.48,198.9,73,198.36Z" transform="translate(-14.04 -15.46)"/><path d="M39.58,61.25l0,.08c.68,1.46,2.83.19,2.16-1.26l0-.08c-.68-1.46-2.84-.19-2.16,1.26l0,.08c.68,1.46,2.83.19,2.16-1.26l0-.08C41.06,58.53,38.9,59.8,39.58,61.25Z" transform="translate(-14.04 -15.46)"/><path d="M88.38,208.08c-.22,0-.2.21-.17-.26s0-.8,0-1.2v-8.89a1.34,1.34,0,0,0,0-.4c0-.15.09-.12,0,0l-.74.58a17.07,17.07,0,0,1,1.74.15h46.51l-.89-.37a48.72,48.72,0,0,0,17.34,12.7l.64-2.32H88a1.25,1.25,0,0,0,0,2.5h64.79c1.15,0,1.81-1.82.63-2.33a46.69,46.69,0,0,1-14.33-9.63c-.48-.48-.95-1-1.42-1.47a6.66,6.66,0,0,0-1.34-1.41,1.63,1.63,0,0,0-.77-.17c-.44,0-.89,0-1.33,0H91.46c-1,0-2.13.1-3.16,0,.46,0-.29-.13-.48-.15a1.86,1.86,0,0,0-1.55.41,2.27,2.27,0,0,0-.56,1.73c0,1.48,0,3,0,4.44v5.16c0,1.46.18,3.13,2,3.37C89.28,210.7,90,208.29,88.38,208.08Z" transform="translate(-14.04 -15.46)"/><path d="M213.72,166.2a42.54,42.54,0,0,1-49.51,42l.91,1.21v-.12a1.26,1.26,0,0,0-1.25-1.25,16.23,16.23,0,0,1-4.23-.86,43.79,43.79,0,0,1-4.87-1.69,42.6,42.6,0,0,1-6.47-75.18c.85-.54,1.72-1.05,2.6-1.53l1.26-.66a4.78,4.78,0,0,0,.64-.32l.33-.15c-.27,0-.33,0-.18,0a1.27,1.27,0,0,0,1.25-1.25v-.06l-.62,1.08a42.73,42.73,0,0,1,35.34.08A43.18,43.18,0,0,1,210,148.73a42.63,42.63,0,0,1,3.75,17.47,1.25,1.25,0,0,0,2.5,0,45,45,0,0,0-63.9-40.92,1.24,1.24,0,0,0-.62,1.08v.06l1.25-1.25a5.06,5.06,0,0,0-2,.79c-.9.45-1.78.94-2.65,1.45a46.07,46.07,0,0,0-4.79,3.28,45.55,45.55,0,0,0-8.06,8.12,45.09,45.09,0,0,0,17.32,68.5,45.67,45.67,0,0,0,5.75,2.14,20.09,20.09,0,0,0,5.4,1.09l-1.25-1.25v.12a1.25,1.25,0,0,0,.92,1.2,45.08,45.08,0,0,0,52.68-44.41A1.25,1.25,0,0,0,213.72,166.2Z" transform="translate(-14.04 -15.46)"/><path d="M221.91,62.59l-8.26,22.15L200.5,120l-3,8,1.83-.74a48.93,48.93,0,0,0-6-3.73l.57,1.41q9-22.9,18.07-45.8c.59-1.49,1.09-2.89-.16-4.21-1.07-1.13-2.91-1.32-4.22-2.11-3.18-1.91-3.29-5.11-2.22-8.32.34-1-.17.36.16-.39a8,8,0,0,0,.38-.84,3,3,0,0,0-.05-1.9c-.58-1.66-2.42-2.08-3.88-2.64l-11.55-4.45-12.93-5L171,46.87c-1.92-.74-3.87-1.7-5.85-2.25l.91,1.21V37.27l-1.58,1.2,20,7.5,31.08,11.64,4.84,1.81a6.2,6.2,0,0,1,1.18.44c.86.53.54,1.89.27,2.73-.49,1.54,1.93,2.2,2.41.67.78-2.43.27-4.94-2.22-5.89l-3.26-1.22-13.15-4.92L172.94,39l-7.77-2.91a1.27,1.27,0,0,0-1.59,1.21v8.56a1.26,1.26,0,0,0,.92,1.2c1.67.46,3.32,1.27,4.93,1.89L175,51.05l11.08,4.27,10.63,4.09c1.84.71,3.7,1.41,5.54,2.13.62.25,1.4.36,1.24,1.14a12.49,12.49,0,0,1-.63,1.52c-1,2.88-1,6.18,1,8.66A9.44,9.44,0,0,0,207,75.39a16.53,16.53,0,0,0,2,.87c1.15.42,1.18.64.72,1.81l-8.67,22-9.58,24.27a1.25,1.25,0,0,0,.58,1.41,51.48,51.48,0,0,1,6,3.73,1.26,1.26,0,0,0,1.84-.74l8.26-22.15,13.15-35.26,3-8.05C224.89,61.75,222.47,61.1,221.91,62.59Z" transform="translate(-14.04 -15.46)"/><path d="M162.92,165.1a17.09,17.09,0,0,0-2.24-.57c-.68-.13-2-.24-2.37-1-.48-1,.51-1.69,1.33-1.85a4.76,4.76,0,0,1,3.68,1,.74.74,0,0,0,1-.26l1.11-1.55a.75.75,0,0,0-.26-1,8.24,8.24,0,0,0-6.53-1.37,4.57,4.57,0,0,0-3.78,4,4.23,4.23,0,0,0,2.53,4.69,15.38,15.38,0,0,0,2.58.62c.77.14,2.23.25,2.42,1.21.24,1.24-1.11,1.63-2.07,1.67a5.23,5.23,0,0,1-3.69-1.15.74.74,0,0,0-1,0l-1.22,1.49a.75.75,0,0,0,0,1,8.66,8.66,0,0,0,9.21,1.13,4.51,4.51,0,0,0,2.22-4.34A4.13,4.13,0,0,0,162.92,165.1Z" transform="translate(-14.04 -15.46)"/><path d="M176.31,158.49h-2.18a.71.71,0,0,0-.63.36c-.81,1.66-1.62,3.33-2.42,5-.81-1.66-1.62-3.33-2.42-5a.72.72,0,0,0-.64-.36h-2.18a.74.74,0,0,0-.63,1.1l2.9,5.65a22.07,22.07,0,0,0,1.24,2.42c0,.1,0,.21,0,.25v5.27a.75.75,0,0,0,.74.73h2a.75.75,0,0,0,.74-.73v-5.5l4.15-8.09A.74.74,0,0,0,176.31,158.49Z" transform="translate(-14.04 -15.46)"/><path d="M184.34,158.59a9.45,9.45,0,0,0-1.76-.1h-4.74a.62.62,0,0,0-.46.18l0,0,0,.05a.71.71,0,0,0-.18.47v14a.75.75,0,0,0,.73.73h2a.74.74,0,0,0,.73-.73V168.5h2.72a5.11,5.11,0,0,0,3.46-1.29,5.44,5.44,0,0,0,.59-6.73A4.61,4.61,0,0,0,184.34,158.59Zm-3.81,3.22c.93,0,1.86,0,2.78,0a1.38,1.38,0,0,1,1.37,1.32,1.71,1.71,0,0,1-.9,2,3,3,0,0,1-.9.07h-2.35Z" transform="translate(-14.04 -15.46)"/><path d="M79.89,108.05a14.53,14.53,0,0,0-.36-2c-.14-.57-.53-1.64-.1-2.17.57-.72,1.49-.21,1.9.37a4,4,0,0,1,.54,3.2.65.65,0,0,0,.56.68l1.6.31a.65.65,0,0,0,.69-.57,7,7,0,0,0-1.28-5.53,3.91,3.91,0,0,0-4.45-1.5,3.6,3.6,0,0,0-2.72,3.64,11.87,11.87,0,0,0,.45,2.21c.16.65.59,1.82-.08,2.31-.87.63-1.66-.28-2-1a4.46,4.46,0,0,1-.42-3.26.63.63,0,0,0-.37-.8l-1.59-.41a.63.63,0,0,0-.8.37,7.08,7.08,0,0,0-.1,3.3,7.28,7.28,0,0,0,2.51,4.22,3.85,3.85,0,0,0,4.15.17A3.53,3.53,0,0,0,79.89,108.05Z" transform="translate(-14.04 -15.46)"/><path d="M89.79,116,89,114.35a.59.59,0,0,0-.5-.36l-4.73-.09,3-3.66a.61.61,0,0,0,0-.61l-.78-1.69a.63.63,0,0,0-1.08-.1l-3.33,4.27a19.4,19.4,0,0,0-1.43,1.82L80,114l-1.34.62L76,115.91a.63.63,0,0,0-.31.83l.7,1.52a.65.65,0,0,0,.83.3l4.26-2,7.74.32A.63.63,0,0,0,89.79,116Z" transform="translate(-14.04 -15.46)"/><path d="M92.58,122.28a8.84,8.84,0,0,0-.55-1.4l-1-2.15L90.7,118l-.36-.78a.58.58,0,0,0-.3-.3l-.05,0h0a.59.59,0,0,0-.43,0l-9.45,4.37-1.34.62a.63.63,0,0,0-.31.83l.7,1.52a.64.64,0,0,0,.83.3l3.62-1.67.57,1.23c.13.29.26.58.4.87a4.3,4.3,0,0,0,2.24,2.22,4.64,4.64,0,0,0,5.41-2A3.91,3.91,0,0,0,92.58,122.28Zm-3.85-1.79c.34.71.67,1.43,1,2.15a1.18,1.18,0,0,1-.53,1.53,1.45,1.45,0,0,1-1.84,0,2.15,2.15,0,0,1-.37-.66l-.5-1.07-.34-.75Z" transform="translate(-14.04 -15.46)"/><path d="M124.94,77.19a3.9,3.9,0,0,0-4.46-1.49,3.6,3.6,0,0,0-2.72,3.63,13,13,0,0,0,.45,2.22c.16.64.6,1.81-.08,2.3-.87.63-1.65-.28-2-1a4.44,4.44,0,0,1-.43-3.27.62.62,0,0,0-.37-.8l-1.1-.28c1.15,2.71,2.16,5.57,3.13,8.45a4.15,4.15,0,0,0,2.15-.52,3.49,3.49,0,0,0,1.9-3.58,11.63,11.63,0,0,0-.36-1.94c-.14-.58-.53-1.64-.1-2.18.57-.71,1.49-.2,1.91.37a4.09,4.09,0,0,1,.54,3.2.63.63,0,0,0,.56.69l1.6.3a.63.63,0,0,0,.68-.56A7.07,7.07,0,0,0,124.94,77.19Z" transform="translate(-14.04 -15.46)"/><path d="M131.29,90.84l-.78-1.69a.66.66,0,0,0-.51-.36l-4.73-.08,3-3.66a.6.6,0,0,0,0-.62l-.77-1.68a.63.63,0,0,0-1.08-.1l-3.34,4.26a19.54,19.54,0,0,0-1.43,1.83.67.67,0,0,0-.18.1l-1.35.62-1.73.8c.31.93.62,1.85.94,2.78l3.54-1.64,7.74.32A.63.63,0,0,0,131.29,90.84Z" transform="translate(-14.04 -15.46)"/><path d="M134.08,97.08a8.38,8.38,0,0,0-.55-1.39c-.33-.72-.67-1.43-1-2.15l-.34-.73-.36-.78a.55.55,0,0,0-.3-.3l-.05,0h0a.57.57,0,0,0-.42,0l-9.46,4.37-.92.43c.34.92.69,1.82,1.06,2.72l3.36-1.56.57,1.23c.14.29.27.58.4.87a4.33,4.33,0,0,0,2.24,2.22,4.62,4.62,0,0,0,5.41-1.94A4,4,0,0,0,134.08,97.08Zm-3.4,1.9a1.46,1.46,0,0,1-1.84,0,2.44,2.44,0,0,1-.37-.67c-.17-.35-.33-.71-.49-1.06l-.35-.75,2.6-1.21c.33.72.67,1.43,1,2.16A1.18,1.18,0,0,1,130.68,99Z" transform="translate(-14.04 -15.46)"/><path d="M168.67,114.34a3.91,3.91,0,0,0-3.47-3.16,3.61,3.61,0,0,0-4,2.23,13.84,13.84,0,0,0-.49,2.21,10.24,10.24,0,0,1-.18,1v3.85a3.51,3.51,0,0,0,2.57-2.41,14.08,14.08,0,0,0,.45-1.92c.1-.59.18-1.72.78-2,.82-.43,1.45.41,1.6,1.1a4.06,4.06,0,0,1-.8,3.15.64.64,0,0,0,.24.85l1.34.92a.63.63,0,0,0,.85-.24A7,7,0,0,0,168.67,114.34Z" transform="translate(-14.04 -15.46)"/></g></svg>