<svg xmlns="http://www.w3.org/2000/svg" width="43.395" height="43.39" viewBox="0 0 43.395 43.39">
  <g id="Group_30741" data-name="Group 30741" transform="translate(-2470.58 214.939)">
    <g id="Group_30740" data-name="Group 30740" transform="translate(2470.58 -214.939)">
      <path id="Path_2821" data-name="Path 2821" d="M51.756,1052.233a21.256,21.256,0,1,1,21.257-21.256A21.281,21.281,0,0,1,51.756,1052.233Zm0-42.2A20.942,20.942,0,1,0,72.7,1030.977,20.965,20.965,0,0,0,51.756,1010.036Z" transform="translate(-30.055 -1009.306)" fill="#fff"/>
      <path id="Path_2822" data-name="Path 2822" d="M49.3,1049.486a20.727,20.727,0,1,1,3.26-.248,21.025,21.025,0,0,1-3.26.248.46.46,0,0,0,0,.919,21.728,21.728,0,1,0-3.3-.253,22.608,22.608,0,0,0,3.3.253A.461.461,0,0,0,49.3,1049.486Z" transform="translate(-27.598 -1007.019)" fill="#fff"/>
      <path id="Path_2823" data-name="Path 2823" d="M51.079,1008.78a21.405,21.405,0,1,0,3.307.257,22.318,22.318,0,0,0-3.307-.257.46.46,0,0,0,0,.919,20.441,20.441,0,1,1-3.27.257,20.708,20.708,0,0,1,3.27-.257A.46.46,0,0,0,51.079,1008.78Z" transform="translate(-29.378 -1008.51)" fill="#fff"/>
      <path id="Path_2824" data-name="Path 2824" d="M139.874,1072.285a4.748,4.748,0,0,1-.835,2.74,2.8,2.8,0,0,1-2.376,1.357,2.178,2.178,0,0,1-1.644-.679,2.316,2.316,0,0,1-.652-1.67,2.85,2.85,0,0,1,1.461-2.219q1.461-1.043,1.461-1.827a2.108,2.108,0,0,0-.991-1.827,3.594,3.594,0,0,0-2.062-.6,3.968,3.968,0,0,0-2.7.991,3.217,3.217,0,0,0-1.135,2.532,6.632,6.632,0,0,0,.208,2.01q.078.234,1.149,2.324,3.079,6.029,3.08,9.632l-.306,2.95h-.809a9.314,9.314,0,0,1,.078-.979,9.421,9.421,0,0,0,.078-1.006,5.632,5.632,0,0,0-1.8-3.967l-3.393-3.237a7.78,7.78,0,0,1-1.8-5.09,7.165,7.165,0,0,1,2.008-5.1,6.584,6.584,0,0,1,4.986-2.128,5.983,5.983,0,0,1,4.255,1.644A5.435,5.435,0,0,1,139.874,1072.285Zm-3.757,20.151a2.258,2.258,0,0,1-.652,1.618,2.129,2.129,0,0,1-1.593.679,2.41,2.41,0,0,1-1.7-.652,2.144,2.144,0,0,1-.7-1.644,2.306,2.306,0,0,1,.666-1.659,2.176,2.176,0,0,1,1.631-.691A2.362,2.362,0,0,1,136.117,1092.436Z" transform="translate(-111.675 -1057.381)" fill="#fff"/>
      <path id="Path_2825" data-name="Path 2825" d="M136.861,1069.684c-.038,1.685-1.225,4.2-3.325,3.56a1.857,1.857,0,0,1-1.2-2.224c.262-.885,1.155-1.342,1.809-1.9a2.277,2.277,0,0,0,.633-3.169,3.93,3.93,0,0,0-3.915-1.379,4.453,4.453,0,0,0-3.217,6.127c.51,1.349,1.316,2.6,1.925,3.911a28.651,28.651,0,0,1,1.774,4.687,9.443,9.443,0,0,1,.444,3.454l-.28,2.644.46-.46h-.809l.46.46a11.1,11.1,0,0,0-.04-3.416,6.77,6.77,0,0,0-1.758-2.88c-.962-.965-1.976-1.884-2.962-2.826-3.8-3.624-2.12-10.9,3.267-11.831a5.539,5.539,0,0,1,6.74,5.239.46.46,0,0,0,.919,0,6.259,6.259,0,0,0-4.9-6.09,7.352,7.352,0,0,0-7.41,2.736,8.215,8.215,0,0,0-.872,8.288,13.469,13.469,0,0,0,3.446,4.054,13.925,13.925,0,0,1,1.9,1.991,4.892,4.892,0,0,1,.91,2.521c.035.738-.135,1.467-.153,2.206a.46.46,0,0,0,.46.459h.809a.472.472,0,0,0,.46-.459,17.3,17.3,0,0,0,.129-4.886c-.564-3.284-2.144-6.28-3.621-9.233a5.121,5.121,0,0,1-.564-3.462,3.4,3.4,0,0,1,4.174-2.3c.826.211,1.838.885,1.729,1.866-.089.825-1.192,1.349-1.742,1.827a2.883,2.883,0,0,0-.956,3.37,2.839,2.839,0,0,0,3.794,1.4,4.72,4.72,0,0,0,2.406-4.289A.462.462,0,0,0,136.861,1069.684Z" transform="translate(-109.121 -1054.78)" fill="#fff"/>
    </g>
    <path id="Path_2826" data-name="Path 2826" d="M158.477,1220.349a1.835,1.835,0,0,1-1.786,1.838,1.888,1.888,0,0,1-1.942-1.838c0-2.46,3.618-2.409,3.728,0,.026.588.945.591.919,0a2.847,2.847,0,0,0-2.809-2.809,2.784,2.784,0,1,0,2.809,2.809C159.422,1219.755,158.5,1219.755,158.477,1220.349Z" transform="translate(2336.085 -1400.233)" fill="#fff"/>
  </g>
</svg>
