<svg xmlns="http://www.w3.org/2000/svg" width="54.297" height="45.817" viewBox="0 0 54.297 45.817">
  <g id="الرئيسية" transform="translate(0.254 0.259)">
    <g id="الرئيسية-2" data-name="الرئيسية" transform="translate(0 0)">
      <path id="Path_2676" data-name="Path 2676" d="M803.86,367.016l-25.508-21.529a.673.673,0,0,0-.053-.043h0a.82.82,0,0,0-.5-.246.851.851,0,0,0-.924.208.6.6,0,0,0-.076.129l-25.669,21.314c-.483.4-.676,1.094-.348,1.448a1.092,1.092,0,0,0,1.484-.076l25.325-21.042,25.122,21.2c.475.4,1.2.475,1.483.09A1.1,1.1,0,0,0,803.86,367.016Z" transform="translate(-750.616 -345.15)" fill="#fff" stroke="#fff" stroke-miterlimit="10" stroke-width="0.5"/>
      <path id="Path_2677" data-name="Path 2677" d="M830.728,414.688a.882.882,0,0,0-.224-.3l-18.886-16.341a.9.9,0,0,0-1.257.089c-.013.016-.026.037-.039.053l-19.37,16.143a.966.966,0,0,0-.219.27.569.569,0,0,0-.072.172v.013a.956.956,0,0,0,0,.5l-.148,18.036a.947.947,0,0,0,0,.095v.175a.825.825,0,0,0,.043.161c.079.322.261.553.483.553h.175a.928.928,0,0,0,.243.024,1.631,1.631,0,0,0,.2-.021l13.816.116a1.23,1.23,0,0,0,.343.037,1.873,1.873,0,0,0,.311-.034h.029a.342.342,0,0,0,.2-.066c.214-.082.356-.214.356-.372l.1-12.019,7.327.058-.1,12.027c0,.151.148.3.372.391a.365.365,0,0,0,.225.087h.378l14.736.122a.317.317,0,0,0,.066,0,.825.825,0,0,0,.142,0c.483-.014.893-.288.864-.666l.161-18.825A.544.544,0,0,0,830.728,414.688Zm-15.213,5.631a.18.18,0,0,0-.109-.043h-.037a1.339,1.339,0,0,0-.322-.032,1.449,1.449,0,0,0-.291.029l-8.474-.069a1.48,1.48,0,0,0-.346-.039,1.954,1.954,0,0,0-.322.032h-.23c-.084,0-.161.076-.228.2a.322.322,0,0,0-.122.238v.2a1.537,1.537,0,0,0-.013.246,1.428,1.428,0,0,0,.01.2l-.095,11.367-12.613-.106.142-17.168L811.036,399.9l18.118,15.679-.145,17.306-13.193-.108.1-12.049c.015-.166-.154-.322-.4-.414Z" transform="translate(-784.093 -389.354)" fill="#fff" stroke="#fff" stroke-miterlimit="10" stroke-width="0.5"/>
    </g>
  </g>
</svg>
