<svg id="Layer_1" data-name="Layer 1" xmlns="http://www.w3.org/2000/svg" viewBox="0 0 334.46 282.09"><g id="الرئيسية"><g id="الرئيسية-2"><path d="M331.17,136.19,172.63,2.38a2.1,2.1,0,0,0-.33-.26V2.07A5.13,5.13,0,0,0,169.11.53c-2.28-.62-4.57-.27-5.74,1.29a3.57,3.57,0,0,0-.47.8L3.42,135.15c-3,2.48-4.2,6.8-2.16,9s6.05,2.17,9.22-.47L167.88,12.89,324,144.65c3,2.5,7.44,2.95,9.22.56S334.33,138.86,331.17,136.19Z" transform="translate(0 0.01)" style="fill:#a3cc84;stroke:#a3cc84;stroke-miterlimit:10;stroke-width:0.5px"/><path d="M290.09,157.75a5.52,5.52,0,0,0-1.39-1.89L171.32,54.3a5.59,5.59,0,0,0-7.81.55l-.24.33L42.88,155.53a6,6,0,0,0-1.36,1.68,3.48,3.48,0,0,0-.45,1.07v.08a6,6,0,0,0,0,3.14l-.94,112a5.81,5.81,0,0,0,0,.59v1.09a4.93,4.93,0,0,0,.27,1c.49,2,1.62,3.45,3,3.45h1.09a6.39,6.39,0,0,0,1.51.14,8.54,8.54,0,0,0,1.25-.12l85.87.71a7.65,7.65,0,0,0,2.13.23,10.46,10.46,0,0,0,1.93-.21h.18a2.18,2.18,0,0,0,1.23-.41c1.33-.51,2.21-1.33,2.21-2.31l.62-74.7,45.54.37-.61,74.72c0,.94.92,1.86,2.31,2.44a2.33,2.33,0,0,0,1.4.53h2.35l91.59.76h.41a6.46,6.46,0,0,0,.88,0c3-.09,5.55-1.79,5.37-4.14l1-117A3.38,3.38,0,0,0,290.09,157.75Zm-94.55,35a1.13,1.13,0,0,0-.68-.27h-.23a8.44,8.44,0,0,0-2-.2,9.18,9.18,0,0,0-1.81.18L138.15,192a9.71,9.71,0,0,0-2.15-.24,11.62,11.62,0,0,0-1.95.2h-1.43c-.52,0-1,.47-1.42,1.25a2,2,0,0,0-.76,1.48V196a9.81,9.81,0,0,0-.08,1.53,8.86,8.86,0,0,0,.06,1.27l-.59,70.65-78.39-.66.88-106.7L167.71,65.83l112.61,97.45-.9,107.56-82-.67.62-74.89c.08-1-1-2-2.5-2.54Z" transform="translate(0 0.01)" style="fill:#a3cc84;stroke:#a3cc84;stroke-miterlimit:10;stroke-width:0.5px"/></g></g></svg>