<svg id="Layer_1" data-name="Layer 1" xmlns="http://www.w3.org/2000/svg" viewBox="0 0 220.04 114.92"><path d="M224.74,62.73a46.79,46.79,0,0,0-3.67-13.67,1.27,1.27,0,0,0-.33-.7A37.07,37.07,0,0,0,210.33,35c-6.62-5.28-14.71-8.36-23-9.83a57.94,57.94,0,0,0-14-1h-.22a1.28,1.28,0,0,0-1.25,1.25v73h-3.31q.1-13.83.22-27.67.18-22.62.37-45.23c0-3.46,0-6.92.08-10.38A1.26,1.26,0,0,0,168,13.8H26.27c-6.54,0-13.12-.22-19.66,0H6.34a1.27,1.27,0,0,0-1.25,1.25v97.47a1.27,1.27,0,0,0,1.25,1.25h5.43a15.3,15.3,0,0,0,27,9.41,15.63,15.63,0,0,0,3.58-9.41h60.37a15.3,15.3,0,0,0,30.59,0H175a15.28,15.28,0,0,0,30.55,0H215c2.72,0,5.58.24,8.31,0a1.24,1.24,0,0,0,1.77-1.1V75A106.43,106.43,0,0,0,224.74,62.73Zm-2,7.69H187.34V50.51H219a41.54,41.54,0,0,1,2.75,9A65.07,65.07,0,0,1,222.71,70.42ZM22.49,16.3H165.55l1.2,0-.22,27.31-.36,45.23q0,4.74-.08,9.46H13.17c-1.8,0-3.74-.17-5.58-.06v-82Zm4.58,109.83a12.93,12.93,0,0,1-12.79-12.36H39.85A12.92,12.92,0,0,1,27.07,126.13Zm90.95,0a12.92,12.92,0,0,1-12.78-12.36h25.57A12.93,12.93,0,0,1,118,126.13Zm83.24-6.2a12.82,12.82,0,1,1-1-14.71A12.92,12.92,0,0,1,201.26,119.93Zm16.8-8.66H205.43a14.92,14.92,0,0,0-2-5.82,15.29,15.29,0,0,0-28.28,5.82h-160c-2.49,0-5.08-.19-7.59,0V100.83h145.1c6.71,0,13.47.22,20.18,0h.28a1.26,1.26,0,0,0,1.25-1.25v-73a58,58,0,0,1,9.73.56A52.21,52.21,0,0,1,206.19,35a35.34,35.34,0,0,1,11.59,13H186.09a1.26,1.26,0,0,0-1.25,1.25V71.67a1.27,1.27,0,0,0,1.25,1.25h36.64c0,3.51-.11,7-.11,10.49v26.88c0,.32,0,.65,0,1Z" transform="translate(-5.09 -13.7)"/><path d="M210.25,80.24h-7.62a1.26,1.26,0,0,0-1.25,1.25,1.28,1.28,0,0,0,1.25,1.25h7.62a1.25,1.25,0,0,0,0-2.5Z" transform="translate(-5.09 -13.7)"/></svg>