<svg xmlns="http://www.w3.org/2000/svg" width="37.141" height="41.741" viewBox="0 0 37.141 41.741">
  <g id="Group_30739" data-name="Group 30739" transform="translate(-1521.654 -262.975)">
    <g id="السجل" transform="translate(1521.904 263.265)">
      <path id="Path_2690" data-name="Path 2690" d="M593.117,391.14V357.468a.638.638,0,0,0-.632-.632h-1.578a.634.634,0,1,0,0,1.266h.944v36.124h-7.428a.634.634,0,0,0,0,1.266h8.064a.638.638,0,0,0,.632-.632V391.14Z" transform="translate(-560.119 -354.291)" fill="#fff" stroke="#fff" stroke-miterlimit="10" stroke-width="0.5"/>
      <path id="Path_2691" data-name="Path 2691" d="M474.325,538.617h.032a.632.632,0,0,0,0-1.265H458.569c-.722,0-1.452-.014-2.174,0h-.032a.632.632,0,1,0,0,1.265H472.15C472.874,538.617,473.6,538.631,474.325,538.617Z" transform="translate(-450.524 -508.739)" fill="#fff" stroke="#fff" stroke-miterlimit="10" stroke-width="0.5"/>
      <path id="Path_2692" data-name="Path 2692" d="M446.187,375.365l1.916-1.932c.312-.315.632-.622.936-.946l.014-.014a.425.425,0,0,0,.053-.061.578.578,0,0,0,.133-.386V342.2a.641.641,0,0,0-.634-.634H429.637a3,3,0,0,0-1.834-2.125,3.449,3.449,0,0,0-3.246.45,4.41,4.41,0,0,0-1.242,1.376.634.634,0,0,0-.081.289H420.3a.64.64,0,0,0-.632.634V379.78a.638.638,0,0,0,.632.632h20.615a.585.585,0,0,0,.166-.025.6.6,0,0,0,.289-.162c.256-.258.511-.514.768-.772l1.834-1.85Q445.071,376.491,446.187,375.365ZM424.693,341.48a3.806,3.806,0,0,1,.442-.448.3.3,0,0,1,.026-.023l.016-.01.107-.077c.1-.065.195-.124.3-.18l.134-.066.029-.014h0a2.816,2.816,0,0,1,.335-.107c.053-.014.107-.026.16-.038l.1-.019c-.084.016-.009,0,.009,0l.092-.009h.352a.864.864,0,0,0,.152.017l.051.007c.062.012.121.029.183.043a1.419,1.419,0,0,1,.155.048l.039.012a2.742,2.742,0,0,1,.289.157c.039.025.087.069.129.09l.012.009a2.32,2.32,0,0,1,.24.237c.012.013.022.027.033.039h0c.048.056.03.051.012.022.022.038.056.071.075.1.046.074.079.159.121.234-.012-.025.009-.009.02.026a.115.115,0,0,0,0,.013h0a.213.213,0,0,1-.023-.039.178.178,0,0,0,.023.039h-3.674c.009-.013.02-.025.029-.039A.112.112,0,0,0,424.693,341.48Zm14.174,37.672H420.938V342.833H428.5v5.3a.643.643,0,0,0-.048.121.156.156,0,0,1-.013.042c0,.014-.043.071-.049.082h0a1.1,1.1,0,0,1-.1.1l-.025.013a1.143,1.143,0,0,1-.107.062.335.335,0,0,1-.04.017c.035-.014.1-.03,0,0h0c-.007,0-.013,0-.013.009s0,0,.012-.009c-.055.017-.108.033-.163.048l-.144.032h-.053a2.973,2.973,0,0,1-.321.009h-.172a.558.558,0,0,0-.071,0c-.039-.009-.092-.023-.1-.026a.617.617,0,0,1-.062-.02c-.025-.016-.064-.03-.09-.045s-.045-.03-.071-.048a.1.1,0,0,0-.03-.025.826.826,0,0,1-.092-.1l-.02-.022c-.017-.029-.036-.053-.053-.082l-.059-.1c-.012-.023-.026-.048-.036-.071s-.012-.025-.017-.039-.009-.025-.012-.03c-.017-.046-.03-.091-.045-.136-.026-.084-.045-.169-.062-.253l-.009-.051c0-.032-.009-.059-.01-.091-.012-.123-.014-.25-.014-.377a13.954,13.954,0,0,0-.009-1.611.683.683,0,0,0-.186-.448.647.647,0,0,0-.446-.186c-.31.014-.676.282-.634.634a16.413,16.413,0,0,1,.009,1.665,3.726,3.726,0,0,0,.32,1.511,2.056,2.056,0,0,0,1.044,1.038,2.963,2.963,0,0,0,1.753.091,1.914,1.914,0,0,0,1.341-1.07.608.608,0,0,0,.163-.419v-5.525h18.2V371.4h-7.056a.64.64,0,0,0-.632.634v7.122Zm2.684-.905v-5.585h5.536c-.508.515-1.011,1.027-1.528,1.542l-2.225,2.245Z" transform="translate(-419.67 -339.214)" fill="#fff" stroke="#fff" stroke-miterlimit="10" stroke-width="0.5"/>
      <path id="Path_2693" data-name="Path 2693" d="M474.507,509.232H458.719c-.722,0-1.452-.014-2.174,0h-.032a.634.634,0,0,0,0,1.266H472.3c.722,0,1.452.013,2.174,0h.032a.634.634,0,0,0,0-1.266Z" transform="translate(-450.677 -484.679)" fill="#fff" stroke="#fff" stroke-miterlimit="10" stroke-width="0.5"/>
      <path id="Path_2694" data-name="Path 2694" d="M474.507,484.962H458.719c-.722,0-1.452-.014-2.174,0h-.032a.634.634,0,0,0,0,1.266H472.3c.722,0,1.452.014,2.174,0h.032a.634.634,0,0,0,0-1.266Z" transform="translate(-450.677 -463.913)" fill="#fff" stroke="#fff" stroke-miterlimit="10" stroke-width="0.5"/>
      <path id="Path_2695" data-name="Path 2695" d="M456.149,456.348h15.788c.722,0,1.453.014,2.174,0h.032a.634.634,0,0,0,0-1.266H458.349c-.722,0-1.453-.014-2.174,0h-.032a.634.634,0,0,0,0,1.266Z" transform="translate(-450.36 -438.347)" fill="#fff" stroke="#fff" stroke-miterlimit="10" stroke-width="0.5"/>
      <path id="Path_2696" data-name="Path 2696" d="M456.362,430.007H472.15c.722,0,1.452.014,2.174,0h.032a.632.632,0,0,0,0-1.265H458.569c-.722,0-1.452-.014-2.174,0h-.032a.632.632,0,1,0,0,1.265Z" transform="translate(-450.524 -415.81)" fill="#fff" stroke="#fff" stroke-miterlimit="10" stroke-width="0.5"/>
      <path id="Path_2697" data-name="Path 2697" d="M654.435,393.855V357.468a.638.638,0,0,0-.632-.632h-1.578a.634.634,0,1,0,0,1.266h.946v36.124h-1.337a.634.634,0,0,0,0,1.266h1.972a.638.638,0,0,0,.632-.632Z" transform="translate(-617.797 -354.291)" fill="#fff" stroke="#fff" stroke-miterlimit="10" stroke-width="0.5"/>
      <path id="Path_2698" data-name="Path 2698" d="M478.16,404Z" transform="translate(-469.715 -394.646)" fill="#fff" stroke="#fff" stroke-miterlimit="10" stroke-width="0.5"/>
      <path id="Path_2699" data-name="Path 2699" d="M478.06,352.813v0Z" transform="translate(-469.63 -350.839)" fill="#fff" stroke="#fff" stroke-miterlimit="10" stroke-width="0.5"/>
      <path id="Path_2700" data-name="Path 2700" d="M477.993,352.67h0v.012a.014.014,0,0,1,0-.012Z" transform="translate(-469.571 -350.727)" fill="#fff" stroke="#fff" stroke-miterlimit="10" stroke-width="0.5"/>
    </g>
  </g>
</svg>
