<svg id="تسجيل_الخروج" data-name="تسجيل الخروج" xmlns="http://www.w3.org/2000/svg" width="53.907" height="47.4" viewBox="0 0 53.907 47.4">
  <path id="Path_2757" data-name="Path 2757" d="M401.186,36.6V5.97a3.124,3.124,0,0,0-2.748-2.975,6.526,6.526,0,0,0-2.642.4l-3.5.953q-1.652.452-3.308.9c-.237.064-.471.125-.708.195a3.348,3.348,0,0,0-1.931,1.369,5.2,5.2,0,0,0-.447,2.933V42.8a3.028,3.028,0,0,0,1.874,2.777l5.2,2.151,2.952,1.221.539.224a3.64,3.64,0,0,0,2.634.088A3.054,3.054,0,0,0,401.2,46.43V42.237C401.186,40.348,401.186,38.469,401.186,36.6Zm-1.424,10.56Zm.138-.755v.132a1.212,1.212,0,0,1-.01.153.2.2,0,0,0,0,.029.707.707,0,0,1-.014.08,2.055,2.055,0,0,1-.072.253,1.156,1.156,0,0,1-.047.124.126.126,0,0,1-.013.029c-.047.084-.093.161-.146.246l-.087.117c0,.01-.013.016-.013.019l-.055.058c-.068.068-.135.135-.211.2a.816.816,0,0,1-.092.071l-.018.013-.023.013c-.074.045-.15.092-.228.134l-.161.077-.032.016-.035.01c-.1.029-.193.058-.288.08a1.041,1.041,0,0,1-.119.024s-.06.01-.1.013a.765.765,0,0,1-.095,0h-.322c-.008,0-.137-.013-.122-.01a2.614,2.614,0,0,1-.275-.06c-.042-.01-.085-.023-.124-.035,0,0-.119-.042-.125-.042h0c-.222-.087-.439-.182-.661-.272l-6.445-2.666-1.561-.644a3.22,3.22,0,0,1-.322-.161c-.05-.029-.1-.058-.146-.09l-.018-.013s-.026-.019-.043-.035a1.849,1.849,0,0,1-.414-.441,1.4,1.4,0,0,1-.225-.47,1.309,1.309,0,0,1-.071-.483V8.315a1.758,1.758,0,0,1,.193-.785,1.981,1.981,0,0,1,1.282-.975l.758-.208,6.735-1.833,1-.272c.053-.013.1-.031.161-.043a2.391,2.391,0,0,1,.993-.048c.106.023.208.051.311.082l.056.019.114.048a1.658,1.658,0,0,1,.471.291,1.717,1.717,0,0,1,.579.833,1.551,1.551,0,0,1,.082.579c0,.713,0,1.429,0,2.142V44.187c0,.739,0,1.472,0,2.207Z" transform="translate(-385.395 -2.5)" fill="#fff"/>
  <path id="Path_2758" data-name="Path 2758" d="M399.07,34.181V6.025a17.857,17.857,0,0,0-.052-2.993,3.631,3.631,0,0,0-2.4-2.745c-1.638-.57-3.429.2-5.01.632-1.939.529-3.886,1.036-5.82,1.585a3.706,3.706,0,0,0-2.92,2.954,16.393,16.393,0,0,0-.055,2.483V39.1a6.836,6.836,0,0,0,.24,2.524c.616,1.588,2.13,2.053,3.578,2.653L393.2,47c1.67.692,3.52.777,4.883-.608,1.311-1.334.993-3.266.993-4.976v-7.24a.483.483,0,0,0-.965,0v8.354a5.918,5.918,0,0,1-.225,2.492c-.8,1.722-2.774,1.731-4.293,1.1l-5.11-2.114c-.867-.359-1.736-.713-2.6-1.076A3.154,3.154,0,0,1,384,41.4a5.963,5.963,0,0,1-.217-2.452V8.534c0-1.619-.4-3.726,1.237-4.7a8.87,8.87,0,0,1,2.253-.739l2.848-.776,2.331-.637a13.972,13.972,0,0,1,2.706-.644A2.718,2.718,0,0,1,398.1,3.553c.119,1.829,0,3.709,0,5.543V34.181A.483.483,0,0,0,399.07,34.181Z" transform="translate(-382.796 -0.085)" fill="#fff"/>
  <path id="Path_2759" data-name="Path 2759" d="M469.654,275.555a.483.483,0,0,0,0-.965A.483.483,0,0,0,469.654,275.555Z" transform="translate(-455.288 -230.423)" fill="#fff"/>
  <path id="Path_2760" data-name="Path 2760" d="M403.348,50.163a1.442,1.442,0,0,1-1.311,1.409,5.785,5.785,0,0,1-2.436-.761l-5.274-2.182c-1.158-.483-2.674-.7-2.735-2.125-.161-3.651,0-7.342,0-11V13.645c0-.732-.2-1.794.333-2.388s1.57-.684,2.3-.883l5.358-1.459c1.091-.3,3.334-1.223,3.733.531a11.828,11.828,0,0,1,.035,2.47V50.163a.483.483,0,0,0,.965,0V10.079a2.564,2.564,0,0,0-.5-1.752c-.895-1.081-2.15-.978-3.379-.644l-6.017,1.628c-1.331.362-3.208.542-3.7,2.092a7.608,7.608,0,0,0-.106,2.23V44.59a9.806,9.806,0,0,0,.089,2.652c.425,1.448,2.137,1.805,3.353,2.307l6.375,2.637a2.979,2.979,0,0,0,2.439.129,2.338,2.338,0,0,0,1.443-2.151A.483.483,0,0,0,403.348,50.163Z" transform="translate(-389.317 -6.268)" fill="#fff"/>
  <path id="Path_2761" data-name="Path 2761" d="M578.4,27.61a.087.087,0,0,0,.029,0Z" transform="translate(-546.928 -23.181)" fill="#fff"/>
  <path id="Path_2762" data-name="Path 2762" d="M575.78,25.531h.016a.322.322,0,0,0,.14-.019.354.354,0,0,0,.161-.087.362.362,0,0,0,.126-.135l.048-.114a.375.375,0,0,0,0-.193.252.252,0,0,0-.032-.122.361.361,0,0,0-.1-.161l-.1-.076a.483.483,0,0,0-.243-.066h-.029a.357.357,0,0,0-.187.042.362.362,0,0,0-.161.1.347.347,0,0,0-.1.161.357.357,0,0,0-.042.187l.018.129a.482.482,0,0,0,.124.212l.1.076a.482.482,0,0,0,.245.066h.029l-.129-.948h0l.129-.016h-.024a.357.357,0,0,0-.187.042.362.362,0,0,0-.161.1.348.348,0,0,0-.1.161.357.357,0,0,0-.042.187l.018.129a.482.482,0,0,0,.124.212l.1.076A.483.483,0,0,0,575.78,25.531Z" transform="translate(-544.308 -20.62)" fill="#fff"/>
  <path id="Path_2763" data-name="Path 2763" d="M592.506,40.32a.1.1,0,0,0,0,.058h0a.382.382,0,0,1,0-.058Z" transform="translate(-558.761 -33.846)" fill="#fff"/>
  <path id="Path_2764" data-name="Path 2764" d="M589.546,37.514a.311.311,0,0,0-.05.119.306.306,0,0,1-.01.066.247.247,0,0,1-.008.066v.026a1.237,1.237,0,0,0,.018.132v.01h0a.921.921,0,0,0,.05.117h0l.077.1.1.076.116.048.127.018a.37.37,0,0,0,.187-.042.24.24,0,0,0,.106-.063.234.234,0,0,0,.087-.085.253.253,0,0,0,.063-.108.364.364,0,0,0,.04-.185,1.427,1.427,0,0,0-.021-.161l.016.129v-.021a.354.354,0,0,0-.042-.187.377.377,0,0,0-.1-.161.362.362,0,0,0-.161-.1.374.374,0,0,0-.187-.04l-.129.016a.483.483,0,0,0-.212.124l-.076.1a.483.483,0,0,0-.066.245,1.311,1.311,0,0,0,.019.15v.031l-.018-.129h0l.825-.341h0l.076.1h0l.048.116a.085.085,0,0,1,0-.019l.016.129a.176.176,0,0,1,0-.029l-.018.127h0l-.048.116h0a.362.362,0,0,0,.058-.18.354.354,0,0,0-.01-.191.53.53,0,0,0-.222-.285l-.114-.05a.5.5,0,0,0-.257,0l-.114.05a.47.47,0,0,0-.166.172Z" transform="translate(-556.217 -31.285)" fill="#fff"/>
  <path id="Path_2765" data-name="Path 2765" d="M489.641,21.4h13.432c.024,0,.235.019.322.023-.032,0-.068-.013,0,0h.019a.46.46,0,0,1,.071.013c.064.01.125.023.19.039.114.026.228.061.343.1l.035.013h0c.064.029.129.055.19.084a2.474,2.474,0,0,1,.3.161l.082.051s.011,0,.011.01c.029.023.061.045.089.068a2.527,2.527,0,0,1,.251.22l.106.111c.018.019.032.039.05.055s0,0,.008.01a2.091,2.091,0,0,1,.346.553c-.047-.145.011.029.021.061s.035.1.05.143c.035.114.064.227.09.341h0a.214.214,0,0,1,0,.035V23.5a.015.015,0,0,0,0,.01h0c0,.051.011.1.014.161s0,.092,0,.14V36.378a.644.644,0,1,0,1.287,0V23.9a3.53,3.53,0,0,0-.41-1.678,3.886,3.886,0,0,0-2.4-1.842,4.938,4.938,0,0,0-1.332-.15H489.641a.585.585,0,1,0,0,1.163ZM504.6,21.869Z" transform="translate(-471.91 -16.99)" fill="#fff"/>
  <path id="Path_2766" data-name="Path 2766" d="M487.122,19.177h7.031c2.225,0,4.5-.132,6.717.023.536.037.668-.854.129-.948h-.037l-.129.948c-.185-.014.043,0,.066,0a.483.483,0,0,0,0-.965h0c-.528,0-.679.848-.129.948a2.216,2.216,0,0,1,1.789,1.273c.228.5,1.043.145.882-.373l-.018-.055-.93.256c.05.151.106.3.15.455.063.232-.039,0,.039.211l.8-.47h0c-.282-.257-.864-.1-.824.341.161,1.831.018,3.739.018,5.577v6.043c0,.587-.161,1.379.23,1.879a1.163,1.163,0,0,0,1.517.249c.536-.335.5-.9.5-1.459V23.883c0-1.564.285-3.408-.592-4.8a4.587,4.587,0,0,0-3.765-2.027c-2.092-.09-4.219,0-6.318,0H487.52c-.592,0-1.271.09-1.479.756a1.091,1.091,0,0,0,.951,1.355c.608.09.87-.84.256-.93v-.108c-.05-.169.043-.2.28-.108a2.8,2.8,0,0,1,.434,0h7.884c1.485,0,2.972-.021,4.455,0a3.566,3.566,0,0,1,3.395,1.931c.533,1.194.267,2.816.267,4.093v8.785a1.7,1.7,0,0,1,0,.433V33.4c-.254.277-.36.291-.322.047a3.334,3.334,0,0,1,0-1V25.284c0-1.474.114-3-.018-4.468l-.824.341h0c.322.3.985.013.8-.47.042.117.013.021-.032-.15s-.1-.344-.161-.515c-.195-.586-1.117-.341-.93.256l.018.056.882-.372a3.162,3.162,0,0,0-2.365-1.715l-.129.948h0a.483.483,0,0,0,0-.965h-.066c-.536-.043-.666.854-.129.948h.039l.127-.948c-2.22-.161-4.492-.023-6.717-.023h-7.018A.485.485,0,0,0,487.122,19.177Z" transform="translate(-469.391 -14.288)" fill="#fff"/>
  <path id="Path_2767" data-name="Path 2767" d="M583.564,28.375a.483.483,0,0,0,0-.965A.483.483,0,0,0,583.564,28.375Z" transform="translate(-550.87 -23.014)" fill="#fff"/>
  <path id="Path_2768" data-name="Path 2768" d="M595.24,253.4Z" transform="translate(-561.059 -212.643)" fill="#fff"/>
  <path id="Path_2769" data-name="Path 2769" d="M592.238,250.883h0a.369.369,0,0,0,.04.187.442.442,0,0,0,.256.256.368.368,0,0,0,.187.04l.127-.016a.5.5,0,0,0,.214-.124l.076-.1a.5.5,0,0,0,.066-.245h0a.5.5,0,0,0-.483-.483l-.129.018a.473.473,0,0,0-.212.124l-.076.1a.463.463,0,0,0-.066.243h0a.369.369,0,0,0,.04.187.442.442,0,0,0,.256.256.368.368,0,0,0,.187.04l.127-.016a.5.5,0,0,0,.214-.124l.076-.1a.5.5,0,0,0,.066-.245h0a.5.5,0,0,0-.483-.483l-.129.018a.473.473,0,0,0-.212.124l-.076.1A.463.463,0,0,0,592.238,250.883Z" transform="translate(-558.539 -210.126)" fill="#fff"/>
  <path id="Path_2770" data-name="Path 2770" d="M507.257,182.094l-.053-3.757c-.018-1.232-.035-2.46-.05-3.691-.011-.7-.018-1.4-.029-2.1v-.1a.644.644,0,1,0-1.287,0c.008.483.014.975.023,1.464.014,1.126.032,2.267.047,3.4l.053,3.861c.014.941.024,1.884.039,2.83,0,.188.008.38.008.568v.068c0,.1-.008.2-.018.3a.015.015,0,0,1,0-.01.024.024,0,0,1,0,.01v.013c-.011.1,0,.021,0-.01a.334.334,0,0,1-.014.076c-.011.058-.026.113-.04.171-.027.1-.064.208-.1.312l-.018.048a.949.949,0,0,1-.09.161c-.053.093-.114.183-.177.275-.029.039-.064.077-.093.119-.014.016-.029.035-.047.053a2.7,2.7,0,0,1-.24.23,1.465,1.465,0,0,1-.121.1c-.026.019-.05.035-.071.055h0a3.928,3.928,0,0,1-.6.322.064.064,0,0,0-.021.01l-.042.013-.161.048a3.519,3.519,0,0,1-.375.084.5.5,0,0,0-.071.013c-.122.019.01,0,.024,0a.979.979,0,0,1-.2.016h-.644l-2.9.032-4.183.05-3.966.045-2.212.026h-.108a.586.586,0,1,0,0,1.167l1.588-.019,3.726-.042,4.323-.05,3.313-.039.8-.01a4.606,4.606,0,0,0,1.845-.388,3.7,3.7,0,0,0,2-2.2,3.76,3.76,0,0,0,.151-1.208C507.28,183.634,507.268,182.866,507.257,182.094Zm-2.877,4.764h.018A.029.029,0,0,0,504.38,186.858Z" transform="translate(-471.81 -144.172)" fill="#fff"/>
  <path id="Path_2771" data-name="Path 2771" d="M505.251,179.925q-.053-3.725-.1-7.448c-.008-.6-.018-1.2-.024-1.8a1.728,1.728,0,0,0-.151-.9,1.146,1.146,0,0,0-1.648-.343c-.7.5-.444,1.578-.434,2.31q.024,1.862.05,3.723c.034,2.413.222,4.89.079,7.3-.035.576.771.611.948.129v-.01c.214-.584-.718-.835-.93-.256a.846.846,0,0,0-.027.195h.965v-.055c.053-.537-.846-.661-.949-.127a2.228,2.228,0,0,1-2,1.77c-.528.1-.414,1.015.129.948.068-.008.137-.016.2-.029a.485.485,0,0,0-.129-.949c-1.427.117-2.9.048-4.32.066l-4.505.051-4.631.053c-.761.01-1.944.051-1.857,1.138.1,1.266,1.693.994,2.547.985l4.656-.053,4.454-.05a24.986,24.986,0,0,0,4.151-.13,4.389,4.389,0,0,0,3.057-2.108c.737-1.31.483-2.957.47-4.4a.483.483,0,0,0-.965,0c.021,1.448.333,3.186-.661,4.388s-2.478,1.244-3.935,1.261l-8.888.1-2.174.026a4.494,4.494,0,0,1-1.271.016c-.677-.275.611-.208.739-.209l4.315-.05,4.505-.051c1.432-.018,2.9.051,4.32-.066l-.129-.948h.053l.129.948a3.1,3.1,0,0,0,2.676-2.439l-.948-.129v.055c-.061.623.891.6.965,0,.01-.079,0-.06-.008.061.214-.584-.718-.835-.93-.256v.01l.949.127c.106-1.77-.027-3.593-.052-5.372l-.077-5.652c0-.256-.143-.965-.018-1.171.383-.644.322.109.322.257v.6q.018,1.371.035,2.735l.082,5.757A.483.483,0,0,0,505.251,179.925Z" transform="translate(-469.321 -142.003)" fill="#fff"/>
  <path id="Path_2772" data-name="Path 2772" d="M582.864,263.278h0l-.116.048h.01l-.129.018h0a.388.388,0,0,0,.187-.042.435.435,0,0,0,.254-.256.353.353,0,0,0,.042-.185l-.018-.129a.473.473,0,0,0-.124-.214l-.1-.076a.483.483,0,0,0-.245-.064.458.458,0,0,0-.066,0l-.066.008a.5.5,0,0,0-.063.026l-.066.029a.362.362,0,0,0-.135.126.354.354,0,0,0-.087.161.37.37,0,0,0-.01.191.362.362,0,0,0,.058.18l.076.1a.483.483,0,0,0,.212.124l.129.018a.5.5,0,0,0,.245-.066h0l-.114.048h0l-.127.018h0v-.965a.458.458,0,0,0-.066,0l-.064.008h0l-.125.053a.362.362,0,0,0-.135.126.354.354,0,0,0-.087.161.369.369,0,0,0-.01.191.363.363,0,0,0,.058.18l.076.1a.483.483,0,0,0,.212.124l.129.018A.5.5,0,0,0,582.864,263.278Z" transform="translate(-550.049 -220.172)" fill="#fff"/>
  <path id="Path_2773" data-name="Path 2773" d="M452.364,124.668a.624.624,0,0,0-.644.582v6.011a.644.644,0,1,0,1.287,0V125.25A.621.621,0,0,0,452.364,124.668Z" transform="translate(-440.63 -104.622)" fill="#fff"/>
  <path id="Path_2774" data-name="Path 2774" d="M449.371,121.689c-.742.126-.986.644-1,1.339-.013.965,0,1.945,0,2.917a16.047,16.047,0,0,0,.018,2.93,1.117,1.117,0,0,0,1.173.93,1.13,1.13,0,0,0,1.06-1.057,24.847,24.847,0,0,0,0-3.057c0-.965.1-1.989,0-2.949a1.15,1.15,0,0,0-1.126-1.065c-.623-.079-.61.888,0,.965.338.042.161,2.6.161,2.9V127c0,.306.129,1.448-.161,1.474s-.161-.237-.161-.483V125.8c0-.425-.248-3.088.288-3.179C450.238,122.516,449.979,121.584,449.371,121.689Z" transform="translate(-437.766 -102.109)" fill="#fff"/>
  <path id="Path_2775" data-name="Path 2775" d="M537.592,103.49v-.048a.525.525,0,0,0-.182-.367l-.906-.814-2.171-1.971L531.706,97.9l-2.28-2.076c-.368-.335-.726-.677-1.1-1l-.015-.013a.7.7,0,0,0-.911,0,.558.558,0,0,0,0,.827l.9.819q1.086.987,2.17,1.969l2.626,2.388,2.281,2.069a.039.039,0,0,0,.014.013l-1.7-.01c-1.175,0-2.352-.013-3.527-.016-1.427,0-2.859-.013-4.286-.023l-4.693-.023-4.759-.023-4.418-.023-3.749-.019-2.684-.013c-.425,0-.85-.01-1.274,0h-.056a.586.586,0,1,0,0,1.166h.877q1.191,0,2.378.013c1.175,0,2.352.013,3.527.016,1.427,0,2.859.013,4.286.023l4.693.023,4.759.023,4.418.023,3.749.019,2.462.013c-.671.607-1.345,1.208-2.016,1.815-.89.8-1.77,1.6-2.663,2.394l-2.3,2.074c-.375.336-.761.664-1.126,1.01l-.018.016a.555.555,0,0,0,0,.827.706.706,0,0,0,.911,0c.3-.275.61-.549.914-.824.73-.661,1.466-1.318,2.2-1.979q1.334-1.2,2.663-2.394l2.3-2.074c.375-.336.761-.665,1.126-1.01l.018-.016a.6.6,0,0,0,.076-.082A.5.5,0,0,0,537.592,103.49Z" transform="translate(-484.169 -79.427)" fill="#fff"/>
  <path id="Path_2776" data-name="Path 2776" d="M535.361,101.039a1.381,1.381,0,0,0-.552-.965c-.5-.483-1.031-.936-1.546-1.4L530.43,96.1,527.5,93.453c-.611-.562-1.448-1.728-2.365-1.733a1.078,1.078,0,0,0-1.039,1.448c.161.413.6.692.922.981l1.527,1.387,5.792,5.256.341-.825q-13.563-.077-27.129-.135-1.58,0-3.162-.018c-.671,0-1.546-.108-1.884.644-.832,1.841,2.433,1.5,3.247,1.5q6.772.039,13.546.069,7.694.034,15.388.077l-.341-.824q-3.027,2.735-6.061,5.451-.686.618-1.374,1.232a3.1,3.1,0,0,0-.928.986,1.064,1.064,0,0,0,.938,1.448c.957.085,1.834-1.147,2.468-1.717l2.87-2.574q1.471-1.326,2.943-2.648c.529-.483,1.068-.946,1.594-1.427a1.381,1.381,0,0,0,.549-.85c.085-.608-.845-.87-.932-.257-.05.364-.5.6-.751.827q-.573.512-1.142,1.025l-2.281,2.034-4.423,3.982a2.4,2.4,0,0,1-.459.41c-.938.436-.3-.082-.217-.161.375-.343.758-.673,1.126-1.012l2.183-1.966q2.285-2.051,4.568-4.109a.486.486,0,0,0-.341-.824c-8.122-.035-16.25-.09-24.368-.122q-3.026-.013-6.051-.031c-.037,0-.832,0-.674-.2a3.876,3.876,0,0,1,.644,0l1.532.01,3.039.016,12.3.061q6.788.031,13.578.068a.488.488,0,0,0,.341-.824l-4.265-3.871-2.068-1.876-1.1-1c-.089-.079-.562-.431-.565-.512-.013-.322.528.121.576.161,1.463,1.313,2.907,2.645,4.362,3.966l2.182,1.981.977.887c.214.195,1.255.935,1.273,1.189C534.443,101.655,535.408,101.66,535.361,101.039Z" transform="translate(-481.456 -76.976)" fill="#fff"/>
</svg>
