<svg id="Layer_1" data-name="Layer 1" xmlns="http://www.w3.org/2000/svg" viewBox="0 0 254.26 285.82"><g id="السجل"><path d="M228.78,255.46V22.25a4.44,4.44,0,0,0-4.38-4.42H213.47a4.39,4.39,0,0,0-.42,8.77h7V276.84H168.56a4.38,4.38,0,0,0,0,8.76H224.4a4.42,4.42,0,0,0,4.38-4.38Z" transform="translate(-0.01 -0.03)" style="fill:#a3cc84;stroke:#a3cc84;stroke-miterlimit:10;stroke-width:0.5px"/><path d="M165.09,207.18h.21a4.39,4.39,0,0,0,.42-8.77H56c-5,0-10-.1-15.06,0h-.21a4.39,4.39,0,0,0-.42,8.77H150C155,207.18,160.06,207.28,165.09,207.18Z" transform="translate(-0.01 -0.03)" style="fill:#a3cc84;stroke:#a3cc84;stroke-miterlimit:10;stroke-width:0.5px"/><path d="M183.89,250.63l13.27-13.39c2.16-2.18,4.38-4.3,6.49-6.54l.1-.1c.13-.14.25-.28.37-.43a4,4,0,0,0,.91-2.67V20.83a4.42,4.42,0,0,0-4.4-4.35H69.26A20.76,20.76,0,0,0,56.57,1.83c-7.28-3-16.19-1.47-22.48,3.11a30.5,30.5,0,0,0-8.59,9.53,4.53,4.53,0,0,0-.57,2H4.63A4.42,4.42,0,0,0,.26,20.83V281.2a4.44,4.44,0,0,0,4.37,4.39H147.45a3.74,3.74,0,0,0,1.15-.18,4.18,4.18,0,0,0,2-1.11l5.32-5.36,12.69-12.8C173.63,261,178.75,255.83,183.89,250.63ZM35,15.93a26.35,26.35,0,0,1,3.06-3.1l.18-.15.12-.08.74-.53c.66-.44,1.34-.85,2-1.24l.94-.47.19-.1h0a20.86,20.86,0,0,1,2.32-.74c.37-.1.74-.17,1.11-.25.18,0,1.37-.25.7-.14s-.06,0,.06,0l.64-.06h2.44a5.58,5.58,0,0,0,1,.12l.35.06c.43.08.84.19,1.27.29s.72.22,1.07.33l.27.08h0a16.82,16.82,0,0,1,2,1.09,6.25,6.25,0,0,0,.9.62l.07.06a18.35,18.35,0,0,1,1.66,1.64l.23.27h0c.33.39.22.35.08.16.16.25.39.48.53.7.31.51.54,1.09.84,1.62-.08-.18,0-.06.13.17v.1h0a1.43,1.43,0,0,1-.15-.27,1.17,1.17,0,0,0,.15.27H34.54c.06-.1.13-.18.19-.27A.79.79,0,0,0,35,15.93Zm98.17,260.9H9V25.3H61.39V62a3.19,3.19,0,0,0-.33.84,1.76,1.76,0,0,1-.1.3c-.12.21-.29.48-.33.56h0a7.49,7.49,0,0,1-.7.68l-.18.1c-.23.15-.49.29-.74.43a1.53,1.53,0,0,1-.27.11c.23-.09.68-.21,0,0h0c-.06,0-.1,0-.1.06s0,0,.08-.06c-.37.12-.74.24-1.13.34l-1,.21h-.07a1.5,1.5,0,0,0-.3,0,20.57,20.57,0,0,1-2.22.06H52.81a3.84,3.84,0,0,0-.48,0c-.23-.05-.46-.11-.68-.18a2.13,2.13,0,0,1-.43-.13,4.6,4.6,0,0,0-.63-.31l-.48-.33a1.24,1.24,0,0,0-.22-.18,6.65,6.65,0,0,1-.64-.66l-.14-.16c-.11-.19-.25-.37-.37-.56s-.27-.47-.41-.71-.17-.33-.25-.48a1.77,1.77,0,0,1-.12-.28c0-.1-.06-.17-.08-.21-.11-.31-.21-.62-.31-.93-.17-.59-.31-1.17-.43-1.76v-.35c0-.12-.06-.41-.08-.62C47,56.91,47,56,47,55.16c0-3.73.37-7.45-.06-11.17a4.7,4.7,0,0,0-1.28-3.1,4.49,4.49,0,0,0-3.1-1.28c-2.15.09-4.68,2-4.39,4.38.45,3.84,0,7.68.06,11.54a25.88,25.88,0,0,0,2.24,10.54,14.29,14.29,0,0,0,7.2,7.17,20.48,20.48,0,0,0,12.1.59,13.25,13.25,0,0,0,9.3-7.4,4.24,4.24,0,0,0,1.13-2.91V25.27h126V223.14H147.34a4.43,4.43,0,0,0-4.39,4.38v49.31Zm18.59-6.28V231.9h38.34q-5.28,5.35-10.58,10.68-7.71,7.77-15.41,15.55-6.19,6.22-12.35,12.45Z" transform="translate(-0.01 -0.03)" style="fill:#a3cc84;stroke:#a3cc84;stroke-miterlimit:10;stroke-width:0.5px"/><path d="M165.28,170.29H55.93c-5,0-10-.09-15.06,0h-.24a4.39,4.39,0,0,0-.42,8.77H150c5,0,10.05.1,15.06,0h.21a4.39,4.39,0,0,0,.42-8.77Z" transform="translate(-0.01 -0.03)" style="fill:#a3cc84;stroke:#a3cc84;stroke-miterlimit:10;stroke-width:0.5px"/><path d="M165.28,146H55.93c-5,0-10-.1-15.06,0h-.24a4.38,4.38,0,0,0,0,8.76H150c5,0,10.05.1,15.06,0h.21a4.38,4.38,0,0,0,0-8.76Z" transform="translate(-0.01 -0.03)" style="fill:#a3cc84;stroke:#a3cc84;stroke-miterlimit:10;stroke-width:0.5px"/><path d="M40.32,124.91H149.63c5,0,10.06.1,15.07,0h.21a4.39,4.39,0,0,0,0-8.77H55.63c-5,0-10-.09-15.06,0h-.22a4.39,4.39,0,0,0,0,8.77Z" transform="translate(-0.01 -0.03)" style="fill:#a3cc84;stroke:#a3cc84;stroke-miterlimit:10;stroke-width:0.5px"/><path d="M40.68,98.57H150c5,0,10.06.1,15.07,0h.21a4.39,4.39,0,0,0,.42-8.77H56c-5,0-10-.1-15.06,0h-.21a4.39,4.39,0,0,0-.42,8.77A2.94,2.94,0,0,0,40.68,98.57Z" transform="translate(-0.01 -0.03)" style="fill:#a3cc84;stroke:#a3cc84;stroke-miterlimit:10;stroke-width:0.5px"/><path d="M254,274.26v-252a4.43,4.43,0,0,0-4.37-4.42H238.68a4.39,4.39,0,0,0,0,8.77h6.55V276.84H236a4.38,4.38,0,0,0,0,8.76h13.66a4.43,4.43,0,0,0,4.39-4.38Z" transform="translate(-0.01 -0.03)" style="fill:#a3cc84;stroke:#a3cc84;stroke-miterlimit:10;stroke-width:0.5px"/><path d="M58.72,65" transform="translate(-0.01 -0.03)" style="fill:#a3cc84;stroke:#a3cc84;stroke-miterlimit:10;stroke-width:0.5px"/><path d="M58.63,13.91v0Z" transform="translate(-0.01 -0.03)" style="fill:#a3cc84;stroke:#a3cc84;stroke-miterlimit:10;stroke-width:0.5px"/><path d="M58.52,13.69h0v.08A.11.11,0,0,1,58.52,13.69Z" transform="translate(-0.01 -0.03)" style="fill:#a3cc84;stroke:#a3cc84;stroke-miterlimit:10;stroke-width:0.5px"/></g></svg>