<svg id="Layer_1" data-name="Layer 1" xmlns="http://www.w3.org/2000/svg" viewBox="0 0 109.83 111.12"><g id="Group_31173" data-name="Group 31173"><path id="Path_10014" data-name="Path 10014" d="M117.91,112.24a4.91,4.91,0,0,0-3.19,1.18c-.76.63-1.33,1.44-2,2.11a3.57,3.57,0,0,1-2.87,1,4,4,0,0,1-2.57-1.42l-.67-.73,5.71-15.93.82-2.28a.69.69,0,0,0-.48-.83l-2.08-.67V78.55a.7.7,0,0,0-.68-.68h-7.51V63.51a.69.69,0,0,0-.68-.68H73.86c-1.36,0-2.77-.09-4.14,0a.69.69,0,0,0-.67.68V77.87h-7.7a.7.7,0,0,0-.68.68V94l-.65.21-3.45,1.08a.7.7,0,0,0-.47.84l6.69,18.65.62,1.72a3.47,3.47,0,0,1-1.46-.33,9.73,9.73,0,0,1-2.17-2,5.09,5.09,0,0,0-5.94-1.5,4.07,4.07,0,0,0-1,.61v-4.76a.68.68,0,0,0-.68-.68h-10v-7.61a.67.67,0,0,0-.67-.67H33.68V41.81c0-2.49.09-5,0-7.5h2.07a.69.69,0,0,0,.68-.67v-5.7h5.48l14.71,0,17.78.07,6.25,0,1.54,2.65a.65.65,0,0,0,.29.28h.08a.76.76,0,0,0,.21,0h3.34V48.11a.68.68,0,0,0,.72.65.66.66,0,0,0,.48-.22A3.73,3.73,0,0,1,86.76,56h-.49l-.17,0a1.38,1.38,0,0,1-.4-.1l-.23-.07-.08,0a3.44,3.44,0,0,1-.68-.37l-.17-.12h0l-.06,0-.3-.27a3.85,3.85,0,0,1-.27-.3l-.06-.07-.12-.16a4.42,4.42,0,0,1-.36-.68l0-.09-.08-.22c0-.13-.07-.26-.1-.4l0-.18v-.08a3.53,3.53,0,0,1,0-.46.68.68,0,1,0-1.35,0,5.09,5.09,0,1,0,10.17,0,5,5,0,0,0-1.79-3.87,5.17,5.17,0,0,0-2.62-1.17V31.1h2.82a6.76,6.76,0,0,0,.9,0c.48-.06.62-.4.83-.77.41-.72.82-1.44,1.24-2.16,1.34,0,2.6,0,4.06,0h.27a5.09,5.09,0,0,0,4.13-2.8c.83-1.49,1.42-3.5.66-5.11a3.91,3.91,0,0,0-3.67-2.16h-5.5l-1.5-2.6a.67.67,0,0,0-.58-.34H83.67a6.46,6.46,0,0,0-.88,0c-.49.06-.63.4-.84.78L80.75,18l-4.2-.93L65.23,14.49,51.41,11.31q-6-1.39-12-2.83c-2-.49-4-1.08-6-1.56h0a.62.62,0,0,0-.63,0H19.61a.67.67,0,0,0-.67.66v6.8H16.85a.69.69,0,0,0-.68.67v3.12h-2a4.17,4.17,0,0,0-3.78,2.17,5.3,5.3,0,0,0-.07,5.57,4.22,4.22,0,0,0,3.79,2.3h2v5.48a.64.64,0,0,0,.19.45h0a.6.6,0,0,0,.46.19h2.08V92.07c0,2.49-.08,5,0,7.5H9.26a.69.69,0,0,0-.68.67v12.84a.68.68,0,0,0,1.08.54c2.06.27,2.94,2.25,4.53,3.41a4.94,4.94,0,0,0,6.12-.37c.74-.64,1.32-1.46,2.05-2.12a3.56,3.56,0,0,1,3.07-.9c2.06.35,2.95,2.59,4.61,3.61a5,5,0,0,0,6.08-.86,23.13,23.13,0,0,1,2.08-2.12,3.57,3.57,0,0,1,3.19-.54c1.92.59,2.75,2.84,4.53,3.7A5.12,5.12,0,0,0,52,116l.3-.33a.62.62,0,0,0,.57-.64A5.69,5.69,0,0,1,54.11,114a3.6,3.6,0,0,1,3.17-.13,7.25,7.25,0,0,1,2.16,1.93,6.53,6.53,0,0,0,2.41,1.82,5,5,0,0,0,2.3.27.77.77,0,0,0,.74-.14l.47-.16a6.73,6.73,0,0,0,2.44-1.89A6.37,6.37,0,0,1,70,113.82a3.56,3.56,0,0,1,3.19.24,11.1,11.1,0,0,1,2.08,2,5.41,5.41,0,0,0,2.62,1.67,5,5,0,0,0,3.5-.39,8.63,8.63,0,0,0,2.23-2,9.18,9.18,0,0,1,1.08-1.08.65.65,0,0,0,.54-.37,3,3,0,0,1,.7-.28,3.58,3.58,0,0,1,3.1.6,26.68,26.68,0,0,1,2,2.09,5.09,5.09,0,0,0,2.9,1.49,4.81,4.81,0,0,0,3.29-.7,13.3,13.3,0,0,0,2.17-2.07,4.18,4.18,0,0,1,2.48-1.5,3.57,3.57,0,0,1,2.94.93c.77.69,1.36,1.55,2.16,2.21a4.88,4.88,0,0,0,6.13.19,22.11,22.11,0,0,0,2.1-2.12,3.77,3.77,0,0,1,2.7-1.24.67.67,0,0,0,0-1.31ZM20.31,49.37,31,56.19l1.32.83v8.72L21.6,58.89l-1.29-.81Zm12,6L21.6,48.62l-1.29-.85V38.52L31,45.32l1.31.83Zm-12,4.28L31,66.46l1.31.84V76L21.6,69.22l-1.29-.83Zm12-19.42v4.29L21.6,37.75l-1.29-.83v-.54c0-.64.08-1.37.05-2h12Zm-12,37.45V70L31,76.79l1.31.83v9L21.6,79.81,20.31,79Zm56.23-51-17.78-.06-15.44-.06c-2.29,0-4.6-.1-6.9,0v-7.1H79.9l-.15.27L78,22.8a.74.74,0,0,0,0,.68c.64,1.08,1.27,2.17,1.89,3.25Zm20.88-7.26h1.45a2.92,2.92,0,0,1,.72.06,2.42,2.42,0,0,1,1.66,1.41,3.59,3.59,0,0,1-.12,2.5c-.54,1.78-1.78,3.32-3.78,3.37H94l.15-.26,1.76-3.06a.69.69,0,0,0,0-.68L94,19.48ZM83.16,16.54h7.62l.9,1.58h0l.63,1.08a1.35,1.35,0,0,0,.15.26h0l2.13,3.68c-.7,1.22-1.41,2.44-2.12,3.65h0l-.79,1.37h0l-.91,1.59H83.15c-1.3-2.24-2.52-4.38-3.79-6.62l2.11-3.66h0a1.2,1.2,0,0,0,.25-.42c.18-.31.35-.62.54-.93h0ZM37.49,9.39q5.73,1.39,11.47,2.7L62.9,15.34,75,18.1H36.44V15a.69.69,0,0,0-.68-.68H33.68V8.42l.35.09C35.18,8.82,36.33,9.11,37.49,9.39ZM31.35,8.22h1v6.1h-12V8.22ZM14.2,26.81a2.78,2.78,0,0,1-1.62-.38A4.22,4.22,0,0,1,11,23.88c-.4-1.84.85-4.33,2.89-4.41.77,0,1.53,0,2.29,0v7.35Zm3.33-9.46V15.68H35.09V32.94H17.53Zm2.78,76.27v-13L31,87.38l1.31.83v3.85c0,2.5-.09,5,0,7.5h-12Zm-.13,7.3H40.86v6.93H9.94v-6.93ZM49.24,116.4a3.6,3.6,0,0,1-3.21-.47,17.27,17.27,0,0,1-2-2.07,5.1,5.1,0,0,0-6.07-1c-1.74,1-2.62,3.33-4.72,3.69a3.58,3.58,0,0,1-3-.82c-.75-.64-1.31-1.46-2-2.12a4.92,4.92,0,0,0-6.11-.54c-1.67,1.15-2.6,3.43-4.87,3.51s-3.24-2-4.87-3.24a4.85,4.85,0,0,0-2.4-1v-3.09H51.48v5.45a5.65,5.65,0,0,1-2.26,1.76Zm58.29-37.18c.52,0,1.08.06,1.62,0v15l-6-1.93-4-1.29V83.77a.68.68,0,1,0-1.35,0h0v6.85L94,89.4V79.23h13.5ZM87.84,83.55a.7.7,0,0,0-.68.68v3l-2.22-.71a.57.57,0,0,0-.44-.06h-.07l-1.35.43V84.22a.68.68,0,1,0-1.35,0v3.06L78.24,88.4V79.21H92.72v9.73l-4.19-1.35v-3.4a.68.68,0,0,0-.69-.65ZM101,64.19V77.87H86.39V64.17H97.75Zm-27.93,0H85V77.87H70.42V64.15c.87,0,1.76,0,2.64,0ZM62,80.52v-1.3H76.87v9.62L75,89.45l-2.22.72V83.61a.68.68,0,0,0-1.35,0v7L67.22,92a.67.67,0,0,0,.09-.34v-8a.68.68,0,1,0-1.35,0v8a.62.62,0,0,0,.42.61l-4.33,1.4ZM83.09,114A13.77,13.77,0,0,1,81,116a3.57,3.57,0,0,1-3.16.37,6,6,0,0,1-2.27-1.88,6.91,6.91,0,0,0-2.41-1.91,4.91,4.91,0,0,0-3.44-.1,6,6,0,0,0-2.46,1.77,8.41,8.41,0,0,1-2.16,2,3.29,3.29,0,0,1-.39.17q-3.21-9-6.43-17.92l-.72-2,8.74-2.82,15-4.81L83.9,88v25.24a7,7,0,0,0-.81.73Zm18.61-1.68a4.93,4.93,0,0,0-2.8,1.4c-.72.67-1.28,1.5-2.05,2.11a3.53,3.53,0,0,1-3,.7,4.58,4.58,0,0,1-2.38-1.62,9.16,9.16,0,0,0-2.26-2,5,5,0,0,0-3.48-.45,3,3,0,0,0-.43.12V88l2.3.75.09,0,6.19,2,4.05,1.31a.69.69,0,0,0,.93.3l10,3.24,2.75.89L106,112.11l-.47,1.3-.38-.32a4.9,4.9,0,0,0-3.41-.81Z" transform="translate(-8.58 -6.81)"/><path id="Path_10015" data-name="Path 10015" d="M75.46,75.74v-8a.68.68,0,0,0-1.35,0h0v8a.68.68,0,1,0,1.35,0Z" transform="translate(-8.58 -6.81)"/><path id="Path_10016" data-name="Path 10016" d="M80.92,75.74v-8a.68.68,0,1,0-1.35,0h0v8a.68.68,0,1,0,1.35,0Z" transform="translate(-8.58 -6.81)"/><path id="Path_10017" data-name="Path 10017" d="M104.66,91.78v-8a.68.68,0,1,0-1.35,0v8a.68.68,0,0,0,1.35,0Z" transform="translate(-8.58 -6.81)"/><path id="Path_10018" data-name="Path 10018" d="M91,75.74v-8a.68.68,0,1,0-1.35,0h0v8a.68.68,0,1,0,1.35,0Z" transform="translate(-8.58 -6.81)"/><path id="Path_10019" data-name="Path 10019" d="M96.5,75.74v-8a.68.68,0,1,0-1.36,0h0v8a.68.68,0,1,0,1.36,0Z" transform="translate(-8.58 -6.81)"/><path id="Path_10021" data-name="Path 10021" d="M76.82,94.22a3.8,3.8,0,0,0-3,3.54v.31a3.72,3.72,0,1,0,3-3.84Zm2.8,4.94a2.41,2.41,0,1,1-.82-3.31,2.36,2.36,0,0,1,.65.57A2.41,2.41,0,0,1,79.62,99.16Z" transform="translate(-8.58 -6.81)"/><path id="Path_10021-2" data-name="Path 10021" d="M64.82,97.22a3.8,3.8,0,0,0-3,3.54v.31a3.72,3.72,0,1,0,3-3.84Zm2.8,4.94a2.41,2.41,0,1,1-.82-3.31,2.36,2.36,0,0,1,.65.57A2.41,2.41,0,0,1,67.62,102.16Z" transform="translate(-8.58 -6.81)"/><path id="Path_10022" data-name="Path 10022" d="M107.6,101.6a.43.43,0,0,0,0-.16.43.43,0,0,0,0-.16,3.83,3.83,0,1,0,0,.32Zm-2.9,2.09a2.42,2.42,0,1,1,1.4-3.12,2.34,2.34,0,0,1,.16.86,2.45,2.45,0,0,1-1.56,2.26Z" transform="translate(-8.58 -6.81)"/><path id="Path_10023" data-name="Path 10023" d="M95.93,97.76a3.88,3.88,0,1,0,0,.32.43.43,0,0,0,0-.16A.43.43,0,0,0,95.93,97.76ZM93,100.18a2.42,2.42,0,1,1,1.41-3.12,2.51,2.51,0,0,1,.15.86A2.45,2.45,0,0,1,93,100.18Z" transform="translate(-8.58 -6.81)"/></g></svg>