<svg xmlns="http://www.w3.org/2000/svg" width="26.531" height="32.255" viewBox="0 0 26.531 32.255">
  <g id="Group_30991" data-name="Group 30991" transform="translate(-44.637 -7.117)">
    <path id="Path_9818" data-name="Path 9818" d="M70.135,27.554A5.275,5.275,0,0,0,68.6,25.519a6.864,6.864,0,0,1-1.676-2.935,13.912,13.912,0,0,1-.714-4.25,15.887,15.887,0,0,0-.1-2.137,7.873,7.873,0,0,0-.914-2.549,8.469,8.469,0,0,0-2.96-3A7.251,7.251,0,0,1,60.5,9.414h0a3.23,3.23,0,0,0-3.071-1.5,4.453,4.453,0,0,0-2.279,1.516,8.348,8.348,0,0,1-1.729,1.135,8.377,8.377,0,0,0-2.945,3.143,7.694,7.694,0,0,0-.822,2.554c-.088.683-.044,1.395-.07,2.082a14.47,14.47,0,0,1-.2,2.329,13.666,13.666,0,0,1-.58,1.94,6.808,6.808,0,0,1-1.755,2.862,4.831,4.831,0,0,0-1.458,2.128,3.624,3.624,0,0,0,.431,3.134,3.755,3.755,0,0,0,3.122,1.387c4.248.067,8.5.085,12.745.124q2.43.022,4.859.044a3.54,3.54,0,0,0,3.183-1.6A3.709,3.709,0,0,0,70.135,27.554Zm-3,4.13c-1.139.058-2.3-.014-3.436-.024q-6.626-.06-13.252-.125c-.48-.005-.961,0-1.441-.018a2.8,2.8,0,0,1-2.975-2.466,3.8,3.8,0,0,1,1.438-3.142,9.008,9.008,0,0,0,2.337-4.493,16.525,16.525,0,0,0,.407-4.056,7.261,7.261,0,0,1,1.51-4.475,8.374,8.374,0,0,1,2.783-2.237c1.376-.708,2.419-2.839,4.237-1.972a3.633,3.633,0,0,1,1.271,1.106l.007.008a.347.347,0,0,0,.041.054c.873.953,2.128,1.378,3.087,2.241a7.416,7.416,0,0,1,2.37,4.272,15.045,15.045,0,0,1,.079,1.975c.026.752.061,1.508.163,2.255a12.17,12.17,0,0,0,1.481,4.2c.72,1.273,2.159,1.96,2.463,3.49A2.764,2.764,0,0,1,67.139,31.684Z" fill="none" stroke="#fff" stroke-width="1.5"/>
    <path id="Path_9819" data-name="Path 9819" d="M139.555,250.772a3.066,3.066,0,0,1-6.121-.369c.013-.392-.6-.392-.609,0a3.674,3.674,0,1,0,7.339.369C140.193,250.381,139.584,250.383,139.555,250.772Z" transform="translate(-78.534 -215.641)" fill="none" stroke="#fff" stroke-width="1.5"/>
  </g>
</svg>
