<svg id="Layer_1" data-name="Layer 1" xmlns="http://www.w3.org/2000/svg" viewBox="0 0 322.41 254.64"><defs><style>.cls-1,.cls-2{fill:#fff;}.cls-2{stroke:#000;stroke-miterlimit:10;stroke-width:0.42px;}</style></defs><g id="كيس"><path d="M283.62,99.93c.11,0,.22-.08.32-.1h0C283.39,100,283.45,100,283.62,99.93Z" transform="translate(-5.21 -7.77)"/><path d="M186.32,102.76s0,0,0,0l-.05,0,.26-.19A1.77,1.77,0,0,0,186.32,102.76Z" transform="translate(-5.21 -7.77)"/><path d="M185.25,103.77a0,0,0,0,1,0,0,.13.13,0,0,1,0,0,1.71,1.71,0,0,1-.07.18C185.09,104.19,185.18,104.17,185.25,103.77Z" transform="translate(-5.21 -7.77)"/><path d="M185.27,103.64a.06.06,0,0,1,0,0h0A.06.06,0,0,0,185.27,103.64Z" transform="translate(-5.21 -7.77)"/><path d="M296.16,91.86s0,0,0,0l0,0Z" transform="translate(-5.21 -7.77)"/><path d="M309.92,104.34a1.86,1.86,0,0,1,.05-.27v0C309.79,104.64,309.84,104.55,309.92,104.34Z" transform="translate(-5.21 -7.77)"/><path d="M295.93,93.12h0l.16-.25A2.27,2.27,0,0,0,295.93,93.12Z" transform="translate(-5.21 -7.77)"/><path d="M296.14,92.82a.26.26,0,0,0,0,.13C296.21,92.85,296.21,92.77,296.14,92.82Z" transform="translate(-5.21 -7.77)"/><path d="M194.22,101.73l.14.11-.05-.06a1.1,1.1,0,0,0-.2-.15Z" transform="translate(-5.21 -7.77)"/><path d="M296.26,92.61Z" transform="translate(-5.21 -7.77)"/><path d="M304.86,113l.19-.12h0A1.54,1.54,0,0,0,304.86,113Z" transform="translate(-5.21 -7.77)"/><path d="M296.14,92.82s.07-.11.12-.2a1.38,1.38,0,0,1-.17.25Z" transform="translate(-5.21 -7.77)"/><path d="M167.06,242.45l.21.08a.1.1,0,0,0,.07,0h0l-.46-.2A.29.29,0,0,0,167.06,242.45Z" transform="translate(-5.21 -7.77)"/><path d="M162.26,235.57c.16-.22.21-.44-.16.18l0,0A1,1,0,0,0,162.26,235.57Z" transform="translate(-5.21 -7.77)"/><path d="M327.49,234.87c-.78-7.45-3.78-14.52-7.3-21.21.48-1.41.91-2.84,1.32-4.27a130.09,130.09,0,0,0,3.35-14.95,146.65,146.65,0,0,0,2.08-22.52,130.33,130.33,0,0,0-2.45-27A115.18,115.18,0,0,0,314.64,116c-.22-.42-.43-.83-.64-1.27a16.75,16.75,0,0,0,1.45-2.29,25.51,25.51,0,0,0-.94-24.41,20.5,20.5,0,0,0-10.6-8.61,17.21,17.21,0,0,0-6.46-1c-1.12,0-2.23.2-3.37.23a5.75,5.75,0,0,1-.83,0,2.55,2.55,0,0,0-.38,0,8.74,8.74,0,0,1-1.47-.42l-.37-.13-.39-.16c-.48-.22-.95-.44-1.39-.67-1-.5-2-1-2.95-1.54l-5.75-3.1c-4-2.16-8.09-4.27-12.32-6a50.83,50.83,0,0,0-13.67-4.13,36.06,36.06,0,0,0-13,1.2,81.66,81.66,0,0,0-12.41,4.5,84.45,84.45,0,0,0-11.45,6.15A180.14,180.14,0,0,0,202,86.12c-1.88,1.52-3.77,3-5.59,4.62a28,28,0,0,0-8.31,2.5,28.19,28.19,0,0,0-8,4.7,9.56,9.56,0,0,0-2.19,10.9c1.8,4.29,5.3,7.36,9.45,9.69.21.12.41.23.62.33a107.09,107.09,0,0,1,3.53,12.63c.48,2.16.89,4.32,1.23,6.5,0,0,0,.06,0,.1l.1.8c.07.56.14,1.14.2,1.71.12,1.14.21,2.29.28,3.44a46.5,46.5,0,0,1-.07,6.78c-.05.55-.11,1.09-.18,1.63v.05c0,.24-.07.48-.12.73-.2,1-.43,2-.73,3.05-.14.49-.3,1-.48,1.45l-.26.66-.06.12A26,26,0,0,1,190,161l-3.64,5.53c-2.75,4.24-5.4,8.55-7.79,13-5.83,10.8-10,22.23-11.45,34.29a69.5,69.5,0,0,0-.48,9.56c0,.81,0,1.64.09,2.46,0,.4,0,.78.07,1.16,0,.2,0,.4,0,.58s0,.14,0,.19-.11.28-.11.31c-.1.27-.23.55-.35.82.55-1.3.07-.17-.14.28-.43.88-.91,1.76-1.41,2.61a33.56,33.56,0,0,1-1.95,3c-.18.23-.35.48-.53.71,0,0-.05.07-.09.12a.86.86,0,0,0-.07.1s0,0-.07.06,0,0-.06.09,0,0,0-.05c-.41.46-.82.91-1.26,1.34s-1,.92-1.47,1.35l-.57.45a3.4,3.4,0,0,1-.45.28c-1.66,1.08-2.73,3.36-1.43,5.12a14.67,14.67,0,0,0,5.39,4.27c5,2.46,10.8,3.07,16.35,2.64a66.91,66.91,0,0,0,14.49-2.87c2.17.3,4.33.58,6.52.84,6,.73,12,1.35,18,1.85q12.2,1,24.45,1.34a263.13,263.13,0,0,0,26.64-.56,131.87,131.87,0,0,0,25.12-4l1.57-.45a94.1,94.1,0,0,0,9.35,2.23,55.65,55.65,0,0,0,9.18,1.06,17,17,0,0,0,8.26-1.55,8.72,8.72,0,0,0,3.58-3.74A18.64,18.64,0,0,0,327.49,234.87ZM296.3,92.57Zm.11-.15Zm-93.32,2.74c3.25-2.77,6.61-5.46,10-8.14.8-.63,1.6-1.26,2.42-1.88.41-.29.81-.61,1.22-.91.16-.12.32-.25.5-.37-.78.54.16-.1.3-.21,1.67-1.18,3.36-2.33,5.1-3.41a85.24,85.24,0,0,1,10.79-5.68l2.47-1,.6-.25.07,0,1.53-.57c1.94-.69,3.91-1.33,5.89-1.82.87-.22,1.76-.42,2.65-.59.5-.09,1-.18,1.47-.24.06,0,.82-.09.52-.07a4.73,4.73,0,0,0,.48,0,25.39,25.39,0,0,1,2.62-.1c.48,0,1,0,1.44,0,.23,0,.48,0,.71.07H254l.07,0a46.25,46.25,0,0,1,5.8,1.53c.89.3,1.78.61,2.65,1a2.78,2.78,0,0,1,.44.16l-.21-.08c.19.06.39.16.59.23.58.23,1.17.48,1.75.75,3.93,1.71,7.71,3.67,11.45,5.68a116.69,116.69,0,0,0,10.94,5.67c.48.2,1,.36,1.44.53a4.27,4.27,0,0,0,.81.63c.55.32,1.09.67,1.62,1l.64.44a5.72,5.72,0,0,1,.46.37c.59.47,1.15,1,1.69,1.46.26.25.53.52.78.78l.26.29c.34.48.61,1,.95,1.47-.34-.51-.16-.48-.06-.21a1.84,1.84,0,0,1,.09.25s.05.08.09.11a.53.53,0,0,0-.09-.11,1.34,1.34,0,0,1,.09.26c0,.07,0,.14.05.19v.16a.53.53,0,0,0,0,.12h0c0,.07,0,.12,0,.17s-.11.21-.12.18L296,93l-.1.1a.74.74,0,0,0-.08.15l.06-.14c-.16.15-.32.32-.5.47l-.87.7-.19.15c-.08,0-.13.1-.16.11l-.06,0c-.74.51-1.51,1-2.31,1.46A53.42,53.42,0,0,1,287,98.51c-.8.36-1.62.71-2.44,1l-.62.25h0l-.3.1c-.37.13-.73.3-1.08.43-1.72.65-3.46,1.25-5.2,1.81a164.79,164.79,0,0,1-22.92,5.94c-2,.35-4.1.73-6.16.94.21,0,.74-.1.07,0l-.78.1-1.42.15c-1.16.11-2.31.23-3.46.31a117.86,117.86,0,0,1-12.61.35c-2.08,0-4.17-.16-6.25-.33-1-.08-1.95-.18-2.93-.28l-.57-.07h-.05l-1.83-.27a79.43,79.43,0,0,1-12.18-2.74c-1.06-.33-2.11-.68-3.16-1.06l-1.4-.52-.78-.3-.11,0a1.62,1.62,0,0,0-.17-.06c-1.62-.65-3.27-1.26-4.94-1.78h0c.68.2.37.1,0,0,.12-.2.27-.38.41-.58,0,0,0,0,0,0a6.12,6.12,0,0,0,.41-.48c.37-.42.75-.81,1.14-1.21C199.4,98.41,201.23,96.76,203.09,95.16Zm91.49-.88a1.37,1.37,0,0,1-.34.24Zm-100.27,7.48.1.1s0,0,0,0h0l-.11-.07c-.17-.1-.23-.2-.14-.15C194,101.43,193.9,101.2,194.31,101.76Zm3.05-3.55c.27,0,.32,0-.46,0a.1.1,0,0,0,.07,0Zm-2.36,5.3a.46.46,0,0,1,0,.13l0,.07v0Zm-.05.2s0,0,0,0-.07.25-.12.4A3,3,0,0,1,195,103.71Zm-9.57,2.74a3,3,0,0,1,.14.33C185.41,106.6,185.34,106.46,185.38,106.45Zm.62,1.09c-.06-.08-.3-.46-.46-.74l-.06-.14-.21-.56a4.15,4.15,0,0,0-.25-1v-.5c0-.17,0-.4.09-.5s0,0,0,0a.83.83,0,0,1,.07-.18l.05-.15c-.09.11-.16.2-.16.16s.13-.18.25-.3a1.1,1.1,0,0,1-.09.14s0,.06,0,.1a3,3,0,0,1,.2-.29l.27-.21c.17-.15.35-.29.53-.43l-.29.19.36-.23s0,0,0,0,.37-.25.17-.12l.61-.38a5,5,0,0,0,.67,3.84c1.3,1.79,3.39,2.71,5.45,3.51.76.29,1.53.54,2.31.81.35.12.71.23,1.06.37.16,0,.32.11.48.16l.07,0s0,0,0,0c2.38,1,4.8,1.85,7.25,2.61a81.52,81.52,0,0,0,12.76,2.78c18,2.54,36.68.56,54.06-4.42,7.61-2.18,15.37-4.62,22.39-8.21a40.91,40.91,0,0,0,4.74-2.83c1.77-1.25,3.69-2.57,4.77-4.44,1.87-3.25,1.08-6.59-.85-9.47a9.09,9.09,0,0,1,1.76,1s.1.13.17.2a7.79,7.79,0,0,1,.63.51c.3.27.6.53.88.81a4.32,4.32,0,0,1,.82.89,0,0,0,0,0,0,0,.74.74,0,0,0,.11.16c.18.24.34.47.5.7a10.28,10.28,0,0,1,1.38,2.43c0-.17-.28-.68,0-.08l.26.64c.18.49.36,1,.5,1.47a28,28,0,0,1,.64,2.74.46.46,0,0,0,0,.13c0,.13,0,.27,0,.4.05.48.09,1,.11,1.45,0,.86,0,1.72,0,2.59a10.43,10.43,0,0,1-.11,1.11s0,0,0,0,0,0,0,.07v0a1.32,1.32,0,0,1-.05.23c0,.15,0,.3-.07.44a17,17,0,0,1-.68,2.49c-.12.36-.26.7-.4,1.06l-.32.63c-.2.39-.43.75-.66,1.12s-.5.94-.75,1c0,0,.63-.69.13-.15a5.23,5.23,0,0,1-.45.49c-.35.36-.71.69-1.1,1-.17.15-.35.3-.55.45h0c-.37.28-.32.19-.19.11-.34.2-.93.62-1,.65-.82.48-1.69.91-2.55,1.31-.16.07-1.25.38-1.34.57h0c-.23.08-.46.16-.67.25l-2.82,1c-2,.65-4,1.26-6,1.83-4,1.13-8.12,2.09-12.24,2.89q-3.09.6-6.21,1.06l-3.12.44h-.08c-.24,0-.49.07-.74.09l-1.72.19c-4.19.45-8.38.74-12.61.84s-8.43,0-12.62-.19c-2.1-.11-4.21-.26-6.3-.46-1-.1-2-.2-3-.32-.44,0-.9-.08-1.34-.15l-.25,0-1.1-.15a150.65,150.65,0,0,1-24.54-5.48c-2-.64-4-1.3-6-2-.48-.16-.95-.35-1.42-.53l-.56-.22-.11,0c-.92-.38-1.85-.76-2.77-1.2a4.16,4.16,0,0,0-2.17-1.09l-.46-.25c-.39-.22-.78-.45-1.15-.68l-.75-.49-.25-.16c-.35-.25-.32-.23.09.07a7.18,7.18,0,0,1-1.93-1.67c-.16-.15-.3-.31-.45-.46-.48-.5.07.13.13.16A8.49,8.49,0,0,1,186,107.54ZM167,227.32s-.06.07-.09.17C167,227.41,167,227.32,167,227.32ZM317.87,242.9Zm.32-.2a.19.19,0,0,1,.09,0h0A.26.26,0,0,0,318.19,242.7Zm.23-.14h0l.27-.16Zm1.14-3.42c0,.07,0,.15,0,.22-.06.34-.14.68-.23,1s-.29.9-.45,1.33c0,0,0,0,0,.05-.11.18-.22.38-.32.56a1.43,1.43,0,0,0-.15.22l-.24.2a0,0,0,0,0,0,0c-.41.11-.82.25-1.25.33l-.21,0a1.42,1.42,0,0,0,.27,0c-.27,0-.55,0-.82.09-.64,0-1.29,0-1.93,0a38.09,38.09,0,0,1-3.87-.27l.16,0-.25,0h0l-.37,0-.73-.1c-.75-.12-1.49-.25-2.24-.39-3.51-.64-6.89-1.66-10.33-2.52-1.74-.43-3.82.53-5.5,1-1.37.36-2.76.7-4.16,1-3,.64-6.05,1.16-9.09,1.57l-1,.14-.37,0-2.47.28c-1.63.17-3.27.31-4.92.45-3.3.25-6.62.43-9.92.53-6.64.22-13.3.17-19.94,0-11.27-.37-22.53-1.21-33.75-2.44-1.88-.2-3.74-.42-5.61-.65l-1-.12-.44,0-1.81-.23c-.76-.1-1.53-.2-2.29-.32a2.44,2.44,0,0,1-.39-.06,6.4,6.4,0,0,0-3.11.3c-1.12.35-2.25.66-3.39,1-2,.5-4,.93-6,1.25l-1.23.16-.55.07c-.83.08-1.67.13-2.5.17a39.76,39.76,0,0,1-4.23-.07l-.9-.08h0l-1.71-.3a23.52,23.52,0,0,1-2.95-.83,1.74,1.74,0,0,1,.25.11,1.62,1.62,0,0,0-.33-.13c-.27-.1-.64-.27-.39-.17l-.27-.11a34.08,34.08,0,0,0,6.34-8.88,29.86,29.86,0,0,0,1.77-4c.43-1.29,0-3,0-4.29-.07-1.62-.09-3.25,0-4.88s.14-3.27.3-4.9c.07-.78.16-1.57.27-2.33,0-.27.11-1.38,0-.37a10.52,10.52,0,0,1,.2-1.21,79,79,0,0,1,2-9c.82-2.84,1.79-5.65,2.89-8.4.27-.67.54-1.33.82-2,.12-.3.27-.62.39-.92a4,4,0,0,0,.2-.46c0-.08.07-.22.1-.33.2-.5.5-1,.73-1.48q.48-1,1-2a152.34,152.34,0,0,1,7.85-13.76c1.26-2,2.53-3.95,3.83-5.91a41,41,0,0,0,3.23-5.34l.07-.17c7.14-11.26,14.52-13.89,17.38-14.92a8.5,8.5,0,0,0,.91-.35l-.39-.74c-.18.08-.46.18-.82.31-2.68.95-9.16,3.27-15.78,12.26,2.48-8.1,1.54-17,0-25.19-.62-3.4-1.4-6.81-2.36-10.18l2.31.78q6.26,2.09,12.68,3.62a161,161,0,0,0,27.21,4,159.39,159.39,0,0,0,53.49-5.7c4.9-1.4,10.25-2.93,14.67-5.54.39.8.78,1.6,1.15,2.41.09.19.18.39.27.57-.34-.85,0,.12.1.23.22.47.41,1,.61,1.41.44,1,.85,2.06,1.26,3.11a112.66,112.66,0,0,1,3.87,11.92,118.71,118.71,0,0,1,2.45,11.68c.07.45.16.9.21,1.34-.12-1.09,0,.34.09.62.14,1,.25,2,.37,3.06.2,1.86.36,3.74.48,5.61a135,135,0,0,1-.3,20.41c-.12,1.5-.28,3-.46,4.49l-.27,2.14c0,.32-.25,1.65,0,.3-.06.38-.11.78-.18,1.16-.39,2.51-.84,5-1.35,7.5-.76,3.67-1.67,7.31-2.77,10.92-.3,1-.62,2-1,3a5.41,5.41,0,0,0-.5,2c.08,1.5,1.09,2.88,1.78,4.21.51,1,1,2,1.47,3,.09.18.77,1.59.31.66.19.4.37.83.55,1.25.37.86.71,1.73,1,2.61a45.17,45.17,0,0,1,2.38,8.45c0,.05,0,.09,0,.14,0,.21.05.41.07.63.05.53.09,1.06.11,1.59C319.66,237.36,319.64,238.26,319.56,239.14Z" transform="translate(-5.21 -7.77)"/><path d="M316.63,243.11c-.91,0-.41,0,0,0Z" transform="translate(-5.21 -7.77)"/><path d="M309.76,242.9a2.06,2.06,0,0,0,.26,0l.14,0h.11C309.56,242.86,309.58,242.86,309.76,242.9Z" transform="translate(-5.21 -7.77)"/></g><path d="M166.53,142.31l-28.11-14-18.92-9.41-6.17-3.06a9.08,9.08,0,0,0-2.87-1.22c-2-.19-4.57.55-6.6.79l-16.67,2-44.66,5.34-28.74,3.43-.2,0A1.8,1.8,0,0,0,12,128v0a1.4,1.4,0,0,0,0,.29v102.4a1.83,1.83,0,0,0,.91,1.59l48.59,26.11,6.92,3.72a1.82,1.82,0,0,0,1.22.2h.2l84.52-12.05,11.78-1.68a1.43,1.43,0,0,0,1.33-1.52,2.06,2.06,0,0,0,0-.26V144A1.53,1.53,0,0,0,166.53,142.31ZM81.44,121.8l18.42-2.21,6.38-.76a18.1,18.1,0,0,0,3.62-.43l.19-.08,0,0a46.55,46.55,0,0,0,4.42,2.19l17.41,8.66,27.56,13.7-62.6,8.84-6.38.9-9.91,1.4-8.1,1.15a23.08,23.08,0,0,0-2.94.35l-.14-.08A46.63,46.63,0,0,0,64.73,153l-10.3-5.47-7.11-3.77L19.83,129.16ZM21.64,232.89l-6-3.23V131.1l43.84,23.26.43.23c2.41,1.27,5,3.09,7.56,4.15v98.77Zm59,24.24-9.45,1.35V159.25c1.6-.17,3.29-.64,4.59-.82l11.11-1.57,63.8-9L163.76,146v99.28Z" transform="translate(-5.21 -7.77)"/><path d="M61.57,165.93c0-2-1.15-2.58-2.75-3.55l-12.34-7.45L20,138.91a1.86,1.86,0,0,0-2.77,1.59v83.41a1.86,1.86,0,0,0,.91,1.59L58.8,248.34a1.7,1.7,0,0,0,1.78,0,1.66,1.66,0,0,0,1-1.59V190.92C61.57,182.6,61.78,174.25,61.57,165.93Zm-7.21,75.7-33.5-18.8V165.71C27.44,179.1,49,229.24,54.36,241.63Zm3.53-75.51V228.8l-37-84.12v-.92Z" transform="translate(-5.21 -7.77)"/><path d="M158.23,151.55,87.32,163.11l-9.92,1.62A1.85,1.85,0,0,0,76,166.51v85.22a1.88,1.88,0,0,0,2.34,1.78l70.21-10.77,10-1.53a1.46,1.46,0,0,0,1.33-1.53,2,2,0,0,0,0-.25q.27-37.69.52-75.4c0-3.57,0-7.14.07-10.7A1.87,1.87,0,0,0,158.23,151.55Zm-12,5.68L79.73,238.45V168.06ZM91.78,247.75l65-78.88q-.21,29.92-.41,59.86l-.06,9.13Z" transform="translate(-5.21 -7.77)"/><g id="صندوق"><path d="M187.88,71.88a4.61,4.61,0,0,0-.22-1.24,4,4,0,0,0-.18-.52c-2.07-5.06-4.13-10.14-6.2-15.2q-5-12.11-9.88-24.21c-.75-1.83-1.5-3.68-2.26-5.51a2.72,2.72,0,0,0-.42-.72,2.29,2.29,0,0,0-1.29-.9.61.61,0,0,1-.13,0l-.22-.05L160.51,22l-16.63-3.71-20-4.46q-8.67-1.93-17.31-3.85c-2.81-.62-5.61-1.27-8.42-1.88h0A2.22,2.22,0,0,0,97.25,8a2.62,2.62,0,0,0-1,.27,2.89,2.89,0,0,0-1.73-.14C92.24,8.54,90,9,87.74,9.43q-8.1,1.59-16.2,3.15L51.93,16.4C46.29,17.51,40.64,18.59,35,19.7c-2.74.53-5.51.93-8.21,1.6h-.12a2.15,2.15,0,0,0-1,.53,2.59,2.59,0,0,0-.75,1.09.13.13,0,0,0,0,.08c-.05.11-.09.21-.13.32q-.86,2.24-1.73,4.49C21.52,31.75,20,35.7,18.47,39.63Q15.73,46.74,13,53.84,10.57,60,8.18,66.13c-.77,2-1.56,4-2.32,6,0,0,0,0,0,.06A3.7,3.7,0,0,0,5.42,74a4.34,4.34,0,0,0,.13.9A3.11,3.11,0,0,0,6.86,77h0a2.37,2.37,0,0,0,1.42.47l7-.14,9.27-.2v48.28c0,2.3-.05,4.6,0,6.88v.11a3.86,3.86,0,0,0,.18,1.17c0,.1-.05.2-.08.32-.32,1.7.42,4,2,4.31l7,1.47,16.7,3.54,20.13,4.28q8.7,1.83,17.41,3.69c2.84.61,5.66,1.23,8.5,1.8h0a2.05,2.05,0,0,0,.88.16,2.53,2.53,0,0,0,.48-.08A1.5,1.5,0,0,0,98,153l7.24-1.71,17.36-4.12,21-5,18.09-4.29c2.2-.53,4.44-1,6.66-1.52a2.2,2.2,0,0,0,1.1.25,3,3,0,0,0,2.54-1.87,4.18,4.18,0,0,0,.64-3.28,4.83,4.83,0,0,0-.29-.79V83c0-2.32,0-4.65,0-7v-.09a4.3,4.3,0,0,0-.07-.73l4.2.08c2.81,0,5.62.18,8.43.15H185a1.42,1.42,0,0,0,.36,0,2.26,2.26,0,0,0,1.1-.45,2.55,2.55,0,0,0,.3-.26A3.92,3.92,0,0,0,187.88,71.88Zm-175-1.54c1.46-3.77,2.93-7.53,4.39-11.31Q20,51.92,22.8,44.82l4.77-12.29c.6-1.57,1.23-3.14,1.83-4.71L35,26.74l16.2-3.16,19.61-3.82L87.7,16.47c1.8-.35,3.61-.64,5.4-1l-.54,1.7Q90.28,24.37,88,31.58C86.15,37.39,84.31,43.22,82.47,49c-1.59,5-3.2,10-4.79,15.08-.51,1.63-1.08,3.26-1.6,4.91-1.65,0-3.29.06-4.93.11-5.57.12-11.14.23-16.69.36l-20.12.42-17.4.37C15.57,70.3,14.24,70.31,12.89,70.34ZM74.35,141.2l-20.13-4.27-17.41-3.7-6.5-1.38v-49c0-2,0-3.91,0-5.87l1.64,0,20.12-.42,17.39-.37c2.83-.07,5.66-.07,8.48-.19h.13a3.18,3.18,0,0,0,2.82-2.7c.62-2,1.25-3.92,1.86-5.88q2.3-7.2,4.57-14.41c1.85-5.81,3.68-11.64,5.53-17.45.49-1.54,1-3.09,1.46-4.63V145.42l-3.29-.7Q82.69,143,74.35,141.2Zm92.19-65.34V126c0,1.2,0,2.39,0,3.59l-4.69,1.12c-5.79,1.36-11.57,2.75-17.36,4.11l-21,5-18.09,4.29c-1.74.42-3.51.79-5.27,1.19V31.1l.54,1.74q2.63,8.41,5.28,16.84c1.53,4.88,3.06,9.74,4.6,14.62.74,2.36,1.47,4.74,2.23,7.1a.29.29,0,0,1,0,.09c0,.13.09.25.13.37a3.34,3.34,0,0,0,1.5,1.9,2.11,2.11,0,0,0,1.43.31c2.22.05,4.44.08,6.66.12l16.53.32,20.12.38,7.45.14C166.58,75.28,166.54,75.56,166.54,75.86Zm-5-7.93-20.12-.38-17.27-.33c-2.18,0-4.37-.14-6.56-.16-.35-1.08-.68-2.17-1-3.26q-2.19-7-4.39-14Q109.5,41.41,106.86,33c-1.53-4.88-3.06-9.74-4.6-14.62-.24-.79-.5-1.6-.74-2.39l1.86.42L120,20.1l20,4.46q8.67,1.94,17.31,3.85c2.45.55,4.91,1.12,7.37,1.65q2.82,6.92,5.64,13.86,5,12.12,9.88,24.2l.08.17L178,68.24C172.53,68.15,167,68,161.51,67.93Z" transform="translate(-5.21 -7.77)"/><path d="M97.14,153.37a2.31,2.31,0,0,1-.84-.16h0c-2.07-.42-4.17-.87-6.21-1.31l-2.28-.49L72.22,148.1l-1.83-.39-10.07-2.13-10.06-2.14L33.55,139.9,30,139.14l-3.39-.72c-1.67-.36-2.53-2.7-2.18-4.55l.06-.24v0a3.9,3.9,0,0,1-.17-1.17v-.11c0-1.52,0-3.08,0-4.58,0-.77,0-1.53,0-2.3V77.36c-3,.08-6,.14-9,.2l-7,.14a2.68,2.68,0,0,1-1.53-.49l0,0a3.32,3.32,0,0,1-1.41-2.26A4.52,4.52,0,0,1,5.21,74a3.85,3.85,0,0,1,.44-1.91.39.39,0,0,1,0-.06c.44-1.16.89-2.31,1.34-3.47.33-.83.65-1.67,1-2.5q2.4-6.14,4.78-12.29,2.76-7.11,5.51-14.22l4.58-11.8c.58-1.51,1.16-3,1.74-4.49a2,2,0,0,1,.12-.31.19.19,0,0,1,0-.09,2.76,2.76,0,0,1,.82-1.18,2.28,2.28,0,0,1,1.07-.58l.12.21,0-.21c1.87-.46,3.77-.8,5.61-1.13q1.32-.22,2.64-.48l8.64-1.68,8.29-1.61,17-3.32,2.59-.51,8.07-1.57L87.7,9.22c1.93-.39,3.87-.76,5.8-1.14l1-.18A3.07,3.07,0,0,1,96.21,8a2.88,2.88,0,0,1,1-.25,2.46,2.46,0,0,1,1,.17c1.63.35,3.3.73,5,1.11l3.42.76,16.61,3.7.7.16q10,2.21,20,4.45c2.77.63,5.54,1.24,8.31,1.86l8.32,1.86,3,.67,3.56.79.22,0,0,.23,0,.2-.1,0-.18,0-3.57-.79-3-.67-8.31-1.86-8.31-1.85q-10-2.23-20-4.46l-.7-.16L106.5,10.23l-3.42-.77c-1.66-.38-3.33-.75-5-1.11a1.9,1.9,0,0,0-.83-.15,2.3,2.3,0,0,0-1,.24l-.08,0-.09,0a2.73,2.73,0,0,0-1.61-.12l-1,.18c-1.93.37-3.87.75-5.8,1.14l-8.13,1.58-8.07,1.57-2.59.5L52,16.61l-8.29,1.61L35,19.91c-.88.17-1.77.32-2.65.48-1.83.33-3.72.66-5.55,1.11a.5.5,0,0,1-.17,0,1.91,1.91,0,0,0-.83.48,2.46,2.46,0,0,0-.71,1v.05l0,.05-.12.3-1.73,4.5L18.67,39.71q-2.76,7.09-5.52,14.21L8.38,66.21l-1,2.5C7,69.87,6.5,71,6.06,72.2l0,.07A3.43,3.43,0,0,0,5.64,74a3.57,3.57,0,0,0,.12.86,2.93,2.93,0,0,0,1.16,2H7l.09.08a2.2,2.2,0,0,0,1.26.4l7-.14,9.26-.21h.22v48.5c0,.77,0,1.54,0,2.3,0,1.5,0,3.06,0,4.58v.11a3.77,3.77,0,0,0,.17,1.1l0,.06,0,.16a1.08,1.08,0,0,0-.05.21c-.31,1.63.43,3.75,1.85,4.06l3.39.72,3.56.75L50.35,143l10.06,2.13,10.07,2.14,1.83.39q7.78,1.63,15.58,3.31l2.28.49c2,.43,4.14.89,6.21,1.31a2.14,2.14,0,0,0,.84.15,2.41,2.41,0,0,0,.43-.07,1.84,1.84,0,0,0,.29-.06c2.43-.58,4.84-1.16,7.25-1.71l8.53-2,8.83-2.09,39.08-9.28,3.09-.7c1.17-.26,2.38-.53,3.57-.82l.07,0,.08,0a2,2,0,0,0,1,.23,2.84,2.84,0,0,0,2.36-1.74,4,4,0,0,0,.63-3.14,4.46,4.46,0,0,0-.28-.75l0-.1V83c0-.77,0-1.55,0-2.32,0-1.52,0-3.1,0-4.65v-.1a4.41,4.41,0,0,0-.06-.7l0-.25h.26l2.13,0,2.06,0c1,0,2,0,3,.07,1.79.05,3.64.1,5.45.08H185a1.51,1.51,0,0,0,.31,0,2.17,2.17,0,0,0,1-.42,2,2,0,0,0,.27-.24,3.64,3.64,0,0,0,1-2.64h0a4.3,4.3,0,0,0-.2-1.19c-.06-.17-.1-.33-.17-.49L181.09,55q-2.46-6-4.91-12t-5-12.17c-.39-.93-.77-1.86-1.15-2.79L169,25.28a2.57,2.57,0,0,0-.4-.67,2,2,0,0,0-1.17-.82l0-.22,0-.21.11,0a2.43,2.43,0,0,1,1.38,1,3,3,0,0,1,.45.76l1.11,2.72c.38.93.76,1.86,1.15,2.79q2.49,6.09,5,12.17t4.91,12l6.19,15.21a3.35,3.35,0,0,1,.19.53,4.66,4.66,0,0,1,.23,1.29h0a4,4,0,0,1-1.18,2.95,2.21,2.21,0,0,1-.32.29,2.42,2.42,0,0,1-1.2.49,1.67,1.67,0,0,1-.39,0h-.11c-1.83,0-3.68,0-5.47-.08-1,0-2-.06-3-.07l-2.06,0-1.88,0a4.49,4.49,0,0,1,0,.51V76c0,1.56,0,3.14,0,4.66,0,.78,0,1.55,0,2.32v47.67a5.32,5.32,0,0,1,.29.79,4.38,4.38,0,0,1-.68,3.45,3.21,3.21,0,0,1-2.7,2,2.43,2.43,0,0,1-1.14-.24c-1.17.29-2.35.55-3.5.8s-2.06.46-3.08.71l-39.08,9.27-8.83,2.09-8.53,2c-2.41.56-4.83,1.13-7.24,1.71a2.84,2.84,0,0,1-.31.06,2,2,0,0,1-.49.08Zm-2.59-7.69L91,144.93l-14.46-3.05-2.23-.47L64,139.22l-9.85-2.09-2.23-.47q-7.59-1.6-15.18-3.23l-6.49-1.38-.17,0V82.83c0-.73,0-1.46,0-2.2,0-1.2,0-2.44,0-3.67v-.21h.21l.84,0H32l37.52-.79c.94,0,1.89,0,2.84-.05,1.85,0,3.76-.06,5.63-.14h.14a3,3,0,0,0,2.62-2.53c.3-1,.61-1.94.91-2.9s.64-2,.95-3c1.53-4.8,3.06-9.62,4.57-14.42l2.76-8.72q1.39-4.37,2.77-8.72l1.88-5.93ZM74.39,141l2.23.47c4.82,1,9.63,2,14.46,3.06l3,.64V32.25l-1.05,3.33L90.31,44.3Q88.93,48.67,87.54,53c-1.51,4.8-3,9.62-4.56,14.42-.32,1-.64,2-1,3s-.61,1.91-.91,2.87a3.38,3.38,0,0,1-3,2.85H78c-1.87.08-3.78.11-5.64.14l-2.83,0L32,77.14l-.81,0h-.62c0,1.16,0,2.33,0,3.47,0,.73,0,1.46,0,2.19v48.84L36.85,133,52,136.25l2.23.47,9.85,2.09L74.39,141Zm25.51,4.59V29.71l.46,1.48c.16.53.33,1.05.49,1.59q1.13,3.6,2.27,7.22,1.5,4.8,3,9.62c1.53,4.88,3.06,9.74,4.6,14.62.27.86.54,1.74.82,2.61.46,1.49.93,3,1.41,4.48a.3.3,0,0,1,0,.12l.06.16.06.19a3.2,3.2,0,0,0,1.4,1.77,1.88,1.88,0,0,0,1.3.29l3.36.06,3.33.06c5.52.11,11,.22,16.54.31l9.89.2,10.22.19,7.69.15,0,.38c0,.21-.05.42-.05.65V126c0,1.2,0,2.39,0,3.59v.17l-4.85,1.15L153.19,133l-8.68,2.06-39.08,9.27c-1.06.26-2.13.5-3.2.73l-2.08.47Zm.42-113.09V145.05l1.82-.41c1.07-.24,2.13-.47,3.19-.73l39.08-9.27,8.68-2.06,8.68-2.06,4.53-1.08q0-1.71,0-3.42V75.86a5.87,5.87,0,0,1,0-.62l-7.22-.13-10.23-.2L139,74.72l-16.54-.31-3.33-.07c-1.11,0-2.22,0-3.33-.06a2.24,2.24,0,0,1-1.53-.34,3.51,3.51,0,0,1-1.59-2l-.06-.18a1.18,1.18,0,0,1-.07-.2v-.06c-.49-1.52-1-3-1.43-4.52-.27-.87-.54-1.74-.82-2.61-1.54-4.88-3.06-9.74-4.59-14.62q-1.5-4.82-3-9.61-1.12-3.62-2.27-7.23ZM12.58,70.56,17.08,59q2.76-7.11,5.52-14.22l4.77-12.29c.3-.78.61-1.57.92-2.35s.61-1.57.92-2.35l0-.11.11,0,5.56-1.08L43,25l8.13-1.59,19.61-3.82,8.49-1.65,8.44-1.64L90,15.83c1-.18,2-.36,3.06-.57l.35-.07-.65,2c-1.52,4.8-3.05,9.62-4.56,14.42q-1.36,4.29-2.72,8.58c-.94,3-1.87,5.91-2.81,8.86-.79,2.51-1.59,5-2.38,7.51s-1.61,5-2.41,7.58c-.27.88-.57,1.76-.86,2.64s-.5,1.51-.74,2.27l0,.14h-.31l-4.76.1-8.28.18-8.42.18L17,70.49c-1.37,0-2.71,0-4,.06ZM29.56,28c-.29.75-.58,1.49-.88,2.24l-.92,2.36Q25.38,38.73,23,44.89,20.22,52,17.48,59.11l-4.28,11,3.74-.05,37.51-.79c2.81-.07,5.61-.13,8.42-.18l8.28-.18c1.58,0,3.17-.08,4.76-.11h0c.23-.71.46-1.41.7-2.12.29-.88.58-1.76.86-2.64l2.4-7.58q1.2-3.75,2.38-7.51,1.41-4.43,2.81-8.86t2.72-8.58L92.36,17.1l.43-1.35-2.71.5-2.34.42L79.3,18.32q-4.24.81-8.49,1.65L51.2,23.79l-8.13,1.58L35,26.94C33.18,27.31,31.37,27.66,29.56,28Zm151.06,40.5L178,68.46l-16.52-.31L151.27,68l-9.88-.19-17.27-.33-2.44-.06c-1.35,0-2.75-.08-4.13-.09h-.15l-.05-.14-.51-1.63-.51-1.63-4.39-14L109.77,43c-1-3.31-2.08-6.61-3.12-9.93q-2.28-7.3-4.59-14.61l-.37-1.19L101.32,16l-.11-.35,2.22.5L111.74,18c2.77.62,5.54,1.23,8.31,1.86q10,2.24,20,4.45l17.31,3.86,2.89.65c1.49.33,3,.67,4.47,1l.11,0,0,.1q2.83,6.92,5.65,13.86l3.21,7.88q3.33,8.16,6.67,16.32l0,.08,0,.09Zm-62.91-1.66c1.33,0,2.68.05,4,.09l2.43.07,17.27.32,9.88.2,10.23.19h0q8.26.16,16.52.31l1.94,0q-3.31-8.08-6.61-16.19L170.15,44c-1.85-4.58-3.73-9.18-5.6-13.76-1.45-.31-2.91-.64-4.36-1l-2.89-.65q-8.66-1.9-17.31-3.85l-20-4.46-8.31-1.86-8.32-1.85-1.5-.34.27.86.36,1.18c1.54,4.88,3.07,9.74,4.6,14.62q1.55,5,3.11,9.92,1.1,3.45,2.17,6.92l4.39,14,.51,1.63C117.4,65.86,117.55,66.36,117.71,66.85Z" transform="translate(-5.21 -7.77)"/></g><path class="cls-1" d="M94.33,30.88V145.42c-3.74,0-64-13.57-64-13.57V77.08L78,76.22A3.11,3.11,0,0,0,81,74Z" transform="translate(-5.21 -7.77)"/><path d="M94.55,145.63h-.22c-3.72,0-61.6-13-64.06-13.58l-.17,0V76.88L78,76a2.89,2.89,0,0,0,2.72-2L94.55,29.49Zm-64-13.95c3.45.77,58.44,13.13,63.6,13.52V32.28l-13,41.81A3.32,3.32,0,0,1,78,76.44l-47.52.85Z" transform="translate(-5.21 -7.77)"/><path class="cls-2" d="M100.11,31.1" transform="translate(-5.21 -7.77)"/><path class="cls-1" d="M100.11,31.1,113,72.29a2.35,2.35,0,0,0,2.18,1.64L166.6,75l-.52,54.52s-62.66,15.71-66.4,15.71l.43-114.16" transform="translate(-5.21 -7.77)"/><path d="M99.68,145.47h-.22v-.21L99.9,29.73l13.27,42.49a2.11,2.11,0,0,0,2,1.49l51.67,1.12V75l-.53,54.68-.16,0C163.57,130.4,103.41,145.47,99.68,145.47Zm.63-113L99.89,145c5.24-.46,62.52-14.79,66-15.65l.52-54.15-51.25-1.1a2.56,2.56,0,0,1-2.38-1.79Z" transform="translate(-5.21 -7.77)"/></svg>