<svg id="Layer_1" data-name="Layer 1" xmlns="http://www.w3.org/2000/svg" viewBox="0 0 84.76 92.49"><g id="Group_31191" data-name="Group 31191"><g id="Path_10291" data-name="Path 10291"><path d="M7,26.86c.17,1.4.26,6.3.29,12.86s0,14.79,0,22.84-.11,15.93-.16,21.8S7,94.07,7,94.07l66.85-.38V8.34L24.35,8.05Z" transform="translate(-3.84 -4.82)" style="fill:none"/><path d="M73.86,96.9,7,97.31a3.36,3.36,0,0,1-.63-.06,3.09,3.09,0,0,1-.59-.18,2.94,2.94,0,0,1-.55-.3,2.73,2.73,0,0,1-.49-.41,3,3,0,0,1-.39-.49,2.55,2.55,0,0,1-.29-.57,3.07,3.07,0,0,1-.18-.61,2.72,2.72,0,0,1-.05-.64C3.9,87.88,4,80.87,4,73.75s.1-14.32.11-20.88,0-12.47,0-17S4,28.23,3.86,27.25a3.47,3.47,0,0,1,0-.72A3.38,3.38,0,0,1,4,25.84a3.07,3.07,0,0,1,.29-.64,2.79,2.79,0,0,1,.42-.57L22,5.83a3.36,3.36,0,0,1,.49-.44,3.43,3.43,0,0,1,.56-.31,3.35,3.35,0,0,1,.61-.2,3.49,3.49,0,0,1,.65-.06l49.51.31a2.89,2.89,0,0,1,1.21.26,3,3,0,0,1,1,.69,3.17,3.17,0,0,1,.67,1A3.28,3.28,0,0,1,77,8.35V93.67a3.28,3.28,0,0,1-.25,1.25,3.27,3.27,0,0,1-1.66,1.72A3.23,3.23,0,0,1,73.86,96.9ZM10.22,90.82l60.52-.33v-79l-45-.24L10.27,28.05c.11,2.4.17,6.72.2,12.06s0,11.69,0,18.14-.07,13-.12,18.73S10.25,87.63,10.22,90.82Z" transform="translate(-3.84 -4.82)" style="fill:#a3cc84"/></g><g id="Path_10292" data-name="Path 10292"><path d="M24.69,8.05V27.71L7,27.67" transform="translate(-3.84 -4.82)" style="fill:none"/><path d="M24.69,31,7,30.9a3.2,3.2,0,0,1-1.24-.26,3.06,3.06,0,0,1-1-.7,3.33,3.33,0,0,1-.69-1,3.43,3.43,0,0,1,0-2.52,3.33,3.33,0,0,1,.69-1,3,3,0,0,1,1-.69A3.19,3.19,0,0,1,7,24.42l14.52,0V8a3.32,3.32,0,0,1,.92-2.28,3.16,3.16,0,0,1,1-.68,3.11,3.11,0,0,1,1.23-.25,3.19,3.19,0,0,1,1.23.26,3.47,3.47,0,0,1,1,.7,3.32,3.32,0,0,1,.92,2.29V27.72A3.26,3.26,0,0,1,27.59,29a3.39,3.39,0,0,1-.67,1,3.23,3.23,0,0,1-1,.68A3,3,0,0,1,24.69,31Z" transform="translate(-3.84 -4.82)" style="fill:#a3cc84"/></g></g><path id="Rectangle_9680" data-name="Rectangle 9680" d="M25.82,36.47l58.64.12a4.26,4.26,0,0,1,1.61.34,4.14,4.14,0,0,1,1.31.92,4.22,4.22,0,0,1,.89,1.36,4.31,4.31,0,0,1,.33,1.66V66.94a4.36,4.36,0,0,1-1.22,3,4.14,4.14,0,0,1-1.31.92,4.26,4.26,0,0,1-1.61.34l-58.64.16a4.18,4.18,0,0,1-3-1.26,4.21,4.21,0,0,1-.91-1.37,4.36,4.36,0,0,1-.33-1.67V40.78a4.65,4.65,0,0,1,.33-1.68,4.33,4.33,0,0,1,.91-1.36,4.11,4.11,0,0,1,1.34-.92A4,4,0,0,1,25.82,36.47Z" transform="translate(-3.84 -4.82)" style="fill:#a3cc84"/><path id="PDF" d="M42.05,56.24V60.9h-3V47.35h4.66q5,0,5,4.31A4.2,4.2,0,0,1,47.29,55a5.6,5.6,0,0,1-3.83,1.27Zm0-6.54v4.22h1.17q2.37,0,2.37-2.13c0-1.39-.79-2.09-2.37-2.09Zm8.6,11.19V47.37h4.66q7,0,7,6.58a6.75,6.75,0,0,1-1.91,5,6.91,6.91,0,0,1-5.09,1.89Zm3-11v8.57h1.47a3.89,3.89,0,0,0,3-1.19A4.6,4.6,0,0,0,59.2,54a4.12,4.12,0,0,0-1.09-3,4.07,4.07,0,0,0-3.06-1.11Zm18.47,0H67.45v3.31H71.7v2.46H67.45v5.26h-3V47.37h7.58Z" transform="translate(-3.84 -4.82)" style="fill:#fff"/><g id="Path_10293" data-name="Path 10293"><path d="M16.06,82.24v5.38" transform="translate(-3.84 -4.82)" style="fill:none"/><path d="M16.06,89.77a1.92,1.92,0,0,1-.83-.16,2.06,2.06,0,0,1-.67-.46,2.24,2.24,0,0,1-.45-.68,2.13,2.13,0,0,1-.16-.84V82.25a2.13,2.13,0,0,1,.16-.84,2.29,2.29,0,0,1,.45-.69,2.06,2.06,0,0,1,.67-.46,2,2,0,0,1,1.65,0,2.06,2.06,0,0,1,.67.46,2.19,2.19,0,0,1,.62,1.52v5.38a2.14,2.14,0,0,1-.17.84,2.29,2.29,0,0,1-.45.69,2.22,2.22,0,0,1-.67.46A2.08,2.08,0,0,1,16.06,89.77Z" transform="translate(-3.84 -4.82)" style="fill:#a3cc84"/></g><g id="Path_10293-2" data-name="Path 10293-2"><path d="M23.18,82.21v5.37" transform="translate(-3.84 -4.82)" style="fill:none"/><path d="M23.18,89.74a2,2,0,0,1-.82-.17,1.93,1.93,0,0,1-.67-.45,2.31,2.31,0,0,1-.46-.69,2.27,2.27,0,0,1-.16-.83V82.22a2.12,2.12,0,0,1,.62-1.53,2.1,2.1,0,0,1,.67-.46,2,2,0,0,1,.82-.17,2.26,2.26,0,0,1,.82.16,2.18,2.18,0,0,1,.66.46,2.31,2.31,0,0,1,.46.69,2.27,2.27,0,0,1,.16.83v5.38a2.27,2.27,0,0,1-.16.83,2.19,2.19,0,0,1-.46.69,2,2,0,0,1-.66.47A2.08,2.08,0,0,1,23.18,89.74Z" transform="translate(-3.84 -4.82)" style="fill:#a3cc84"/></g><g id="Path_10293-3" data-name="Path 10293-3"><path d="M30.28,82.18v5.37" transform="translate(-3.84 -4.82)" style="fill:none"/><path d="M30.28,89.7a2,2,0,0,1-.82-.16,2.13,2.13,0,0,1-1.12-1.14,2.32,2.32,0,0,1-.16-.84V82.19a2.32,2.32,0,0,1,.16-.84,2.12,2.12,0,0,1,.45-.68,2.08,2.08,0,0,1,.67-.47,2.11,2.11,0,0,1,2.31.45,2.17,2.17,0,0,1,.61,1.52v5.37a2.32,2.32,0,0,1-.16.84,2.12,2.12,0,0,1-.45.68,2.08,2.08,0,0,1-.67.47A2,2,0,0,1,30.28,89.7Z" transform="translate(-3.84 -4.82)" style="fill:#a3cc84"/></g><g id="Path_10293-4" data-name="Path 10293-4"><path d="M37.37,82.15v5.36" transform="translate(-3.84 -4.82)" style="fill:none"/><path d="M37.37,89.67a2,2,0,0,1-.81-.17,2.13,2.13,0,0,1-1.12-1.14,2.09,2.09,0,0,1-.17-.83V82.16a2.14,2.14,0,0,1,.17-.84,2.07,2.07,0,0,1,.45-.68A2,2,0,0,1,37.37,80a2.09,2.09,0,0,1,1.49.63,2,2,0,0,1,.44.68,2.09,2.09,0,0,1,.17.83v5.37A2.29,2.29,0,0,1,38.86,89a2.16,2.16,0,0,1-1.49.64Z" transform="translate(-3.84 -4.82)" style="fill:#a3cc84"/></g><g id="Path_10293-5" data-name="Path 10293-5"><path d="M44.45,82.11v5.37" transform="translate(-3.84 -4.82)" style="fill:none"/><path d="M44.45,89.63a2,2,0,0,1-.82-.17A2,2,0,0,1,43,89a2.18,2.18,0,0,1-.45-.68,2.14,2.14,0,0,1-.17-.84V82.13a2.14,2.14,0,0,1,.17-.84,2.07,2.07,0,0,1,.45-.68,2,2,0,0,1,.66-.46,2,2,0,0,1,.82-.18,2,2,0,0,1,.81.17,2.06,2.06,0,0,1,.67.46,2.12,2.12,0,0,1,.45.68,2.27,2.27,0,0,1,.16.83v5.36a2.32,2.32,0,0,1-.16.84,2.24,2.24,0,0,1-.45.68,2.08,2.08,0,0,1-.67.47A2,2,0,0,1,44.45,89.63Z" transform="translate(-3.84 -4.82)" style="fill:#a3cc84"/></g><g id="Path_10293-6" data-name="Path 10293-6"><path d="M51.52,82.08v5.37" transform="translate(-3.84 -4.82)" style="fill:none"/><path d="M51.51,89.59a2.21,2.21,0,0,1-.81-.16A2.18,2.18,0,0,1,50,89a2,2,0,0,1-.45-.68,2.12,2.12,0,0,1-.17-.83V82.1a2.14,2.14,0,0,1,.17-.84,2.18,2.18,0,0,1,.45-.68A2,2,0,0,1,51.51,80a1.88,1.88,0,0,1,.82.16,2,2,0,0,1,.66.46,2.12,2.12,0,0,1,.45.68,2.08,2.08,0,0,1,.16.83v5.36a2.12,2.12,0,0,1-.16.83A2.29,2.29,0,0,1,53,89a2.18,2.18,0,0,1-.66.46A2,2,0,0,1,51.51,89.59Z" transform="translate(-3.84 -4.82)" style="fill:#a3cc84"/></g><g id="Path_10293-7" data-name="Path 10293-7"><path d="M58.57,82.06v5.35" transform="translate(-3.84 -4.82)" style="fill:none"/><path d="M58.57,89.55a1.88,1.88,0,0,1-.82-.16,2,2,0,0,1-.66-.46,2.12,2.12,0,0,1-.45-.68,2.23,2.23,0,0,1-.16-.83V82.07a2.23,2.23,0,0,1,.16-.83,2.29,2.29,0,0,1,.45-.69,2.18,2.18,0,0,1,.66-.46,2,2,0,0,1,.82-.17,2.21,2.21,0,0,1,.81.16,2.18,2.18,0,0,1,.66.46,2.12,2.12,0,0,1,.45.68,2.31,2.31,0,0,1,.16.83V87.4a2.32,2.32,0,0,1-.16.84,2.37,2.37,0,0,1-.45.68,2.18,2.18,0,0,1-.66.46A2,2,0,0,1,58.57,89.55Z" transform="translate(-3.84 -4.82)" style="fill:#a3cc84"/></g><g id="Path_10293-8" data-name="Path 10293-8"><path d="M65.6,82v5.35" transform="translate(-3.84 -4.82)" style="fill:none"/><path d="M65.6,89.52a2.21,2.21,0,0,1-.81-.16,2.18,2.18,0,0,1-.66-.46,2.12,2.12,0,0,1-.45-.68,2.31,2.31,0,0,1-.16-.83V82a2.27,2.27,0,0,1,.16-.83,2.12,2.12,0,0,1,.45-.68,2,2,0,0,1,1.47-.64,2,2,0,0,1,.81.17,2,2,0,0,1,.67.45,2.34,2.34,0,0,1,.44.68,2.14,2.14,0,0,1,.17.84v5.34a2.12,2.12,0,0,1-.17.83,2.13,2.13,0,0,1-1.11,1.15A2,2,0,0,1,65.6,89.52Z" transform="translate(-3.84 -4.82)" style="fill:#a3cc84"/></g></svg>