<svg id="Layer_1" data-name="Layer 1" xmlns="http://www.w3.org/2000/svg" viewBox="0 0 85.24 75.33"><g id="Group_31221" data-name="Group 31221"><g id="Rectangle_9677" data-name="Rectangle 9677"><rect width="73.35" height="65.42" rx="3.96" style="fill:none"/><path d="M73,69.87H7.58a4,4,0,0,1-4-4V8.42a4,4,0,0,1,4-4H73a4,4,0,0,1,4,4V65.91A4,4,0,0,1,73,69.87Zm-63.43-6H71V10.4H9.56Z" transform="translate(-3.61 -4.46)" style="fill:#a3cc84"/></g><g id="Rectangle_9678" data-name="Rectangle 9678"><rect x="11.89" y="11.89" width="73.35" height="63.43" rx="3.96" style="fill:#a3cc84"/><path d="M84.89,79.78H19.47a4,4,0,0,1-4-4V20.31a4,4,0,0,1,4-4H84.89a4,4,0,0,1,4,4V75.82A4,4,0,0,1,84.89,79.78ZM21.45,73.84H82.9V22.3H21.45Z" transform="translate(-3.61 -4.46)" style="fill:#a3cc84"/></g><g id="Ellipse_117" data-name="Ellipse 117"><circle cx="31.72" cy="31.72" r="5.95" style="fill:#fff"/></g><g id="Path_10290" data-name="Path 10290"><path d="M30.63,66.49H81.81V34.4L68.31,59l-13-14.09L45.07,60.64l-9-8.7Z" transform="translate(-3.61 -4.46)" style="fill:#fff"/></g></g></svg>