<svg xmlns="http://www.w3.org/2000/svg" width="37.261" height="43.75" viewBox="0 0 37.261 43.75">
  <path id="Path_2820" data-name="Path 2820" d="M457.434,1057.787a34.862,34.862,0,0,1-7.005,4.692h.483a30.907,30.907,0,0,1-10.8-8.828,32.99,32.99,0,0,1-5.548-13.588,63.386,63.386,0,0,1-.951-9.424l-.354.467a7.642,7.642,0,0,0,4.952-3.128c1.226-1.862,1.271-3.871,1.352-6.013l-.238.417a7.379,7.379,0,0,1,2.413-.454q1.4-.15,2.8-.241c1.985-.132,3.974-.185,5.964-.18,1.931,0,3.861.066,5.792.161.93.048,1.86.1,2.788.177a7.86,7.86,0,0,1,2.883.483l-.24-.417a10.33,10.33,0,0,0,1.448,6.127,7.766,7.766,0,0,0,4.911,3.057l-.354-.465a51.689,51.689,0,0,1-2.586,15.576,28.4,28.4,0,0,1-7.723,11.584c-.463.415.222,1.1.682.682a29.337,29.337,0,0,0,7.884-11.745,52.015,52.015,0,0,0,2.711-16.089.483.483,0,0,0-.354-.465,6.778,6.778,0,0,1-4.479-2.838,9.753,9.753,0,0,1-1.168-5.419.483.483,0,0,0-.24-.417,6.687,6.687,0,0,0-2.29-.5c-1.078-.134-2.162-.193-3.245-.254-2.138-.121-4.28-.195-6.421-.2s-4.293.056-6.436.212c-1.017.074-2.032.161-3.043.288a6.8,6.8,0,0,0-2.19.507.483.483,0,0,0-.24.417c-.071,1.884-.071,3.631-1.081,5.31a6.59,6.59,0,0,1-4.515,2.9.483.483,0,0,0-.354.465c.238,6.676,1.171,13.467,4.195,19.5a29.857,29.857,0,0,0,12.55,12.614c.644.357,1.083.777,1.77.423.848-.431,1.677-.912,2.486-1.413a32.842,32.842,0,0,0,4.46-3.3C458.585,1058.064,457.9,1057.383,457.434,1057.787Z" transform="translate(-432.048 -1020.047)" fill="#fff" stroke="#fff" stroke-width="1"/>
</svg>
