<svg xmlns="http://www.w3.org/2000/svg" width="34.831" height="39.362" viewBox="0 0 34.831 39.362">
  <g id="Group_30737" data-name="Group 30737" transform="translate(-2411.383 987.164)">
    <path id="Path_2804" data-name="Path 2804" d="M86.772,348.88a10.535,10.535,0,1,0,9.976-10.512,10.576,10.576,0,0,0-9.142,6.494,10.748,10.748,0,0,0-.763,2.909c-.075.639-.292,1.823.659,1.884.985.062.833-1.076.9-1.712a9.038,9.038,0,1,1,1.491,5.924,9.185,9.185,0,0,1-1.265-2.826,8.736,8.736,0,0,1-.253-1.514c-.029-.375.049-.844-.216-1.153a.79.79,0,0,0-1.379.4c-.068.5.693.713.761.209a4.818,4.818,0,0,0,.116,1.192,9.711,9.711,0,0,0,.331,1.5,9.985,9.985,0,0,0,1.129,2.445,9.491,9.491,0,1,0-1.532-5.9c-.013.158-.024.316-.026.476a7.3,7.3,0,0,1,.047-.739,9.82,9.82,0,0,1,.282-1.514,10.068,10.068,0,0,1,3.081-4.945A9.733,9.733,0,1,1,88.025,351.8a10.194,10.194,0,0,1-.473-2.924A.39.39,0,0,0,86.772,348.88Z" transform="translate(2331.381 -1325.52)" fill="#fff"/>
    <path id="Path_2806" data-name="Path 2806" d="M70.231,516.648a17.416,17.416,0,0,0-30.46-11.543,17.685,17.685,0,0,0-4.36,10.882c-.025.585-.069,1.385.718,1.435.723.047.836-.593.854-1.154a16.042,16.042,0,0,1,1.078-5.3,15.875,15.875,0,0,1,17.552-9.88,16.09,16.09,0,0,1,9.462,5.533,15.655,15.655,0,0,1,2.943,5.631,16.093,16.093,0,0,1,.57,3.089c.05.6-.175,1.676.494,2a.79.79,0,0,0,1.132-.589c.07-.5-.692-.713-.763-.211a9.434,9.434,0,0,0-.245-2.6,16.616,16.616,0,0,0-28.981-8.12,16.976,16.976,0,0,0-3.869,8.548q-.081.567-.132,1.138c-.014.188-.025.378-.033.568,0,.079-.02.588-.008.241a17.652,17.652,0,0,1,.329-2.942,16.615,16.615,0,0,1,32.715.732,17.083,17.083,0,0,1,.208,2.54A.4.4,0,0,0,70.231,516.648Z" transform="translate(2375.982 -1465.227)" fill="#fff"/>
  </g>
</svg>
