<svg xmlns="http://www.w3.org/2000/svg" width="249.499" height="249.301" viewBox="0 0 249.499 249.301">
  <defs>
    <style>
      .cls-1 {
        fill: #fff;
      }
    </style>
  </defs>
  <g id="settings" transform="translate(-0.009 -0.009)">
    <path id="Path_9842" data-name="Path 9842" class="cls-1" d="M165.68,148a37.57,37.57,0,0,0-36.11-60.62c-17.82,3.19-30.31,19.15-30.66,36.93A37.58,37.58,0,0,0,165.68,148Zm-35.18,7.35a31.968,31.968,0,0,1-25.59-31C105.17,111.1,113.3,99,126,94.55a31.61,31.61,0,1,1,4.5,60.84Z" transform="translate(-23.39 -9.45)"/>
    <path id="Path_9843" data-name="Path 9843" class="cls-1" d="M271.75,192.53a1.49,1.49,0,0,0-.23-.57,1.45,1.45,0,0,0-.36-.49c-2.38-3.2-5.53-4.05-9.51-4.05-.62,0-1.5-.07-2.43-.09a39.05,39.05,0,0,0-5.94-14.24c.55-.58,1.05-1.17,1.49-1.61,3-3,4.88-5.71,4.38-9.94a1.59,1.59,0,0,0-.09-.66,1.44,1.44,0,0,0-.24-.59c-2.65-6.29-10.26-11.76-16.66-7.19a31.061,31.061,0,0,0-4.79,4.23,39.29,39.29,0,0,0-13.55-5.68,36.363,36.363,0,0,0-.35-5.36,2.25,2.25,0,0,0-.05-.22,1,1,0,0,0,0-.17,10.84,10.84,0,0,0-1.24-3.75,2.761,2.761,0,0,0,.51,0h13.39a2.811,2.811,0,0,0,.59-.06,15.41,15.41,0,0,0,9.59-4.2,13.21,13.21,0,0,0,2.56-3c2.26-3.66,2.19-7.53,2.19-11.65,0-3.87.12-7.57-1.87-11.07a14.64,14.64,0,0,0-11.9-7.25,2.82,2.82,0,0,0-.6-.07H225.05a72.68,72.68,0,0,0-12.9-30.54L220.52,66c3.43-3.82,5.08-8.77,3.74-13.84-1-4-3.8-6.55-6.58-9.33s-5.37-5.53-9.33-6.58c-5.08-1.35-10,.31-13.84,3.73l-8.44,8.44a74.57,74.57,0,0,0-30.46-12.64V23.82a2.63,2.63,0,0,0-.07-.58,14.715,14.715,0,0,0-6.68-11.6c-3.66-2.26-7.53-2.18-11.65-2.18-3.87,0-7.57-.12-11.07,1.86-4.47,2.53-6.81,6.94-7.25,11.91a2.73,2.73,0,0,0-.07.59v11.8A73.63,73.63,0,0,0,88,48.06l-8.13-8.13c-3.82-3.42-8.77-5.08-13.84-3.73-4,1-6.55,3.8-9.33,6.58s-5.53,5.36-6.58,9.33c-1.35,5.08.31,10,3.73,13.83l8,8a74.78,74.78,0,0,0-13.2,31H37.77a2.68,2.68,0,0,0-.59.06,14.768,14.768,0,0,0-11.6,6.68c-2.26,3.66-2.18,7.54-2.18,11.65,0,3.87-.12,7.57,1.86,11.08a14.66,14.66,0,0,0,11.91,7.25,2.771,2.771,0,0,0,.6.06H48.36A74.307,74.307,0,0,0,61.15,173.3l-8,8c-3.42,3.81-5.08,8.76-3.73,13.84,1,3.95,3.8,6.55,6.58,9.33s5.37,5.52,9.33,6.58c5.08,1.34,10-.31,13.84-3.74l8-7.95a74.44,74.44,0,0,0,31.71,13.11v10.28a2.74,2.74,0,0,0,.06.59,14.75,14.75,0,0,0,6.68,11.59c3.66,2.26,7.54,2.19,11.65,2.19,3.87,0,7.57.12,11.08-1.87a14.66,14.66,0,0,0,7.25-11.9,2.9,2.9,0,0,0,.07-.6V209.3c0-3.25-5.05-3.25-5.05,0v13.39c-.46,8-6.87,9.33-13.35,9.33s-12.89-1.38-13.35-9.33V209.3a2.39,2.39,0,0,0-2.71-2.42,3.23,3.23,0,0,0-.85-.24c-11.32-1.52-21.53-6.35-30.76-12.94a2.42,2.42,0,0,0-2.76-.21,2.27,2.27,0,0,0-1.72.73l-9.47,9.47c-5.89,5.28-11.47,1.72-16-2.85s-8.14-10.14-2.85-16l9.47-9.47a1.562,1.562,0,0,0,.16-.2,2.43,2.43,0,0,0,.87-3.81C60,162,56,151.33,54.1,139.79a2.65,2.65,0,0,0-.59-1.32,2.31,2.31,0,0,0-2.35-1.88H37.77c-8-.46-9.33-6.87-9.33-13.35s1.38-12.89,9.33-13.35H49.28a3.38,3.38,0,0,0,5-2.43c1.51-11.32,6.34-21.53,12.93-30.76a2.44,2.44,0,0,0,.37-2.43,2.26,2.26,0,0,0-.61-2.42L57.5,62.38c-5.29-5.89-1.72-11.47,2.85-16s10.14-8.13,16-2.84l9,9c.43,1.87,2.3,3.33,4.2,1.87,9.33-7.14,20-11.17,31.54-13.08a2.39,2.39,0,0,0,2.16-2.42,2.31,2.31,0,0,0,.62-1.65V23.82c.47-8,6.88-9.32,13.35-9.32s12.89,1.38,13.35,9.32v13.4a2.33,2.33,0,0,0,0,.38,3.35,3.35,0,0,0,2.81,3.82c11.33,1.52,21.53,6.35,30.76,12.94a2.54,2.54,0,0,0,3.88-1,2.64,2.64,0,0,0,.56-.42l9.47-9.47c5.89-5.29,11.47-1.72,16,2.84s8.14,10.15,2.85,16l-9.47,9.47a2.39,2.39,0,0,0-.73,1.5,2.34,2.34,0,0,0-.26,3.36c7.14,9.33,11.17,20,13.08,31.54a2.42,2.42,0,0,0,2.75,2.15,1.87,1.87,0,0,0,.35,0h13.39c8,.46,9.32,6.87,9.32,13.35,0,4.15-.58,8.28-3.1,10.83a9.45,9.45,0,0,1-5.66,2H223.24a2.3,2.3,0,0,0-1.92.92,2.53,2.53,0,0,0-1.07,2.22,8.52,8.52,0,0,0-3.68-1.83c-3.65-.83-8.83-.74-11.85,1.74-3.45,2.85-3.3,7-3.3,11.1v.78a39.55,39.55,0,0,0-14.21,5.7c-2.49-2.65-5.13-5.49-8.87-5.91-4.06-.45-7,2.12-9.55,4.89-2.41,2.58-3.91,5.68-2.9,9.27a12.13,12.13,0,0,0,3.27,5c.63.67,1.39,1.61,2.2,2.46a39.92,39.92,0,0,0-6,13.87c-3.56-.21-8,.44-10.38,2.54-5.75,5-4.1,17.35,3.57,19.46a24.219,24.219,0,0,0,6.48.39h.15a39.57,39.57,0,0,0,5.87,14.58c-.49.53-.93,1-1.32,1.43-2.79,2.79-5.21,5.74-4.4,10,1.33,6.95,10.3,12.84,16.71,8.68a30.17,30.17,0,0,0,4.93-4.15,39.13,39.13,0,0,0,14.42,5.92,25.06,25.06,0,0,0,.36,6.36,8.88,8.88,0,0,0,8,6.64c4,.48,8.76.25,11.56-3.08,2.33-2.79,2.34-6.49,2.24-10a38.84,38.84,0,0,0,14.34-6c.83.77,1.69,1.44,2.25,2,3,2.82,6.67,4.67,10.77,2.88,7-3,10.59-10.76,6.14-17a1.51,1.51,0,0,0-.32-.47c-.77-.77-1.83-2.2-3-3.43a39.169,39.169,0,0,0,5.58-13.74c1.16,0,2.28-.17,3.08-.18,3.54,0,7-1,9-4.24C273.46,201.82,273.22,196.28,271.75,192.53ZM247.16,222.4a2.6,2.6,0,0,0,1.25,4c.14.16.27.32.41.46a28.331,28.331,0,0,1,3,3c2,2.88,2,4.7-.49,7.18-1.82,1.82-2.74,2.49-5.21,1.38a13.5,13.5,0,0,1-4.43-3.34c-1.22-1.23-3.15-2.84-4.73-2a2.83,2.83,0,0,0-.84.44,35.34,35.34,0,0,1-15.74,6.59,2.13,2.13,0,0,0-.66.16,2.32,2.32,0,0,0-1.61,1.45c-1.92,3.52,2.57,9.89-3.34,11.27-2.93.68-7.06.33-7.7-3.18-.44-2.36.53-5-.06-7.35a3.19,3.19,0,0,0-.9-1.54h0a1.64,1.64,0,0,0-.25-.21,1.69,1.69,0,0,0-.34-.23l-.33-.17h0a2.61,2.61,0,0,0-.91-.2,35.69,35.69,0,0,1-15.76-6.57,2.42,2.42,0,0,0-2.95-.08,3.227,3.227,0,0,0-.51.14,1.24,1.24,0,0,0-.42.2,1.38,1.38,0,0,0-.51.47c-.87.89-1.74,1.85-2.67,2.67-2.34,2.05-4.5,3.52-7.25,1.34-1-.83-3.18-2.88-3.18-4.09,0-1.87,2-4.17,3.25-5.42a22.841,22.841,0,0,0,2.44-2.59,2.42,2.42,0,0,0,.73-3.73,35.65,35.65,0,0,1-6.64-16,2.69,2.69,0,0,0-.56-1.29,3.11,3.11,0,0,0-1.91-1.42,1.56,1.56,0,0,0-.44-.06c-2.85,0-8.78,1.07-9.94-2.32a10.76,10.76,0,0,1,0-6.21c1.54-4.27,6.65-1.52,10-2.15a2.36,2.36,0,0,0,2.84-2.14,35.43,35.43,0,0,1,6.62-16,2.49,2.49,0,0,0,.46-2.16v-.13c0-1.29-.94-2.14-1.77-3a32.854,32.854,0,0,1-3-2.95c-2.5-3.38-1.89-4.72.49-7.18s3.83-3,7.18-.49a23.7,23.7,0,0,1,2.46,2.45c.39.39.81.87,1.27,1.29.69,1.45,2.29,2.34,3.93,1.1a35.57,35.57,0,0,1,16-6.64A2.39,2.39,0,0,0,206.6,155c1.52-2.38-.24-7.24.88-9.5s4.74-2.68,7.25-2.07c3.86.94,3.15,4.83,3.15,8a12.12,12.12,0,0,0,.18,2.19,2.44,2.44,0,0,0,2,3.42,35.56,35.56,0,0,1,16,6.61,2.5,2.5,0,0,0,3.71-.69,2.748,2.748,0,0,0,.38-.2c2.95-1.93,4.71-7,9-5a8,8,0,0,1,3.64,3.64c1.16,2.48-.42,4.19-2,6.08-.88,1-2.73,2.46-3.46,4a2.35,2.35,0,0,0-.19,3.29,35.43,35.43,0,0,1,6.64,16,2.42,2.42,0,0,0,2.49,2.16c1.92.47,4.59,0,6.07.09,1.92.18,3.59.14,4.37,2.32a9,9,0,0,1,.35,3.1c0,1.41,0,3.44-1.12,4.53s-3.52.9-5,.9-3.89-.29-5.46.4a2.32,2.32,0,0,0-1.72,2.09A35.65,35.65,0,0,1,247.16,222.4Z" transform="translate(-23.39 -9.45)"/>
    <path id="Path_9844" data-name="Path 9844" class="cls-1" d="M212.09,177.8c-11.45,0-20.11,9.12-20.88,20.2a4.718,4.718,0,0,0,0,1.5c.77,11,9.44,20.2,20.88,20.2a20.95,20.95,0,1,0,0-41.9Zm0,35.9c-8.38,0-14.65-6.8-14.94-14.95.29-8.15,6.56-14.95,14.94-14.95a14.95,14.95,0,1,1,0,29.9Z" transform="translate(-23.39 -9.45)"/>
  </g>
</svg>
