<svg id="Layer_1" data-name="Layer 1" xmlns="http://www.w3.org/2000/svg" viewBox="0 0 212.1 217.23"><path d="M233.05,70.56l-95.31,39.65a2.09,2.09,0,0,0,.34,4c13.61,3,44.11,9.91,44.11,10.25s6.71,31.81,9.7,45.83a2.09,2.09,0,0,0,4,.35l39.92-97.32A2.1,2.1,0,0,0,233.05,70.56Z" transform="translate(-24.66 -18.21)" style="fill:#a2cb82;stroke:#1d1d1b;stroke-miterlimit:10;stroke-width:0.5px"/><path d="M232.89,70l-17.21,7.16-36.2,15.06-33,13.73-8.1,3.36a4,4,0,0,0-2.23,1.57,2.74,2.74,0,0,0,1.34,3.8,31.31,31.31,0,0,0,5,1.17q12.6,2.84,25.19,5.72c3.37.77,6.74,1.55,10.11,2.37,1,.25,2,.49,3,.76a4.76,4.76,0,0,0,.82.23s.19.09.23.08c-.14,0-.26-.89-.31-.35a6.14,6.14,0,0,0,.26,1.33c.22,1,.44,2.08.65,3.12q1,5,2.11,10,2.67,12.6,5.36,25.21c.37,1.77.75,3.53,1.13,5.3.34,1.6,1.1,3.1,3,3,1.42-.08,2.11-1.14,2.59-2.31l3.09-7.53,13.15-32.07,15.19-37c2.72-6.63,5.59-13.22,8.17-19.9A2.75,2.75,0,0,0,232.89,70c-.77.25-.44,1.46.33,1.21,1.47-.48,2.41.76,1.91,2.09-.09.23-.19.45-.28.68l-1.22,3L229.09,88l-14.15,34.5-14,34-4.39,10.7-1.09,2.65c-.07.17-.13.36-.22.53-.77,1.47-2.5.92-2.83-.52-1.82-7.76-3.33-15.61-5-23.4-1.41-6.67-2.84-13.33-4.22-20q-.21-1-.39-1.92c-.07-.35.06-.08-.06-.3a.9.9,0,0,0-.54-.49,26.2,26.2,0,0,0-4.87-1.26c-7.58-1.82-15.19-3.54-22.79-5.26l-11.75-2.64-2.53-.57c-.79-.18-2.1-.24-2.73-.78a1.49,1.49,0,0,1,.42-2.48c1.76-.92,3.74-1.56,5.58-2.33L173,96.21l36.45-15.16,22.65-9.42,1.11-.46C234,70.86,233.63,69.65,232.89,70Z" transform="translate(-24.66 -18.21)" style="stroke:#1d1d1b;stroke-miterlimit:10;stroke-width:0.5px"/><path d="M168.34,133l-6.63,15.11-10.53,24-2.43,5.53a2.58,2.58,0,0,0,.9,3.42,2.51,2.51,0,0,0,3.42-.9q3.31-7.56,6.64-15.11,5.25-12,10.52-24l2.43-5.53a2.59,2.59,0,0,0-.89-3.42A2.52,2.52,0,0,0,168.34,133Z" transform="translate(-24.66 -18.21)"/><path d="M228.9,18.49l-5.34,2.23-14.46,6-21.48,9L161.5,46.59,132.86,58.52,103.79,70.64,76.73,81.91,53.67,91.52,37,98.46l-8.18,3.4-.46.19a4.78,4.78,0,0,0-.61.28A4.68,4.68,0,0,0,25,105.12a3,3,0,0,0-.15.42v0a4.22,4.22,0,0,0,0,2.63,6.28,6.28,0,0,0,.43,1,4.68,4.68,0,0,0,2.31,2.25l.39.16a4.15,4.15,0,0,0,1.37.36L37.94,114l22.89,5.57,27.67,6.74,24,5.85c3,.73,5.94,1.56,8.93,2.25q.77,3.56,1.51,7.09,2.55,12,5.09,23.92l6.15,28.94q2.65,12.51,5.32,25c.86,4,1.51,8.2,2.59,12.18,0,.06,0,.12,0,.18a5,5,0,0,0,4.82,3.67,5.3,5.3,0,0,0,4.82-3.67l2.67-6.59,7.1-17.52,10.17-25.08q5.16-12.72,10.31-25.45l1.48-3.64-4.21-16.08c-.48,1.21-1,2.42-1.46,3.62l-1,2.34q-6,14.88-12.07,29.77-5.33,13.16-10.66,26.3l-5.7,14.07-3.88-18.27-6.15-28.94q-2.67-12.51-5.32-25c-.87-4.05-1.57-8.17-2.6-12.18l0-.18a4.92,4.92,0,0,0-3.49-3.49l-9.59-2.34-22.88-5.57-27.67-6.74-21.22-5.16,6-2.49,21.73-9.06L99.64,83.12l28.7-12,29-12.1,26.94-11.23,22.82-9.51,14.27-6L217.11,43.5c-1.87,4.85-3.67,9.73-5.62,14.55q-1.94,4.79-3.88,9.57l-3.37,8.32,12.51-4.42q2-4.8,3.89-9.59c1.2-3,2.33-6,3.48-9l10.2-26.45.73-1.87C236.34,21.3,232.3,17.07,228.9,18.49Z" transform="translate(-24.66 -18.21)"/></svg>