<svg xmlns="http://www.w3.org/2000/svg" width="44.79" height="39.119" viewBox="0 0 44.79 39.119">
  <g id="Group_30738" data-name="Group 30738" transform="translate(-1157.3 -246.75)">
    <g id="التعرفة_الجمركية" data-name="التعرفة الجمركية" transform="translate(1157.55 247)">
      <path id="Path_2680" data-name="Path 2680" d="M47.977,675.46H34.806a7.324,7.324,0,0,0-6.584,4.213,7.321,7.321,0,0,0-6.584-4.213H8.471a2.422,2.422,0,0,0-2.392,2.45v33.719a2.422,2.422,0,0,0,2.392,2.45H47.977a2.422,2.422,0,0,0,2.39-2.45V677.91A2.422,2.422,0,0,0,47.977,675.46Zm-39.5,37.084a.911.911,0,0,1-.9-.922V710.7H21.636a.764.764,0,1,0,0-1.527H7.571v-2.017a2.366,2.366,0,0,0,.9.179H21.638a5.9,5.9,0,0,1,5.79,5.217Zm19.005-3.768a7.26,7.26,0,0,0-5.838-2.976H8.471a.913.913,0,0,1-.9-.924h0V677.91a.911.911,0,0,1,.9-.922H21.638a5.917,5.917,0,0,1,5.838,5.98Zm21.4.4H34.816a.764.764,0,1,0,0,1.527H48.878v.922a.911.911,0,0,1-.9.922H29.013a5.9,5.9,0,0,1,5.79-5.217H47.969a2.362,2.362,0,0,0,.9-.179v2.024Zm0-4.3a.917.917,0,0,1-.9.924H34.806a7.26,7.26,0,0,0-5.838,2.976V682.965a5.919,5.919,0,0,1,5.838-5.982H47.977a.911.911,0,0,1,.9.922Z" transform="translate(-6.079 -675.46)" fill="#fff" stroke="#fff" stroke-miterlimit="10" stroke-width="0.5"/>
      <path id="Path_2681" data-name="Path 2681" d="M54.4,718.515l-.445,2.652a.765.765,0,0,0,.3.747.721.721,0,0,0,.438.145.749.749,0,0,0,.346-.087l2.327-1.255,2.326,1.255a.733.733,0,0,0,.784-.058.771.771,0,0,0,.3-.747l-.445-2.652,1.885-1.879a.772.772,0,0,0,.187-.784.753.753,0,0,0-.6-.52l-2.6-.389-1.165-2.417a.749.749,0,0,0-.67-.426.74.74,0,0,0-.666.426l-1.165,2.417-2.6.389a.746.746,0,0,0-.6.52.782.782,0,0,0,.189.784ZM56.13,716.4a.743.743,0,0,0,.561-.414l.67-1.39.676,1.385a.747.747,0,0,0,.561.414l1.494.223L59,717.7a.773.773,0,0,0-.214.676l.254,1.525-1.336-.721a.736.736,0,0,0-.689,0l-1.336.721.254-1.525a.773.773,0,0,0-.214-.676l-1.082-1.082Z" transform="translate(-45.916 -707.049)" fill="#fff" stroke="#fff" stroke-miterlimit="10" stroke-width="0.5"/>
      <path id="Path_2682" data-name="Path 2682" d="M42.534,799.277H54.055a.764.764,0,1,0,0-1.527H42.534a.764.764,0,1,0,0,1.527Z" transform="translate(-36.85 -780.891)" fill="#fff" stroke="#fff" stroke-miterlimit="10" stroke-width="0.5"/>
      <path id="Path_2683" data-name="Path 2683" d="M42.534,829.848H54.055a.764.764,0,1,0,0-1.527H42.534a.764.764,0,1,0,0,1.527Z" transform="translate(-36.85 -807.247)" fill="#fff" stroke="#fff" stroke-miterlimit="10" stroke-width="0.5"/>
      <path id="Path_2684" data-name="Path 2684" d="M42.534,860.447H54.055a.764.764,0,1,0,0-1.527H42.534a.764.764,0,1,0,0,1.527Z" transform="translate(-36.85 -833.628)" fill="#fff" stroke="#fff" stroke-miterlimit="10" stroke-width="0.5"/>
      <path id="Path_2685" data-name="Path 2685" d="M197.744,799.277h11.52a.764.764,0,1,0,0-1.527h-11.52a.764.764,0,1,0,0,1.527Z" transform="translate(-170.662 -780.891)" fill="#fff" stroke="#fff" stroke-miterlimit="10" stroke-width="0.5"/>
      <path id="Path_2686" data-name="Path 2686" d="M197.744,829.848h11.52a.764.764,0,1,0,0-1.527h-11.52a.764.764,0,1,0,0,1.527Z" transform="translate(-170.662 -807.247)" fill="#fff" stroke="#fff" stroke-miterlimit="10" stroke-width="0.5"/>
      <path id="Path_2687" data-name="Path 2687" d="M197.744,768.688h11.52a.764.764,0,1,0,0-1.527h-11.52a.764.764,0,0,0,0,1.528Z" transform="translate(-170.662 -754.518)" fill="#fff" stroke="#fff" stroke-miterlimit="10" stroke-width="0.5"/>
      <path id="Path_2688" data-name="Path 2688" d="M197.744,738.117h11.52a.764.764,0,1,0,0-1.527h-11.52a.764.764,0,1,0,0,1.527Z" transform="translate(-170.662 -728.163)" fill="#fff" stroke="#fff" stroke-miterlimit="10" stroke-width="0.5"/>
      <path id="Path_2689" data-name="Path 2689" d="M260.716,858.89h-3.292a.764.764,0,1,0,0,1.527h3.292a.764.764,0,1,0,0-1.527Z" transform="translate(-222.115 -833.602)" fill="#fff" stroke="#fff" stroke-miterlimit="10" stroke-width="0.5"/>
    </g>
  </g>
</svg>
