<svg id="Layer_1" data-name="Layer 1" xmlns="http://www.w3.org/2000/svg" viewBox="0 0 321.74 280.64"><g id="التعرفة_الجمركية" data-name="التعرفة الجمركية"><path d="M304.14.25H208.63c-20.94,0-39.1,12.48-47.76,30.57C152.21,12.73,134.07.25,113.11.25H17.6A17.58,17.58,0,0,0,.25,18v244.6A17.58,17.58,0,0,0,17.6,280.39h114c3.59,0,7.2-.05,10.82,0H304.14a17.58,17.58,0,0,0,17.35-17.77V18A17.58,17.58,0,0,0,304.14.25ZM17.6,269.31a6.61,6.61,0,0,1-6.53-6.69h0v-6.7h102a5.54,5.54,0,1,0,0-11.08h-102V230.16a17,17,0,0,0,6.53,1.3h95.51c21.51,0,39.34,16.52,42,37.85ZM155.46,242a52.63,52.63,0,0,0-42.35-21.6H17.6a6.62,6.62,0,0,1-6.53-6.69h0V18a6.61,6.61,0,0,1,6.53-6.69h95.51c23.35,0,42.35,19.46,42.35,43.39Zm155.21,2.84h-102a5.54,5.54,0,0,0,0,11.08h102v6.7a6.61,6.61,0,0,1-6.53,6.69H166.61c2.66-21.33,20.49-37.85,42-37.85h95.5a17.07,17.07,0,0,0,6.54-1.3v14.68Zm0-31.15a6.62,6.62,0,0,1-6.53,6.69H208.63A52.63,52.63,0,0,0,166.28,242V54.7c0-23.93,19-43.39,42.35-43.39h95.51A6.61,6.61,0,0,1,310.67,18h0Z" transform="translate(0)" style="fill:#a3cc84;stroke:#a3cc84;stroke-miterlimit:10;stroke-width:0.5px"/><path d="M61.78,83.42l-3.23,19.25a5.57,5.57,0,0,0,2.15,5.42,5.43,5.43,0,0,0,5.7.36l16.87-9.09,16.87,9.09a5.31,5.31,0,0,0,5.69-.41,5.62,5.62,0,0,0,2.16-5.42l-3.23-19.2,13.66-13.6a5.62,5.62,0,0,0,1.36-5.69,5.47,5.47,0,0,0-4.35-3.78L96.55,57.53,88.1,40a5.34,5.34,0,0,0-9.69,0L70,57.51,51.08,60.33a5.41,5.41,0,0,0-4.35,3.78,5.65,5.65,0,0,0,1.36,5.71ZM74.37,68.08a5.43,5.43,0,0,0,4.07-3L83.3,55l4.85,10.08a5.51,5.51,0,0,0,4.07,3l10.84,1.62-7.85,7.84a5.65,5.65,0,0,0-1.55,4.9L95.5,93.5l-9.69-5.22a5.28,5.28,0,0,0-5,0L71.12,93.5,73,82.44a5.58,5.58,0,0,0-1.59-4.9L63.52,69.7Z" transform="translate(0)" style="fill:#a3cc84;stroke:#a3cc84;stroke-miterlimit:10;stroke-width:0.5px"/><path d="M41.49,133.63h83.56a5.54,5.54,0,0,0,0-11.08H41.49a5.54,5.54,0,0,0,0,11.08Z" transform="translate(0)" style="fill:#a3cc84;stroke:#a3cc84;stroke-miterlimit:10;stroke-width:0.5px"/><path d="M41.49,164.2h83.56a5.54,5.54,0,1,0,0-11.08H41.49a5.54,5.54,0,0,0,0,11.08Z" transform="translate(0)" style="fill:#a3cc84;stroke:#a3cc84;stroke-miterlimit:10;stroke-width:0.5px"/><path d="M41.49,194.76h83.56a5.54,5.54,0,1,0,0-11.08H41.49a5.54,5.54,0,0,0,0,11.08Z" transform="translate(0)" style="fill:#a3cc84;stroke:#a3cc84;stroke-miterlimit:10;stroke-width:0.5px"/><path d="M196.69,133.63h83.56a5.54,5.54,0,1,0,0-11.08H196.69a5.54,5.54,0,1,0,0,11.08Z" transform="translate(0)" style="fill:#a3cc84;stroke:#a3cc84;stroke-miterlimit:10;stroke-width:0.5px"/><path d="M196.69,164.2h83.56a5.54,5.54,0,1,0,0-11.08H196.69a5.54,5.54,0,0,0,0,11.08Z" transform="translate(0)" style="fill:#a3cc84;stroke:#a3cc84;stroke-miterlimit:10;stroke-width:0.5px"/><path d="M196.69,103h83.56a5.54,5.54,0,1,0,0-11.08H196.69a5.54,5.54,0,1,0,0,11.08Z" transform="translate(0)" style="fill:#a3cc84;stroke:#a3cc84;stroke-miterlimit:10;stroke-width:0.5px"/><path d="M196.69,72.47h83.56a5.54,5.54,0,1,0,0-11.08H196.69a5.54,5.54,0,1,0,0,11.08Z" transform="translate(0)" style="fill:#a3cc84;stroke:#a3cc84;stroke-miterlimit:10;stroke-width:0.5px"/><path d="M280.25,183.68H256.37a5.54,5.54,0,0,0,0,11.08h23.88a5.54,5.54,0,1,0,0-11.08Z" transform="translate(0)" style="fill:#a3cc84;stroke:#a3cc84;stroke-miterlimit:10;stroke-width:0.5px"/></g></svg>