<svg id="Layer_1" data-name="Layer 1" xmlns="http://www.w3.org/2000/svg" viewBox="0 0 205.31 179.02"><g id="Group_31237" data-name="Group 31237"><g id="التعرفة_الجمركية" data-name="التعرفة الجمركية"><path id="Path_2680" data-name="Path 2680" d="M200.91,14.25H139.85a33.94,33.94,0,0,0-30.52,19.58A33.94,33.94,0,0,0,78.81,14.25h-61A11.22,11.22,0,0,0,6.69,25.61h0v156.3a11.21,11.21,0,0,0,11.08,11.36H200.91A11.23,11.23,0,0,0,212,181.91h0V25.61a11.23,11.23,0,0,0-11.09-11.36ZM17.79,186.16a4.21,4.21,0,0,1-4.17-4.26v-4.34H78.81a3.54,3.54,0,0,0,0-7.08H13.6v-9.36a10.9,10.9,0,0,0,4.18.83h61a27.32,27.32,0,0,1,26.84,24.18Zm88.1-17.46a33.63,33.63,0,0,0-27.11-13.8h-61a4.24,4.24,0,0,1-4.18-4.28h0v-125a4.22,4.22,0,0,1,4.16-4.28H78.81A27.42,27.42,0,0,1,105.92,49Zm99.19,1.84H139.9a3.54,3.54,0,0,0,0,7.08h65.18v4.28a4.2,4.2,0,0,1-4.15,4.27H113A27.35,27.35,0,0,1,139.85,162h61a11,11,0,0,0,4.17-.82v9.38Zm0-19.92a4.24,4.24,0,0,1-4.17,4.28H139.85a33.66,33.66,0,0,0-27.12,13.8V49.05a27.44,27.44,0,0,1,27.12-27.74h61.06a4.22,4.22,0,0,1,4.17,4.27h0Z" transform="translate(-6.69 -14.25)" style="fill:#4bafca"/><path id="Path_2681" data-name="Path 2681" d="M46,67.4,43.94,79.69a3.58,3.58,0,0,0,1.37,3.47,3.41,3.41,0,0,0,2,.66,3.46,3.46,0,0,0,1.6-.41L59.73,77.6l10.79,5.81a3.39,3.39,0,0,0,3.63-.27,3.56,3.56,0,0,0,1.37-3.46l-2.06-12.3,8.73-8.7a3.59,3.59,0,0,0,.88-3.63,3.49,3.49,0,0,0-2.79-2.41l-12-1.81L62.84,39.62a3.48,3.48,0,0,0-3.11-2,3.41,3.41,0,0,0-3,2L51.33,50.83,39.27,52.64a3.45,3.45,0,0,0-2.78,2.41,3.61,3.61,0,0,0,.87,3.63Zm8-9.81a3.44,3.44,0,0,0,2.6-1.91l3.11-6.45,3.13,6.42a3.47,3.47,0,0,0,2.61,1.91l6.93,1-5.06,5a3.61,3.61,0,0,0-1,3.14l1.18,7.06-6.2-3.34a3.4,3.4,0,0,0-3.19,0L52,73.83l1.17-7.06a3.57,3.57,0,0,0-1-3.14l-5-5Z" transform="translate(-6.69 -14.25)" style="fill:#4bafca"/><path id="Path_2682" data-name="Path 2682" d="M33,99.47H86.44a3.54,3.54,0,1,0,.08-7.08H33a3.54,3.54,0,1,0-.08,7.08Z" transform="translate(-6.69 -14.25)" style="fill:#4bafca"/><path id="Path_2683" data-name="Path 2683" d="M33,119H86.44a3.54,3.54,0,1,0,.08-7.08H33a3.54,3.54,0,0,0-.08,7.08Z" transform="translate(-6.69 -14.25)" style="fill:#4bafca"/><path id="Path_2684" data-name="Path 2684" d="M33,138.57H86.44a3.54,3.54,0,0,0,0-7.08H33a3.54,3.54,0,0,0,0,7.08Z" transform="translate(-6.69 -14.25)" style="fill:#4bafca"/><path id="Path_2685" data-name="Path 2685" d="M132.23,99.47h53.39a3.54,3.54,0,0,0,0-7.08H132.23a3.54,3.54,0,0,0,0,7.08Z" transform="translate(-6.69 -14.25)" style="fill:#4bafca"/><path id="Path_2686" data-name="Path 2686" d="M132.23,119h53.39a3.54,3.54,0,1,0,.08-7.08H132.23a3.54,3.54,0,0,0-.08,7.08Z" transform="translate(-6.69 -14.25)" style="fill:#4bafca"/><path id="Path_2687" data-name="Path 2687" d="M132.23,79.93h53.39a3.54,3.54,0,0,0,0-7.08H132.23a3.54,3.54,0,0,0,0,7.08Z" transform="translate(-6.69 -14.25)" style="fill:#4bafca"/><path id="Path_2688" data-name="Path 2688" d="M132.23,60.39h53.39a3.54,3.54,0,1,0,.08-7.08H132.23a3.54,3.54,0,0,0-.08,7.08Z" transform="translate(-6.69 -14.25)" style="fill:#4bafca"/><path id="Path_2689" data-name="Path 2689" d="M185.62,131.47H170.43a3.54,3.54,0,0,0-.08,7.08h15.34a3.54,3.54,0,1,0,.08-7.08h-.15Z" transform="translate(-6.69 -14.25)" style="fill:#4bafca"/></g></g></svg>