<svg id="المهام" xmlns="http://www.w3.org/2000/svg" width="32.186" height="47.676" viewBox="0 0 32.186 47.676">
  <path id="Path_2724" data-name="Path 2724" d="M1221.11,29.12c-.016.01-.032.023-.05.032h0C1221.1,29.133,1221.113,29.12,1221.11,29.12Z" transform="translate(-1218.957 -23.938)" fill="#fff"/>
  <path id="Path_2725" data-name="Path 2725" d="M1218.343,26.161a.543.543,0,0,1-.05.032.359.359,0,0,0-.135.124.385.385,0,0,0-.087.161.375.375,0,0,0-.008.193.356.356,0,0,0,.058.179l.076.1a.472.472,0,0,0,.212.124l.129.018a.483.483,0,0,0,.243-.066.646.646,0,0,0,.143-.1h0l.076-.1c.024-.037-.052.246.048-.116a.467.467,0,0,0,0-.257.366.366,0,0,0-.085-.161.375.375,0,0,0-.135-.126.362.362,0,0,0-.116-.048.375.375,0,0,0-.193-.008.349.349,0,0,0-.18.056.55.55,0,0,0-.22.286l-.018.127a.482.482,0,0,0,.066.245l.076.1a.482.482,0,0,0,.212.126h0l-.114-.05h0l-.222-.288h0l-.018-.129h0l.018-.129h0l.048-.116h0l.076-.1h0l.1-.076a.3.3,0,0,1-.045.026l.483.833a.542.542,0,0,0,.05-.032.346.346,0,0,0,.135-.124.354.354,0,0,0,.087-.161.376.376,0,0,0,.01-.193.361.361,0,0,0-.058-.179l-.076-.1a.482.482,0,0,0-.212-.124l-.129-.018A.483.483,0,0,0,1218.343,26.161Z" transform="translate(-1216.435 -21.395)" fill="#fff"/>
  <path id="Path_2726" data-name="Path 2726" d="M1242.416,42.9V5.117a1.873,1.873,0,0,0-1.842-1.855h-6.864c-.291-.023-.594,0-.862,0h-2.608a2.064,2.064,0,0,0,.053-.438,4.273,4.273,0,0,0-.142-1.644,1.827,1.827,0,0,0-1.126-1.043,2.2,2.2,0,0,0-.679-.084h-2.6a1.833,1.833,0,0,0-1.829,1.786,7.448,7.448,0,0,0,.037,1.392v.031h-10.8a1.876,1.876,0,0,0-1.892,1.845v39.7a1.87,1.87,0,0,0,1.77,1.86.486.486,0,0,0,.069,0h27.455a1.867,1.867,0,0,0,1.855-1.844v-.27C1242.416,44.012,1242.416,43.455,1242.416,42.9ZM1225.322,2.2V1.814a.019.019,0,0,1,0-.013.626.626,0,0,0,.035-.106.617.617,0,0,0,.056-.087c.021-.023.043-.042.066-.063h0l.085-.047.047-.016a.488.488,0,0,1,.073-.013h2.824a.508.508,0,0,1,.074.013.287.287,0,0,1,.048.016l.084.047h.019l.056.056h0v.01l.047.085a.369.369,0,0,1,.015.047.512.512,0,0,1,.013.076V2.9a.563.563,0,0,0-.037.132c-.01.014-.019.034-.029.05a.358.358,0,0,1-.047.056l-.024.021c-.029.013-.076.05-.095.06h-.01a.361.361,0,0,0-.059.016h-2.952c-.027-.016-.066-.029-.09-.043l-.044-.029a.689.689,0,0,1-.059-.06.617.617,0,0,0-.056-.087q-.014-.051-.032-.1V2.813C1225.322,2.628,1225.322,2.412,1225.322,2.2Zm-5.641,2.721c0-.026.016-.035.019-.035a.32.32,0,0,0,.05-.077l.047-.047a.447.447,0,0,1,.056-.039l.069-.031.027-.01a.529.529,0,0,1,.066-.013h5.561c.066,0,.134.013.2.013h2.7a.25.25,0,0,0,.05,0l.122-.01h5.02c.037.01.074.026.109.032a.946.946,0,0,0,.093.063h.01a.354.354,0,0,1,.04.043c.01.018.031.043.037.053a.651.651,0,0,1,.029.063.331.331,0,0,1,.013.031.221.221,0,0,1,0,.04.6.6,0,0,1,0,.066V12.2a1,1,0,0,0-.031.109.466.466,0,0,0-.053.09h0a.945.945,0,0,1-.072.069h0a.93.93,0,0,0-.093.053h-.011l-.068.016h-13.687l-.069-.016c.031.019.047.035-.023,0l-.016-.01h-.008a.366.366,0,0,0-.076-.043l-.076-.076h0c-.014-.027-.031-.06-.047-.087s-.01-.019-.01-.023a.583.583,0,0,0-.015-.063V5.032a.4.4,0,0,1,.018-.072l-.018.026A.116.116,0,0,0,1219.681,4.921Zm-6.976.013C1212.718,4.9,1212.721,4.9,1212.7,4.933Zm28.3,39.9v.072a.2.2,0,0,1-.015.056c0,.01-.019.053-.026.082.037-.138,0-.035-.013,0v.01a.085.085,0,0,1-.027.047h0a.017.017,0,0,0,0,.013v-.01c-.022.023-.082.072-.1.092a.384.384,0,0,0-.056.031c.043-.023,0,0-.029.016l-.021.013.018-.013h0l-.061.014c-.026,0-.076.01-.1.01h-27.537a.566.566,0,0,0-.093-.027c-.053-.035-.146-.1-.085-.04l-.106-.106c.045.047-.011-.051-.047-.088a.347.347,0,0,0-.021-.072.06.06,0,0,1,0-.021v-.076h0V5.11h0c0-.061.043-.174,0-.04.01-.024.013-.056.021-.08a.1.1,0,0,1,.013-.039c.013-.021.029-.053.043-.074a1.03,1.03,0,0,1,.092-.1h0c.018-.019.044-.032.047-.029h.01l.034-.018a.555.555,0,0,0,.079-.029h0c.021,0,.05-.01.061-.01h5.211a1.987,1.987,0,0,0-.05.407v6.774a2.47,2.47,0,0,0,.1.895,1.847,1.847,0,0,0,1.73,1.21h13.544a.268.268,0,0,0,.05,0,1.836,1.836,0,0,0,1.757-1.812V5.114a1.958,1.958,0,0,0-.053-.447h5.263a.751.751,0,0,0,.08.023.011.011,0,0,1,.01,0l.076.04h.01a.3.3,0,0,0,.043.034l.056.06h0c.016.043.053.138.05.1.016.069.034.161.027.06V44.591a2.1,2.1,0,0,1,.015.249Z" transform="translate(-1210.734 0.453)" fill="#fff"/>
  <path id="Path_2727" data-name="Path 2727" d="M1240.154,40.258V3.009a2.589,2.589,0,0,0-1.516-2.722,6.063,6.063,0,0,0-2.14-.161h-9.01l.465.611a3.573,3.573,0,0,0-.583-3.12c-.845-.869-2.069-.693-3.186-.693-1.084,0-2.167-.087-2.941.8a3.646,3.646,0,0,0-.5,3.012l.465-.611h-9.482c-1.157,0-2.352-.114-3.163.872s-.531,2.413-.531,3.586V40.95a7.662,7.662,0,0,0,.068,1.77,2.373,2.373,0,0,0,1.979,1.77,32.74,32.74,0,0,0,4.317.026h20.738c1.287,0,3.094.359,4.172-.55s.845-2.431.845-3.71a.483.483,0,0,0-.965,0c0,1.107.349,2.9-1.078,3.26a8.914,8.914,0,0,1-2.01.035h-23.973c-1.063,0-2.767.314-3.084-1.092a7.794,7.794,0,0,1-.034-1.656V3.563c0-.764-.142-1.63.536-2.159a3.208,3.208,0,0,1,2.047-.3h9.628a.483.483,0,0,0,.465-.611,2.748,2.748,0,0,1,.3-2.113c.549-.644,1.448-.483,2.212-.483a4.442,4.442,0,0,1,2.262.211c.739.483.719,1.609.581,2.386a.491.491,0,0,0,.467.611h9.766c.716,0,1.4.042,1.77.758a5.556,5.556,0,0,1,.161,2.309v36.09A.477.477,0,0,0,1240.154,40.258Z" transform="translate(-1207.99 3.09)" fill="#fff"/>
  <path id="Path_2728" data-name="Path 2728" d="M1296.65,6.845a1.748,1.748,0,0,0,0-.378c.026.045,0,.15-.06.121a4.117,4.117,0,0,0,.927,0h1.463c.278,0,.373.063.3-.035-.119-.161-.034.349-.035.483a4.22,4.22,0,0,1,.015.423c0,.021.17-.1.024-.045a4.927,4.927,0,0,1-1.4,0,5.309,5.309,0,0,1-1.3.011c-.542-.18-.8.59-.372.882h.01l.243-.9c.206,0,.113.1.19-.047a2.024,2.024,0,0,0,0-.531.483.483,0,0,0-.965,0c0,.539-.026,1.543.78,1.543a.487.487,0,0,0,.243-.9h0l-.373.882a2.7,2.7,0,0,0,.788.024h1.427c.458,0,1.018.116,1.388-.227a1.372,1.372,0,0,0,.278-1.117,1.64,1.64,0,0,0-.192-1.083.922.922,0,0,0-.692-.335c-.763-.066-1.562,0-2.328,0-.888,0-1.313.3-1.313,1.218A.476.476,0,0,0,1296.65,6.845Z" transform="translate(-1281.579 -4.192)" fill="#fff"/>
  <path id="Path_2729" data-name="Path 2729" d="M1261,26.329c.023-.04,0-.04-.031-.013a2.37,2.37,0,0,1,.454,0h1.982c1.334,0,2.669.014,4,.014,2.323,0,4.666-.1,6.984-.014a1.04,1.04,0,0,0,.175,0c-.185.031-.048-.132-.029.032,0-.039-.114-.055-.095-.114a6.322,6.322,0,0,0,0,1.689v4.248a4.365,4.365,0,0,1-.01,1.165c.021-.04.014-.063.089-.1-.217.125-.8,0-1.072,0h-11.047a9.863,9.863,0,0,1-1.448,0,.483.483,0,0,0-.373.883l.027.018.483-.833a.635.635,0,0,0-.2-.085l-.129.948h.013a.483.483,0,0,0,.243-.9c.011,0,0-.029.008.026a5.15,5.15,0,0,1,0-1.146v-4.6c0-.322-.031-1.171,0-1.287a.486.486,0,0,0-.883-.372l-.018.024.833.483.034-.056a.482.482,0,0,0-.833-.483l-.034.056c-.333.544.47.965.833.483l.019-.024-.883-.372a6.3,6.3,0,0,0-.035,1.548v3.229a17.986,17.986,0,0,0,0,2.584.933.933,0,0,0,.467.745l.245-.9h-.013c-.525,0-.682.869-.129.948-.093-.045-.1-.048-.029-.011a.482.482,0,0,0,.483-.833l-.027-.019-.372.883a5.33,5.33,0,0,0,1.155.035h10.285a19.379,19.379,0,0,0,2.446,0,.912.912,0,0,0,.825-.92c.161-1.659,0-3.408,0-5.075a14.031,14.031,0,0,0,0-1.965,1.011,1.011,0,0,0-.275-.644c-.549-.525-1.818-.245-2.474-.245-1.459,0-2.917.013-4.376.014-1.821,0-3.643-.014-5.47-.014-.747,0-2.2-.346-2.651.483C1259.871,26.389,1260.7,26.876,1261,26.329Z" transform="translate(-1251.638 -20.712)" fill="#fff"/>
  <path id="Path_2730" data-name="Path 2730" d="M1217.8,28.355a.483.483,0,0,0,0-.965A.483.483,0,0,0,1217.8,28.355Z" transform="translate(-1215.834 -22.486)" fill="#fff"/>
  <path id="Path_2731" data-name="Path 2731" d="M1245.314,66.191c0,.177.045-.137-.023.082l.93.256.018-.068c.161-.619-.7-.814-.93-.257,0,0,.073-.161-.026.032a.483.483,0,0,0,.833.483v-.01c.322-.475-.367-.94-.758-.586l-.059.047a.485.485,0,0,0,.372.882h.016l-.372-.882a.361.361,0,0,0-.066.032l.483.833.019-.013a.483.483,0,0,0-.483-.833c.188-.095-.236-.037-.3-.037h-26.683c-.161,0-.47-.064-.4-.021a.486.486,0,0,0-.726.417v.016l.825-.343-.108-.106.076.586v-.013a.482.482,0,0,0,0-.483,3.739,3.739,0,0,1-.018-.912V28.228a13.308,13.308,0,0,1,0-1.744.484.484,0,0,0-.932-.257l-.021.063.93.257c.05-.185-.063.04.045-.08.344-.389-.1-1.08-.586-.759h0a.483.483,0,0,0,.483.833c.18-.088-.031-.051.185-.09-.365.064.031.043.082.053a5.75,5.75,0,0,0,1.039,0h3.924l-.467-.6a20.793,20.793,0,0,0-.068,3.569c0,1.353-.076,2.735,0,4.079a2.347,2.347,0,0,0,1.274,2.006,6.861,6.861,0,0,0,3.009.249h8.3a22.121,22.121,0,0,0,3.607-.035,2.333,2.333,0,0,0,1.813-1.5,5.269,5.269,0,0,0,.142-1.784V30.133a24.565,24.565,0,0,0-.071-4.243l-.465.61h3.527c.505,0,1.019-.029,1.522,0,.322.019-.061-.051.251.1l-.238-.417c0,.072.05.151.048.216,0,.039.116.431.042.116.106.442.846.483.93,0v-.034l-.949-.129c.161,5.038,0,10.107,0,15.147V57.165c0,3.006-.068,6.021,0,9.025a.483.483,0,0,0,.965,0c-.13-5.224,0-10.468,0-15.694V34.749c0-2.795.087-5.6,0-8.4-.016-.518-.849-.687-.948-.127v.032h.939a.639.639,0,0,0-.071-.208q-.174-.253.016.134a.482.482,0,0,0-.24-.417,1.741,1.741,0,0,0-.322-.195,4.545,4.545,0,0,0-1.363-.043h-4.109a.483.483,0,0,0-.465.611,23.541,23.541,0,0,1,.035,3.987v2.2c0,.644.142,1.466-.307,2.011a1.774,1.774,0,0,1-1.549.492h-10.619c-1,0-2.874.388-3.519-.6a3.259,3.259,0,0,1-.227-1.81v-4.17a12.1,12.1,0,0,1,.034-2.092.492.492,0,0,0-.467-.611h-4.505a3.415,3.415,0,0,0-.951.051c.015,0-.458.224-.248.117l.483.833h.01l-.584-.759a1.179,1.179,0,0,0-.293.507.483.483,0,0,0,.93.257l.023-.063-.932-.257a4.1,4.1,0,0,0-.037.991v38.7a1.231,1.231,0,0,0,.15.769v-.471a.5.5,0,0,0,.076.586l.106.106a.487.487,0,0,0,.824-.341v-.016l-.727.417c.611.4,1.738.153,2.413.153h25.156a1.74,1.74,0,0,0,.787-.095l-.483-.833-.019.013a.482.482,0,0,0,.483.833.321.321,0,0,1,.066-.032c.51-.23.142-1.015-.373-.883h-.015l.372.882a1.371,1.371,0,0,0,.254-.2l-.758-.584v.01l.833.483c-.116.23.1-.206.122-.262l-.93-.257-.018.069a.482.482,0,0,0,.93.256,1.1,1.1,0,0,0,.058-.338A.486.486,0,0,0,1245.314,66.191Z" transform="translate(-1215.523 -20.897)" fill="#fff"/>
  <path id="Path_2732" data-name="Path 2732" d="M1394.44,280.916l.029-.016Z" transform="translate(-1364.441 -235.207)" fill="#fff"/>
  <path id="Path_2733" data-name="Path 2733" d="M1392.256,278.766l.027-.016-.483-.833-.027.016a.373.373,0,0,0-.135.124.353.353,0,0,0-.087.161.358.358,0,0,0,0,.193.339.339,0,0,0,.056.179l.076.1a.49.49,0,0,0,.212.124l.129.018a.483.483,0,0,0,.245-.066l.027-.016a.358.358,0,0,0,.135-.124.354.354,0,0,0,.087-.161.358.358,0,0,0,0-.193.34.34,0,0,0-.056-.179l-.076-.1a.483.483,0,0,0-.214-.124l-.127-.018a.483.483,0,0,0-.245.066l-.027.016a.373.373,0,0,0-.135.124.353.353,0,0,0-.087.161.358.358,0,0,0,0,.193.339.339,0,0,0,.056.179l.076.1a.49.49,0,0,0,.212.124l.129.018A.483.483,0,0,0,1392.256,278.766Z" transform="translate(-1362.006 -232.648)" fill="#fff"/>
  <path id="Path_2734" data-name="Path 2734" d="M1395.57,279.85h0a.235.235,0,0,0,.031-.05A.256.256,0,0,0,1395.57,279.85Z" transform="translate(-1365.389 -234.284)" fill="#fff"/>
  <path id="Path_2735" data-name="Path 2735" d="M1393.093,277.788h0a.368.368,0,0,0,.187-.04.377.377,0,0,0,.161-.1.36.36,0,0,0,.1-.161.354.354,0,0,0,.042-.187l-.016-.127a.483.483,0,0,0-.125-.214l-.1-.076a.5.5,0,0,0-.245-.066h0l.417.727a.322.322,0,0,0,.031-.05l-.074.1h0l.076-.1c.016-.037.034-.076.048-.114a.5.5,0,0,0,0-.257.474.474,0,0,0-.124-.212.482.482,0,0,0-.214-.124.462.462,0,0,0-.256,0l-.116.048-.1.076h0l-.039.05-.04.051a.22.22,0,0,0-.024.042.361.361,0,0,0-.058.18.353.353,0,0,0,.01.191.53.53,0,0,0,.222.285l.114.05a.5.5,0,0,0,.257,0l.114-.05a.483.483,0,0,0,.174-.172.4.4,0,0,1,.026-.045l-.076.1h0l-.214.124h0l-.594-.594h0l.125-.212h0l-.076.1h0a.085.085,0,0,1-.008.016l-.021.031a.479.479,0,0,0,.417.721h0a.368.368,0,0,0,.187-.04.377.377,0,0,0,.161-.1.361.361,0,0,0,.1-.161.353.353,0,0,0,.042-.187l-.016-.127a.482.482,0,0,0-.125-.214l-.1-.076a.5.5,0,0,0-.245-.066h0a.374.374,0,0,0-.187.042.361.361,0,0,0-.161.1.366.366,0,0,0-.1.161.353.353,0,0,0-.042.185l.018.129a.482.482,0,0,0,.124.214l.1.074A.459.459,0,0,0,1393.093,277.788Z" transform="translate(-1362.912 -231.74)" fill="#fff"/>
  <path id="Path_2736" data-name="Path 2736" d="M1263.56,30.154c.032-.04.035-.063.029-.066s-.01.013-.013.016,0,.01,0,.016h0a.065.065,0,0,0-.016.034Z" transform="translate(-1254.619 -24.749)" fill="#fff"/>
  <path id="Path_2737" data-name="Path 2737" d="M1261.387,27.884a.18.18,0,0,0,.021-.032c.013-.021.021-.048.031-.068a.416.416,0,0,0,.027-.068h0s.018-.122.018-.13a.328.328,0,0,0,0-.069.429.429,0,0,0-.01-.066l-.048-.116a.354.354,0,0,0-.077-.1l-.1-.077-.114-.048a.375.375,0,0,0-.193-.008.253.253,0,0,0-.122.032.363.363,0,0,0-.161.1,1.157,1.157,0,0,0-.087.113l.076-.1a.512.512,0,0,0-.13.222h0l-.016.127.066-.245-.029.068a.427.427,0,0,0-.026.066.6.6,0,0,0-.021.142.37.37,0,0,0,.042.187.362.362,0,0,0,.1.161.544.544,0,0,0,.341.142l.129-.016a.482.482,0,0,0,.212-.125l.076-.1a.47.47,0,0,0,.066-.245h0l-.018.129v-.016l-.048.116a.021.021,0,0,1,0-.01.356.356,0,0,0,.058-.179.178.178,0,0,1,.01-.072l-.018.129h0l-.05.114h0l-.076.1c.031-.034.056-.071.084-.106l-.076.1h0l-.586.076h0l-.1-.076h0l-.076-.1h0l-.048-.114h0l-.018-.129h0l.018-.127a.021.021,0,0,1,0,.013l.05-.114a.23.23,0,0,1-.027.042.36.36,0,0,0-.056.179.375.375,0,0,0,.008.193.354.354,0,0,0,.087.161.36.36,0,0,0,.135.124l.116.05a.493.493,0,0,0,.256,0l.116-.05a.464.464,0,0,0,.187-.179Z" transform="translate(-1252.03 -22.238)" fill="#fff"/>
  <path id="Path_2738" data-name="Path 2738" d="M1264.858,77.483l.039.016h0a.161.161,0,0,0-.047-.019S1264.858,77.48,1264.858,77.483Z" transform="translate(-1255.701 -64.517)" fill="#fff"/>
  <path id="Path_2739" data-name="Path 2739" d="M1262.1,75.385l.027.011-.116-.048h.01a.366.366,0,0,0,.18.056.375.375,0,0,0,.193-.008.354.354,0,0,0,.161-.087.372.372,0,0,0,.124-.135l.048-.116a.491.491,0,0,0,0-.256l-.048-.116a.483.483,0,0,0-.174-.172.818.818,0,0,0-.137-.061h-.026l-.127.948h0l-.129-.018h0l-.212-.124h0l-.124-.212h0a.355.355,0,0,0,.087.161.371.371,0,0,0,.135.124.344.344,0,0,0,.18.056.354.354,0,0,0,.192,0l.116-.048a.482.482,0,0,0,.172-.174l.05-.114a.5.5,0,0,0,0-.257.177.177,0,0,0-.026-.06.347.347,0,0,0-.1-.161.335.335,0,0,0-.161-.1c-.069-.029-.037-.018-.06-.024l-.129-.018h0a.354.354,0,0,0-.187.042.361.361,0,0,0-.161.1l-.074.1a.367.367,0,0,0-.058.18.25.25,0,0,0,0,.129.356.356,0,0,0,.058.179l.074.1a.482.482,0,0,0,.214.124h.024l-.114-.048.021.011.483-.833a1.234,1.234,0,0,0-.161-.064.354.354,0,0,0-.191-.01.362.362,0,0,0-.18.058.359.359,0,0,0-.135.124.353.353,0,0,0-.087.161l-.018.129a.5.5,0,0,0,.066.243l.076.1A.483.483,0,0,0,1262.1,75.385Z" transform="translate(-1253.075 -61.953)" fill="#fff"/>
  <path id="Path_2740" data-name="Path 2740" d="M1300.141,19.832C1300.063,19.773,1300.07,19.81,1300.141,19.832Z" transform="translate(-1285.267 -16.117)" fill="#fff"/>
  <path id="Path_2741" data-name="Path 2741" d="M1297.923,16.874l-.056-.031c-.547-.3-1.035.537-.483.833l.056.031c.545.3,1.035-.537.483-.833l-.056-.031c-.547-.3-1.035.537-.483.833l.056.031C1297.973,18,1298.462,17.17,1297.923,16.874Z" transform="translate(-1282.797 -13.584)" fill="#fff"/>
  <path id="Path_2742" data-name="Path 2742" d="M1242.268,120.866a4.912,4.912,0,0,0,.689.019h2.277a1.41,1.41,0,0,0,1.329-1,2.4,2.4,0,0,0,.056-.685v-1.726c.428-.409.85-.822,1.27-1.241.494-.494.981-.991,1.461-1.5a.433.433,0,0,0,0-.6.427.427,0,0,0-.6,0q-1.044,1.1-2.135,2.161v-.179a1.771,1.771,0,0,0-.161-.854,1.409,1.409,0,0,0-1.232-.722h-2.7a1.422,1.422,0,0,0-1.194.619,1.561,1.561,0,0,0-.232.914v3.057a4.053,4.053,0,0,0,.021.61,1.407,1.407,0,0,0,1.155,1.12Zm-.619-4.9a.84.84,0,0,1,.516-.8,1.652,1.652,0,0,1,.623-.056h2.051a2.59,2.59,0,0,1,.57.019.835.835,0,0,1,.644.816v.9c-.3.285-.594.566-.895.845l-.644.584a1.428,1.428,0,0,1-.222.185.074.074,0,0,1-.023.011h0c-.024-.011-.05-.034-.072-.047a3.674,3.674,0,0,1-1.078-1.1.433.433,0,0,0-.579-.15.426.426,0,0,0-.15.578,4.8,4.8,0,0,0,1.173,1.258,1.1,1.1,0,0,0,.872.293,1.7,1.7,0,0,0,.766-.505c.285-.261.57-.52.851-.785v1.369a.922.922,0,0,1-.241.7.822.822,0,0,1-.581.241h-2.547a1.089,1.089,0,0,1-.7-.161c-.449-.322-.338-.965-.338-1.448v-2.74Z" transform="translate(-1235.763 -95.176)" fill="#fff"/>
  <path id="Path_2743" data-name="Path 2743" d="M1240.564,119.881c.875.072,1.783.035,2.66.019a1.942,1.942,0,0,0,1.385-.425,1.864,1.864,0,0,0,.547-1.5,9.535,9.535,0,0,1,0-1.287c.072-.531.516-.827.883-1.191a14.849,14.849,0,0,0,1.794-1.834.684.684,0,0,0-.068-.953.665.665,0,0,0-.89.039,9.413,9.413,0,0,0-1.057,1.091c-.333.338-.716.714-1.078,1.068l.412.172c0-1.014-.431-1.881-1.535-1.987-.737-.072-1.5-.011-2.253-.011a2.445,2.445,0,0,0-1.609.352c-1.014.795-.626,2.607-.626,3.717,0,1.186-.031,2.4,1.361,2.727.3.069.431-.4.129-.465-1.2-.28-1.007-1.556-1.007-2.516,0-.8-.275-2.341.311-2.967s1.942-.364,2.718-.364a4.071,4.071,0,0,1,1.22.058c.669.224.8.843.8,1.456a.245.245,0,0,0,.412.171q.652-.644,1.287-1.287a5.61,5.61,0,0,1,.634-.655l.26.253-.415.431q-.571.586-1.155,1.163c-.26.259-.858.66-1,1.007a3.544,3.544,0,0,0-.021,1.244c0,.681.093,1.512-.624,1.884a4.483,4.483,0,0,1-1.887.132c-.531,0-1.068.024-1.6-.019C1240.255,119.373,1240.256,119.855,1240.564,119.881Z" transform="translate(-1234.059 -93.95)" fill="#fff"/>
  <path id="Path_2744" data-name="Path 2744" d="M1243.224,120.26c.037-.339.734-.618,1.023-.616h1.664a.952.952,0,0,1,.891.294c.343.3.376.309.343.708-.039.473-.254.631-.6.952a5.833,5.833,0,0,1-.949.869c-.133.09-.113.1.06.039l-.362-.275a3.637,3.637,0,0,1-.362-.376c-.294-.351-.592-.9-1.147-.615-1.02.529.4,1.8.846,2.15,1.224.965,2-.053,2.928-.92l-.412-.171c0,.766.22,2.043-.85,2.072a14.44,14.44,0,0,1-2.127,0c-1.2-.161-.948-.965-.948-1.823V120.26a.241.241,0,1,0-.483,0,29.521,29.521,0,0,0,0,3.54c.1.832.661,1.055,1.43,1.062h1.857a1.845,1.845,0,0,0,1.157-.208c.682-.5.446-1.628.446-2.347a.245.245,0,0,0-.412-.171,5.465,5.465,0,0,1-1.022.941,1.22,1.22,0,0,1-1.414-.179,4.632,4.632,0,0,1-.438-.433c-.134-.151-.552-.586.068-.483a3.756,3.756,0,0,1,.354.422c.161.161.483.521.718.579.285.069.441-.145.644-.331.483-.436,1.334-.965,1.5-1.591a1.956,1.956,0,0,0-.251-1.5c-.426-.512-1.136-.385-1.729-.385-1.075,0-2.748-.368-2.906,1.1C1242.709,120.561,1243.192,120.561,1243.224,120.26Z" transform="translate(-1237.097 -99.469)" fill="#fff"/>
  <path id="Path_2745" data-name="Path 2745" d="M1310.949,135.49h-11.816a.563.563,0,0,0,0,1.126h11.816a.563.563,0,0,0,0-1.126Z" transform="translate(-1283.996 -113.193)" fill="#fff"/>
  <path id="Path_2746" data-name="Path 2746" d="M1309.623,133.627c-3.861,0-7.758-.161-11.618,0-.75.031-1.479.89-.644,1.466.405.283,1.208.143,1.662.143h7.4c.994,0,1.993.034,2.986,0a1.051,1.051,0,0,0,.788-.238.809.809,0,0,0-.5-1.361c-.3-.05-.435.415-.129.465l.061.652h-.08a.8.8,0,0,1-.241,0h-9.964c-.228,0-1.323.161-1.5,0a1.874,1.874,0,0,1,0-.644c.024-.021.119.011.15,0a2.886,2.886,0,0,1,.745,0h10.9a.241.241,0,0,0-.008-.483Z" transform="translate(-1282.67 -111.57)" fill="#fff"/>
  <path id="Path_2747" data-name="Path 2747" d="M1310.949,179.55h-11.816a.563.563,0,0,0,0,1.126h11.816a.563.563,0,0,0,0-1.126Z" transform="translate(-1283.996 -150.164)" fill="#fff"/>
  <path id="Path_2748" data-name="Path 2748" d="M1309.623,177.677c-3.861,0-7.758-.161-11.618,0-.75.031-1.479.89-.644,1.466.405.283,1.208.143,1.662.143h7.4c.994,0,1.993.034,2.986,0a1.051,1.051,0,0,0,.788-.238.809.809,0,0,0-.5-1.361c-.3-.05-.435.415-.129.465l.061.652h-.08a.8.8,0,0,1-.241,0h-9.964c-.228,0-1.323.161-1.5,0a1.874,1.874,0,0,1,0-.644c.024-.021.119.011.15,0a2.886,2.886,0,0,1,.745,0h10.9a.241.241,0,0,0-.008-.483Z" transform="translate(-1282.67 -148.532)" fill="#fff"/>
  <path id="Path_2749" data-name="Path 2749" d="M1310.949,233.45h-11.816a.563.563,0,0,0,0,1.126h11.816a.563.563,0,0,0,0-1.126Z" transform="translate(-1283.996 -195.392)" fill="#fff"/>
  <path id="Path_2750" data-name="Path 2750" d="M1309.623,231.627c-3.861,0-7.758-.161-11.618,0-.75.031-1.479.89-.644,1.466.405.282,1.208.143,1.662.143h7.4c.994,0,1.993.032,2.986,0a1.045,1.045,0,0,0,.788-.24.809.809,0,0,0-.5-1.361c-.3-.05-.435.415-.129.467l.061.644h-.023c-.015.008-.042,0-.058,0a.8.8,0,0,1-.241,0h-9.964c-.228,0-1.323.161-1.5,0a1.874,1.874,0,0,1,0-.644c.024-.021.119.01.15,0a2.816,2.816,0,0,1,.745,0h10.9a.241.241,0,0,0-.008-.475Z" transform="translate(-1282.67 -193.802)" fill="#fff"/>
  <path id="Path_2751" data-name="Path 2751" d="M1249.2,164.858q-1.163,1.223-2.376,2.4c-.063.063-.127.122-.19.182v-.792a1.771,1.771,0,0,0-.161-.854,1.413,1.413,0,0,0-1.233-.722h-2.7a1.425,1.425,0,0,0-1.2.619,1.576,1.576,0,0,0-.23.914v3.057a4.032,4.032,0,0,0,.021.608,1.387,1.387,0,0,0,1.16,1.126,4.912,4.912,0,0,0,.689.019h2.277a1.41,1.41,0,0,0,1.329-1,2.4,2.4,0,0,0,.056-.685v-1.126q.862-.814,1.7-1.652c.494-.494.981-.991,1.461-1.5a.424.424,0,1,0-.6-.6Zm-3.123,2.158v.965c-.161.143-.307.288-.463.431-.212.2-.425.391-.644.586a1.406,1.406,0,0,1-.222.183l-.023.013h0c-.024-.013-.05-.034-.071-.047a3.659,3.659,0,0,1-1.08-1.1.431.431,0,0,0-.579-.15.425.425,0,0,0-.15.578,4.793,4.793,0,0,0,1.173,1.257,1.092,1.092,0,0,0,.872.294,1.7,1.7,0,0,0,.766-.507c.138-.126.278-.253.417-.381v.776a.921.921,0,0,1-.241.7.822.822,0,0,1-.581.241H1242.7a1.089,1.089,0,0,1-.7-.161c-.449-.322-.338-.965-.338-1.448v-2.751a.84.84,0,0,1,.516-.8,1.688,1.688,0,0,1,.623-.056h2.051a2.692,2.692,0,0,1,.569.019.835.835,0,0,1,.644.816C1246.079,166.654,1246.079,166.835,1246.079,167.016Z" transform="translate(-1235.78 -137.729)" fill="#fff"/>
  <path id="Path_2752" data-name="Path 2752" d="M1247.37,163.577c-.837.879-1.688,1.744-2.566,2.574l.412.171c0-.845.092-1.77-.692-2.307-.73-.505-1.826-.3-2.663-.3-.874,0-1.85-.1-2.4.739s-.264,2.27-.264,3.2c0,.87-.161,1.86.574,2.487s1.873.4,2.748.4,1.813.111,2.388-.689a1.711,1.711,0,0,0,.3-.891c.056-.753-.116-1.242.473-1.805q.8-.772,1.588-1.566c.362-.367,1.039-.827,1.194-1.343a.663.663,0,0,0-1.044-.71c-.257.171-.016.589.243.417l.1.438-.311.322q-.261.267-.523.533-.47.483-.949.948c-.41.4-1.168.854-1.247,1.44-.063.462.068.946-.024,1.408a1.216,1.216,0,0,1-1.273,1.015c-.447.04-.917,0-1.366,0a6.84,6.84,0,0,1-1.406-.029c-1.223-.274-.98-1.673-.98-2.647,0-.944-.335-2.724.785-3.12a8.733,8.733,0,0,1,2.626-.064c.626,0,1.3.045,1.564.751a3.947,3.947,0,0,1,.074,1.376.245.245,0,0,0,.412.171c.878-.837,1.73-1.7,2.574-2.574C1247.927,163.695,1247.585,163.352,1247.37,163.577Z" transform="translate(-1234.118 -136.619)" fill="#fff"/>
  <path id="Path_2753" data-name="Path 2753" d="M1247.292,170.14a1.51,1.51,0,0,1-.161,1.006,4.818,4.818,0,0,1-.658.607c-.124.117-.253.232-.386.341q.427-.04-.214-.311a7.439,7.439,0,0,1-.631-.742c-.36-.4-1.078-.462-1.218.2-.146.693.948,1.574,1.43,1.887.944.613,1.554-.061,2.253-.7l-.412-.171c0,.471.059,1.165-.431,1.458-.309.183-1.263.021-1.63.021-.61,0-1.643.1-1.857-.615a5.427,5.427,0,0,1,0-1.361v-1.532c0-.473-.053-.558.344-.915a.809.809,0,0,1,.8-.307h1.4a2.662,2.662,0,0,1,.679,0l.687.6v.544a.241.241,0,1,0,.483,0c0-.6,0-1.215-.615-1.516a6.6,6.6,0,0,0-2.518-.1c-.621,0-1.311-.068-1.636.582a1.838,1.838,0,0,0-.121.819c-.015.611,0,1.224,0,1.836s-.182,1.519.227,2.047c.454.582,1.345.412,1.985.412.684,0,1.754.224,2.317-.274.483-.422.36-1.118.36-1.688a.245.245,0,0,0-.412-.171c-.542.5-1.178,1.038-1.908.441-.161-.13-1.226-1.078-.483-1.028.13,0,.517.59.661.711s.344.341.52.343c.332,0,.668-.46.875-.644.232-.214.61-.439.739-.734a3.217,3.217,0,0,0,0-1.025.241.241,0,0,0-.479-.014Z" transform="translate(-1237.241 -140.854)" fill="#fff"/>
  <path id="Path_2754" data-name="Path 2754" d="M1249.2,215.243q-1.163,1.224-2.376,2.4l-.19.18v-.8a1.771,1.771,0,0,0-.161-.854,1.41,1.41,0,0,0-1.233-.722h-2.7a1.425,1.425,0,0,0-1.2.619,1.571,1.571,0,0,0-.23.912v3.057a4.054,4.054,0,0,0,.021.61,1.39,1.39,0,0,0,1.16,1.126,5.171,5.171,0,0,0,.689.019h2.277a1.41,1.41,0,0,0,1.329-1,2.4,2.4,0,0,0,.056-.685v-1.126q.862-.8,1.7-1.651c.494-.494.981-.991,1.461-1.5a.433.433,0,0,0,0-.6.425.425,0,0,0-.607,0Zm-3.123,2.158v.965l-.463.431q-.322.294-.644.584a1.34,1.34,0,0,1-.222.185l-.023.013h0c-.024-.013-.05-.035-.071-.047a3.665,3.665,0,0,1-1.08-1.105.433.433,0,0,0-.579-.15.428.428,0,0,0-.15.579,4.829,4.829,0,0,0,1.173,1.257,1.1,1.1,0,0,0,.872.294,1.711,1.711,0,0,0,.766-.507l.417-.381v.776a.921.921,0,0,1-.241.7.828.828,0,0,1-.581.241H1242.7a1.089,1.089,0,0,1-.7-.161c-.449-.322-.338-.965-.338-1.448v-2.753a.838.838,0,0,1,.516-.8,1.654,1.654,0,0,1,.623-.056h2.051a2.693,2.693,0,0,1,.569.018.838.838,0,0,1,.644.817C1246.079,217.037,1246.079,217.219,1246.079,217.4Z" transform="translate(-1235.78 -180.005)" fill="#fff"/>
  <path id="Path_2755" data-name="Path 2755" d="M1247.4,214.042c-.837.877-1.688,1.744-2.566,2.574l.418.183c0-.843.092-1.77-.692-2.307-.73-.5-1.826-.3-2.663-.3-.874,0-1.85-.1-2.4.74s-.264,2.27-.264,3.2c0,.87-.161,1.86.574,2.487s1.873.4,2.748.4,1.813.109,2.388-.69a1.708,1.708,0,0,0,.3-.89c.056-.753-.116-1.242.473-1.807q.8-.771,1.588-1.566c.362-.367,1.039-.825,1.194-1.342a.663.663,0,0,0-1.044-.711c-.257.172-.016.59.243.417l.1.439-.311.322q-.261.269-.523.534-.47.483-.949.946c-.41.4-1.168.856-1.247,1.448-.063.463.068.948-.024,1.408a1.217,1.217,0,0,1-1.273,1.017c-.447.04-.917,0-1.366,0a6.837,6.837,0,0,1-1.406-.031c-1.223-.272-.98-1.672-.98-2.645,0-.946-.335-2.724.785-3.12a8.735,8.735,0,0,1,2.626-.064c.626,0,1.3.045,1.564.751a3.936,3.936,0,0,1,.074,1.374.243.243,0,0,0,.412.171c.879-.835,1.73-1.7,2.574-2.574C1247.96,214.158,1247.619,213.817,1247.4,214.042Z" transform="translate(-1234.152 -178.975)" fill="#fff"/>
  <path id="Path_2756" data-name="Path 2756" d="M1247.3,220.54a1.512,1.512,0,0,1-.161,1.006,5.039,5.039,0,0,1-.658.607c-.124.117-.252.232-.386.339.285-.026.214-.13-.214-.309a7.612,7.612,0,0,1-.631-.742c-.36-.4-1.078-.462-1.218.2-.146.693.948,1.574,1.43,1.886.944.613,1.554-.061,2.252-.7l-.412-.171c0,.471.059,1.165-.431,1.458-.309.183-1.263.021-1.63.021-.61,0-1.643.1-1.857-.616a5.414,5.414,0,0,1,0-1.36v-1.533c0-.471-.053-.557.344-.915a.828.828,0,0,1,.8-.306h1.406a2.591,2.591,0,0,1,.679,0l.687.6v.544a.241.241,0,1,0,.483,0c0-.6,0-1.215-.615-1.516a6.6,6.6,0,0,0-2.518-.1c-.621,0-1.311-.068-1.636.582a1.838,1.838,0,0,0-.121.819c-.014.611,0,1.224,0,1.836s-.182,1.519.227,2.047c.454.582,1.345.412,1.986.412.684,0,1.754.224,2.317-.274.483-.422.36-1.126.36-1.688a.245.245,0,0,0-.412-.171c-.542.5-1.178,1.038-1.908.441-.161-.13-1.226-1.078-.483-1.028.13.008.516.59.661.71s.344.343.52.344c.332,0,.668-.462.875-.652.232-.214.61-.439.739-.735a3.211,3.211,0,0,0,0-1.023.241.241,0,0,0-.481-.006Z" transform="translate(-1237.249 -183.145)" fill="#fff"/>
</svg>
