<svg id="Layer_1" data-name="Layer 1" xmlns="http://www.w3.org/2000/svg" viewBox="0 0 610.52 610.63"><title>translate</title><path d="M704.76,400V171.43a76.19,76.19,0,0,0-76.19-76.19H400a76.19,76.19,0,0,0-76.19,76.19V400A76.19,76.19,0,0,0,400,476.19H628.57A76.19,76.19,0,0,0,704.76,400Z" transform="translate(-94.74 -94.74)" style="fill:none;stroke:#000;stroke-linecap:round;stroke-linejoin:round"/><path d="M247.62,323.94H171.43a76.19,76.19,0,0,0-76.19,76.19V628.68a76.19,76.19,0,0,0,76.19,76.19h.13l228.57-.4a76.19,76.19,0,0,0,76.06-76.19V552.38" transform="translate(-94.74 -94.74)" style="fill:none;stroke:#000;stroke-linecap:round;stroke-linejoin:round"/><path d="M285.71,476.3H171.43" transform="translate(-94.74 -94.74)" style="fill:none;stroke:#000;stroke-linecap:round;stroke-linejoin:round"/><path d="M342.87,533.33l-38.1,38.1q-19,19-95.24,57.14" transform="translate(-94.74 -94.74)" style="fill:none;stroke:#000;stroke-linecap:round;stroke-linejoin:round"/><path d="M209.54,476.31q19,66.64,57.14,95.18t95.24,57.08" transform="translate(-94.74 -94.74)" style="fill:none;stroke:#000;stroke-linecap:round;stroke-linejoin:round"/><path d="M514.29,171.43,400,400" transform="translate(-94.74 -94.74)" style="fill:none;stroke:#000;stroke-linecap:round;stroke-linejoin:round"/><path d="M514.29,171.43,628.57,400" transform="translate(-94.74 -94.74)" style="fill:none;stroke:#000;stroke-linecap:round;stroke-linejoin:round"/><path d="M590.48,323.81H438.1" transform="translate(-94.74 -94.74)" style="fill:none;stroke:#000;stroke-linecap:round;stroke-linejoin:round"/></svg>