<svg id="Layer_1" data-name="Layer 1" xmlns="http://www.w3.org/2000/svg" viewBox="0 0 647.62 647.73"><path d="M628.57,76.19H400a95.35,95.35,0,0,0-95.24,95.24V400A95.35,95.35,0,0,0,400,495.24H628.57A95.35,95.35,0,0,0,723.81,400V171.43A95.34,95.34,0,0,0,628.57,76.19ZM685.71,400a57.2,57.2,0,0,1-57.14,57.14H400A57.2,57.2,0,0,1,342.86,400V171.43A57.2,57.2,0,0,1,400,114.29H628.57a57.2,57.2,0,0,1,57.14,57.14Z" transform="translate(-76.19 -76.19)" style="fill:#fff"/><path d="M476.19,533.33a19.05,19.05,0,0,0-19.05,19v75.91a57.23,57.23,0,0,1-57,57.14l-228.54.39h-.13a57.2,57.2,0,0,1-57.14-57.14V400.13A57.2,57.2,0,0,1,171.43,343h76.19a19.05,19.05,0,0,0,0-38.1H171.43a95.35,95.35,0,0,0-95.24,95.24V628.68a95.34,95.34,0,0,0,95.24,95.24h.16l228.58-.4a95.37,95.37,0,0,0,95.07-95.23V552.38A19.05,19.05,0,0,0,476.19,533.33Z" transform="translate(-76.19 -76.19)" style="fill:#fff"/><path d="M152.38,476.3a19.05,19.05,0,0,0,19.05,19.05H195.5c13.28,39.68,32.33,69.58,56.76,89.06-12.89,7.37-29.6,16.3-51.24,27.12a19.05,19.05,0,0,0,17,34.08c29-14.51,51.64-26.8,68.61-37.32a757.15,757.15,0,0,0,66.74,37.32,19,19,0,0,0,17-34.08q-27.76-13.86-51-27.8l36.93-36.93a19,19,0,1,0-26.94-26.94L291.31,558a60.28,60.28,0,0,1-4.9,4.33c-2.84-2-5.62-4-8.31-6-17.17-12.87-31.28-33.3-42.1-60.9h49.71a19,19,0,1,0,0-38.09H171.43A19,19,0,0,0,152.38,476.3Z" transform="translate(-76.19 -76.19)" style="fill:#a3cc84"/><path d="M531.32,162.91c-.06-.13-.14-.24-.2-.36q-.25-.5-.54-1c-.14-.23-.29-.46-.44-.69s-.39-.57-.6-.85-.34-.46-.52-.68-.42-.5-.64-.74-.42-.45-.63-.66-.44-.43-.67-.63-.48-.44-.73-.64l-.69-.53-.84-.6-.7-.44-1-.53-.37-.21-.36-.16c-.31-.15-.63-.28-1-.41s-.56-.23-.85-.33l-.84-.28c-.33-.09-.65-.19-1-.27l-.78-.17c-.35-.07-.69-.14-1-.19l-.8-.09-1-.08h-1.81l-1,.08-.81.09c-.34,0-.69.12-1,.19l-.79.17-1,.27-.85.28-.86.33c-.31.13-.62.26-.93.41l-.37.16c-.13.07-.25.15-.38.21l-.93.53c-.24.14-.48.29-.71.45s-.56.38-.83.58l-.7.54-.72.63c-.23.21-.46.42-.68.64s-.42.43-.62.66-.44.49-.65.74-.35.45-.52.68-.41.56-.6.85-.3.46-.44.69-.36.63-.53.95c-.07.13-.15.24-.21.37L383,391.48a19.05,19.05,0,0,0,34.08,17l32.83-65.66H578.7l32.84,65.66a19,19,0,1,0,34.07-17ZM468.91,304.76,514.29,214l45.37,90.74Z" transform="translate(-76.19 -76.19)" style="fill:#a3cc84"/></svg>